<svg xmlns="http://www.w3.org/2000/svg" xmlns:xlink="http://www.w3.org/1999/xlink" viewBox="0 0 161.19 319.27"><defs><style>.cls-1{font-size:24px;}.cls-1,.cls-12{font-family:NanumSquareRoundB, NanumSquareRound;font-weight:700;}.cls-2{fill:url(#linear-gradient);}.cls-3{fill:url(#linear-gradient-2);}.cls-4{fill:url(#linear-gradient-3);}.cls-5{fill:url(#linear-gradient-4);}.cls-6{fill:url(#linear-gradient-5);}.cls-7{fill:url(#linear-gradient-6);}.cls-8{fill:url(#linear-gradient-7);}.cls-9{fill:url(#linear-gradient-8);}.cls-10{fill:url(#linear-gradient-9);}.cls-11{fill:url(#linear-gradient-10);}.cls-12{font-size:14px;}</style><linearGradient id="linear-gradient" x1="31.88" y1="15.02" x2="31.88" y2="182.84" gradientUnits="userSpaceOnUse"><stop offset="0" stop-color="#dd1818"/><stop offset="1" stop-color="#333"/></linearGradient><linearGradient id="linear-gradient-2" x1="80.59" y1="15.02" x2="80.59" y2="182.84" xlink:href="#linear-gradient"/><linearGradient id="linear-gradient-3" x1="57.53" y1="15.02" x2="57.53" y2="182.84" xlink:href="#linear-gradient"/><linearGradient id="linear-gradient-4" x1="80.59" y1="15.03" x2="80.59" y2="182.84" xlink:href="#linear-gradient"/><linearGradient id="linear-gradient-5" x1="57.53" y1="15.03" x2="57.53" y2="182.84" xlink:href="#linear-gradient"/><linearGradient id="linear-gradient-6" x1="54.04" y1="15.03" x2="54.04" y2="182.84" xlink:href="#linear-gradient"/><linearGradient id="linear-gradient-7" x1="128.25" y1="15.03" x2="128.25" y2="182.84" xlink:href="#linear-gradient"/><linearGradient id="linear-gradient-8" x1="138.74" y1="15.02" x2="138.74" y2="182.84" xlink:href="#linear-gradient"/><linearGradient id="linear-gradient-9" x1="120.33" y1="15.03" x2="120.33" y2="182.84" xlink:href="#linear-gradient"/><linearGradient id="linear-gradient-10" x1="18.25" y1="282.81" x2="18.25" y2="318.37" xlink:href="#linear-gradient"/></defs><title>cbAsset 8</title><g id="Layer_2" data-name="Layer 2"><g id="Layer_8" data-name="Layer 8"><text class="cls-1" transform="translate(0 223.48)">할로윈</text><polygon class="cls-2" points="43.58 98.16 31.88 118.42 20.17 98.16 43.58 98.16"/><polygon class="cls-3" points="92.29 98.16 80.59 118.42 68.89 98.16 92.29 98.16"/><path class="cls-4" d="M59.07,136.69v6.25H50.19v-6.66a56.32,56.32,0,0,1-32.25-14.77A33.85,33.85,0,0,0,31.44,143v-4.15h7.75v8.71a45.35,45.35,0,0,0,33.63,1.23v-7.94h7.12v4.6c9.12-5.39,15.56-14,17.18-23.9C87.64,130.55,74.13,136.32,59.07,136.69Z"/><path class="cls-5" d="M154.36,56.88c-4.18-4.64-7-6-14.19-6H140c-7.05-.37-21.29,3.63-25.58,21.41a4.11,4.11,0,1,0,8,1.93c3.69-15.33,15.9-15.22,17.26-15.15h.28c5-.06,5.72.33,8.36,3.24,5.82,6.43,4.63,18.14,4.62,18.26l0,.23v.24c-.09,17.71-9.08,19.91-9.79,20.27-34.83,15.44-36.78,28.81-36.82,31.39V150.6c-5.84,3.05-26.84,11.45-48.2,11.45S14.42,153.57,8.2,150.52V56.7h4.64V76.12a3.5,3.5,0,0,0,7,0V73.18a3.34,3.34,0,0,0,1.66.44,3.49,3.49,0,0,0,3.5-3.5V56.7h5c0,.06,0,.12,0,.17v8.25a6.5,6.5,0,0,0,12.75,1.77V88.12a4,4,0,0,0,8,0V81.4a2.49,2.49,0,0,0,4.11-1.9V56.7h7.31V80a5.5,5.5,0,0,0,11,0V72.1l.5,0a5.5,5.5,0,0,0,5.5-5.5v-9a5.62,5.62,0,0,0-.08-.92H84.9a4,4,0,0,0-.65,2.17V70a4,4,0,0,0,8,0v-.93a4,4,0,0,0,3.5-3.95V56.7h.07c7,0,12.61-2,16.62-6.05a21.37,21.37,0,0,0,5.89-14c0-5.72-1.8-10.45-5.38-14-6.47-6.45-16.36-6.5-16.76-6.49h-72a4.1,4.1,0,0,0,0,8.2h72a21.1,21.1,0,0,1,4,.54,14.57,14.57,0,0,1,6.94,3.55c2,2,3,4.69,3,8.19,0,2-.84,11.91-14.31,11.91l-90.5.07H4.1a4.06,4.06,0,0,0-2.53,1A4,4,0,0,0,0,52.74V155.43l2.11,1.17c1,.56,27.78,13.65,55.93,13.65s53.48-13.15,54.41-13.7l2-1.2V132.79c0-.1,2-10.71,32-24l.07,0c.72-.34,14.67-4.19,14.53-27.52C161.25,79.12,162.17,65.51,154.36,56.88Z"/><path class="cls-6" d="M16.61,33.89H98.45a2,2,0,0,0,0-4.1H16.61a2.05,2.05,0,1,0,0,4.1Z"/><path class="cls-7" d="M9.64,42.34H98.45a2,2,0,0,0,0-4.1H9.64a2,2,0,1,0,0,4.1Z"/><path class="cls-8" d="M128,30a20.54,20.54,0,0,1,.54,3.66h0c.21,3.85-.56,9.13-4.3,15.16A46.27,46.27,0,0,0,132,35.12a25,25,0,0,0,.89-3.61,17.48,17.48,0,0,0,.13-5.05,50,50,0,0,0-1.86-5.94c-.95-2.49-2.41-5.14-2.85-6.31,0,0-3.15-5.4,1.13-14.21,0,0-11.74,10.34-2.47,27A13.61,13.61,0,0,1,128,30Z"/><polygon class="cls-9" points="131.81 148.76 138.72 153.83 145.66 148.73 145.66 138.54 138.72 133.44 131.81 138.51 131.81 148.76"/><path class="cls-10" d="M129.81,140.14h-16a3,3,0,0,0-3,3v1a3,3,0,0,0,3,3h16Z"/><rect class="cls-11" y="282.77" width="36.5" height="36.5"/><text class="cls-12" transform="translate(0 261.54)">핏자국, 호박</text></g></g></svg>