<svg xmlns="http://www.w3.org/2000/svg" xmlns:xlink="http://www.w3.org/1999/xlink" viewBox="0 0 161.69 319.27"><defs><style>.cls-1{fill:url(#New_Gradient_Swatch_1);}.cls-2{fill:url(#New_Gradient_Swatch_1-2);}.cls-3{fill:url(#New_Gradient_Swatch_1-3);}.cls-4{fill:url(#New_Gradient_Swatch_1-4);}.cls-5{fill:url(#New_Gradient_Swatch_1-5);}.cls-6{font-size:24px;}.cls-12,.cls-6{font-family:NanumSquareRoundB, NanumSquareRound;font-weight:700;}.cls-7{fill:url(#linear-gradient);}.cls-8{fill:url(#linear-gradient-2);}.cls-9{fill:url(#linear-gradient-3);}.cls-10{fill:url(#linear-gradient-4);}.cls-11{fill:url(#New_Gradient_Swatch_1-6);}.cls-12{font-size:14px;}</style><linearGradient id="New_Gradient_Swatch_1" x1="-0.54" y1="19.44" x2="0.46" y2="174.44" gradientUnits="userSpaceOnUse"><stop offset="0" stop-color="#54beff"/><stop offset="1" stop-color="#0072d4"/></linearGradient><linearGradient id="New_Gradient_Swatch_1-2" x1="57.95" y1="19.06" x2="58.95" y2="174.08" xlink:href="#New_Gradient_Swatch_1"/><linearGradient id="New_Gradient_Swatch_1-3" x1="54.41" y1="19.08" x2="55.41" y2="174.1" xlink:href="#New_Gradient_Swatch_1"/><linearGradient id="New_Gradient_Swatch_1-4" x1="128.74" y1="18.6" x2="129.74" y2="173.6" xlink:href="#New_Gradient_Swatch_1"/><linearGradient id="New_Gradient_Swatch_1-5" x1="80.48" y1="18.91" x2="81.48" y2="173.91" xlink:href="#New_Gradient_Swatch_1"/><linearGradient id="linear-gradient" x1="15.3" y1="201.22" x2="15.3" y2="231.69" xlink:href="#New_Gradient_Swatch_1"/><linearGradient id="linear-gradient-2" x1="10.83" y1="201.22" x2="10.83" y2="231.69" xlink:href="#New_Gradient_Swatch_1"/><linearGradient id="linear-gradient-3" x1="19.34" y1="201.21" x2="19.34" y2="231.69" xlink:href="#New_Gradient_Swatch_1"/><linearGradient id="linear-gradient-4" x1="24.32" y1="201.22" x2="24.32" y2="231.7" xlink:href="#New_Gradient_Swatch_1"/><linearGradient id="New_Gradient_Swatch_1-6" x1="18.25" y1="283.1" x2="18.25" y2="317.1" xlink:href="#New_Gradient_Swatch_1"/></defs><title>cbAsset 9</title><g id="Layer_2" data-name="Layer 2"><g id="Layer_8" data-name="Layer 8"><path class="cls-1" d="M0,144a31.75,31.75,0,0,0,.5,5.45v-9.88A24.46,24.46,0,0,0,0,144Z"/><path class="cls-2" d="M17.11,33.89H99a2.05,2.05,0,0,0,0-4.1H17.11a2.05,2.05,0,1,0,0,4.1Z"/><path class="cls-3" d="M10.14,42.34H99a2.05,2.05,0,0,0,0-4.1H10.14a2,2,0,1,0,0,4.1Z"/><path class="cls-4" d="M128.53,30a19.68,19.68,0,0,1,.54,3.65h0c.21,3.85-.56,9.13-4.3,15.16a46.27,46.27,0,0,0,7.71-13.72,25,25,0,0,0,.89-3.61,17.14,17.14,0,0,0,.13-5.05,51,51,0,0,0-1.85-5.94c-1-2.49-2.42-5.14-2.86-6.31,0,0-3.15-5.4,1.14-14.21,0,0-11.75,10.34-2.48,27A13.24,13.24,0,0,1,128.53,30Z"/><path class="cls-5" d="M154.86,56.87c-4.18-4.63-7-6-14.19-6h-.21c-7.05-.37-21.29,3.63-25.57,21.41a4.1,4.1,0,1,0,8,1.93c3.69-15.33,15.9-15.22,17.26-15.15h.28c5-.06,5.72.33,8.36,3.24,5.82,6.43,4.63,18.14,4.62,18.26l0,.23v.24c-.09,17.71-9.08,19.91-9.79,20.27-34.83,15.44-36.78,28.81-36.82,31.39V150.6c-5.83,3.05-26.84,11.45-48.19,11.45-2,0-4.11-.08-6.17-.22A36.23,36.23,0,0,0,57.49,144c0-14.07-22.24-58.59-24.77-63.62a4.45,4.45,0,0,0-7.95,0c-1.46,2.91-9.53,19-16.07,34.86V56.7H96.32c7,0,12.61-2,16.62-6.05a21.37,21.37,0,0,0,5.89-14c0-5.72-1.8-10.45-5.38-14-6.47-6.46-16.36-6.5-16.76-6.49h-72a4.1,4.1,0,0,0,0,8.2h72a21.16,21.16,0,0,1,4,.54,14.58,14.58,0,0,1,6.93,3.55c2,2,3,4.69,3,8.19,0,2-.84,11.91-14.31,11.91l-90.5.07H4.6a4.06,4.06,0,0,0-2.53,1A4.08,4.08,0,0,0,.5,52.74v96.7a36.79,36.79,0,0,0,2.05,7.13l.06,0a123.46,123.46,0,0,0,13.81,5.69,29.6,29.6,0,0,1-6.36-11.14A24.13,24.13,0,0,1,8.9,144c0-7.79,10.93-33.05,19.85-51.55,8.91,18.5,19.84,43.76,19.84,51.55a28.28,28.28,0,0,1-6.13,16.66,21.47,21.47,0,0,1-8.36,6.72c3.94.87,8.09,1.61,12.37,2.12a100.19,100.19,0,0,0,12.08.76c28.21,0,53.47-13.15,54.4-13.7l2-1.2V132.79c0-.1,2-10.71,32-24l.07,0c.72-.34,14.67-4.19,14.53-27.52C161.75,79.12,162.67,65.51,154.86,56.87Z"/><text class="cls-6" transform="translate(32.99 223.48)">비오는 날</text><path class="cls-7" d="M25.34,206.58,26.59,205a.81.81,0,0,0-1.25-1l-1.24,1.54a15.63,15.63,0,0,0-21.24,2.9.53.53,0,0,0,.08.75.54.54,0,0,0,.75-.08A4.49,4.49,0,0,1,11,214.32a4.15,4.15,0,0,1-.3.43l0,0a.1.1,0,0,0,0,.05l-.07.16v0a.43.43,0,0,0,0,.16v0a.44.44,0,0,0,.06.16h0a.76.76,0,0,0,.11.14h0l.06.05.05,0,0,0H11l0,0h.2l0,0h.05l.05,0,0,0,.05,0,0,0,0,0a4.5,4.5,0,0,1,5.57-1.16L8.86,224.5A1.42,1.42,0,0,0,7.6,225l-1.5,1.86c-1.08,1.35-2,1.69-2.37,1.43l-.08-.06c-.78-.63-.8-1.12-.81-1.29a2.85,2.85,0,0,1,.84-1.82,1.42,1.42,0,0,0-2-2,5.68,5.68,0,0,0-1.69,4,4.6,4.6,0,0,0,1.83,3.34l.09.07a3.38,3.38,0,0,0,2.34.72,5.92,5.92,0,0,0,4.05-2.56l1.5-1.86a1.42,1.42,0,0,0,.26-1.25l8.28-10.27a4.48,4.48,0,0,1,.16,5.82.54.54,0,0,0,.08.75h0a.53.53,0,0,0,.73-.09,4.49,4.49,0,1,1,7,5.63.54.54,0,0,0,.09.75.52.52,0,0,0,.74-.08A15.62,15.62,0,0,0,25.34,206.58Zm-12.61,5.67a5.55,5.55,0,0,0-6.19-5.8A14.57,14.57,0,0,1,22.83,206,21.16,21.16,0,0,0,12.73,212.25ZM19,214.43c-.16-.17-.34-.33-.52-.49a5.92,5.92,0,0,0-.74-.49,5.51,5.51,0,0,0-4.15-.55,19.78,19.78,0,0,1,10.32-6l.08,0,.12.1.17.14,0,0h0a19.81,19.81,0,0,1-3.75,11.51A5.52,5.52,0,0,0,19,214.43Zm7.3,5.82a5.55,5.55,0,0,0-4.85-1.06,21.13,21.13,0,0,0,3.9-11.12,14.57,14.57,0,0,1,3,16A5.52,5.52,0,0,0,26.32,220.25Z"/><path class="cls-8" d="M10.71,214.75a4.15,4.15,0,0,0,.3-.43,4.19,4.19,0,0,0-.35.51h0a.1.1,0,0,1,0-.05Z"/><path class="cls-9" d="M18.61,221.85l0,0a.54.54,0,0,0,.71,0c0-.05.32-.33.72-.8a4.52,4.52,0,0,0-.73.72A.53.53,0,0,1,18.61,221.85Z"/><path class="cls-10" d="M24.33,207.11l0,0v0Z"/><path class="cls-10" d="M24.33,207.11l0,0v0Z"/><path class="cls-10" d="M24.33,207.11l0,0v0Z"/><path class="cls-10" d="M24.33,207.11l0,0v0Z"/><rect class="cls-11" y="282.77" width="36.5" height="36.5"/><text class="cls-12" transform="translate(0 261.54)">비오는 날에는 할인됩니다</text></g></g></svg>