<svg xmlns="http://www.w3.org/2000/svg" viewBox="0 0 155.86 312.96"><defs><style>.cls-1{font-size:24px;}.cls-1,.cls-3{font-family:NanumSquareRoundB, NanumSquareRound;font-weight:700;}.cls-2{fill:#f9eb41;}.cls-3{font-size:14px;}</style></defs><title>cbAsset 10</title><g id="Layer_2" data-name="Layer 2"><g id="Layer_8" data-name="Layer 8"><text class="cls-1" transform="translate(0 217.17)">미소의 날</text><rect class="cls-2" y="276.46" width="36.5" height="36.5"/><text class="cls-3" transform="translate(0 255.23)">웃으면 복이 와요</text><path class="cls-2" d="M155.72,78.56c.14,22.56-13.35,26.28-14.05,26.61l-.07,0c-29,12.83-30.94,23.09-30.94,23.19v21.81l-1.93,1.16c-.9.54-25.32,13.25-52.6,13.25S3,152,2,151.42l-2-1.13V51a3.93,3.93,0,0,1,1.51-3.11A4,4,0,0,1,4,47H5.15l87.5-.06c13,0,13.81-9.6,13.84-11.52,0-3.38-.94-6-2.88-7.92A14.15,14.15,0,0,0,96.9,24,19.73,19.73,0,0,0,93,23.51H23.38a4,4,0,0,1,0-7.93H93c.39,0,9.95,0,16.2,6.27,3.47,3.46,5.22,8,5.21,13.56A20.7,20.7,0,0,1,108.72,49c-3.87,3.89-9.28,5.86-16.07,5.86H7.93v90.71c6,3,27.51,11.15,48.2,11.15s40.95-8.12,46.6-11.07V128.34c0-2.49,1.92-15.43,35.6-30.36.69-.34,9.38-2.47,9.47-19.59v-.23l0-.23c0-.11,1.17-11.43-4.46-17.65-2.56-2.81-3.26-3.2-8.09-3.14H135c-1.31-.06-13.12-.17-16.69,14.65a4,4,0,1,1-7.71-1.86c4.15-17.2,17.91-21.06,24.73-20.71h.21c7,0,9.67,1.31,13.71,5.79C156.8,63.34,155.91,76.5,155.72,78.56Z"/><path class="cls-2" d="M16.06,32.77H95.2a2,2,0,1,0,0-4H16.06a2,2,0,1,0,0,4Z"/><path class="cls-2" d="M9.32,40.94H95.2a2,2,0,0,0,0-4H9.32a2,2,0,0,0,0,4Z"/><path class="cls-2" d="M128.47,30.46a22.81,22.81,0,0,1-.86,3.49,44.73,44.73,0,0,1-7.45,13.27c3.61-5.83,4.36-10.93,4.16-14.65h0A20.15,20.15,0,0,0,123.8,29a13.73,13.73,0,0,0-1-3C113.78,10,125.14,0,125.14,0c-4.14,8.52-1.09,13.74-1.09,13.74.42,1.13,1.83,3.69,2.76,6.1a49.83,49.83,0,0,1,1.79,5.74A16.65,16.65,0,0,1,128.47,30.46Z"/><path class="cls-2" d="M44.82,83.85c0,5.06-2,9.17-4.53,9.17s-4.53-4.11-4.53-9.17,2-9.18,4.53-9.18S44.82,78.78,44.82,83.85Z"/><path class="cls-2" d="M82.45,83.85c0,5.06-2,9.17-4.52,9.17s-4.53-4.11-4.53-9.17,2-9.18,4.53-9.18S82.45,78.78,82.45,83.85Z"/><path class="cls-2" d="M58.77,140c-34.21,0-36.72-27.22-36.75-27.5a2.91,2.91,0,0,1,.77-2.19,2.88,2.88,0,0,1,2.13-.93H92.61a2.88,2.88,0,0,1,2.13.93,2.91,2.91,0,0,1,.77,2.19C95.48,112.82,93,140,58.77,140ZM28.43,115.22c1.71,6.12,8,19,30.34,19s28.62-12.88,30.33-19Z"/></g></g></svg>