<svg xmlns="http://www.w3.org/2000/svg" xmlns:xlink="http://www.w3.org/1999/xlink" viewBox="0 0 765.35 141.26"><defs><style>.cls-1{fill:#6d6e71;}.cls-2{fill:url(#linear-gradient);}.cls-3{fill:url(#linear-gradient-2);}.cls-4{fill:url(#linear-gradient-3);}.cls-5{fill:url(#linear-gradient-4);}</style><linearGradient id="linear-gradient" x1="698.48" y1="6.41" x2="698.48" y2="138.72" gradientUnits="userSpaceOnUse"><stop offset="0" stop-color="#f27121"/><stop offset="1" stop-color="#4b134f"/></linearGradient><linearGradient id="linear-gradient-2" x1="679.34" y1="5.96" x2="679.34" y2="146.84" xlink:href="#linear-gradient"/><linearGradient id="linear-gradient-3" x1="676.45" y1="5.96" x2="676.45" y2="146.84" xlink:href="#linear-gradient"/><linearGradient id="linear-gradient-4" x1="767.5" y1="-43.67" x2="767.5" y2="97.22" gradientTransform="translate(-27.67 -43.76) rotate(6.97)" xlink:href="#linear-gradient"/></defs><title>ccbAsset 3</title><g id="Layer_2" data-name="Layer 2"><g id="Layer_3" data-name="Layer 3"><path class="cls-1" d="M508.2,85.37a49.58,49.58,0,0,1-1.84,7.51c-4.8,14.92-15.25,27.59-16,28.53,7.77-12.54,9.38-23.51,8.94-31.51v0a41.89,41.89,0,0,0-1.12-7.59,27.63,27.63,0,0,0-2.26-6.36c-19.27-34.57,5.16-56.08,5.16-56.08-8.91,18.32-2.36,29.55-2.36,29.55.92,2.43,3.94,7.94,5.93,13.12a103.16,103.16,0,0,1,3.85,12.35A35.26,35.26,0,0,1,508.2,85.37Z"/><path class="cls-1" d="M106.29,25.68a17,17,0,0,0-4.83-12.59c-5.81-5.8-14.69-5.84-15-5.83H21.72a3.69,3.69,0,0,0,0,7.37h64.7a18.56,18.56,0,0,1,3.6.48,13.15,13.15,0,0,1,6.23,3.19,9.83,9.83,0,0,1,2.68,7.35c0,1.79-.76,10.71-12.86,10.71l-81.29.06H3.68a3.66,3.66,0,0,0-2.27.86A3.64,3.64,0,0,0,0,40.17v91.34S.11,134,3.63,134H86.08c.22,0,.57,0,1,0,2.56,0,8.51-.5,13.15-4.71,3.93-3.57,5.92-8.8,5.92-15.53V27.1A13.29,13.29,0,0,0,106.29,25.68ZM95.48,123.93c-3.56,3.28-8.89,2.88-8.92,2.87l-.35,0H7.37V43.72h78.7c5.23,0,9.56-1.27,13-3.76v73.8C99,118.35,97.83,121.78,95.48,123.93Z"/><path class="cls-1" d="M14.92,23.23H88.44a1.84,1.84,0,1,0,0-3.68H14.92a1.84,1.84,0,0,0,0,3.68Z"/><path class="cls-1" d="M8.66,30.82H88.44a1.84,1.84,0,1,0,0-3.68H8.66a1.84,1.84,0,1,0,0,3.68Z"/><path class="cls-1" d="M361.58,28.64c-3.76-4.17-6.25-5.38-12.74-5.38h-.2c-6.3-.34-19,3.23-22.91,19V25.14a4,4,0,0,0-1.66-3.39C272-1.87,228.24,19.87,226.4,20.81A16.08,16.08,0,0,0,224.33,22a3.67,3.67,0,0,0-1.41,2.88v92.25l1.9,1.06c.89.5,25,12.25,50.25,12.25s48-11.81,48.86-12.31l1.79-1.08v-4.33h0v-16c.13-.64,2.65-10,28.74-21.5l.07,0c.64-.3,13.17-3.76,13-24.71C367.77,48.62,368.59,36.39,361.58,28.64Zm-46.89-3-1,.66-.3.12-.25.1a132,132,0,0,1-16.49,5.12v.06a94.51,94.51,0,0,1-21.6,2.73,100.62,100.62,0,0,1-23.09-3,133.36,133.36,0,0,1-17-5.32l-1-.7A114.33,114.33,0,0,1,314.69,25.62Zm3.67,71a1,1,0,0,1,0,.19v16.06c-5.23,2.74-24.11,10.27-43.28,10.27s-39.19-7.61-44.78-10.36V32A139.86,139.86,0,0,0,252.4,39a103.25,103.25,0,0,0,22.67,2.74c13.41,0,26.05-3.3,35.14-6.49l.87-.31c2.83-1,5.3-1.95,7.28-2.77ZM360.25,50l0,.21v.22c-.08,15.9-8.15,17.87-8.79,18.2-13,5.76-20.9,11.21-25.7,15.77v-40a3.67,3.67,0,0,0,7.1-.16c3.33-13.77,14.3-13.66,15.51-13.61h.25c4.49-.05,5.14.31,7.51,2.92C361.33,39.33,360.27,49.85,360.25,50Z"/><path class="cls-1" d="M193.88,65.54H172.62V44.28a2.69,2.69,0,0,0-2.7-2.69h-4.79a2.68,2.68,0,0,0-2.69,2.69V65.54H141.18a2.7,2.7,0,0,0-2.7,2.69V73a2.7,2.7,0,0,0,2.7,2.69h21.26V97a2.69,2.69,0,0,0,2.69,2.7h4.79a2.7,2.7,0,0,0,2.7-2.7V75.72h21.26A2.69,2.69,0,0,0,196.57,73v-4.8A2.69,2.69,0,0,0,193.88,65.54Z"/><path class="cls-1" d="M449.07,65.54H427.81V44.28a2.69,2.69,0,0,0-2.7-2.69h-4.79a2.68,2.68,0,0,0-2.69,2.69V65.54H396.37a2.7,2.7,0,0,0-2.7,2.7V73a2.69,2.69,0,0,0,2.7,2.69h21.26V97a2.68,2.68,0,0,0,2.69,2.69h4.79a2.69,2.69,0,0,0,2.7-2.69V75.72h21.26A2.68,2.68,0,0,0,451.76,73V68.24A2.69,2.69,0,0,0,449.07,65.54Z"/><path class="cls-1" d="M613.67,70.57l-.3.12.26-.1Z"/><rect class="cls-1" x="539.45" y="54.93" width="59.54" height="9.1" rx="2.75" ry="2.75"/><rect class="cls-1" x="539.45" y="77.23" width="59.54" height="9.1" rx="2.75" ry="2.75"/><path class="cls-2" d="M765.24,67.42c.11,19.35-11.46,22.55-12.06,22.83l-.06,0c-24.89,11-26.56,19.82-26.56,19.9V128.9l-1.65,1c-.77.46-21.73,11.37-45.14,11.37s-45.59-10.86-46.42-11.32l-1.74-1V43.76A3.53,3.53,0,0,1,635,40.3h1l75.09-.06C722.28,40.24,723,32,723,30.36a9.11,9.11,0,0,0-2.47-6.79,12.15,12.15,0,0,0-5.76-2.95,17,17,0,0,0-3.33-.45H651.67a3.4,3.4,0,1,1,0-6.8h59.75c.33,0,8.54,0,13.91,5.38a15.76,15.76,0,0,1,4.46,11.63A17.72,17.72,0,0,1,724.9,42c-3.32,3.33-8,5-13.79,5h-72.7v77.84c5.16,2.53,23.61,9.57,41.36,9.57s35.15-7,40-9.5V110.13c0-2.14,1.65-13.24,30.55-26,.59-.3,8.05-2.12,8.12-16.81v-.2l0-.2c0-.09,1-9.81-3.83-15.14-2.19-2.42-2.79-2.74-6.93-2.7h-.24c-1.12-.06-11.25-.15-14.32,12.57a3.4,3.4,0,1,1-6.61-1.6c3.56-14.76,15.37-18.08,21.22-17.77h.17c6,0,8.31,1.13,11.78,5C766.16,54.35,765.4,65.65,765.24,67.42Z"/><path class="cls-3" d="M645.38,28.12H713.3a1.7,1.7,0,1,0,0-3.4H645.38a1.7,1.7,0,0,0,0,3.4Z"/><path class="cls-4" d="M639.6,35.13h73.7a1.7,1.7,0,1,0,0-3.4H639.6a1.7,1.7,0,0,0,0,3.4Z"/><path class="cls-5" d="M741.85,26.14a20.53,20.53,0,0,1-.74,3,38.3,38.3,0,0,1-6.39,11.38A21.4,21.4,0,0,0,738.28,28h0a16.48,16.48,0,0,0-.44-3,11.65,11.65,0,0,0-.9-2.54C729.25,8.58,739,0,739,0c-3.56,7.31-1,11.79-1,11.79.37,1,1.58,3.17,2.37,5.23A41.25,41.25,0,0,1,742,22,14.37,14.37,0,0,1,741.85,26.14Z"/></g></g></svg>