<svg xmlns="http://www.w3.org/2000/svg" xmlns:xlink="http://www.w3.org/1999/xlink" viewBox="0 0 206.22 68.88"><defs><style>.cls-1{fill:url(#linear-gradient);}.cls-2{fill:url(#linear-gradient-2);}.cls-3{fill:url(#linear-gradient-3);}.cls-4{fill:url(#linear-gradient-4);}</style><linearGradient id="linear-gradient" x1="32.61" y1="3.13" x2="32.61" y2="67.64" gradientUnits="userSpaceOnUse"><stop offset="0" stop-color="#f27121"/><stop offset="1" stop-color="#4b134f"/></linearGradient><linearGradient id="linear-gradient-2" x1="23.28" y1="2.9" x2="23.28" y2="71.62" xlink:href="#linear-gradient"/><linearGradient id="linear-gradient-3" x1="21.87" y1="2.9" x2="21.87" y2="71.62" xlink:href="#linear-gradient"/><linearGradient id="linear-gradient-4" x1="114.08" y1="30.83" x2="114.08" y2="99.53" gradientTransform="translate(-56.91 -41.49) rotate(6.97)" xlink:href="#linear-gradient"/></defs><title>cbAsset 4</title><g id="Layer_2" data-name="Layer 2"><g id="Layer_6" data-name="Layer 6"><path d="M129.5,10.69c-1.26-1.22-2.58-1.84-6-1.84H78.65c-3.38,0-4.68.62-5.91,1.84s-1.84,3.49-1.84,6.79V39.86c0,8.75,7.67,8.62,7.67,8.62h3.2V51.4c0,8.54,8.63,8.63,8.63,8.63h33.15c3.37,0,4.69-.61,6-1.84s1.9-3.49,1.9-6.79V17.48Q131.4,12.53,129.5,10.69Zm-8.72,37.15c0,1.53-.8,2.3-2.41,2.3H90.77V39.48H81.4V21c0-1.53.81-2.3,2.42-2.3h34.55c1.61,0,2.41.77,2.41,2.3Z"/><path d="M172.32,34c4,9.51,3.76,19.1,14.59,25.3,5.87,3.37,14.82,3.63,14.82,3.63.34-2.51-.75-2.74-3.21-3.87C182,51.41,177.1,24.75,177.05,24.48a4.89,4.89,0,0,0-4.63-4v0h-.19v0a4.9,4.9,0,0,0-4.64,4c0,.27-4.92,26.93-21.46,34.54-2.46,1.13-3.55,1.36-3.21,3.87,0,0,8.94-.26,14.82-3.63C168.57,53.06,168.34,43.47,172.32,34Z"/><path d="M162.47,23.1c1.47,0,3.3-2.34,3.27-3.8-.05-2.49-.67-3.92,1.17-6.67a6.35,6.35,0,0,1,5.3-2.41h0v0h.19v0h0a6.38,6.38,0,0,1,5.3,2.41c1.83,2.75,1.22,4.18,1.17,6.67,0,1.46,1.8,3.8,3.26,3.8h19.15a4.9,4.9,0,1,0,0-9.79H183.58a10,10,0,0,0-1.83-3.38c-1.46-1.77-4.27-3.88-9.33-3.93h-.19c-5.06,0-7.88,2.16-9.34,3.93a10.13,10.13,0,0,0-1.83,3.38H143.32a4.9,4.9,0,0,0,0,9.79Z"/><path class="cls-1" d="M65.16,32.88c.06,9.43-5.58,11-5.88,11.13h0c-12.13,5.38-13,9.67-13,9.71v9.13l-.8.48c-.38.23-10.6,5.54-22,5.54S1.26,63.59.85,63.36L0,62.89V21.34A1.66,1.66,0,0,1,.63,20a1.66,1.66,0,0,1,1-.39h.49l36.62,0c5.45,0,5.78-4,5.79-4.82a4.41,4.41,0,0,0-1.21-3.31,5.78,5.78,0,0,0-2.8-1.43,8.26,8.26,0,0,0-1.62-.22H9.78a1.66,1.66,0,0,1,0-3.32H38.92A10.41,10.41,0,0,1,45.7,9.14a7.71,7.71,0,0,1,2.18,5.68,8.66,8.66,0,0,1-2.38,5.67,9.12,9.12,0,0,1-6.73,2.45H3.32v38c2.52,1.24,11.51,4.67,20.17,4.67A48.6,48.6,0,0,0,43,60.93V53.7c0-1,.8-6.45,14.89-12.7.29-.14,3.93-1,4-8.2v-.19s.49-4.78-1.86-7.39c-1.07-1.17-1.36-1.33-3.38-1.31h-.12c-.55,0-5.49-.08-7,6.13a1.66,1.66,0,0,1-3.23-.78c1.74-7.2,7.5-8.82,10.35-8.67h.09c2.92,0,4,.55,5.74,2.42C65.61,26.5,65.24,32,65.16,32.88Z"/><path class="cls-2" d="M6.72,13.71H39.84a.83.83,0,0,0,0-1.66H6.72a.83.83,0,0,0,0,1.66Z"/><path class="cls-3" d="M3.9,17.13H39.84a.83.83,0,0,0,0-1.66H3.9a.83.83,0,1,0,0,1.66Z"/><path class="cls-4" d="M53.76,12.75a9.43,9.43,0,0,1-.36,1.46,18.67,18.67,0,0,1-3.12,5.55A10.44,10.44,0,0,0,52,13.63h0a7.76,7.76,0,0,0-.22-1.48,5.37,5.37,0,0,0-.44-1.24C47.61,4.18,52.37,0,52.37,0c-1.74,3.56-.46,5.75-.46,5.75.18.47.76,1.54,1.15,2.55a20.61,20.61,0,0,1,.75,2.41A7,7,0,0,1,53.76,12.75Z"/></g></g></svg>