<svg xmlns="http://www.w3.org/2000/svg" xmlns:xlink="http://www.w3.org/1999/xlink" viewBox="0 0 180.33 338.01"><defs><style>.cls-1{fill:url(#linear-gradient);}.cls-2{fill:url(#linear-gradient-2);}.cls-3{fill:url(#linear-gradient-3);}.cls-4{fill:url(#linear-gradient-4);}.cls-5{font-size:24px;}.cls-5,.cls-6{font-family:NanumSquareRoundB, NanumSquareRound;font-weight:700;}.cls-6{font-size:14px;}.cls-7{fill:url(#linear-gradient-5);}</style><linearGradient id="linear-gradient" x1="90.17" y1="169.5" x2="90.17" y2="21.38" gradientUnits="userSpaceOnUse"><stop offset="0" stop-color="#5a3f37"/><stop offset="0.62" stop-color="#2c7744"/><stop offset="0.95" stop-color="#599a20"/></linearGradient><linearGradient id="linear-gradient-2" x1="76.67" y1="169.5" x2="76.67" y2="21.38" xlink:href="#linear-gradient"/><linearGradient id="linear-gradient-3" x1="73.19" y1="169.5" x2="73.19" y2="21.38" xlink:href="#linear-gradient"/><linearGradient id="linear-gradient-4" x1="147.4" y1="169.5" x2="147.4" y2="21.38" xlink:href="#linear-gradient"/><linearGradient id="linear-gradient-5" x1="18.25" y1="337.91" x2="18.25" y2="303.21" xlink:href="#linear-gradient"/></defs><title>cbAsset 6</title><g id="Layer_2" data-name="Layer 2"><g id="Layer_7" data-name="Layer 7"><path class="cls-1" d="M173.5,56.87c-4.18-4.63-7-6-14.18-6h-.22c-7-.37-21.28,3.63-25.57,21.41a4.1,4.1,0,1,0,8,1.93c3.7-15.33,15.91-15.22,17.26-15.15h.29c5-.06,5.71.33,8.35,3.24C173.22,68.77,172,80.48,172,80.6l0,.23v.24c-.1,17.71-9.08,19.91-9.8,20.27-34.83,15.44-36.77,28.81-36.81,31.39V150.6c-5.84,3.05-26.85,11.45-48.2,11.45-13.22,0-26.74-3.24-36.63-6.43V113.67a4,4,0,0,0-4-4,13.42,13.42,0,0,1-9.22-3.32,5.89,5.89,0,0,1-2-4.18,4,4,0,0,0-4-4A12.69,12.69,0,0,1,19.14,98C12.83,96.78,8,90.78,8,83.54s4.83-13.23,11.14-14.4a11.82,11.82,0,0,1,2.24-.22,12.32,12.32,0,0,1,5.47,1.3,3.17,3.17,0,0,0,.49.17,3.91,3.91,0,0,0,3.09-.2,4,4,0,0,0,2.13-2.87,19.67,19.67,0,0,1,5.5-10.62,18.76,18.76,0,0,1,26.6,0A19.65,19.65,0,0,1,70.1,66.77a4,4,0,0,0,4.66,3.14,13.21,13.21,0,0,1,2.49-.24c6.89,0,12.5,5.27,12.5,11.75s-5.61,11.75-12.5,11.75a13.11,13.11,0,0,1-3.36-.45,4,4,0,0,0-5,3.38c-.58,4.6-4.14,8.07-8.28,8.07a7.9,7.9,0,0,1-6-2.89,4,4,0,0,0-6.07,5.22,16,16,0,0,0,12.1,5.67,16.49,16.49,0,0,0,15.24-11c.46,0,.92,0,1.38,0,11.3,0,20.5-8.86,20.5-19.75s-9.2-19.75-20.5-19.75H77a27.75,27.75,0,0,0-2.3-5H115c7,0,12.62-2,16.63-6.05a21.39,21.39,0,0,0,5.88-14c0-5.72-1.79-10.45-5.38-14-6.46-6.45-16.36-6.5-16.76-6.49h-72a4.1,4.1,0,0,0,0,8.2h72a21.16,21.16,0,0,1,4,.54,14.66,14.66,0,0,1,6.94,3.55c2,2,3,4.69,3,8.19,0,2-.84,11.91-14.31,11.91l-47.58,0a26.63,26.63,0,0,0-32.1,0,27.29,27.29,0,0,0-7.23,8.14c-.24.43-.48.85-.71,1.29a28.41,28.41,0,0,0-1.49,3.43,20.28,20.28,0,0,0-4.47-.5,20.73,20.73,0,0,0-2.24.12C8.4,62.23,0,71.87,0,83.54c0,11.24,7.78,20.59,17.93,22.34a13.86,13.86,0,0,0,1.21,2.77,17.58,17.58,0,0,0,8.2,7.1,22.14,22.14,0,0,0,5.22,1.58v41.34a4,4,0,0,0,2,3.44,4.2,4.2,0,0,0,1.43.5c10.6,3.66,25.69,7.64,41.21,7.64,28.21,0,53.47-13.15,54.4-13.7l2-1.2V132.79c0-.1,2-10.71,32-24l.07,0c.72-.34,14.67-4.19,14.54-27.52C180.39,79.12,181.31,65.51,173.5,56.87Z"/><path class="cls-2" d="M35.75,33.89H117.6a2,2,0,1,0,0-4.1H35.75a2,2,0,1,0,0,4.1Z"/><path class="cls-3" d="M28.78,42.34H117.6a2,2,0,1,0,0-4.1H28.78a2,2,0,1,0,0,4.1Z"/><path class="cls-4" d="M147.18,30a20.64,20.64,0,0,1,.53,3.65h0c.22,3.85-.56,9.13-4.3,15.16a46.27,46.27,0,0,0,7.71-13.72,23.78,23.78,0,0,0,.89-3.61,17.14,17.14,0,0,0,.13-5.05,51,51,0,0,0-1.85-5.94c-1-2.49-2.41-5.14-2.86-6.31,0,0-3.14-5.4,1.14-14.21,0,0-11.75,10.34-2.48,27A13.27,13.27,0,0,1,147.18,30Z"/><text class="cls-5" transform="translate(0 231.02)">식목일</text><text class="cls-6" transform="translate(0 271.7)">나무를 심읍시다. </text><rect class="cls-7" y="301.51" width="36.5" height="36.5"/></g></g></svg>