<svg xmlns="http://www.w3.org/2000/svg" viewBox="0 0 203.93 339.04"><defs><style>.cls-1{fill:#8b5e3c;}.cls-2{font-size:24px;}.cls-2,.cls-3{font-family:NanumSquareRoundB, NanumSquareRound;font-weight:700;}.cls-3{font-size:14px;}</style></defs><title>cbAsset 7</title><g id="Layer_2" data-name="Layer 2"><g id="Layer_7" data-name="Layer 7"><path class="cls-1" d="M203.79,97.88c.14,23.33-13.8,27.18-14.53,27.52l-.07,0c-30,13.27-32,23.88-32,24V172l-2,1.2c-.93.55-26.19,13.7-54.4,13.7s-54.94-13.09-55.94-13.65l-2.11-1.17V96.87c0-4.33,0-31.69,31.67-31.69s64.15-.05,64.15-.05c13.47,0,14.29-9.92,14.31-11.91,0-3.5-1-6.19-3-8.19A14.61,14.61,0,0,0,143,41.48a21.16,21.16,0,0,0-4-.54h-72a4.1,4.1,0,0,1,0-8.2h72c.41,0,10.29,0,16.76,6.49,3.59,3.57,5.4,8.3,5.38,14a21.39,21.39,0,0,1-5.88,14c-4,4-9.61,6-16.63,6H82.61c-31.32,0-31.67,18.79-31.67,31.67v62.15c6.23,3,28.46,11.53,49.85,11.53s42.36-8.4,48.2-11.45V149.36c0-2.58,2-16,36.81-31.39.72-.36,9.71-2.56,9.8-20.27v-.24l0-.23c0-.12,1.21-11.83-4.62-18.26-2.64-2.91-3.36-3.3-8.35-3.24h-.29c-1.35-.07-13.56-.18-17.26,15.15a4.1,4.1,0,1,1-8-1.93c4.29-17.78,18.52-21.78,25.58-21.42h.21c7.22,0,10,1.35,14.18,6C204.91,82.14,204,95.75,203.79,97.88Z"/><path class="cls-1" d="M59.35,50.52H141.2a2,2,0,1,0,0-4.1H59.35a2.05,2.05,0,0,0,0,4.1Z"/><path class="cls-1" d="M52.38,59H141.2a2.05,2.05,0,1,0,0-4.1H52.38a2.05,2.05,0,0,0,0,4.1Z"/><path class="cls-1" d="M175.61,48.14a23.78,23.78,0,0,1-.89,3.61A46,46,0,0,1,167,65.47c3.74-6,4.52-11.31,4.3-15.16h0a20.64,20.64,0,0,0-.53-3.65,13.5,13.5,0,0,0-1.09-3.06c-9.27-16.62,2.48-27,2.48-27C167.89,25.44,171,30.84,171,30.84c.45,1.17,1.9,3.82,2.86,6.31a51,51,0,0,1,1.85,5.94A17.14,17.14,0,0,1,175.61,48.14Z"/><polygon class="cls-1" points="63.41 36.12 78.18 0 92.94 36.12 63.41 36.12"/><polygon class="cls-1" points="121.08 36.12 135.84 0 150.61 36.12 121.08 36.12"/><path class="cls-1" d="M86.34,106.7a8.17,8.17,0,1,1-8.16-8.16A8.16,8.16,0,0,1,86.34,106.7Z"/><path class="cls-1" d="M131.5,106.7a8.17,8.17,0,1,1-8.16-8.16A8.16,8.16,0,0,1,131.5,106.7Z"/><path class="cls-1" d="M104.49,123.58c4.68,0,6.59,3.31,4.25,7.36l-4.21,7.3c-2.34,4-6.17,4-8.51,0l-4.21-7.3c-2.34-4-.43-7.36,4.25-7.36Z"/><path class="cls-1" d="M86.27,157.91h-.34c-3.35,0-6.21-.42-11.89-5.84a2,2,0,0,1,2.76-2.9c5,4.74,6.84,4.74,9.2,4.74,4.35.14,9.87-4,12.27-6.19v-9.14a2,2,0,0,1,4,0v10a2,2,0,0,1-.59,1.42C101.35,150.32,93.61,157.91,86.27,157.91Z"/><path class="cls-1" d="M114.22,157.92c-7.28,0-15-7.6-15.35-7.92a2,2,0,0,1-.6-1.42v-10a2,2,0,0,1,4,0v9.14c2.4,2.18,7.89,6.32,12.21,6.19,2.43,0,4.3,0,9.27-4.74a2,2,0,1,1,2.76,2.9c-5.69,5.42-8.55,5.84-12,5.84Z"/><path class="cls-1" d="M2,140.58a2,2,0,0,1-.58-3.92c1.48-.45,36.73-11.08,66.14-7.74a2,2,0,0,1-.45,4c-28.57-3.25-64.17,7.48-64.53,7.59A2,2,0,0,1,2,140.58Z"/><path class="cls-1" d="M5,157.91a2,2,0,0,1-.76-3.85c1.4-.58,34.63-14.15,63-15.81a2,2,0,0,1,.23,4C39.77,143.87,6.1,157.62,5.76,157.76A2,2,0,0,1,5,157.91Z"/><path class="cls-1" d="M198.55,140.58a2,2,0,0,0,.58-3.92c-1.48-.45-36.73-11.08-66.14-7.74a2,2,0,0,0,.45,4c28.57-3.25,64.17,7.48,64.52,7.59A2,2,0,0,0,198.55,140.58Z"/><path class="cls-1" d="M195.55,157.91a2,2,0,0,0,.76-3.85c-1.4-.58-34.64-14.15-63-15.81a2,2,0,0,0-.23,4c27.68,1.63,61.35,15.38,61.69,15.52A2,2,0,0,0,195.55,157.91Z"/><rect class="cls-1" y="302.54" width="36.5" height="36.5"/><text class="cls-2" transform="translate(0 232.05)">고양이의 날</text><text class="cls-3" transform="translate(0 272.77)">고양이 출입 가능 서점</text></g></g></svg>