<svg xmlns="http://www.w3.org/2000/svg" xmlns:xlink="http://www.w3.org/1999/xlink" viewBox="0 0 161.19 170.25"><defs><style>.cls-1{fill:url(#linear-gradient);}.cls-2{fill:url(#linear-gradient-2);}.cls-3{fill:url(#linear-gradient-3);}.cls-4{fill:url(#linear-gradient-4);}</style><linearGradient id="linear-gradient" x1="80.59" y1="7.73" x2="80.59" y2="167.18" gradientUnits="userSpaceOnUse"><stop offset="0" stop-color="#f27121"/><stop offset="1" stop-color="#4b134f"/></linearGradient><linearGradient id="linear-gradient-2" x1="57.53" y1="7.18" x2="57.53" y2="176.97" xlink:href="#linear-gradient"/><linearGradient id="linear-gradient-3" x1="54.04" y1="7.18" x2="54.04" y2="176.97" xlink:href="#linear-gradient"/><linearGradient id="linear-gradient-4" x1="156.23" y1="25.72" x2="156.23" y2="195.52" gradientTransform="translate(-21.97 -37.19) rotate(6.97)" xlink:href="#linear-gradient"/></defs><title>logoAsset 1</title><g id="Layer_2" data-name="Layer 2"><g id="Layer_4" data-name="Layer 4"><path class="cls-1" d="M161.05,81.25c.14,23.33-13.81,27.18-14.53,27.52l-.07,0c-30,13.27-32,23.88-32,24v22.56l-2,1.2c-.93.55-26.19,13.7-54.41,13.7S3.11,157.16,2.11,156.6L0,155.43V52.74a4,4,0,0,1,1.57-3.21,4.06,4.06,0,0,1,2.53-1H5.32l90.5-.07c13.47,0,14.28-9.92,14.31-11.91,0-3.5-1-6.19-3-8.19a14.57,14.57,0,0,0-6.94-3.55,21.1,21.1,0,0,0-4-.54h-72a4.1,4.1,0,0,1,0-8.2h72c.4,0,10.29,0,16.76,6.49,3.58,3.57,5.4,8.3,5.38,14a21.37,21.37,0,0,1-5.89,14c-4,4-9.6,6.05-16.62,6.05H8.2v93.82c6.22,3,28.45,11.53,49.84,11.53s42.36-8.4,48.2-11.45V132.73c0-2.58,2-15.95,36.82-31.39.71-.36,9.7-2.56,9.79-20.27v-.24l0-.23c0-.12,1.2-11.83-4.62-18.26-2.64-2.91-3.36-3.3-8.36-3.24h-.28c-1.36-.07-13.57-.18-17.26,15.15a4.11,4.11,0,1,1-8-1.93C118.67,54.53,132.91,50.53,140,50.9h.21c7.23,0,10,1.35,14.19,6C162.17,65.51,161.25,79.12,161.05,81.25Z"/><path class="cls-2" d="M16.61,33.89H98.45a2,2,0,0,0,0-4.1H16.61a2.05,2.05,0,1,0,0,4.1Z"/><path class="cls-3" d="M9.64,42.34H98.45a2,2,0,0,0,0-4.1H9.64a2,2,0,1,0,0,4.1Z"/><path class="cls-4" d="M132.87,31.51a25,25,0,0,1-.89,3.61,46.27,46.27,0,0,1-7.71,13.72c3.74-6,4.51-11.31,4.3-15.16h0A20.56,20.56,0,0,0,128,30,13.61,13.61,0,0,0,127,27c-9.27-16.63,2.47-27,2.47-27-4.28,8.81-1.13,14.21-1.13,14.21.44,1.17,1.9,3.82,2.85,6.31A50,50,0,0,1,133,26.46,17.48,17.48,0,0,1,132.87,31.51Z"/></g></g></svg>