<svg xmlns="http://www.w3.org/2000/svg" viewBox="0 0 496.15 56.9"><defs><style>.cls-1{fill:#707070;}</style></defs><title>coAsset 29</title><g id="Layer_2" data-name="Layer 2"><g id="Layer_1-2" data-name="Layer 1"><path class="cls-1" d="M304.53,33.45H242a12.13,12.13,0,0,0,6.55,8.14h56a5,5,0,0,1,0,10H246.82l-.71-.22c-.6-.19-14.78-4.74-14.78-22.92S245.51,5.71,246.11,5.53l.71-.22h57.71a5,5,0,0,1,0,10h-56A12.15,12.15,0,0,0,242,23.45h62.58a5,5,0,0,1,0,10Z"/><path class="cls-1" d="M74.66,2.6q-2.05-2-7.56-2H9.52C5.84.6,3.34,1.27,2,2.6S0,6.4,0,10V34.35c0,9.52,9.43,9.38,9.43,9.38h3.49v3.18c0,9.29,9.39,9.39,9.39,9.39H67.1c3.67,0,6.19-.66,7.56-2s2.07-3.8,2.07-7.39V10C76.73,6.4,76.05,3.94,74.66,2.6ZM64.09,43c0,1.66-.88,2.5-2.63,2.5H22.71V33.94H12.52V13.87c0-1.67.88-2.51,2.63-2.51H61.46c1.75,0,2.63.84,2.63,2.51Z"/><path class="cls-1" d="M367.81,28c4,9.51,3.75,19.1,14.58,25.3,5.88,3.37,14.83,3.63,14.83,3.63.33-2.51-.76-2.74-3.22-3.87-16.54-7.61-21.42-34.27-21.46-34.54a4.89,4.89,0,0,0-4.64-4v0h-.19v0a4.88,4.88,0,0,0-4.63,4c-.05.27-4.92,26.93-21.47,34.54-2.45,1.13-3.54,1.36-3.21,3.87,0,0,9-.26,14.83-3.63C364.05,47.07,363.83,37.48,367.81,28Z"/><path class="cls-1" d="M358,17.11c1.46,0,3.3-2.34,3.27-3.8-.06-2.49-.67-3.92,1.16-6.67a6.38,6.38,0,0,1,5.3-2.42h0v0l.1,0,.09,0v0h0a6.35,6.35,0,0,1,5.3,2.42c1.84,2.75,1.22,4.18,1.17,6.67,0,1.46,1.8,3.8,3.27,3.8h19.15a4.9,4.9,0,0,0,0-9.8H379.07a10.18,10.18,0,0,0-1.83-3.37C375.78,2.16,373,.06,367.9,0h-.19c-5.06,0-7.87,2.15-9.33,3.93a10,10,0,0,0-1.83,3.37H338.81a4.9,4.9,0,1,0,0,9.8Z"/><path class="cls-1" d="M103.39,5.74A1,1,0,0,1,103.6,5a1.23,1.23,0,0,1,.78-.19h4.21a2.23,2.23,0,0,1,.5,0,.7.7,0,0,1,.3.14.62.62,0,0,1,.15.29,2,2,0,0,1,0,.46V9.15a1,1,0,0,1-.21.74,1.23,1.23,0,0,1-.78.19h-4.21a3,3,0,0,1-.5,0,.61.61,0,0,1-.3-.15.62.62,0,0,1-.15-.29,1.82,1.82,0,0,1,0-.45Zm1.21-.15a.39.39,0,0,0-.25.07.45.45,0,0,0-.06.27V9a.45.45,0,0,0,.06.27.39.39,0,0,0,.25.07h3.77a.39.39,0,0,0,.25-.07.45.45,0,0,0,.06-.27v-3a.45.45,0,0,0-.06-.27.39.39,0,0,0-.25-.07Z"/><path class="cls-1" d="M121.32,9.18a.17.17,0,0,1,.12,0,.13.13,0,0,1,.07.08l.07.45a.17.17,0,0,1-.16.19l-.93.15-1,.14-1.09.11-1.06.1-.94.05-1.1,0-1.07,0h-.83a.19.19,0,0,1-.14,0,.14.14,0,0,1-.06-.12V9.92a.14.14,0,0,1,.06-.12.24.24,0,0,1,.14-.05h.9l1.08,0,1.07,0,.86,0c.3,0,.65,0,1-.08s.75-.07,1.13-.12l1.06-.13Zm-1.22-4.3a2.91,2.91,0,0,1-.24,1.19,2.79,2.79,0,0,1-.65.93,2.83,2.83,0,0,1-1,.6,3.55,3.55,0,0,1-1.24.22,3.49,3.49,0,0,1-1.23-.22,2.93,2.93,0,0,1-1-.6,2.91,2.91,0,0,1-.64-.93,3.08,3.08,0,0,1-.23-1.19,3.26,3.26,0,0,1,.23-1.24,2.91,2.91,0,0,1,.64-.93,2.88,2.88,0,0,1,1-.58,3.49,3.49,0,0,1,1.23-.2,3.33,3.33,0,0,1,1.18.2,3,3,0,0,1,1,.58,2.87,2.87,0,0,1,.68.93A2.93,2.93,0,0,1,120.1,4.88Zm-.91,0a2.27,2.27,0,0,0-.18-.93,2,2,0,0,0-.48-.67,2,2,0,0,0-.71-.4,3,3,0,0,0-.84-.13,2.58,2.58,0,0,0-.86.14,1.86,1.86,0,0,0-.68.4,1.78,1.78,0,0,0-.46.67,2.36,2.36,0,0,0-.16.92,2.07,2.07,0,0,0,.59,1.58A2.13,2.13,0,0,0,117,7a2.4,2.4,0,0,0,.84-.15,2.19,2.19,0,0,0,.71-.42,2,2,0,0,0,.48-.68A2.17,2.17,0,0,0,119.19,4.86Zm3.69,8.31h-.54a.16.16,0,0,1-.18-.18V1.37a.16.16,0,0,1,.18-.18h.54a.16.16,0,0,1,.18.18V13A.16.16,0,0,1,122.88,13.17Z"/><path class="cls-1" d="M136.44,4.07h-7.18a.21.21,0,0,1-.12-.05.16.16,0,0,1-.06-.13V3.47a.18.18,0,0,1,.06-.13.21.21,0,0,1,.12,0h7.18c.13,0,.19.06.19.17V3.9C136.63,4,136.57,4.07,136.44,4.07Zm-.9,2.87a1.94,1.94,0,0,1-.21.89,2.5,2.5,0,0,1-.56.73,2.66,2.66,0,0,1-.86.48,3.06,3.06,0,0,1-1.06.18A3.12,3.12,0,0,1,131.78,9a2.61,2.61,0,0,1-.85-.48,2.34,2.34,0,0,1-.56-.73,2.07,2.07,0,0,1-.2-.89,2,2,0,0,1,.2-.87,2.3,2.3,0,0,1,.56-.72,2.81,2.81,0,0,1,.85-.48,3.12,3.12,0,0,1,1.07-.18,3.06,3.06,0,0,1,1.06.18,2.86,2.86,0,0,1,.86.48,2.45,2.45,0,0,1,.56.72A1.86,1.86,0,0,1,135.54,6.94Zm-1-4.64H131a.2.2,0,0,1-.13,0,.11.11,0,0,1-.06-.11V1.69a.18.18,0,0,1,.06-.13.16.16,0,0,1,.11-.05h3.58c.13,0,.19.06.19.18v.44C134.73,2.25,134.67,2.3,134.54,2.3Zm.12,4.64a1.23,1.23,0,0,0-.14-.57,1.43,1.43,0,0,0-.38-.47,1.72,1.72,0,0,0-.57-.3,2.41,2.41,0,0,0-1.44,0,1.94,1.94,0,0,0-.57.3,1.43,1.43,0,0,0-.38.47,1.23,1.23,0,0,0-.14.57,1.31,1.31,0,0,0,.14.59,1.43,1.43,0,0,0,.38.47,2.24,2.24,0,0,0,.57.31,2.22,2.22,0,0,0,1.44,0,1.94,1.94,0,0,0,.57-.31,1.43,1.43,0,0,0,.38-.47A1.31,1.31,0,0,0,134.66,6.94Zm4.32,6a.28.28,0,0,1-.13,0h-6.7a1,1,0,0,1-.8-.23,1.18,1.18,0,0,1-.19-.76v-1.8a.16.16,0,0,1,.18-.18h.53a.17.17,0,0,1,.19.18v1.75a.33.33,0,0,0,.05.22.57.57,0,0,0,.24,0h6.5a.2.2,0,0,1,.13,0,.13.13,0,0,1,.07.11v.47A.13.13,0,0,1,139,12.94Zm-.7-2.51h-.53a.16.16,0,0,1-.18-.18V1.37a.16.16,0,0,1,.18-.18h.53a.16.16,0,0,1,.18.18v4.3h1.8a.19.19,0,0,1,.13,0,.14.14,0,0,1,.06.12v.44a.17.17,0,0,1-.06.12.19.19,0,0,1-.13,0h-1.8v3.8A.16.16,0,0,1,138.28,10.43Z"/><path class="cls-1" d="M152.92,6.63a.17.17,0,0,1,.12,0,.14.14,0,0,1,.08.09l.06.44a.15.15,0,0,1-.16.19c-.56.09-1.15.17-1.78.23s-1.24.12-1.87.16v4.59a.23.23,0,0,1,0,.14.18.18,0,0,1-.13.06h-.56a.14.14,0,0,1-.11-.06.2.2,0,0,1-.06-.14V7.8l-.89,0-1,0-.87,0h-.69a.24.24,0,0,1-.14,0,.17.17,0,0,1-.06-.12V7.27a.14.14,0,0,1,.06-.12.24.24,0,0,1,.14-.05h.9l1.08,0c.37,0,.72,0,1.07,0L149,7l.61,0,.69-.05c.07-.25.14-.54.2-.86s.11-.66.16-1,.08-.67.1-1,0-.62,0-.87A.38.38,0,0,0,150.7,3a.43.43,0,0,0-.24-.05h-4.39a.22.22,0,0,1-.13,0s-.07-.07-.07-.12V2.32a.14.14,0,0,1,.07-.12.22.22,0,0,1,.13,0h4.59a1.4,1.4,0,0,1,.5.07.65.65,0,0,1,.29.18.67.67,0,0,1,.14.32,2.85,2.85,0,0,1,.06.47c0,.23,0,.52,0,.85s-.06.66-.11,1-.1.67-.16,1-.11.58-.16.8l.9-.1C152.39,6.71,152.67,6.68,152.92,6.63Zm1.68,6.54h-.54a.16.16,0,0,1-.18-.18V1.37a.16.16,0,0,1,.18-.18h.54a.16.16,0,0,1,.18.18V13A.16.16,0,0,1,154.6,13.17Z"/><path class="cls-1" d="M168.3,7.19a.14.14,0,0,1,.06.12v.44a.17.17,0,0,1-.06.12.24.24,0,0,1-.13,0h-5.1V9.11c.38,0,.79.07,1.21.13a5.54,5.54,0,0,1,1.17.34,2.51,2.51,0,0,1,.88.63,1.4,1.4,0,0,1,.34,1,1.46,1.46,0,0,1-.41,1.07,2.73,2.73,0,0,1-1,.64,5.54,5.54,0,0,1-1.32.31,12.35,12.35,0,0,1-1.28.08c-.25,0-.53,0-.83,0s-.59-.06-.89-.11a6.2,6.2,0,0,1-.87-.24,3.22,3.22,0,0,1-.74-.38,1.84,1.84,0,0,1-.52-.56,1.47,1.47,0,0,1-.19-.77,1.36,1.36,0,0,1,.35-1,2.51,2.51,0,0,1,.88-.63A5.81,5.81,0,0,1,161,9.24c.42-.06.82-.11,1.21-.13V7.92h-5.06a.24.24,0,0,1-.14,0,.17.17,0,0,1-.06-.12V7.31a.14.14,0,0,1,.06-.12.19.19,0,0,1,.14-.05h11A.18.18,0,0,1,168.3,7.19Zm-2.11-3h-6.56v.92a.43.43,0,0,0,.06.26.34.34,0,0,0,.25.08h6.51a.15.15,0,0,1,.17.17V6c0,.12-.05.18-.17.18h-6.73a1.17,1.17,0,0,1-.78-.19,1,1,0,0,1-.21-.73V2.34a1,1,0,0,1,.21-.73,1.17,1.17,0,0,1,.78-.19h6.64a.15.15,0,0,1,.17.17V2c0,.12-.06.18-.17.18h-6.42a.39.39,0,0,0-.25.07.45.45,0,0,0-.06.27v.9h6.55c.12,0,.18,0,.18.14V4A.15.15,0,0,1,166.19,4.15Zm-.47,7a.76.76,0,0,0-.35-.67,2.67,2.67,0,0,0-.85-.38,5,5,0,0,0-1-.18c-.36,0-.65,0-.88,0s-.54,0-.89,0a5,5,0,0,0-1,.18,2.94,2.94,0,0,0-.84.38.82.82,0,0,0,0,1.34,2.71,2.71,0,0,0,.84.39,6.78,6.78,0,0,0,1,.17c.35,0,.64,0,.89,0s.52,0,.88,0a6.78,6.78,0,0,0,1-.17,2.47,2.47,0,0,0,.85-.39A.76.76,0,0,0,165.72,11.19Z"/><path class="cls-1" d="M176.18,6.14A6.29,6.29,0,0,1,176,7.61,4.56,4.56,0,0,1,175.45,9a3.24,3.24,0,0,1-1,1,2.59,2.59,0,0,1-1.42.38,2.55,2.55,0,0,1-1.45-.38,2.79,2.79,0,0,1-1-1,4.51,4.51,0,0,1-.52-1.34A7.48,7.48,0,0,1,170,6.14a7.76,7.76,0,0,1,.15-1.52,4.51,4.51,0,0,1,.52-1.34,2.73,2.73,0,0,1,1-1A2.63,2.63,0,0,1,173.06,2a2.59,2.59,0,0,1,1.42.37,3,3,0,0,1,1,1A4.45,4.45,0,0,1,176,4.61,6.53,6.53,0,0,1,176.18,6.14Zm-.93,0a6.21,6.21,0,0,0-.12-1.21,4,4,0,0,0-.38-1.1,2.28,2.28,0,0,0-.68-.79,1.64,1.64,0,0,0-1-.31A1.67,1.67,0,0,0,172,3a2.11,2.11,0,0,0-.65.79,3.38,3.38,0,0,0-.35,1.1,7.07,7.07,0,0,0-.11,1.21A6.77,6.77,0,0,0,171,7.3a4,4,0,0,0,.34,1.11,2.44,2.44,0,0,0,.67.82,1.85,1.85,0,0,0,2,0,2.6,2.6,0,0,0,.68-.82,4.41,4.41,0,0,0,.38-1.11A6,6,0,0,0,175.25,6.13Zm3.79,7h-.54a.16.16,0,0,1-.18-.18V1.37a.16.16,0,0,1,.18-.18H179a.16.16,0,0,1,.18.18V13A.16.16,0,0,1,179,13.17Z"/><path class="cls-1" d="M189.57,12.49a.17.17,0,0,1-.19.19h-.49c-.12,0-.18-.06-.18-.19v-6h-1.47A5.78,5.78,0,0,1,187,8a3.42,3.42,0,0,1-.61,1.12,2.48,2.48,0,0,1-.86.67,2.45,2.45,0,0,1-1,.22,2.29,2.29,0,0,1-1.08-.25,2.38,2.38,0,0,1-.86-.76,3.71,3.71,0,0,1-.57-1.25A6.61,6.61,0,0,1,181.73,6a6.58,6.58,0,0,1,.21-1.76A3.8,3.8,0,0,1,182.51,3a2.34,2.34,0,0,1,2-1,2.58,2.58,0,0,1,1,.22,2.35,2.35,0,0,1,.87.68A3.41,3.41,0,0,1,187,4a6.22,6.22,0,0,1,.27,1.63h1.47V1.59a.16.16,0,0,1,.18-.18h.49c.13,0,.19.06.19.18ZM186.34,6a6.45,6.45,0,0,0-.11-1.17,4,4,0,0,0-.36-1,2.14,2.14,0,0,0-.59-.73,1.28,1.28,0,0,0-.83-.28,1.31,1.31,0,0,0-.86.29,2.23,2.23,0,0,0-.56.74,4.07,4.07,0,0,0-.3,1A7.3,7.3,0,0,0,182.64,6a6.38,6.38,0,0,0,.1,1.15,4.46,4.46,0,0,0,.32,1,2.18,2.18,0,0,0,.56.76,1.25,1.25,0,0,0,.83.29,1.28,1.28,0,0,0,.83-.28,2.12,2.12,0,0,0,.59-.75,4.06,4.06,0,0,0,.36-1A6.62,6.62,0,0,0,186.34,6Zm5.53,7a.16.16,0,0,1-.18.18h-.5A.16.16,0,0,1,191,13V1.37a.16.16,0,0,1,.18-.18h.5a.16.16,0,0,1,.18.18Z"/><path class="cls-1" d="M110.67,28.61H106.9v2.73H112a.22.22,0,0,1,.13,0,.15.15,0,0,1,.06.13V32a.17.17,0,0,1-.06.12.24.24,0,0,1-.13,0H101a.24.24,0,0,1-.14,0,.16.16,0,0,1,0-.12v-.44a.14.14,0,0,1,0-.13.23.23,0,0,1,.14,0h5V28.61h-3.86a.21.21,0,0,1-.12-.05.18.18,0,0,1-.06-.13V28a.18.18,0,0,1,.06-.13.21.21,0,0,1,.12-.05h1.73v-4H102.4a.17.17,0,0,1-.12-.06.15.15,0,0,1-.06-.13v-.4a.18.18,0,0,1,.06-.13.21.21,0,0,1,.12,0h8c.13,0,.2.06.2.17v.43c0,.11-.07.17-.2.17H109v4h1.66c.13,0,.2.06.2.17v.43C110.87,28.55,110.8,28.61,110.67,28.61Zm-5.91-.77h3.36v-4h-3.36Z"/><path class="cls-1" d="M119.87,25.79a3.15,3.15,0,0,1-.23,1.24,2.87,2.87,0,0,1-1.63,1.6,3.32,3.32,0,0,1-1.23.22,3.23,3.23,0,0,1-1.2-.22,2.59,2.59,0,0,1-1-.63,2.85,2.85,0,0,1-.65-1,3.26,3.26,0,0,1-.23-1.24A3.49,3.49,0,0,1,114,24.5a2.9,2.9,0,0,1,.65-1,2.81,2.81,0,0,1,1-.61,3.69,3.69,0,0,1,1.2-.21,3.55,3.55,0,0,1,1.16.21,3,3,0,0,1,1,.61,3,3,0,0,1,.94,2.27Zm-.91,0a2.5,2.5,0,0,0-.17-1,2,2,0,0,0-1.17-1.12,2.59,2.59,0,0,0-1.68,0,2.11,2.11,0,0,0-.67.42,1.9,1.9,0,0,0-.46.7,2.7,2.7,0,0,0-.16,1,2.77,2.77,0,0,0,.15.94,2.15,2.15,0,0,0,.45.71,2.08,2.08,0,0,0,.67.45,2.2,2.2,0,0,0,.86.16,2.13,2.13,0,0,0,.84-.16,2.17,2.17,0,0,0,.69-.45,2.22,2.22,0,0,0,.48-.71A2.35,2.35,0,0,0,119,25.77Zm4.42,8.13a.28.28,0,0,1-.13,0h-6.51a1,1,0,0,1-.8-.23,1.24,1.24,0,0,1-.19-.76V30.4c0-.12.06-.18.19-.18h.53a.16.16,0,0,1,.18.18v2.48c0,.13,0,.2.06.23a.43.43,0,0,0,.24,0h6.3a.2.2,0,0,1,.13,0,.13.13,0,0,1,.07.11v.47A.13.13,0,0,1,123.38,33.9Zm-.5-3.06h-.54a.16.16,0,0,1-.18-.18V22.37a.16.16,0,0,1,.18-.18h.54a.16.16,0,0,1,.18.18v8.29A.16.16,0,0,1,122.88,30.84Z"/><path class="cls-1" d="M136.58,31.38a.15.15,0,0,1,.06.13V32a.17.17,0,0,1-.06.12.24.24,0,0,1-.13,0h-11a.24.24,0,0,1-.14,0,.17.17,0,0,1-.06-.12v-.44a.15.15,0,0,1,.06-.13.23.23,0,0,1,.14,0h11A.22.22,0,0,1,136.58,31.38Zm-1.72-2.44h-7a1.24,1.24,0,0,1-.78-.18,1,1,0,0,1-.2-.74V23.8a1,1,0,0,1,.2-.74,1.23,1.23,0,0,1,.78-.19h6.93a.15.15,0,0,1,.17.17v.43c0,.12-.06.18-.17.18h-6.71a.3.3,0,0,0-.24.08s-.07.13-.07.26v1.54h6.84c.12,0,.18,0,.18.14v.44a.15.15,0,0,1-.17.17h-6.85v1.55a.38.38,0,0,0,.07.26.3.3,0,0,0,.24.08h6.8c.12,0,.17,0,.17.16v.43C135,28.88,135,28.94,134.86,28.94Z"/><path class="cls-1" d="M148.8,27.77a.15.15,0,0,1,.07.12v.44a.15.15,0,0,1-.07.12.18.18,0,0,1-.13.05h-11a.19.19,0,0,1-.14-.05.14.14,0,0,1-.06-.12v-.44a.14.14,0,0,1,.06-.12.24.24,0,0,1,.14-.05h11A.24.24,0,0,1,148.8,27.77Zm-1.48,6.17a.14.14,0,0,1-.06.11.19.19,0,0,1-.11,0h-6.93a1,1,0,0,1-.8-.22,1.22,1.22,0,0,1-.19-.78v-.77a.94.94,0,0,1,.23-.73,1.33,1.33,0,0,1,.81-.19h5.6c.13,0,.2,0,.23,0a.42.42,0,0,0,.05-.25v-.49a.44.44,0,0,0-.05-.25.35.35,0,0,0-.23-.05h-6.48a.2.2,0,0,1-.13,0,.12.12,0,0,1-.06-.1v-.46a.11.11,0,0,1,.06-.1.2.2,0,0,1,.13,0H146a2.39,2.39,0,0,1,.51,0,.75.75,0,0,1,.31.15.62.62,0,0,1,.17.3,2,2,0,0,1,0,.46v.7a.92.92,0,0,1-.23.73,1.27,1.27,0,0,1-.81.19h-5.6a.37.37,0,0,0-.23,0,.47.47,0,0,0,0,.25V33c0,.12,0,.2,0,.24s.11.06.23.06h6.74a.19.19,0,0,1,.12,0,.11.11,0,0,1,.06.1Zm-.11-7.44a.16.16,0,0,1-.05.11.21.21,0,0,1-.12.05h-6.77a1,1,0,0,1-.8-.23,1.26,1.26,0,0,1-.19-.77V25a.94.94,0,0,1,.23-.73,1.27,1.27,0,0,1,.81-.19h5.52c.12,0,.19,0,.22,0a.44.44,0,0,0,.05-.26V23.2a.44.44,0,0,0-.05-.25.33.33,0,0,0-.22-.05h-6.37a.2.2,0,0,1-.13,0,.11.11,0,0,1-.06-.1v-.47a.11.11,0,0,1,.06-.1.2.2,0,0,1,.13,0H146a2.39,2.39,0,0,1,.51,0,.69.69,0,0,1,.31.15.63.63,0,0,1,.16.29,2,2,0,0,1,0,.47v.75a.93.93,0,0,1-.23.74,1.34,1.34,0,0,1-.81.18h-5.53a.37.37,0,0,0-.23.05.47.47,0,0,0,0,.25v.55a.43.43,0,0,0,.05.24s.11.06.23.06H147a.31.31,0,0,1,.13,0,.16.16,0,0,1,.05.11Z"/><path class="cls-1" d="M158.69,34.09a.14.14,0,0,1-.11-.06.16.16,0,0,1-.06-.13V29.69h-5a.2.2,0,0,1-.14-.06.14.14,0,0,1-.06-.11v-.45a.14.14,0,0,1,.06-.12.23.23,0,0,1,.14,0h11.05a.22.22,0,0,1,.13,0,.14.14,0,0,1,.06.12v.45a.14.14,0,0,1-.06.11.19.19,0,0,1-.13.06h-5.11V33.9a.15.15,0,0,1,0,.13.14.14,0,0,1-.12.06Zm4.93-6.91c0,.08-.12.11-.25.06a15.82,15.82,0,0,1-2.09-.63,20.49,20.49,0,0,1-2.09-.89,21.32,21.32,0,0,1-2,.9,23.56,23.56,0,0,1-2.33.77.18.18,0,0,1-.25-.11l-.15-.42c-.05-.12,0-.2.1-.23a17.29,17.29,0,0,0,1.85-.59c.62-.23,1.2-.48,1.76-.74s1.09-.54,1.58-.83a13.52,13.52,0,0,0,1.31-.88c.11-.08.15-.15.14-.21s-.09-.09-.23-.09h-5.59a.15.15,0,0,1-.17-.17v-.45c0-.11.06-.16.17-.16h5.94a2.4,2.4,0,0,1,.8.11.63.63,0,0,1,.38.29.51.51,0,0,1,0,.43,1.92,1.92,0,0,1-.41.5,12.45,12.45,0,0,1-2,1.44c.54.24,1.14.47,1.78.69a19.54,19.54,0,0,0,1.89.54c.08,0,.13,0,.13.07s0,.06,0,.12Z"/><path class="cls-1" d="M175.4,34.17h-.54a.16.16,0,0,1-.18-.18V27.52h-2.32a6.47,6.47,0,0,1-.24,1.36,4.43,4.43,0,0,1-.58,1.22,3,3,0,0,1-.95.87,2.5,2.5,0,0,1-1.34.34,2.57,2.57,0,0,1-1.45-.38,2.79,2.79,0,0,1-1-1,4.24,4.24,0,0,1-.51-1.34,6.82,6.82,0,0,1-.16-1.47,7.07,7.07,0,0,1,.16-1.52,4.24,4.24,0,0,1,.51-1.34,2.73,2.73,0,0,1,1-1,2.65,2.65,0,0,1,1.45-.37,2.68,2.68,0,0,1,1.34.32,3,3,0,0,1,.95.85,4.3,4.3,0,0,1,.58,1.22,6.51,6.51,0,0,1,.24,1.4h2.32V22.37a.16.16,0,0,1,.18-.18h.54a.16.16,0,0,1,.18.18V34A.16.16,0,0,1,175.4,34.17Zm-4-7a6.1,6.1,0,0,0-.13-1.19,3.94,3.94,0,0,0-.38-1.08,2.34,2.34,0,0,0-.68-.78,1.68,1.68,0,0,0-1-.3,1.73,1.73,0,0,0-1,.3,2.16,2.16,0,0,0-.65.78,3.61,3.61,0,0,0-.35,1.08,6.93,6.93,0,0,0-.11,1.19,7.78,7.78,0,0,0,.1,1.15,4.09,4.09,0,0,0,.34,1.09,2.37,2.37,0,0,0,.67.8,1.67,1.67,0,0,0,1,.31,1.62,1.62,0,0,0,1-.31,2.52,2.52,0,0,0,.68-.8,4.13,4.13,0,0,0,.38-1.09A5.88,5.88,0,0,0,171.45,27.13Z"/><path class="cls-1" d="M101.54,45.54a.76.76,0,0,1,.6.15.67.67,0,0,1,.26.54.75.75,0,0,1-.74.74.62.62,0,0,1-.49-.23.87.87,0,0,1-.22-.54,2.81,2.81,0,0,1,0-.94,2.45,2.45,0,0,1,.28-.71,1.92,1.92,0,0,1,.39-.43,1.29,1.29,0,0,1,.51-.28c.09,0,.15,0,.16,0a.49.49,0,0,1,0,.17v.14a.56.56,0,0,1,0,.19.47.47,0,0,1-.16.09.91.91,0,0,0-.46.39A1.47,1.47,0,0,0,101.54,45.54Z"/><path class="cls-1" d="M104.82,45a1,1,0,0,1,.21-.73,1.17,1.17,0,0,1,.78-.19h6.1a2.35,2.35,0,0,1,.5,0,.61.61,0,0,1,.29.14.55.55,0,0,1,.16.29,2.81,2.81,0,0,1,0,.45v3.63a1.06,1.06,0,0,1-.2.74,1.24,1.24,0,0,1-.78.18h-2.6v2.84h5.1a.2.2,0,0,1,.13,0,.14.14,0,0,1,.07.13V53a.15.15,0,0,1-.07.12.21.21,0,0,1-.13,0h-11a.22.22,0,0,1-.14,0,.17.17,0,0,1-.06-.12v-.44a.15.15,0,0,1,.06-.13.21.21,0,0,1,.14,0h5V49.5h-2.6a2.23,2.23,0,0,1-.5,0,.53.53,0,0,1-.3-.14.67.67,0,0,1-.15-.29,1.92,1.92,0,0,1,0-.45Zm1.21-.14a.34.34,0,0,0-.25.07.45.45,0,0,0-.06.27v3.24a.41.41,0,0,0,.06.26.34.34,0,0,0,.25.07h5.65c.13,0,.21,0,.25-.07a.4.4,0,0,0,.07-.26V45.15a.44.44,0,0,0-.07-.27c0-.05-.12-.07-.25-.07Z"/><path class="cls-1" d="M126.77,49.19a.14.14,0,0,1,.06.12v.44a.17.17,0,0,1-.06.12.27.27,0,0,1-.14.05h-5.09v1.19c.38,0,.78.07,1.21.13a5.91,5.91,0,0,1,1.17.34,2.47,2.47,0,0,1,.87.63,1.36,1.36,0,0,1,.35,1,1.42,1.42,0,0,1-.42,1.07,2.69,2.69,0,0,1-1,.64,5.51,5.51,0,0,1-1.33.31,12.35,12.35,0,0,1-1.28.08c-.25,0-.52,0-.82,0s-.6-.06-.9-.11a5.71,5.71,0,0,1-.86-.24,3,3,0,0,1-.74-.38,1.84,1.84,0,0,1-.52-.56,1.47,1.47,0,0,1-.2-.77,1.41,1.41,0,0,1,.35-1,2.65,2.65,0,0,1,.89-.63,5.62,5.62,0,0,1,1.16-.34c.42-.06.82-.11,1.2-.13V49.92h-5.06a.21.21,0,0,1-.13-.05.17.17,0,0,1-.06-.12v-.44a.14.14,0,0,1,.06-.12.17.17,0,0,1,.13,0h11A.2.2,0,0,1,126.77,49.19Zm-2.11-3h-6.57v.92a.43.43,0,0,0,.07.26.31.31,0,0,0,.25.08h6.51a.15.15,0,0,1,.17.17V48c0,.12-.06.18-.17.18h-6.73a1.18,1.18,0,0,1-.79-.19,1,1,0,0,1-.2-.73V44.34a1,1,0,0,1,.2-.73,1.18,1.18,0,0,1,.79-.19h6.64a.15.15,0,0,1,.17.17V44c0,.12-.06.18-.17.18h-6.42a.35.35,0,0,0-.25.07.44.44,0,0,0-.07.27v.9h6.56c.12,0,.18.05.18.14V46A.15.15,0,0,1,124.66,46.15Zm-.47,7a.78.78,0,0,0-.35-.67,2.77,2.77,0,0,0-.85-.38,5.17,5.17,0,0,0-1-.18c-.35,0-.64,0-.88,0s-.54,0-.89,0a4.74,4.74,0,0,0-1,.18,2.82,2.82,0,0,0-.84.38.82.82,0,0,0,0,1.34,2.61,2.61,0,0,0,.84.39,6.45,6.45,0,0,0,1,.17c.35,0,.65,0,.89,0s.53,0,.88,0a7.14,7.14,0,0,0,1-.17,2.56,2.56,0,0,0,.85-.39A.78.78,0,0,0,124.19,53.19Z"/><path class="cls-1" d="M134.64,48.14a6.84,6.84,0,0,1-.17,1.47,4.32,4.32,0,0,1-.56,1.34,3.21,3.21,0,0,1-1,1,2.63,2.63,0,0,1-1.43.38,2.59,2.59,0,0,1-1.45-.38,2.88,2.88,0,0,1-.95-1,4.49,4.49,0,0,1-.51-1.34,7.51,7.51,0,0,1-.16-1.47,7.77,7.77,0,0,1,.16-1.52,4.49,4.49,0,0,1,.51-1.34,2.82,2.82,0,0,1,.95-1,2.67,2.67,0,0,1,1.45-.37,2.63,2.63,0,0,1,1.43.37,3,3,0,0,1,1,1,4.22,4.22,0,0,1,.56,1.34A7.1,7.1,0,0,1,134.64,48.14Zm-.92,0a6.21,6.21,0,0,0-.12-1.21,4,4,0,0,0-.39-1.1,2.26,2.26,0,0,0-.67-.79,1.85,1.85,0,0,0-2,0,2.24,2.24,0,0,0-.66.79,3.94,3.94,0,0,0-.35,1.1,7.06,7.06,0,0,0-.1,1.21,7.88,7.88,0,0,0,.09,1.17,4,4,0,0,0,.35,1.11,2.3,2.3,0,0,0,.66.82,1.69,1.69,0,0,0,1,.31,1.65,1.65,0,0,0,1-.31,2.57,2.57,0,0,0,.67-.82,4.42,4.42,0,0,0,.39-1.11A6,6,0,0,0,133.72,48.13Zm3.78,7H137a.16.16,0,0,1-.18-.18V43.37a.16.16,0,0,1,.18-.18h.53a.16.16,0,0,1,.18.18V55A.16.16,0,0,1,137.5,55.17Z"/><path class="cls-1" d="M140.65,45.2a.7.7,0,0,1-.59-.16.62.62,0,0,1-.27-.53.75.75,0,0,1,.74-.74.64.64,0,0,1,.5.23.93.93,0,0,1,.22.54,3.11,3.11,0,0,1,0,.94,2.47,2.47,0,0,1-.29.71,1.86,1.86,0,0,1-.38.43,1.26,1.26,0,0,1-.52.28c-.09,0-.15,0-.16,0a.49.49,0,0,1,0-.17V46.6a.53.53,0,0,1,0-.18s.07-.05.16-.09a.87.87,0,0,0,.46-.39A1.47,1.47,0,0,0,140.65,45.2Z"/><path class="cls-1" d="M153.61,48.77a.14.14,0,0,1,.06.12v.44a.14.14,0,0,1-.06.12.18.18,0,0,1-.13,0h-11a.19.19,0,0,1-.14,0,.14.14,0,0,1-.06-.12v-.44a.14.14,0,0,1,.06-.12.24.24,0,0,1,.14-.05h11A.24.24,0,0,1,153.61,48.77Zm-1.48,6.17a.14.14,0,0,1-.06.11.19.19,0,0,1-.11,0H145a1,1,0,0,1-.8-.22,1.22,1.22,0,0,1-.19-.78v-.77a.94.94,0,0,1,.23-.73,1.33,1.33,0,0,1,.81-.19h5.6c.13,0,.2,0,.23,0a.42.42,0,0,0,.05-.25v-.49a.44.44,0,0,0-.05-.25.35.35,0,0,0-.23,0H144.2a.2.2,0,0,1-.13,0,.11.11,0,0,1,0-.1v-.46a.1.1,0,0,1,0-.1.2.2,0,0,1,.13,0h6.61a2.39,2.39,0,0,1,.51,0,.82.82,0,0,1,.31.15.55.55,0,0,1,.17.3,2,2,0,0,1,0,.46v.7a.89.89,0,0,1-.23.73,1.27,1.27,0,0,1-.81.19h-5.6a.37.37,0,0,0-.23,0,.47.47,0,0,0,0,.25V54c0,.12,0,.2,0,.24s.11.06.23.06H152a.19.19,0,0,1,.12,0,.11.11,0,0,1,.06.1ZM152,47.5a.14.14,0,0,1-.06.11.16.16,0,0,1-.11,0h-6.77a1,1,0,0,1-.8-.23,1.26,1.26,0,0,1-.19-.77V46a.94.94,0,0,1,.23-.73,1.27,1.27,0,0,1,.81-.19h5.51c.13,0,.2,0,.23,0a.44.44,0,0,0,0-.26V44.2a.44.44,0,0,0,0-.25.35.35,0,0,0-.23-.05h-6.36a.2.2,0,0,1-.13,0,.11.11,0,0,1-.06-.1v-.47a.11.11,0,0,1,.06-.1.2.2,0,0,1,.13,0h6.51a2.29,2.29,0,0,1,.5,0,.68.68,0,0,1,.32.15.55.55,0,0,1,.16.29,2,2,0,0,1,0,.47v.75a.93.93,0,0,1-.23.74,1.36,1.36,0,0,1-.81.18h-5.53a.37.37,0,0,0-.23,0,.47.47,0,0,0,0,.25v.55c0,.12,0,.2.05.24s.11.06.23.06h6.58a.24.24,0,0,1,.12,0,.14.14,0,0,1,.06.11Z"/><path class="cls-1" d="M160.12,50.69a.39.39,0,0,0,.25.07,17.8,17.8,0,0,0,2.6-.11c.9-.1,1.76-.22,2.57-.38.15,0,.24,0,.26.16l.07.36c0,.12,0,.2-.17.23a10.11,10.11,0,0,1-1.18.22c-.46.08-1,.14-1.46.19s-1,.09-1.53.11-.95,0-1.34,0a1.09,1.09,0,0,1-.81-.27,1.22,1.22,0,0,1-.22-.81V44.1c0-.13.06-.19.18-.19h.53a.17.17,0,0,1,.19.19v6.33A.41.41,0,0,0,160.12,50.69Zm7.41,4.48H167a.16.16,0,0,1-.18-.18V43.37a.16.16,0,0,1,.18-.18h.53a.16.16,0,0,1,.18.18V48.1h1.8a.15.15,0,0,1,.13,0,.14.14,0,0,1,.06.12v.44a.17.17,0,0,1-.06.12.19.19,0,0,1-.13.05h-1.8V55A.16.16,0,0,1,167.53,55.17Z"/><path class="cls-1" d="M176.53,48.44l-.9,0-1,0h-2.52v2.4a.45.45,0,0,0,.06.27.37.37,0,0,0,.25.07c.39,0,.81,0,1.26,0s.9,0,1.36-.07.89-.08,1.32-.13.8-.11,1.14-.18c.14,0,.22,0,.25.14l.06.38a.15.15,0,0,1,0,.15.26.26,0,0,1-.13.08,10,10,0,0,1-1.22.2c-.47.06-1,.11-1.45.15s-1,.06-1.48.08-.91,0-1.29,0a1,1,0,0,1-.8-.27,1.25,1.25,0,0,1-.21-.8V45.07a1,1,0,0,1,.21-.73,1.24,1.24,0,0,1,.78-.18h4.47c.11,0,.17.05.17.16v.46c0,.11-.06.16-.17.16h-4.3c-.12,0-.2,0-.22.05s0,.11,0,.24v2.53h2.49l1.06,0,.92,0a.13.13,0,0,1,.12,0,.21.21,0,0,1,0,.12v.44C176.7,48.37,176.64,48.42,176.53,48.44Zm3.22,6.73h-.53A.16.16,0,0,1,179,55V43.37a.16.16,0,0,1,.18-.18h.53a.16.16,0,0,1,.18.18V48.1h1.8a.19.19,0,0,1,.14,0,.17.17,0,0,1,0,.12v.44a.21.21,0,0,1,0,.12.24.24,0,0,1-.14.05h-1.8V55A.16.16,0,0,1,179.75,55.17Z"/><path class="cls-1" d="M184.61,48.27a.46.46,0,0,0,.25.08,14.61,14.61,0,0,0,2-.07,16.26,16.26,0,0,0,1.83-.31c.15,0,.24,0,.26.16l.07.36c0,.12,0,.2-.17.23a12.44,12.44,0,0,1-1.93.35,15.51,15.51,0,0,1-2.27.08,1.09,1.09,0,0,1-.81-.28,1.23,1.23,0,0,1-.22-.8V43.86a.16.16,0,0,1,.18-.18h.54a.16.16,0,0,1,.18.18V48A.39.39,0,0,0,184.61,48.27Zm9,6.88a.2.2,0,0,1-.14,0,5.74,5.74,0,0,1-1.4-1,4.69,4.69,0,0,1-.89-1.28,5.44,5.44,0,0,1-.84,1.28,4.81,4.81,0,0,1-1.14,1,.35.35,0,0,1-.38,0,4.57,4.57,0,0,1-1.15-.91,4.63,4.63,0,0,1-.81-1.22,4.27,4.27,0,0,1-.91,1.22,6.88,6.88,0,0,1-1.42,1l-.15.05c-.05,0-.09,0-.12,0L184,54.7a.16.16,0,0,1,0-.12.14.14,0,0,1,.09-.11A4.58,4.58,0,0,0,186,52.93a3.6,3.6,0,0,0,.51-2.23c0-.11.05-.17.13-.17h.63c.09,0,.14.06.14.16a6.06,6.06,0,0,1,0,.75,2.7,2.7,0,0,0,.16.81,3.7,3.7,0,0,0,.88,1.46,2.43,2.43,0,0,0,.61.48.2.2,0,0,0,.21,0,2.79,2.79,0,0,0,.65-.6,4.72,4.72,0,0,0,.53-.85,5.13,5.13,0,0,0,.35-1,4.25,4.25,0,0,0,.11-1.06.28.28,0,0,1,0-.13.11.11,0,0,1,.11-.06l.61,0c.1,0,.14,0,.14.15a2.46,2.46,0,0,1,0,.28c0,.09,0,.19,0,.28a3.14,3.14,0,0,0,.58,1.87A4.1,4.1,0,0,0,194,54.43a.16.16,0,0,1,0,.25l-.26.37A.3.3,0,0,1,193.66,55.15Zm-3.13-8.84h1.65V43.37a.16.16,0,0,1,.18-.18h.5a.16.16,0,0,1,.18.18v6.48c0,.13-.06.19-.18.19h-.5c-.12,0-.18-.06-.18-.19V47.09h-1.65v2.6a.16.16,0,0,1-.18.18h-.5a.16.16,0,0,1-.18-.18v-6.1a.16.16,0,0,1,.18-.18h.5a.16.16,0,0,1,.18.18Z"/><path class="cls-1" d="M202.53,51a.18.18,0,0,1-.17.22,10.18,10.18,0,0,1-1.22.22l-1.54.19c-.55,0-1.08.09-1.61.11s-1,0-1.38,0a1.06,1.06,0,0,1-.8-.27,1.31,1.31,0,0,1-.21-.81V45.07a1,1,0,0,1,.21-.73,1.22,1.22,0,0,1,.78-.18h4.47c.11,0,.17.05.17.16v.46c0,.11-.06.16-.17.16h-4.3a.35.35,0,0,0-.23.05.56.56,0,0,0,0,.24V50.6a.41.41,0,0,0,.06.26.44.44,0,0,0,.25.07q.62,0,1.32,0c.46,0,.93-.06,1.4-.11s.94-.1,1.39-.17.89-.13,1.3-.21c.13,0,.22,0,.24.14Zm1.66,4.2h-.53a.16.16,0,0,1-.18-.18V43.37a.16.16,0,0,1,.18-.18h.53a.16.16,0,0,1,.18.18V48.1h1.8a.15.15,0,0,1,.13,0,.14.14,0,0,1,.06.12v.44a.17.17,0,0,1-.06.12.19.19,0,0,1-.13.05h-1.8V55A.16.16,0,0,1,204.19,55.17Z"/><path class="cls-1" d="M419.71,7.75V9.08a.45.45,0,0,0,.07.26.32.32,0,0,0,.25.08h5.09c.12,0,.17.05.17.16V10c0,.12-.05.18-.17.18h-5.33A1.17,1.17,0,0,1,419,10a1,1,0,0,1-.21-.73V5.45a1,1,0,0,1,.21-.73,1.17,1.17,0,0,1,.78-.19h5.11a.15.15,0,0,1,.17.17v.4c0,.12-.06.18-.17.18H420a.37.37,0,0,0-.25.07.44.44,0,0,0-.07.27V7h5.11c.12,0,.18,0,.18.14v.43c0,.11-.05.17-.16.17Z"/><path class="cls-1" d="M436.47,9.38c.14,0,.21,0,.22.09l.08.45c0,.11,0,.17-.17.19-.58.09-1.22.18-1.91.25s-1.39.14-2.09.19l-.89,0-1,0h-1.89a.24.24,0,0,1-.14,0,.17.17,0,0,1-.06-.12V10a.16.16,0,0,1,.06-.13.23.23,0,0,1,.14,0h2.74V6.23a.24.24,0,0,1,.05-.14A.14.14,0,0,1,431.7,6h.56a.17.17,0,0,1,.12.06.24.24,0,0,1,.05.14V9.79h.14l1-.06,1-.08c.34,0,.68-.06,1-.11A8.42,8.42,0,0,0,436.47,9.38Zm-7-7.1a.24.24,0,0,1,.13,0h4.88a1.7,1.7,0,0,1,.5.06.77.77,0,0,1,.29.19.73.73,0,0,1,.15.32c0,.13,0,.29,0,.47,0,.35,0,.72,0,1.09s0,.75-.06,1.13-.08.74-.13,1.11-.11.7-.18,1a.69.69,0,0,1-.07.15.12.12,0,0,1-.13,0l-.51,0c-.15,0-.2-.09-.16-.23.08-.32.14-.67.2-1s.1-.75.13-1.13,0-.74.06-1.1a8,8,0,0,0,0-1,.37.37,0,0,0-.07-.22s-.1,0-.23,0h-4.68a.22.22,0,0,1-.14,0,.14.14,0,0,1-.05-.11V2.4A.12.12,0,0,1,429.46,2.28ZM438,13.17h-.53a.16.16,0,0,1-.18-.18V1.37a.16.16,0,0,1,.18-.18H438a.16.16,0,0,1,.18.18V6.45H440a.19.19,0,0,1,.13,0,.14.14,0,0,1,.06.12v.44a.16.16,0,0,1-.06.12.19.19,0,0,1-.13.05h-1.8V13A.16.16,0,0,1,438,13.17Z"/><path class="cls-1" d="M451.21,8.23l.35.24c.26.17.51.33.78.48s.53.28.8.41a6.68,6.68,0,0,0,.75.29c.12,0,.15.14.08.28l-.22.43a.2.2,0,0,1-.29.07,11.82,11.82,0,0,1-1.58-.81,12.12,12.12,0,0,1-1.37-.92l-.08.05a17.39,17.39,0,0,1-1.67.92c-.61.29-1.28.57-2,.84l-.16,0s-.06,0-.09-.08l-.22-.49a.15.15,0,0,1,.09-.24,21.22,21.22,0,0,0,3.35-1.51,13.64,13.64,0,0,0,2.37-1.68.17.17,0,0,0,.06-.22c0-.08-.13-.12-.28-.12h-5c-.11,0-.16,0-.16-.17V5.58a.14.14,0,0,1,.16-.16h5.35a1.54,1.54,0,0,1,.65.12.94.94,0,0,1,.37.29.54.54,0,0,1,.08.39.75.75,0,0,1-.24.43,15.93,15.93,0,0,1-1.22,1.1C451.64,7.92,451.43,8.08,451.21,8.23Zm.16-4.55c.13,0,.19.06.19.18v.42c0,.13-.06.2-.19.2h-2.94c-.13,0-.19-.07-.19-.2V3.86c0-.12.06-.18.19-.18Z"/><path class="cls-1" d="M465.68,13.09a.21.21,0,0,1-.12-.05.24.24,0,0,1-.05-.14V8.83h-5a.24.24,0,0,1-.14-.05.17.17,0,0,1-.06-.12V8.22a.14.14,0,0,1,.06-.12.24.24,0,0,1,.14,0h11a.24.24,0,0,1,.13,0,.14.14,0,0,1,.06.12v.44a.17.17,0,0,1-.06.12.24.24,0,0,1-.13.05h-5.11V12.9a.24.24,0,0,1-.05.14.17.17,0,0,1-.12.05Zm-2.75-6.65a2.39,2.39,0,0,1-.51,0,.62.62,0,0,1-.29-.15A.61.61,0,0,1,462,6a1.78,1.78,0,0,1,0-.44V1.38a.16.16,0,0,1,.05-.11.19.19,0,0,1,.12,0h.56a.13.13,0,0,1,.11.05.14.14,0,0,1,0,.1V3.11h6.26V1.39a.15.15,0,0,1,0-.11.13.13,0,0,1,.11-.05h.56a.17.17,0,0,1,.12,0,.16.16,0,0,1,.05.11V5.61a.81.81,0,0,1-.21.66,1.3,1.3,0,0,1-.78.17Zm-.1-2.56V5.36a.35.35,0,0,0,.07.25.38.38,0,0,0,.25.06h5.63a.35.35,0,0,0,.24-.06c.05,0,.07-.12.07-.25V3.88Z"/><path class="cls-1" d="M478,10.82a.16.16,0,0,1-.12-.06.22.22,0,0,1,0-.14V8.05h-5.16a.24.24,0,0,1-.14-.05.17.17,0,0,1-.06-.12V7.44a.14.14,0,0,1,.06-.12.24.24,0,0,1,.14-.05h11.05a.24.24,0,0,1,.13.05.14.14,0,0,1,.06.12v.44a.17.17,0,0,1-.06.12.24.24,0,0,1-.13.05h-5v2.57a.22.22,0,0,1-.05.14.14.14,0,0,1-.12.06Zm4.44,2.08a.2.2,0,0,1-.13,0h-7.16a1,1,0,0,1-.8-.26,1.33,1.33,0,0,1-.19-.78V9.49c0-.12.06-.18.19-.18h.53a.16.16,0,0,1,.18.18v2.4c0,.12,0,.19.06.22a.43.43,0,0,0,.24.05h6.95a.2.2,0,0,1,.13,0,.13.13,0,0,1,.07.11v.47A.13.13,0,0,1,482.46,12.9ZM475.35,6a3.26,3.26,0,0,1-.5,0,.62.62,0,0,1-.29-.15.56.56,0,0,1-.14-.29,1.87,1.87,0,0,1,0-.45V1.52a.15.15,0,0,1,.17-.15h.56a.16.16,0,0,1,.11,0,.14.14,0,0,1,0,.1V2.86h5.9V1.54a.17.17,0,0,1,0-.12.16.16,0,0,1,.11,0h.56a.19.19,0,0,1,.12,0,.16.16,0,0,1,.05.11V5.16a.85.85,0,0,1-.21.67,1.32,1.32,0,0,1-.78.17Zm-.09-2.37V4.92c0,.13,0,.21.07.25a.35.35,0,0,0,.24.06h5.28a.38.38,0,0,0,.25-.06.36.36,0,0,0,.06-.25V3.63Z"/><path class="cls-1" d="M496.09,6.35a.16.16,0,0,1,.06.13v.44a.17.17,0,0,1-.06.12.27.27,0,0,1-.13,0h-11a.24.24,0,0,1-.14,0,.17.17,0,0,1-.06-.12V6.48a.16.16,0,0,1,.06-.13.23.23,0,0,1,.14,0h11A.24.24,0,0,1,496.09,6.35Zm-5.67-.83a8.82,8.82,0,0,1-1.31-.1,4.87,4.87,0,0,1-1.3-.34,2.86,2.86,0,0,1-1-.68,1.61,1.61,0,0,1-.39-1.12,1.6,1.6,0,0,1,.39-1.11,2.71,2.71,0,0,1,1-.67,5.28,5.28,0,0,1,1.3-.35,10.31,10.31,0,0,1,1.31-.09,10.64,10.64,0,0,1,1.34.09,4.7,4.7,0,0,1,1.29.34,2.57,2.57,0,0,1,1,.68,1.64,1.64,0,0,1,.38,1.11A1.61,1.61,0,0,1,494,4.4a2.91,2.91,0,0,1-1,.68,4.8,4.8,0,0,1-1.29.34A9,9,0,0,1,490.42,5.52Zm4.17,7.42a.14.14,0,0,1-.06.11.15.15,0,0,1-.11,0h-6.91c-.41,0-.68-.07-.8-.22a1.22,1.22,0,0,1-.19-.78v-.93a1,1,0,0,1,.23-.74,1.33,1.33,0,0,1,.81-.19h5.59c.12,0,.2,0,.23-.05s.06-.11.06-.24V9.21a.42.42,0,0,0-.05-.25.37.37,0,0,0-.23-.05h-6.48a.2.2,0,0,1-.13,0,.12.12,0,0,1-.06-.1V8.31a.11.11,0,0,1,.06-.1.2.2,0,0,1,.13,0h6.61a2.39,2.39,0,0,1,.51,0,.69.69,0,0,1,.31.15.55.55,0,0,1,.16.29,2,2,0,0,1,.05.47v.93a1,1,0,0,1-.23.74,1.33,1.33,0,0,1-.81.19h-5.6c-.12,0-.2,0-.23,0a.38.38,0,0,0-.05.24V12a.35.35,0,0,0,.06.24s.11.06.23.06h6.72a.17.17,0,0,1,.12,0,.11.11,0,0,1,.06.1ZM490.42,1.85c-.28,0-.59,0-.94,0a5.21,5.21,0,0,0-1,.21,2.12,2.12,0,0,0-.78.44.93.93,0,0,0-.32.74.91.91,0,0,0,.32.74,2.25,2.25,0,0,0,.78.43,4,4,0,0,0,1,.21c.35,0,.66,0,.94,0s.59,0,.94,0a4.14,4.14,0,0,0,1-.21,2.25,2.25,0,0,0,.78-.43.91.91,0,0,0,.32-.74,1,1,0,0,0-.32-.74,2.21,2.21,0,0,0-.8-.44,5.11,5.11,0,0,0-1-.21C491,1.87,490.69,1.85,490.42,1.85Z"/><path class="cls-1" d="M421.86,25.32a7.69,7.69,0,0,1-1.05,1.48,7.81,7.81,0,0,0,.93.82,7,7,0,0,0,1,.62c.06,0,.09.08.09.13a.16.16,0,0,1,0,.13l-.31.45a.11.11,0,0,1-.12.05.23.23,0,0,1-.14,0,7.28,7.28,0,0,1-1-.7c-.35-.28-.69-.57-1-.87a9.56,9.56,0,0,1-1.37,1,9.33,9.33,0,0,1-1.61.81.28.28,0,0,1-.13,0,.08.08,0,0,1-.1-.06l-.25-.45a.23.23,0,0,1,0-.14.17.17,0,0,1,.1-.1,10.26,10.26,0,0,0,2.39-1.37,7.21,7.21,0,0,0,1.61-1.76c.07-.11.08-.2,0-.25a.29.29,0,0,0-.25-.09h-3.29c-.1,0-.16-.05-.16-.17v-.45a.15.15,0,0,1,.16-.16H421a1.26,1.26,0,0,1,.9.26C422.06,24.69,422.05,25,421.86,25.32Zm-.78-2.54v.42a.18.18,0,0,1-.2.2h-2.56c-.13,0-.19-.07-.19-.2v-.42c0-.12.06-.18.19-.18h2.56C421,22.6,421.08,22.66,421.08,22.78Zm-2.15,7.45a.38.38,0,0,1,.13,0h6.79a1,1,0,0,1,.8.23,1.18,1.18,0,0,1,.19.76V34a.16.16,0,0,1-.18.18h-.54a.16.16,0,0,1-.18-.18V31.25c0-.12,0-.2-.06-.23a.43.43,0,0,0-.24-.05h-6.58a.24.24,0,0,1-.13,0,.14.14,0,0,1-.06-.11v-.47A.14.14,0,0,1,418.93,30.23Zm5.22-.92h-.5a.16.16,0,0,1-.18-.18V22.59a.16.16,0,0,1,.18-.18h.5a.16.16,0,0,1,.18.18v3H426V22.37a.16.16,0,0,1,.18-.18h.5a.16.16,0,0,1,.18.18v7a.16.16,0,0,1-.18.18h-.5a.16.16,0,0,1-.18-.18v-3h-1.65v2.76A.16.16,0,0,1,424.15,29.31Z"/><path class="cls-1" d="M433.84,24a1,1,0,0,1,.21-.73,1.17,1.17,0,0,1,.78-.19h6.1a2.29,2.29,0,0,1,.5,0,.6.6,0,0,1,.3.14.62.62,0,0,1,.15.29,2.68,2.68,0,0,1,0,.45v3.63a1,1,0,0,1-.21.74,1.24,1.24,0,0,1-.78.18h-2.6v2.84h5.11a.22.22,0,0,1,.13,0,.15.15,0,0,1,.06.13V32a.17.17,0,0,1-.06.12.24.24,0,0,1-.13,0H432.39a.24.24,0,0,1-.14,0,.17.17,0,0,1-.06-.12v-.44a.15.15,0,0,1,.06-.13.23.23,0,0,1,.14,0h5V28.5h-2.6a3.34,3.34,0,0,1-.5,0,.71.71,0,0,1-.3-.15.67.67,0,0,1-.15-.29,2.68,2.68,0,0,1,0-.45Zm1.21-.14a.34.34,0,0,0-.24.07.38.38,0,0,0-.07.27v3.24c0,.13,0,.22.07.26a.3.3,0,0,0,.24.07h5.66a.34.34,0,0,0,.25-.07.39.39,0,0,0,.06-.26V24.15a.45.45,0,0,0-.06-.27.39.39,0,0,0-.25-.07Z"/><path class="cls-1" d="M451.24,25.59a3,3,0,0,1-.23,1.19,2.94,2.94,0,0,1-.65.93,3,3,0,0,1-1,.61,3.33,3.33,0,0,1-1.24.22,3.38,3.38,0,0,1-1.21-.21,2.82,2.82,0,0,1-1.61-1.54,3.13,3.13,0,0,1-.23-1.2,3.26,3.26,0,0,1,.23-1.24,2.63,2.63,0,0,1,1.61-1.52,3.38,3.38,0,0,1,1.21-.2,3.33,3.33,0,0,1,1.18.2,2.93,2.93,0,0,1,1,.58,2.8,2.8,0,0,1,.68.93A2.94,2.94,0,0,1,451.24,25.59Zm-.91,0a2.22,2.22,0,0,0-.18-.92,1.85,1.85,0,0,0-.47-.66,1.94,1.94,0,0,0-.7-.4,2.54,2.54,0,0,0-.83-.14,2.57,2.57,0,0,0-.85.14,1.94,1.94,0,0,0-.68.4,1.78,1.78,0,0,0-.44.66,2.4,2.4,0,0,0-.17.92,2.42,2.42,0,0,0,.16.88,2.07,2.07,0,0,0,.43.68,1.75,1.75,0,0,0,.67.43,2.42,2.42,0,0,0,.88.15,2.31,2.31,0,0,0,.83-.15,1.87,1.87,0,0,0,.7-.43,2,2,0,0,0,.47-.68A2.07,2.07,0,0,0,450.33,25.58Zm3.86,6.27a1.76,1.76,0,0,1-.3,1,2.52,2.52,0,0,1-.81.74,4.06,4.06,0,0,1-1.2.47,6.16,6.16,0,0,1-1.46.16,6.59,6.59,0,0,1-1.53-.16,3.89,3.89,0,0,1-1.19-.47,2.25,2.25,0,0,1-.76-.74,1.82,1.82,0,0,1-.28-1,1.76,1.76,0,0,1,.28-1,2.34,2.34,0,0,1,.76-.74,4.16,4.16,0,0,1,1.19-.47,7.19,7.19,0,0,1,1.53-.16,6.73,6.73,0,0,1,1.46.16,4.35,4.35,0,0,1,1.2.47,2.5,2.5,0,0,1,.81.73A1.71,1.71,0,0,1,454.19,31.85Zm-.92,0a1.07,1.07,0,0,0-.24-.69,1.91,1.91,0,0,0-.63-.5,4.22,4.22,0,0,0-.91-.31,5.49,5.49,0,0,0-1.08-.11,5.83,5.83,0,0,0-1.15.11,3.86,3.86,0,0,0-.89.31,1.91,1.91,0,0,0-.58.5,1.24,1.24,0,0,0-.2.69,1.15,1.15,0,0,0,.2.67,1.65,1.65,0,0,0,.58.49,3.44,3.44,0,0,0,.89.3,5.86,5.86,0,0,0,1.15.1,5.49,5.49,0,0,0,1.08-.1,3.74,3.74,0,0,0,.91-.3,1.67,1.67,0,0,0,.63-.49A1,1,0,0,0,453.27,31.88Zm.58-2.54h-.53c-.12,0-.18-.06-.18-.19V22.37a.16.16,0,0,1,.18-.18h.53a.16.16,0,0,1,.18.18v2.1h1.8a.19.19,0,0,1,.13.05.14.14,0,0,1,.06.12v.43a.16.16,0,0,1-.06.12.19.19,0,0,1-.13,0H454V26.8h1.8a.19.19,0,0,1,.13.05A.14.14,0,0,1,456,27v.43a.17.17,0,0,1-.06.12.19.19,0,0,1-.13.05H454v1.58C454,29.28,454,29.34,453.85,29.34Z"/><path class="cls-1" d="M468,31.38a.15.15,0,0,1,.06.13V32a.17.17,0,0,1-.06.12.24.24,0,0,1-.13,0H456.83a.24.24,0,0,1-.14,0,.17.17,0,0,1-.06-.12v-.44a.15.15,0,0,1,.06-.13.23.23,0,0,1,.14,0h11.05A.22.22,0,0,1,468,31.38Zm-5.68-2.56a6.56,6.56,0,0,1-1.43-.17,4.93,4.93,0,0,1-1.34-.53,3.13,3.13,0,0,1-1-.91,2.46,2.46,0,0,1,0-2.66,3,3,0,0,1,1-.91,4.35,4.35,0,0,1,1.34-.52,6.56,6.56,0,0,1,1.43-.17,6.42,6.42,0,0,1,1.43.17,4.25,4.25,0,0,1,1.34.52,3,3,0,0,1,1,.91,2.46,2.46,0,0,1,0,2.66,3.13,3.13,0,0,1-1,.91,4.81,4.81,0,0,1-1.34.53A6.42,6.42,0,0,1,462.33,28.82Zm0-5a6.62,6.62,0,0,0-1,.1,4,4,0,0,0-1,.34,2.45,2.45,0,0,0-.81.65,1.61,1.61,0,0,0-.32,1,1.57,1.57,0,0,0,.32,1,2.45,2.45,0,0,0,.81.65,4,4,0,0,0,1,.34,6.53,6.53,0,0,0,1,.09,6.39,6.39,0,0,0,1-.09,4.22,4.22,0,0,0,1-.34,2.45,2.45,0,0,0,.81-.65,1.47,1.47,0,0,0,.34-1,1.51,1.51,0,0,0-.34-1,2.45,2.45,0,0,0-.81-.65,4.22,4.22,0,0,0-1-.34A6.49,6.49,0,0,0,462.33,23.78Z"/><path class="cls-1" d="M474.09,31.34V29.08h-2.6a1,1,0,0,1-.8-.23,1.27,1.27,0,0,1-.19-.78V26.45a.93.93,0,0,1,.23-.74,1.36,1.36,0,0,1,.81-.18h5.87a.39.39,0,0,0,.23-.05.47.47,0,0,0,0-.25V23.88a.44.44,0,0,0,0-.25s-.11-.05-.23-.05h-6.72a.28.28,0,0,1-.13,0,.13.13,0,0,1-.06-.11v-.49a.11.11,0,0,1,.06-.1.2.2,0,0,1,.13,0h6.86a2.39,2.39,0,0,1,.51,0,.69.69,0,0,1,.31.15.55.55,0,0,1,.16.29,2,2,0,0,1,.05.47v1.62a.93.93,0,0,1-.23.74,1.34,1.34,0,0,1-.81.18h-5.87c-.12,0-.19,0-.22.06a.38.38,0,0,0-.05.24V28a.43.43,0,0,0,.05.24.35.35,0,0,0,.24.06h7a.19.19,0,0,1,.12,0,.11.11,0,0,1,.06.1v.48a.14.14,0,0,1-.06.11.18.18,0,0,1-.11,0H475v2.26h5.11a.22.22,0,0,1,.13,0,.15.15,0,0,1,.06.13V32a.17.17,0,0,1-.06.12.24.24,0,0,1-.13,0H469.05a.24.24,0,0,1-.14,0,.17.17,0,0,1-.06-.12v-.44a.15.15,0,0,1,.06-.13.23.23,0,0,1,.14,0Z"/><path class="cls-1" d="M417.32,44.84a1,1,0,0,1,.21-.74,1.23,1.23,0,0,1,.78-.19h3.58a3.26,3.26,0,0,1,.5,0,.62.62,0,0,1,.29.15.45.45,0,0,1,.15.28,2,2,0,0,1,0,.46v4a1,1,0,0,1-.21.74,1.18,1.18,0,0,1-.77.19h-3.58a3.15,3.15,0,0,1-.5,0,.61.61,0,0,1-.3-.15.62.62,0,0,1-.15-.29,1.82,1.82,0,0,1,0-.45Zm1.21-.15a.34.34,0,0,0-.25.08.39.39,0,0,0-.06.26v3.63a.45.45,0,0,0,.06.27.39.39,0,0,0,.25.07h3.13a.37.37,0,0,0,.25-.07.44.44,0,0,0,.07-.27V45a.38.38,0,0,0-.07-.26.32.32,0,0,0-.25-.08Zm7.94,10.21a.2.2,0,0,1-.13,0h-6.61c-.41,0-.68-.08-.8-.24a1.18,1.18,0,0,1-.19-.76V51.4a.16.16,0,0,1,.18-.18h.53c.13,0,.19.06.19.18v2.49c0,.12,0,.19.06.22a.38.38,0,0,0,.24,0h6.4a.2.2,0,0,1,.13,0,.13.13,0,0,1,.07.11v.47A.13.13,0,0,1,426.47,54.9Zm-.7-3.08h-.53a.16.16,0,0,1-.18-.18V43.37a.16.16,0,0,1,.18-.18h.53a.16.16,0,0,1,.18.18v3.72h1.8a.18.18,0,0,1,.13,0,.15.15,0,0,1,.06.13v.44a.14.14,0,0,1-.06.11.16.16,0,0,1-.13.06H426v3.77A.16.16,0,0,1,425.77,51.82Z"/><path class="cls-1" d="M439.93,48.29a.14.14,0,0,1,.06.12v.44a.14.14,0,0,1-.06.12.18.18,0,0,1-.13.05H428.75a.19.19,0,0,1-.14-.05.14.14,0,0,1-.06-.12v-.44a.14.14,0,0,1,.06-.12.24.24,0,0,1,.14,0H439.8A.24.24,0,0,1,439.93,48.29Zm-1.5,6.65a.16.16,0,0,1-.05.11.19.19,0,0,1-.12,0h-6.91c-.41,0-.68-.07-.8-.22a1.22,1.22,0,0,1-.19-.78v-.93a1,1,0,0,1,.23-.74,1.33,1.33,0,0,1,.81-.19H437c.12,0,.2,0,.23,0s.06-.11.06-.24v-.73a.42.42,0,0,0,0-.25.37.37,0,0,0-.23-.05h-6.48a.2.2,0,0,1-.13,0,.12.12,0,0,1-.06-.1v-.46a.11.11,0,0,1,.06-.1.2.2,0,0,1,.13,0h6.61a2.39,2.39,0,0,1,.51,0,.69.69,0,0,1,.31.15.64.64,0,0,1,.17.29,2.11,2.11,0,0,1,0,.47v.93a1,1,0,0,1-.23.74,1.33,1.33,0,0,1-.81.19h-5.6c-.12,0-.2,0-.23.05a.38.38,0,0,0-.05.24V54a.35.35,0,0,0,.06.24s.11.06.23.06h6.72a.22.22,0,0,1,.13,0,.12.12,0,0,1,.05.1Zm-.14-8c0,.12-.06.18-.17.18h-6.73a1.17,1.17,0,0,1-.78-.19,1,1,0,0,1-.21-.73v-2a1,1,0,0,1,.21-.73,1.17,1.17,0,0,1,.78-.19H438a.15.15,0,0,1,.17.17v.43c0,.12-.06.18-.17.18h-6.42a.34.34,0,0,0-.25.07.45.45,0,0,0-.06.27V46a.47.47,0,0,0,.06.27.34.34,0,0,0,.25.07h6.51a.15.15,0,0,1,.17.17Z"/><path class="cls-1" d="M450.67,49.89h-.54a.16.16,0,0,1-.18-.18V47h-2.23a2.78,2.78,0,0,1-1,1.81,3.2,3.2,0,0,1-.95.51,3.58,3.58,0,0,1-1.14.18,3.35,3.35,0,0,1-1.19-.21,3,3,0,0,1-1-.59,2.84,2.84,0,0,1-.66-.91,2.8,2.8,0,0,1-.24-1.18,2.94,2.94,0,0,1,.24-1.21,2.54,2.54,0,0,1,.66-.91,2.81,2.81,0,0,1,1-.57,3.35,3.35,0,0,1,1.19-.21,3.65,3.65,0,0,1,1.09.17,3.14,3.14,0,0,1,.94.5,2.9,2.9,0,0,1,.7.78,2.78,2.78,0,0,1,.37,1.06H450V43.37a.16.16,0,0,1,.18-.18h.54a.16.16,0,0,1,.18.18v6.34A.16.16,0,0,1,450.67,49.89Zm1.25,5.26s-.07,0-.14,0a5.68,5.68,0,0,1-1.39-1,4.17,4.17,0,0,1-.89-1.28,6.15,6.15,0,0,1-.84,1.28,4.78,4.78,0,0,1-1.14,1,.39.39,0,0,1-.39,0,5,5,0,0,1-1.14-.92,4.63,4.63,0,0,1-.81-1.22,4.5,4.5,0,0,1-.92,1.23,7,7,0,0,1-1.42,1l-.14.05a.09.09,0,0,1-.12,0l-.31-.47a.16.16,0,0,1,0-.12.21.21,0,0,1,.1-.11,4.58,4.58,0,0,0,1.87-1.54,3.65,3.65,0,0,0,.51-2.23c0-.11,0-.17.13-.17h.62a.14.14,0,0,1,.15.16c0,.26,0,.51,0,.75a3,3,0,0,0,.15.81,4.38,4.38,0,0,0,.37.79,3.7,3.7,0,0,0,.51.67,2.47,2.47,0,0,0,.62.48.2.2,0,0,0,.21,0,2.79,2.79,0,0,0,.65-.6,4.69,4.69,0,0,0,.52-.85,4.54,4.54,0,0,0,.35-1,3.82,3.82,0,0,0,.11-1.06.2.2,0,0,1,0-.13.12.12,0,0,1,.11-.05h.61c.09,0,.14,0,.14.15s0,.19,0,.28a2.64,2.64,0,0,1,0,.28,3.15,3.15,0,0,0,.59,1.87,4.1,4.1,0,0,0,1.69,1.33.16.16,0,0,1,0,.25l-.26.38Zm-5.09-8.57a2.13,2.13,0,0,0-.18-.9,1.86,1.86,0,0,0-.49-.65,2.18,2.18,0,0,0-.7-.39,2.78,2.78,0,0,0-1.68,0,2.13,2.13,0,0,0-.69.39,1.92,1.92,0,0,0-.46.65,2.29,2.29,0,0,0-.17.9,2.13,2.13,0,0,0,.17.86,1.69,1.69,0,0,0,.45.66,2,2,0,0,0,.68.42,2.63,2.63,0,0,0,.86.14,2.55,2.55,0,0,0,.84-.14,2.25,2.25,0,0,0,.7-.42,1.9,1.9,0,0,0,.49-.66A2,2,0,0,0,446.83,46.58Z"/><path class="cls-1" d="M460.77,51a.18.18,0,0,1-.17.22,12.32,12.32,0,0,1-1.22.23c-.49.07-1,.13-1.54.18s-1.08.09-1.61.11-1,0-1.38,0a1.06,1.06,0,0,1-.8-.27,1.29,1.29,0,0,1-.21-.81V45.07a1,1,0,0,1,.21-.73,1.22,1.22,0,0,1,.78-.18h4.47c.11,0,.17.05.17.16v.46c0,.11-.06.16-.17.16H455a.33.33,0,0,0-.22.05.56.56,0,0,0,0,.24V50.6a.41.41,0,0,0,.06.26.37.37,0,0,0,.25.07q.61,0,1.32,0c.46,0,.93-.06,1.4-.11s.94-.1,1.39-.17.89-.13,1.29-.21c.14,0,.23,0,.25.14Zm1.66,4.2h-.53a.16.16,0,0,1-.18-.18V43.37a.16.16,0,0,1,.18-.18h.53a.16.16,0,0,1,.18.18V48.1h1.8a.21.21,0,0,1,.13,0,.14.14,0,0,1,.06.12v.44a.17.17,0,0,1-.06.12.21.21,0,0,1-.13.05h-1.8V55A.16.16,0,0,1,462.43,55.17Z"/></g></g></svg>