<svg xmlns="http://www.w3.org/2000/svg" viewBox="0 0 165 164.98"><defs><style>.cls-1{fill:none;stroke:#fe5f50;stroke-miterlimit:10;}</style></defs><title>svgAsset 72</title><g id="Layer_2" data-name="Layer 2"><g id="Layer_1-2" data-name="Layer 1"><path class="cls-1" d="M164.5,38.48v114a12,12,0,0,1-12,12H12.5a12,12,0,0,1-12-12v-114"/><path class="cls-1" d="M145.25,26.89a70.2,70.2,0,0,1,7.08,2.59V151.81c-44.33-14.66-69,.67-69,.67H82s-24.67-15.33-69-.67V29.48s36.33-16.33,69.67-.33"/><path class="cls-1" d="M82.67,29.15V140.73s28.33-19,52.33-25.25V.73S106,12,91.75,23.48"/><line class="cls-1" x1="74.5" y1="149.23" x2="74.5" y2="164.23"/><line class="cls-1" x1="91" y1="149.73" x2="91" y2="163.48"/><path class="cls-1" d="M28.25,54.73s13-6,38-1.5"/><path class="cls-1" d="M28.25,71.23s13-6,38-1.5"/><path class="cls-1" d="M28.25,87.73s13-6,38-1.5"/><path class="cls-1" d="M28.25,104.23s13-6,38-1.5"/><path class="cls-1" d="M28.25,120.73s13-6,38-1.5"/><path class="cls-1" d="M96,43.48S108.25,35,121.5,32"/><path class="cls-1" d="M96,60.48S108.25,52,121.5,49"/><path class="cls-1" d="M96,77.48S108.25,69,121.5,66"/><path class="cls-1" d="M96,94.48S108.25,86,121.5,83"/><path class="cls-1" d="M96,111.48s12.25-8.5,25.5-11.5"/></g></g></svg>