<svg xmlns="http://www.w3.org/2000/svg" viewBox="0 0 136.5 130"><defs><style>.cls-1,.cls-2{fill:none;}.cls-1{stroke:#fe5f50;stroke-linecap:round;stroke-linejoin:round;}.cls-3{fill:#fe5f50;}</style></defs><title>svgAsset 64</title><g id="Layer_2" data-name="Layer 2"><g id="Layer_1-2" data-name="Layer 1"><rect class="cls-1" x="25.5" y="0.5" width="110.5" height="129"/><line class="cls-1" x1="70" y1="44.17" x2="115" y2="44.33"/><line class="cls-1" x1="70" y1="61.83" x2="115" y2="62"/><line class="cls-1" x1="70" y1="79.5" x2="115" y2="79.67"/><polygon class="cls-2" points="33.51 88.83 45.82 88.83 39.67 79.26 33.51 88.83"/><polygon class="cls-2" points="46.06 52.67 33.28 52.67 39.67 62.61 46.06 52.67"/><path class="cls-3" d="M77.38,30H3.63A3.62,3.62,0,0,0,0,33.62v73.75A3.62,3.62,0,0,0,3.63,111H77.38A3.62,3.62,0,0,0,81,107.37V33.62A3.62,3.62,0,0,0,77.38,30ZM54.85,87.59h-4l-7.7-12-7.7,12h-4l9.68-15.07L31.3,57.09h4l7.93,12.35,7.94-12.35h4L45.17,72.52Z"/></g></g></svg>