<svg xmlns="http://www.w3.org/2000/svg" viewBox="0 0 213 213"><defs><style>.cls-1{fill:none;stroke:#fe5f50;stroke-miterlimit:10;}.cls-2{fill:#fe5f50;}</style></defs><title>svxAsset 59</title><g id="Layer_2" data-name="Layer 2"><g id="Layer_1-2" data-name="Layer 1"><circle class="cls-1" cx="106.5" cy="106.5" r="106"/><rect class="cls-1" x="42.94" y="61.97" width="20.81" height="20.81" transform="translate(-35.55 58.92) rotate(-45)"/><rect class="cls-1" x="72.8" y="61.97" width="20.81" height="20.81" transform="translate(-26.81 80.03) rotate(-45)"/><rect class="cls-1" x="119.39" y="47.21" width="20.81" height="20.81" transform="translate(-2.72 108.66) rotate(-45)"/><rect class="cls-1" x="149.25" y="47.21" width="20.81" height="20.81" transform="translate(6.02 129.77) rotate(-45)"/><rect class="cls-1" x="119.39" y="76.73" width="20.81" height="20.81" transform="translate(-23.59 117.3) rotate(-45)"/><rect class="cls-1" x="149.25" y="76.73" width="20.81" height="20.81" transform="translate(-14.85 138.41) rotate(-45)"/><rect class="cls-2" x="119.39" y="130.22" width="20.81" height="20.81" transform="translate(-61.42 132.97) rotate(-45)"/><rect class="cls-2" x="149.25" y="130.22" width="20.81" height="20.81" transform="translate(-52.68 154.08) rotate(-45)"/><rect class="cls-2" x="42.94" y="115.46" width="20.81" height="20.81" transform="translate(-73.38 74.59) rotate(-45)"/><rect class="cls-2" x="72.8" y="115.46" width="20.81" height="20.81" transform="translate(-64.63 95.7) rotate(-45)"/><rect class="cls-2" x="42.94" y="144.98" width="20.81" height="20.81" transform="translate(-94.25 83.23) rotate(-45)"/><rect class="cls-2" x="72.8" y="144.98" width="20.81" height="20.81" transform="translate(-85.51 104.34) rotate(-45)"/></g></g></svg>