<svg xmlns="http://www.w3.org/2000/svg" viewBox="0 0 193.59 184.43"><defs><style>.cls-1{fill:none;}.cls-1,.cls-2{stroke:#fe5f50;stroke-miterlimit:10;}.cls-2{fill:#fe5f50;stroke-width:3px;}</style></defs><title>sszAsset 67</title><g id="Layer_2" data-name="Layer 2"><g id="Layer_1-2" data-name="Layer 1"><path class="cls-1" d="M105.64.5A87.47,87.47,0,0,0,30.58,132.87L1.35,183.1l49-27.4A87.45,87.45,0,1,0,105.64.5Z"/><path class="cls-2" d="M103.55,69.09v4.74h-22v15h18.6v4.74H81.59v18.12H76.37V69.09Z"/><path class="cls-2" d="M126.23,69.09c9.84,0,14.1,5.64,14.1,13.2,0,7.14-3.9,11.28-10.62,12.66l11.76,16.74h-6.24L124,95.43h-7.62v16.26h-5.22V69.09Zm8.7,13.08c0-5.46-3.54-8.34-9.42-8.34h-9.18V90.69h8.46C131.87,90.69,134.93,87.09,134.93,82.17Z"/></g></g></svg>