<svg id="Layer_13" data-name="Layer 13" xmlns="http://www.w3.org/2000/svg" xmlns:xlink="http://www.w3.org/1999/xlink" viewBox="0 0 390 256"><defs><style>.cls-1,.cls-3{fill:none;}.cls-2{fill:#ff5e4a;}.cls-3{stroke-linecap:round;stroke-linejoin:round;stroke:url(#New_Pattern_Swatch_5);}</style><pattern id="New_Pattern_Swatch_5" data-name="New Pattern Swatch 5" width="88" height="88" patternTransform="translate(-45.21 -72.8)" patternUnits="userSpaceOnUse" viewBox="0 0 88 88"><rect class="cls-1" width="88" height="88"/><rect class="cls-2" width="88" height="88"/></pattern></defs><title>aiaiArtboard 1</title><path class="cls-3" d="M234.59,108.5C232.37,123.16,223,124,223,124c-3.24-.51-7.16,1.88-7.16,1.88-3.41,2.38,2.9,2.9,2.9,2.9,9.72,0,8.69,2.9,8.69,2.9,4.27,8.18-3.92,13.8-3.92,13.8-8.35,5.8-19.09-2.21-19.09-2.21a29.65,29.65,0,0,1-3.41-3.75c-2.14-1.9-3.93-2.44-5.36-2.35a82,82,0,0,0-.27-10.61s14.83,12.28,22.17,13c0,0-20.29-11.6-21-15.18,0,0,20-16.16,26.53-18.21a7.52,7.52,0,0,1,1.42-.2,3,3,0,0,0-1.42.2c-3.13.65-11.64,3.51-27.9,16,0,0,.51-24-1.36-29.5,0,0-1.7,23.66-.39,29.3a3.32,3.32,0,0,0,.22.71c.21.48.33.72.34.77-.27-.28-6.22-9.33-27.62-12.37,0,0,21.53,6.82,25.4,13.64,0,0-5.45,10-18.89,16.87a46.2,46.2,0,0,0,21.28-13.46s-.3,4.11-.85,9.87a5.88,5.88,0,0,0-1.71,1.73c-1.85,3.18-7,7-7,7-12.62,8-18.24,0-18.24,0-4.78-12.11,9.89-15.69,9.89-15.69,10.05-1.19-1.37-2.9-1.37-2.9-8.52.86-14.32-5.11-14.32-5.11-11.08-8.35-1-18.58-1-18.58,8-8,18.75,1.36,18.75,1.36,11.08,10.4,3.92-4.6,3.92-4.6-3.75-3.58-2.38-9.55-2.38-9.55,5.11-14,18.24-9.72,18.24-9.72,12.62,7.5,6.31,21.48,6.31,21.48-3.58,10.4,4.77,2.56,4.77,2.56,3.51-8.65,9.41-8.7,9.55-8.7C235.78,95,234.59,108.5,234.59,108.5Z"/><path class="cls-3" d="M223.1,106.14a7,7,0,0,1,1.43-.2A3.11,3.11,0,0,0,223.1,106.14Z"/><path class="cls-3" d="M217.54,139.53c-7.34-.68-22.17-13-22.17-13a82,82,0,0,1,.27,10.61c-.56,17.51-5.21,36.62-5.21,36.62a2.46,2.46,0,0,1-3.75,0c3-2.47,5.45-23.15,6.65-35.83.55-5.76.85-9.87.85-9.87a46.2,46.2,0,0,1-21.28,13.46c13.44-6.83,18.89-16.87,18.89-16.87-3.87-6.82-25.4-13.64-25.4-13.64,21.4,3,27.35,12.09,27.62,12.37,0,0-.13-.29-.34-.77a3.32,3.32,0,0,1-.22-.71c-1.31-5.64.39-29.3.39-29.3,1.87,5.46,1.36,29.5,1.36,29.5,16.26-12.49,24.77-15.35,27.9-16-6.5,2-26.53,18.21-26.53,18.21C197.25,127.93,217.54,139.53,217.54,139.53Z"/></svg>