<svg id="Layer_15" data-name="Layer 15" xmlns="http://www.w3.org/2000/svg" xmlns:xlink="http://www.w3.org/1999/xlink" viewBox="0 0 390 256"><defs><style>.cls-1,.cls-3,.cls-4,.cls-5{fill:none;}.cls-2{fill:#ff5e4a;}.cls-3,.cls-4,.cls-5{stroke-linecap:round;stroke-linejoin:round;}.cls-3,.cls-5{stroke-width:0.9px;}.cls-3{stroke:url(#New_Pattern_Swatch_5);}.cls-4,.cls-5{stroke:url(#New_Pattern_Swatch_5-3);}.cls-6{fill:url(#New_Pattern_Swatch_5-19);}</style><pattern id="New_Pattern_Swatch_5" data-name="New Pattern Swatch 5" width="88" height="88" patternTransform="translate(125.82 -42.28) scale(0.44)" patternUnits="userSpaceOnUse" viewBox="0 0 88 88"><rect class="cls-1" width="88" height="88"/><rect class="cls-2" width="88" height="88"/></pattern><pattern id="New_Pattern_Swatch_5-3" data-name="New Pattern Swatch 5" width="88" height="88" patternTransform="translate(121.81 -42.28) scale(0.44)" patternUnits="userSpaceOnUse" viewBox="0 0 88 88"><rect class="cls-1" width="88" height="88"/><rect class="cls-2" width="88" height="88"/></pattern><pattern id="New_Pattern_Swatch_5-19" data-name="New Pattern Swatch 5" width="88" height="88" patternTransform="translate(82.78 -71.99) scale(0.44)" patternUnits="userSpaceOnUse" viewBox="0 0 88 88"><rect class="cls-1" width="88" height="88"/><rect class="cls-2" width="88" height="88"/></pattern></defs><title>ssArtboard 1</title><path class="cls-3" d="M237.94,143.12c-3.38,2.33-9.47,4.07-9.47,4.07-7,3.68-62,9.13-62,9.13-8.7,1.34-12.65-.53-14.45-2.51,5.63.28,18.18-1,32.22-2.8,7.62-1,15.67-2.11,23.3-3.22,6.49-.95,12.67-1.89,18-2.72C230.59,144.29,234.85,143.62,237.94,143.12Z"/><path class="cls-4" d="M193.24,131.08a4.17,4.17,0,0,0-.13,1.35c-1.36,2.31-5.49,8.83-8.53,7.9,0,0-4-.21-1.81-4.39,0,0,1.7-.74,2.22.13,0,0,.95-8.33,1.92-9.63a16.47,16.47,0,0,1-1.83-7.73,13.21,13.21,0,0,1,3.74.08A16.26,16.26,0,0,0,193.24,131.08Z"/><path class="cls-4" d="M244.78,109.18A66.5,66.5,0,0,1,224.12,113l-.67,0c-2.54,0-4.55.15-6.16.27-6.24.46-6.3,1.33-7,2.21,0,0,.8,12.68-9.17,18.67,0,0-2.34,10.91-6.19,10.85,0,0-3.86.9-3-3.71,0,0,1.42-1.17,2.16-.49a72.18,72.18,0,0,1-1-8.43,4.17,4.17,0,0,1,.13-1.35,16.26,16.26,0,0,1-4.42-12.29,13.21,13.21,0,0,0-3.74-.08c-1.56.24-3,.93-3.06,2.71,0,0-2.77,14.72-4.35,17.3a1,1,0,0,1-.33.37c-1.49.7-4,2-5-1.33,0,0,.09-2.55.78-3.3,0,0-.6-8.41-1.46-11.74a18.56,18.56,0,0,0,1.82-.64c3.07-3-1.44-4.19-1.44-4.19,3.69-2.17-.57-5.9-.57-5.9-.76-1.37-.54-4.78-.33-6.78a10.19,10.19,0,0,1,1.94-.51c.79-.12,17.42-5.36,29.81,1.4,0,0,6.66,2.83,8.53,3.51a7.45,7.45,0,0,0,1.42.28c2,.23,5.86.19,11.22-2.36,0,0,12.05-8.07,19.38-8.22,0,0,11.38-.93,12.53,3.54C256,102.85,257.07,105.88,244.78,109.18Z"/><path class="cls-5" d="M239.29,142.25l-5.36.87c-3.09.5-7.35,1.17-12.34,1.95-5.35.83-11.53,1.77-18,2.72-7.63,1.11-15.68,2.24-23.29,3.22-14.05,1.8-26.6,3.08-32.23,2.8a10.26,10.26,0,0,1-2.46-.35s-.31-.46-.74-1.19c-1.19-2-2.44-6.11-2.12-7.85a1,1,0,0,1,.08-.23s-1.21-4-2.85-8.71c-1.14-3.32-2.43-7-3.52-10.13-1.22-3.47-2.2-6.13-2.44-6.53l1.71-4.72a82.15,82.15,0,0,1,12.67-5.95l.5-.19a2.22,2.22,0,0,0-.26,1c-.6,1.29.84,5.54.84,5.54a.91.91,0,0,1-.69,1.23c-1.8.27-1.54,2.5-1,4.61,1.36-.18,2.94,1.65,2.94,1.65,3.26-1.09,4.25.82,4.55,2.19l.41-.07c3,.67,9.16-.75,9.16-.75a14.54,14.54,0,0,0,6.78-.66c.86,3.33,1.46,11.74,1.46,11.74-.69.75-.78,3.3-.78,3.3,1,3.37,3.51,2,5,1.33a1,1,0,0,0,.33-.37c1.58-2.58,4.35-17.3,4.35-17.3,0-1.78,1.5-2.47,3.06-2.71a13.21,13.21,0,0,1,3.74.08,16.26,16.26,0,0,0,4.42,12.29,4.17,4.17,0,0,0-.13,1.35,72.18,72.18,0,0,0,1,8.43c-.74-.68-2.16.49-2.16.49-.9,4.61,3,3.71,3,3.71,3.85.06,6.19-10.85,6.19-10.85,10-6,9.17-18.67,9.17-18.67.75-.88.81-1.75,7-2.21,2.07,1.63,4.24,3.4,6.37,5.21a91.5,91.5,0,0,1,11.23,11,19.28,19.28,0,0,1,3.06,4.9S239.85,141.68,239.29,142.25Z"/><path class="cls-4" d="M212.84,109.89a7.45,7.45,0,0,1-1.42-.28c-1.87-.68-8.53-3.51-8.53-3.51-12.39-6.76-29-1.52-29.81-1.4a10.19,10.19,0,0,0-1.94.51c.1-.9.19-1.52.19-1.52-3.35-1-8.8,4.21-8.8,4.21a14.7,14.7,0,0,0-9.49,2.24,39.31,39.31,0,0,0-3.24-2.52,102.19,102.19,0,0,1,11.25-3.42,98.17,98.17,0,0,1,13.28-2.3,86,86,0,0,1,30.56,2.18S208.25,106.42,212.84,109.89Z"/><path class="cls-4" d="M173.48,122.08a18.56,18.56,0,0,1-1.82.64,14.54,14.54,0,0,1-6.78.66s-6.18,1.42-9.16.75l-.41.07c-.3-1.37-1.29-3.28-4.55-2.19,0,0-1.58-1.83-2.94-1.65-.59-2.11-.85-4.34,1-4.61a.91.91,0,0,0,.69-1.23s-1.44-4.25-.84-5.54a2.22,2.22,0,0,1,.26-1,1.31,1.31,0,0,1,.62-.56l.3.22a39.31,39.31,0,0,1,3.24,2.52,14.7,14.7,0,0,1,9.49-2.24s5.45-5.22,8.8-4.21c0,0-.09.62-.19,1.52-.21,2-.43,5.41.33,6.78,0,0,4.26,3.73.57,5.9C172,117.89,176.55,119.13,173.48,122.08Z"/><path class="cls-4" d="M147.17,124.71c-2.52-2.34,0-4.08,0-4.08a1.39,1.39,0,0,1,.63-.27c1.36-.18,2.94,1.65,2.94,1.65,3.26-1.09,4.25.82,4.55,2.19a5.64,5.64,0,0,1,.12,1.22C156.22,128.16,147.17,124.71,147.17,124.71Z"/><path class="cls-4" d="M169.51,104.84s-4.35,1.94-4.65,4.15c0,0,4,1.55,4.42,2.29C169.28,111.28,170.12,105.87,169.51,104.84Z"/><path class="cls-4" d="M150.91,111.42s-1.5-2.49-1.61-2.71l.11.22a9.4,9.4,0,0,0,.4,3.3Z"/><path class="cls-6" d="M163.89,116.81a.26.26,0,0,0,.15-.07.32.32,0,0,0,0-.44,3,3,0,0,0-2.11-1.22,3.37,3.37,0,0,0-2.25.73.33.33,0,0,0,0,.45.32.32,0,0,0,.45,0,2.7,2.7,0,0,1,1.78-.58,2.46,2.46,0,0,1,1.67,1A.32.32,0,0,0,163.89,116.81Z"/><path class="cls-6" d="M154.68,116.75a.36.36,0,0,0,.18-.1.31.31,0,0,0,0-.44,2.84,2.84,0,0,0-4,.17.31.31,0,0,0,0,.44.32.32,0,0,0,.45,0,2.2,2.2,0,0,1,3.17-.18A.33.33,0,0,0,154.68,116.75Z"/><path class="cls-6" d="M152.1,119.24a.32.32,0,0,0,.27-.29.33.33,0,0,0-.3-.34,23.1,23.1,0,0,0-6.6.6.32.32,0,0,0-.21.4.33.33,0,0,0,.4.21,23,23,0,0,1,6.37-.58A.08.08,0,0,0,152.1,119.24Z"/><path class="cls-6" d="M145.56,122.41a.3.3,0,0,0,.18-.1c1.69-1.75,6.41-2.08,6.45-2.09a.32.32,0,1,0,0-.63c-.2,0-5,.35-6.87,2.29a.31.31,0,0,0,0,.44A.33.33,0,0,0,145.56,122.41Z"/><path class="cls-6" d="M170,117.15a.32.32,0,0,0,.27-.28.31.31,0,0,0-.28-.35,16.56,16.56,0,0,0-8,1.21.32.32,0,1,0,.26.58,16.13,16.13,0,0,1,7.65-1.16Z"/><path class="cls-6" d="M169.14,119.54a.33.33,0,0,0,.25-.21.32.32,0,0,0-.19-.4,20.1,20.1,0,0,0-6.51-.73.31.31,0,0,0-.3.33.31.31,0,0,0,.33.3,20.12,20.12,0,0,1,6.26.69A.44.44,0,0,0,169.14,119.54Z"/><path class="cls-6" d="M157.31,119.33l1.15-1.37a2.13,2.13,0,0,0-2.3.1Z"/><path class="cls-6" d="M161.12,121.47a7.85,7.85,0,0,0,1.56-.4.33.33,0,0,0,.18-.41.31.31,0,0,0-.41-.18s-2.24.86-3.7.15a2.17,2.17,0,0,1-1.14-1.39l-.26-.87-.33.84s-.7,1.73-1.78,2a1.75,1.75,0,0,1-1.55-.64.31.31,0,1,0-.44.45,2.28,2.28,0,0,0,2.12.81,3.35,3.35,0,0,0,1.92-1.7,2.64,2.64,0,0,0,1.18,1.11A4.61,4.61,0,0,0,161.12,121.47Z"/></svg>