<svg id="Layer_11" data-name="Layer 11" xmlns="http://www.w3.org/2000/svg" xmlns:xlink="http://www.w3.org/1999/xlink" viewBox="0 0 390 256"><defs><style>.cls-1,.cls-3{fill:none;}.cls-2{fill:#ff5e4a;}.cls-3{stroke-linecap:round;stroke-linejoin:round;stroke:url(#New_Pattern_Swatch_5);}</style><pattern id="New_Pattern_Swatch_5" data-name="New Pattern Swatch 5" width="88" height="88" patternTransform="translate(19.32 2.25) scale(0.15)" patternUnits="userSpaceOnUse" viewBox="0 0 88 88"><rect class="cls-1" width="88" height="88"/><rect class="cls-2" width="88" height="88"/></pattern></defs><title>sdfArtboard 1</title><path class="cls-1" d="M162.38,124.29v.24l0,0S162.35,124.47,162.38,124.29Z"/><path class="cls-1" d="M196.66,179.72H182a61.9,61.9,0,0,0,7.94-9c.39-.74.78-1.48,1.18-2.21a10.55,10.55,0,0,0,1.08,2.5A24.41,24.41,0,0,1,196.66,179.72Z"/><path class="cls-1" d="M162.38,104.72v4.92c-.18-1.26-.41-2.54-.71-3.82C161.67,105.82,162,105.4,162.38,104.72Z"/><path class="cls-3" d="M216.31,137.85a27.15,27.15,0,0,1-3.49,3.61,10.67,10.67,0,0,0-.72-1l0-.05a5.5,5.5,0,0,0,.28-.6,1.8,1.8,0,0,0,.08-.21l.42,0A5.26,5.26,0,0,0,216.31,137.85Z"/><path class="cls-3" d="M162.38,124.53v.1l0-.06Z"/><path class="cls-3" d="M216.14,122.53s-1.21.78-3.23,1.82v-9.43c1.5-.68,3.6-1.1,4.81,1.06A4.89,4.89,0,0,1,216.14,122.53Z"/><path class="cls-3" d="M203.9,150.24a49.28,49.28,0,0,0-4.66,5.43,7.14,7.14,0,0,0-3.72-3.73s-3.62-2.62-7.44-.51c0,0-.4,1,2.21,6.54,0,0,1.14.4.6,8.71a6.08,6.08,0,0,0,.27,1.86c-.4.73-.79,1.47-1.18,2.21a61.9,61.9,0,0,1-7.94,9H140.19l2-4.74a73.08,73.08,0,0,0,2.07-12.1c.12,1,.27,2.08.43,3.12,0,0,4.24,11.87,14.75,6.61,0,0,12.37-4.41,11.53-19.83,0,0-.46-3.69-1.49-8.58h33.1l1.15,3.82S203.76,148.9,203.9,150.24Z"/><path class="cls-3" d="M217.27,109.87l-4.36,2.25v-9.58L217,102s2.72-1.13,3.62,2.71C220.66,104.67,221.11,107.61,217.27,109.87Z"/><path class="cls-3" d="M215.22,130.91a4,4,0,0,0-2.31.12v-.36a3.09,3.09,0,0,1,1.57,0A3.19,3.19,0,0,1,215.22,130.91Z"/><path class="cls-3" d="M212,76.28V131.4l-.21.1a5.38,5.38,0,0,0-3,2.7l-.91-1.95-.14-.3h2V76.28Z"/><path class="cls-3" d="M165.55,76.28v54.36a33.5,33.5,0,0,0-2.24-4.57v-23a15,15,0,0,0,1.85-5.1s1-6.47-1.85-9.88V76.28Z"/><path class="cls-3" d="M163.12,103.44v22.32c-.14-.23-.28-.46-.43-.68v-3.81a58.22,58.22,0,0,0,0-8.71V104.2C162.83,104,163,103.71,163.12,103.44Z"/><path class="cls-3" d="M163.12,76.28V87.9a5.7,5.7,0,0,0-.43-.42V76.28Z"/><path class="cls-3" d="M212.6,76.28v54.85l-.43.18v-55Z"/><path class="cls-3" d="M202.51,143.88H169.45l-.09-.38h33Z"/><path class="cls-3" d="M211.5,139.55a.25.25,0,0,1,0,.07l0,.08-.21-.21Z"/><path class="cls-3" d="M212.14,139.61l0,0a5.38,5.38,0,0,1-.24.55l-.31-.35.12-.27A3.29,3.29,0,0,0,212.14,139.61Z"/><polygon class="cls-3" points="212.91 112.09 212.91 112.85 212.6 112.67 212.6 111.91 212.91 112.09"/><path class="cls-3" d="M200.14,136.05a11.46,11.46,0,0,1-2.46-4.1H166.07a85.21,85.21,0,0,1,3.25,11.36h33Zm-12.57,5.62a4,4,0,1,1,4-4A4,4,0,0,1,187.57,141.67Z"/><path class="cls-3" d="M170.15,144.2h-.64l-.06-.32h.15Z"/><polygon class="cls-3" points="169.6 143.88 169.6 143.88 170.15 144.2 171.46 144.2 170.91 143.88 169.6 143.88"/><polygon class="cls-3" points="170.91 143.88 170.91 143.88 171.46 144.2 172.77 144.2 172.23 143.88 170.91 143.88"/><polygon class="cls-3" points="172.23 143.88 172.23 143.88 172.77 144.2 174.08 144.2 173.54 143.88 172.23 143.88"/><polygon class="cls-3" points="174.85 143.88 173.54 143.88 173.54 143.88 174.08 144.2 175.39 144.2 174.85 143.88 174.85 143.88"/><polygon class="cls-3" points="174.85 143.88 175.39 144.2 176.7 144.2 176.16 143.88 174.85 143.88"/><polygon class="cls-3" points="176.16 143.88 176.16 143.88 176.7 144.2 178.02 144.2 177.47 143.88 176.16 143.88"/><polygon class="cls-3" points="177.47 143.88 177.47 143.88 178.02 144.2 179.33 144.2 178.78 143.88 177.47 143.88"/><polygon class="cls-3" points="178.78 143.88 178.78 143.88 179.33 144.2 180.64 144.2 180.1 143.88 178.78 143.88"/><polygon class="cls-3" points="180.1 143.88 180.1 143.88 180.64 144.2 181.95 144.2 181.41 143.88 180.1 143.88"/><polygon class="cls-3" points="181.41 143.88 181.41 143.88 181.95 144.2 183.26 144.2 182.72 143.88 181.41 143.88"/><polygon class="cls-3" points="182.72 143.88 182.72 143.88 183.26 144.2 184.57 144.2 184.03 143.88 182.72 143.88"/><polygon class="cls-3" points="184.03 143.88 184.03 143.88 184.57 144.2 185.89 144.2 185.34 143.88 184.03 143.88"/><polygon class="cls-3" points="185.34 143.88 185.34 143.88 185.89 144.2 187.2 144.2 186.66 143.88 185.34 143.88"/><polygon class="cls-3" points="186.66 143.88 186.66 143.88 187.2 144.2 188.51 144.2 187.97 143.88 186.66 143.88"/><polygon class="cls-3" points="187.97 143.88 187.97 143.88 188.51 144.2 189.82 144.2 189.28 143.88 187.97 143.88"/><polygon class="cls-3" points="189.28 143.88 189.28 143.88 189.82 144.2 191.13 144.2 190.59 143.88 189.28 143.88"/><polygon class="cls-3" points="190.59 143.88 190.59 143.88 191.13 144.2 192.44 144.2 191.9 143.88 190.59 143.88"/><polygon class="cls-3" points="191.9 143.88 191.9 143.88 192.44 144.2 193.76 144.2 193.21 143.88 191.9 143.88"/><polygon class="cls-3" points="193.21 143.88 193.21 143.88 193.76 144.2 195.07 144.2 194.53 143.88 193.21 143.88"/><polygon class="cls-3" points="194.53 143.88 194.53 143.88 195.07 144.2 196.38 144.2 195.84 143.88 194.53 143.88"/><polygon class="cls-3" points="195.84 143.88 195.84 143.88 196.38 144.2 197.69 144.2 197.15 143.88 195.84 143.88"/><path class="cls-3" d="M162.69,123.23v1.85l-.31-.45v-.34q0-.17.06-.45c0-.2.05-.43.08-.71Z"/><polygon class="cls-3" points="197.15 143.88 197.15 143.88 197.69 144.2 199 144.2 198.46 143.88 197.15 143.88"/><path class="cls-3" d="M162.69,122.47v.76l-.17-.1c0-.21,0-.45.08-.71Z"/><polygon class="cls-3" points="198.46 143.88 198.46 143.88 199 144.2 200.31 144.2 199.77 143.88 198.46 143.88"/><path class="cls-3" d="M162.69,121.72v.75l-.09,0q0-.35.06-.72Z"/><polygon class="cls-3" points="199.77 143.88 199.77 143.88 200.31 144.2 201.63 144.2 201.08 143.88 199.77 143.88"/><path class="cls-3" d="M162.69,121.27v.45l0,0Z"/><polygon class="cls-3" points="202.61 144.2 201.63 144.2 201.08 143.88 202.4 143.88 202.54 143.97 202.61 144.2"/><polygon class="cls-3" points="202.54 143.97 202.4 143.88 202.51 143.88 202.54 143.97"/><path class="cls-3" d="M162.69,111.87v.69l-.06-.72Z"/><path class="cls-3" d="M162.69,111.12v.75l-.06,0c0-.27,0-.54-.08-.81Z"/><path class="cls-3" d="M162.69,110.36v.76l-.14-.09-.09-.81Z"/><path class="cls-3" d="M162.69,109.6v.76l-.23-.14c0-.19-.05-.39-.08-.58v-.22Z"/><polygon class="cls-3" points="162.69 108.84 162.69 109.6 162.38 109.42 162.38 108.66 162.69 108.84"/><polygon class="cls-3" points="162.69 108.09 162.69 108.84 162.38 108.66 162.38 107.91 162.69 108.09"/><polygon class="cls-3" points="162.69 107.33 162.69 108.09 162.38 107.91 162.38 107.15 162.69 107.33"/><polygon class="cls-3" points="162.69 106.57 162.69 107.33 162.38 107.15 162.38 106.39 162.69 106.57"/><polygon class="cls-3" points="162.69 105.81 162.69 106.57 162.38 106.39 162.38 105.63 162.69 105.81"/><polygon class="cls-3" points="162.69 105.06 162.69 105.81 162.38 105.63 162.38 104.88 162.69 105.06"/><path class="cls-3" d="M162.69,104.3v.76l-.31-.18v-.16c.08-.14.17-.29.27-.44Z"/><path class="cls-3" d="M162.69,104.2v.1l0,0Z"/><path class="cls-3" d="M212.91,131h0l-.31.1v-.29Z"/><polygon class="cls-3" points="212.91 130.27 212.91 131.03 212.6 130.84 212.6 130.09 212.91 130.27"/><polygon class="cls-3" points="212.91 129.51 212.91 130.27 212.6 130.09 212.6 129.33 212.91 129.51"/><polygon class="cls-3" points="212.91 128.75 212.91 129.51 212.6 129.33 212.6 128.57 212.91 128.75"/><polygon class="cls-3" points="212.91 128 212.91 128.75 212.6 128.57 212.6 127.81 212.91 128"/><polygon class="cls-3" points="212.91 127.24 212.91 128 212.6 127.81 212.6 127.06 212.91 127.24"/><polygon class="cls-3" points="212.91 126.48 212.91 127.24 212.6 127.06 212.6 126.3 212.91 126.48"/><polygon class="cls-3" points="212.91 125.72 212.91 126.48 212.6 126.3 212.6 125.54 212.91 125.72"/><polygon class="cls-3" points="212.91 124.97 212.91 125.72 212.6 125.54 212.6 124.78 212.91 124.97"/><polygon class="cls-3" points="212.91 124.21 212.91 124.97 212.6 124.78 212.6 124.03 212.91 124.21"/><polygon class="cls-3" points="212.91 123.45 212.91 124.21 212.6 124.03 212.6 123.27 212.91 123.45"/><polygon class="cls-3" points="212.91 122.69 212.91 123.45 212.6 123.27 212.6 122.51 212.91 122.69"/><polygon class="cls-3" points="212.91 121.94 212.91 122.69 212.6 122.51 212.6 121.76 212.91 121.94"/><polygon class="cls-3" points="212.91 121.18 212.91 121.94 212.6 121.76 212.6 121 212.91 121.18"/><polygon class="cls-3" points="212.91 120.42 212.91 121.18 212.6 121 212.6 120.24 212.91 120.42"/><polygon class="cls-3" points="212.91 119.67 212.91 120.42 212.6 120.24 212.6 119.48 212.91 119.67"/><polygon class="cls-3" points="212.91 118.91 212.91 119.67 212.6 119.48 212.6 118.73 212.91 118.91"/><polygon class="cls-3" points="212.91 118.15 212.91 118.91 212.6 118.73 212.6 117.97 212.91 118.15"/><polygon class="cls-3" points="212.91 117.39 212.91 118.15 212.6 117.97 212.6 117.21 212.91 117.39"/><polygon class="cls-3" points="212.91 116.64 212.91 117.39 212.6 117.21 212.6 116.45 212.91 116.64"/><path class="cls-3" d="M162.69,86.88v.6a3.88,3.88,0,0,0-.31-.26V86.7Z"/><polygon class="cls-3" points="212.91 115.88 212.91 116.64 212.6 116.45 212.6 115.7 212.91 115.88"/><polygon class="cls-3" points="162.69 86.88 162.69 86.13 162.38 85.94 162.38 86.7 162.69 86.88 162.69 86.88"/><path class="cls-3" d="M212.73,115l-.13.07v-.14Z"/><path class="cls-3" d="M212.91,115.12v.76l-.31-.18v-.62l.13-.07Z"/><polygon class="cls-3" points="162.69 86.13 162.69 85.37 162.69 85.37 162.38 85.19 162.38 85.94 162.69 86.13 162.69 86.13"/><path class="cls-3" d="M212.91,114.36v.56l-.18.09-.13-.07v-.76Z"/><path class="cls-3" d="M212.92,115.12v-.2l-.19.09Z"/><polygon class="cls-3" points="162.69 84.61 162.69 84.61 162.38 84.43 162.38 85.19 162.69 85.37 162.69 84.61"/><polygon class="cls-3" points="212.91 113.61 212.91 114.36 212.6 114.18 212.6 113.43 212.91 113.61"/><polygon class="cls-3" points="212.91 112.85 212.91 113.61 212.6 113.43 212.6 112.67 212.91 112.85"/><polygon class="cls-3" points="162.69 83.85 162.38 83.67 162.38 84.43 162.69 84.61 162.69 83.85"/><polygon class="cls-3" points="162.69 83.85 162.69 83.1 162.38 82.92 162.38 83.67 162.69 83.85 162.69 83.85"/><polygon class="cls-3" points="162.69 83.1 162.69 82.34 162.38 82.16 162.38 82.92 162.69 83.1 162.69 83.1"/><polygon class="cls-3" points="212.91 111.33 212.91 112.09 212.6 111.91 212.6 111.15 212.91 111.33"/><polygon class="cls-3" points="162.69 82.34 162.69 81.58 162.69 81.58 162.38 81.4 162.38 82.16 162.69 82.34 162.69 82.34"/><polygon class="cls-3" points="212.91 110.58 212.91 111.33 212.6 111.15 212.6 110.4 212.91 110.58"/><polygon class="cls-3" points="162.69 80.82 162.69 80.82 162.38 80.64 162.38 81.4 162.69 81.58 162.69 80.82"/><polygon class="cls-3" points="212.91 109.82 212.91 110.58 212.6 110.4 212.6 109.64 212.91 109.82"/><polygon class="cls-3" points="162.69 80.07 162.69 80.07 162.38 79.89 162.38 80.64 162.69 80.82 162.69 80.07"/><polygon class="cls-3" points="212.91 109.06 212.91 109.82 212.6 109.64 212.6 108.88 212.91 109.06"/><polygon class="cls-3" points="162.69 79.31 162.38 79.13 162.38 79.89 162.69 80.07 162.69 79.31"/><polygon class="cls-3" points="212.91 108.31 212.91 109.06 212.6 108.88 212.6 108.12 212.91 108.31"/><polygon class="cls-3" points="162.69 79.31 162.69 78.55 162.38 78.37 162.38 79.13 162.69 79.31 162.69 79.31"/><polygon class="cls-3" points="212.91 107.55 212.91 108.31 212.6 108.12 212.6 107.37 212.91 107.55"/><polygon class="cls-3" points="162.69 78.55 162.69 77.8 162.69 77.8 162.38 77.61 162.38 78.37 162.69 78.55 162.69 78.55"/><polygon class="cls-3" points="212.91 106.79 212.91 107.55 212.6 107.37 212.6 106.61 212.91 106.79"/><polygon class="cls-3" points="162.69 77.04 162.69 77.04 162.38 76.86 162.38 77.61 162.69 77.8 162.69 77.04"/><polygon class="cls-3" points="212.91 106.03 212.91 106.79 212.6 106.61 212.6 105.85 212.91 106.03"/><polygon class="cls-3" points="162.69 76.28 162.69 76.28 162.69 76.28 162.38 76.28 162.38 76.86 162.69 77.04 162.69 76.28"/><polygon class="cls-3" points="212.91 105.28 212.91 106.03 212.6 105.85 212.6 105.1 212.91 105.28"/><polygon class="cls-3" points="162.69 76.28 162.69 76.28 162.69 76.28 162.69 76.28"/><polygon class="cls-3" points="212.91 104.52 212.91 105.28 212.6 105.1 212.6 104.34 212.91 104.52"/><polygon class="cls-3" points="212.91 103.76 212.91 104.52 212.6 104.34 212.6 103.58 212.91 103.76"/><polygon class="cls-3" points="212.91 103 212.91 103.76 212.6 103.58 212.6 102.82 212.91 103"/><polygon class="cls-3" points="212.91 102.25 212.91 103 212.6 102.82 212.6 102.07 212.91 102.25"/><polygon class="cls-3" points="212.91 101.49 212.91 102.25 212.6 102.07 212.6 101.31 212.91 101.49"/><polygon class="cls-3" points="212.91 100.73 212.91 101.49 212.6 101.31 212.6 100.55 212.91 100.73"/><polygon class="cls-3" points="212.91 99.98 212.91 100.73 212.6 100.55 212.6 99.8 212.91 99.98"/><polygon class="cls-3" points="212.91 99.22 212.91 99.98 212.6 99.8 212.6 99.04 212.91 99.22"/><polygon class="cls-3" points="212.91 98.46 212.91 99.22 212.6 99.04 212.6 98.28 212.91 98.46"/><polygon class="cls-3" points="212.91 97.7 212.91 98.46 212.6 98.28 212.6 97.52 212.91 97.7"/><polygon class="cls-3" points="212.91 96.95 212.91 97.7 212.6 97.52 212.6 96.77 212.91 96.95"/><polygon class="cls-3" points="212.91 96.19 212.91 96.95 212.6 96.77 212.6 96.01 212.91 96.19"/><polygon class="cls-3" points="212.91 95.43 212.91 96.19 212.6 96.01 212.6 95.25 212.91 95.43"/><polygon class="cls-3" points="212.91 94.67 212.91 95.43 212.6 95.25 212.6 94.49 212.91 94.67"/><polygon class="cls-3" points="212.91 93.92 212.91 94.67 212.6 94.49 212.6 93.74 212.91 93.92"/><polygon class="cls-3" points="212.91 93.16 212.91 93.92 212.6 93.74 212.6 92.98 212.91 93.16"/><polygon class="cls-3" points="212.91 92.4 212.91 93.16 212.6 92.98 212.6 92.22 212.91 92.4"/><polygon class="cls-3" points="212.91 91.64 212.91 92.4 212.6 92.22 212.6 91.47 212.91 91.64"/><polygon class="cls-3" points="212.91 90.89 212.91 91.64 212.6 91.47 212.6 90.71 212.91 90.89"/><polygon class="cls-3" points="212.91 90.13 212.91 90.89 212.6 90.71 212.6 89.95 212.91 90.13"/><polygon class="cls-3" points="212.91 89.37 212.91 90.13 212.6 89.95 212.6 89.19 212.91 89.37"/><polygon class="cls-3" points="212.91 88.62 212.91 89.37 212.6 89.19 212.6 88.44 212.91 88.62"/><polygon class="cls-3" points="212.91 87.86 212.91 88.62 212.6 88.44 212.6 87.68 212.91 87.86"/><polygon class="cls-3" points="212.91 87.1 212.91 87.86 212.6 87.68 212.6 86.92 212.91 87.1"/><polygon class="cls-3" points="212.91 86.34 212.91 87.1 212.6 86.92 212.6 86.16 212.91 86.34"/><polygon class="cls-3" points="212.91 85.59 212.91 86.34 212.6 86.16 212.6 85.41 212.91 85.59"/><polygon class="cls-3" points="212.91 84.83 212.91 85.59 212.6 85.41 212.6 84.65 212.91 84.83"/><polygon class="cls-3" points="212.91 84.07 212.91 84.83 212.6 84.65 212.6 83.89 212.91 84.07"/><polygon class="cls-3" points="212.91 83.31 212.91 84.07 212.6 83.89 212.6 83.13 212.91 83.31"/><polygon class="cls-3" points="212.91 82.56 212.91 83.31 212.6 83.13 212.6 82.38 212.91 82.56"/><polygon class="cls-3" points="212.91 81.8 212.91 82.56 212.6 82.38 212.6 81.62 212.91 81.8"/><polygon class="cls-3" points="212.91 81.04 212.91 81.8 212.6 81.62 212.6 80.86 212.91 81.04"/><polygon class="cls-3" points="212.91 80.29 212.91 81.04 212.6 80.86 212.6 80.11 212.91 80.29"/><polygon class="cls-3" points="212.91 79.53 212.91 80.29 212.6 80.11 212.6 79.35 212.91 79.53"/><polygon class="cls-3" points="212.91 78.77 212.91 79.53 212.6 79.35 212.6 78.59 212.91 78.77"/><polygon class="cls-3" points="212.91 78.01 212.91 78.77 212.6 78.59 212.6 77.83 212.91 78.01"/><polygon class="cls-3" points="212.91 77.26 212.91 78.01 212.6 77.83 212.6 77.08 212.91 77.26"/><polygon class="cls-3" points="212.91 76.5 212.91 77.26 212.6 77.08 212.6 76.32 212.91 76.5"/><polygon class="cls-3" points="212.91 76.28 212.91 76.5 212.6 76.32 212.6 76.28 212.91 76.28"/><path class="cls-3" d="M212.12,140.41l0,.05-.1-.12Z"/><polygon class="cls-3" points="212 140.34 212.12 140.41 212.12 140.41 212 140.34 212 140.34"/><path class="cls-3" d="M212.4,139.81a5.5,5.5,0,0,1-.28.6l-.12-.07-.12-.14a5.38,5.38,0,0,0,.24-.55Z"/><path class="cls-3" d="M211.88,140.2h0a5.38,5.38,0,0,0,.24-.55h0A5.38,5.38,0,0,1,211.88,140.2Z"/><polygon class="cls-3" points="212.12 139.66 212.12 139.66 212.4 139.81 212.4 139.81 212.12 139.66"/><rect class="cls-3" x="212.12" y="139.65"/><path class="cls-3" d="M212.48,139.6a1.8,1.8,0,0,1-.08.21l-.28-.16,0,0Z"/><path class="cls-3" d="M212.12,139.65h0l0,0h0Z"/><polygon class="cls-3" points="163.31 76.28 163.31 76.63 163.12 76.82 163.12 76.28 163.31 76.28"/><polygon class="cls-3" points="163.31 76.63 163.31 77.5 163.12 77.69 163.12 76.82 163.31 76.63"/><polygon class="cls-3" points="163.31 77.5 163.31 78.37 163.12 78.55 163.12 77.69 163.31 77.5"/><polygon class="cls-3" points="163.31 78.37 163.31 79.23 163.12 79.42 163.12 78.55 163.31 78.37"/><polygon class="cls-3" points="163.31 79.23 163.31 80.1 163.12 80.29 163.12 79.42 163.31 79.23"/><polygon class="cls-3" points="163.31 80.1 163.31 80.97 163.12 81.16 163.12 80.29 163.31 80.1"/><polygon class="cls-3" points="163.31 80.97 163.31 81.84 163.12 82.03 163.12 81.16 163.31 80.97"/><polygon class="cls-3" points="163.31 81.84 163.31 82.71 163.12 82.89 163.12 82.03 163.31 81.84"/><polygon class="cls-3" points="163.31 82.71 163.31 83.58 163.12 83.76 163.12 82.89 163.31 82.71"/><polygon class="cls-3" points="163.31 83.58 163.31 84.44 163.12 84.63 163.12 83.76 163.31 83.58"/><polygon class="cls-3" points="163.31 84.44 163.31 85.31 163.12 85.5 163.12 84.63 163.31 84.44"/><polygon class="cls-3" points="163.31 85.31 163.31 86.18 163.12 86.37 163.12 85.5 163.31 85.31"/><polygon class="cls-3" points="163.31 86.18 163.31 87.05 163.12 87.24 163.12 86.37 163.31 86.18"/><path class="cls-3" d="M163.31,87.05v.87l-.09.09-.1-.11v-.66Z"/><path class="cls-3" d="M163.31,87.92v.2l-.09-.11Z"/><path class="cls-3" d="M163.31,103.1v.45l-.19.19v-.3A3.72,3.72,0,0,0,163.31,103.1Z"/><polygon class="cls-3" points="163.31 103.55 163.31 104.42 163.12 104.6 163.12 103.74 163.31 103.55"/><polygon class="cls-3" points="163.31 104.42 163.31 105.28 163.12 105.47 163.12 104.6 163.31 104.42"/><polygon class="cls-3" points="163.31 105.28 163.31 106.15 163.12 106.34 163.12 105.47 163.31 105.28"/><polygon class="cls-3" points="163.31 106.15 163.31 107.02 163.12 107.21 163.12 106.34 163.31 106.15"/><polygon class="cls-3" points="163.31 107.02 163.31 107.89 163.12 108.08 163.12 107.21 163.31 107.02"/><polygon class="cls-3" points="163.31 107.89 163.31 108.76 163.12 108.94 163.12 108.08 163.31 107.89"/><polygon class="cls-3" points="163.31 108.76 163.31 109.63 163.12 109.81 163.12 108.94 163.31 108.76"/><polygon class="cls-3" points="163.31 109.63 163.31 110.49 163.12 110.68 163.12 109.81 163.31 109.63"/><polygon class="cls-3" points="163.31 110.49 163.31 111.36 163.12 111.55 163.12 110.68 163.31 110.49"/><polygon class="cls-3" points="163.31 111.36 163.31 112.23 163.12 112.42 163.12 111.55 163.31 111.36"/><polygon class="cls-3" points="163.31 112.23 163.31 113.1 163.12 113.29 163.12 112.42 163.31 112.23"/><polygon class="cls-3" points="163.31 113.1 163.31 113.97 163.12 114.16 163.12 113.29 163.31 113.1"/><polygon class="cls-3" points="163.31 113.97 163.31 114.84 163.12 115.02 163.12 114.16 163.31 113.97"/><polygon class="cls-3" points="163.31 114.84 163.31 115.7 163.12 115.89 163.12 115.02 163.31 114.84"/><polygon class="cls-3" points="163.31 115.7 163.31 116.57 163.12 116.76 163.12 115.89 163.31 115.7"/><polygon class="cls-3" points="163.31 116.57 163.31 117.44 163.12 117.63 163.12 116.76 163.31 116.57"/><polygon class="cls-3" points="163.31 117.44 163.31 118.31 163.12 118.5 163.12 117.63 163.31 117.44"/><polygon class="cls-3" points="163.31 118.31 163.31 119.18 163.12 119.37 163.12 118.5 163.31 118.31"/><polygon class="cls-3" points="163.31 119.18 163.31 120.05 163.12 120.23 163.12 119.37 163.31 119.18"/><polygon class="cls-3" points="163.31 120.05 163.31 120.91 163.12 121.1 163.12 120.23 163.31 120.05"/><polygon class="cls-3" points="163.31 120.91 163.31 121.78 163.12 121.97 163.12 121.1 163.31 120.91"/><polygon class="cls-3" points="163.31 121.78 163.31 122.65 163.12 122.84 163.12 121.97 163.31 121.78"/><polygon class="cls-3" points="163.31 122.65 163.31 123.52 163.12 123.71 163.12 122.84 163.31 122.65"/><polygon class="cls-3" points="163.31 123.52 163.31 123.69 163.12 123.86 163.12 123.71 163.31 123.52"/><polygon class="cls-3" points="163.31 123.69 163.31 124.39 163.12 124.58 163.12 123.86 163.31 123.69"/><polygon class="cls-3" points="212.17 76.28 212.17 76.4 211.98 76.59 211.98 76.28 212.17 76.28"/><polygon class="cls-3" points="163.31 124.39 163.31 125.25 163.12 125.44 163.12 124.58 163.31 124.39"/><polygon class="cls-3" points="212.17 76.4 212.17 77.27 211.98 77.46 211.98 76.59 212.17 76.4"/><path class="cls-3" d="M163.31,125.26v.81a3.21,3.21,0,0,0-.19-.31v-.32Z"/><polygon class="cls-3" points="212.17 77.27 212.17 78.14 211.98 78.32 211.98 77.46 212.17 77.27"/><polygon class="cls-3" points="212.17 78.14 212.17 79 211.98 79.19 211.98 78.32 212.17 78.14"/><polygon class="cls-3" points="212.17 79 212.17 79.87 211.98 80.06 211.98 79.19 212.17 79"/><polygon class="cls-3" points="212.17 79.87 212.17 80.74 211.98 80.93 211.98 80.06 212.17 79.87"/><polygon class="cls-3" points="212.17 80.74 212.17 81.61 211.98 81.8 211.98 80.93 212.17 80.74"/><polygon class="cls-3" points="212.17 81.61 212.17 82.48 211.98 82.67 211.98 81.8 212.17 81.61"/><polygon class="cls-3" points="212.17 82.48 212.17 83.35 211.98 83.53 211.98 82.67 212.17 82.48"/><polygon class="cls-3" points="212.17 83.35 212.17 84.21 211.98 84.4 211.98 83.53 212.17 83.35"/><polygon class="cls-3" points="212.17 84.21 212.17 85.08 211.98 85.27 211.98 84.4 212.17 84.21"/><polygon class="cls-3" points="212.17 85.08 212.17 85.95 211.98 86.14 211.98 85.27 212.17 85.08"/><polygon class="cls-3" points="212.17 85.95 212.17 86.82 211.98 87.01 211.98 86.14 212.17 85.95"/><polygon class="cls-3" points="212.17 86.82 212.17 87.69 211.98 87.88 211.98 87.01 212.17 86.82"/><polygon class="cls-3" points="212.17 87.69 212.17 88.56 211.98 88.74 211.98 87.88 212.17 87.69"/><polygon class="cls-3" points="212.17 88.56 212.17 89.42 211.98 89.61 211.98 88.74 212.17 88.56"/><polygon class="cls-3" points="212.17 89.42 212.17 90.29 211.98 90.48 211.98 89.61 212.17 89.42"/><polygon class="cls-3" points="212.17 90.29 212.17 91.16 211.98 91.35 211.98 90.48 212.17 90.29"/><polygon class="cls-3" points="212.17 91.16 212.17 92.03 211.98 92.22 211.98 91.35 212.17 91.16"/><polygon class="cls-3" points="212.17 92.03 212.17 92.9 211.98 93.09 211.98 92.22 212.17 92.03"/><polygon class="cls-3" points="212.17 92.9 212.17 93.77 211.98 93.95 211.98 93.09 212.17 92.9"/><polygon class="cls-3" points="212.17 93.77 212.17 94.64 211.98 94.82 211.98 93.95 212.17 93.77"/><polygon class="cls-3" points="212.17 94.64 212.17 95.5 211.98 95.69 211.98 94.82 212.17 94.64"/><polygon class="cls-3" points="212.17 95.5 212.17 96.37 211.98 96.56 211.98 95.69 212.17 95.5"/><polygon class="cls-3" points="212.17 96.37 212.17 97.24 211.98 97.43 211.98 96.56 212.17 96.37"/><polygon class="cls-3" points="212.17 97.24 212.17 98.11 211.98 98.3 211.98 97.43 212.17 97.24"/><polygon class="cls-3" points="212.17 98.11 212.17 98.98 211.98 99.16 211.98 98.3 212.17 98.11"/><polygon class="cls-3" points="212.17 98.98 212.17 99.84 211.98 100.03 211.98 99.16 212.17 98.98"/><polygon class="cls-3" points="212.17 99.84 212.17 100.71 211.98 100.9 211.98 100.03 212.17 99.84"/><path class="cls-3" d="M169.56,143.32l-.18.18h0a1.16,1.16,0,0,0,0-.18Z"/><polygon class="cls-3" points="212.17 100.71 212.17 101.58 211.98 101.77 211.98 100.9 212.17 100.71"/><path class="cls-3" d="M170.43,143.32h-.87l-.18.18h.86Z"/><polygon class="cls-3" points="212.17 101.58 212.17 102.45 211.98 102.64 211.98 101.77 212.17 101.58"/><polygon class="cls-3" points="171.3 143.32 170.43 143.32 170.24 143.51 171.11 143.51 171.3 143.32"/><polygon class="cls-3" points="212.17 102.45 212.17 102.64 211.98 102.67 211.98 102.64 212.17 102.45"/><polygon class="cls-3" points="171.3 143.32 171.11 143.51 171.98 143.51 172.17 143.32 171.3 143.32"/><polygon class="cls-3" points="212.17 102.64 212.17 103.32 211.98 103.5 211.98 102.67 212.17 102.64"/><polygon class="cls-3" points="173.04 143.32 172.17 143.32 171.98 143.51 172.85 143.51 173.04 143.32"/><polygon class="cls-3" points="212.17 103.32 212.17 104.19 211.98 104.37 211.98 103.5 212.17 103.32"/><polygon class="cls-3" points="173.91 143.32 173.04 143.32 172.85 143.51 173.72 143.51 173.91 143.32"/><polygon class="cls-3" points="212.17 104.19 212.17 105.05 211.98 105.24 211.98 104.37 212.17 104.19"/><polygon class="cls-3" points="212.17 105.05 212.17 105.92 211.98 106.11 211.98 105.24 212.17 105.05"/><polygon class="cls-3" points="173.91 143.32 173.72 143.51 174.59 143.51 174.77 143.32 173.91 143.32"/><polygon class="cls-3" points="175.64 143.32 175.64 143.32 174.77 143.32 174.59 143.51 175.45 143.51 175.64 143.32"/><polygon class="cls-3" points="212.17 105.92 212.17 106.79 211.98 106.98 211.98 106.11 212.17 105.92"/><polygon class="cls-3" points="212.17 106.79 212.17 107.66 211.98 107.85 211.98 106.98 212.17 106.79"/><polygon class="cls-3" points="176.51 143.32 176.51 143.32 175.64 143.32 175.45 143.51 176.32 143.51 176.51 143.32"/><polygon class="cls-3" points="177.38 143.32 176.51 143.32 176.32 143.51 177.19 143.51 177.38 143.32 177.38 143.32"/><polygon class="cls-3" points="212.17 107.66 212.17 108.53 211.98 108.72 211.98 107.85 212.17 107.66"/><polygon class="cls-3" points="178.25 143.32 178.25 143.32 177.38 143.32 177.19 143.51 178.06 143.51 178.25 143.32"/><polygon class="cls-3" points="212.17 108.53 212.17 109.4 211.98 109.58 211.98 108.72 212.17 108.53"/><polygon class="cls-3" points="212.17 109.4 212.17 110.26 211.98 110.45 211.98 109.58 212.17 109.4"/><polygon class="cls-3" points="179.12 143.32 178.25 143.32 178.06 143.51 178.93 143.51 179.12 143.32 179.12 143.32"/><polygon class="cls-3" points="179.98 143.32 179.12 143.32 178.93 143.51 179.79 143.51 179.98 143.32 179.98 143.32"/><polygon class="cls-3" points="212.17 110.26 212.17 111.13 211.98 111.32 211.98 110.45 212.17 110.26"/><polygon class="cls-3" points="180.85 143.32 180.85 143.32 179.98 143.32 179.79 143.51 180.66 143.51 180.85 143.32"/><polygon class="cls-3" points="212.17 111.13 212.17 112 211.98 112.19 211.98 111.32 212.17 111.13"/><polygon class="cls-3" points="212.17 112.5 212.17 112.87 211.98 113.06 211.98 112.6 212.17 112.5"/><polygon class="cls-3" points="212.17 112 212.17 112.5 211.98 112.6 211.98 112.19 212.17 112"/><polygon class="cls-3" points="181.72 143.32 180.85 143.32 180.66 143.51 181.53 143.51 181.72 143.32 181.72 143.32"/><polygon class="cls-3" points="212.17 112.87 212.17 113.74 211.98 113.92 211.98 113.06 212.17 112.87"/><polygon class="cls-3" points="182.59 143.32 181.72 143.32 181.53 143.51 182.4 143.51 182.59 143.32 182.59 143.32"/><polygon class="cls-3" points="212.17 113.74 212.17 114.61 211.98 114.79 211.98 113.92 212.17 113.74"/><polygon class="cls-3" points="183.46 143.32 183.46 143.32 182.59 143.32 182.4 143.51 183.27 143.51 183.46 143.32"/><path class="cls-3" d="M212.17,114.61v.7l-.19.11v-.63Z"/><path class="cls-3" d="M212.17,115.31v.16l-.19.19v-.24Z"/><polygon class="cls-3" points="184.32 143.32 183.46 143.32 183.27 143.51 184.14 143.51 184.32 143.32 184.32 143.32"/><polygon class="cls-3" points="185.19 143.32 184.32 143.32 184.14 143.51 185 143.51 185.19 143.32 185.19 143.32"/><polygon class="cls-3" points="212.17 115.47 212.17 116.34 211.98 116.53 211.98 115.66 212.17 115.47"/><polygon class="cls-3" points="212.17 116.34 212.17 117.21 211.98 117.4 211.98 116.53 212.17 116.34"/><polygon class="cls-3" points="186.06 143.32 186.06 143.32 185.19 143.32 185 143.51 185.87 143.51 186.06 143.32"/><polygon class="cls-3" points="212.17 117.21 212.17 118.08 211.98 118.27 211.98 117.4 212.17 117.21"/><polygon class="cls-3" points="186.06 143.32 185.87 143.51 186.74 143.51 186.93 143.32 186.06 143.32"/><polygon class="cls-3" points="212.17 118.08 212.17 118.95 211.98 119.13 211.98 118.27 212.17 118.08"/><polygon class="cls-3" points="186.93 143.32 186.93 143.32 186.74 143.51 187.61 143.51 187.8 143.32 186.93 143.32"/><polygon class="cls-3" points="188.67 143.32 187.8 143.32 187.8 143.32 187.61 143.51 188.48 143.51 188.67 143.32"/><polygon class="cls-3" points="212.17 118.95 212.17 119.82 211.98 120 211.98 119.13 212.17 118.95"/><polygon class="cls-3" points="212.17 119.82 212.17 120.68 211.98 120.87 211.98 120 212.17 119.82"/><polygon class="cls-3" points="188.67 143.32 188.48 143.51 189.35 143.51 189.53 143.32 188.67 143.32"/><polygon class="cls-3" points="189.53 143.32 189.35 143.51 190.22 143.51 190.4 143.32 189.53 143.32"/><polygon class="cls-3" points="212.17 120.68 212.17 121.55 211.98 121.74 211.98 120.87 212.17 120.68"/><polygon class="cls-3" points="212.17 121.55 212.17 122.42 211.98 122.61 211.98 121.74 212.17 121.55"/><polygon class="cls-3" points="191.27 143.32 190.4 143.32 190.22 143.51 191.08 143.51 191.27 143.32"/><polygon class="cls-3" points="191.27 143.32 191.08 143.51 191.95 143.51 192.14 143.32 191.27 143.32"/><polygon class="cls-3" points="212.17 122.42 212.17 123.29 211.98 123.48 211.98 122.61 212.17 122.42"/><polygon class="cls-3" points="212.17 123.29 212.17 124.16 211.98 124.34 211.98 123.48 212.17 123.29"/><polygon class="cls-3" points="192.14 143.32 191.95 143.51 192.82 143.51 193.01 143.32 192.14 143.32"/><polygon class="cls-3" points="212.17 124.16 212.17 125.03 211.98 125.21 211.98 124.34 212.17 124.16"/><polygon class="cls-3" points="193.88 143.32 193.01 143.32 192.82 143.51 193.69 143.51 193.88 143.32"/><polygon class="cls-3" points="212.17 125.03 212.17 125.89 211.98 126.08 211.98 125.21 212.17 125.03"/><polygon class="cls-3" points="193.88 143.32 193.69 143.51 194.56 143.51 194.75 143.32 193.88 143.32"/><polygon class="cls-3" points="212.17 125.89 212.17 126.76 211.98 126.95 211.98 126.08 212.17 125.89"/><polygon class="cls-3" points="194.75 143.32 194.56 143.51 195.43 143.51 195.61 143.32 194.75 143.32"/><polygon class="cls-3" points="212.17 126.76 212.17 127.63 211.98 127.82 211.98 126.95 212.17 126.76"/><polygon class="cls-3" points="196.48 143.32 195.61 143.32 195.43 143.51 196.29 143.51 196.48 143.32"/><polygon class="cls-3" points="212.17 127.63 212.17 128.5 211.98 128.69 211.98 127.82 212.17 127.63"/><polygon class="cls-3" points="196.48 143.32 196.29 143.51 197.16 143.51 197.35 143.32 196.48 143.32"/><polygon class="cls-3" points="212.17 128.5 212.17 129.37 211.98 129.56 211.98 128.69 212.17 128.5"/><polygon class="cls-3" points="197.35 143.32 197.16 143.51 198.03 143.51 198.22 143.32 197.35 143.32"/><polygon class="cls-3" points="212.17 129.37 212.17 130.24 211.98 130.42 211.98 129.56 212.17 129.37"/><polygon class="cls-3" points="199.09 143.32 198.22 143.32 198.03 143.51 198.9 143.51 199.09 143.32"/><path class="cls-3" d="M212.17,130.23v.61l-.19,0v-.46Z"/><path class="cls-3" d="M212.17,130.84v.26l-.19.19v-.41Z"/><polygon class="cls-3" points="199.09 143.32 198.9 143.51 199.77 143.51 199.95 143.32 199.09 143.32"/><path class="cls-3" d="M212.17,131.1v.21l-.19.09v-.11Z"/><polygon class="cls-3" points="199.95 143.32 199.77 143.51 200.63 143.51 200.82 143.32 199.95 143.32"/><polygon class="cls-3" points="201.69 143.32 200.82 143.32 200.63 143.51 201.5 143.51 201.69 143.32"/><polygon class="cls-3" points="202.39 143.49 202.37 143.51 201.5 143.51 201.69 143.32 202.34 143.32 202.39 143.49"/><polygon class="cls-3" points="202.4 143.51 202.37 143.51 202.39 143.49 202.4 143.51"/><path class="cls-3" d="M169.47,143.32h0Z"/><path class="cls-3" d="M211.53,139.56l-.07.06a.25.25,0,0,0,0-.07Z"/><path class="cls-3" d="M211.69,139.58l-.12.27-.14-.15,0-.08.07-.06Z"/><path class="cls-3" d="M191.49,137.69a3.92,3.92,0,1,0-3.92,3.91A3.92,3.92,0,0,0,191.49,137.69Zm-7.31,0a3.39,3.39,0,1,1,3.39,3.38A3.39,3.39,0,0,1,184.18,137.69Z"/><path class="cls-3" d="M191.55,137.69a4,4,0,1,0-4,4A4,4,0,0,0,191.55,137.69Zm-4,3.94a3.94,3.94,0,1,1,4-3.94A3.94,3.94,0,0,1,187.57,141.63Z"/><path class="cls-3" d="M191.52,137.69a4,4,0,1,0-4,3.94A3.94,3.94,0,0,0,191.52,137.69Zm-4,3.91a3.91,3.91,0,1,1,3.92-3.91A3.92,3.92,0,0,1,187.57,141.6Z"/><ellipse class="cls-3" cx="187.57" cy="137.69" rx="3.33" ry="3.32"/><path class="cls-3" d="M187.57,141.07a3.38,3.38,0,1,0-3.39-3.38A3.38,3.38,0,0,0,187.57,141.07Zm-3.36-3.38a3.36,3.36,0,1,1,3.36,3.35A3.36,3.36,0,0,1,184.21,137.69Z"/><path class="cls-3" d="M187.57,141a3.35,3.35,0,1,0-3.36-3.35A3.36,3.36,0,0,0,187.57,141Zm-3.33-3.35a3.33,3.33,0,1,1,3.33,3.32A3.33,3.33,0,0,1,184.24,137.69Z"/><path class="cls-3" d="M209.67,76.28v55.61h-2l-.4-.87-2.83-3.22-4.41-5s-2.91-1-3.11,4.22a13.32,13.32,0,0,0,.73,4.89H166l-.42-1.09V76.28Z"/><polygon class="cls-3" points="165.58 76.28 165.58 121.64 165.55 121.67 165.55 76.28 165.58 76.28"/><path class="cls-3" d="M209.73,125.85v5.72h0v-5.72Z"/><path class="cls-3" d="M208.74,131.92l-.08,0h-.95v0Z"/><rect class="cls-3" x="209.7" y="76.28" width="0.03" height="26.71"/><polygon class="cls-3" points="209.73 113.76 209.73 116.68 209.7 116.7 209.7 113.78 209.73 113.76"/><path class="cls-3" d="M197.68,132H166.07a0,0,0,0,1,0,0h31.61A0,0,0,0,1,197.68,132Z"/><path class="cls-3" d="M209.73,131.57V132h-1.07l.08,0h1v-.34Z"/><path class="cls-3" d="M165.58,121.64v9.08l0-.08v-9Z"/><path class="cls-3" d="M209.73,116.68v9.17h0V116.7Z"/><polygon class="cls-3" points="209.73 102.98 209.73 113.76 209.7 113.78 209.7 102.99 209.73 102.98"/><polygon class="cls-3" points="209.7 113.78 209.7 116.7 209.67 116.71 209.67 113.79 209.7 113.78"/><path class="cls-3" d="M209.7,125.86v5.72h0v-5.72Z"/><rect class="cls-3" x="209.67" y="76.28" width="0.03" height="26.71"/><polygon class="cls-3" points="165.62 76.28 165.62 121.62 165.58 121.64 165.58 76.28 165.62 76.28"/><path class="cls-3" d="M208.83,131.89l-.09,0h-1l0,0Z"/><path class="cls-3" d="M209.7,131.58v.34h-1l.09,0h.84v-.3Z"/><path class="cls-3" d="M197.67,131.92H166.06l0,0h31.62Z"/><path class="cls-3" d="M165.62,121.62v9.18l0-.08v-9.08Z"/><polygon class="cls-3" points="209.7 102.99 209.7 113.78 209.67 113.79 209.67 102.99 209.7 102.99"/><path class="cls-3" d="M209.7,116.7v9.16h0v-9.16Z"/><path class="cls-3" d="M159.47,172.61C149,177.87,144.72,166,144.72,166c-.16-1-.31-2.08-.43-3.12A133.59,133.59,0,0,1,144,137c.51-7.63,4.92-19.5,4.92-19.5,0-11.36,1.52-13.05,1.52-13.05a30.36,30.36,0,0,0,6-8.38L157.6,87a2.68,2.68,0,0,1,3.08-.64,5.66,5.66,0,0,1,1.7.86,3.88,3.88,0,0,1,.31.26,5.7,5.7,0,0,1,.43.42l.1.11.09.11c2.82,3.41,1.85,9.88,1.85,9.88a15,15,0,0,1-1.85,5.1,3.72,3.72,0,0,1-.19.34c-.14.27-.29.53-.43.76l0,.08c-.1.15-.19.3-.27.44-.42.68-.71,1.1-.71,1.1.3,1.28.53,2.56.71,3.82v.54l.08,0,.09.81c0,.27.06.54.08.81l.06.72v8.71l0,.43q0,.38-.06.72c0,.26,0,.5-.08.71s-.06.51-.08.71,0,.34-.06.45,0,.28,0,.28l0,.06.31.45c.15.22.29.45.43.68a3.21,3.21,0,0,1,.19.31,33.5,33.5,0,0,1,2.24,4.57l0,.08,0,.08.42,1.09,0,0a0,0,0,0,0,0,0,85.21,85.21,0,0,1,3.25,11.36h0a1.16,1.16,0,0,1,0,.18l.09.38.06.32c1,4.89,1.49,8.58,1.49,8.58C171.84,168.2,159.47,172.61,159.47,172.61Z"/><path class="cls-3" d="M162.69,121.27v-8.71A58.22,58.22,0,0,1,162.69,121.27Z"/><path class="cls-3" d="M162.46,110.22l-.08,0v-.54C162.41,109.83,162.43,110,162.46,110.22Z"/><path class="cls-3" d="M217.2,136.62a6,6,0,0,1-.89,1.23,5.26,5.26,0,0,1-3.41,1.71l-.42,0h-.34a3.29,3.29,0,0,1-.45,0l-.16,0h0l-.28-.06,0,0-2.44-5.27a5.38,5.38,0,0,1,3-2.7l.21-.1.19-.09.43-.18.31-.1a4,4,0,0,1,2.31-.12,2.92,2.92,0,0,1,1.75,1.34C218.85,134.14,217.2,136.62,217.2,136.62Z"/><polygon class="cls-3" points="211.85 140.25 211.85 140.25 211.85 140.25 211.85 140.25 211.85 140.25"/><path class="cls-3" d="M248.1,172.54l-5-12.86s-2.11-2.42-4.22-2.11c0,0-3-.71-3.22,1.6,0,0-2.31-7.13-3.92-8,0,0-.3-1.81-6.74-1.2,0,0-.5-4.33-4.22-5,0,0-4-1-5.73.8,0,0-.9.71-1.2-.8a5.1,5.1,0,0,0-1-3.44,10.67,10.67,0,0,0-.72-1l-.1-.12-.12-.14-.31-.35-.14-.15-.21-.21,0,0-2.44-5.27-.91-1.95-.14-.3v0l0,0-.4-.87-2.83-3.22-4.41-5s-2.91-1-3.11,4.22a13.32,13.32,0,0,0,.73,4.89v0a0,0,0,0,1,0,0,11.46,11.46,0,0,0,2.46,4.1l2.2,7.27,0,.17v0l.11.37,0,.09.07.23,1.15,3.82s0,.88.14,2.22a49.28,49.28,0,0,0-4.66,5.43,7.14,7.14,0,0,0-3.72-3.73s-3.62-2.62-7.44-.51c0,0-.4,1,2.21,6.54,0,0,1.14.4.6,8.71a6.08,6.08,0,0,0,.27,1.86,10.55,10.55,0,0,0,1.08,2.5,24.41,24.41,0,0,1,4.42,8.68h53.15A18.07,18.07,0,0,0,248.1,172.54Z"/></svg>