<svg id="Layer_7" data-name="Layer 7" xmlns="http://www.w3.org/2000/svg" xmlns:xlink="http://www.w3.org/1999/xlink" viewBox="0 0 390 256"><defs><style>.cls-1,.cls-3,.cls-5,.cls-6{fill:none;}.cls-2{fill:#ff5e4a;}.cls-3,.cls-5,.cls-6{stroke-miterlimit:10;}.cls-3{stroke:url(#New_Pattern_Swatch_5);}.cls-4{fill:url(#New_Pattern_Swatch_5-11);}.cls-5{stroke:url(#New_Pattern_Swatch_5-23);}.cls-6{stroke:url(#New_Pattern_Swatch_5-31);}</style><pattern id="New_Pattern_Swatch_5" data-name="New Pattern Swatch 5" width="88" height="88" patternTransform="translate(42.03 26.28) scale(0.56)" patternUnits="userSpaceOnUse" viewBox="0 0 88 88"><rect class="cls-1" width="88" height="88"/><rect class="cls-2" width="88" height="88"/></pattern><pattern id="New_Pattern_Swatch_5-11" data-name="New Pattern Swatch 5" width="88" height="88" patternTransform="translate(-7.19 -11.2) scale(0.56)" patternUnits="userSpaceOnUse" viewBox="0 0 88 88"><rect class="cls-1" width="88" height="88"/><rect class="cls-2" width="88" height="88"/></pattern><pattern id="New_Pattern_Swatch_5-23" data-name="New Pattern Swatch 5" width="88" height="88" patternTransform="translate(38.25 -3.87) scale(0.32)" patternUnits="userSpaceOnUse" viewBox="0 0 88 88"><rect class="cls-1" width="88" height="88"/><rect class="cls-2" width="88" height="88"/></pattern><pattern id="New_Pattern_Swatch_5-31" data-name="New Pattern Swatch 5" width="88" height="88" patternTransform="translate(64.1 -3.87) scale(0.32)" patternUnits="userSpaceOnUse" viewBox="0 0 88 88"><rect class="cls-1" width="88" height="88"/><rect class="cls-2" width="88" height="88"/></pattern></defs><title>sszxsArtboard 1</title><path class="cls-3" d="M167.78,134.84v49.75h-1.12v-51C167,134,167.39,134.45,167.78,134.84Z"/><path class="cls-3" d="M223.34,133.63v51h-1.12V134.84C222.6,134.45,223,134,223.34,133.63Z"/><path class="cls-3" d="M195,70.88a37.77,37.77,0,0,0-28.34,62.75c.36.41.73.82,1.12,1.21s.74.75,1.12,1.12a37.74,37.74,0,0,0,52.2,0c.38-.37.76-.74,1.12-1.12s.76-.8,1.12-1.21A37.77,37.77,0,0,0,195,70.88Zm20.12,57.8c-.39.39-.79.76-1.19,1.12s-.88.76-1.33,1.12a28.37,28.37,0,0,1-35.2,0c-.45-.36-.9-.73-1.33-1.12s-.8-.73-1.19-1.12a28.38,28.38,0,1,1,40.24,0Z"/><path class="cls-3" d="M205.11,95.73a3,3,0,0,0-.84-.09h-1.6v2.91h1.62a1.31,1.31,0,0,0,1.48-1.49,1.84,1.84,0,0,0-.19-.86A.89.89,0,0,0,205.11,95.73Z"/><path class="cls-1" d="M195,80.27a28.38,28.38,0,0,0-20.12,48.41c.39.39.78.76,1.19,1.12s.88.76,1.33,1.12a28.37,28.37,0,0,0,35.2,0c.45-.36.9-.73,1.33-1.12s.8-.73,1.19-1.12A28.39,28.39,0,0,0,195,80.27Zm6.84,14.4h2.37a5.5,5.5,0,0,1,1,.07,1.58,1.58,0,0,1,.75.38,1.76,1.76,0,0,1,.52.82,3.08,3.08,0,0,1,.18,1.09,2.74,2.74,0,0,1-.56,1.81,2.16,2.16,0,0,1-1.79.68h-1.61v3.31h-.83Zm-3.48,17.52v-2.06a10.72,10.72,0,0,0,5.25-4.39h1.44v17.51h-2.22V109.61A13.85,13.85,0,0,1,198.36,112.19ZM196,94.67h4.55v1h-3.71v2.49h3.47v1h-3.47v2.76h3.86v1H196Zm-5.86,0h5v1H193v7.19h-.83V95.64h-2.07Zm-1.89,5a6,6,0,0,0-1.51-.6,3.07,3.07,0,0,1-1.53-.84,2.06,2.06,0,0,1-.47-1.4,2.32,2.32,0,0,1,.59-1.62,2.09,2.09,0,0,1,1.61-.64,2.28,2.28,0,0,1,1.69.64A2.56,2.56,0,0,1,189.3,97l-.8.08a1.79,1.79,0,0,0-.43-1.17A1.45,1.45,0,0,0,187,95.5a1.66,1.66,0,0,0-1,.31,1.08,1.08,0,0,0-.4.91,1,1,0,0,0,.31.79A3.61,3.61,0,0,0,187,98a9.45,9.45,0,0,1,1.27.45,2.1,2.1,0,0,1,1.2,2,2.46,2.46,0,0,1-.65,1.75,2.2,2.2,0,0,1-1.68.7,2.48,2.48,0,0,1-2-.77,3.15,3.15,0,0,1-.7-2l.79-.09a1.76,1.76,0,0,0,1.86,1.87,1.63,1.63,0,0,0,1.12-.37,1.27,1.27,0,0,0,.43-1A1.1,1.1,0,0,0,188.25,99.63Zm-4.11,8.31a5,5,0,0,1,4.37-2.2q5.91,0,5.91,8.91c0,3-.51,5.24-1.53,6.7a5,5,0,0,1-4.38,2.19q-5.89,0-5.9-8.89Q182.61,110.15,184.14,107.94Z"/><path class="cls-3" d="M190.52,108.24a3.05,3.05,0,0,0-4.73,1,12.28,12.28,0,0,0-.9,5.45,16.7,16.7,0,0,0,.41,4.13,4.58,4.58,0,0,0,1.21,2.26,2.8,2.8,0,0,0,2,.74,2.91,2.91,0,0,0,2.71-1.67,12,12,0,0,0,.91-5.46,16.79,16.79,0,0,0-.4-4.15A4.63,4.63,0,0,0,190.52,108.24Z"/><path class="cls-4" d="M189.5,100.52a2.46,2.46,0,0,1-.65,1.75,2.2,2.2,0,0,1-1.68.7,2.48,2.48,0,0,1-2-.77,3.15,3.15,0,0,1-.7-2l.79-.09a1.76,1.76,0,0,0,1.86,1.87,1.63,1.63,0,0,0,1.12-.37,1.27,1.27,0,0,0,.43-1,1.1,1.1,0,0,0-.44-1,6,6,0,0,0-1.51-.6,3.07,3.07,0,0,1-1.53-.84,2.06,2.06,0,0,1-.47-1.4,2.32,2.32,0,0,1,.59-1.62,2.09,2.09,0,0,1,1.61-.64,2.28,2.28,0,0,1,1.69.64A2.56,2.56,0,0,1,189.3,97l-.8.08a1.79,1.79,0,0,0-.43-1.17A1.45,1.45,0,0,0,187,95.5a1.66,1.66,0,0,0-1,.31,1.08,1.08,0,0,0-.4.91,1,1,0,0,0,.31.79A3.61,3.61,0,0,0,187,98a9.45,9.45,0,0,1,1.27.45,2.1,2.1,0,0,1,1.2,2Z"/><polygon class="cls-4" points="195.12 94.67 195.12 95.64 193.04 95.64 193.04 102.83 192.21 102.83 192.21 95.64 190.14 95.64 190.14 94.67 195.12 94.67"/><polygon class="cls-4" points="200.7 101.86 200.7 102.83 196 102.83 196 94.67 200.55 94.67 200.55 95.64 196.84 95.64 196.84 98.13 200.31 98.13 200.31 99.1 196.84 99.1 196.84 101.86 200.7 101.86"/><path class="cls-4" d="M206.45,95.94a1.76,1.76,0,0,0-.52-.82,1.58,1.58,0,0,0-.75-.38,5.5,5.5,0,0,0-1-.07h-2.37v8.16h.83V99.52h1.61a2.16,2.16,0,0,0,1.79-.68,2.74,2.74,0,0,0,.56-1.81A3.08,3.08,0,0,0,206.45,95.94Zm-2.16,2.61h-1.62V95.64h1.6a2.84,2.84,0,0,1,.83.09.87.87,0,0,1,.48.47,1.82,1.82,0,0,1,.19.86A1.31,1.31,0,0,1,204.29,98.55Z"/><path class="cls-4" d="M188.51,105.74a5,5,0,0,0-4.37,2.2q-1.53,2.2-1.53,6.71,0,8.89,5.9,8.89a5,5,0,0,0,4.38-2.19c1-1.46,1.53-3.7,1.53-6.7Q194.42,105.74,188.51,105.74Zm2.71,14.38a2.92,2.92,0,0,1-2.71,1.66,2.8,2.8,0,0,1-2-.74,4.58,4.58,0,0,1-1.21-2.26,16.18,16.18,0,0,1-.41-4.13,12.28,12.28,0,0,1,.9-5.45,3.05,3.05,0,0,1,4.73-1,4.63,4.63,0,0,1,1.21,2.26,16.79,16.79,0,0,1,.4,4.15A12.09,12.09,0,0,1,191.22,120.12Z"/><path class="cls-4" d="M205.05,105.74v17.51h-2.22V109.61a13.85,13.85,0,0,1-4.47,2.58v-2.06a10.72,10.72,0,0,0,5.25-4.39Z"/><path class="cls-5" d="M124.06,156.57v28.55h-.64V155.87C123.63,156.11,123.84,156.34,124.06,156.57Z"/><path class="cls-5" d="M156,155.87v29.25h-.64V156.57C155.54,156.34,155.75,156.11,156,155.87Z"/><path class="cls-5" d="M139.69,119.84a21.69,21.69,0,0,0-16.27,36c.21.24.42.47.64.7l.64.64a21.69,21.69,0,0,0,30,0c.22-.21.44-.42.65-.64s.43-.46.64-.7a21.69,21.69,0,0,0-16.27-36ZM151.24,153c-.22.22-.45.44-.68.64s-.51.44-.77.65a16.29,16.29,0,0,1-20.2,0c-.26-.21-.52-.42-.77-.65s-.46-.42-.68-.64a16.29,16.29,0,1,1,23.1,0Z"/><path class="cls-5" d="M139.69,125.24A16.29,16.29,0,0,0,128.14,153c.22.22.45.44.68.64s.51.44.77.65a16.29,16.29,0,0,0,20.2,0c.26-.21.52-.42.77-.65s.46-.42.68-.64a16.3,16.3,0,0,0-11.55-27.79Z"/><path class="cls-6" d="M234.68,156.57v28.55H234V155.87C234.25,156.11,234.46,156.34,234.68,156.57Z"/><path class="cls-6" d="M266.58,155.87v29.25h-.64V156.57C266.16,156.34,266.37,156.11,266.58,155.87Z"/><path class="cls-6" d="M250.31,119.84a21.69,21.69,0,0,0-16.27,36c.21.24.42.47.64.7s.43.43.65.64a21.69,21.69,0,0,0,30,0c.21-.21.43-.42.64-.64s.43-.46.64-.7a21.69,21.69,0,0,0-16.27-36ZM261.86,153c-.22.22-.45.44-.68.64s-.51.44-.77.65a16.29,16.29,0,0,1-20.2,0c-.26-.21-.52-.42-.77-.65s-.46-.42-.68-.64a16.3,16.3,0,1,1,23.1,0Z"/><path class="cls-6" d="M250.31,125.24A16.29,16.29,0,0,0,238.76,153c.22.22.45.44.68.64s.51.44.77.65a16.29,16.29,0,0,0,20.2,0c.26-.21.52-.42.77-.65s.46-.42.68-.64a16.29,16.29,0,0,0-11.55-27.79Z"/></svg>