<svg id="Layer_8" data-name="Layer 8" xmlns="http://www.w3.org/2000/svg" xmlns:xlink="http://www.w3.org/1999/xlink" viewBox="0 0 390 256"><defs><style>.cls-1,.cls-3{fill:none;}.cls-2{fill:#ff5e4a;}.cls-3{stroke-linecap:round;stroke-linejoin:round;stroke:url(#New_Pattern_Swatch_5);}</style><pattern id="New_Pattern_Swatch_5" data-name="New Pattern Swatch 5" width="88" height="88" patternTransform="translate(3.1 5.81) scale(0.23)" patternUnits="userSpaceOnUse" viewBox="0 0 88 88"><rect class="cls-1" width="88" height="88"/><rect class="cls-2" width="88" height="88"/></pattern></defs><title>sssArtboard 1</title><path class="cls-3" d="M207.34,104.58l-17.16.17-2.26-4.23,1.12-.6-1.33.21-.36-.67.09,0c.06,0,0,0-.13,0l-.35-.64.41-.16h0l-.45.07-.24-.44,2-1.06h-2.44l2.44-1.91-2-.56,1.36-.75h-1.1l1.29-2.38-1.5.41,2-2.22-2.07.71,1.88-1H186.9l1.25-1.57-1.25.51,1.76-1.62L187,87.86l.94-1.06-1.6,1.06,1.36-1.21-2.53,1.21.7-.9-.7.25,2-1.92h-.64l1.32-.86-1.83.86,1.41-2-.9.51,1-.91h-.33l1.08-1.55,5.14,6.46.38-.47,10,10.62Z"/><path class="cls-3" d="M187.37,98.57l-.41.16,0-.09Z"/><polygon class="cls-3" points="188.66 89.73 186.69 91.95 188.19 91.54 186.9 93.92 188 93.92 186.64 94.67 188.66 95.23 186.22 97.14 188.66 97.14 186.68 98.2 184.32 93.79 179.46 88.65 188.24 81.32 187.16 82.87 187.49 82.87 186.45 83.78 187.35 83.27 185.94 85.29 187.77 84.43 186.45 85.29 187.09 85.29 185.14 87.21 185.84 86.96 185.14 87.86 187.68 86.65 186.31 87.86 187.91 86.8 186.97 87.86 188.66 86.75 186.9 88.37 188.15 87.86 186.9 89.43 188.47 89.43 186.59 90.44 188.66 89.73"/><path class="cls-3" d="M187.44,99.41l-.09,0,0-.09C187.44,99.38,187.5,99.39,187.44,99.41Z"/><path class="cls-3" d="M187.44,98.55l-.07,0Z"/><polygon class="cls-3" points="189.04 99.92 187.92 100.52 187.71 100.13 189.04 99.92"/><polygon class="cls-3" points="230.79 136.26 226.1 140.27 228.89 135.18 230.79 136.26"/><polygon class="cls-3" points="189.13 149.59 178.5 143.4 170.1 119.14 175.94 119.42 189.13 149.59"/><polygon class="cls-3" points="157.23 118.52 155.67 134.99 148.35 138.65 122.06 109.5 144.88 117.93 157.23 118.52"/><polygon class="cls-3" points="216.16 119.69 203.24 181.9 189.13 149.59 175.94 119.42 182.8 119.74 215.44 119.74 216.16 119.69"/><polygon class="cls-3" points="238.4 117.91 236.38 139.47 230.79 136.26 228.89 135.18 231.54 130.36 238.37 117.92 238.4 117.91"/><polygon class="cls-3" points="238.37 117.92 231.54 130.36 228.89 135.18 226.1 140.27 203.24 181.9 216.16 119.69 228.03 118.74 238.37 117.92"/><path class="cls-3" d="M267.09,110.6l-7,7.6-1.83.88c-.17-1.1-.38-2.13-.63-3.11Z"/><path class="cls-3" d="M242.59,134.42l-6.21,5.05,2-21.56,1.6-.12.46,0C241.69,120.84,242.73,126,242.59,134.42Z"/><polygon class="cls-3" points="178.5 143.4 178.5 143.4 165.66 150.84 164.85 130.4 164.44 120.03 164.4 118.86 168.84 119.08 170.1 119.14 178.5 143.4"/><polygon class="cls-3" points="165.66 150.84 155.67 134.99 155.67 134.99 157.23 118.52 163.88 118.84 164.4 118.86 164.44 120.03 164.85 130.4 165.66 150.84"/><path class="cls-3" d="M240.46,117.75l-.46,0-1.6.12v0l0,.06-10.34.82-11.87,1-.72,0H182.8l-6.86-.33-5.84-.27-1.26-.06-4.45-.22-.51,0-6.65-.32-12.35-.59-22.82-8.43L119,108.37l.93,0,5.85,1.49,19.1,4.86,17.47.84,20.45,1h32.64l23.33-1.85c.14.18.28.38.43.6a5.13,5.13,0,0,1,.32.52c.11.18.22.38.33.59h0c.1.18.19.38.28.58S240.35,117.49,240.46,117.75Z"/><polygon class="cls-3" points="238.4 117.86 238.4 117.91 238.37 117.92 238.4 117.86"/><path class="cls-3" d="M271,108.37l-3.91,2.23L257.66,116a19.56,19.56,0,0,0-.9-2.71h.06l11.69-4.21,2.1-.76Z"/><path class="cls-3" d="M213.93,104.52c-2.25.1-4.39.24-6.39.42l-.2-.36Z"/><path class="cls-3" d="M271,108.15l-.39.14-2.1.76-11.69,4.21h-.06a11.51,11.51,0,0,0-2.47-3.83,7.92,7.92,0,0,0-1.67-1.27,6.27,6.27,0,0,0-1.53-.81c-3.9-1.54-12.8-2.69-23.6-3l37.74-.36Z"/><path class="cls-3" d="M238.77,114.7l-23.33,1.85H182.8l-20.45-1-17.47-.84-19.1-4.86-5.85-1.49-.93-.24,5.83-1.77-.76.91,8,1.21,23.1,3.46,17.72-3.39,2.55-.49,8.85-1.7,6.13-1.17-.25-.46,17.16-.17.2.36c-7.19.63-12.58,1.7-14.67,3a2.21,2.21,0,0,0-.85.8.77.77,0,0,0-.1.38c0,2.63,13.72,4.76,30.64,4.76,5.31,0,10.3-.21,14.65-.57A5.38,5.38,0,0,1,238.77,114.7Z"/><path class="cls-3" d="M190.43,105.21l-6.13,1.17-8.85,1.7-2.55.49L155.18,112,154,108.29l-.65-1.94a10.48,10.48,0,0,1,3.26-1.19,2.5,2.5,0,0,0,.37-.09c1-.34-2-.65-2-.65l-.07-1.47h-2.22l4.79-2.18h-3.89l5.77-3.13-4.59.74A22,22,0,0,1,157,96.9a19,19,0,0,0-2.94,0s2.29-1.07,2.83-1.25l.11,0-.11,0c-.52.1-2.69.41-2.82.42l4.73-2.52h-3.61l3.61-2.83-3-.82,2-1.12h-1.63l1.91-3.5-2.22.6,2.91-3.28-3.05,1,2.77-1.49h-2.32l4.59-2.53-1.84.74,2.6-2.38L159,79.62l1.38-1.57-1.9.88,2-1.79-3.75,1.79,1-1.34-1,.37,2.88-2.83h-.94l2-1.26L158,75.13l2.08-3-1.32.75,1.53-1.34h-.49l1.6-2.29L169,78.8l.55-.69,10,10.54,4.86,5.14,2.36,4.41.24.44,0,.09.35.64,0,.09.36.67.21.39,2.26,4.23Z"/><path class="cls-3" d="M160.77,79.62l-4.59,2.53h2.32l-2.77,1.49,3.05-1-2.91,3.28,2.22-.6-1.91,3.5h1.63l-2,1.12,3,.82-3.61,2.83h3.61l-4.73,2.52c.13,0,2.3-.32,2.82-.42-.54.18-2.83,1.25-2.83,1.25a19,19,0,0,1,2.94,0,22,22,0,0,0-2.23,1.48l4.59-.74-5.77,3.13h3.89L152.67,103h2.22l.07,1.47s3,.31,2,.65a2.5,2.5,0,0,1-.37.09,10.48,10.48,0,0,0-3.26,1.19l.65,1.94,1.22,3.67-23.1-3.46-8-1.21.76-.91,11.35-13.72,25.19-23.39-1.6,2.29h.49l-1.53,1.34,1.32-.75-2.08,3,2.71-1.26-2,1.26h.94L156.79,78l1-.37-1,1.34,3.75-1.79-2,1.79,1.9-.88L159,79.62,161.53,78l-2.6,2.38Z"/><path class="cls-3" d="M156.87,95.65l.11,0Z"/><path class="cls-3" d="M259.87,186.73H243.75c-.93-12.43-2-17.15-2.07-17.63l0-.08v0c-2.94-11.51.12-28.77.87-32.63,0-.69,0-1.36.05-2,.14-8.45-.9-13.58-2.13-16.67q-.17-.39-.33-.75c-.09-.2-.18-.4-.28-.58h0c-.11-.21-.22-.41-.33-.59a5.13,5.13,0,0,0-.32-.52c-.15-.22-.29-.42-.43-.6a5.38,5.38,0,0,0-1.56-1.42c-4.35.36-9.34.57-14.65.57-16.92,0-30.64-2.13-30.64-4.76a.77.77,0,0,1,.1-.38,2.21,2.21,0,0,1,.85-.8c2.09-1.27,7.48-2.34,14.67-3,2-.18,4.14-.32,6.39-.42,2.74-.13,5.64-.19,8.63-.19,1.68,0,3.32,0,4.93.06,10.8.27,19.7,1.42,23.6,3a6.27,6.27,0,0,1,1.53.81,7.92,7.92,0,0,1,1.67,1.27,11.51,11.51,0,0,1,2.47,3.83,19.56,19.56,0,0,1,.9,2.71c.25,1,.46,2,.63,3.11.8,5.24.68,11.8.25,18.86l0,.57-.12.56c-1,4.72-3,18.59-1.16,26C257.5,166.08,258.8,171.67,259.87,186.73Z"/></svg>