<svg id="Layer_6" data-name="Layer 6" xmlns="http://www.w3.org/2000/svg" xmlns:xlink="http://www.w3.org/1999/xlink" viewBox="0 0 390 256"><defs><style>.cls-1,.cls-3{fill:none;}.cls-2{fill:#ff5e4a;}.cls-3{stroke-linecap:round;stroke-linejoin:round;stroke:url(#New_Pattern_Swatch_5);}</style><pattern id="New_Pattern_Swatch_5" data-name="New Pattern Swatch 5" width="88" height="88" patternTransform="translate(48.2 4.65) scale(0.18)" patternUnits="userSpaceOnUse" viewBox="0 0 88 88"><rect class="cls-1" width="88" height="88"/><rect class="cls-2" width="88" height="88"/></pattern></defs><title>sszArtboard 1</title><path class="cls-3" d="M177.27,80.61H167.15l.81-.37A10.18,10.18,0,0,1,177.27,80.61Z"/><path class="cls-3" d="M115.85,104.64a10.19,10.19,0,0,0-4.9,13.51l27.53,58.77h4l-24.67-52.68,37.24-17.44v-16a10.05,10.05,0,0,1,1.44-5.18Zm19.72,2.3a1.06,1.06,0,1,1,.51-1.4A1.06,1.06,0,0,1,135.57,106.94Zm15.07-7.06-9,4.23a1.06,1.06,0,0,1-1.4-.51,1,1,0,0,1,.5-1.4l9-4.23a1,1,0,0,1,.44-.1l.43.09.13.07.23.19.17.26A1,1,0,0,1,150.64,99.88Z"/><path class="cls-3" d="M231.28,85.23a10.18,10.18,0,0,0-8.5-4.62H165.25a10.17,10.17,0,0,0-8.73,5,10.05,10.05,0,0,0-1.44,5.18v86.14h3.67V99.21h70.5v77.71H233V90.78A10.07,10.07,0,0,0,231.28,85.23Zm-49.15,5.83a1.06,1.06,0,0,1,0-2.11,1.06,1.06,0,1,1,0,2.11Zm16.65,0h-10a1.06,1.06,0,0,1-1.05-1A1.06,1.06,0,0,1,188.81,89h10a1,1,0,0,1,.74.31,1.07,1.07,0,0,1,.31.75A1,1,0,0,1,198.78,91.06Z"/><rect class="cls-3" x="158.75" y="99.21" width="70.51" height="77.72"/><polygon class="cls-3" points="155.08 106.8 155.08 176.93 142.51 176.93 117.84 124.24 155.08 106.8"/><circle class="cls-3" cx="135.12" cy="105.99" r="1.06"/><path class="cls-3" d="M141.62,104.11l9-4.23a1,1,0,0,0,.51-1.4h0a1.05,1.05,0,0,0-1.4-.51l-9,4.23a1,1,0,0,0-.5,1.4A1.06,1.06,0,0,0,141.62,104.11Z"/><path class="cls-3" d="M220.51,80.61h-11a10.19,10.19,0,0,1,9.36-.72Z"/><path class="cls-3" d="M273.84,103.45,231.28,85.23A10.07,10.07,0,0,1,233,90.78v15.39l39.42,16.88L249.3,176.92h4.14l25.74-60.13A10.19,10.19,0,0,0,273.84,103.45Zm-25.7-.79a1.06,1.06,0,0,1-1.39.55l-9.49-4.06a1.06,1.06,0,0,1,.83-1.94l9.49,4.06A1.06,1.06,0,0,1,248.14,102.66Z"/><polygon class="cls-3" points="272.37 123.05 249.3 176.93 232.95 176.93 232.95 106.17 272.37 123.05"/><path class="cls-3" d="M237.26,99.15l9.49,4.06a1.06,1.06,0,1,0,.83-1.94l-9.49-4.06a1.06,1.06,0,0,0-.83,1.94Z"/><circle class="cls-3" cx="182.13" cy="90.01" r="1.06"/><path class="cls-3" d="M199.83,90a1,1,0,0,1-1.05,1h-10a1.06,1.06,0,0,1-1.05-1A1.06,1.06,0,0,1,188.81,89h10a1,1,0,0,1,.74.31A1.07,1.07,0,0,1,199.83,90Z"/></svg>