<svg id="Layer_16" data-name="Layer 16" xmlns="http://www.w3.org/2000/svg" xmlns:xlink="http://www.w3.org/1999/xlink" viewBox="0 0 390 256"><defs><style>.cls-1,.cls-3{fill:none;}.cls-2{fill:#ff5e4a;}.cls-3{stroke-linecap:round;stroke-linejoin:round;stroke:url(#New_Pattern_Swatch_5);}</style><pattern id="New_Pattern_Swatch_5" data-name="New Pattern Swatch 5" width="88" height="88" patternTransform="translate(-0.28 23.4) scale(0.4)" patternUnits="userSpaceOnUse" viewBox="0 0 88 88"><rect class="cls-1" width="88" height="88"/><rect class="cls-2" width="88" height="88"/></pattern></defs><title>sssArtboard 1</title><path class="cls-3" d="M226.49,129.71a11.22,11.22,0,0,0-4.5-7.1l-.39-.23a12.85,12.85,0,0,0-3.67-1.32,32.3,32.3,0,0,0,2-3.73l.1-.24c2.38-6.16,2.52-11.2.41-15a9.86,9.86,0,0,0-6.55-4.91,4,4,0,0,0-.5-.06c-.37,0-.74-.05-1.1-.05a13.62,13.62,0,0,0-8.43,3,12.63,12.63,0,0,0-2.8-5.63A10.12,10.12,0,0,0,193.65,91h-.22l-.5,0c-8.19,1.14-11.75,8.73-12.91,14.9a11,11,0,0,0-5.25-1.45,8,8,0,0,0-1.66.16l-.47.11c-9.63,2.93-10,14-8.91,19.49v.07c1.39,6.26,4.36,9.2,7,10.57a40.4,40.4,0,0,0-5.05,7c-2.39,4.31-2.08,7.24-1.32,9,1,3.22,4.08,5.51,5.55,6.44,2.15,1.39,6.45,2.14,12.79,2.22h.06a4.66,4.66,0,0,0,1.29-.17,1.37,1.37,0,0,1,.36,0,4.89,4.89,0,0,1,2.5,1c4.08,3.8,7.75,4.6,10.11,4.6a9.41,9.41,0,0,0,3.06-.49c6.21-1.7,8.3-7.72,8.57-11.25a23.35,23.35,0,0,0,.22-3.11c.33,0,.67.06,1,.06,6.64,0,11.82-6.14,12.79-7.37l.18-.25C226.05,138.05,227.26,133.72,226.49,129.71Z"/><path class="cls-3" d="M193.65,91a10.12,10.12,0,0,1,7.42,3.47,12.63,12.63,0,0,1,2.8,5.63,13.62,13.62,0,0,1,8.43-3c.36,0,.73,0,1.1.05a4,4,0,0,1,.5.06,9.86,9.86,0,0,1,6.55,4.91c2.11,3.77,2,8.81-.41,15l-.1.24a32.3,32.3,0,0,1-2,3.73,12.85,12.85,0,0,1,3.67,1.32l.39.23a11.22,11.22,0,0,1,4.5,7.1c.77,4-.44,8.34-3.59,12.88l-.18.25c-1,1.23-6.15,7.37-12.79,7.37-.34,0-.68,0-1-.06a23.35,23.35,0,0,1-.22,3.11c-.27,3.53-2.36,9.55-8.57,11.25a9.41,9.41,0,0,1-3.06.49c-2.36,0-6-.8-10.11-4.6a4.89,4.89,0,0,0-2.5-1,1.37,1.37,0,0,0-.36,0,4.66,4.66,0,0,1-1.29.17h-.06c-6.34-.08-10.64-.83-12.79-2.22-1.47-.93-4.6-3.22-5.55-6.44-.76-1.76-1.07-4.69,1.32-9a40.4,40.4,0,0,1,5.05-7c-2.68-1.37-5.65-4.31-7-10.57v-.07c-1.13-5.46-.72-16.56,8.91-19.49l.47-.11a8,8,0,0,1,1.66-.16A11,11,0,0,1,180,106c1.16-6.17,4.72-13.76,12.91-14.9l.5,0h.22"/><path class="cls-3" d="M174.1,109.57s6.6-1.34,8,9.67c0,0,.66,10.32-5.36,11.67,0,0-5.94,1.85-8.06-7.67C168.63,123.24,166.3,111.94,174.1,109.57Z"/><path class="cls-3" d="M219.23,126.79s5.84,3.87-.45,12.94c0,0-6.35,8.05-11.77,4.6,0,0-5.69-3-1-11.53C206.05,132.8,211.79,122.8,219.23,126.79Z"/><path class="cls-3" d="M193.62,96s7-.27,5.57,12c0,0-2,11.36-8.42,11.74,0,0-6.48,1-6.19-9.8C184.58,109.93,185.12,97.2,193.62,96Z"/><path class="cls-3" d="M213,102.14s7,1.29,2.37,13.14c0,0-4.87,10.86-11.28,9.81,0,0-6.6-.48-3.54-11.11C200.54,114,204.35,101.44,213,102.14Z"/><path class="cls-3" d="M170.12,144.32s7.43-13.84,20.88-15.9a7.33,7.33,0,0,1,7.27,4.19s6.87,10.78,5.44,20.11c0,0-.32,5.84-5.09,7,0,0-3.38,1.6-8.35-3.09,0,0-3.56-3.11-7.46-2.07,0,0-8.24-.11-10.14-1.43,0,0-3.32-2.07-3.52-4C169.15,149.15,168.09,148,170.12,144.32Z"/></svg>