<svg id="Layer_10" data-name="Layer 10" xmlns="http://www.w3.org/2000/svg" xmlns:xlink="http://www.w3.org/1999/xlink" viewBox="0 0 390 256"><defs><style>.cls-1,.cls-3{fill:none;}.cls-2{fill:#ff5e4a;}.cls-3{stroke-linecap:round;stroke-linejoin:round;stroke:url(#New_Pattern_Swatch_5);}</style><pattern id="New_Pattern_Swatch_5" data-name="New Pattern Swatch 5" width="88" height="88" patternTransform="translate(81.47 79.5) scale(0.28)" patternUnits="userSpaceOnUse" viewBox="0 0 88 88"><rect class="cls-1" width="88" height="88"/><rect class="cls-2" width="88" height="88"/></pattern></defs><title>sdfArtboard 1</title><path class="cls-3" d="M152.79,106.3q-3.22,8-5.25,14h-.82c-.47-1.39-1.81-4.9-4.05-10.55l-6.9-17.11V110.5c0,4.16.13,6.53.38,7.09s.74.71,1.58.81v1.37c-1,0-1.88,0-2.59,0s-1.57,0-2.91,0V118.4a1.47,1.47,0,0,0,.94-.38,2.75,2.75,0,0,0,.57-1.61q.25-3.25.26-7v-13c0-3.15-.07-5.23-.19-6.24a1.79,1.79,0,0,0-.57-1.23,11.52,11.52,0,0,1-1.59-1.75c1.44,0,2.39,0,2.85,0,.72,0,1.75,0,3.11-.14q2.32,6.19,5.37,13.66l5.07,12.48,4.68-11.53q2.47-6.11,5.63-14.61c1.61.09,2.75.14,3.42.14.51,0,1.31,0,2.41,0a11.46,11.46,0,0,0-1.65,2c-.25.47-.38,2.15-.38,5v16.88q0,5.67.38,6.52a1.77,1.77,0,0,0,1.46.76v1.37c-1.1,0-2.18,0-3.23,0-1.48,0-3,0-4.56.1v-1.38h.19c1,0,1.63-.26,1.84-.8s.31-2.82.31-6.85V92Z"/><path class="cls-3" d="M169.15,113.76c1.45.1,3,.15,4.61.15a21.87,21.87,0,0,0,2.77-.15,6.21,6.21,0,0,0,1.2-.28,1.66,1.66,0,0,1-.24.18l2-1.21a14.83,14.83,0,0,0-.18,2l0,.68c-1.13.11-2.22.16-3.27.16l-2.3-.06c-2.55-.06-4.41-.1-5.58-.1-1,0-2.26,0-3.82.07v-.91a2.5,2.5,0,0,0,1.29-.25,2.06,2.06,0,0,0,.44-1.23c.07-.64.11-2.06.11-4.27v-8.43c0-1.37,0-2.5-.09-3.37a6.78,6.78,0,0,0-.21-1.58.84.84,0,0,0-.32-.39,4.41,4.41,0,0,0-1.22-.25V93.49h.41l1.57.06,1.93,0,4.71,0,2.67,0c.89,0,1.79,0,2.72.13a13.89,13.89,0,0,0-.6,2.81l-.09.06c-.8-.73-1.22-1.1-1.25-1.12l.19.15a11.59,11.59,0,0,0-4.24-.68c-1.33,0-2.42,0-3.28.09v8.34c1,.06,1.8.09,2.54.09a15,15,0,0,0,3.92-.25,2.59,2.59,0,0,0,.78-.75h.55v3.22h-.73a2.34,2.34,0,0,0-.7-.56,11,11,0,0,0-3.82-.35c-.83,0-1.68,0-2.54.13Zm8.85-.41-.27.13C178.19,113.1,178.28,113.06,178,113.35Z"/><path class="cls-3" d="M200.83,122.38v1.4a4.7,4.7,0,0,0,.16,1.27,2.9,2.9,0,0,0,.6,1.1,3.36,3.36,0,0,0,1.29.84v.27c-.44-.06-.85-.12-1.22-.19q-3.89-.57-4.77-3.73a20.6,20.6,0,0,1-.67-6.79l-.05-3v-2.08a5.13,5.13,0,0,0-.95-2.15q-1.49-2.43-6-2.43c-1.44,0-2.53,0-3.27,0v3.67c0,3.28,0,5.72.17,7.34.66.15,1.31.26,1.94.34V120h-3.22c-2.33,0-4.18,0-5.55,0v-.08h.22v-1.36a2.28,2.28,0,0,0,1.84-.72q.38-.67.38-5.63V100.48c0-3.12-.13-4.9-.38-5.33a2.38,2.38,0,0,0-1.84-.68V93.34l1.84,0,2.49,0h5.6a24.64,24.64,0,0,1,7.08.87,5.2,5.2,0,0,1,3.69,3.56,5.07,5.07,0,0,1-.89,4.88,12.43,12.43,0,0,1-4.49,3.4v.34a10,10,0,0,1,5.16,3.29,4.58,4.58,0,0,1,.61,1.13,55.29,55.29,0,0,1,.25,5.63C200.84,118.4,200.83,120.36,200.83,122.38ZM186,105.44c.74,0,1.45,0,2.11,0q4.5,0,6.41-1.88a5.93,5.93,0,0,0,1.92-4.4,3.57,3.57,0,0,0-2.25-3.27,10,10,0,0,0-4.63-1.15,28.88,28.88,0,0,0-3.39.22q-.17,2.31-.17,7Z"/><path class="cls-3" d="M220.5,124.08v1a2.89,2.89,0,0,0,.14.94,2.06,2.06,0,0,0,.5.81,2.87,2.87,0,0,0,1.08.62v.19a9.87,9.87,0,0,1-1-.14q-3.25-.42-4-2.74a13.26,13.26,0,0,1-.56-5l0-2.23V116a3.51,3.51,0,0,0-.79-1.59q-1.25-1.78-5-1.79c-1.2,0-2.12,0-2.74,0v2.71c0,2.41.05,4.21.14,5.4.56.11,1.1.2,1.63.25v1.25h-2.7l-4.64,0v-.06h.18v-1a2,2,0,0,0,1.54-.53c.21-.34.32-1.72.32-4.15v-8.59c0-2.3-.11-3.61-.32-3.92a2.12,2.12,0,0,0-1.54-.51v-.83l1.54,0c.86,0,1.56,0,2.09,0H211a23.16,23.16,0,0,1,5.93.65A4.13,4.13,0,0,1,220,106a3.39,3.39,0,0,1-.75,3.59,10.3,10.3,0,0,1-3.76,2.51v.25a8.58,8.58,0,0,1,4.32,2.42,3,3,0,0,1,.51.84,31.54,31.54,0,0,1,.21,4.14C220.51,121.15,220.5,122.59,220.5,124.08ZM208.09,111.6l1.77,0c2.51,0,4.29-.46,5.36-1.38a4.17,4.17,0,0,0,1.61-3.24,2.65,2.65,0,0,0-1.89-2.41,9.24,9.24,0,0,0-3.88-.85,27.42,27.42,0,0,0-2.83.16c-.09,1.14-.14,2.85-.14,5.13Z"/><path class="cls-3" d="M231.43,123.06c-.59,2.12-2.18,3.36-4.77,3.74-.37.08-.78.14-1.22.19v-.27a3.14,3.14,0,0,0,1.29-.84,2.8,2.8,0,0,0,.6-1.09,4.83,4.83,0,0,0,.16-1.28v-1.4l.11-2.46v-2.19a49,49,0,0,0,.17-5.29c0-1,0-2.12-.11-3.33q-2.39-4.31-4.38-7.5a29.33,29.33,0,0,0-3.39-4.64,10,10,0,0,0-1.47-1.4,3.53,3.53,0,0,0-2.13-.56V93.6a46.49,46.49,0,0,1,4.82-.26,4.15,4.15,0,0,1,1.39.79,24.07,24.07,0,0,1,2.77,3.93c1,1.59,2.59,4.5,4.89,8.74l3.55-5.9L238,93.6h2.89v.46a63.51,63.51,0,0,0-5.58,7.6,48.46,48.46,0,0,0-4,6.8,16.81,16.81,0,0,0-.16,3.1c0,2.25.05,4,.16,5.26v.3Z"/><path class="cls-3" d="M120.33,159.78a1.54,1.54,0,0,1-.61.44,6.74,6.74,0,0,1-1.12.43c-.44.13-.91.25-1.42.36s-1,.19-1.45.26-.88.12-1.24.15a2.18,2.18,0,0,1-.76,0,18.76,18.76,0,0,1-8.93-2A14.37,14.37,0,0,1,99,153.49a16.61,16.61,0,0,1-2-8.31,17.07,17.07,0,0,1,2.08-8.31,14.36,14.36,0,0,1,5.8-5.86,18.88,18.88,0,0,1,9.18-2.06,18.32,18.32,0,0,1,7,1.81h2.72a22,22,0,0,0-1,6.8c-2.22-3.58-4-5.58-5.33-6a13.26,13.26,0,0,0-4.1-.64,11.2,11.2,0,0,0-8.8,3.7q-3.3,3.71-3.36,11.25c0,4.13,1.1,7.44,3.28,9.9a10.57,10.57,0,0,0,6.82,3.61,14.75,14.75,0,0,0,2.17.14,12.12,12.12,0,0,0,3.3-.4,3.05,3.05,0,0,0,1.8-1,54,54,0,0,0,4.16-5.28,22.72,22.72,0,0,0,1,6.81h-2.72Z"/><path class="cls-3" d="M143.3,157.92a95.05,95.05,0,0,0,.06-10.63v-4.8c-1.45-.08-3.26-.13-5.44-.15V146l-1.11.75L135,146v-3.63q-3.72,0-5.82.15v5.14c0,.91,0,2,0,3.14.08,1.69.13,2.62.17,2.8a1.12,1.12,0,0,0,.5.57,2.87,2.87,0,0,0,1.39.26h.05v1.1c-1.11-.05-2.16-.08-3.16-.08s-2.63,0-4.55.08v-1.1c1.15,0,1.81-.21,2-.64s.33-2.49.33-6.09V136.55q0-4.87-.33-5.52c-.22-.43-.83-.65-1.84-.68v-1.06c1.37,0,2.67,0,3.89,0,1,0,2,0,3,0v1.1a2.11,2.11,0,0,0-1,.26,1.16,1.16,0,0,0-.44.91c-.07.66-.11,2.31-.11,5v4.19q2.32.12,5.82.15v-3.63l1.45-.71,1.44.71v3.63c2.18,0,4-.05,5.44-.15v-3.59a52.51,52.51,0,0,0-.23-5.33,1.52,1.52,0,0,0-.44-1.1,2,2,0,0,0-1.11-.3v-1.1c1.11,0,2.18,0,3.22,0,1.22,0,2.46,0,3.71,0v1.06a2.5,2.5,0,0,0-1.44.34,1.48,1.48,0,0,0-.44,1.14c0,.55-.06,2.33-.06,5.33v10.21q0,5.7.23,7.73a10,10,0,0,1,.11,2.32c-.08,2.83-1.65,4.59-4.72,5.3-.37.07-.78.14-1.22.19v-.27a3.47,3.47,0,0,0,1.33-.85,3.11,3.11,0,0,0,.69-1.13,4.84,4.84,0,0,0,.27-1.33C143.29,158.87,143.3,158.39,143.3,157.92Zm-2.44-2.42v0H142Z"/><path class="cls-3" d="M173.34,162v1.6a5.31,5.31,0,0,0,.2,1.46,3.29,3.29,0,0,0,.69,1.25,3.74,3.74,0,0,0,1.5,1v.3c-.52-.06-1-.13-1.42-.22-3-.43-4.85-1.84-5.54-4.25a22.78,22.78,0,0,1-.77-7.74l-.07-3.45v-2.38a5.82,5.82,0,0,0-1.09-2.45q-1.74-2.78-7-2.77c-1.68,0-2.94,0-3.8.05v4.18q0,5.61.19,8.37c.78.17,1.53.3,2.26.39v1.94h-3.74c-2.71,0-4.85,0-6.44,0v-.09h.26v-1.55a2.65,2.65,0,0,0,2.12-.82q.45-.78.45-6.43V137c0-3.57-.15-5.59-.45-6.08a2.75,2.75,0,0,0-2.12-.78v-1.29l2.12,0c1.2,0,2.17,0,2.9,0h6.51a29.08,29.08,0,0,1,8.21,1,6,6,0,0,1,4.29,4,5.71,5.71,0,0,1-1,5.57,14.52,14.52,0,0,1-5.22,3.88v.39a11.62,11.62,0,0,1,6,3.75,5.32,5.32,0,0,1,.71,1.3,59.19,59.19,0,0,1,.29,6.41C173.36,157.48,173.34,159.71,173.34,162Zm-17.2-19.33c.86,0,1.68,0,2.45,0,3.48,0,6-.72,7.44-2.14a6.71,6.71,0,0,0,2.22-5,4.07,4.07,0,0,0-2.6-3.74,11.93,11.93,0,0,0-5.39-1.31,32.25,32.25,0,0,0-3.92.26c-.13,1.75-.2,4.4-.2,7.93Z"/><path class="cls-3" d="M180.16,153.82c.11,1.93.19,3,.24,3.2s.3.41.73.63a4.81,4.81,0,0,0,2,.32h.08v1.25c-1.61-.05-3.14-.08-4.59-.08q-2.43,0-6.61.08V158c1.66,0,2.64-.25,2.94-.76s.44-2.81.44-6.93V137.59q0-5.58-.48-6.31c-.32-.49-1.21-.75-2.66-.78v-1.21c2,0,3.87.05,5.64.05,1.51,0,3,0,4.44-.05v1.26a3.39,3.39,0,0,0-1.46.3,1.25,1.25,0,0,0-.64,1,55.89,55.89,0,0,0-.16,5.66v12.7Z"/><path class="cls-3" d="M199.16,139.3a4.17,4.17,0,0,0-1.76-1.48,3.44,3.44,0,0,0-2-.18,5.93,5.93,0,0,0-2.06.82,8.71,8.71,0,0,0-1.87,1.55,9.33,9.33,0,0,0-1.44,2,7.91,7.91,0,0,0-.79,2.21,4.34,4.34,0,0,0,.1,2.13,3.76,3.76,0,0,0,1.23,1.77,5.92,5.92,0,0,0,2.6,1.15q8.33,3.39,9,4.82a8.54,8.54,0,0,1,.8,3.8,11.08,11.08,0,0,1-3,7.81,10.35,10.35,0,0,1-8,3.22,13.78,13.78,0,0,1-3.42-.44,20.69,20.69,0,0,1-3.54-1.23c.15-1.39.25-3.1.28-5.14h.86l1.48,3.24a14.51,14.51,0,0,0,5.14,1.67,6.67,6.67,0,0,0,5.24-2A7.24,7.24,0,0,0,199.8,160a6.64,6.64,0,0,0-.63-3,4.22,4.22,0,0,0-1.74-1.83,40.8,40.8,0,0,0-5.13-1.94A13.46,13.46,0,0,1,186,149a5.79,5.79,0,0,1-1.28-5.73q0-1.58,2.51-4.35a8.79,8.79,0,0,1,6.9-2.78,13.69,13.69,0,0,1,3.6.48,19.8,19.8,0,0,1,3.59,1.42l-.4,4.26h-.51A9.14,9.14,0,0,0,199.16,139.3Z"/><path class="cls-3" d="M211,129.33l7.71-.07,2.06-.57q-.39,3.63-.45,6.54a34.52,34.52,0,0,0-1.72-3.91,1.38,1.38,0,0,0-.94-.29c-1.48-.1-3.16-.15-5-.15h-1.5q-.22,2.76-.22,5.82v10.55q0,3.52-.11,11.61-.88,3.18-4.77,3.74c-.37.08-.78.14-1.22.19v-.26a3.36,3.36,0,0,0,1.29-.84,2.81,2.81,0,0,0,.59-1.1,4.75,4.75,0,0,0,.17-1.27v-1.4c.22-4.89.33-8.49.33-10.78V136.59c0-2-.05-3.93-.16-5.67h-.56v0h-1.44a31.87,31.87,0,0,0-5.38.21,9.78,9.78,0,0,0-2.17,2.44V133c0-.84-.07-2-.22-3.6v-.83l1.67.65c3.36,0,5.93.05,7.71.07a14.5,14.5,0,0,1,.44-1.81q.89-3.18,4.77-3.75c.37-.07.78-.14,1.22-.19v.27a3.36,3.36,0,0,0-1.29.84,2.87,2.87,0,0,0-.59,1.1,4.72,4.72,0,0,0-.17,1.28v2.26Z"/><path class="cls-3" d="M237.93,152.49q-3.3,7.41-5.36,12.93h-.84q-.72-1.9-4.13-9.71l-7-15.75v16.41c0,3.83.13,6,.39,6.53s.75.65,1.61.74v1.26c-1,0-1.91,0-2.64,0s-1.59,0-3,0v-1.26a1.71,1.71,0,0,0,1-.35,2.46,2.46,0,0,0,.58-1.48q.25-3,.26-6.44v-12a51.66,51.66,0,0,0-.2-5.74,1.49,1.49,0,0,0-.58-1.14,11.39,11.39,0,0,1-1.61-1.61l2.9,0c.73,0,1.79,0,3.17-.13q2.38,5.7,5.48,12.58l5.16,11.49,4.78-10.62q2.52-5.62,5.74-13.45c1.64.08,2.8.13,3.49.13.52,0,1.33,0,2.45,0a11.56,11.56,0,0,0-1.68,1.87c-.25.44-.38,2-.38,4.66v15.54q0,5.23.38,6a1.87,1.87,0,0,0,1.49.7v1.26c-1.12,0-2.22,0-3.29,0-1.51,0-3.06,0-4.65.08v-1.26h.19c1,0,1.66-.25,1.88-.74s.32-2.6.32-6.31V139.35Z"/><path class="cls-3" d="M265,152.76H253.83l-1.28,3a14.46,14.46,0,0,0-1.33,3.59.79.79,0,0,0,.22.64,3.24,3.24,0,0,0,1.17.27v1.25h-2.22c-1.34,0-2.56,0-3.67,0v-1.09a2.49,2.49,0,0,0,1.11-.27,2.73,2.73,0,0,0,.84-1.13c.92-1.77,1.86-3.68,2.83-5.75l5.27-11.49q2.16-4.58,2.88-6.66H261l9.77,21.74a18.89,18.89,0,0,0,1.33,2.67,2.46,2.46,0,0,0,.72.66,2.56,2.56,0,0,0,.78.19v1.13l-3.66,0-3.72,0v-1.17a3.37,3.37,0,0,0,1.22-.22.57.57,0,0,0,.33-.5,6.82,6.82,0,0,0-.61-1.74Zm-10.43-1.51h9.76l-4.88-11.12Z"/><path class="cls-3" d="M288.39,135.12a5,5,0,0,0-2.18-1.54,5.12,5.12,0,0,0-2.53-.2,8.69,8.69,0,0,0-2.56.86,10.79,10.79,0,0,0-2.31,1.61A10.3,10.3,0,0,0,277,138a7.3,7.3,0,0,0-1,2.3,3.93,3.93,0,0,0,.12,2.21,4.13,4.13,0,0,0,1.53,1.85,8.2,8.2,0,0,0,3.21,1.19q10.32,3.51,11.1,5a7.65,7.65,0,0,1,1,4,10.57,10.57,0,0,1-3.71,8.12q-3.72,3.34-9.86,3.34a21,21,0,0,1-4.24-.45,30.29,30.29,0,0,1-4.39-1.28,51.49,51.49,0,0,0,.36-5.35h1.06l1.84,3.37a20.56,20.56,0,0,0,6.36,1.74q4.23,0,6.5-2.1a6.86,6.86,0,0,0,2.26-5.27,6,6,0,0,0-.78-3.16,4.73,4.73,0,0,0-2.15-1.9,57.14,57.14,0,0,0-6.36-2,16.89,16.89,0,0,1-7.78-4.27q-2.79-2.86-1.59-5.95,0-1.64,3.11-4.52c2.07-1.93,4.93-2.89,8.55-2.89a19.61,19.61,0,0,1,4.46.5,27.23,27.23,0,0,1,4.45,1.47l-.5,4.43H290A8.43,8.43,0,0,0,288.39,135.12Z"/></svg>