<svg xmlns="http://www.w3.org/2000/svg" viewBox="0 0 213 213"><defs><style>.cls-1{fill:none;stroke:#fe5f50;stroke-miterlimit:10;}</style></defs><title>sszAsset 72</title><g id="Layer_2" data-name="Layer 2"><g id="Layer_1-2" data-name="Layer 1"><circle class="cls-1" cx="106.5" cy="106.5" r="106"/><path class="cls-1" d="M43.69,103.09V137.6a12.07,12.07,0,0,0,12,12h63.41v12.45a7.24,7.24,0,0,1-7.22,7.22H39.68a7.24,7.24,0,0,1-7.23-7.22V50.91a7.24,7.24,0,0,1,7.23-7.22h51V68.17a7.24,7.24,0,0,0,7.22,7.23h21.27V91.05H55.73A12.08,12.08,0,0,0,43.69,103.09Z"/><path class="cls-1" d="M97.87,75.4h21.27v-.32l-28-31.39h-.51V68.17A7.24,7.24,0,0,0,97.87,75.4Z"/><rect class="cls-1" x="43.69" y="91.05" width="136.86" height="58.6" rx="12.04" ry="12.04"/><path class="cls-1" d="M77.73,122H64.27v13.76H60.71v-30h3.56v13.08H77.73V105.71h3.56v30H77.73Z"/><path class="cls-1" d="M87.72,105.71H110v7.85h-3.18v-4.67h-6.21v23.66h4.71v3.17h-13v-3.17h4.72V108.89H90.89v4.67H87.72Z"/><path class="cls-1" d="M133.45,115.79l.43-4.07h-.21l-2.06,3.68-4.37,7.33h-1.07l-4.59-7.37-2-3.64h-.22l.52,4v20h-3.48v-30h3.31l7.11,11.41h.09l6.86-11.41H137v30h-3.56Z"/><path class="cls-1" d="M145.58,105.71h3.56v26.84h12.13v-7.46h3.17v10.63H145.58Z"/></g></g></svg>