<svg xmlns="http://www.w3.org/2000/svg" viewBox="0 0 213 213"><defs><style>.cls-1{fill:none;stroke:#fe5f50;stroke-miterlimit:10;}</style></defs><title>ccAsset 53</title><g id="Layer_2" data-name="Layer 2"><g id="Layer_1-2" data-name="Layer 1"><path class="cls-1" d="M150.51,126.56a5.8,5.8,0,0,0-11.58-.36l-2.36-.71a5.8,5.8,0,1,0-11-3.31l-2.91-.88a5.49,5.49,0,0,0,.2-1.47A5.8,5.8,0,0,0,111.54,118l-2.12-.64s-.25-33.87-.25-34a4.49,4.49,0,0,0-9,0v69.4s-3,6.73-7.23-.5l-2-2.74s-.13-18.38-.13-18.46a4.3,4.3,0,1,0-8.6,0c0,.5.25,24.44.25,24.44l22.69,27.94h40.16s6.73-14.72,4.74-53.88A19,19,0,0,0,150.51,126.56Z"/><path class="cls-1" d="M94.66,85.14a9,9,0,0,1,9-9h2.09a9,9,0,0,1,9,9v9.42a14.07,14.07,0,1,0-20,0Z"/><line class="cls-1" x1="66.52" y1="64.83" x2="87.66" y2="75.31"/><line class="cls-1" x1="123.01" y1="73.44" x2="154.81" y2="57.16"/><line class="cls-1" x1="125.45" y1="79.98" x2="135.73" y2="78.49"/><line class="cls-1" x1="125.07" y1="89.52" x2="150.89" y2="98.31"/><line class="cls-1" x1="98.51" y1="59.97" x2="100.19" y2="65.02"/><line class="cls-1" x1="62.97" y1="105.8" x2="85.98" y2="93.45"/><circle class="cls-1" cx="52.87" cy="57.72" r="9.54"/><circle class="cls-1" cx="95.7" cy="49.12" r="4.86"/><circle class="cls-1" cx="147.33" cy="75.87" r="5.8"/><circle class="cls-1" cx="168.1" cy="51.36" r="7.67"/><circle class="cls-1" cx="165.1" cy="102.62" r="9.35"/><circle class="cls-1" cx="45.95" cy="114.96" r="12.35"/><circle class="cls-1" cx="106.5" cy="106.5" r="106"/></g></g></svg>