<svg xmlns="http://www.w3.org/2000/svg" viewBox="0 0 158.48 165.29"><defs><style>.cls-1{fill:none;stroke:#fe5f50;stroke-miterlimit:10;}</style></defs><title>svgAsset 65</title><g id="Layer_2" data-name="Layer 2"><g id="Layer_1-2" data-name="Layer 1"><circle class="cls-1" cx="76.3" cy="58.63" r="35.67"/><polygon class="cls-1" points="76.3 29.31 84.39 47.28 103.97 49.41 89.38 62.66 93.4 81.94 76.3 72.16 59.2 81.94 63.22 62.66 48.63 49.41 68.21 47.28 76.3 29.31"/><path class="cls-1" d="M75,115.88a4.81,4.81,0,0,0,.93.1,5.33,5.33,0,0,0,1.69-.26"/><path class="cls-1" d="M111,101.34a7.85,7.85,0,0,0,5.58-1.87c4.66-4.59-1.23-16.79,1.48-23.2S133.61,65.59,133.65,59c0-6.79-12.84-11.25-15.35-17.45s3.61-18.38-1.15-23.22c-4.6-4.67-16.8,1.23-23.21-1.48S83.26,1.32,76.71,1.27c-6.8,0-11.26,12.85-17.46,15.36S40.87,13,36,17.78c-4.66,4.6,1.23,16.79-1.48,23.21S19,51.67,19,58.22C18.9,65,31.79,69.48,34.3,75.67s-3.61,18.38,1.15,23.22c1.49,1.51,3.77,1.91,6.38,1.86"/><path class="cls-1" d="M68.59,110.94,53.08,151.77l15.51-40.83c-3.17-3.93-6.18-9-9.93-10.56-2.3-1-5.35-.84-8.52-.48L33.29,144.25,50.14,99.9c-2.81.32-5.72.8-8.31.85L34.48,120.1,22.76,151,47.2,137.77l9.53,26.08L68.45,133,75,115.88C72.63,115.43,70.58,113.41,68.59,110.94Z"/><path class="cls-1" d="M68.59,110.94c2,2.47,4,4.49,6.37,4.94"/><path class="cls-1" d="M50.14,99.9c3.17-.36,6.22-.5,8.52.48,3.75,1.58,6.76,6.63,9.93,10.56"/><path class="cls-1" d="M41.83,100.75c2.59,0,5.5-.53,8.31-.85"/><path class="cls-1" d="M102.68,100.49l16.63,43.76-16.63-43.76c-3.49-.5-6.88-.86-9.33.13-3.48,1.41-6.4,6.08-9.5,9.9l15.67,41.25L83.85,110.52c-2,2.42-4,4.49-6.27,5.2L84.15,133l11.72,30.84,9.53-26.08L129.84,151,118.12,120.1,111,101.34A53.25,53.25,0,0,1,102.68,100.49Z"/><path class="cls-1" d="M102.68,100.49a53.25,53.25,0,0,0,8.31.85"/><path class="cls-1" d="M83.85,110.52c3.1-3.82,6-8.49,9.5-9.9,2.45-1,5.84-.63,9.33-.13"/><path class="cls-1" d="M77.58,115.72c2.28-.71,4.31-2.78,6.27-5.2"/><path class="cls-1" d="M144.39,28.74c-.72,1.39-1.86,1.38-2.55,0l-2.72-5.56a9.78,9.78,0,0,0-3.8-3.8l-5.56-2.72c-1.4-.69-1.41-1.84,0-2.55l5.77-3a10.34,10.34,0,0,0,3.82-3.81l3-5.78c.71-1.38,1.85-1.37,2.54,0l2.73,5.56a9.66,9.66,0,0,0,3.79,3.79l5.56,2.73c1.4.69,1.41,1.83,0,2.54l-5.78,3A10.37,10.37,0,0,0,147.35,23Z"/><path class="cls-1" d="M138.39,121.24c-.72,1.39-1.86,1.38-2.55,0l-.91-1.87a9.78,9.78,0,0,0-3.8-3.8l-1.87-.91c-1.4-.69-1.41-1.84,0-2.55l2-1a10.3,10.3,0,0,0,3.82-3.82l1-2c.72-1.39,1.86-1.38,2.55,0l.91,1.87a9.68,9.68,0,0,0,3.8,3.79l1.87.92c1.4.69,1.41,1.83,0,2.55l-2,1a10.34,10.34,0,0,0-3.82,3.81Z"/><path class="cls-1" d="M13.69,107.94c-.71,1.38-1.86,1.37-2.54,0l-3-6.06a13.41,13.41,0,0,0-3.56-4.19L1.46,95.42a1.91,1.91,0,0,1,0-3.3L4.8,89.68a14,14,0,0,0,3.59-4.19l3.23-6.28c.72-1.39,1.86-1.38,2.55,0l3,6.06a13.3,13.3,0,0,0,3.56,4.19l3.16,2.24a1.92,1.92,0,0,1,0,3.31l-3.36,2.44a14,14,0,0,0-3.59,4.18Z"/></g></g></svg>