<svg xmlns="http://www.w3.org/2000/svg" viewBox="0 0 193.59 184.43"><defs><style>.cls-1{fill:none;}.cls-1,.cls-2{stroke:#fe5f50;stroke-miterlimit:10;}.cls-2{fill:#fe5f50;stroke-width:3px;}</style></defs><title>sszAsset 66</title><g id="Layer_2" data-name="Layer 2"><g id="Layer_1-2" data-name="Layer 1"><path class="cls-1" d="M105.64.5A87.47,87.47,0,0,0,30.58,132.87L1.35,183.1l49-27.4A87.45,87.45,0,1,0,105.64.5Z"/><path class="cls-2" d="M71.83,108.53l3-3.84c2.1,2.4,5,4.32,8,4.32,4.14,0,7-2.4,7-9.3V71.09h5.28V99.83c0,9.18-3.66,14.16-12,14.16A14.86,14.86,0,0,1,71.83,108.53Z"/><path class="cls-2" d="M121.27,71.09l16.2,42.6H132l-3.84-10.38h-19l-3.78,10.38H99.91l16.14-42.6Zm-2.58,6.3h-.12l-7.74,21.36h15.72Z"/></g></g></svg>