<svg xmlns="http://www.w3.org/2000/svg" xmlns:xlink="http://www.w3.org/1999/xlink" viewBox="0 0 281.22 457.25"><defs><style>.cls-1{fill:none;}.cls-2{fill:#fe5f50;}.cls-3{fill:#fff5f3;stroke:url(#New_Pattern_Swatch_6);}.cls-3,.cls-5,.cls-6{stroke-miterlimit:10;}.cls-3,.cls-4,.cls-5,.cls-6{stroke-width:0.5px;}.cls-4{fill:#fff7e0;stroke-linecap:round;stroke-linejoin:round;stroke:url(#New_Pattern_Swatch_6-5);}.cls-5{fill:#ff7373;stroke:url(#New_Pattern_Swatch_6-7);}.cls-6{fill:#fff;stroke:url(#New_Pattern_Swatch_6-9);}.cls-7{opacity:0.9;fill:url(#radial-gradient);}</style><pattern id="New_Pattern_Swatch_6" data-name="New Pattern Swatch 6" width="88" height="88" patternTransform="matrix(-1.12, 0, 0, 1.41, -252.42, -262.62)" patternUnits="userSpaceOnUse" viewBox="0 0 88 88"><rect class="cls-1" width="88" height="88"/><rect class="cls-2" width="88" height="88"/></pattern><pattern id="New_Pattern_Swatch_6-5" data-name="New Pattern Swatch 6" width="88" height="88" patternTransform="translate(-310.93 -353.65) scale(1.34)" patternUnits="userSpaceOnUse" viewBox="0 0 88 88"><rect class="cls-1" width="88" height="88"/><rect class="cls-2" width="88" height="88"/></pattern><pattern id="New_Pattern_Swatch_6-7" data-name="New Pattern Swatch 6" width="88" height="88" patternTransform="matrix(-0.75, 0, 0, 0.75, -204.79, -281.2)" patternUnits="userSpaceOnUse" viewBox="0 0 88 88"><rect class="cls-1" width="88" height="88"/><rect class="cls-2" width="88" height="88"/></pattern><pattern id="New_Pattern_Swatch_6-9" data-name="New Pattern Swatch 6" width="88" height="88" patternTransform="translate(-288.4 -449.52) scale(1.58)" patternUnits="userSpaceOnUse" viewBox="0 0 88 88"><rect class="cls-1" width="88" height="88"/><rect class="cls-2" width="88" height="88"/></pattern><radialGradient id="radial-gradient" cx="52.23" cy="111.58" r="43.67" gradientUnits="userSpaceOnUse"><stop offset="0" stop-color="#ffed68"/><stop offset="1" stop-color="#ffe87c" stop-opacity="0"/></radialGradient></defs><title>aiaiAsset 22</title><g id="Layer_2" data-name="Layer 2"><g id="Layer_1-2" data-name="Layer 1"><polygon class="cls-3" points="267.64 247.36 136.66 424.35 124.77 415.55 255.75 238.56 267.64 247.36"/><polygon class="cls-3" points="249.26 224.59 102.54 60.4 113.57 50.55 260.29 214.73 249.26 224.59"/><circle class="cls-4" cx="256.4" cy="237.04" r="24.57"/><circle class="cls-5" cx="256.4" cy="237.04" r="16.44"/><circle class="cls-6" cx="53.49" cy="110.96" r="28"/><polygon class="cls-4" points="98.9 87.81 47.92 58.82 91.51 0.25 127.92 20.95 98.9 87.81"/><ellipse class="cls-5" cx="136.97" cy="417.38" rx="53.89" ry="17.43"/><rect class="cls-4" x="55.61" y="418.96" width="156.38" height="19.02"/><rect class="cls-4" x="44.51" y="437.98" width="182.26" height="19.02"/><circle class="cls-7" cx="52.23" cy="111.58" r="43.67"/><path class="cls-5" d="M116.36,114.66c0-33.26-28.26-60.23-63.13-60.23A63.88,63.88,0,0,0,.36,81.75l109.08,60.31A57.67,57.67,0,0,0,116.36,114.66Z"/></g></g></svg>