<svg xmlns="http://www.w3.org/2000/svg" xmlns:xlink="http://www.w3.org/1999/xlink" viewBox="0 0 600 263.47"><defs><style>.cls-1,.cls-5,.cls-6{fill:none;}.cls-2{fill:#ff5f51;}.cls-3{fill:#fec051;}.cls-4{fill:url(#New_Pattern_Swatch_1);}.cls-5,.cls-6{stroke-linecap:round;stroke-miterlimit:10;stroke-width:6px;stroke-dasharray:5 15;}.cls-5{stroke:url(#New_Pattern_Swatch_2);}.cls-6{stroke:url(#New_Pattern_Swatch_2-3);}</style><pattern id="New_Pattern_Swatch_1" data-name="New Pattern Swatch 1" width="25" height="25" patternTransform="translate(33 18)" patternUnits="userSpaceOnUse" viewBox="0 0 25 25"><rect class="cls-1" width="25" height="25"/><rect class="cls-2" width="25" height="25"/></pattern><pattern id="New_Pattern_Swatch_2" data-name="New Pattern Swatch 2" width="25" height="25" patternTransform="translate(-9.5 2.5)" patternUnits="userSpaceOnUse" viewBox="0 0 25 25"><rect class="cls-1" width="25" height="25"/><rect class="cls-3" width="25" height="25"/></pattern><pattern id="New_Pattern_Swatch_2-3" data-name="New Pattern Swatch 2" width="25" height="25" patternTransform="matrix(-1, 0, 0, 1, 23.5, 25.5)" patternUnits="userSpaceOnUse" viewBox="0 0 25 25"><rect class="cls-1" width="25" height="25"/><rect class="cls-3" width="25" height="25"/></pattern></defs><title>svAsset 3</title><g id="Layer_2" data-name="Layer 2"><g id="Layer_1-2" data-name="Layer 1"><path class="cls-4" d="M177.35,57.89a5.52,5.52,0,0,1-4.44-2.31,8.54,8.54,0,0,1-1.86-5.53c0-.37,0-.89,0-1.54s0-1.35.1-2.1a25.43,25.43,0,0,1-6.16,7.7,13.27,13.27,0,0,1-8.75,3,9.51,9.51,0,0,1-7.31-2.8q-2.62-2.8-2.63-7.84a29.7,29.7,0,0,1,.84-6.69q.84-3.6,2.1-7.45l2.52-7.74c.84-2.58,1.54-5.14,2.1-7.66a33,33,0,0,0,.84-7.14q0-6.3-3.78-6.3a4.68,4.68,0,0,0-3.22,1.19,9.48,9.48,0,0,0-2.2,3,16.24,16.24,0,0,0-1.3,3.6,14.07,14.07,0,0,0-.42,3.08,10.12,10.12,0,0,0,.28,2.28,21.13,21.13,0,0,0,.63,2.2q-3.36,0-4.79-1.54a5.42,5.42,0,0,1-1.44-3.85A10.31,10.31,0,0,1,139.55,9,15.08,15.08,0,0,1,147,1.79a13.59,13.59,0,0,1,5.6-1.16c2.85,0,4.91.82,6.2,2.45a10.38,10.38,0,0,1,1.92,6.58,29.46,29.46,0,0,1-.63,5.74q-.63,3.15-1.61,6.51c-.65,2.24-1.31,4.41-2,6.51q-1.76,5.67-2.87,9.83a29,29,0,0,0-1.12,7.46,10.25,10.25,0,0,0,1.33,5.42,4.82,4.82,0,0,0,4.48,2.21,8.56,8.56,0,0,0,5.25-1.78,17.13,17.13,0,0,0,4.17-4.62,37.43,37.43,0,0,0,3-6,40.44,40.44,0,0,0,1.89-5.88c.65-2.75,1.38-5.69,2.17-8.82S176.52,20,177.39,17s1.73-5.79,2.62-8.26a36.13,36.13,0,0,1,2.63-5.92c.86-1.47,1.71-2.2,2.55-2.2a4.29,4.29,0,0,1,1.93.73,15.47,15.47,0,0,1,2.55,2,10,10,0,0,0-1.82,2.94q-1.18,2.44-2.66,6.3t-3,8.47q-1.51,4.62-2.73,9.49t-2,9.34a48.1,48.1,0,0,0-.77,8c0,2.89.49,4.81,1.47,5.74s2.68,1.4,5.11,1.4a5.15,5.15,0,0,1-2.59,2.1A8.72,8.72,0,0,1,177.35,57.89Z"/><path class="cls-4" d="M187.43,57.12a6.06,6.06,0,0,1,2-4.37A8.88,8.88,0,0,1,193.73,51a36.86,36.86,0,0,1,5.74-.42,48.21,48.21,0,0,0,2.42-6.41c.77-2.49,1.51-5.16,2.24-8s1.42-5.75,2.1-8.72,1.31-5.83,1.92-8.61,1.19-5.3,1.75-7.59S211,7,211.51,5.53q-3.57.08-6.33.28c-1.85.14-3.59.33-5.22.56s-3.31.51-5,.84a6.92,6.92,0,0,1,4.41-5Q203,.63,210.46.63q3.71,0,7.7.28t7.35.63q3.36.35,5.25.63a10.78,10.78,0,0,1-4.48,2.77,15.27,15.27,0,0,1-3.64.52h-4.09c-1.19,0-2.35,0-3.47.07-.33,1.59-.69,3.52-1.08,5.81s-.84,4.74-1.33,7.35-1,5.23-1.44,7.84-.93,5-1.4,7.31-.89,4.15-1.26,5.64a46.75,46.75,0,0,1-2.17,6.65,13.45,13.45,0,0,1-2.87,4.55q3.71.28,7.49.7t8.33.56A13,13,0,0,1,214,55.19a16.66,16.66,0,0,1-4.13.67q-4.69,0-7.8,0c-2.08,0-3.89.06-5.43.14s-3,.19-4.44.38S189.2,56.84,187.43,57.12Z"/><path class="cls-4" d="M283.26,57.89a5.55,5.55,0,0,1-4.45-2.31A8.58,8.58,0,0,1,277,50.05c0-.37,0-.89,0-1.54s.06-1.35.11-2.1a25.43,25.43,0,0,1-6.16,7.7,13.27,13.27,0,0,1-8.75,3,9.53,9.53,0,0,1-7.32-2.8q-2.62-2.8-2.62-7.84a29.7,29.7,0,0,1,.84-6.69q.84-3.6,2.1-7.45t2.52-7.74c.84-2.58,1.54-5.14,2.1-7.66a33,33,0,0,0,.84-7.14q0-6.3-3.78-6.3a4.68,4.68,0,0,0-3.22,1.19,9.66,9.66,0,0,0-2.21,3,16.72,16.72,0,0,0-1.29,3.6,14.07,14.07,0,0,0-.42,3.08,10.12,10.12,0,0,0,.28,2.28,21.13,21.13,0,0,0,.63,2.2q-3.36,0-4.8-1.54a5.46,5.46,0,0,1-1.43-3.85A10.31,10.31,0,0,1,245.46,9,15,15,0,0,1,253,1.79a13.59,13.59,0,0,1,5.6-1.16q4.27,0,6.19,2.45a10.33,10.33,0,0,1,1.93,6.58A29.46,29.46,0,0,1,266,15.4q-.63,3.15-1.61,6.51c-.65,2.24-1.31,4.41-2,6.51q-1.75,5.67-2.87,9.83a29,29,0,0,0-1.12,7.46,10.25,10.25,0,0,0,1.33,5.42,4.82,4.82,0,0,0,4.48,2.21,8.56,8.56,0,0,0,5.25-1.78,17.1,17.1,0,0,0,4.16-4.62,37.48,37.48,0,0,0,3.05-6,40.44,40.44,0,0,0,1.89-5.88c.65-2.75,1.38-5.69,2.17-8.82S282.43,20,283.29,17s1.74-5.79,2.63-8.26a37.08,37.08,0,0,1,2.62-5.92c.87-1.47,1.72-2.2,2.56-2.2a4.22,4.22,0,0,1,1.92.73,15.1,15.1,0,0,1,2.56,2,10,10,0,0,0-1.82,2.94q-1.18,2.44-2.66,6.3t-3,8.47q-1.5,4.62-2.73,9.49c-.81,3.24-1.48,6.35-2,9.34a48.1,48.1,0,0,0-.77,8c0,2.89.49,4.81,1.47,5.74s2.68,1.4,5.11,1.4a5.15,5.15,0,0,1-2.59,2.1A8.72,8.72,0,0,1,283.26,57.89Z"/><path class="cls-4" d="M296.91,58.8a14.61,14.61,0,0,1,.66-3.36,8.18,8.18,0,0,1,1.19-2.21c.49-.63,1.09-1.31,1.79-2.06q2.31-2.45,4.13-4.41l3.57-3.88c1.17-1.29,2.41-2.72,3.74-4.31s2.89-3.45,4.66-5.6c-.19-1.59-.35-3.12-.49-4.59s-.26-2.86-.35-4.19-.16-2.6-.21-3.79-.09-2.29-.14-3.32q-.21-4.9-.46-8a12.43,12.43,0,0,0-1-4.55,2.75,2.75,0,0,0-2.66-1.47,4.68,4.68,0,0,0-3,1,8.16,8.16,0,0,0-2.1,2.66A15.16,15.16,0,0,0,305,10.22a15.54,15.54,0,0,0-.42,3.5,10.78,10.78,0,0,0,.91,4.48q-3.43,0-4.83-1.54a5.44,5.44,0,0,1-1.4-3.78,9.65,9.65,0,0,1,1.12-4.44,14.9,14.9,0,0,1,3-4,15.68,15.68,0,0,1,4.34-2.94A12.25,12.25,0,0,1,312.87.35a7.69,7.69,0,0,1,5.32,1.75,10.35,10.35,0,0,1,2.9,4.59,26.6,26.6,0,0,1,1.23,6.15q.29,3.33.31,6.55t.18,5.67q5.38-7.27,9.2-13.62T338.35,0a4.62,4.62,0,0,1,1.26,1.5,4.26,4.26,0,0,1,.7,2.21,10.33,10.33,0,0,1-1.37,4.1,65,65,0,0,1-3.74,6.29q-2.38,3.62-5.53,7.78T323,30.38q.21,4.41.7,8.47a59.88,59.88,0,0,0,1.29,7.24,17.29,17.29,0,0,0,2,5A3.32,3.32,0,0,0,329.67,53q2.24,0,5.25-3.89A100.26,100.26,0,0,0,342,38.22l1.54,1.26q-2.86,5.67-5.29,9.45a22.77,22.77,0,0,1-4.86,5.7,8.58,8.58,0,0,1-5.46,1.93,7.17,7.17,0,0,1-5-1.75,12.53,12.53,0,0,1-3.15-4.58A29.74,29.74,0,0,1,318,44.06c-.39-2.21-.71-4.37-.94-6.47Q313,42.42,309,46.73t-7.18,7.48A63.68,63.68,0,0,1,296.91,58.8Z"/><path class="cls-4" d="M280.81,157.05a10.23,10.23,0,0,1-1.82-.21,8.52,8.52,0,0,1-2.28-.8,4.88,4.88,0,0,1-1.92-1.86,6.33,6.33,0,0,1-.77-3.36,20,20,0,0,1,.7-4.59c.46-1.89,1.26-4.65,2.38-8.29.84-2.75,9.67-23.47,10.48-26.15a32.5,32.5,0,0,0,1.42-8.88c0-1.64.08-.65,0-5a13.93,13.93,0,0,0-3.23-8.53c-2.21-2.78-6.77-6.47-8.62-7-1.08-.32-4.45-.94-6.94.91a15.06,15.06,0,0,0-4.1,4.42A12.56,12.56,0,0,0,264.85,91a16.14,16.14,0,0,0-.42,3.64,11.06,11.06,0,0,0,1.05,5.11q-3.44,0-5-1.61a5.52,5.52,0,0,1-1.54-4,10.19,10.19,0,0,1,1-4.34,14.49,14.49,0,0,1,2.9-4.09,58.65,58.65,0,0,1,6.31-5c2.77-1.8,5.77-1.8,9.25-1.15a14.58,14.58,0,0,1,8.15,4.9c2.78,3.18,3.37,4.45,6.09,9.6a20.38,20.38,0,0,1,2.49,9.94,41.25,41.25,0,0,1-1.3,10c-.86,3.48-8,17.27-9.25,21.38q-.71,2.24-1.65,4.94c-.63,1.79-1.19,3.64-1.68,5.52a22.45,22.45,0,0,0-.73,5.64,3.91,3.91,0,0,0,.31,1.86,1.34,1.34,0,0,0,1.23.52,6.81,6.81,0,0,0,4-1.61,24.24,24.24,0,0,0,4.31-4.34,55.34,55.34,0,0,0,4.16-6.09q2-3.36,3.68-6.9a69.63,69.63,0,0,0,2.8-6.71,31.84,31.84,0,0,0,1.47-5.57,5.59,5.59,0,0,1,4.13,1.47,4.13,4.13,0,0,1,1.47,2.8,8.38,8.38,0,0,1-.6,2.38c-.39,1.12-1.06,2.78-2,5q-1.12,2.65-2.31,5.64a55.77,55.77,0,0,0-2,5.87,20.69,20.69,0,0,0-.8,5.43,4.14,4.14,0,0,0,.38,2,1.56,1.56,0,0,0,1.44.63,7.86,7.86,0,0,0,4.51-1.93,31.34,31.34,0,0,0,5.29-5.25,69.73,69.73,0,0,0,5.32-7.49,83.49,83.49,0,0,0,4.69-8.64,57.33,57.33,0,0,0,3.32-8.82,29.22,29.22,0,0,0,1.23-7.91q0-3.85-1.37-5.46a7.68,7.68,0,0,0-3.39-2.31,9.67,9.67,0,0,1,2.69-3,4.81,4.81,0,0,1,2.56-.94c1.07,0,2.18.69,3.32,2.06s1.72,3.54,1.72,6.48a30.39,30.39,0,0,1-1.44,8.54,67.91,67.91,0,0,1-3.92,10,89.12,89.12,0,0,1-5.67,10.16,69.18,69.18,0,0,1-6.79,8.92,37.1,37.1,0,0,1-7.24,6.34,12.92,12.92,0,0,1-6.93,2.34,7.05,7.05,0,0,1-3.26-.74,5.34,5.34,0,0,1-2.24-2.1,6.21,6.21,0,0,1-.8-3.18,7.8,7.8,0,0,1,.21-1.75c.14-.61.3-1.21.49-1.82a39.21,39.21,0,0,1-6.9,7A11.42,11.42,0,0,1,280.81,157.05Z"/><path class="cls-4" d="M344.37,157.05a16.46,16.46,0,0,1-7.84-1.78,13.41,13.41,0,0,1-5.22-4.77,12.27,12.27,0,0,1-1.85-6.61,14.91,14.91,0,0,1,1.33-6.09,18.57,18.57,0,0,1,3.74-5.5,22.43,22.43,0,0,1,5.67-4.19,21.64,21.64,0,0,1,7.11-2.28,15.12,15.12,0,0,1-3.78-5,13.24,13.24,0,0,1-1.26-5.6,14.22,14.22,0,0,1,1.89-7.07,14.85,14.85,0,0,1,13.3-7.56,9.59,9.59,0,0,1,6.58,2.06,7.63,7.63,0,0,1,2.31,6,14.1,14.1,0,0,1-1,5.21,13.64,13.64,0,0,1-2.35,4,3.75,3.75,0,0,1-2.69,1.54,2.6,2.6,0,0,1-1.86-.88,9,9,0,0,1-1.5-2,25.57,25.57,0,0,0,4.37-4.48,8.1,8.1,0,0,0,1.79-4.9,3.81,3.81,0,0,0-1.4-3.19,5.81,5.81,0,0,0-3.64-1.08,7.64,7.64,0,0,0-5.29,1.92,12.13,12.13,0,0,0-3.22,4.91,17.77,17.77,0,0,0-1.08,6.12,17.38,17.38,0,0,0,1.12,6.06,11.69,11.69,0,0,0,4.06,5.28A20,20,0,0,0,339.19,137a14.16,14.16,0,0,0-2,7.07,12.51,12.51,0,0,0,.87,4.41,9,9,0,0,0,2.87,3.89,8.42,8.42,0,0,0,5.36,1.57,15.06,15.06,0,0,0,7.56-2.13,27.69,27.69,0,0,0,6.82-5.64,32.1,32.1,0,0,0,5-7.42l1.89,1.19a44.38,44.38,0,0,1-6.09,8.72,28.72,28.72,0,0,1-7.77,6.16A19.57,19.57,0,0,1,344.37,157.05Z"/><path class="cls-4" d="M378.6,157.05q-4.28,0-6.44-1.4a5.2,5.2,0,0,1-2.24-4.62c0-.47.25-.7.77-.7a9.61,9.61,0,0,1,1.92.31,24.1,24.1,0,0,0,4.94.32,47,47,0,0,0,11.34-1.29,35.34,35.34,0,0,0,9-3.5,19.71,19.71,0,0,0,5.92-5,9.44,9.44,0,0,0,2.1-5.78,5.92,5.92,0,0,0-1.65-4.38,10.7,10.7,0,0,0-4.34-2.51,26.41,26.41,0,0,0-5.88-1.16q-3.18-.28-6.26-.28c-.89,0-1.78,0-2.66,0l-2.52,0q-1.54,5.33-3,11t-3.08,11.13a6,6,0,0,1-3.64-1.12,3.3,3.3,0,0,1-1.54-2.73,7.41,7.41,0,0,1,.24-1.64,23.7,23.7,0,0,1,.74-2.42c.28-.89.75-2.36,1.43-4.41s1.48-4.48,2.42-7.28,2-5.75,3.11-8.85,2.33-6.15,3.57-9.14,2.46-5.67,3.68-8a23.36,23.36,0,0,0-4.62,1.47,30.38,30.38,0,0,0-2.87,1.47,3.59,3.59,0,0,1-1.61.63,2,2,0,0,1-1.09-.49,7,7,0,0,1-1.19-1.12,1.84,1.84,0,0,1-.52-1.12,79.5,79.5,0,0,1,7.84-2.73,35.25,35.25,0,0,1,9.8-1.19,45.1,45.1,0,0,1,5.53.38,21.93,21.93,0,0,1,5.74,1.54,11.14,11.14,0,0,1,4.51,3.44,9.51,9.51,0,0,1,1.79,6,10.18,10.18,0,0,1-1.3,5.22,12.4,12.4,0,0,1-3.46,3.77,20.84,20.84,0,0,1-4.76,2.59,41.45,41.45,0,0,1-5.11,1.65,28.26,28.26,0,0,1,7.24,1.78,15.54,15.54,0,0,1,4.62,2.84,10.12,10.12,0,0,1,2.45,3.32,8.49,8.49,0,0,1,.74,3.33,13.23,13.23,0,0,1-2.17,7.42,21.19,21.19,0,0,1-5.71,5.74,37.26,37.26,0,0,1-7.77,4.09,50.37,50.37,0,0,1-8.43,2.49A38.93,38.93,0,0,1,378.6,157.05Zm4.69-32.55a46.94,46.94,0,0,0,7.7-.91,27.47,27.47,0,0,0,6.82-2.28,13.42,13.42,0,0,0,4.87-3.92,9.65,9.65,0,0,0,1.82-6,7,7,0,0,0-1.82-5.18,9.84,9.84,0,0,0-4.76-2.52,27,27,0,0,0-6.3-.7h-.28A85.5,85.5,0,0,0,387,113.2Q385,118.69,383.29,124.5Z"/><path class="cls-4" d="M434.6,141a4.36,4.36,0,0,1,2-2.45,10.67,10.67,0,0,1,3.29-1.33,22.59,22.59,0,0,1,3.43-.53c1.07-.07,1.89-.1,2.45-.1s1.61,0,3,.07l4.55.14,4.55.14c1.4,0,2.4.09,3,.14a5.72,5.72,0,0,1-3.19,2.69,13.13,13.13,0,0,1-5.35,1.09q-1.47,0-3.78-.21c-1.54-.14-3.2-.21-5-.21-1.17,0-2.38,0-3.64.1s-2.37.16-3.33.25S435,141,434.6,141Z"/><path class="cls-4" d="M149.56,257.05a15.8,15.8,0,0,1-4.65-.67,7.36,7.36,0,0,1-3.82-2.83,44.77,44.77,0,0,1,1-4.9c.53-2.15,1.2-4.58,2-7.32s1.63-5.54,2.52-8.43,1.76-5.66,2.63-8.3,1.63-4.94,2.31-6.93,1.17-3.41,1.5-4.3c.14-.37.37-.93.7-1.68a16.63,16.63,0,0,1,1.26-2.31,8.24,8.24,0,0,1,1.79-2,3.49,3.49,0,0,1,2.2-.8,5,5,0,0,1,2.66,1q-2.17,4.91-4.37,10.89t-4.2,12.31q-2,6.35-3.64,12.32t-2.7,11a6.17,6.17,0,0,0,1.58.31,18.55,18.55,0,0,0,1.92.11,18.18,18.18,0,0,0,8.68-2.21,29.39,29.39,0,0,0,7.6-5.87,42.94,42.94,0,0,0,6.05-8.26,43.8,43.8,0,0,0,4-9.42,33.3,33.3,0,0,0,1.4-9.24,19.26,19.26,0,0,0-1.92-9.21,11.94,11.94,0,0,0-5.29-5.17,17.26,17.26,0,0,0-7.7-1.65,19.64,19.64,0,0,0-8.19,1.65c-2.43,1.09-16.33,6.59-17.7,8.47a10.86,10.86,0,0,0-1.93,8.12v0a1.29,1.29,0,0,1-1.47,1.53,4.37,4.37,0,0,1-2.34-1.13,4.29,4.29,0,0,1-1.3-3.18,8.61,8.61,0,0,1,1.79-5,18.66,18.66,0,0,1,5-4.65c2.12-1.43,16.58-6.57,19.38-7.44a30.84,30.84,0,0,1,9.1-1.29q6.85,0,11,2.62a15.16,15.16,0,0,1,6,7.07,25.66,25.66,0,0,1,1.85,9.91,34.63,34.63,0,0,1-1.92,11.51A38.66,38.66,0,0,1,177,241.79a40.45,40.45,0,0,1-7.84,8.05,36.69,36.69,0,0,1-9.45,5.32A28.46,28.46,0,0,1,149.56,257.05Z"/><path class="cls-4" d="M198.91,257.05a16.35,16.35,0,0,1-7.84-1.79,13.21,13.21,0,0,1-5.21-4.76,12.19,12.19,0,0,1-1.86-6.61,14.91,14.91,0,0,1,1.33-6.09,18.79,18.79,0,0,1,3.75-5.5,22.71,22.71,0,0,1,5.67-4.2,21.81,21.81,0,0,1,7.1-2.27,15.12,15.12,0,0,1-3.78-5,13.24,13.24,0,0,1-1.26-5.6,14.22,14.22,0,0,1,1.89-7.07,14.85,14.85,0,0,1,13.3-7.56,9.53,9.53,0,0,1,6.58,2.07,7.59,7.59,0,0,1,2.31,6,14.1,14.1,0,0,1-1,5.21,13.42,13.42,0,0,1-2.34,4,3.75,3.75,0,0,1-2.7,1.54,2.58,2.58,0,0,1-1.85-.88,8.78,8.78,0,0,1-1.51-2,25.29,25.29,0,0,0,4.38-4.48,8.08,8.08,0,0,0,1.78-4.9,3.78,3.78,0,0,0-1.4-3.18,5.74,5.74,0,0,0-3.64-1.09,7.56,7.56,0,0,0-5.28,1.93,11.86,11.86,0,0,0-3.22,4.89,17.65,17.65,0,0,0-1.09,6.13,17.38,17.38,0,0,0,1.12,6.06,11.76,11.76,0,0,0,4.06,5.28,19.61,19.61,0,0,0-8.75,3.47,19.85,19.85,0,0,0-5.74,6.26,14.26,14.26,0,0,0-2,7.07,12.31,12.31,0,0,0,.88,4.41,8.88,8.88,0,0,0,2.87,3.89,8.39,8.39,0,0,0,5.35,1.57,14.92,14.92,0,0,0,7.56-2.14,27.65,27.65,0,0,0,6.83-5.63,32.37,32.37,0,0,0,5-7.42l1.89,1.19a44.38,44.38,0,0,1-6.09,8.72,28.42,28.42,0,0,1-7.77,6.16A19.57,19.57,0,0,1,198.91,257.05Z"/><path class="cls-4" d="M237.9,257.05a21.63,21.63,0,0,1-7.74-1.4,13.81,13.81,0,0,1-6-4.27,11,11,0,0,1-2.31-7.14,9.32,9.32,0,0,1,1.68-5.91,8.75,8.75,0,0,1,4.2-3,15.44,15.44,0,0,1,4.9-.84,18.53,18.53,0,0,0-3.4,4.9,11.58,11.58,0,0,0-1.15,4.83,8.58,8.58,0,0,0,1.22,4.44A9.06,9.06,0,0,0,233,252a12.83,12.83,0,0,0,6.09,1.3,18.23,18.23,0,0,0,6.12-1.05,11.8,11.8,0,0,0,4.9-3.15,7.45,7.45,0,0,0,1.93-5.25,7.64,7.64,0,0,0-1.65-4.93,16.58,16.58,0,0,0-4.23-3.71q-2.59-1.65-5.46-3.16a56.55,56.55,0,0,1-5.46-3.25,16.46,16.46,0,0,1-4.24-4.06,9.32,9.32,0,0,1-1.64-5.53,15.28,15.28,0,0,1,1.43-6.12,22.31,22.31,0,0,1,4.1-6.13,20.94,20.94,0,0,1,6.44-4.66,19.57,19.57,0,0,1,8.4-1.78q4.83,0,6.79,2a7.32,7.32,0,0,1,2,5.32,18.62,18.62,0,0,1-.91,5.53,38.83,38.83,0,0,1-2.21,5.6,48.81,48.81,0,0,1-2.48,4.55,4.19,4.19,0,0,1-2.31-1.22,3.46,3.46,0,0,1-.77-2.35,10.87,10.87,0,0,1,.59-3.29c.4-1.21.87-2.47,1.4-3.78s1-2.58,1.4-3.82a10.73,10.73,0,0,0,.6-3.25,2.59,2.59,0,0,0-.74-2,4.45,4.45,0,0,0-3-.7,13.06,13.06,0,0,0-6.16,1.47,18.11,18.11,0,0,0-8,8.44,11,11,0,0,0-1.12,4.51,6.25,6.25,0,0,0,1.61,4.31,17.09,17.09,0,0,0,4.16,3.25c1.71,1,3.5,2,5.39,2.94a45.07,45.07,0,0,1,5.39,3.29,15.49,15.49,0,0,1,4.17,4.34,11.23,11.23,0,0,1,1.61,6.16,12.45,12.45,0,0,1-1.65,6.44,14.58,14.58,0,0,1-4.44,4.72,21.88,21.88,0,0,1-6.2,3A24.14,24.14,0,0,1,237.9,257.05Z"/><path class="cls-4" d="M258.9,257.12a6.08,6.08,0,0,1,2-4.37A8.88,8.88,0,0,1,265.2,251a36.86,36.86,0,0,1,5.74-.42,48.29,48.29,0,0,0,2.41-6.41q1.15-3.74,2.24-8t2.1-8.71q1-4.46,1.93-8.62t1.75-7.59q.84-3.44,1.61-5.67-3.57.08-6.34.28c-1.84.14-3.58.33-5.21.56s-3.31.51-5,.84a6.92,6.92,0,0,1,4.41-5q3.65-1.54,11.13-1.54,3.7,0,7.7.28t7.35.63q3.36.35,5.25.63a10.64,10.64,0,0,1-4.48,2.76,14.84,14.84,0,0,1-3.64.53H290c-1.19,0-2.34,0-3.46.07-.33,1.59-.69,3.52-1.09,5.81s-.84,4.74-1.33,7.35-1,5.23-1.43,7.84-.93,5.05-1.4,7.31-.89,4.15-1.26,5.64a46.75,46.75,0,0,1-2.17,6.65,13.45,13.45,0,0,1-2.87,4.55q3.71.28,7.49.7t8.33.56a13.14,13.14,0,0,1-5.32,3.26,17.05,17.05,0,0,1-4.13.66q-4.69,0-7.81,0c-2.07,0-3.88.07-5.42.15s-3,.19-4.45.38S260.67,256.84,258.9,257.12Z"/><path class="cls-4" d="M310.14,257.05a13.33,13.33,0,0,1-7.21-2.06,14.41,14.41,0,0,1-5.25-6,21.07,21.07,0,0,1-2-9.48,37.46,37.46,0,0,1,1.68-10.92A48.4,48.4,0,0,1,302,218a47.12,47.12,0,0,1,6.72-8.93,32.58,32.58,0,0,1,8-6.19,17.82,17.82,0,0,1,8.51-2.28,9,9,0,0,1,4.9,1.16,6.54,6.54,0,0,1,2.62,3,10.19,10.19,0,0,1,.81,4.06,14.33,14.33,0,0,1-.88,4.9,11.39,11.39,0,0,1-2.38,4.06,4.49,4.49,0,0,1-3.32,1.61,2.61,2.61,0,0,1-1.54-.49,5.11,5.11,0,0,1-1.4-1.82,10.28,10.28,0,0,0,2.34-2.45,21.39,21.39,0,0,0,2.28-3.88,9.41,9.41,0,0,0,1-3.82,3.29,3.29,0,0,0-.88-2.34,3.8,3.8,0,0,0-2.9-.95,11.31,11.31,0,0,0-6.48,2.34,30.23,30.23,0,0,0-6.33,6.24,53.16,53.16,0,0,0-5.43,8.67,54.25,54.25,0,0,0-3.81,9.8,35,35,0,0,0-1.4,9.49q0,6.38,2.76,9.91a8.21,8.21,0,0,0,6.62,3.53,8.6,8.6,0,0,0,5.28-1.82,17.37,17.37,0,0,0,4.27-4.79,29,29,0,0,0,3-6.48,31.45,31.45,0,0,0,1.4-6.86c-1.17-.23-2.37-.41-3.61-.53s-2.53-.17-3.88-.17c-.75,0-1.49,0-2.24,0s-1.54,0-2.38.1a6.74,6.74,0,0,1,2-3.6,5.36,5.36,0,0,1,3.61-1.16,14.23,14.23,0,0,1,4.23.66c1.43.45,2.87.93,4.34,1.44a43.91,43.91,0,0,0,4.31,1.26l-.7,2.17q-1.26,3.86-2.07,6.4c-.53,1.71-.94,3.15-1.22,4.35a23.77,23.77,0,0,0-.56,3.22c-.09,1-.14,1.94-.14,3s0,1.9.07,2.9.09,2.23.14,3.68a5.62,5.62,0,0,1-3.12-1.22,4.51,4.51,0,0,1-1.33-2.21,10.09,10.09,0,0,1-.31-2.45v-.7a3.33,3.33,0,0,1,.07-.7,21.84,21.84,0,0,1-5.64,4.94A13.6,13.6,0,0,1,310.14,257.05Z"/><path class="cls-4" d="M337.72,257.05q1-3.5,2.38-7.67t3.08-9.8q1.76-5.62,4.06-13.4t5.32-18.34c.05-.14.14-.49.28-1.05a6.9,6.9,0,0,0,.21-1.68,1.22,1.22,0,0,0-.18-.77.93.93,0,0,0-.73-.21,4.31,4.31,0,0,0-2.84,1.19,12.62,12.62,0,0,0-2.45,3,17.1,17.1,0,0,0-1.68,3.71,12.12,12.12,0,0,0-.59,3.47,8.11,8.11,0,0,0,.7,3.29c-2,0-3.5-.43-4.34-1.3a4.46,4.46,0,0,1-1.26-3.25,9.14,9.14,0,0,1,1.47-4.79,19,19,0,0,1,3.74-4.42,21.89,21.89,0,0,1,4.76-3.21,10.37,10.37,0,0,1,4.52-1.23,5.15,5.15,0,0,1,4,1.78,13.86,13.86,0,0,1,2.59,4.87,51.24,51.24,0,0,1,1.72,7c.47,2.61.91,5.37,1.33,8.26.56,3.73,1,6.71,1.33,8.92s.59,4,.8,5.29.4,2.4.56,3.29.34,1.89.53,3q.84-3.36,1.71-7.1c.59-2.5,1.18-5,1.79-7.6s1.2-5.07,1.78-7.53,1.18-4.74,1.79-6.89,1.2-4.05,1.78-5.7a25.26,25.26,0,0,1,1.72-4,10.54,10.54,0,0,1,2-2.41,5.11,5.11,0,0,1,3.68-1.3q-1.19,3.15-2.7,7.8t-3,10.09q-1.55,5.42-3,11.05T372,240.35c-.75,3.53-1.34,6.74-1.79,9.63a49,49,0,0,0-.66,7.07,7,7,0,0,1-4.24-1.22q-1.63-1.23-2.48-4.8-.28-1.18-.84-4c-.37-1.87-.79-4.07-1.26-6.62s-1-5.21-1.47-8-1-5.54-1.47-8.23-.89-5.08-1.26-7.21-.68-3.74-.91-4.86q-3.15,11.47-5.39,19.43t-3.92,13a67.58,67.58,0,0,1-3,7.73,10.93,10.93,0,0,1-2.66,3.78A4.65,4.65,0,0,1,337.72,257.05Z"/><path class="cls-4" d="M394.84,257.05a16.35,16.35,0,0,1-7.84-1.79,13.21,13.21,0,0,1-5.21-4.76,12.19,12.19,0,0,1-1.86-6.61,14.91,14.91,0,0,1,1.33-6.09,19,19,0,0,1,3.74-5.5,22.71,22.71,0,0,1,5.67-4.2,21.87,21.87,0,0,1,7.11-2.27,15.12,15.12,0,0,1-3.78-5,13.24,13.24,0,0,1-1.26-5.6,14.22,14.22,0,0,1,1.89-7.07,14.85,14.85,0,0,1,13.3-7.56,9.53,9.53,0,0,1,6.58,2.07,7.59,7.59,0,0,1,2.31,6,14.1,14.1,0,0,1-1,5.21,13.63,13.63,0,0,1-2.34,4,3.77,3.77,0,0,1-2.7,1.54,2.62,2.62,0,0,1-1.86-.88,9,9,0,0,1-1.5-2,24.88,24.88,0,0,0,4.37-4.48,8.1,8.1,0,0,0,1.79-4.9,3.78,3.78,0,0,0-1.4-3.18,5.74,5.74,0,0,0-3.64-1.09,7.6,7.6,0,0,0-5.29,1.93,11.94,11.94,0,0,0-3.21,4.89,17.65,17.65,0,0,0-1.09,6.13,17.38,17.38,0,0,0,1.12,6.06,11.76,11.76,0,0,0,4.06,5.28,19.61,19.61,0,0,0-8.75,3.47,19.85,19.85,0,0,0-5.74,6.26,14.26,14.26,0,0,0-2,7.07,12.51,12.51,0,0,0,.87,4.41,8.9,8.9,0,0,0,2.88,3.89,8.39,8.39,0,0,0,5.35,1.57,14.92,14.92,0,0,0,7.56-2.14,27.42,27.42,0,0,0,6.82-5.63,32.1,32.1,0,0,0,5-7.42L418,239.9a44.38,44.38,0,0,1-6.09,8.72,28.42,28.42,0,0,1-7.77,6.16A19.57,19.57,0,0,1,394.84,257.05Z"/><path class="cls-4" d="M476.87,263.43c-1.12,0-17.87.48-21.85-1.82a31.93,31.93,0,0,1-6-4.7c-1.77-1.77-7.6-8.18-9.12-10.53s-2.95-4.73-4.3-7.11-2.5-4.53-3.43-6.44q-1.89,6.43-3.61,12.71t-3.25,11.58a7.05,7.05,0,0,1-3.82-1.12,3.36,3.36,0,0,1-1.78-2.94,5.72,5.72,0,0,1,.35-1.82c.23-.7.44-1.38.63-2q2-6.09,3.64-10.88c1.07-3.2,2.09-6.14,3-8.83s1.94-5.34,2.94-8,2.11-5.41,3.33-8.3,2.61-6.16,4.2-9.8a23.45,23.45,0,0,0-4.8,1.47c-1.37.61-2.49,1.14-3.36,1.61a4.72,4.72,0,0,1-1.78.7,2.18,2.18,0,0,1-1.05-.46,4.85,4.85,0,0,1-1.23-1.12,2,2,0,0,1-.52-1.15q1.95-.76,4.58-1.68a48.51,48.51,0,0,1,5.78-1.58,31.66,31.66,0,0,1,6.51-.66,30.42,30.42,0,0,1,6.51.73,22.86,22.86,0,0,1,6.23,2.35,13.36,13.36,0,0,1,4.62,4.2,10.91,10.91,0,0,1,1.75,6.23,10.78,10.78,0,0,1-1.47,5.71,13.5,13.5,0,0,1-3.92,4.09,23.33,23.33,0,0,1-5.39,2.73,42.45,42.45,0,0,1-5.95,1.65,51.47,51.47,0,0,1-5.57.8c-1.7.14-3.11.23-4.23.28q2.24,3.57,4.41,6.93c1.44,2.24,3,4.47,4.65,6.69s10.62,11.57,13.41,13c4,2,21.15,2.15,24.14,4.44a3.33,3.33,0,0,1-1.72,2.24A5.16,5.16,0,0,1,476.87,263.43Zm-43.11-36.2a44,44,0,0,0,7.73-1.26,28.14,28.14,0,0,0,6.93-2.73,14.82,14.82,0,0,0,5-4.37,10.45,10.45,0,0,0,1.86-6.2,8.36,8.36,0,0,0-1.82-5.71,10.34,10.34,0,0,0-4.69-3,21.37,21.37,0,0,0-6-1,91.92,91.92,0,0,0-4.62,11Q435.87,220.37,433.76,227.23Z"/><path class="cls-5" d="M376,29.91s63-28,120-4c0,0,46,27,101,7"/><path class="cls-6" d="M224,127.91s-63-28-120-4c0,0-46,27-101,7"/></g></g></svg>