<svg xmlns="http://www.w3.org/2000/svg" viewBox="0 0 550.26 168.08"><defs><style>.cls-1{fill:#707070;}</style></defs><title>coAsset 34</title><g id="Layer_2" data-name="Layer 2"><g id="Layer_1-2" data-name="Layer 1"><path class="cls-1" d="M4.55,3A2.79,2.79,0,0,1,6.84,4a4.38,4.38,0,0,1,.82,2.85,4.52,4.52,0,0,1-.82,2.87,2.79,2.79,0,0,1-2.29,1,3.27,3.27,0,0,1-1.34-.27,2.45,2.45,0,0,1-1-.83H2.12l-.24,1H1.06V0H2.2V2.58q0,.87-.06,1.56H2.2A2.71,2.71,0,0,1,4.55,3ZM4.38,4a2,2,0,0,0-1.67.67A3.75,3.75,0,0,0,2.2,6.88a3.74,3.74,0,0,0,.52,2.26,2,2,0,0,0,1.69.68A1.74,1.74,0,0,0,6,9.06a3.94,3.94,0,0,0,.51-2.19A3.77,3.77,0,0,0,6,4.69,1.81,1.81,0,0,0,4.38,4Z"/><path class="cls-1" d="M10.71,3.14V8a1.94,1.94,0,0,0,.42,1.37,1.68,1.68,0,0,0,1.3.45,2.13,2.13,0,0,0,1.72-.64,3.27,3.27,0,0,0,.54-2.1V3.14h1.14v7.5h-.94l-.16-1h-.06a2.36,2.36,0,0,1-1,.85,3.17,3.17,0,0,1-1.41.29,2.84,2.84,0,0,1-2-.65,2.76,2.76,0,0,1-.68-2.07V3.14Z"/><path class="cls-1" d="M20.65,9.84a3.81,3.81,0,0,0,.59-.05l.44-.09v.87a1.73,1.73,0,0,1-.54.14,4,4,0,0,1-.65.06c-1.45,0-2.17-.76-2.17-2.29V4H17.24V3.48L18.32,3l.47-1.6h.66V3.14h2.18V4H19.45V8.44a1.51,1.51,0,0,0,.32,1A1.11,1.11,0,0,0,20.65,9.84Z"/><path class="cls-1" d="M25.6,9.84a3.68,3.68,0,0,0,.58-.05l.44-.09v.87a1.73,1.73,0,0,1-.54.14,4,4,0,0,1-.65.06c-1.45,0-2.17-.76-2.17-2.29V4H22.19V3.48L23.26,3l.48-1.6h.65V3.14h2.18V4H24.39V8.44a1.51,1.51,0,0,0,.32,1A1.11,1.11,0,0,0,25.6,9.84Z"/><path class="cls-1" d="M34.59,6.88a4.09,4.09,0,0,1-.93,2.86,3.22,3.22,0,0,1-2.55,1,3.31,3.31,0,0,1-1.78-.47A3,3,0,0,1,28.13,9a4.64,4.64,0,0,1-.43-2.07A4.12,4.12,0,0,1,28.62,4a3.24,3.24,0,0,1,2.54-1,3.19,3.19,0,0,1,2.5,1A4.11,4.11,0,0,1,34.59,6.88Zm-5.71,0a3.58,3.58,0,0,0,.57,2.19,2.28,2.28,0,0,0,3.38,0,3.47,3.47,0,0,0,.58-2.19,3.46,3.46,0,0,0-.58-2.17A2,2,0,0,0,31.13,4a2,2,0,0,0-1.68.73A3.52,3.52,0,0,0,28.88,6.88Z"/><path class="cls-1" d="M41.7,10.64V5.79a2,2,0,0,0-.41-1.37A1.72,1.72,0,0,0,40,4a2.13,2.13,0,0,0-1.72.64,3.17,3.17,0,0,0-.55,2.1v3.93H36.58V3.14h.92l.18,1h.06a2.32,2.32,0,0,1,1-.86A3.24,3.24,0,0,1,40.12,3a2.84,2.84,0,0,1,2,.65,2.77,2.77,0,0,1,.69,2.09v4.89Z"/><path class="cls-1" d="M46.36,9l.1.16q-.18.67-.51,1.59c-.23.6-.46,1.16-.7,1.68H44.4c.12-.47.25-1.06.4-1.76s.25-1.25.31-1.67Z"/><path class="cls-1" d="M55.72,3A2.81,2.81,0,0,1,58,4a4.44,4.44,0,0,1,.81,2.85A4.46,4.46,0,0,1,58,9.75a2.78,2.78,0,0,1-2.29,1,3.23,3.23,0,0,1-1.33-.27,2.41,2.41,0,0,1-1-.83h-.08l-.24,1h-.81V0h1.13V2.58c0,.58,0,1.1,0,1.56h0A2.71,2.71,0,0,1,55.72,3Zm-.16,1a2,2,0,0,0-1.68.67,3.75,3.75,0,0,0-.51,2.24,3.73,3.73,0,0,0,.53,2.26,2,2,0,0,0,1.69.68,1.74,1.74,0,0,0,1.55-.76,3.85,3.85,0,0,0,.52-2.19,3.69,3.69,0,0,0-.52-2.18A1.81,1.81,0,0,0,55.56,4Z"/><path class="cls-1" d="M67.28,6.88a4.13,4.13,0,0,1-.92,2.86,3.25,3.25,0,0,1-2.55,1A3.29,3.29,0,0,1,62,10.3,3.06,3.06,0,0,1,60.82,9a4.78,4.78,0,0,1-.42-2.07A4.12,4.12,0,0,1,61.31,4a3.25,3.25,0,0,1,2.55-1,3.19,3.19,0,0,1,2.5,1A4.15,4.15,0,0,1,67.28,6.88Zm-5.71,0a3.57,3.57,0,0,0,.58,2.19,2,2,0,0,0,1.69.75,2,2,0,0,0,1.69-.75,3.53,3.53,0,0,0,.58-2.19,3.53,3.53,0,0,0-.58-2.17A2,2,0,0,0,63.82,4a2,2,0,0,0-1.68.73A3.52,3.52,0,0,0,61.57,6.88Z"/><path class="cls-1" d="M74.37,9.63h-.06A2.66,2.66,0,0,1,72,10.77a2.79,2.79,0,0,1-2.29-1,4.45,4.45,0,0,1-.82-2.86A4.57,4.57,0,0,1,69.67,4,2.78,2.78,0,0,1,72,3,2.74,2.74,0,0,1,74.3,4.12h.08l0-.54,0-.53V0h1.13V10.64h-.92Zm-2.27.19a2.08,2.08,0,0,0,1.69-.63,3.24,3.24,0,0,0,.52-2V6.91a3.77,3.77,0,0,0-.53-2.27A2,2,0,0,0,72.09,4a1.74,1.74,0,0,0-1.53.77A3.89,3.89,0,0,0,70,6.92a3.71,3.71,0,0,0,.53,2.17A1.76,1.76,0,0,0,72.1,9.82Z"/><path class="cls-1" d="M76.66,3.14h1.22l1.64,4.28a16.71,16.71,0,0,1,.67,2.11h0c.06-.23.19-.63.38-1.19s.8-2.3,1.85-5.2h1.22l-3.22,8.54a4.21,4.21,0,0,1-1.12,1.79,2.4,2.4,0,0,1-1.57.53,4.38,4.38,0,0,1-1-.12V13a3.61,3.61,0,0,0,.84.09,1.74,1.74,0,0,0,1.67-1.32l.41-1.06Z"/><path class="cls-1" d="M22.83,56.78c0,3.66-.93,6.53-2.78,8.63a9.75,9.75,0,0,1-7.71,3.14q-5,0-7.79-3.09c-1.82-2-2.74-5-2.74-8.71s.92-6.6,2.75-8.65S9,45,12.38,45a9.73,9.73,0,0,1,7.68,3.13C21.91,50.24,22.83,53.12,22.83,56.78Zm-18.2,0c0,3.1.65,5.44,2,7a7,7,0,0,0,5.74,2.4,7,7,0,0,0,5.74-2.39q1.94-2.38,1.94-7c0-3.07-.65-5.4-1.93-7a6.91,6.91,0,0,0-5.71-2.38,7.05,7.05,0,0,0-5.78,2.4C5.28,51.41,4.63,53.73,4.63,56.78Z"/><path class="cls-1" d="M35.5,68.55a7.39,7.39,0,0,1-3-.62A5.61,5.61,0,0,1,30.13,66h-.19a24.05,24.05,0,0,1,.19,2.85v7h-2.6V51.11h2.11L30,53.46h.13a6,6,0,0,1,2.32-2,7.19,7.19,0,0,1,3-.62,6.35,6.35,0,0,1,5.26,2.33,10.27,10.27,0,0,1,1.85,6.53,10.2,10.2,0,0,1-1.88,6.55A6.35,6.35,0,0,1,35.5,68.55ZM35.13,53a4.6,4.6,0,0,0-3.8,1.46,7.46,7.46,0,0,0-1.2,4.62v.58c0,2.4.4,4.13,1.2,5.16a4.57,4.57,0,0,0,3.86,1.56,4,4,0,0,0,3.47-1.8,8.51,8.51,0,0,0,1.26-4.95,8.2,8.2,0,0,0-1.26-4.92A4.11,4.11,0,0,0,35.13,53Z"/><path class="cls-1" d="M54.38,68.55a7.89,7.89,0,0,1-6-2.31,9,9,0,0,1-2.19-6.43,9.89,9.89,0,0,1,2-6.57A6.75,6.75,0,0,1,53.7,50.8a6.44,6.44,0,0,1,5.1,2.12,8.1,8.1,0,0,1,1.87,5.58v1.64H48.88a6.75,6.75,0,0,0,1.52,4.58,5.27,5.27,0,0,0,4.07,1.56,13.85,13.85,0,0,0,5.47-1.15v2.31a13.53,13.53,0,0,1-2.6.85A14.79,14.79,0,0,1,54.38,68.55ZM53.67,53a4.27,4.27,0,0,0-3.29,1.34A6.16,6.16,0,0,0,48.94,58h9a5.69,5.69,0,0,0-1.09-3.75A3.86,3.86,0,0,0,53.67,53Z"/><path class="cls-1" d="M76.81,68.24V57.16a4.51,4.51,0,0,0-1-3.13,3.91,3.91,0,0,0-3-1,4.91,4.91,0,0,0-3.94,1.46c-.84,1-1.25,2.56-1.25,4.79v9h-2.6V51.11H67.2l.43,2.35h.12a5.35,5.35,0,0,1,2.23-2,7.33,7.33,0,0,1,3.21-.69,6.51,6.51,0,0,1,4.65,1.49c1,1,1.57,2.59,1.57,4.77V68.24Z"/><path class="cls-1" d="M106.33,62.16a5.59,5.59,0,0,1-2.19,4.7,9.47,9.47,0,0,1-5.94,1.69,14.83,14.83,0,0,1-6.25-1V64.94a16.21,16.21,0,0,0,3.07.94,16,16,0,0,0,3.28.34,6.64,6.64,0,0,0,4-1,3.31,3.31,0,0,0,1.34-2.8,3.61,3.61,0,0,0-.48-1.95,4.47,4.47,0,0,0-1.59-1.4,22.76,22.76,0,0,0-3.4-1.45,10.86,10.86,0,0,1-4.55-2.7,6,6,0,0,1-1.37-4.08,5.07,5.07,0,0,1,2-4.2,8.29,8.29,0,0,1,5.25-1.57,15.56,15.56,0,0,1,6.27,1.25l-.83,2.32a14.18,14.18,0,0,0-5.5-1.19,5.27,5.27,0,0,0-3.29.91,3,3,0,0,0-1.19,2.51,3.8,3.8,0,0,0,.44,2,4.13,4.13,0,0,0,1.47,1.39A18.25,18.25,0,0,0,100,55.6a12.51,12.51,0,0,1,5,2.75A5.41,5.41,0,0,1,106.33,62.16Z"/><path class="cls-1" d="M121.14,68.24l-.51-2.44h-.13A7.27,7.27,0,0,1,118,68a7.8,7.8,0,0,1-3.18.57,5.77,5.77,0,0,1-4-1.31,4.81,4.81,0,0,1-1.44-3.74q0-5.19,8.3-5.44l2.9-.09V56.91a4.33,4.33,0,0,0-.87-3,3.55,3.55,0,0,0-2.77-1,11.33,11.33,0,0,0-4.84,1.31l-.8-2a12.4,12.4,0,0,1,5.8-1.47,6.52,6.52,0,0,1,4.54,1.36,5.7,5.7,0,0,1,1.47,4.36V68.24Zm-5.86-1.83a5.26,5.26,0,0,0,3.81-1.33,4.9,4.9,0,0,0,1.38-3.72V59.81l-2.59.11a9.67,9.67,0,0,0-4.47,1,2.91,2.91,0,0,0-1.36,2.65,2.66,2.66,0,0,0,.85,2.14A3.53,3.53,0,0,0,115.28,66.41Z"/><path class="cls-1" d="M140.13,68.24V57.16a4.46,4.46,0,0,0-1-3.13,3.9,3.9,0,0,0-3-1,4.92,4.92,0,0,0-3.94,1.46Q131,55.9,131,59.25v9h-2.59V51.11h2.11l.42,2.35h.12a5.32,5.32,0,0,1,2.24-2,7.26,7.26,0,0,1,3.2-.69,6.55,6.55,0,0,1,4.66,1.49q1.56,1.5,1.56,4.77V68.24Z"/><path class="cls-1" d="M159.09,63.56a4.27,4.27,0,0,1-1.78,3.69,8.31,8.31,0,0,1-5,1.3A10.85,10.85,0,0,1,147,67.47V65.06a12.7,12.7,0,0,0,2.65,1,11,11,0,0,0,2.73.36,6.2,6.2,0,0,0,3.12-.65,2.14,2.14,0,0,0,1.09-2,2.18,2.18,0,0,0-.86-1.71,14,14,0,0,0-3.39-1.68A18.25,18.25,0,0,1,149,58.84a4.49,4.49,0,0,1-1.5-1.51,3.9,3.9,0,0,1-.5-2,3.84,3.84,0,0,1,1.71-3.3,7.9,7.9,0,0,1,4.67-1.21,13.65,13.65,0,0,1,5.4,1.12L157.81,54A12.54,12.54,0,0,0,153.14,53a5.31,5.31,0,0,0-2.78.58,1.78,1.78,0,0,0-.94,1.59,2,2,0,0,0,.35,1.17,3.37,3.37,0,0,0,1.14.93,25.38,25.38,0,0,0,3,1.26A11.14,11.14,0,0,1,158,60.74,3.9,3.9,0,0,1,159.09,63.56Z"/><path class="cls-1" d="M11.34,100.91A6.29,6.29,0,0,1,10,105.22a4.88,4.88,0,0,1-3.86,1.57,4.92,4.92,0,0,1-3.89-1.54,6.32,6.32,0,0,1-1.37-4.36,6.24,6.24,0,0,1,1.37-4.32A5,5,0,0,1,6.12,95,4.86,4.86,0,0,1,10,96.6,6.29,6.29,0,0,1,11.34,100.91Zm-9.1,0a5.41,5.41,0,0,0,1,3.52,3.51,3.51,0,0,0,2.87,1.2A3.47,3.47,0,0,0,9,104.43a5.51,5.51,0,0,0,1-3.52,5.43,5.43,0,0,0-1-3.5,3.45,3.45,0,0,0-2.85-1.19,3.53,3.53,0,0,0-2.89,1.2A5.36,5.36,0,0,0,2.24,100.91Z"/><path class="cls-1" d="M17.68,106.79a3.64,3.64,0,0,1-1.53-.31,2.85,2.85,0,0,1-1.16-.94H14.9A11.9,11.9,0,0,1,15,107v3.52H13.7V98.07h1.05l.18,1.18H15a3,3,0,0,1,1.17-1,3.5,3.5,0,0,1,1.52-.31,3.18,3.18,0,0,1,2.63,1.16,6.23,6.23,0,0,1,0,6.55A3.18,3.18,0,0,1,17.68,106.79ZM17.49,99a2.29,2.29,0,0,0-1.9.73,3.72,3.72,0,0,0-.6,2.31v.29a4.3,4.3,0,0,0,.6,2.58,2.3,2.3,0,0,0,1.93.78,2,2,0,0,0,1.74-.9,4.27,4.27,0,0,0,.63-2.48,4.07,4.07,0,0,0-.63-2.45A2.05,2.05,0,0,0,17.49,99Z"/><path class="cls-1" d="M27.12,106.79a3.93,3.93,0,0,1-3-1.15,4.48,4.48,0,0,1-1.1-3.21,5,5,0,0,1,1-3.29,3.38,3.38,0,0,1,2.74-1.22A3.23,3.23,0,0,1,29.33,99a4.06,4.06,0,0,1,.94,2.79v.82h-5.9a3.38,3.38,0,0,0,.76,2.29,2.63,2.63,0,0,0,2,.78,6.81,6.81,0,0,0,2.74-.58v1.16a6.3,6.3,0,0,1-1.3.42A7,7,0,0,1,27.12,106.79ZM26.77,99a2.13,2.13,0,0,0-1.65.68,3,3,0,0,0-.72,1.86h4.48a2.87,2.87,0,0,0-.55-1.88A1.93,1.93,0,0,0,26.77,99Z"/><path class="cls-1" d="M38.34,106.64V101.1a2.21,2.21,0,0,0-.48-1.56A1.93,1.93,0,0,0,36.37,99a2.45,2.45,0,0,0-2,.73,3.62,3.62,0,0,0-.63,2.39v4.5H32.48V98.07h1.05l.21,1.18h.06a2.61,2.61,0,0,1,1.12-1,3.51,3.51,0,0,1,1.6-.35,3.29,3.29,0,0,1,2.33.74,3.2,3.2,0,0,1,.78,2.39v5.59Z"/><path class="cls-1" d="M53.09,103.6A2.8,2.8,0,0,1,52,106a4.76,4.76,0,0,1-3,.84,7.42,7.42,0,0,1-3.12-.52V105a8.56,8.56,0,0,0,1.53.47,8.38,8.38,0,0,0,1.64.17,3.37,3.37,0,0,0,2-.5,1.66,1.66,0,0,0,.67-1.41,1.79,1.79,0,0,0-.24-1,2.17,2.17,0,0,0-.8-.7,11.09,11.09,0,0,0-1.69-.73A5.36,5.36,0,0,1,46.74,100a3,3,0,0,1-.69-2,2.54,2.54,0,0,1,1-2.1,4.11,4.11,0,0,1,2.62-.78,7.64,7.64,0,0,1,3.13.63l-.41,1.15a7.17,7.17,0,0,0-2.75-.59,2.69,2.69,0,0,0-1.65.45A1.5,1.5,0,0,0,47.4,98a1.88,1.88,0,0,0,.22,1,2,2,0,0,0,.74.7,9.16,9.16,0,0,0,1.59.7,6.24,6.24,0,0,1,2.47,1.37A2.72,2.72,0,0,1,53.09,103.6Z"/><path class="cls-1" d="M60.5,106.64l-.26-1.22h-.06a3.65,3.65,0,0,1-1.28,1.09,3.87,3.87,0,0,1-1.59.28,2.87,2.87,0,0,1-2-.65,2.38,2.38,0,0,1-.73-1.87c0-1.73,1.39-2.64,4.15-2.72l1.46,0V101a2.17,2.17,0,0,0-.44-1.49A1.78,1.78,0,0,0,58.38,99a5.63,5.63,0,0,0-2.43.66l-.4-1a6.27,6.27,0,0,1,1.39-.54,6,6,0,0,1,1.51-.2,3.28,3.28,0,0,1,2.27.68,2.86,2.86,0,0,1,.74,2.18v5.85Zm-2.93-.92a2.63,2.63,0,0,0,1.9-.66,2.45,2.45,0,0,0,.69-1.86v-.77l-1.29,0a4.79,4.79,0,0,0-2.23.48,1.46,1.46,0,0,0-.69,1.33,1.34,1.34,0,0,0,.43,1.07A1.78,1.78,0,0,0,57.57,105.72Z"/><path class="cls-1" d="M70,106.64V101.1a2.26,2.26,0,0,0-.47-1.56A1.94,1.94,0,0,0,68,99a2.46,2.46,0,0,0-2,.73,3.68,3.68,0,0,0-.62,2.39v4.5h-1.3V98.07h1.06l.21,1.18h.06a2.61,2.61,0,0,1,1.12-1,3.51,3.51,0,0,1,1.6-.35,3.29,3.29,0,0,1,2.33.74,3.2,3.2,0,0,1,.78,2.39v5.59Z"/><path class="cls-1" d="M79.48,104.3a2.14,2.14,0,0,1-.89,1.84,4.15,4.15,0,0,1-2.5.65,5.44,5.44,0,0,1-2.66-.54v-1.2a6.3,6.3,0,0,0,1.32.49,5.61,5.61,0,0,0,1.37.18,3.16,3.16,0,0,0,1.56-.32,1.12,1.12,0,0,0,.11-1.85,7.33,7.33,0,0,0-1.69-.84,8.94,8.94,0,0,1-1.7-.77,2.46,2.46,0,0,1-.75-.76,2,2,0,0,1-.24-1,1.93,1.93,0,0,1,.85-1.66,4,4,0,0,1,2.33-.6,6.92,6.92,0,0,1,2.71.56l-.46,1.06A6.13,6.13,0,0,0,76.5,99a2.72,2.72,0,0,0-1.39.29.91.91,0,0,0-.47.8,1,1,0,0,0,.18.59,1.7,1.7,0,0,0,.56.46,14.73,14.73,0,0,0,1.5.63,5.53,5.53,0,0,1,2.06,1.12A1.94,1.94,0,0,1,79.48,104.3Z"/><path class="cls-1" d="M85.63,95.75a.89.89,0,0,1,.22-.65.77.77,0,0,1,.55-.21.73.73,0,0,1,.54.22.83.83,0,0,1,.22.64.88.88,0,0,1-.22.66.81.81,0,0,1-1.09,0A.92.92,0,0,1,85.63,95.75ZM87,106.64h-1.3V98.07H87Z"/><path class="cls-1" d="M95.31,104.3a2.12,2.12,0,0,1-.89,1.84,4.11,4.11,0,0,1-2.5.65,5.4,5.4,0,0,1-2.65-.54v-1.2a6.3,6.3,0,0,0,1.32.49,5.53,5.53,0,0,0,1.36.18,3.2,3.2,0,0,0,1.57-.32,1.13,1.13,0,0,0,.11-1.85,7.33,7.33,0,0,0-1.69-.84,8.65,8.65,0,0,1-1.7-.77,2.26,2.26,0,0,1-.75-.76,1.88,1.88,0,0,1-.25-1,2,2,0,0,1,.85-1.66,4,4,0,0,1,2.34-.6,6.91,6.91,0,0,1,2.7.56l-.46,1.06A6.13,6.13,0,0,0,92.34,99a2.69,2.69,0,0,0-1.39.29.89.89,0,0,0-.47.8,1,1,0,0,0,.17.59,1.87,1.87,0,0,0,.57.46,14.73,14.73,0,0,0,1.5.63,5.62,5.62,0,0,1,2.06,1.12A2,2,0,0,1,95.31,104.3Z"/><path class="cls-1" d="M106.84,106.64l-.25-1.22h-.07a3.63,3.63,0,0,1-1.27,1.09,3.94,3.94,0,0,1-1.59.28,2.9,2.9,0,0,1-2-.65,2.4,2.4,0,0,1-.72-1.87q0-2.59,4.15-2.72l1.45,0V101a2.23,2.23,0,0,0-.43-1.49,1.8,1.8,0,0,0-1.39-.48,5.59,5.59,0,0,0-2.42.66l-.4-1a6.32,6.32,0,0,1,2.9-.74,3.29,3.29,0,0,1,2.27.68,2.85,2.85,0,0,1,.73,2.18v5.85Zm-2.93-.92a2.66,2.66,0,0,0,1.91-.66,2.45,2.45,0,0,0,.69-1.86v-.77l-1.3,0A4.83,4.83,0,0,0,103,103a1.45,1.45,0,0,0-.68,1.33,1.36,1.36,0,0,0,.42,1.07A1.8,1.8,0,0,0,103.91,105.72Z"/><path class="cls-1" d="M120.49,106.64V101.1a2.26,2.26,0,0,0-.47-1.56,1.94,1.94,0,0,0-1.5-.52,2.43,2.43,0,0,0-2,.73,3.77,3.77,0,0,0-.62,2.41v4.48h-1.3V94.48h1.3v3.68a8.33,8.33,0,0,1-.06,1.1H116a2.59,2.59,0,0,1,1.09-1,3.47,3.47,0,0,1,1.61-.36,3.27,3.27,0,0,1,2.35.75,3.12,3.12,0,0,1,.79,2.37v5.59Z"/><path class="cls-1" d="M125.67,98.07v5.56a2.21,2.21,0,0,0,.48,1.56,1.91,1.91,0,0,0,1.49.52,2.45,2.45,0,0,0,2-.74,3.73,3.73,0,0,0,.62-2.4v-4.5h1.29v8.57h-1.07l-.18-1.15h-.07a2.69,2.69,0,0,1-1.11,1,3.77,3.77,0,0,1-1.61.33,3.24,3.24,0,0,1-2.34-.74,3.15,3.15,0,0,1-.78-2.37V98.07Z"/><path class="cls-1" d="M145.19,106.64v-5.57a2.32,2.32,0,0,0-.44-1.54,1.7,1.7,0,0,0-1.36-.51,2.21,2.21,0,0,0-1.79.69,3.37,3.37,0,0,0-.58,2.15v4.78h-1.29v-5.57a2.32,2.32,0,0,0-.44-1.54,1.71,1.71,0,0,0-1.37-.51,2.09,2.09,0,0,0-1.78.73,3.94,3.94,0,0,0-.57,2.39v4.5h-1.3V98.07h1.06l.21,1.18h.06a2.52,2.52,0,0,1,1-1,3.18,3.18,0,0,1,1.49-.35,2.54,2.54,0,0,1,2.63,1.45h.06a2.77,2.77,0,0,1,1.11-1.06,3.45,3.45,0,0,1,1.66-.39,2.92,2.92,0,0,1,2.17.74,3.37,3.37,0,0,1,.72,2.39v5.59Z"/><path class="cls-1" d="M154.42,106.64l-.26-1.22h-.06a3.65,3.65,0,0,1-1.28,1.09,3.87,3.87,0,0,1-1.59.28,2.89,2.89,0,0,1-2-.65,2.4,2.4,0,0,1-.72-1.87q0-2.59,4.14-2.72l1.46,0V101a2.17,2.17,0,0,0-.44-1.49A1.78,1.78,0,0,0,152.3,99a5.59,5.59,0,0,0-2.42.66l-.4-1a6,6,0,0,1,1.38-.54,6.1,6.1,0,0,1,1.52-.2,3.25,3.25,0,0,1,2.26.68,2.82,2.82,0,0,1,.74,2.18v5.85Zm-2.93-.92a2.63,2.63,0,0,0,1.9-.66,2.42,2.42,0,0,0,.7-1.86v-.77l-1.3,0a4.79,4.79,0,0,0-2.23.48,1.45,1.45,0,0,0-.68,1.33,1.36,1.36,0,0,0,.42,1.07A1.78,1.78,0,0,0,151.49,105.72Z"/><path class="cls-1" d="M163.91,106.64V101.1a2.26,2.26,0,0,0-.47-1.56A1.93,1.93,0,0,0,162,99a2.43,2.43,0,0,0-2,.73,3.62,3.62,0,0,0-.63,2.39v4.5h-1.3V98.07h1.06l.21,1.18h.06a2.61,2.61,0,0,1,1.12-1,3.51,3.51,0,0,1,1.6-.35,3.29,3.29,0,0,1,2.33.74,3.2,3.2,0,0,1,.78,2.39v5.59Z"/><path class="cls-1" d="M167.77,95.75a.89.89,0,0,1,.21-.65.77.77,0,0,1,.55-.21.73.73,0,0,1,.54.22.83.83,0,0,1,.23.64.88.88,0,0,1-.23.66.81.81,0,0,1-1.09,0A.92.92,0,0,1,167.77,95.75Zm1.4,10.89h-1.29V98.07h1.29Z"/><path class="cls-1" d="M177.45,104.3a2.12,2.12,0,0,1-.9,1.84,4.11,4.11,0,0,1-2.5.65,5.4,5.4,0,0,1-2.65-.54v-1.2a6.3,6.3,0,0,0,1.32.49,5.55,5.55,0,0,0,1.37.18,3.18,3.18,0,0,0,1.56-.32,1.12,1.12,0,0,0,.11-1.85,7.33,7.33,0,0,0-1.69-.84,8.94,8.94,0,0,1-1.7-.77,2.46,2.46,0,0,1-.75-.76,2,2,0,0,1-.24-1,1.93,1.93,0,0,1,.85-1.66,4,4,0,0,1,2.33-.6,7,7,0,0,1,2.71.56l-.47,1.06a6,6,0,0,0-2.33-.54,2.69,2.69,0,0,0-1.39.29.91.91,0,0,0-.47.8,1,1,0,0,0,.18.59,1.7,1.7,0,0,0,.56.46,14.73,14.73,0,0,0,1.5.63,5.53,5.53,0,0,1,2.06,1.12A1.94,1.94,0,0,1,177.45,104.3Z"/><path class="cls-1" d="M182.32,105.72a3.53,3.53,0,0,0,.66,0,4.59,4.59,0,0,0,.51-.1v1a2.53,2.53,0,0,1-.62.17,5.12,5.12,0,0,1-.74.06c-1.65,0-2.48-.87-2.48-2.61v-5.1h-1.23v-.62l1.23-.54.55-1.83H181v2h2.48v1H181v5a1.76,1.76,0,0,0,.36,1.19A1.3,1.3,0,0,0,182.32,105.72Z"/><path class="cls-1" d="M194.88,104.3a2.12,2.12,0,0,1-.89,1.84,4.11,4.11,0,0,1-2.5.65,5.4,5.4,0,0,1-2.65-.54v-1.2a6.3,6.3,0,0,0,1.32.49,5.53,5.53,0,0,0,1.36.18,3.2,3.2,0,0,0,1.57-.32,1.13,1.13,0,0,0,.11-1.85,7.33,7.33,0,0,0-1.69-.84,8.65,8.65,0,0,1-1.7-.77,2.26,2.26,0,0,1-.75-.76,1.88,1.88,0,0,1-.25-1,2,2,0,0,1,.85-1.66,4,4,0,0,1,2.34-.6,6.91,6.91,0,0,1,2.7.56l-.46,1.06a6.13,6.13,0,0,0-2.33-.54,2.69,2.69,0,0,0-1.39.29.89.89,0,0,0-.47.8,1,1,0,0,0,.17.59,1.87,1.87,0,0,0,.57.46,14.73,14.73,0,0,0,1.5.63,5.62,5.62,0,0,1,2.06,1.12A2,2,0,0,1,194.88,104.3Z"/><path class="cls-1" d="M202.26,106.64l-.26-1.22h-.06a3.74,3.74,0,0,1-1.28,1.09,3.87,3.87,0,0,1-1.59.28,2.92,2.92,0,0,1-2-.65,2.4,2.4,0,0,1-.72-1.87q0-2.59,4.15-2.72l1.45,0V101a2.17,2.17,0,0,0-.43-1.49,1.79,1.79,0,0,0-1.39-.48,5.63,5.63,0,0,0-2.42.66l-.4-1a6.09,6.09,0,0,1,1.39-.54,6,6,0,0,1,1.51-.2,3.28,3.28,0,0,1,2.27.68,2.86,2.86,0,0,1,.74,2.18v5.85Zm-2.93-.92a2.63,2.63,0,0,0,1.9-.66,2.45,2.45,0,0,0,.69-1.86v-.77l-1.29,0a4.84,4.84,0,0,0-2.24.48,1.47,1.47,0,0,0-.68,1.33,1.34,1.34,0,0,0,.43,1.07A1.78,1.78,0,0,0,199.33,105.72Z"/><path class="cls-1" d="M211.75,106.64V101.1a2.21,2.21,0,0,0-.48-1.56,1.9,1.9,0,0,0-1.49-.52,2.46,2.46,0,0,0-2,.73,3.68,3.68,0,0,0-.62,2.39v4.5h-1.3V98.07H207l.21,1.18h.06a2.55,2.55,0,0,1,1.12-1,3.51,3.51,0,0,1,1.6-.35,3.29,3.29,0,0,1,2.33.74,3.2,3.2,0,0,1,.78,2.39v5.59Z"/><path class="cls-1" d="M221.23,104.3a2.12,2.12,0,0,1-.89,1.84,4.11,4.11,0,0,1-2.5.65,5.4,5.4,0,0,1-2.65-.54v-1.2a6.3,6.3,0,0,0,1.32.49,5.55,5.55,0,0,0,1.37.18,3.18,3.18,0,0,0,1.56-.32,1.13,1.13,0,0,0,.11-1.85,7.33,7.33,0,0,0-1.69-.84,8.94,8.94,0,0,1-1.7-.77,2.26,2.26,0,0,1-.75-.76,2,2,0,0,1-.25-1,1.94,1.94,0,0,1,.86-1.66,4,4,0,0,1,2.33-.6,6.91,6.91,0,0,1,2.7.56l-.46,1.06a6.09,6.09,0,0,0-2.33-.54,2.69,2.69,0,0,0-1.39.29.89.89,0,0,0-.47.8,1,1,0,0,0,.17.59,1.87,1.87,0,0,0,.57.46,14.73,14.73,0,0,0,1.5.63,5.53,5.53,0,0,1,2.06,1.12A1.93,1.93,0,0,1,221.23,104.3Z"/><path class="cls-1" d="M233,104.3a2.12,2.12,0,0,1-.89,1.84,4.11,4.11,0,0,1-2.5.65,5.4,5.4,0,0,1-2.65-.54v-1.2a6.3,6.3,0,0,0,1.32.49,5.53,5.53,0,0,0,1.36.18,3.2,3.2,0,0,0,1.57-.32,1.13,1.13,0,0,0,.11-1.85,7.33,7.33,0,0,0-1.69-.84,8.94,8.94,0,0,1-1.7-.77,2.26,2.26,0,0,1-.75-.76,2,2,0,0,1-.25-1,2,2,0,0,1,.85-1.66,4,4,0,0,1,2.34-.6,6.91,6.91,0,0,1,2.7.56l-.46,1.06a6.09,6.09,0,0,0-2.33-.54,2.69,2.69,0,0,0-1.39.29.89.89,0,0,0-.47.8,1,1,0,0,0,.17.59,1.87,1.87,0,0,0,.57.46,14.73,14.73,0,0,0,1.5.63,5.53,5.53,0,0,1,2.06,1.12A2,2,0,0,1,233,104.3Z"/><path class="cls-1" d="M238.75,106.79a4,4,0,0,1-3-1.15,4.48,4.48,0,0,1-1.09-3.21,5,5,0,0,1,1-3.29,3.36,3.36,0,0,1,2.73-1.22A3.21,3.21,0,0,1,241,99a4,4,0,0,1,.94,2.79v.82H236a3.43,3.43,0,0,0,.76,2.29,2.64,2.64,0,0,0,2,.78,6.8,6.8,0,0,0,2.73-.58v1.16a6.3,6.3,0,0,1-1.3.42A7,7,0,0,1,238.75,106.79ZM238.4,99a2.13,2.13,0,0,0-1.65.68,3,3,0,0,0-.72,1.86h4.48a2.81,2.81,0,0,0-.55-1.88A1.9,1.9,0,0,0,238.4,99Z"/><path class="cls-1" d="M248,97.92a5.23,5.23,0,0,1,1,.09l-.18,1.2a5,5,0,0,0-.94-.11,2.31,2.31,0,0,0-1.78.84,3.07,3.07,0,0,0-.73,2.1v4.6h-1.3V98.07h1.07l.15,1.59h.06a3.73,3.73,0,0,1,1.15-1.29A2.61,2.61,0,0,1,248,97.92Z"/><path class="cls-1" d="M250.53,95.75a.85.85,0,0,1,.22-.65.8.8,0,0,1,1.09,0,.83.83,0,0,1,.22.64.88.88,0,0,1-.22.66.8.8,0,0,1-.54.21.77.77,0,0,1-.55-.21A.88.88,0,0,1,250.53,95.75Zm1.41,10.89h-1.3V98.07h1.3Z"/><path class="cls-1" d="M258.55,99.08h-2.18v7.56h-1.3V99.08h-1.53V98.5l1.53-.47v-.48c0-2.1.92-3.16,2.76-3.16a5.79,5.79,0,0,1,1.59.28l-.33,1a4.4,4.4,0,0,0-1.29-.25,1.26,1.26,0,0,0-1.08.49,2.7,2.7,0,0,0-.35,1.57v.55h2.18Z"/><path class="cls-1" d="M267,105.72a3.71,3.71,0,0,0,.67,0,4.83,4.83,0,0,0,.5-.1v1a2.4,2.4,0,0,1-.62.17,5.12,5.12,0,0,1-.74.06c-1.65,0-2.48-.87-2.48-2.61v-5.1h-1.23v-.62l1.23-.54.55-1.83h.75v2h2.48v1h-2.48v5a1.76,1.76,0,0,0,.36,1.19A1.3,1.3,0,0,0,267,105.72Z"/><path class="cls-1" d="M268.55,98.07H270l1.87,4.89a19.21,19.21,0,0,1,.77,2.41h.06c.07-.26.21-.72.42-1.36s.93-2.62,2.13-5.94h1.39l-3.68,9.75a4.93,4.93,0,0,1-1.28,2.06,2.75,2.75,0,0,1-1.79.6,5.2,5.2,0,0,1-1.18-.13v-1a4.78,4.78,0,0,0,1,.09,2,2,0,0,0,1.9-1.5l.48-1.22Z"/><path class="cls-1" d="M282,106.79a3.64,3.64,0,0,1-1.53-.31,2.92,2.92,0,0,1-1.16-.94h-.09a11.9,11.9,0,0,1,.09,1.42v3.52H278V98.07h1l.18,1.18h.06a3.11,3.11,0,0,1,1.17-1,3.5,3.5,0,0,1,1.52-.31,3.18,3.18,0,0,1,2.63,1.16,6.18,6.18,0,0,1,0,6.55A3.17,3.17,0,0,1,282,106.79ZM281.77,99a2.27,2.27,0,0,0-1.89.73,3.65,3.65,0,0,0-.61,2.31v.29a4.22,4.22,0,0,0,.61,2.58,2.27,2.27,0,0,0,1.92.78,2,2,0,0,0,1.74-.9,4.27,4.27,0,0,0,.63-2.48,4.07,4.07,0,0,0-.63-2.45A2.05,2.05,0,0,0,281.77,99Z"/><path class="cls-1" d="M291.4,106.79a3.93,3.93,0,0,1-3-1.15,4.48,4.48,0,0,1-1.1-3.21,5,5,0,0,1,1-3.29,3.38,3.38,0,0,1,2.74-1.22A3.22,3.22,0,0,1,293.61,99a4.06,4.06,0,0,1,.94,2.79v.82h-5.9a3.38,3.38,0,0,0,.76,2.29,2.64,2.64,0,0,0,2,.78,6.8,6.8,0,0,0,2.73-.58v1.16a6.3,6.3,0,0,1-1.3.42A7,7,0,0,1,291.4,106.79ZM291.05,99a2.13,2.13,0,0,0-1.65.68,3,3,0,0,0-.72,1.86h4.48a2.87,2.87,0,0,0-.55-1.88A1.91,1.91,0,0,0,291.05,99Z"/><path class="cls-1" d="M300.62,99.08h-2.18v7.56h-1.3V99.08h-1.53V98.5l1.53-.47v-.48c0-2.1.92-3.16,2.76-3.16a5.79,5.79,0,0,1,1.59.28l-.33,1a4.4,4.4,0,0,0-1.28-.25,1.26,1.26,0,0,0-1.09.49,2.7,2.7,0,0,0-.35,1.57v.55h2.18Z"/><path class="cls-1" d="M307.45,106.64l-.26-1.22h-.06a3.74,3.74,0,0,1-1.28,1.09,3.94,3.94,0,0,1-1.59.28,2.9,2.9,0,0,1-2-.65,2.4,2.4,0,0,1-.72-1.87q0-2.59,4.15-2.72l1.45,0V101a2.17,2.17,0,0,0-.43-1.49,1.79,1.79,0,0,0-1.39-.48,5.63,5.63,0,0,0-2.42.66l-.4-1a6.32,6.32,0,0,1,2.9-.74,3.28,3.28,0,0,1,2.27.68,2.86,2.86,0,0,1,.74,2.18v5.85Zm-2.93-.92a2.65,2.65,0,0,0,1.9-.66,2.45,2.45,0,0,0,.69-1.86v-.77l-1.3,0a4.83,4.83,0,0,0-2.23.48,1.47,1.47,0,0,0-.68,1.33,1.36,1.36,0,0,0,.42,1.07A1.81,1.81,0,0,0,304.52,105.72Z"/><path class="cls-1" d="M314.5,106.79a3.66,3.66,0,0,1-2.88-1.14,4.7,4.7,0,0,1-1-3.24,4.86,4.86,0,0,1,1-3.32,3.73,3.73,0,0,1,2.95-1.17,5.71,5.71,0,0,1,1.23.13,4.26,4.26,0,0,1,1,.31l-.4,1.1a6.1,6.1,0,0,0-.94-.28,3.86,3.86,0,0,0-.9-.11c-1.73,0-2.6,1.11-2.6,3.32a4,4,0,0,0,.63,2.43,2.24,2.24,0,0,0,1.89.84,5.7,5.7,0,0,0,2.19-.46v1.15A4.74,4.74,0,0,1,314.5,106.79Z"/><path class="cls-1" d="M322.31,106.79a3.93,3.93,0,0,1-3-1.15,4.44,4.44,0,0,1-1.1-3.21,5,5,0,0,1,1-3.29A3.36,3.36,0,0,1,322,97.92,3.2,3.2,0,0,1,324.52,99a4,4,0,0,1,.94,2.79v.82h-5.9a3.43,3.43,0,0,0,.76,2.29,2.65,2.65,0,0,0,2,.78,6.8,6.8,0,0,0,2.73-.58v1.16a6.11,6.11,0,0,1-1.3.42A7,7,0,0,1,322.31,106.79ZM322,99a2.1,2.1,0,0,0-1.64.68,3.1,3.1,0,0,0-.73,1.86h4.48a2.81,2.81,0,0,0-.55-1.88A1.9,1.9,0,0,0,322,99Z"/><path class="cls-1" d="M337.66,105.49h-.07a3.05,3.05,0,0,1-2.69,1.3,3.16,3.16,0,0,1-2.61-1.15,5,5,0,0,1-.94-3.26,5.11,5.11,0,0,1,.94-3.29,3.48,3.48,0,0,1,5.28.09h.1l-.05-.61,0-.61V94.48h1.29v12.16h-1.05Zm-2.6.22A2.34,2.34,0,0,0,337,105a3.62,3.62,0,0,0,.6-2.33v-.27a4.34,4.34,0,0,0-.61-2.6,2.29,2.29,0,0,0-1.93-.78,2,2,0,0,0-1.75.89,4.44,4.44,0,0,0-.6,2.5,4.24,4.24,0,0,0,.6,2.48A2,2,0,0,0,335.06,105.71Z"/><path class="cls-1" d="M345.25,106.79a4,4,0,0,1-3-1.15,4.48,4.48,0,0,1-1.09-3.21,5,5,0,0,1,1-3.29,3.36,3.36,0,0,1,2.73-1.22A3.21,3.21,0,0,1,347.46,99a4,4,0,0,1,.94,2.79v.82h-5.9a3.43,3.43,0,0,0,.76,2.29,2.64,2.64,0,0,0,2,.78,6.8,6.8,0,0,0,2.73-.58v1.16a6.3,6.3,0,0,1-1.3.42A7,7,0,0,1,345.25,106.79ZM344.9,99a2.13,2.13,0,0,0-1.65.68,3,3,0,0,0-.72,1.86H347a2.81,2.81,0,0,0-.55-1.88A1.9,1.9,0,0,0,344.9,99Z"/><path class="cls-1" d="M356.13,104.3a2.12,2.12,0,0,1-.89,1.84,4.11,4.11,0,0,1-2.5.65,5.4,5.4,0,0,1-2.65-.54v-1.2a6.3,6.3,0,0,0,1.32.49,5.53,5.53,0,0,0,1.36.18,3.2,3.2,0,0,0,1.57-.32,1.13,1.13,0,0,0,.11-1.85,7.33,7.33,0,0,0-1.69-.84,8.65,8.65,0,0,1-1.7-.77,2.26,2.26,0,0,1-.75-.76,1.88,1.88,0,0,1-.25-1,2,2,0,0,1,.85-1.66,4,4,0,0,1,2.34-.6,6.91,6.91,0,0,1,2.7.56l-.46,1.06a6.13,6.13,0,0,0-2.33-.54,2.69,2.69,0,0,0-1.39.29.89.89,0,0,0-.47.8,1,1,0,0,0,.17.59,1.87,1.87,0,0,0,.57.46,14.73,14.73,0,0,0,1.5.63,5.62,5.62,0,0,1,2.06,1.12A2,2,0,0,1,356.13,104.3Z"/><path class="cls-1" d="M358.13,95.75a.89.89,0,0,1,.22-.65.77.77,0,0,1,.55-.21.73.73,0,0,1,.54.22.83.83,0,0,1,.22.64.88.88,0,0,1-.22.66.81.81,0,0,1-1.09,0A.92.92,0,0,1,358.13,95.75Zm1.41,10.89h-1.3V98.07h1.3Z"/><path class="cls-1" d="M369.3,98.07v.82l-1.59.19a2.42,2.42,0,0,1,.39.72,2.57,2.57,0,0,1,.17,1,2.51,2.51,0,0,1-.86,2,3.46,3.46,0,0,1-2.36.75,4,4,0,0,1-.71-.06,1.26,1.26,0,0,0-.83,1.1.55.55,0,0,0,.29.52,2.11,2.11,0,0,0,1,.17h1.51a3.41,3.41,0,0,1,2.14.58,2,2,0,0,1,.75,1.71,2.42,2.42,0,0,1-1.14,2.16,6.08,6.08,0,0,1-3.33.75,4.61,4.61,0,0,1-2.59-.62,2,2,0,0,1-.91-1.77,2,2,0,0,1,.5-1.35,2.56,2.56,0,0,1,1.41-.78,1.3,1.3,0,0,1-.56-.46,1.25,1.25,0,0,1-.22-.72,1.33,1.33,0,0,1,.25-.82,2.61,2.61,0,0,1,.79-.68,2.36,2.36,0,0,1-1.08-.93,2.73,2.73,0,0,1-.42-1.5,2.78,2.78,0,0,1,.84-2.17,3.46,3.46,0,0,1,2.4-.76,4.56,4.56,0,0,1,1.21.15Zm-6.83,10a1.16,1.16,0,0,0,.58,1.06,3.25,3.25,0,0,0,1.68.36,4.64,4.64,0,0,0,2.42-.49,1.49,1.49,0,0,0,.79-1.32,1.06,1.06,0,0,0-.43-1,3.36,3.36,0,0,0-1.62-.27h-1.55a2.07,2.07,0,0,0-1.38.42A1.5,1.5,0,0,0,362.47,108.07Zm.7-7.25a1.74,1.74,0,0,0,.51,1.36,2.06,2.06,0,0,0,1.41.46,1.66,1.66,0,0,0,1.9-1.85,1.7,1.7,0,0,0-1.92-1.93,1.91,1.91,0,0,0-1.41.5A2,2,0,0,0,363.17,100.82Z"/><path class="cls-1" d="M376.91,106.64V101.1a2.26,2.26,0,0,0-.47-1.56A1.93,1.93,0,0,0,375,99a2.43,2.43,0,0,0-2,.73,3.62,3.62,0,0,0-.63,2.39v4.5h-1.3V98.07h1.06l.21,1.18h.06a2.61,2.61,0,0,1,1.12-1,3.51,3.51,0,0,1,1.6-.35,3.29,3.29,0,0,1,2.33.74,3.2,3.2,0,0,1,.78,2.39v5.59Z"/><path class="cls-1" d="M384.49,106.79a3.93,3.93,0,0,1-3-1.15,4.44,4.44,0,0,1-1.1-3.21,5,5,0,0,1,1-3.29,3.36,3.36,0,0,1,2.74-1.22A3.2,3.2,0,0,1,386.7,99a4,4,0,0,1,.94,2.79v.82h-5.9a3.43,3.43,0,0,0,.76,2.29,2.65,2.65,0,0,0,2,.78,6.8,6.8,0,0,0,2.73-.58v1.16a6.11,6.11,0,0,1-1.3.42A7,7,0,0,1,384.49,106.79ZM384.14,99a2.1,2.1,0,0,0-1.64.68,3.1,3.1,0,0,0-.73,1.86h4.48a2.81,2.81,0,0,0-.55-1.88A1.9,1.9,0,0,0,384.14,99Z"/><path class="cls-1" d="M395.68,105.49h-.07a3.05,3.05,0,0,1-2.69,1.3,3.16,3.16,0,0,1-2.61-1.15,5,5,0,0,1-.93-3.26,5.17,5.17,0,0,1,.93-3.29,3.17,3.17,0,0,1,2.61-1.17,3.12,3.12,0,0,1,2.67,1.26h.11l-.06-.61,0-.61V94.48h1.3v12.16h-1.06Zm-2.59.22A2.34,2.34,0,0,0,395,105a3.62,3.62,0,0,0,.6-2.33v-.27a4.27,4.27,0,0,0-.61-2.6,2.28,2.28,0,0,0-1.93-.78,2,2,0,0,0-1.75.89,4.44,4.44,0,0,0-.6,2.5,4.24,4.24,0,0,0,.6,2.48A2,2,0,0,0,393.09,105.71Z"/><path class="cls-1" d="M407.8,97.93a3.19,3.19,0,0,1,2.62,1.16,5,5,0,0,1,.93,3.26,5.1,5.1,0,0,1-.94,3.28,3.19,3.19,0,0,1-2.61,1.16,3.64,3.64,0,0,1-1.53-.31,2.85,2.85,0,0,1-1.16-.94H405l-.28,1.1h-.93V94.48h1.3v3c0,.66,0,1.26-.06,1.78h.06A3.08,3.08,0,0,1,407.8,97.93ZM407.61,99a2.24,2.24,0,0,0-1.91.76,4.23,4.23,0,0,0-.59,2.57,4.3,4.3,0,0,0,.6,2.58,2.28,2.28,0,0,0,1.93.78,2,2,0,0,0,1.78-.87,4.52,4.52,0,0,0,.59-2.51,4.31,4.31,0,0,0-.59-2.49A2.06,2.06,0,0,0,407.61,99Z"/><path class="cls-1" d="M412.26,98.07h1.39l1.87,4.89a19.21,19.21,0,0,1,.77,2.41h.06c.07-.26.21-.72.43-1.36s.92-2.62,2.12-5.94h1.39l-3.68,9.75a4.83,4.83,0,0,1-1.28,2.06,2.73,2.73,0,0,1-1.79.6,5.06,5.06,0,0,1-1.17-.13v-1a4.61,4.61,0,0,0,1,.09,2,2,0,0,0,1.9-1.5l.48-1.22Z"/><path class="cls-1" d="M432.48,103.6a2.8,2.8,0,0,1-1.1,2.35,4.76,4.76,0,0,1-3,.84,7.42,7.42,0,0,1-3.12-.52V105a8.56,8.56,0,0,0,1.53.47,8.38,8.38,0,0,0,1.64.17,3.35,3.35,0,0,0,2-.5,1.66,1.66,0,0,0,.67-1.41,1.79,1.79,0,0,0-.24-1,2.13,2.13,0,0,0-.79-.7,11.3,11.3,0,0,0-1.7-.73,5.49,5.49,0,0,1-2.28-1.35,3,3,0,0,1-.68-2,2.53,2.53,0,0,1,1-2.1,4.13,4.13,0,0,1,2.62-.78,7.73,7.73,0,0,1,3.14.63l-.42,1.15a7.17,7.17,0,0,0-2.75-.59,2.64,2.64,0,0,0-1.64.45,1.48,1.48,0,0,0-.6,1.26,1.88,1.88,0,0,0,.22,1,2.09,2.09,0,0,0,.74.7,9.16,9.16,0,0,0,1.59.7,6.17,6.17,0,0,1,2.47,1.37A2.72,2.72,0,0,1,432.48,103.6Z"/><path class="cls-1" d="M437.38,105.72a3.71,3.71,0,0,0,.67,0,4.83,4.83,0,0,0,.5-.1v1a2.4,2.4,0,0,1-.62.17,5.1,5.1,0,0,1-.73.06q-2.49,0-2.49-2.61v-5.1h-1.23v-.62l1.23-.54.55-1.83H436v2h2.48v1H436v5a1.71,1.71,0,0,0,.37,1.19A1.28,1.28,0,0,0,437.38,105.72Z"/><path class="cls-1" d="M443.88,106.79a3.93,3.93,0,0,1-3-1.15,4.48,4.48,0,0,1-1.1-3.21,5,5,0,0,1,1-3.29,3.36,3.36,0,0,1,2.74-1.22A3.2,3.2,0,0,1,446.09,99a4,4,0,0,1,.94,2.79v.82h-5.9a3.43,3.43,0,0,0,.76,2.29,2.65,2.65,0,0,0,2,.78,6.8,6.8,0,0,0,2.73-.58v1.16a6.11,6.11,0,0,1-1.3.42A7,7,0,0,1,443.88,106.79ZM443.53,99a2.1,2.1,0,0,0-1.64.68,3.1,3.1,0,0,0-.73,1.86h4.48a2.81,2.81,0,0,0-.55-1.88A1.9,1.9,0,0,0,443.53,99Z"/><path class="cls-1" d="M451.12,106.64l-3.25-8.57h1.39l1.84,5.08c.42,1.19.66,2,.74,2.31h.06q.09-.4.54-1.71t2.05-5.68h1.39l-3.25,8.57Z"/><path class="cls-1" d="M460.88,106.79a3.93,3.93,0,0,1-3-1.15,4.48,4.48,0,0,1-1.1-3.21,5,5,0,0,1,1-3.29,3.36,3.36,0,0,1,2.74-1.22A3.23,3.23,0,0,1,463.09,99a4.05,4.05,0,0,1,.93,2.79v.82h-5.89a3.38,3.38,0,0,0,.76,2.29,2.63,2.63,0,0,0,2,.78,6.89,6.89,0,0,0,2.74-.58v1.16a6.5,6.5,0,0,1-1.3.42A7.08,7.08,0,0,1,460.88,106.79ZM460.52,99a2.12,2.12,0,0,0-1.64.68,3,3,0,0,0-.72,1.86h4.47a2.87,2.87,0,0,0-.54-1.88A1.93,1.93,0,0,0,460.52,99Z"/><path class="cls-1" d="M475.64,106.64l-3.87-10.13h-.07c.08.8.11,1.76.11,2.86v7.27h-1.22V95.21h2l3.61,9.43h.07l3.64-9.43h2v11.43h-1.33V99.28c0-.85,0-1.76.11-2.75h-.06l-3.91,10.11Z"/><path class="cls-1" d="M490.1,106.64l-.26-1.22h-.06a3.65,3.65,0,0,1-1.28,1.09,3.87,3.87,0,0,1-1.59.28,2.89,2.89,0,0,1-2-.65,2.4,2.4,0,0,1-.72-1.87q0-2.59,4.14-2.72l1.46,0V101a2.17,2.17,0,0,0-.44-1.49A1.78,1.78,0,0,0,488,99a5.67,5.67,0,0,0-2.43.66l-.39-1a6,6,0,0,1,1.38-.54,6.09,6.09,0,0,1,1.51-.2,3.26,3.26,0,0,1,2.27.68,2.82,2.82,0,0,1,.74,2.18v5.85Zm-2.93-.92a2.63,2.63,0,0,0,1.9-.66,2.42,2.42,0,0,0,.7-1.86v-.77l-1.3,0a4.79,4.79,0,0,0-2.23.48,1.46,1.46,0,0,0-.69,1.33,1.37,1.37,0,0,0,.43,1.07A1.78,1.78,0,0,0,487.17,105.72Z"/><path class="cls-1" d="M496.5,105.72a3.53,3.53,0,0,0,.66,0,4.59,4.59,0,0,0,.51-.1v1a2.53,2.53,0,0,1-.62.17,5.12,5.12,0,0,1-.74.06c-1.65,0-2.48-.87-2.48-2.61v-5.1H492.6v-.62l1.23-.54.55-1.83h.75v2h2.48v1h-2.48v5a1.76,1.76,0,0,0,.36,1.19A1.3,1.3,0,0,0,496.5,105.72Z"/><path class="cls-1" d="M502.15,105.72a3.53,3.53,0,0,0,.66,0,4.59,4.59,0,0,0,.51-.1v1a2.53,2.53,0,0,1-.62.17,5.12,5.12,0,0,1-.74.06c-1.66,0-2.48-.87-2.48-2.61v-5.1h-1.23v-.62l1.23-.54.54-1.83h.75v2h2.49v1h-2.49v5a1.76,1.76,0,0,0,.37,1.19A1.3,1.3,0,0,0,502.15,105.72Z"/><path class="cls-1" d="M508.65,106.79a3.93,3.93,0,0,1-3-1.15,4.48,4.48,0,0,1-1.1-3.21,5,5,0,0,1,1-3.29,3.38,3.38,0,0,1,2.74-1.22A3.22,3.22,0,0,1,510.86,99a4.06,4.06,0,0,1,.94,2.79v.82h-5.9a3.38,3.38,0,0,0,.76,2.29,2.64,2.64,0,0,0,2,.78,6.8,6.8,0,0,0,2.73-.58v1.16a6.3,6.3,0,0,1-1.3.42A7,7,0,0,1,508.65,106.79ZM508.3,99a2.13,2.13,0,0,0-1.65.68,3,3,0,0,0-.72,1.86h4.48a2.87,2.87,0,0,0-.55-1.88A1.91,1.91,0,0,0,508.3,99Z"/><path class="cls-1" d="M519.53,104.3a2.14,2.14,0,0,1-.89,1.84,4.13,4.13,0,0,1-2.5.65,5.44,5.44,0,0,1-2.66-.54v-1.2a6.6,6.6,0,0,0,1.33.49,5.47,5.47,0,0,0,1.36.18,3.13,3.13,0,0,0,1.56-.32,1.12,1.12,0,0,0,.12-1.85,7.33,7.33,0,0,0-1.69-.84,8.65,8.65,0,0,1-1.7-.77,2.26,2.26,0,0,1-.75-.76,1.88,1.88,0,0,1-.25-1,2,2,0,0,1,.85-1.66,4,4,0,0,1,2.34-.6,6.91,6.91,0,0,1,2.7.56l-.46,1.06a6.13,6.13,0,0,0-2.34-.54,2.74,2.74,0,0,0-1.39.29.9.9,0,0,0-.46.8,1,1,0,0,0,.17.59,1.87,1.87,0,0,0,.57.46,14.73,14.73,0,0,0,1.5.63,5.62,5.62,0,0,1,2.06,1.12A2,2,0,0,1,519.53,104.3Z"/><path class="cls-1" d="M529,102.35a4.76,4.76,0,0,1-1,3.27,3.75,3.75,0,0,1-2.92,1.17,3.89,3.89,0,0,1-2-.54,3.55,3.55,0,0,1-1.37-1.54,5.43,5.43,0,0,1-.49-2.36,4.68,4.68,0,0,1,1.05-3.26,3.71,3.71,0,0,1,2.91-1.17A3.62,3.62,0,0,1,528,99.11,4.7,4.7,0,0,1,529,102.35Zm-6.52,0a4.14,4.14,0,0,0,.65,2.5,2.61,2.61,0,0,0,3.87,0,4,4,0,0,0,.66-2.5,4,4,0,0,0-.66-2.48,2.31,2.31,0,0,0-1.95-.85,2.27,2.27,0,0,0-1.92.84A3.94,3.94,0,0,0,522.51,102.35Z"/><path class="cls-1" d="M537.16,106.64V101.1a2.26,2.26,0,0,0-.47-1.56A1.93,1.93,0,0,0,535.2,99a2.43,2.43,0,0,0-2,.73,3.62,3.62,0,0,0-.63,2.39v4.5h-1.3V98.07h1.06l.21,1.18h.06a2.61,2.61,0,0,1,1.12-1,3.51,3.51,0,0,1,1.6-.35,3.29,3.29,0,0,1,2.33.74,3.2,3.2,0,0,1,.78,2.39v5.59Z"/><path class="cls-1" d="M542.48,104.78l.12.18c-.13.52-.33,1.12-.58,1.81s-.52,1.34-.8,1.93h-1c.14-.54.3-1.21.47-2s.29-1.43.35-1.91Z"/><path class="cls-1" d="M5,125.84H3.62V115.59H0v-1.17H8.56v1.17H5Z"/><path class="cls-1" d="M8.73,117.27h1.39L12,122.16a19.21,19.21,0,0,1,.77,2.41h.06c.07-.26.21-.72.43-1.36s.92-2.62,2.12-5.94h1.39L13.08,127a4.93,4.93,0,0,1-1.28,2.06,2.73,2.73,0,0,1-1.79.6,5.06,5.06,0,0,1-1.17-.13v-1a4.61,4.61,0,0,0,1,.09,2,2,0,0,0,1.9-1.5l.48-1.22Z"/><path class="cls-1" d="M22.13,126a3.63,3.63,0,0,1-1.52-.31,2.79,2.79,0,0,1-1.16-.94h-.1a12,12,0,0,1,.1,1.42v3.52h-1.3V117.27H19.2l.18,1.18h.07a3,3,0,0,1,1.16-1,3.5,3.5,0,0,1,1.52-.31,3.18,3.18,0,0,1,2.63,1.16,6.2,6.2,0,0,1,0,6.55A3.2,3.2,0,0,1,22.13,126ZM22,118.22a2.28,2.28,0,0,0-1.9.73,3.72,3.72,0,0,0-.6,2.31v.29a4.3,4.3,0,0,0,.6,2.58,2.28,2.28,0,0,0,1.93.78,2,2,0,0,0,1.73-.9,4.27,4.27,0,0,0,.63-2.48,4.07,4.07,0,0,0-.63-2.45A2,2,0,0,0,22,118.22Z"/><path class="cls-1" d="M31.57,126a4,4,0,0,1-3-1.15,4.48,4.48,0,0,1-1.09-3.21,5,5,0,0,1,1-3.29,3.36,3.36,0,0,1,2.73-1.22,3.21,3.21,0,0,1,2.55,1.06,4,4,0,0,1,.94,2.79v.82h-5.9a3.43,3.43,0,0,0,.76,2.29,2.64,2.64,0,0,0,2,.78,6.8,6.8,0,0,0,2.73-.58v1.16a6.3,6.3,0,0,1-1.3.42A7,7,0,0,1,31.57,126Zm-.35-7.79a2.13,2.13,0,0,0-1.65.68,3.09,3.09,0,0,0-.72,1.86h4.48a2.81,2.81,0,0,0-.55-1.88A1.9,1.9,0,0,0,31.22,118.2Z"/><path class="cls-1" d="M50.4,120a5.75,5.75,0,0,1-1.54,4.32,6,6,0,0,1-4.41,1.5H41.28V114.42h3.5A5.12,5.12,0,0,1,50.4,120Zm-1.41,0a4.56,4.56,0,0,0-1.12-3.36,4.48,4.48,0,0,0-3.33-1.14H42.61v9.13h1.62a4.92,4.92,0,0,0,3.57-1.17A4.65,4.65,0,0,0,49,120.06Z"/><path class="cls-1" d="M52.64,115a.85.85,0,0,1,.22-.65.75.75,0,0,1,.55-.21.81.81,0,0,1,.54.22.83.83,0,0,1,.22.64.88.88,0,0,1-.22.66.8.8,0,0,1-.54.21.75.75,0,0,1-.55-.21A.88.88,0,0,1,52.64,115Zm1.41,10.89h-1.3v-8.57h1.3Z"/><path class="cls-1" d="M60.7,117.12a5.41,5.41,0,0,1,1,.09l-.18,1.21a4.39,4.39,0,0,0-.94-.12,2.29,2.29,0,0,0-1.78.84,3.08,3.08,0,0,0-.74,2.1v4.6H56.8v-8.57h1.07l.15,1.59h.06a3.73,3.73,0,0,1,1.15-1.29A2.57,2.57,0,0,1,60.7,117.12Z"/><path class="cls-1" d="M67,126a3.93,3.93,0,0,1-3-1.15,4.48,4.48,0,0,1-1.1-3.21,5,5,0,0,1,1-3.29,3.36,3.36,0,0,1,2.74-1.22,3.23,3.23,0,0,1,2.55,1.06,4.05,4.05,0,0,1,.93,2.79v.82H64.2a3.38,3.38,0,0,0,.76,2.29,2.63,2.63,0,0,0,2,.78,6.85,6.85,0,0,0,2.74-.58v1.16a6.5,6.5,0,0,1-1.3.42A7.08,7.08,0,0,1,67,126Zm-.36-7.79a2.12,2.12,0,0,0-1.64.68,3,3,0,0,0-.72,1.86H68.7a2.87,2.87,0,0,0-.54-1.88A1.93,1.93,0,0,0,66.59,118.2Z"/><path class="cls-1" d="M75.73,126a3.66,3.66,0,0,1-2.88-1.14,4.7,4.7,0,0,1-1-3.24,4.85,4.85,0,0,1,1-3.32,3.74,3.74,0,0,1,3-1.17,5.81,5.81,0,0,1,1.24.13,4.26,4.26,0,0,1,1,.31l-.4,1.11a6.1,6.1,0,0,0-.94-.29,3.92,3.92,0,0,0-.9-.11c-1.74,0-2.61,1.11-2.61,3.32a4,4,0,0,0,.64,2.43,2.21,2.21,0,0,0,1.89.84,5.7,5.7,0,0,0,2.19-.46v1.15A4.74,4.74,0,0,1,75.73,126Z"/><path class="cls-1" d="M82.69,124.92a3.53,3.53,0,0,0,.66,0,5.12,5.12,0,0,0,.51-.1v1a2.53,2.53,0,0,1-.62.17,5.23,5.23,0,0,1-.74.06c-1.66,0-2.48-.87-2.48-2.61v-5.1H78.79v-.62l1.23-.54.54-1.83h.75v2H83.8v1H81.31v5a1.71,1.71,0,0,0,.37,1.19A1.26,1.26,0,0,0,82.69,124.92Z"/><path class="cls-1" d="M93,121.55a4.76,4.76,0,0,1-1,3.27A3.75,3.75,0,0,1,89,126a3.89,3.89,0,0,1-2-.54,3.55,3.55,0,0,1-1.37-1.54,5.29,5.29,0,0,1-.49-2.36,4.68,4.68,0,0,1,1-3.26,3.71,3.71,0,0,1,2.91-1.17,3.62,3.62,0,0,1,2.85,1.19A4.7,4.7,0,0,1,93,121.55Zm-6.52,0a4.14,4.14,0,0,0,.65,2.5,2.61,2.61,0,0,0,3.87,0,4,4,0,0,0,.66-2.5,4,4,0,0,0-.66-2.48,2.31,2.31,0,0,0-1.95-.85,2.27,2.27,0,0,0-1.92.84A3.94,3.94,0,0,0,86.44,121.55Z"/><path class="cls-1" d="M99.14,117.12a5.23,5.23,0,0,1,1,.09l-.18,1.21a4.23,4.23,0,0,0-.93-.12,2.28,2.28,0,0,0-1.78.84,3.08,3.08,0,0,0-.74,2.1v4.6h-1.3v-8.57H96.3l.15,1.59h.07a3.71,3.71,0,0,1,1.14-1.29A2.61,2.61,0,0,1,99.14,117.12Z"/><path class="cls-1" d="M113.31,121.55a4.76,4.76,0,0,1-1,3.27,3.75,3.75,0,0,1-2.92,1.17,3.89,3.89,0,0,1-2-.54,3.55,3.55,0,0,1-1.37-1.54,5.43,5.43,0,0,1-.48-2.36,4.68,4.68,0,0,1,1-3.26,3.71,3.71,0,0,1,2.91-1.17,3.62,3.62,0,0,1,2.85,1.19A4.7,4.7,0,0,1,113.31,121.55Zm-6.52,0a4.07,4.07,0,0,0,.66,2.5,2.28,2.28,0,0,0,1.93.86,2.3,2.3,0,0,0,1.93-.86,4,4,0,0,0,.66-2.5,4,4,0,0,0-.66-2.48,2.31,2.31,0,0,0-2-.85,2.27,2.27,0,0,0-1.92.84A3.94,3.94,0,0,0,106.79,121.55Z"/><path class="cls-1" d="M119.45,118.28h-2.18v7.56H116v-7.56h-1.53v-.58l1.53-.47v-.48c0-2.1.92-3.16,2.76-3.16a5.79,5.79,0,0,1,1.59.28l-.34,1a4.29,4.29,0,0,0-1.28-.24,1.24,1.24,0,0,0-1.08.48,2.7,2.7,0,0,0-.35,1.57v.55h2.18Z"/><path class="cls-1" d="M132.54,125.84l-1.42-3.64h-4.58l-1.41,3.64h-1.34l4.51-11.47h1.12l4.49,11.47ZM130.7,121l-1.32-3.54c-.18-.45-.35-1-.54-1.65a12.8,12.8,0,0,1-.49,1.65L127,121Z"/><path class="cls-1" d="M140.81,123.5a2.12,2.12,0,0,1-.89,1.84,4.11,4.11,0,0,1-2.5.65,5.4,5.4,0,0,1-2.65-.54v-1.2a6.3,6.3,0,0,0,1.32.49,5.53,5.53,0,0,0,1.36.18,3.2,3.2,0,0,0,1.57-.32,1.13,1.13,0,0,0,.11-1.85,7,7,0,0,0-1.69-.83,9.16,9.16,0,0,1-1.7-.78,2.17,2.17,0,0,1-.75-.76,1.88,1.88,0,0,1-.25-1,2,2,0,0,1,.85-1.66,4,4,0,0,1,2.34-.6,6.91,6.91,0,0,1,2.7.56l-.46,1.06a6.13,6.13,0,0,0-2.33-.54,2.69,2.69,0,0,0-1.39.29.89.89,0,0,0-.47.8,1,1,0,0,0,.17.59,1.87,1.87,0,0,0,.57.46,14.73,14.73,0,0,0,1.5.63,5.62,5.62,0,0,1,2.06,1.12A2,2,0,0,1,140.81,123.5Z"/><path class="cls-1" d="M146.34,126a3.66,3.66,0,0,1-2.88-1.14,4.74,4.74,0,0,1-1-3.24,4.85,4.85,0,0,1,1-3.32,3.73,3.73,0,0,1,3-1.17,5.71,5.71,0,0,1,1.23.13,4,4,0,0,1,1,.31l-.4,1.11a5.65,5.65,0,0,0-.93-.29,3.92,3.92,0,0,0-.9-.11c-1.74,0-2.61,1.11-2.61,3.32a4,4,0,0,0,.64,2.43,2.2,2.2,0,0,0,1.88.84,5.71,5.71,0,0,0,2.2-.46v1.15A4.82,4.82,0,0,1,146.34,126Z"/><path class="cls-1" d="M154.16,126a3.93,3.93,0,0,1-3-1.15,4.48,4.48,0,0,1-1.1-3.21,5,5,0,0,1,1-3.29,3.36,3.36,0,0,1,2.74-1.22,3.23,3.23,0,0,1,2.55,1.06,4.05,4.05,0,0,1,.93,2.79v.82h-5.89a3.38,3.38,0,0,0,.76,2.29,2.63,2.63,0,0,0,2,.78,6.81,6.81,0,0,0,2.74-.58v1.16a6.3,6.3,0,0,1-1.3.42A7.08,7.08,0,0,1,154.16,126Zm-.36-7.79a2.12,2.12,0,0,0-1.64.68,3,3,0,0,0-.72,1.86h4.47a2.87,2.87,0,0,0-.54-1.88A1.93,1.93,0,0,0,153.8,118.2Z"/><path class="cls-1" d="M165.38,125.84V120.3a2.21,2.21,0,0,0-.48-1.56,1.93,1.93,0,0,0-1.49-.52,2.43,2.43,0,0,0-2,.73,3.62,3.62,0,0,0-.63,2.39v4.5h-1.29v-8.57h1l.21,1.18h.06a2.61,2.61,0,0,1,1.12-1,3.51,3.51,0,0,1,1.6-.35,3.29,3.29,0,0,1,2.33.74,3.2,3.2,0,0,1,.78,2.39v5.59Z"/><path class="cls-1" d="M175.16,124.69h-.07a3,3,0,0,1-2.68,1.3,3.19,3.19,0,0,1-2.62-1.15,5,5,0,0,1-.93-3.26,5.11,5.11,0,0,1,.94-3.29,3.48,3.48,0,0,1,5.28.09h.1l-.05-.61,0-.6v-3.49h1.3v12.16h-1Zm-2.59.22a2.34,2.34,0,0,0,1.93-.73,3.68,3.68,0,0,0,.59-2.33v-.27a4.35,4.35,0,0,0-.6-2.6,2.31,2.31,0,0,0-1.94-.78,2,2,0,0,0-1.74.89,4.44,4.44,0,0,0-.61,2.5,4.24,4.24,0,0,0,.6,2.48A2,2,0,0,0,172.57,124.91Z"/><path class="cls-1" d="M182.76,126a3.93,3.93,0,0,1-3-1.15,4.48,4.48,0,0,1-1.1-3.21,5,5,0,0,1,1-3.29,3.38,3.38,0,0,1,2.74-1.22,3.22,3.22,0,0,1,2.55,1.06,4.06,4.06,0,0,1,.94,2.79v.82H180a3.38,3.38,0,0,0,.76,2.29,2.63,2.63,0,0,0,2,.78,6.81,6.81,0,0,0,2.74-.58v1.16a6.3,6.3,0,0,1-1.3.42A7,7,0,0,1,182.76,126Zm-.35-7.79a2.13,2.13,0,0,0-1.65.68,3,3,0,0,0-.72,1.86h4.48a2.87,2.87,0,0,0-.55-1.88A1.93,1.93,0,0,0,182.41,118.2Z"/><path class="cls-1" d="M192,117.12a5.34,5.34,0,0,1,1,.09l-.18,1.21a4.39,4.39,0,0,0-.94-.12,2.29,2.29,0,0,0-1.78.84,3.08,3.08,0,0,0-.74,2.1v4.6h-1.29v-8.57h1.07l.15,1.59h.06a3.73,3.73,0,0,1,1.15-1.29A2.6,2.6,0,0,1,192,117.12Z"/><path class="cls-1" d="M203.89,115.44a3.74,3.74,0,0,0-3,1.25,5.05,5.05,0,0,0-1.09,3.44,5.15,5.15,0,0,0,1,3.46,3.72,3.72,0,0,0,3,1.22,10.08,10.08,0,0,0,2.72-.43v1.17a8.57,8.57,0,0,1-2.93.44,5,5,0,0,1-3.89-1.53,6.27,6.27,0,0,1-1.37-4.35,6.83,6.83,0,0,1,.66-3.09,4.72,4.72,0,0,1,1.9-2,5.77,5.77,0,0,1,2.94-.72,7.08,7.08,0,0,1,3.14.66l-.57,1.14A6,6,0,0,0,203.89,115.44Z"/><path class="cls-1" d="M216.29,121.55a4.71,4.71,0,0,1-1.06,3.27,3.71,3.71,0,0,1-2.91,1.17,3.86,3.86,0,0,1-2-.54,3.55,3.55,0,0,1-1.37-1.54,5.29,5.29,0,0,1-.49-2.36,4.68,4.68,0,0,1,1.05-3.26,3.71,3.71,0,0,1,2.91-1.17,3.65,3.65,0,0,1,2.85,1.19A4.7,4.7,0,0,1,216.29,121.55Zm-6.52,0a4.07,4.07,0,0,0,.65,2.5,2.29,2.29,0,0,0,1.93.86,2.32,2.32,0,0,0,1.94-.86,4,4,0,0,0,.66-2.5,4,4,0,0,0-.66-2.48,2.65,2.65,0,0,0-3.88,0A4,4,0,0,0,209.77,121.55Z"/><path class="cls-1" d="M222.47,117.12a5.23,5.23,0,0,1,1,.09l-.18,1.21a4.23,4.23,0,0,0-.93-.12,2.28,2.28,0,0,0-1.78.84,3.08,3.08,0,0,0-.74,2.1v4.6h-1.3v-8.57h1.07l.15,1.59h.06a3.73,3.73,0,0,1,1.15-1.29A2.61,2.61,0,0,1,222.47,117.12Z"/><path class="cls-1" d="M229.08,126a3.64,3.64,0,0,1-1.53-.31,2.85,2.85,0,0,1-1.16-.94h-.09a11.9,11.9,0,0,1,.09,1.42v3.52h-1.3V117.27h1.06l.18,1.18h.06a3,3,0,0,1,1.16-1,3.54,3.54,0,0,1,1.53-.31,3.19,3.19,0,0,1,2.63,1.16,5.19,5.19,0,0,1,.92,3.27,5.1,5.1,0,0,1-.94,3.28A3.19,3.19,0,0,1,229.08,126Zm-.19-7.77a2.29,2.29,0,0,0-1.9.73,3.72,3.72,0,0,0-.6,2.31v.29a4.3,4.3,0,0,0,.6,2.58,2.29,2.29,0,0,0,1.93.78,2,2,0,0,0,1.74-.9,4.27,4.27,0,0,0,.63-2.48,4.07,4.07,0,0,0-.63-2.45A2.05,2.05,0,0,0,228.89,118.22Z"/><path class="cls-1" d="M234.71,125a1.15,1.15,0,0,1,.24-.79.87.87,0,0,1,.68-.27.93.93,0,0,1,.71.27,1.36,1.36,0,0,1,0,1.57,1,1,0,0,1-1.37,0A1.11,1.11,0,0,1,234.71,125Z"/><path class="cls-1" d="M247,125.84H245.7V115.59h-3.62v-1.17h8.56v1.17H247Z"/><path class="cls-1" d="M258,125.84V120.3a2.26,2.26,0,0,0-.47-1.56,1.94,1.94,0,0,0-1.5-.52,2.45,2.45,0,0,0-2,.73,3.77,3.77,0,0,0-.62,2.41v4.48h-1.3V113.68h1.3v3.68a8.33,8.33,0,0,1-.06,1.1h.08a2.59,2.59,0,0,1,1.09-1,3.5,3.5,0,0,1,1.61-.36,3.31,3.31,0,0,1,2.36.75,3.16,3.16,0,0,1,.78,2.37v5.59Z"/><path class="cls-1" d="M261.88,115a.89.89,0,0,1,.21-.65.8.8,0,0,1,1.09,0,.83.83,0,0,1,.23.64.88.88,0,0,1-.23.66.81.81,0,0,1-1.09,0A.92.92,0,0,1,261.88,115Zm1.4,10.89H262v-8.57h1.3Z"/><path class="cls-1" d="M271.55,123.5a2.12,2.12,0,0,1-.89,1.84,4.11,4.11,0,0,1-2.5.65,5.4,5.4,0,0,1-2.65-.54v-1.2a6.3,6.3,0,0,0,1.32.49,5.55,5.55,0,0,0,1.37.18,3.18,3.18,0,0,0,1.56-.32,1.13,1.13,0,0,0,.11-1.85,7,7,0,0,0-1.69-.83,9.49,9.49,0,0,1-1.7-.78,2.17,2.17,0,0,1-.75-.76,2,2,0,0,1-.25-1,1.94,1.94,0,0,1,.86-1.66,4,4,0,0,1,2.33-.6,7,7,0,0,1,2.71.56l-.47,1.06a6.09,6.09,0,0,0-2.33-.54,2.69,2.69,0,0,0-1.39.29.91.91,0,0,0-.47.8,1,1,0,0,0,.17.59,1.87,1.87,0,0,0,.57.46,14.73,14.73,0,0,0,1.5.63,5.53,5.53,0,0,1,2.06,1.12A1.93,1.93,0,0,1,271.55,123.5Z"/><path class="cls-1" d="M279.7,125.84l-3.25-8.57h1.39l1.84,5.08a21.51,21.51,0,0,1,.73,2.32h.07A14.12,14.12,0,0,1,281,123c.3-.87,1-2.76,2.05-5.68h1.39l-3.25,8.57Z"/><path class="cls-1" d="M289.45,126a3.93,3.93,0,0,1-3-1.15,4.48,4.48,0,0,1-1.1-3.21,5,5,0,0,1,1-3.29,3.36,3.36,0,0,1,2.74-1.22,3.2,3.2,0,0,1,2.54,1.06,4,4,0,0,1,.94,2.79v.82h-5.9a3.43,3.43,0,0,0,.76,2.29,2.67,2.67,0,0,0,2,.78,6.8,6.8,0,0,0,2.73-.58v1.16a6.11,6.11,0,0,1-1.3.42A7,7,0,0,1,289.45,126Zm-.35-7.79a2.1,2.1,0,0,0-1.64.68,3.1,3.1,0,0,0-.73,1.86h4.48a2.81,2.81,0,0,0-.55-1.88A1.9,1.9,0,0,0,289.1,118.2Z"/><path class="cls-1" d="M298.72,117.12a5.23,5.23,0,0,1,1,.09l-.18,1.21a4.23,4.23,0,0,0-.93-.12,2.28,2.28,0,0,0-1.78.84,3.08,3.08,0,0,0-.74,2.1v4.6h-1.3v-8.57h1.07l.15,1.59h.06a3.73,3.73,0,0,1,1.15-1.29A2.61,2.61,0,0,1,298.72,117.12Z"/><path class="cls-1" d="M306.87,123.5a2.14,2.14,0,0,1-.89,1.84,4.15,4.15,0,0,1-2.5.65,5.44,5.44,0,0,1-2.66-.54v-1.2a6.3,6.3,0,0,0,1.32.49,5.61,5.61,0,0,0,1.37.18,3.16,3.16,0,0,0,1.56-.32,1.12,1.12,0,0,0,.11-1.85,7,7,0,0,0-1.69-.83,9.85,9.85,0,0,1-1.7-.78,2.36,2.36,0,0,1-.75-.76,2,2,0,0,1-.24-1,1.93,1.93,0,0,1,.85-1.66,4,4,0,0,1,2.33-.6,6.92,6.92,0,0,1,2.71.56l-.46,1.06a6.13,6.13,0,0,0-2.34-.54,2.72,2.72,0,0,0-1.39.29.91.91,0,0,0-.47.8,1,1,0,0,0,.18.59,1.7,1.7,0,0,0,.56.46,14.73,14.73,0,0,0,1.5.63,5.45,5.45,0,0,1,2.06,1.12A1.94,1.94,0,0,1,306.87,123.5Z"/><path class="cls-1" d="M308.87,115a.85.85,0,0,1,.22-.65.73.73,0,0,1,.54-.21.77.77,0,0,1,.54.22.83.83,0,0,1,.23.64.88.88,0,0,1-.23.66.76.76,0,0,1-.54.21.73.73,0,0,1-.54-.21A.88.88,0,0,1,308.87,115Zm1.4,10.89H309v-8.57h1.29Z"/><path class="cls-1" d="M320.41,121.55a4.76,4.76,0,0,1-1.05,3.27,3.72,3.72,0,0,1-2.91,1.17,3.84,3.84,0,0,1-2-.54,3.51,3.51,0,0,1-1.38-1.54,5.43,5.43,0,0,1-.48-2.36,4.73,4.73,0,0,1,1-3.26,3.71,3.71,0,0,1,2.91-1.17,3.65,3.65,0,0,1,2.86,1.19A4.75,4.75,0,0,1,320.41,121.55Zm-6.52,0a4.07,4.07,0,0,0,.66,2.5,2.6,2.6,0,0,0,3.86,0,4,4,0,0,0,.66-2.5,4,4,0,0,0-.66-2.48,2.31,2.31,0,0,0-2-.85,2.27,2.27,0,0,0-1.92.84A4,4,0,0,0,313.89,121.55Z"/><path class="cls-1" d="M328.55,125.84V120.3a2.21,2.21,0,0,0-.48-1.56,1.93,1.93,0,0,0-1.49-.52,2.45,2.45,0,0,0-2,.73,3.62,3.62,0,0,0-.63,2.39v4.5h-1.29v-8.57h1.05l.21,1.18H324a2.53,2.53,0,0,1,1.11-1,3.54,3.54,0,0,1,1.6-.35,3.27,3.27,0,0,1,2.33.74,3.2,3.2,0,0,1,.78,2.39v5.59Z"/><path class="cls-1" d="M340.09,126a3.66,3.66,0,0,1-2.88-1.14,4.7,4.7,0,0,1-1-3.24,4.85,4.85,0,0,1,1-3.32,3.74,3.74,0,0,1,2.95-1.17,5.81,5.81,0,0,1,1.24.13,4.26,4.26,0,0,1,1,.31l-.4,1.11a6.1,6.1,0,0,0-.94-.29,3.92,3.92,0,0,0-.9-.11c-1.74,0-2.61,1.11-2.61,3.32a4,4,0,0,0,.64,2.43,2.2,2.2,0,0,0,1.88.84,5.71,5.71,0,0,0,2.2-.46v1.15A4.74,4.74,0,0,1,340.09,126Z"/><path class="cls-1" d="M351.67,121.55a4.76,4.76,0,0,1-1.05,3.27A3.75,3.75,0,0,1,347.7,126a3.89,3.89,0,0,1-2-.54,3.55,3.55,0,0,1-1.37-1.54,5.43,5.43,0,0,1-.49-2.36,4.68,4.68,0,0,1,1.05-3.26,3.71,3.71,0,0,1,2.91-1.17,3.62,3.62,0,0,1,2.85,1.19A4.7,4.7,0,0,1,351.67,121.55Zm-6.52,0a4.14,4.14,0,0,0,.65,2.5,2.61,2.61,0,0,0,3.87,0,4,4,0,0,0,.66-2.5,4,4,0,0,0-.66-2.48,2.31,2.31,0,0,0-1.95-.85,2.27,2.27,0,0,0-1.92.84A3.94,3.94,0,0,0,345.15,121.55Z"/><path class="cls-1" d="M359.8,125.84V120.3a2.21,2.21,0,0,0-.47-1.56,1.93,1.93,0,0,0-1.49-.52,2.43,2.43,0,0,0-2,.73,3.62,3.62,0,0,0-.63,2.39v4.5H354v-8.57H355l.21,1.18h.06a2.61,2.61,0,0,1,1.12-1,3.51,3.51,0,0,1,1.6-.35,3.29,3.29,0,0,1,2.33.74,3.2,3.2,0,0,1,.78,2.39v5.59Z"/><path class="cls-1" d="M366.53,124.92a3.71,3.71,0,0,0,.67,0,4.83,4.83,0,0,0,.5-.1v1a2.4,2.4,0,0,1-.62.17,5.12,5.12,0,0,1-.74.06c-1.65,0-2.48-.87-2.48-2.61v-5.1h-1.23v-.62l1.23-.54.55-1.83h.75v2h2.48v1h-2.48v5a1.76,1.76,0,0,0,.36,1.19A1.27,1.27,0,0,0,366.53,124.92Z"/><path class="cls-1" d="M374.68,125.84l-.26-1.22h-.06a3.65,3.65,0,0,1-1.28,1.09,3.87,3.87,0,0,1-1.59.28,2.87,2.87,0,0,1-2-.65,2.38,2.38,0,0,1-.73-1.87c0-1.73,1.39-2.64,4.15-2.72l1.46,0v-.53a2.17,2.17,0,0,0-.44-1.49,1.79,1.79,0,0,0-1.39-.48,5.63,5.63,0,0,0-2.42.66l-.4-1a6.27,6.27,0,0,1,1.39-.54,6,6,0,0,1,1.51-.2,3.28,3.28,0,0,1,2.27.68,2.86,2.86,0,0,1,.74,2.18v5.85Zm-2.93-.92a2.63,2.63,0,0,0,1.9-.66,2.45,2.45,0,0,0,.69-1.86v-.77l-1.29.05a4.79,4.79,0,0,0-2.23.48,1.46,1.46,0,0,0-.69,1.33,1.34,1.34,0,0,0,.43,1.07A1.78,1.78,0,0,0,371.75,124.92Z"/><path class="cls-1" d="M378.2,115a.89.89,0,0,1,.22-.65.8.8,0,0,1,1.09,0,.83.83,0,0,1,.22.64.88.88,0,0,1-.22.66.81.81,0,0,1-1.09,0A.92.92,0,0,1,378.2,115Zm1.41,10.89h-1.3v-8.57h1.3Z"/><path class="cls-1" d="M388.22,125.84V120.3a2.21,2.21,0,0,0-.48-1.56,1.91,1.91,0,0,0-1.49-.52,2.45,2.45,0,0,0-2,.73,3.62,3.62,0,0,0-.62,2.39v4.5h-1.3v-8.57h1.05l.22,1.18h.06a2.58,2.58,0,0,1,1.11-1,3.55,3.55,0,0,1,1.61-.35,3.26,3.26,0,0,1,2.32.74,3.2,3.2,0,0,1,.79,2.39v5.59Z"/><path class="cls-1" d="M397.7,123.5a2.12,2.12,0,0,1-.89,1.84,4.11,4.11,0,0,1-2.5.65,5.4,5.4,0,0,1-2.65-.54v-1.2a6.3,6.3,0,0,0,1.32.49,5.53,5.53,0,0,0,1.36.18,3.2,3.2,0,0,0,1.57-.32,1.13,1.13,0,0,0,.11-1.85,7,7,0,0,0-1.69-.83,9.16,9.16,0,0,1-1.7-.78,2.17,2.17,0,0,1-.75-.76,1.88,1.88,0,0,1-.25-1,2,2,0,0,1,.85-1.66,4,4,0,0,1,2.34-.6,6.91,6.91,0,0,1,2.7.56l-.46,1.06a6.13,6.13,0,0,0-2.33-.54,2.69,2.69,0,0,0-1.39.29.89.89,0,0,0-.47.8,1,1,0,0,0,.17.59,1.87,1.87,0,0,0,.57.46,14.73,14.73,0,0,0,1.5.63,5.53,5.53,0,0,1,2.06,1.12A2,2,0,0,1,397.7,123.5Z"/><path class="cls-1" d="M406.73,124.92a3.71,3.71,0,0,0,.67,0c.21,0,.38-.07.51-.1v1a2.53,2.53,0,0,1-.62.17,5.23,5.23,0,0,1-.74.06q-2.49,0-2.49-2.61v-5.1h-1.22v-.62l1.22-.54.55-1.83h.75v2h2.48v1h-2.48v5a1.71,1.71,0,0,0,.37,1.19A1.25,1.25,0,0,0,406.73,124.92Z"/><path class="cls-1" d="M415.48,125.84V120.3a2.21,2.21,0,0,0-.48-1.56,1.93,1.93,0,0,0-1.49-.52,2.43,2.43,0,0,0-2,.73,3.7,3.7,0,0,0-.63,2.41v4.48h-1.29V113.68h1.29v3.68a8.33,8.33,0,0,1-.06,1.1h.08a2.65,2.65,0,0,1,1.09-1,3.5,3.5,0,0,1,1.61-.36,3.31,3.31,0,0,1,2.36.75,3.16,3.16,0,0,1,.78,2.37v5.59Z"/><path class="cls-1" d="M423.05,126a3.93,3.93,0,0,1-3-1.15,4.48,4.48,0,0,1-1.1-3.21,5,5,0,0,1,1-3.29,3.36,3.36,0,0,1,2.74-1.22,3.23,3.23,0,0,1,2.55,1.06,4.05,4.05,0,0,1,.93,2.79v.82h-5.9a3.39,3.39,0,0,0,.77,2.29,2.63,2.63,0,0,0,2,.78,6.89,6.89,0,0,0,2.74-.58v1.16a6.5,6.5,0,0,1-1.3.42A7.11,7.11,0,0,1,423.05,126Zm-.35-7.79a2.12,2.12,0,0,0-1.64.68,3,3,0,0,0-.72,1.86h4.47a2.87,2.87,0,0,0-.54-1.88A1.93,1.93,0,0,0,422.7,118.2Z"/><path class="cls-1" d="M436,126a3.66,3.66,0,0,1-2.88-1.14,4.7,4.7,0,0,1-1-3.24,4.86,4.86,0,0,1,1-3.32,3.73,3.73,0,0,1,2.95-1.17,5.71,5.71,0,0,1,1.23.13,4.1,4.1,0,0,1,1,.31l-.4,1.11a6,6,0,0,0-.93-.29,3.92,3.92,0,0,0-.9-.11c-1.74,0-2.61,1.11-2.61,3.32a4,4,0,0,0,.63,2.43,2.24,2.24,0,0,0,1.89.84,5.75,5.75,0,0,0,2.2-.46v1.15A4.82,4.82,0,0,1,436,126Z"/><path class="cls-1" d="M447.58,121.55a4.71,4.71,0,0,1-1.06,3.27,3.71,3.71,0,0,1-2.91,1.17,3.84,3.84,0,0,1-2-.54,3.55,3.55,0,0,1-1.37-1.54,5.29,5.29,0,0,1-.49-2.36,4.68,4.68,0,0,1,1.05-3.26,4.1,4.1,0,0,1,5.76,0A4.7,4.7,0,0,1,447.58,121.55Zm-6.53,0a4.07,4.07,0,0,0,.66,2.5,2.6,2.6,0,0,0,3.86,0,4,4,0,0,0,.66-2.5,4,4,0,0,0-.66-2.48,2.64,2.64,0,0,0-3.87,0A4,4,0,0,0,441.05,121.55Z"/><path class="cls-1" d="M460.77,125.84v-5.57a2.32,2.32,0,0,0-.44-1.54,1.7,1.7,0,0,0-1.36-.51,2.18,2.18,0,0,0-1.79.7,3.26,3.26,0,0,0-.58,2.14v4.78h-1.3v-5.57a2.32,2.32,0,0,0-.43-1.54,1.71,1.71,0,0,0-1.37-.51,2.13,2.13,0,0,0-1.79.73,4,4,0,0,0-.56,2.39v4.5h-1.3v-8.57h1.06l.21,1.18h.06a2.5,2.5,0,0,1,1-1,3.25,3.25,0,0,1,1.5-.35,2.55,2.55,0,0,1,2.63,1.45h.06a2.65,2.65,0,0,1,1.11-1.06,3.41,3.41,0,0,1,1.65-.39,2.93,2.93,0,0,1,2.18.74,3.37,3.37,0,0,1,.72,2.39v5.59Z"/><path class="cls-1" d="M468.72,126a3.64,3.64,0,0,1-1.53-.31,2.85,2.85,0,0,1-1.16-.94h-.09a11.9,11.9,0,0,1,.09,1.42v3.52h-1.3V117.27h1.06l.18,1.18H466a3,3,0,0,1,1.17-1,3.5,3.5,0,0,1,1.52-.31,3.19,3.19,0,0,1,2.63,1.16,5.19,5.19,0,0,1,.92,3.27,5.1,5.1,0,0,1-.94,3.28A3.19,3.19,0,0,1,468.72,126Zm-.19-7.77a2.29,2.29,0,0,0-1.9.73,3.72,3.72,0,0,0-.6,2.31v.29a4.3,4.3,0,0,0,.6,2.58,2.29,2.29,0,0,0,1.93.78,2,2,0,0,0,1.74-.9,4.27,4.27,0,0,0,.63-2.48,4.07,4.07,0,0,0-.63-2.45A2.05,2.05,0,0,0,468.53,118.22Z"/><path class="cls-1" d="M475.84,125.84h-1.3V113.68h1.3Z"/><path class="cls-1" d="M482.2,126a3.93,3.93,0,0,1-3-1.15,4.48,4.48,0,0,1-1.1-3.21,5,5,0,0,1,1-3.29,3.36,3.36,0,0,1,2.74-1.22,3.2,3.2,0,0,1,2.54,1.06,4,4,0,0,1,.94,2.79v.82h-5.9a3.43,3.43,0,0,0,.76,2.29,2.67,2.67,0,0,0,2,.78,6.8,6.8,0,0,0,2.73-.58v1.16a6.11,6.11,0,0,1-1.3.42A7,7,0,0,1,482.2,126Zm-.35-7.79a2.1,2.1,0,0,0-1.64.68,3.1,3.1,0,0,0-.73,1.86H484a2.81,2.81,0,0,0-.55-1.88A1.9,1.9,0,0,0,481.85,118.2Z"/><path class="cls-1" d="M490.33,124.92a3.53,3.53,0,0,0,.66,0,4.59,4.59,0,0,0,.51-.1v1a2.53,2.53,0,0,1-.62.17,5.12,5.12,0,0,1-.74.06c-1.66,0-2.48-.87-2.48-2.61v-5.1h-1.23v-.62l1.23-.54.54-1.83H489v2h2.49v1H489v5a1.76,1.76,0,0,0,.37,1.19A1.27,1.27,0,0,0,490.33,124.92Z"/><path class="cls-1" d="M496.83,126a3.93,3.93,0,0,1-3-1.15,4.48,4.48,0,0,1-1.1-3.21,5,5,0,0,1,1-3.29,3.38,3.38,0,0,1,2.74-1.22,3.22,3.22,0,0,1,2.55,1.06A4.06,4.06,0,0,1,500,121v.82h-5.9a3.38,3.38,0,0,0,.76,2.29,2.64,2.64,0,0,0,2,.78,6.8,6.8,0,0,0,2.73-.58v1.16a6.3,6.3,0,0,1-1.3.42A7,7,0,0,1,496.83,126Zm-.35-7.79a2.13,2.13,0,0,0-1.65.68,3,3,0,0,0-.72,1.86h4.48a2.87,2.87,0,0,0-.55-1.88A1.93,1.93,0,0,0,496.48,118.2Z"/><path class="cls-1" d="M509.53,114.25A3.85,3.85,0,0,1,512,115a2.41,2.41,0,0,1,.91,2,2.46,2.46,0,0,1-.52,1.53,4.61,4.61,0,0,1-1.67,1.27,5.7,5.7,0,0,1,2,1.39,2.66,2.66,0,0,1,.59,1.7,2.86,2.86,0,0,1-1,2.27,4.08,4.08,0,0,1-2.72.84,4.3,4.3,0,0,1-2.81-.8,2.75,2.75,0,0,1-1-2.27c0-1.3.8-2.32,2.39-3a4.41,4.41,0,0,1-1.54-1.32,2.74,2.74,0,0,1-.47-1.58,2.4,2.4,0,0,1,.91-2A3.84,3.84,0,0,1,509.53,114.25Zm-2.47,8.7a1.79,1.79,0,0,0,.65,1.47,2.94,2.94,0,0,0,1.84.52,2.7,2.7,0,0,0,1.81-.55,1.85,1.85,0,0,0,.65-1.5,1.88,1.88,0,0,0-.61-1.35,6.36,6.36,0,0,0-2.13-1.14,4.56,4.56,0,0,0-1.68,1.1A2.16,2.16,0,0,0,507.06,123Zm2.46-7.64a2.32,2.32,0,0,0-1.54.46,1.56,1.56,0,0,0-.55,1.25,1.78,1.78,0,0,0,.46,1.24,4.9,4.9,0,0,0,1.7,1,4.23,4.23,0,0,0,1.59-1,1.87,1.87,0,0,0,.46-1.26,1.53,1.53,0,0,0-.57-1.25A2.35,2.35,0,0,0,509.52,115.31Z"/><path class="cls-1" d="M522.41,119.29q0,6.7-5.19,6.7a5.51,5.51,0,0,1-1.44-.15v-1.12a4.47,4.47,0,0,0,1.42.2,3.46,3.46,0,0,0,2.84-1.16,5.93,5.93,0,0,0,1-3.56H521a2.61,2.61,0,0,1-1.14,1,3.58,3.58,0,0,1-1.6.34,3.21,3.21,0,0,1-2.4-.9,3.45,3.45,0,0,1-.89-2.54,3.9,3.9,0,0,1,1-2.81,3.81,3.81,0,0,1,4.66-.43,3.78,3.78,0,0,1,1.34,1.74A7.12,7.12,0,0,1,522.41,119.29Zm-3.85-3.93a2.12,2.12,0,0,0-1.72.72,3,3,0,0,0-.61,2,2.58,2.58,0,0,0,.56,1.77,2.13,2.13,0,0,0,1.71.64,2.89,2.89,0,0,0,1.31-.29,2.34,2.34,0,0,0,.94-.78,1.84,1.84,0,0,0,.34-1,3.51,3.51,0,0,0-.32-1.52,2.6,2.6,0,0,0-.89-1.09A2.22,2.22,0,0,0,518.56,115.36Z"/><path class="cls-1" d="M525.49,125.84l4.74-10.23H524v-1.19h7.6v1l-4.67,10.39Z"/><path class="cls-1" d="M4.66,145.19a3.66,3.66,0,0,1-2.88-1.14,4.7,4.7,0,0,1-1-3.24,4.85,4.85,0,0,1,1-3.32,3.74,3.74,0,0,1,3-1.17,5.81,5.81,0,0,1,1.24.13,4.26,4.26,0,0,1,1,.31l-.4,1.11a6.1,6.1,0,0,0-.94-.29,3.92,3.92,0,0,0-.9-.11c-1.74,0-2.61,1.11-2.61,3.32a4,4,0,0,0,.64,2.43,2.21,2.21,0,0,0,1.89.84,5.7,5.7,0,0,0,2.19-.46v1.15A4.74,4.74,0,0,1,4.66,145.19Z"/><path class="cls-1" d="M14.71,145V139.5a2.21,2.21,0,0,0-.48-1.56,1.9,1.9,0,0,0-1.49-.52,2.46,2.46,0,0,0-2,.73,3.77,3.77,0,0,0-.62,2.41V145H8.85V132.88h1.3v3.68a8.33,8.33,0,0,1-.06,1.1h.07a2.71,2.71,0,0,1,1.09-1,3.54,3.54,0,0,1,1.62-.36,3.28,3.28,0,0,1,2.35.75,3.12,3.12,0,0,1,.79,2.37V145Z"/><path class="cls-1" d="M23.94,145l-.26-1.22h-.06a3.74,3.74,0,0,1-1.28,1.09,3.87,3.87,0,0,1-1.59.28,2.92,2.92,0,0,1-2-.65,2.4,2.4,0,0,1-.72-1.87q0-2.59,4.15-2.72l1.45,0v-.53a2.19,2.19,0,0,0-.43-1.49,1.79,1.79,0,0,0-1.39-.48,5.63,5.63,0,0,0-2.42.66l-.4-1a6.09,6.09,0,0,1,1.39-.54,6,6,0,0,1,1.51-.2,3.28,3.28,0,0,1,2.27.68,2.86,2.86,0,0,1,.74,2.18V145ZM21,144.12a2.63,2.63,0,0,0,1.9-.66,2.45,2.45,0,0,0,.69-1.86v-.77l-1.3,0a4.83,4.83,0,0,0-2.23.48,1.47,1.47,0,0,0-.68,1.33,1.34,1.34,0,0,0,.43,1.07A1.78,1.78,0,0,0,21,144.12Z"/><path class="cls-1" d="M31.48,136.32a5.23,5.23,0,0,1,1,.09l-.18,1.21a4.32,4.32,0,0,0-.94-.12,2.27,2.27,0,0,0-1.77.84,3,3,0,0,0-.74,2.1V145h-1.3v-8.57h1.07l.15,1.59h.06A3.73,3.73,0,0,1,30,136.77,2.61,2.61,0,0,1,31.48,136.32Z"/><path class="cls-1" d="M39.37,145l-.26-1.22h-.06a3.74,3.74,0,0,1-1.28,1.09,3.9,3.9,0,0,1-1.59.28,2.92,2.92,0,0,1-2-.65,2.4,2.4,0,0,1-.72-1.87q0-2.59,4.15-2.72l1.45,0v-.53a2.19,2.19,0,0,0-.43-1.49,1.79,1.79,0,0,0-1.39-.48,5.63,5.63,0,0,0-2.42.66l-.4-1a6.09,6.09,0,0,1,1.39-.54,6,6,0,0,1,1.51-.2,3.28,3.28,0,0,1,2.27.68,2.86,2.86,0,0,1,.74,2.18V145Zm-2.93-.92a2.63,2.63,0,0,0,1.9-.66A2.45,2.45,0,0,0,39,141.6v-.77l-1.3,0a4.83,4.83,0,0,0-2.23.48,1.47,1.47,0,0,0-.68,1.33,1.34,1.34,0,0,0,.43,1.07A1.78,1.78,0,0,0,36.44,144.12Z"/><path class="cls-1" d="M46.42,145.19a3.66,3.66,0,0,1-2.88-1.14,4.7,4.7,0,0,1-1-3.24,4.86,4.86,0,0,1,1-3.32,3.73,3.73,0,0,1,2.95-1.17,5.71,5.71,0,0,1,1.23.13,4.1,4.1,0,0,1,1,.31l-.4,1.11a6,6,0,0,0-.93-.29,3.92,3.92,0,0,0-.9-.11c-1.74,0-2.61,1.11-2.61,3.32a4,4,0,0,0,.63,2.43,2.24,2.24,0,0,0,1.89.84,5.75,5.75,0,0,0,2.2-.46v1.15A4.82,4.82,0,0,1,46.42,145.19Z"/><path class="cls-1" d="M53.38,144.12a3.71,3.71,0,0,0,.67-.05,4.83,4.83,0,0,0,.5-.1v1a2.4,2.4,0,0,1-.62.17,5.1,5.1,0,0,1-.73.06q-2.49,0-2.49-2.61v-5.1H49.48v-.62l1.23-.54.55-1.83H52v2h2.48v1H52v5a1.71,1.71,0,0,0,.37,1.19A1.25,1.25,0,0,0,53.38,144.12Z"/><path class="cls-1" d="M59.88,145.19a3.93,3.93,0,0,1-3-1.15,4.48,4.48,0,0,1-1.1-3.21,5,5,0,0,1,1-3.29,3.36,3.36,0,0,1,2.74-1.22,3.2,3.2,0,0,1,2.54,1.06,4,4,0,0,1,.94,2.79V141h-5.9a3.42,3.42,0,0,0,.76,2.29,2.65,2.65,0,0,0,2,.78,6.8,6.8,0,0,0,2.73-.58v1.16a6.11,6.11,0,0,1-1.3.42A7,7,0,0,1,59.88,145.19Zm-.35-7.79a2.1,2.1,0,0,0-1.64.68,3.1,3.1,0,0,0-.73,1.86h4.48a2.81,2.81,0,0,0-.55-1.88A1.9,1.9,0,0,0,59.53,137.4Z"/><path class="cls-1" d="M69.15,136.32a5.23,5.23,0,0,1,1,.09L70,137.62a4.24,4.24,0,0,0-.94-.12,2.27,2.27,0,0,0-1.77.84,3.08,3.08,0,0,0-.74,2.1V145h-1.3v-8.57h1.07l.15,1.59h.06a3.73,3.73,0,0,1,1.15-1.29A2.61,2.61,0,0,1,69.15,136.32Z"/><path class="cls-1" d="M81.45,142.7a2.12,2.12,0,0,1-.89,1.84,4.11,4.11,0,0,1-2.5.65,5.4,5.4,0,0,1-2.65-.54v-1.2a6.3,6.3,0,0,0,1.32.49,5.53,5.53,0,0,0,1.36.18,3.2,3.2,0,0,0,1.57-.32,1.08,1.08,0,0,0,.54-1,1.05,1.05,0,0,0-.43-.85,6.59,6.59,0,0,0-1.69-.84,9.16,9.16,0,0,1-1.7-.78,2.17,2.17,0,0,1-.75-.76,1.88,1.88,0,0,1-.25-1,2,2,0,0,1,.85-1.66,4,4,0,0,1,2.34-.6,6.91,6.91,0,0,1,2.7.56l-.46,1.06a6.13,6.13,0,0,0-2.33-.54,2.69,2.69,0,0,0-1.39.29.89.89,0,0,0-.47.8,1,1,0,0,0,.17.59,1.87,1.87,0,0,0,.57.46,14.73,14.73,0,0,0,1.5.63,5.53,5.53,0,0,1,2.06,1.12A2,2,0,0,1,81.45,142.7Z"/><path class="cls-1" d="M87.18,145.19a4,4,0,0,1-3-1.15,4.48,4.48,0,0,1-1.09-3.21,5,5,0,0,1,1-3.29,3.36,3.36,0,0,1,2.73-1.22,3.21,3.21,0,0,1,2.55,1.06,4,4,0,0,1,.94,2.79V141h-5.9a3.42,3.42,0,0,0,.76,2.29,2.64,2.64,0,0,0,2,.78,6.8,6.8,0,0,0,2.73-.58v1.16a6.3,6.3,0,0,1-1.3.42A7,7,0,0,1,87.18,145.19Zm-.35-7.79a2.13,2.13,0,0,0-1.65.68,3,3,0,0,0-.72,1.86h4.48a2.87,2.87,0,0,0-.55-1.88A1.91,1.91,0,0,0,86.83,137.4Z"/><path class="cls-1" d="M95.3,144.12a3.71,3.71,0,0,0,.67-.05c.21,0,.38-.07.51-.1v1a2.53,2.53,0,0,1-.62.17,5.23,5.23,0,0,1-.74.06q-2.49,0-2.49-2.61v-5.1H91.41v-.62l1.22-.54.55-1.83h.75v2h2.48v1H93.93v5a1.71,1.71,0,0,0,.37,1.19A1.25,1.25,0,0,0,95.3,144.12Z"/><path class="cls-1" d="M99.55,143.18l.11.18c-.13.52-.33,1.12-.58,1.81s-.52,1.34-.8,1.93h-1c.15-.54.3-1.21.47-2s.29-1.43.36-1.91Z"/><path class="cls-1" d="M113.26,145l-1.57-5c-.1-.3-.29-1-.56-2.09h-.06c-.21.91-.39,1.61-.55,2.11l-1.61,5h-1.5l-2.34-8.57h1.36c.55,2.16,1,3.79,1.26,4.92a19.43,19.43,0,0,1,.5,2.27h.06c.06-.29.15-.68.28-1.15s.24-.84.33-1.12l1.57-4.92h1.41l1.53,4.92a15.93,15.93,0,0,1,.59,2.26H114a8.37,8.37,0,0,1,.17-.87c.09-.39.64-2.49,1.63-6.31h1.34L114.8,145Z"/><path class="cls-1" d="M124.57,145V139.5a2.21,2.21,0,0,0-.48-1.56,1.9,1.9,0,0,0-1.49-.52,2.46,2.46,0,0,0-2,.73,3.71,3.71,0,0,0-.62,2.41V145h-1.3V132.88H120v3.68a8.33,8.33,0,0,1-.06,1.1H120a2.71,2.71,0,0,1,1.09-1,3.51,3.51,0,0,1,1.62-.36,3.28,3.28,0,0,1,2.35.75,3.12,3.12,0,0,1,.79,2.37V145Z"/><path class="cls-1" d="M128.42,134.15a.89.89,0,0,1,.22-.65.8.8,0,0,1,1.09,0,.83.83,0,0,1,.22.64.88.88,0,0,1-.22.66.81.81,0,0,1-1.09,0A.92.92,0,0,1,128.42,134.15ZM129.83,145h-1.3v-8.57h1.3Z"/><path class="cls-1" d="M136,145.19a3.66,3.66,0,0,1-2.88-1.14,4.7,4.7,0,0,1-1-3.24,4.86,4.86,0,0,1,1-3.32,3.73,3.73,0,0,1,3-1.17,5.71,5.71,0,0,1,1.23.13,4.26,4.26,0,0,1,1,.31l-.4,1.11a6.1,6.1,0,0,0-.94-.29,3.86,3.86,0,0,0-.9-.11c-1.73,0-2.6,1.11-2.6,3.32a4,4,0,0,0,.63,2.43,2.24,2.24,0,0,0,1.89.84,5.7,5.7,0,0,0,2.19-.46v1.15A4.74,4.74,0,0,1,136,145.19Z"/><path class="cls-1" d="M146.05,145V139.5a2.21,2.21,0,0,0-.47-1.56,1.93,1.93,0,0,0-1.49-.52,2.49,2.49,0,0,0-2,.73,3.77,3.77,0,0,0-.62,2.41V145H140.2V132.88h1.29v3.68a8.33,8.33,0,0,1-.06,1.1h.08a2.65,2.65,0,0,1,1.09-1,3.5,3.5,0,0,1,1.61-.36,3.31,3.31,0,0,1,2.36.75,3.16,3.16,0,0,1,.78,2.37V145Z"/><path class="cls-1" d="M154.06,134.15a.89.89,0,0,1,.22-.65.8.8,0,0,1,1.09,0,.83.83,0,0,1,.22.64.88.88,0,0,1-.22.66.81.81,0,0,1-1.09,0A.92.92,0,0,1,154.06,134.15ZM155.47,145h-1.3v-8.57h1.3Z"/><path class="cls-1" d="M164.08,145V139.5a2.21,2.21,0,0,0-.48-1.56,1.91,1.91,0,0,0-1.49-.52,2.45,2.45,0,0,0-2,.73,3.62,3.62,0,0,0-.62,2.39V145h-1.3v-8.57h1.05l.21,1.18h.07a2.53,2.53,0,0,1,1.11-1,3.55,3.55,0,0,1,1.61-.35,3.26,3.26,0,0,1,2.32.74,3.2,3.2,0,0,1,.79,2.39V145Z"/><path class="cls-1" d="M171.46,145.19a3.66,3.66,0,0,1-2.88-1.14,4.7,4.7,0,0,1-1-3.24,4.86,4.86,0,0,1,1-3.32,3.73,3.73,0,0,1,3-1.17,5.71,5.71,0,0,1,1.23.13,4.1,4.1,0,0,1,1,.31l-.4,1.11a5.77,5.77,0,0,0-.94-.29,3.78,3.78,0,0,0-.89-.11c-1.74,0-2.61,1.11-2.61,3.32a4,4,0,0,0,.63,2.43,2.24,2.24,0,0,0,1.89.84,5.75,5.75,0,0,0,2.2-.46v1.15A4.82,4.82,0,0,1,171.46,145.19Z"/><path class="cls-1" d="M177,145h-1.29V132.88H177Z"/><path class="cls-1" d="M180.92,136.47V142a2.21,2.21,0,0,0,.48,1.56,1.91,1.91,0,0,0,1.49.52,2.45,2.45,0,0,0,2-.74,3.73,3.73,0,0,0,.62-2.4v-4.5h1.29V145H185.7l-.18-1.15h-.07a2.69,2.69,0,0,1-1.11,1,3.77,3.77,0,0,1-1.61.33,3.24,3.24,0,0,1-2.34-.74,3.13,3.13,0,0,1-.78-2.37v-5.61Z"/><path class="cls-1" d="M195.35,143.89h-.07a3,3,0,0,1-2.69,1.3A3.16,3.16,0,0,1,190,144a5,5,0,0,1-.93-3.26,5.17,5.17,0,0,1,.93-3.29,3.17,3.17,0,0,1,2.61-1.17,3.14,3.14,0,0,1,2.68,1.26h.1l-.06-.61,0-.6v-3.49h1.3V145h-1.06Zm-2.59.22a2.32,2.32,0,0,0,1.92-.73,3.62,3.62,0,0,0,.6-2.33v-.27a4.35,4.35,0,0,0-.6-2.6,2.31,2.31,0,0,0-1.94-.78,2,2,0,0,0-1.74.89,4.36,4.36,0,0,0-.61,2.5,4.24,4.24,0,0,0,.6,2.48A2,2,0,0,0,192.76,144.11Z"/><path class="cls-1" d="M203,145.19a3.93,3.93,0,0,1-3-1.15,4.48,4.48,0,0,1-1.1-3.21,5,5,0,0,1,1-3.29,3.36,3.36,0,0,1,2.74-1.22,3.23,3.23,0,0,1,2.55,1.06,4.05,4.05,0,0,1,.93,2.79V141H200.2a3.36,3.36,0,0,0,.76,2.29,2.63,2.63,0,0,0,2,.78,6.85,6.85,0,0,0,2.74-.58v1.16a6.5,6.5,0,0,1-1.3.42A7.08,7.08,0,0,1,203,145.19Zm-.36-7.79a2.12,2.12,0,0,0-1.64.68,3,3,0,0,0-.72,1.86h4.47a2.87,2.87,0,0,0-.54-1.88A1.93,1.93,0,0,0,202.59,137.4Z"/><path class="cls-1" d="M213.83,142.7a2.14,2.14,0,0,1-.89,1.84,4.15,4.15,0,0,1-2.5.65,5.44,5.44,0,0,1-2.66-.54v-1.2a6.18,6.18,0,0,0,1.33.49,5.47,5.47,0,0,0,1.36.18,3.13,3.13,0,0,0,1.56-.32,1.07,1.07,0,0,0,.55-1,1.06,1.06,0,0,0-.44-.85,6.42,6.42,0,0,0-1.69-.84,9.85,9.85,0,0,1-1.7-.78,2.36,2.36,0,0,1-.75-.76,2,2,0,0,1-.24-1,1.93,1.93,0,0,1,.85-1.66,4,4,0,0,1,2.34-.6,6.91,6.91,0,0,1,2.7.56l-.46,1.06a6.13,6.13,0,0,0-2.34-.54,2.72,2.72,0,0,0-1.39.29.91.91,0,0,0-.47.8,1,1,0,0,0,.18.59,1.81,1.81,0,0,0,.56.46q.41.21,1.5.63a5.45,5.45,0,0,1,2.06,1.12A1.94,1.94,0,0,1,213.83,142.7Z"/><path class="cls-1" d="M222.86,144.12a3.53,3.53,0,0,0,.66-.05,4.59,4.59,0,0,0,.51-.1v1a2.53,2.53,0,0,1-.62.17,5.12,5.12,0,0,1-.74.06c-1.65,0-2.48-.87-2.48-2.61v-5.1H219v-.62l1.23-.54.54-1.83h.75v2H224v1h-2.49v5a1.76,1.76,0,0,0,.37,1.19A1.27,1.27,0,0,0,222.86,144.12Z"/><path class="cls-1" d="M231.6,145V139.5a2.26,2.26,0,0,0-.47-1.56,1.94,1.94,0,0,0-1.5-.52,2.46,2.46,0,0,0-2,.73,3.77,3.77,0,0,0-.62,2.41V145h-1.3V132.88H227v3.68a8.33,8.33,0,0,1-.06,1.1h.07a2.71,2.71,0,0,1,1.09-1,3.54,3.54,0,0,1,1.62-.36,3.28,3.28,0,0,1,2.35.75,3.12,3.12,0,0,1,.79,2.37V145Z"/><path class="cls-1" d="M239.18,145.19a4,4,0,0,1-3-1.15,4.48,4.48,0,0,1-1.09-3.21,5,5,0,0,1,1-3.29,3.36,3.36,0,0,1,2.73-1.22,3.21,3.21,0,0,1,2.55,1.06,4,4,0,0,1,.94,2.79V141h-5.9a3.42,3.42,0,0,0,.76,2.29,2.64,2.64,0,0,0,2,.78,6.8,6.8,0,0,0,2.73-.58v1.16a6.3,6.3,0,0,1-1.3.42A7,7,0,0,1,239.18,145.19Zm-.35-7.79a2.13,2.13,0,0,0-1.65.68,3,3,0,0,0-.72,1.86h4.48a2.87,2.87,0,0,0-.55-1.88A1.91,1.91,0,0,0,238.83,137.4Z"/><path class="cls-1" d="M254.22,142.7a2.14,2.14,0,0,1-.89,1.84,4.15,4.15,0,0,1-2.5.65,5.44,5.44,0,0,1-2.66-.54v-1.2a6.18,6.18,0,0,0,1.33.49,5.47,5.47,0,0,0,1.36.18,3.13,3.13,0,0,0,1.56-.32,1.11,1.11,0,0,0,.12-1.84,6.7,6.7,0,0,0-1.7-.84,9.85,9.85,0,0,1-1.7-.78,2.36,2.36,0,0,1-.75-.76,2,2,0,0,1-.24-1,1.93,1.93,0,0,1,.85-1.66,4,4,0,0,1,2.34-.6,6.91,6.91,0,0,1,2.7.56l-.46,1.06a6.13,6.13,0,0,0-2.34-.54,2.72,2.72,0,0,0-1.39.29.91.91,0,0,0-.47.8,1,1,0,0,0,.18.59,1.75,1.75,0,0,0,.57.46,14.73,14.73,0,0,0,1.5.63,5.47,5.47,0,0,1,2.05,1.12A1.94,1.94,0,0,1,254.22,142.7Z"/><path class="cls-1" d="M259.09,144.12a3.71,3.71,0,0,0,.67-.05c.21,0,.38-.07.51-.1v1a2.5,2.5,0,0,1-.63.17,5,5,0,0,1-.73.06q-2.49,0-2.49-2.61v-5.1H255.2v-.62l1.22-.54.55-1.83h.75v2h2.48v1h-2.48v5a1.71,1.71,0,0,0,.37,1.19A1.25,1.25,0,0,0,259.09,144.12Z"/><path class="cls-1" d="M267.24,145l-.26-1.22h-.06a3.57,3.57,0,0,1-1.28,1.09,3.87,3.87,0,0,1-1.59.28,2.89,2.89,0,0,1-2-.65,2.4,2.4,0,0,1-.72-1.87q0-2.59,4.14-2.72l1.46,0v-.53a2.19,2.19,0,0,0-.44-1.49,1.78,1.78,0,0,0-1.38-.48,5.59,5.59,0,0,0-2.42.66l-.4-1a6,6,0,0,1,1.38-.54,6.1,6.1,0,0,1,1.52-.2,3.25,3.25,0,0,1,2.26.68,2.82,2.82,0,0,1,.74,2.18V145Zm-2.93-.92a2.63,2.63,0,0,0,1.9-.66,2.42,2.42,0,0,0,.7-1.86v-.77l-1.3,0a4.79,4.79,0,0,0-2.23.48,1.45,1.45,0,0,0-.68,1.33,1.36,1.36,0,0,0,.42,1.07A1.8,1.8,0,0,0,264.31,144.12Z"/><path class="cls-1" d="M276.73,145V139.5a2.21,2.21,0,0,0-.47-1.56,1.93,1.93,0,0,0-1.49-.52,2.43,2.43,0,0,0-2,.73,3.62,3.62,0,0,0-.63,2.39V145h-1.29v-8.57h1.05l.21,1.18h.06a2.61,2.61,0,0,1,1.12-1,3.51,3.51,0,0,1,1.6-.35,3.29,3.29,0,0,1,2.33.74,3.2,3.2,0,0,1,.78,2.39V145Z"/><path class="cls-1" d="M286.52,143.89h-.07a3,3,0,0,1-2.68,1.3,3.18,3.18,0,0,1-2.62-1.15,5,5,0,0,1-.93-3.26,5.11,5.11,0,0,1,.94-3.29,3.48,3.48,0,0,1,5.28.09h.1l-.06-.61,0-.6v-3.49h1.3V145H286.7Zm-2.59.22a2.34,2.34,0,0,0,1.93-.73,3.68,3.68,0,0,0,.59-2.33v-.27a4.35,4.35,0,0,0-.6-2.6,2.31,2.31,0,0,0-1.94-.78,2,2,0,0,0-1.74.89,4.36,4.36,0,0,0-.61,2.5,4.24,4.24,0,0,0,.6,2.48A2,2,0,0,0,283.93,144.11Z"/><path class="cls-1" d="M295.77,145l-.26-1.22h-.06a3.74,3.74,0,0,1-1.28,1.09,3.94,3.94,0,0,1-1.59.28,2.9,2.9,0,0,1-2-.65,2.4,2.4,0,0,1-.72-1.87q0-2.59,4.15-2.72l1.45,0v-.53a2.19,2.19,0,0,0-.43-1.49,1.79,1.79,0,0,0-1.39-.48,5.63,5.63,0,0,0-2.42.66l-.4-1a6.32,6.32,0,0,1,2.9-.74A3.28,3.28,0,0,1,296,137a2.86,2.86,0,0,1,.74,2.18V145Zm-2.93-.92a2.65,2.65,0,0,0,1.9-.66,2.45,2.45,0,0,0,.69-1.86v-.77l-1.3,0a4.83,4.83,0,0,0-2.23.48,1.47,1.47,0,0,0-.68,1.33,1.36,1.36,0,0,0,.42,1.07A1.83,1.83,0,0,0,292.84,144.12Z"/><path class="cls-1" d="M303.3,136.32a5.34,5.34,0,0,1,1,.09l-.18,1.21a4.39,4.39,0,0,0-.94-.12,2.31,2.31,0,0,0-1.78.84,3.07,3.07,0,0,0-.73,2.1V145h-1.3v-8.57h1.07l.15,1.59h.06a3.73,3.73,0,0,1,1.15-1.29A2.6,2.6,0,0,1,303.3,136.32Z"/><path class="cls-1" d="M311.76,143.89h-.07a3.05,3.05,0,0,1-2.69,1.3,3.16,3.16,0,0,1-2.61-1.15,5,5,0,0,1-.94-3.26,5.17,5.17,0,0,1,.94-3.29,3.17,3.17,0,0,1,2.61-1.17,3.12,3.12,0,0,1,2.67,1.26h.1l0-.61,0-.6v-3.49H313V145h-1.05Zm-2.6.22a2.34,2.34,0,0,0,1.93-.73,3.62,3.62,0,0,0,.6-2.33v-.27a4.27,4.27,0,0,0-.61-2.6,2.29,2.29,0,0,0-1.93-.78,2,2,0,0,0-1.75.89,4.44,4.44,0,0,0-.6,2.5,4.24,4.24,0,0,0,.6,2.48A2,2,0,0,0,309.16,144.11Z"/><path class="cls-1" d="M320.09,145V133.62h1.32V145Z"/><path class="cls-1" d="M331,142a2.8,2.8,0,0,1-1.09,2.35,4.76,4.76,0,0,1-3,.84,7.47,7.47,0,0,1-3.13-.52v-1.28a8.42,8.42,0,0,0,1.54.47A8.3,8.3,0,0,0,327,144a3.37,3.37,0,0,0,2-.5,1.69,1.69,0,0,0,.67-1.41,1.79,1.79,0,0,0-.24-1,2.26,2.26,0,0,0-.8-.7,12.45,12.45,0,0,0-1.7-.73,5.38,5.38,0,0,1-2.27-1.35,3,3,0,0,1-.69-2,2.52,2.52,0,0,1,1-2.1,4.11,4.11,0,0,1,2.62-.78,7.64,7.64,0,0,1,3.13.63l-.41,1.15a7.17,7.17,0,0,0-2.75-.59,2.69,2.69,0,0,0-1.65.45,1.5,1.5,0,0,0-.59,1.26,1.86,1.86,0,0,0,.22,1,2,2,0,0,0,.73.7,9.92,9.92,0,0,0,1.59.7,6.22,6.22,0,0,1,2.48,1.37A2.72,2.72,0,0,1,331,142Z"/><path class="cls-1" d="M343.24,139.31a6.29,6.29,0,0,1-1.38,4.31,5.61,5.61,0,0,1-7.75,0,6.32,6.32,0,0,1-1.38-4.36,6.24,6.24,0,0,1,1.38-4.32,5,5,0,0,1,3.91-1.53,4.86,4.86,0,0,1,3.84,1.56A6.29,6.29,0,0,1,343.24,139.31Zm-9.1,0a5.41,5.41,0,0,0,1,3.52A3.51,3.51,0,0,0,338,144a3.47,3.47,0,0,0,2.87-1.2,6.84,6.84,0,0,0,0-7,3.45,3.45,0,0,0-2.85-1.19,3.53,3.53,0,0,0-2.89,1.2A5.36,5.36,0,0,0,334.14,139.31Z"/><path class="cls-1" d="M350,145V133.62h1.32v10.21h5V145Z"/><path class="cls-1" d="M363.32,145l-.26-1.22H363a3.65,3.65,0,0,1-1.28,1.09,3.87,3.87,0,0,1-1.59.28,2.87,2.87,0,0,1-2-.65,2.41,2.41,0,0,1-.73-1.87c0-1.73,1.39-2.64,4.15-2.72l1.46,0v-.53a2.19,2.19,0,0,0-.44-1.49,1.78,1.78,0,0,0-1.38-.48,5.63,5.63,0,0,0-2.43.66l-.39-1a6.24,6.24,0,0,1,2.89-.74,3.28,3.28,0,0,1,2.27.68,2.82,2.82,0,0,1,.74,2.18V145Zm-2.93-.92a2.63,2.63,0,0,0,1.9-.66,2.45,2.45,0,0,0,.69-1.86v-.77l-1.29,0a4.79,4.79,0,0,0-2.23.48,1.46,1.46,0,0,0-.69,1.33,1.37,1.37,0,0,0,.43,1.07A1.78,1.78,0,0,0,360.39,144.12Z"/><path class="cls-1" d="M369.72,144.12a3.53,3.53,0,0,0,.66-.05,4.59,4.59,0,0,0,.51-.1v1a2.53,2.53,0,0,1-.62.17,5.12,5.12,0,0,1-.74.06c-1.65,0-2.48-.87-2.48-2.61v-5.1h-1.23v-.62l1.23-.54.54-1.83h.75v2h2.49v1h-2.49v5a1.76,1.76,0,0,0,.37,1.19A1.27,1.27,0,0,0,369.72,144.12Z"/><path class="cls-1" d="M372.49,134.15a.89.89,0,0,1,.22-.65.8.8,0,0,1,1.09,0,.83.83,0,0,1,.22.64.88.88,0,0,1-.22.66.81.81,0,0,1-1.09,0A.92.92,0,0,1,372.49,134.15ZM373.9,145h-1.3v-8.57h1.3Z"/><path class="cls-1" d="M382.51,145V139.5a2.21,2.21,0,0,0-.48-1.56,1.91,1.91,0,0,0-1.49-.52,2.45,2.45,0,0,0-2,.73,3.62,3.62,0,0,0-.62,2.39V145h-1.3v-8.57h1.05l.21,1.18H378a2.53,2.53,0,0,1,1.11-1,3.55,3.55,0,0,1,1.61-.35,3.26,3.26,0,0,1,2.32.74,3.2,3.2,0,0,1,.78,2.39V145Z"/><path class="cls-1" d="M394.84,145h-1.27V136.9c0-.68,0-1.32.06-1.93l-.36.35-1.86,1.52-.69-.89,3-2.33h1.1Z"/><path class="cls-1" d="M401.13,143.18l.12.18c-.14.52-.33,1.12-.59,1.81s-.52,1.34-.79,1.93h-1c.14-.54.3-1.21.47-2s.28-1.43.35-1.91Z"/><path class="cls-1" d="M408.05,145V133.62h1.33v10.21h5V145Z"/><path class="cls-1" d="M421.42,145l-.26-1.22h-.06a3.65,3.65,0,0,1-1.28,1.09,3.87,3.87,0,0,1-1.59.28,2.89,2.89,0,0,1-2-.65,2.4,2.4,0,0,1-.72-1.87q0-2.59,4.14-2.72l1.46,0v-.53a2.19,2.19,0,0,0-.44-1.49,1.78,1.78,0,0,0-1.38-.48,5.59,5.59,0,0,0-2.42.66l-.4-1a6,6,0,0,1,1.38-.54,6.1,6.1,0,0,1,1.52-.2,3.25,3.25,0,0,1,2.26.68,2.82,2.82,0,0,1,.74,2.18V145Zm-2.93-.92a2.63,2.63,0,0,0,1.9-.66,2.42,2.42,0,0,0,.7-1.86v-.77l-1.3,0a4.79,4.79,0,0,0-2.23.48,1.45,1.45,0,0,0-.68,1.33,1.36,1.36,0,0,0,.42,1.07A1.78,1.78,0,0,0,418.49,144.12Z"/><path class="cls-1" d="M427.82,144.12a3.53,3.53,0,0,0,.66-.05,4.59,4.59,0,0,0,.51-.1v1a2.53,2.53,0,0,1-.62.17,5.12,5.12,0,0,1-.74.06c-1.65,0-2.48-.87-2.48-2.61v-5.1h-1.23v-.62l1.23-.54.55-1.83h.75v2h2.48v1h-2.48v5a1.76,1.76,0,0,0,.36,1.19A1.27,1.27,0,0,0,427.82,144.12Z"/><path class="cls-1" d="M430.59,134.15a.89.89,0,0,1,.22-.65.8.8,0,0,1,1.09,0,.83.83,0,0,1,.23.64.88.88,0,0,1-.23.66.81.81,0,0,1-1.09,0A.92.92,0,0,1,430.59,134.15ZM432,145h-1.3v-8.57H432Z"/><path class="cls-1" d="M440.61,145V139.5a2.21,2.21,0,0,0-.48-1.56,1.9,1.9,0,0,0-1.49-.52,2.46,2.46,0,0,0-2,.73,3.62,3.62,0,0,0-.62,2.39V145h-1.3v-8.57h1.05l.22,1.18h.06a2.55,2.55,0,0,1,1.12-1,3.48,3.48,0,0,1,1.6-.35,3.31,3.31,0,0,1,2.33.74,3.2,3.2,0,0,1,.78,2.39V145Z"/><path class="cls-1" d="M453.81,134.64a3.76,3.76,0,0,0-3,1.25,5.05,5.05,0,0,0-1.09,3.44,5.15,5.15,0,0,0,1.05,3.46,3.72,3.72,0,0,0,3,1.22,10.08,10.08,0,0,0,2.72-.43v1.17a8.57,8.57,0,0,1-2.93.44,5,5,0,0,1-3.89-1.53,6.32,6.32,0,0,1-1.37-4.35,6.83,6.83,0,0,1,.66-3.09,4.72,4.72,0,0,1,1.9-2.05,5.8,5.8,0,0,1,2.94-.72,7,7,0,0,1,3.14.66l-.56,1.14A6,6,0,0,0,453.81,134.64Z"/><path class="cls-1" d="M465.38,145H459V133.62h6.36v1.17h-5v3.68h4.74v1.18h-4.74v4.2h5Z"/><path class="cls-1" d="M469.08,143.18l.12.18c-.14.52-.34,1.12-.59,1.81s-.52,1.34-.8,1.93h-1c.14-.54.29-1.21.46-2s.29-1.43.36-1.91Z"/><path class="cls-1" d="M481,139.05h3.88v5.56a11.82,11.82,0,0,1-1.85.43,13.76,13.76,0,0,1-2.17.15,5.27,5.27,0,0,1-4-1.54,6.09,6.09,0,0,1-1.44-4.32,6.59,6.59,0,0,1,.71-3.12,4.85,4.85,0,0,1,2.06-2.05,6.71,6.71,0,0,1,3.15-.71,8.61,8.61,0,0,1,3.41.67l-.52,1.17a7.72,7.72,0,0,0-3-.65,4.24,4.24,0,0,0-3.25,1.24,4.84,4.84,0,0,0-1.18,3.45,4.91,4.91,0,0,0,1.13,3.5,4.35,4.35,0,0,0,3.32,1.2,10,10,0,0,0,2.32-.27v-3.52H481Z"/><path class="cls-1" d="M491.35,136.32a5.41,5.41,0,0,1,1,.09l-.18,1.21a4.39,4.39,0,0,0-.94-.12,2.29,2.29,0,0,0-1.78.84,3.08,3.08,0,0,0-.74,2.1V145h-1.29v-8.57h1.07l.14,1.59h.07a3.63,3.63,0,0,1,1.15-1.29A2.57,2.57,0,0,1,491.35,136.32Z"/><path class="cls-1" d="M497.59,145.19a3.93,3.93,0,0,1-3-1.15,4.48,4.48,0,0,1-1.1-3.21,5,5,0,0,1,1-3.29,3.36,3.36,0,0,1,2.74-1.22,3.2,3.2,0,0,1,2.54,1.06,4,4,0,0,1,.94,2.79V141h-5.9a3.37,3.37,0,0,0,.77,2.29,2.63,2.63,0,0,0,2,.78,6.89,6.89,0,0,0,2.74-.58v1.16a6.38,6.38,0,0,1-1.31.42A7,7,0,0,1,497.59,145.19Zm-.35-7.79a2.1,2.1,0,0,0-1.64.68,3,3,0,0,0-.72,1.86h4.47a2.81,2.81,0,0,0-.55-1.88A1.9,1.9,0,0,0,497.24,137.4Z"/><path class="cls-1" d="M506.57,145.19a4,4,0,0,1-3-1.15,4.48,4.48,0,0,1-1.09-3.21,5,5,0,0,1,1-3.29,3.36,3.36,0,0,1,2.73-1.22,3.21,3.21,0,0,1,2.55,1.06,4,4,0,0,1,.94,2.79V141h-5.9a3.42,3.42,0,0,0,.76,2.29,2.64,2.64,0,0,0,2,.78,6.8,6.8,0,0,0,2.73-.58v1.16a6.3,6.3,0,0,1-1.3.42A7,7,0,0,1,506.57,145.19Zm-.35-7.79a2.13,2.13,0,0,0-1.65.68,3.09,3.09,0,0,0-.72,1.86h4.48a2.81,2.81,0,0,0-.55-1.88A1.9,1.9,0,0,0,506.22,137.4Z"/><path class="cls-1" d="M513.21,140.65c.22-.31.57-.73,1-1.25l2.77-2.93h1.54l-3.47,3.65,3.71,4.92h-1.57l-3-4-1,.84V145h-1.28V132.88h1.28v6.45c0,.28,0,.73-.06,1.32Z"/><path class="cls-1" d="M529.75,145l-.26-1.22h-.06a3.65,3.65,0,0,1-1.28,1.09,3.87,3.87,0,0,1-1.59.28,2.87,2.87,0,0,1-2-.65,2.38,2.38,0,0,1-.73-1.87c0-1.73,1.39-2.64,4.15-2.72l1.46,0v-.53a2.19,2.19,0,0,0-.44-1.49,1.78,1.78,0,0,0-1.38-.48,5.63,5.63,0,0,0-2.43.66l-.4-1a6.27,6.27,0,0,1,1.39-.54,6,6,0,0,1,1.51-.2A3.28,3.28,0,0,1,530,137a2.86,2.86,0,0,1,.74,2.18V145Zm-2.93-.92a2.63,2.63,0,0,0,1.9-.66,2.45,2.45,0,0,0,.69-1.86v-.77l-1.29,0a4.79,4.79,0,0,0-2.23.48,1.46,1.46,0,0,0-.69,1.33,1.34,1.34,0,0,0,.43,1.07A1.78,1.78,0,0,0,526.82,144.12Z"/><path class="cls-1" d="M539.24,145V139.5a2.26,2.26,0,0,0-.47-1.56,1.94,1.94,0,0,0-1.5-.52,2.46,2.46,0,0,0-2,.73,3.68,3.68,0,0,0-.62,2.39V145h-1.3v-8.57h1.06l.21,1.18h.06a2.61,2.61,0,0,1,1.12-1,3.51,3.51,0,0,1,1.6-.35,3.29,3.29,0,0,1,2.33.74,3.2,3.2,0,0,1,.78,2.39V145Z"/><path class="cls-1" d="M549,143.89H549a3,3,0,0,1-2.69,1.3,3.16,3.16,0,0,1-2.61-1.15,5,5,0,0,1-.93-3.26,5.17,5.17,0,0,1,.93-3.29,3.17,3.17,0,0,1,2.61-1.17,3.14,3.14,0,0,1,2.68,1.26h.1L549,137l0-.6v-3.49h1.3V145H549.2Zm-2.59.22a2.34,2.34,0,0,0,1.92-.73,3.62,3.62,0,0,0,.6-2.33v-.27a4.35,4.35,0,0,0-.6-2.6,2.31,2.31,0,0,0-1.94-.78,2,2,0,0,0-1.74.89,4.36,4.36,0,0,0-.61,2.5,4.24,4.24,0,0,0,.6,2.48A2,2,0,0,0,546.44,144.11Z"/><path class="cls-1" d="M6.32,153.84a3.74,3.74,0,0,0-3,1.25,5.05,5.05,0,0,0-1.09,3.44A5.16,5.16,0,0,0,3.31,162a3.71,3.71,0,0,0,3,1.22A10.09,10.09,0,0,0,9,162.78V164a8.57,8.57,0,0,1-2.93.44,5,5,0,0,1-3.89-1.53,6.27,6.27,0,0,1-1.37-4.35,6.83,6.83,0,0,1,.66-3.09,4.72,4.72,0,0,1,1.9-2,5.77,5.77,0,0,1,2.94-.72,7.08,7.08,0,0,1,3.14.66l-.57,1.14A6,6,0,0,0,6.32,153.84Z"/><path class="cls-1" d="M10,155.67h1.39l1.87,4.89A17.63,17.63,0,0,1,14,163h.06c.07-.26.21-.72.43-1.36s.92-2.62,2.12-5.94H18l-3.68,9.75A4.73,4.73,0,0,1,13,167.47a2.66,2.66,0,0,1-1.79.61,5.06,5.06,0,0,1-1.17-.13v-1a4.61,4.61,0,0,0,1,.09A2,2,0,0,0,13,165.5l.47-1.22Z"/><path class="cls-1" d="M23.3,155.52a5.23,5.23,0,0,1,1,.09l-.18,1.2a4.94,4.94,0,0,0-.94-.11,2.27,2.27,0,0,0-1.77.84,3,3,0,0,0-.74,2.1v4.6h-1.3v-8.57h1.07l.15,1.59h.06A3.73,3.73,0,0,1,21.82,156,2.61,2.61,0,0,1,23.3,155.52Z"/><path class="cls-1" d="M25.81,153.35a.89.89,0,0,1,.22-.65.77.77,0,0,1,.55-.21.73.73,0,0,1,.54.22.83.83,0,0,1,.22.64.88.88,0,0,1-.22.66A.81.81,0,0,1,26,154,.92.92,0,0,1,25.81,153.35Zm1.41,10.89h-1.3v-8.57h1.3Z"/><path class="cls-1" d="M31.27,164.24H30V152.08h1.3Z"/><path class="cls-1" d="M35.31,164.24H34V152.08h1.29Z"/><path class="cls-1" d="M38,153.35a.89.89,0,0,1,.22-.65.77.77,0,0,1,.55-.21.73.73,0,0,1,.54.22.83.83,0,0,1,.22.64.88.88,0,0,1-.22.66.81.81,0,0,1-1.09,0A.92.92,0,0,1,38,153.35Zm1.41,10.89h-1.3v-8.57h1.3Z"/><path class="cls-1" d="M45.53,164.39a3.66,3.66,0,0,1-2.88-1.14,4.7,4.7,0,0,1-1-3.24,4.86,4.86,0,0,1,1-3.32,3.73,3.73,0,0,1,2.95-1.17,5.71,5.71,0,0,1,1.23.13,4.1,4.1,0,0,1,1,.31l-.4,1.1a5.78,5.78,0,0,0-.94-.28,3.78,3.78,0,0,0-.89-.11c-1.74,0-2.61,1.11-2.61,3.32a4,4,0,0,0,.63,2.43,2.24,2.24,0,0,0,1.89.84,5.75,5.75,0,0,0,2.2-.46V164A4.82,4.82,0,0,1,45.53,164.39Z"/><path class="cls-1" d="M57.3,164.39a3.66,3.66,0,0,1-2.87-1.14,4.7,4.7,0,0,1-1-3.24,4.85,4.85,0,0,1,1-3.32,3.73,3.73,0,0,1,3-1.17,5.87,5.87,0,0,1,1.24.13,4,4,0,0,1,1,.31l-.39,1.1a6.1,6.1,0,0,0-.94-.28,3.92,3.92,0,0,0-.9-.11c-1.74,0-2.61,1.11-2.61,3.32a4,4,0,0,0,.64,2.43,2.2,2.2,0,0,0,1.88.84,5.71,5.71,0,0,0,2.2-.46V164A4.79,4.79,0,0,1,57.3,164.39Z"/><path class="cls-1" d="M67.36,164.24V158.7a2.25,2.25,0,0,0-.48-1.57,1.93,1.93,0,0,0-1.49-.51,2.43,2.43,0,0,0-2,.73,3.71,3.71,0,0,0-.62,2.41v4.48H61.5V152.08h1.3v3.68a6.76,6.76,0,0,1-.07,1.1h.08a2.71,2.71,0,0,1,1.09-1,3.51,3.51,0,0,1,1.62-.36,3.28,3.28,0,0,1,2.35.75,3.16,3.16,0,0,1,.79,2.37v5.59Z"/><path class="cls-1" d="M76.59,164.24,76.33,163h-.06A3.74,3.74,0,0,1,75,164.11a3.94,3.94,0,0,1-1.59.28,2.9,2.9,0,0,1-2-.65,2.4,2.4,0,0,1-.72-1.87q0-2.6,4.15-2.72l1.45-.05v-.53a2.17,2.17,0,0,0-.43-1.49,1.79,1.79,0,0,0-1.39-.48,5.63,5.63,0,0,0-2.42.66l-.4-1a6.32,6.32,0,0,1,2.9-.74,3.28,3.28,0,0,1,2.27.68,2.86,2.86,0,0,1,.74,2.18v5.85Zm-2.93-.92a2.65,2.65,0,0,0,1.9-.66,2.45,2.45,0,0,0,.69-1.86V160l-1.3.05a4.83,4.83,0,0,0-2.23.48,1.46,1.46,0,0,0-.68,1.32,1.37,1.37,0,0,0,.42,1.08A1.83,1.83,0,0,0,73.66,163.32Z"/><path class="cls-1" d="M84.13,155.52a5.3,5.3,0,0,1,1,.09l-.18,1.2a5,5,0,0,0-.94-.11,2.31,2.31,0,0,0-1.78.84,3.07,3.07,0,0,0-.73,2.1v4.6h-1.3v-8.57h1.07l.15,1.59h.06A3.73,3.73,0,0,1,82.65,156,2.61,2.61,0,0,1,84.13,155.52Z"/><path class="cls-1" d="M92,164.24,91.76,163H91.7a3.74,3.74,0,0,1-1.28,1.09,3.94,3.94,0,0,1-1.59.28,2.9,2.9,0,0,1-2-.65,2.4,2.4,0,0,1-.72-1.87q0-2.6,4.15-2.72l1.45-.05v-.53a2.17,2.17,0,0,0-.43-1.49,1.79,1.79,0,0,0-1.39-.48,5.63,5.63,0,0,0-2.42.66l-.4-1a6.32,6.32,0,0,1,2.9-.74,3.28,3.28,0,0,1,2.27.68,2.86,2.86,0,0,1,.74,2.18v5.85Zm-2.93-.92a2.65,2.65,0,0,0,1.9-.66,2.45,2.45,0,0,0,.69-1.86V160l-1.3.05a4.83,4.83,0,0,0-2.23.48,1.46,1.46,0,0,0-.68,1.32,1.37,1.37,0,0,0,.42,1.08A1.83,1.83,0,0,0,89.09,163.32Z"/><path class="cls-1" d="M99.07,164.39a3.66,3.66,0,0,1-2.88-1.14,4.7,4.7,0,0,1-1-3.24,4.86,4.86,0,0,1,1-3.32,3.73,3.73,0,0,1,3-1.17,5.71,5.71,0,0,1,1.23.13,4.1,4.1,0,0,1,1,.31l-.4,1.1a6.1,6.1,0,0,0-.94-.28,3.84,3.84,0,0,0-.89-.11c-1.74,0-2.61,1.11-2.61,3.32a4,4,0,0,0,.63,2.43,2.24,2.24,0,0,0,1.89.84,5.7,5.7,0,0,0,2.19-.46V164A4.74,4.74,0,0,1,99.07,164.39Z"/><path class="cls-1" d="M106,163.32a3.71,3.71,0,0,0,.67,0,4.83,4.83,0,0,0,.5-.1v1a2.4,2.4,0,0,1-.62.17,5.12,5.12,0,0,1-.74.06c-1.65,0-2.48-.87-2.48-2.61v-5.1h-1.23v-.62l1.23-.54.55-1.83h.75v2h2.48v1h-2.48v5a1.76,1.76,0,0,0,.36,1.19A1.3,1.3,0,0,0,106,163.32Z"/><path class="cls-1" d="M112.53,164.39a3.93,3.93,0,0,1-3-1.15,4.44,4.44,0,0,1-1.1-3.21,5,5,0,0,1,1-3.29,3.36,3.36,0,0,1,2.74-1.22,3.2,3.2,0,0,1,2.54,1.06,4,4,0,0,1,.94,2.79v.82h-5.9a3.43,3.43,0,0,0,.76,2.29,2.64,2.64,0,0,0,2,.78,6.8,6.8,0,0,0,2.73-.58v1.16a6.3,6.3,0,0,1-1.3.42A7,7,0,0,1,112.53,164.39Zm-.35-7.79a2.09,2.09,0,0,0-1.64.68,3.09,3.09,0,0,0-.73,1.85h4.48a2.8,2.8,0,0,0-.55-1.87A1.9,1.9,0,0,0,112.18,156.6Z"/><path class="cls-1" d="M121.8,155.52a5.23,5.23,0,0,1,1,.09l-.18,1.2a4.94,4.94,0,0,0-.94-.11,2.27,2.27,0,0,0-1.77.84,3,3,0,0,0-.74,2.1v4.6h-1.3v-8.57H119l.15,1.59h.06a3.73,3.73,0,0,1,1.15-1.29A2.61,2.61,0,0,1,121.8,155.52Z"/><path class="cls-1" d="M134.1,161.9a2.14,2.14,0,0,1-.89,1.84,4.13,4.13,0,0,1-2.5.65,5.47,5.47,0,0,1-2.66-.54v-1.2a6.6,6.6,0,0,0,1.33.49,5.47,5.47,0,0,0,1.36.18,3.13,3.13,0,0,0,1.56-.32,1.12,1.12,0,0,0,.12-1.85,7.33,7.33,0,0,0-1.69-.84,8.65,8.65,0,0,1-1.7-.77,2.26,2.26,0,0,1-.75-.76,1.88,1.88,0,0,1-.25-1,2,2,0,0,1,.85-1.66,4,4,0,0,1,2.34-.6,6.91,6.91,0,0,1,2.7.56l-.46,1a6.29,6.29,0,0,0-2.33-.53,2.76,2.76,0,0,0-1.4.29.89.89,0,0,0-.46.8,1,1,0,0,0,.17.59,1.87,1.87,0,0,0,.57.46,14.73,14.73,0,0,0,1.5.63,5.62,5.62,0,0,1,2.06,1.12A2,2,0,0,1,134.1,161.9Z"/><path class="cls-1" d="M139.83,164.39a3.93,3.93,0,0,1-3-1.15,4.48,4.48,0,0,1-1.1-3.21,5,5,0,0,1,1-3.29,3.38,3.38,0,0,1,2.74-1.22,3.22,3.22,0,0,1,2.55,1.06,4.06,4.06,0,0,1,.94,2.79v.82h-5.9a3.38,3.38,0,0,0,.76,2.29,2.64,2.64,0,0,0,2,.78,6.8,6.8,0,0,0,2.73-.58v1.16a6.3,6.3,0,0,1-1.3.42A7,7,0,0,1,139.83,164.39Zm-.35-7.79a2.13,2.13,0,0,0-1.65.68,3,3,0,0,0-.72,1.85h4.48a2.86,2.86,0,0,0-.55-1.87A1.93,1.93,0,0,0,139.48,156.6Z"/><path class="cls-1" d="M148,163.32a3.71,3.71,0,0,0,.67,0c.21,0,.38-.07.51-.1v1a2.63,2.63,0,0,1-.63.17,5.1,5.1,0,0,1-.73.06q-2.49,0-2.49-2.61v-5.1h-1.23v-.62l1.23-.54.55-1.83h.75v2h2.48v1h-2.48v5a1.71,1.71,0,0,0,.37,1.19A1.28,1.28,0,0,0,148,163.32Z"/><path class="cls-1" d="M156.36,161.9a2.14,2.14,0,0,1-.89,1.84,4.13,4.13,0,0,1-2.5.65,5.44,5.44,0,0,1-2.66-.54v-1.2a6.38,6.38,0,0,0,1.33.49,5.47,5.47,0,0,0,1.36.18,3.13,3.13,0,0,0,1.56-.32,1.07,1.07,0,0,0,.55-1,1.11,1.11,0,0,0-.43-.86,7.46,7.46,0,0,0-1.7-.84,8.78,8.78,0,0,1-1.69-.77,2.26,2.26,0,0,1-.75-.76,1.88,1.88,0,0,1-.25-1,1.93,1.93,0,0,1,.85-1.66,4,4,0,0,1,2.34-.6,6.91,6.91,0,0,1,2.7.56l-.46,1a6.3,6.3,0,0,0-2.34-.53,2.72,2.72,0,0,0-1.39.29.9.9,0,0,0-.47.8,1,1,0,0,0,.18.59,1.75,1.75,0,0,0,.57.46,14.73,14.73,0,0,0,1.5.63,5.47,5.47,0,0,1,2,1.12A1.94,1.94,0,0,1,156.36,161.9Z"/><path class="cls-1" d="M158.28,163.41a1.13,1.13,0,0,1,.24-.79.87.87,0,0,1,.68-.27.93.93,0,0,1,.71.27,1.36,1.36,0,0,1,0,1.57,1,1,0,0,1-1.37,0A1.11,1.11,0,0,1,158.28,163.41Z"/></g></g></svg>