<svg xmlns="http://www.w3.org/2000/svg" viewBox="0 0 483.69 134.26"><defs><style>.cls-1{fill:#707070;}</style></defs><title>coAsset 33</title><g id="Layer_2" data-name="Layer 2"><g id="Layer_1-2" data-name="Layer 1"><path class="cls-1" d="M1.26,1.68A2.21,2.21,0,0,0,1.06.62.81.81,0,0,0,.28.28H0V0H1.26A1.8,1.8,0,0,1,2,.13a.8.8,0,0,1,.37.49,3.87,3.87,0,0,1,.11,1.06V9.24H1.26Z"/><path class="cls-1" d="M5.64,8.92A2.82,2.82,0,0,1,4.58,7.69,4,4,0,0,1,4.21,6a4,4,0,0,1,.37-1.74A2.82,2.82,0,0,1,5.64,3a2.92,2.92,0,0,1,1.65-.46A2.94,2.94,0,0,1,9,3,2.89,2.89,0,0,1,10,4.21,4.17,4.17,0,0,1,10.37,6,4.17,4.17,0,0,1,10,7.69,2.89,2.89,0,0,1,9,8.92a2.94,2.94,0,0,1-1.66.46A2.92,2.92,0,0,1,5.64,8.92Zm2.57-.48a2.49,2.49,0,0,0,.62-1A4.81,4.81,0,0,0,9,6a4.81,4.81,0,0,0-.21-1.46,2.49,2.49,0,0,0-.62-1,1.31,1.31,0,0,0-.92-.38,1.29,1.29,0,0,0-.91.38,2.49,2.49,0,0,0-.62,1,5,5,0,0,0,0,2.92,2.49,2.49,0,0,0,.62,1,1.29,1.29,0,0,0,.91.38A1.31,1.31,0,0,0,8.21,8.44Z"/><path class="cls-1" d="M12.2,11.52a1.8,1.8,0,0,1-.83-1.65,1.6,1.6,0,0,1,.43-1.12,2.55,2.55,0,0,1,1.11-.7.92.92,0,0,1-.56-.84.67.67,0,0,1,.12-.43,2.1,2.1,0,0,1,.37-.34,1.86,1.86,0,0,1-.75-.7,2.06,2.06,0,0,1-.3-1.12c0-1.4.88-2.1,2.66-2.1H17v.35L16.13,3v.07a1.91,1.91,0,0,1,.7.62,1.56,1.56,0,0,1,.28.92c0,1.4-.89,2.1-2.66,2.1-1,0-1.47.16-1.47.49s.49.49,1.47.49a4.15,4.15,0,0,1,2.22.54,1.8,1.8,0,0,1,.86,1.63,1.78,1.78,0,0,1-.84,1.65,4.15,4.15,0,0,1-2.24.52A4.19,4.19,0,0,1,12.2,11.52Zm3.58-.44a1.48,1.48,0,0,0,.49-1.21c0-.93-.56-1.47-1.68-1.61l-.77-.07a1.91,1.91,0,0,0-.88.63,1.66,1.66,0,0,0-.31,1,1.45,1.45,0,0,0,.49,1.21,2,2,0,0,0,1.33.4A2,2,0,0,0,15.78,11.08Zm-.32-5.23a1.68,1.68,0,0,0,.39-1.23,1.67,1.67,0,0,0-.39-1.2,1.32,1.32,0,0,0-1-.41,1.38,1.38,0,0,0-1,.39,1.68,1.68,0,0,0-.38,1.22,1.72,1.72,0,0,0,.38,1.23,1.41,1.41,0,0,0,1,.38A1.37,1.37,0,0,0,15.46,5.85Z"/><path class="cls-1" d="M20,8.92a2.82,2.82,0,0,1-1.06-1.23A4,4,0,0,1,18.52,6a4,4,0,0,1,.37-1.74A2.82,2.82,0,0,1,20,3a2.92,2.92,0,0,1,1.65-.46A2.88,2.88,0,0,1,23.25,3a2.91,2.91,0,0,1,1.07,1.23A4.17,4.17,0,0,1,24.68,6a4.17,4.17,0,0,1-.36,1.74,2.91,2.91,0,0,1-1.07,1.23,2.88,2.88,0,0,1-1.65.46A2.92,2.92,0,0,1,20,8.92Zm2.57-.48a2.48,2.48,0,0,0,.61-1A4.52,4.52,0,0,0,23.35,6a4.52,4.52,0,0,0-.22-1.46,2.48,2.48,0,0,0-.61-1,1.31,1.31,0,0,0-.92-.38,1.33,1.33,0,0,0-.92.38,2.48,2.48,0,0,0-.61,1A4.52,4.52,0,0,0,19.85,6a4.52,4.52,0,0,0,.22,1.46,2.48,2.48,0,0,0,.61,1,1.33,1.33,0,0,0,.92.38A1.31,1.31,0,0,0,22.52,8.44Z"/><path class="cls-1" d="M26.17,11.2a2.89,2.89,0,0,0,.84-.83,2.07,2.07,0,0,0,.28-1.06l-.42.14a.75.75,0,0,1-.77-.77.81.81,0,0,1,.23-.6.82.82,0,0,1,.61-.24.87.87,0,0,1,.66.26,1,1,0,0,1,.25.72,2.81,2.81,0,0,1-1.54,2.59Z"/><path class="cls-1" d="M33.85,8.93a1.85,1.85,0,0,1-.45-1.37V3.22h-1V2.66h1V1.4l.7-.84h.56v2.1h1.68v.56H34.66V7.56c0,.84.33,1.26,1,1.26a1.85,1.85,0,0,0,.57-.07,2.81,2.81,0,0,0,.48-.21l.14.28a3.26,3.26,0,0,1-.71.4,2.74,2.74,0,0,1-1,.16A1.66,1.66,0,0,1,33.85,8.93Z"/><path class="cls-1" d="M38.08,4.34a2.21,2.21,0,0,0-.2-1.06.81.81,0,0,0-.78-.34h-.28V2.66h1.26a2,2,0,0,1,.78.13.8.8,0,0,1,.37.49,3.87,3.87,0,0,1,.11,1.06v4.9H38.08Zm0-2.79a.88.88,0,0,1-.23-.63A.64.64,0,0,1,38,.46a.68.68,0,0,1,.47-.17A.69.69,0,0,1,39,.56a.92.92,0,0,1,.24.63.59.59,0,0,1-.18.46.66.66,0,0,1-.47.17A.7.7,0,0,1,38.06,1.55Z"/><path class="cls-1" d="M42,8.93a1.85,1.85,0,0,1-.45-1.37V3.22h-1V2.66h1V1.4l.7-.84h.56v2.1h1.68v.56H42.84V7.56c0,.84.33,1.26,1,1.26a1.93,1.93,0,0,0,.57-.07,3.19,3.19,0,0,0,.48-.21l.14.28a3.51,3.51,0,0,1-.71.4,2.77,2.77,0,0,1-1,.16A1.66,1.66,0,0,1,42,8.93Z"/><path class="cls-1" d="M46.1,1.68A2.23,2.23,0,0,0,45.91.62a.84.84,0,0,0-.79-.34h-.28V0H46.1a1.74,1.74,0,0,1,.78.13.8.8,0,0,1,.37.49,3.87,3.87,0,0,1,.11,1.06V9.24H46.1Z"/><path class="cls-1" d="M50.39,8.92a2.83,2.83,0,0,1-1-1.23A4.42,4.42,0,0,1,49.06,6a4.49,4.49,0,0,1,.33-1.74,2.92,2.92,0,0,1,1-1.23,2.49,2.49,0,0,1,1.5-.46,2.63,2.63,0,0,1,2.1.79,3.39,3.39,0,0,1,.7,2.29l0,.56H50.39a3.34,3.34,0,0,0,.5,1.92,1.61,1.61,0,0,0,1.39.74,2.08,2.08,0,0,0,1.11-.28,3.21,3.21,0,0,0,.85-.84l.28.21A3.07,3.07,0,0,1,53.44,9,2.9,2.9,0,0,1,52,9.38,2.69,2.69,0,0,1,50.39,8.92ZM53.33,5.6A3.93,3.93,0,0,0,53,3.72a1.18,1.18,0,0,0-1.1-.64,1.06,1.06,0,0,0-.76.33,2.31,2.31,0,0,0-.53.9,4.32,4.32,0,0,0-.18,1.29Z"/><path class="cls-1" d="M56.11,11.2a2.89,2.89,0,0,0,.84-.83,2,2,0,0,0,.28-1.06l-.42.14a.75.75,0,0,1-.55-.22A.78.78,0,0,1,56,8.68a.82.82,0,0,1,.84-.84.9.9,0,0,1,.67.26,1,1,0,0,1,.24.72,2.79,2.79,0,0,1-1.54,2.59Z"/><path class="cls-1" d="M63.08,1.68A2.23,2.23,0,0,0,62.89.62.83.83,0,0,0,62.1.28h-.28V0h1.26a1.74,1.74,0,0,1,.78.13.77.77,0,0,1,.37.49,3.51,3.51,0,0,1,.11,1.06V3.22a2.44,2.44,0,0,1,.77-.5,2.69,2.69,0,0,1,1-.2,2.62,2.62,0,0,1,1.72.56,2.46,2.46,0,0,1,.66,2v4.2H67.28V5a2,2,0,0,0-.44-1.43,1.44,1.44,0,0,0-1.1-.46,1.9,1.9,0,0,0-1.4.74V9.24H63.08Z"/><path class="cls-1" d="M71.44,8.92a2.74,2.74,0,0,1-1-1.23A4.25,4.25,0,0,1,70.11,6a4.32,4.32,0,0,1,.34-1.74,2.84,2.84,0,0,1,1-1.23,2.44,2.44,0,0,1,1.49-.46A2.65,2.65,0,0,1,75,3.31a3.39,3.39,0,0,1,.69,2.29l0,.56H71.44a3.42,3.42,0,0,0,.5,1.92,1.61,1.61,0,0,0,1.39.74,2,2,0,0,0,1.11-.28,2.94,2.94,0,0,0,.85-.84l.28.21A3.07,3.07,0,0,1,74.49,9a2.9,2.9,0,0,1-1.44.35A2.73,2.73,0,0,1,71.44,8.92ZM74.38,5.6A3.94,3.94,0,0,0,74,3.72a1.19,1.19,0,0,0-1.11-.64,1.07,1.07,0,0,0-.76.33,2.3,2.3,0,0,0-.52.9,4,4,0,0,0-.19,1.29Z"/><path class="cls-1" d="M78,9.19a1.81,1.81,0,0,1-.79-.62,1.85,1.85,0,0,1-.33-1.15,1.54,1.54,0,0,1,1-1.51,6.22,6.22,0,0,1,2.58-.45h.42a3.36,3.36,0,0,0-.38-1.88,1.3,1.3,0,0,0-1.09-.5,1.7,1.7,0,0,0-1,.27,1.45,1.45,0,0,0-.53.92h-.63a4.72,4.72,0,0,1,.05-.75,1,1,0,0,1,.3-.51,1.61,1.61,0,0,1,.83-.37,6.3,6.3,0,0,1,1.27-.12,2.52,2.52,0,0,1,1.79.61,3.15,3.15,0,0,1,.66,2.33V9.24h-.7l-.49-.63h-.07a2,2,0,0,1-.74.55,3,3,0,0,1-1.22.22A2.32,2.32,0,0,1,78,9.19Zm2.31-.66a2.43,2.43,0,0,0,.56-.62V6h-.42a3,3,0,0,0-1.64.39,1.15,1.15,0,0,0-.6,1,1.28,1.28,0,0,0,.38,1,1.39,1.39,0,0,0,1,.34A1.27,1.27,0,0,0,80.29,8.53Z"/><path class="cls-1" d="M84.36,8.41A4.25,4.25,0,0,1,83.7,6a4.18,4.18,0,0,1,.68-2.46,2.27,2.27,0,0,1,2-1,3.73,3.73,0,0,1,.94.11,5.38,5.38,0,0,1,.81.31V1.68A2.23,2.23,0,0,0,87.92.62a.82.82,0,0,0-.79-.34h-.28V0h1.26a1.74,1.74,0,0,1,.78.13.77.77,0,0,1,.37.49,3.51,3.51,0,0,1,.11,1.06V9.24h-.7l-.49-.63h-.07a2.33,2.33,0,0,1-.72.56,2.6,2.6,0,0,1-1.17.21A2.09,2.09,0,0,1,84.36,8.41Zm3.15.2a2.61,2.61,0,0,0,.6-.63V3.5l-.72-.31a1.92,1.92,0,0,0-.61-.11,1.42,1.42,0,0,0-1.32.78A4.45,4.45,0,0,0,85,6,4.58,4.58,0,0,0,85.44,8a1.28,1.28,0,0,0,1.2.79A1.47,1.47,0,0,0,87.51,8.61Z"/><path class="cls-1" d="M91.45,1.68a2.21,2.21,0,0,0-.2-1.06.81.81,0,0,0-.78-.34h-.28V0h1.26a1.72,1.72,0,0,1,.77.13.74.74,0,0,1,.37.49,3.45,3.45,0,0,1,.12,1.06V9.24H91.45Z"/><path class="cls-1" d="M95,4.34a2.21,2.21,0,0,0-.2-1.06A.81.81,0,0,0,94,2.94h-.28V2.66H95a2,2,0,0,1,.78.13.8.8,0,0,1,.37.49,3.87,3.87,0,0,1,.11,1.06v4.9H95Zm0-2.79a.88.88,0,0,1-.23-.63.6.6,0,0,1,.17-.46.66.66,0,0,1,.47-.17.7.7,0,0,1,.55.27.91.91,0,0,1,.23.63.58.58,0,0,1-.17.46.66.66,0,0,1-.47.17A.7.7,0,0,1,95,1.55Z"/><path class="cls-1" d="M98.43,4.34a2.23,2.23,0,0,0-.19-1.06.84.84,0,0,0-.79-.34h-.28V2.66h1.26a1.8,1.8,0,0,1,.79.14.82.82,0,0,1,.4.42h.07a2.44,2.44,0,0,1,.77-.5,2.69,2.69,0,0,1,1.05-.2,2.62,2.62,0,0,1,1.72.56,2.46,2.46,0,0,1,.66,2v4.2h-1.26V5a2,2,0,0,0-.44-1.43,1.44,1.44,0,0,0-1.1-.46,1.9,1.9,0,0,0-1.4.74V9.24H98.43Z"/><path class="cls-1" d="M106.79,8.92a2.74,2.74,0,0,1-1-1.23A4.25,4.25,0,0,1,105.46,6a4.32,4.32,0,0,1,.34-1.74,2.77,2.77,0,0,1,1-1.23,2.44,2.44,0,0,1,1.49-.46,2.65,2.65,0,0,1,2.11.79,3.39,3.39,0,0,1,.69,2.29l0,.56h-4.24a3.42,3.42,0,0,0,.5,1.92,1.61,1.61,0,0,0,1.39.74,2,2,0,0,0,1.11-.28,2.94,2.94,0,0,0,.85-.84l.28.21A3.07,3.07,0,0,1,109.84,9a2.9,2.9,0,0,1-1.44.35A2.73,2.73,0,0,1,106.79,8.92Zm2.94-3.32a3.94,3.94,0,0,0-.36-1.88,1.2,1.2,0,0,0-1.11-.64,1.07,1.07,0,0,0-.76.33,2.18,2.18,0,0,0-.52.9,4,4,0,0,0-.19,1.29Z"/><path class="cls-1" d="M112.7,8.82a1,1,0,0,1-.3-.54,6.72,6.72,0,0,1-.05-.93h.28a1.68,1.68,0,0,0,.61,1.09,2.15,2.15,0,0,0,1.35.38,2,2,0,0,0,1.15-.27.81.81,0,0,0,.39-.71,1,1,0,0,0-.3-.7,3,3,0,0,0-1-.56L114,6.23a3.41,3.41,0,0,1-1.26-.78,1.57,1.57,0,0,1-.42-1.11A1.59,1.59,0,0,1,113,3a2.73,2.73,0,0,1,1.67-.48,3,3,0,0,1,2.1.56,1,1,0,0,1,.29.53,5.25,5.25,0,0,1,.06.94h-.28a1.7,1.7,0,0,0-.59-1.09,2.05,2.05,0,0,0-1.3-.38,1.73,1.73,0,0,0-1,.27.85.85,0,0,0-.37.71c0,.49.37.88,1.12,1.19l.84.35a4.27,4.27,0,0,1,1.38.83,1.55,1.55,0,0,1,.44,1.13,1.54,1.54,0,0,1-.69,1.34,3,3,0,0,1-1.76.48A3.11,3.11,0,0,1,112.7,8.82Z"/><path class="cls-1" d="M3.59,44.76a5,5,0,0,0-.45-2.42,1.89,1.89,0,0,0-1.79-.78H.71v-.64H9a11.61,11.61,0,0,1,5.53,1.31c1.65.88,2.47,2.57,2.47,5.09a5.38,5.38,0,0,1-1.28,3.84A6.31,6.31,0,0,1,12.88,53,10.63,10.63,0,0,1,10,53.4H6.47V62H3.59Zm7.45,7a5.1,5.1,0,0,0,0-9.18A5.23,5.23,0,0,0,8.87,42a10,10,0,0,0-2.4.32V52a10,10,0,0,0,2.4.32A5.23,5.23,0,0,0,11,51.75Z"/><path class="cls-1" d="M20.16,44.76a5.19,5.19,0,0,0-.44-2.42,1.9,1.9,0,0,0-1.8-.78h-.64v-.64h2.88a4.11,4.11,0,0,1,1.78.3,1.8,1.8,0,0,1,.85,1.11A8.59,8.59,0,0,1,23,44.76v3.52a5.53,5.53,0,0,1,1.75-1.14,6,6,0,0,1,2.41-.46A5.89,5.89,0,0,1,31.12,48c1,.85,1.52,2.35,1.52,4.48V62H29.76v-9.6a4.58,4.58,0,0,0-1-3.28,3.39,3.39,0,0,0-2.52-1,4.32,4.32,0,0,0-3.2,1.7V62H20.16Z"/><path class="cls-1" d="M37.57,50.84a5,5,0,0,0-.45-2.42,1.88,1.88,0,0,0-1.79-.78h-.64V47h2.88a4.11,4.11,0,0,1,1.78.3,1.86,1.86,0,0,1,.85,1.11,8.59,8.59,0,0,1,.25,2.43V62H37.57Zm0-6.37A2.11,2.11,0,0,1,37,43,1.36,1.36,0,0,1,37.4,42a1.45,1.45,0,0,1,1.07-.39,1.6,1.6,0,0,1,1.26.61,2.15,2.15,0,0,1,.53,1.44,1.39,1.39,0,0,1-.4,1.06,1.5,1.5,0,0,1-1.07.38A1.63,1.63,0,0,1,37.52,44.47Z"/><path class="cls-1" d="M45.35,44.76a5,5,0,0,0-.45-2.42,1.89,1.89,0,0,0-1.79-.78h-.64v-.64h2.88a4,4,0,0,1,1.77.3A1.77,1.77,0,0,1,48,42.33a8.52,8.52,0,0,1,.26,2.43V62H45.35Z"/><path class="cls-1" d="M55.36,61.32a6.64,6.64,0,0,1-2.43-2.83,9.91,9.91,0,0,1,0-7.94,6.64,6.64,0,0,1,2.43-2.83,7.37,7.37,0,0,1,7.55,0,6.66,6.66,0,0,1,2.44,2.83,9.91,9.91,0,0,1,0,7.94,6.66,6.66,0,0,1-2.44,2.83,7.37,7.37,0,0,1-7.55,0Zm5.87-1.1a5.63,5.63,0,0,0,1.41-2.37,11.34,11.34,0,0,0,0-6.66,5.63,5.63,0,0,0-1.41-2.37A3,3,0,0,0,59.14,48a3,3,0,0,0-2.1.86,5.63,5.63,0,0,0-1.41,2.37,11.56,11.56,0,0,0,0,6.66A5.63,5.63,0,0,0,57,60.22a3,3,0,0,0,2.1.86A3,3,0,0,0,61.23,60.22Z"/><path class="cls-1" d="M70,61.08a2.3,2.3,0,0,1-.68-1.23,13.64,13.64,0,0,1-.12-2.13h.64a3.9,3.9,0,0,0,1.39,2.48,4.8,4.8,0,0,0,3.09.88A4.64,4.64,0,0,0,77,60.47a1.9,1.9,0,0,0,.88-1.63,2.16,2.16,0,0,0-.69-1.6A6.92,6.92,0,0,0,75,56L73,55.16a8,8,0,0,1-2.88-1.79,3.56,3.56,0,0,1-1-2.53,3.62,3.62,0,0,1,1.47-3.06,6.22,6.22,0,0,1,3.81-1.1q3.51,0,4.8,1.28a2.36,2.36,0,0,1,.67,1.22,13.16,13.16,0,0,1,.13,2.14h-.64a3.81,3.81,0,0,0-1.35-2.48,4.57,4.57,0,0,0-3-.88,4,4,0,0,0-2.36.62,1.94,1.94,0,0,0-.84,1.62c0,1.11.85,2,2.56,2.72l1.92.8a9.63,9.63,0,0,1,3.16,1.9,3.52,3.52,0,0,1,1,2.58A3.56,3.56,0,0,1,79,61.26a6.9,6.9,0,0,1-4,1.1Q71.26,62.36,70,61.08Z"/><path class="cls-1" d="M86.59,61.32a6.71,6.71,0,0,1-2.43-2.83,9.91,9.91,0,0,1,0-7.94,6.71,6.71,0,0,1,2.43-2.83,7.39,7.39,0,0,1,7.56,0,6.71,6.71,0,0,1,2.43,2.83,9.91,9.91,0,0,1,0,7.94,6.71,6.71,0,0,1-2.43,2.83,7.39,7.39,0,0,1-7.56,0Zm5.88-1.1a5.72,5.72,0,0,0,1.4-2.37,11.34,11.34,0,0,0,0-6.66,5.72,5.72,0,0,0-1.4-2.37,3,3,0,0,0-4.2,0,5.72,5.72,0,0,0-1.4,2.37,11.34,11.34,0,0,0,0,6.66,5.72,5.72,0,0,0,1.4,2.37,3,3,0,0,0,4.2,0Z"/><path class="cls-1" d="M101.63,50.84a5.19,5.19,0,0,0-.44-2.42,1.9,1.9,0,0,0-1.8-.78h-.64V47h2.88a3.89,3.89,0,0,1,1.84.34,1.83,1.83,0,0,1,.88,1.1h.16a4.57,4.57,0,0,1,1.64-1.25,6.16,6.16,0,0,1,2.68-.51,4.84,4.84,0,0,1,4.26,2.22,9.86,9.86,0,0,1,1.5,5.62A9.53,9.53,0,0,1,113,60.15a5.18,5.18,0,0,1-4.53,2.21,8.09,8.09,0,0,1-2.14-.26,10.84,10.84,0,0,1-1.86-.7v6.72h-2.88Zm9,8.45a10,10,0,0,0,1-4.77,10.54,10.54,0,0,0-.92-4.75A3,3,0,0,0,107.87,48a3.78,3.78,0,0,0-3.36,1.92V60.12c.64.3,1.2.53,1.67.7a3.81,3.81,0,0,0,1.37.26A3.23,3.23,0,0,0,110.58,59.29Z"/><path class="cls-1" d="M118.37,44.76a5,5,0,0,0-.45-2.42,1.88,1.88,0,0,0-1.79-.78h-.64v-.64h2.88a4.11,4.11,0,0,1,1.78.3,1.79,1.79,0,0,1,.84,1.11,8.52,8.52,0,0,1,.26,2.43v3.52A5.59,5.59,0,0,1,123,47.14a6,6,0,0,1,2.42-.46A5.89,5.89,0,0,1,129.33,48c1,.85,1.52,2.35,1.52,4.48V62H128v-9.6a4.58,4.58,0,0,0-1-3.28,3.36,3.36,0,0,0-2.51-1,4.3,4.3,0,0,0-3.2,1.7V62h-2.88Z"/><path class="cls-1" d="M137.47,61.32a6.41,6.41,0,0,1-2.27-2.82,10.65,10.65,0,0,1,0-8,6.5,6.5,0,0,1,2.23-2.83,5.71,5.71,0,0,1,3.4-1,6.06,6.06,0,0,1,4.82,1.81,7.68,7.68,0,0,1,1.58,5.23L147.17,55h-9.7a7.63,7.63,0,0,0,1.16,4.38,3.62,3.62,0,0,0,3.16,1.7,4.76,4.76,0,0,0,2.55-.64,6.75,6.75,0,0,0,1.93-1.92l.64.48a6.91,6.91,0,0,1-2.46,2.56,6.61,6.61,0,0,1-3.3.8A6.35,6.35,0,0,1,137.47,61.32Zm6.72-7.6a8.81,8.81,0,0,0-.83-4.29A2.72,2.72,0,0,0,140.83,48a2.39,2.39,0,0,0-1.72.75,4.85,4.85,0,0,0-1.2,2.07,9.27,9.27,0,0,0-.44,2.94Z"/><path class="cls-1" d="M151.17,50.84a5,5,0,0,0-.45-2.42,1.88,1.88,0,0,0-1.79-.78h-.32V47h2.56a3.91,3.91,0,0,1,1.84.34,1.83,1.83,0,0,1,.88,1.1h.16a4.66,4.66,0,0,1,1.55-1.25,4.87,4.87,0,0,1,2.29-.51,3.2,3.2,0,0,1,1.92.48,4.78,4.78,0,0,1,1.12,1.44l-1.28,1a2.15,2.15,0,0,0-1-.72,4.57,4.57,0,0,0-1.54-.24,3.61,3.61,0,0,0-1.76.43,3.52,3.52,0,0,0-1.28,1.17V62h-2.88Z"/><path class="cls-1" d="M1.89,87a2.53,2.53,0,0,0-.22-1.21,1,1,0,0,0-.9-.39H.45v-.32H4.61a5.76,5.76,0,0,1,2.77.66,2.6,2.6,0,0,1,1.23,2.54A2.67,2.67,0,0,1,8,90.2a3.15,3.15,0,0,1-1.43.9,5.33,5.33,0,0,1-1.45.22H3.33v4.32H1.89Zm3.73,3.5a2.53,2.53,0,0,0,1-.84,2.8,2.8,0,0,0,0-2.92,2.53,2.53,0,0,0-1-.84,2.7,2.7,0,0,0-1.09-.26,4.84,4.84,0,0,0-1.2.16v4.8a4.84,4.84,0,0,0,1.2.16A2.7,2.7,0,0,0,5.62,90.5Z"/><path class="cls-1" d="M10.18,87A2.66,2.66,0,0,0,10,85.79a1,1,0,0,0-.9-.39H8.74v-.32h1.44a2.07,2.07,0,0,1,.89.15.86.86,0,0,1,.42.55A4.17,4.17,0,0,1,11.62,87v1.76a2.85,2.85,0,0,1,.87-.57A3.11,3.11,0,0,1,13.7,88a2.93,2.93,0,0,1,2,.64,2.79,2.79,0,0,1,.76,2.24v4.8H15v-4.8a2.31,2.31,0,0,0-.5-1.64,1.68,1.68,0,0,0-1.26-.52,2.13,2.13,0,0,0-1.6.85v6.11H10.18Z"/><path class="cls-1" d="M18.88,90a2.53,2.53,0,0,0-.22-1.21,1,1,0,0,0-.9-.39h-.32v-.32h1.44a2,2,0,0,1,.89.15.91.91,0,0,1,.43.55A4.62,4.62,0,0,1,20.32,90v5.6H18.88Zm0-3.18a1.07,1.07,0,0,1-.26-.72.67.67,0,0,1,.2-.53.72.72,0,0,1,.53-.19.8.8,0,0,1,.63.3,1,1,0,0,1,.27.72A.71.71,0,0,1,20,87a.74.74,0,0,1-.54.19A.82.82,0,0,1,18.86,86.86Z"/><path class="cls-1" d="M22.77,87a2.53,2.53,0,0,0-.22-1.21,1,1,0,0,0-.9-.39h-.32v-.32h1.44a2,2,0,0,1,.89.15.86.86,0,0,1,.42.55A4.17,4.17,0,0,1,24.21,87v8.64H22.77Z"/><path class="cls-1" d="M27.78,95.28a3.38,3.38,0,0,1-1.22-1.42,5,5,0,0,1,0-4,3.41,3.41,0,0,1,6.21,0,4.88,4.88,0,0,1,0,4,3.36,3.36,0,0,1-1.21,1.42,3.39,3.39,0,0,1-1.89.52A3.35,3.35,0,0,1,27.78,95.28Zm2.94-.55a2.87,2.87,0,0,0,.7-1.19,5.64,5.64,0,0,0,0-3.32,2.94,2.94,0,0,0-.7-1.19,1.49,1.49,0,0,0-1-.43,1.46,1.46,0,0,0-1.05.43,2.83,2.83,0,0,0-.7,1.19,5.64,5.64,0,0,0,0,3.32,2.77,2.77,0,0,0,.7,1.19,1.46,1.46,0,0,0,1.05.43A1.49,1.49,0,0,0,30.72,94.73Z"/><path class="cls-1" d="M35.09,95.16a1.23,1.23,0,0,1-.34-.62,6.66,6.66,0,0,1-.06-1.06H35a2,2,0,0,0,.7,1.24,2.41,2.41,0,0,0,1.54.44,2.34,2.34,0,0,0,1.32-.3A1,1,0,0,0,39,94a1.07,1.07,0,0,0-.34-.8,3.5,3.5,0,0,0-1.1-.64l-1-.4a3.92,3.92,0,0,1-1.44-.9A1.77,1.77,0,0,1,34.69,90a1.82,1.82,0,0,1,.74-1.53,3.06,3.06,0,0,1,1.9-.55,3.4,3.4,0,0,1,2.4.64,1.2,1.2,0,0,1,.34.61,6.72,6.72,0,0,1,.06,1.07h-.32A1.9,1.9,0,0,0,39.14,89a2.32,2.32,0,0,0-1.49-.44,2,2,0,0,0-1.18.31,1,1,0,0,0-.42.81c0,.56.43,1,1.28,1.36l1,.4a4.85,4.85,0,0,1,1.58,1,1.74,1.74,0,0,1,.5,1.29,1.78,1.78,0,0,1-.78,1.53,3.44,3.44,0,0,1-2,.55A3.54,3.54,0,0,1,35.09,95.16Z"/><path class="cls-1" d="M43.4,95.28a3.31,3.31,0,0,1-1.22-1.42,4.88,4.88,0,0,1,0-4A3.28,3.28,0,0,1,45.28,88a3.28,3.28,0,0,1,3.11,1.94,5,5,0,0,1,0,4,3.28,3.28,0,0,1-3.11,1.94A3.34,3.34,0,0,1,43.4,95.28Zm2.93-.55A2.88,2.88,0,0,0,47,93.54a5.86,5.86,0,0,0,0-3.32A3,3,0,0,0,46.33,89a1.46,1.46,0,0,0-1-.43,1.49,1.49,0,0,0-1.05.43,2.94,2.94,0,0,0-.7,1.19,5.64,5.64,0,0,0,0,3.32,2.87,2.87,0,0,0,.7,1.19,1.49,1.49,0,0,0,1.05.43A1.46,1.46,0,0,0,46.33,94.73Z"/><path class="cls-1" d="M50.92,90a2.51,2.51,0,0,0-.23-1.21,1,1,0,0,0-.9-.39h-.31v-.32h1.44a2,2,0,0,1,.91.17.88.88,0,0,1,.44.55h.08a2.43,2.43,0,0,1,.82-.62A3.09,3.09,0,0,1,54.52,88a2.42,2.42,0,0,1,2.12,1.11,4.92,4.92,0,0,1,.76,2.81,4.79,4.79,0,0,1-.78,2.82,2.61,2.61,0,0,1-2.27,1.1,3.87,3.87,0,0,1-1.07-.13,5,5,0,0,1-.93-.35v3.36H50.92Zm4.47,4.22a5,5,0,0,0,.49-2.38,5.25,5.25,0,0,0-.47-2.38A1.48,1.48,0,0,0,54,88.6a1.91,1.91,0,0,0-1.69,1v5.12a8.11,8.11,0,0,0,.84.35,1.87,1.87,0,0,0,.69.13A1.61,1.61,0,0,0,55.39,94.26Z"/><path class="cls-1" d="M59.28,87a2.53,2.53,0,0,0-.22-1.21,1,1,0,0,0-.9-.39h-.32v-.32h1.44a2,2,0,0,1,.89.15.86.86,0,0,1,.42.55A4.17,4.17,0,0,1,60.72,87v1.76A2.92,2.92,0,0,1,62.8,88a2.91,2.91,0,0,1,2,.64,2.79,2.79,0,0,1,.76,2.24v4.8H64.08v-4.8a2.27,2.27,0,0,0-.5-1.64,1.68,1.68,0,0,0-1.26-.52,2.14,2.14,0,0,0-1.6.85v6.11H59.28Z"/><path class="cls-1" d="M68.83,95.28a3.22,3.22,0,0,1-1.13-1.41,5.25,5.25,0,0,1,0-4,3.29,3.29,0,0,1,1.11-1.42,2.83,2.83,0,0,1,1.7-.52,3,3,0,0,1,2.41.9,3.87,3.87,0,0,1,.79,2.62l0,.64H68.83a3.83,3.83,0,0,0,.58,2.19,1.8,1.8,0,0,0,1.58.85,2.43,2.43,0,0,0,1.28-.32,3.24,3.24,0,0,0,1-1l.32.24a3.45,3.45,0,0,1-1.23,1.28,3.25,3.25,0,0,1-1.65.4A3.16,3.16,0,0,1,68.83,95.28Zm3.36-3.8a4.39,4.39,0,0,0-.41-2.14,1.37,1.37,0,0,0-1.27-.74,1.21,1.21,0,0,0-.86.38,2.4,2.4,0,0,0-.6,1,4.83,4.83,0,0,0-.22,1.47Z"/><path class="cls-1" d="M75.68,90a2.53,2.53,0,0,0-.22-1.21,1,1,0,0,0-.9-.39H74.4v-.32h1.28a2,2,0,0,1,.92.17.88.88,0,0,1,.44.55h.08a2.35,2.35,0,0,1,.78-.62A2.43,2.43,0,0,1,79,88a1.58,1.58,0,0,1,1,.24,2.39,2.39,0,0,1,.56.72l-.64.48a1,1,0,0,0-.51-.36,2.26,2.26,0,0,0-.77-.12,1.82,1.82,0,0,0-1.52.8v5.92H75.68Z"/><path class="cls-1" d="M86.35,90a3.69,3.69,0,0,0-.72-1.25,1.37,1.37,0,0,0-1-.4V88h.24l.32,0a2.72,2.72,0,0,1,1.53.44A3.12,3.12,0,0,1,87.87,90l1.36,3.36,1.36-3.44a4.12,4.12,0,0,0-.72-1.19,1.3,1.3,0,0,0-.88-.38V88h.24l.32,0a2.72,2.72,0,0,1,1.53.44A3.18,3.18,0,0,1,92.19,90l1.36,3.36,2.08-5.2h.8L93.31,95.8H93l-2-5-2,5h-.32Z"/><path class="cls-1" d="M98.64,95.58a2.06,2.06,0,0,1-1.28-2,1.77,1.77,0,0,1,1.13-1.73,7.23,7.23,0,0,1,3-.51h.48a3.76,3.76,0,0,0-.43-2.14,1.45,1.45,0,0,0-1.25-.58,2,2,0,0,0-1.15.3A1.75,1.75,0,0,0,98.48,90h-.72a4,4,0,0,1,.07-.86,1.15,1.15,0,0,1,.33-.58,1.87,1.87,0,0,1,1-.42,7.36,7.36,0,0,1,1.45-.14,2.87,2.87,0,0,1,2,.7,3.6,3.6,0,0,1,.75,2.66v4.32h-.8l-.56-.72h-.08a2.11,2.11,0,0,1-.85.62,3.32,3.32,0,0,1-1.39.26A2.63,2.63,0,0,1,98.64,95.58Zm2.64-.76a2.42,2.42,0,0,0,.64-.7V92h-.48a3.47,3.47,0,0,0-1.87.44,1.32,1.32,0,0,0-.69,1.16,1.45,1.45,0,0,0,.44,1.13,1.59,1.59,0,0,0,1.08.39A1.39,1.39,0,0,0,101.28,94.82Z"/><path class="cls-1" d="M105.62,95.16a1.16,1.16,0,0,1-.34-.62,6.66,6.66,0,0,1-.06-1.06h.32a2,2,0,0,0,.69,1.24,2.46,2.46,0,0,0,1.55.44,2.39,2.39,0,0,0,1.32-.3,1,1,0,0,0,.44-.82,1.08,1.08,0,0,0-.35-.8,3.43,3.43,0,0,0-1.09-.64l-1-.4a3.92,3.92,0,0,1-1.44-.9,1.77,1.77,0,0,1-.48-1.26,1.81,1.81,0,0,1,.73-1.53,3.09,3.09,0,0,1,1.91-.55,3.4,3.4,0,0,1,2.4.64,1.12,1.12,0,0,1,.33.61,5.49,5.49,0,0,1,.07,1.07h-.32a2,2,0,0,0-.67-1.24,2.34,2.34,0,0,0-1.49-.44,2,2,0,0,0-1.18.31,1,1,0,0,0-.42.81c0,.56.42,1,1.28,1.36l1,.4a5,5,0,0,1,1.58,1,1.78,1.78,0,0,1,.5,1.29,1.76,1.76,0,0,1-.79,1.53,3.39,3.39,0,0,1-2,.55A3.52,3.52,0,0,1,105.62,95.16Z"/><path class="cls-1" d="M116.75,95.16a1.15,1.15,0,0,1-.33-.62,6.39,6.39,0,0,1-.07-1.06h.32a2,2,0,0,0,.7,1.24,2.43,2.43,0,0,0,1.54.44,2.34,2.34,0,0,0,1.32-.3,1,1,0,0,0,.44-.82,1.07,1.07,0,0,0-.34-.8,3.5,3.5,0,0,0-1.1-.64l-1-.4a3.92,3.92,0,0,1-1.44-.9,1.77,1.77,0,0,1-.48-1.26,1.82,1.82,0,0,1,.74-1.53A3.06,3.06,0,0,1,119,88a3.37,3.37,0,0,1,2.4.64,1.07,1.07,0,0,1,.34.61,6.72,6.72,0,0,1,.06,1.07h-.32A1.9,1.9,0,0,0,120.8,89a2.32,2.32,0,0,0-1.49-.44,2,2,0,0,0-1.17.31,1,1,0,0,0-.43.81c0,.56.43,1,1.28,1.36l1,.4a4.91,4.91,0,0,1,1.59,1,1.91,1.91,0,0,1-.29,2.82,3.4,3.4,0,0,1-2,.55A3.55,3.55,0,0,1,116.75,95.16Z"/><path class="cls-1" d="M124.67,95.29a2.15,2.15,0,0,1-.51-1.57v-5H123v-.64h1.12V86.68l.8-1h.64v2.4h1.92v.64H125.6v5c0,1,.38,1.44,1.12,1.44a2.4,2.4,0,0,0,.65-.08,2.36,2.36,0,0,0,.55-.24l.16.32a4.25,4.25,0,0,1-.81.46,3.27,3.27,0,0,1-1.19.18A1.92,1.92,0,0,1,124.67,95.29Z"/><path class="cls-1" d="M130,95.58a2,2,0,0,1-1.28-2,1.76,1.76,0,0,1,1.13-1.73,7.2,7.2,0,0,1,2.95-.51h.48a3.85,3.85,0,0,0-.43-2.14,1.46,1.46,0,0,0-1.25-.58,2,2,0,0,0-1.15.3,1.75,1.75,0,0,0-.61,1.06h-.72a4.85,4.85,0,0,1,.06-.86,1.17,1.17,0,0,1,.34-.58,1.87,1.87,0,0,1,1-.42,7.28,7.28,0,0,1,1.45-.14,2.9,2.9,0,0,1,2.05.7,3.6,3.6,0,0,1,.75,2.66v4.32h-.8l-.56-.72h-.08a2.18,2.18,0,0,1-.85.62,3.35,3.35,0,0,1-1.39.26A2.63,2.63,0,0,1,130,95.58Zm2.64-.76a2.57,2.57,0,0,0,.64-.7V92h-.48a3.45,3.45,0,0,0-1.87.44,1.32,1.32,0,0,0-.69,1.16,1.41,1.41,0,0,0,.44,1.13,1.56,1.56,0,0,0,1.08.39A1.41,1.41,0,0,0,132.66,94.82Z"/><path class="cls-1" d="M137.09,90a2.53,2.53,0,0,0-.22-1.21,1,1,0,0,0-.9-.39h-.16v-.32h1.28a2,2,0,0,1,.92.17.92.92,0,0,1,.44.55h.08a2.35,2.35,0,0,1,.78-.62,2.4,2.4,0,0,1,1.14-.26,1.58,1.58,0,0,1,1,.24,2.39,2.39,0,0,1,.56.72l-.64.48a1.08,1.08,0,0,0-.51-.36,2.3,2.3,0,0,0-.77-.12,1.77,1.77,0,0,0-.88.22,1.71,1.71,0,0,0-.64.58v5.92h-1.44Z"/><path class="cls-1" d="M144.13,95.29a2.15,2.15,0,0,1-.51-1.57v-5H142.5v-.64h1.12V86.68l.8-1h.64v2.4H147v.64h-1.92v5c0,1,.37,1.44,1.12,1.44a2.46,2.46,0,0,0,.65-.08,2.56,2.56,0,0,0,.55-.24l.16.32a4.34,4.34,0,0,1-.82.46,3.22,3.22,0,0,1-1.18.18A1.91,1.91,0,0,1,144.13,95.29Z"/><path class="cls-1" d="M149.81,95.28a3.31,3.31,0,0,1-1.14-1.41,5.37,5.37,0,0,1,0-4,3.31,3.31,0,0,1,1.12-1.42,2.81,2.81,0,0,1,1.7-.52,3,3,0,0,1,2.41.9,3.87,3.87,0,0,1,.79,2.62l0,.64h-4.85a3.75,3.75,0,0,0,.58,2.19,1.8,1.8,0,0,0,1.58.85,2.39,2.39,0,0,0,1.27-.32,3.26,3.26,0,0,0,1-1l.32.24a3.45,3.45,0,0,1-1.23,1.28,3.25,3.25,0,0,1-1.65.4A3.12,3.12,0,0,1,149.81,95.28Zm3.36-3.8a4.38,4.38,0,0,0-.42-2.14,1.35,1.35,0,0,0-1.26-.74,1.19,1.19,0,0,0-.86.38,2.4,2.4,0,0,0-.6,1,4.54,4.54,0,0,0-.22,1.47Z"/><path class="cls-1" d="M156.87,94.7a5,5,0,0,1-.74-2.82,4.79,4.79,0,0,1,.78-2.82,2.59,2.59,0,0,1,2.26-1.1,3.87,3.87,0,0,1,1.07.13,5,5,0,0,1,.93.35V87a2.66,2.66,0,0,0-.22-1.21,1,1,0,0,0-.9-.39h-.32v-.32h1.44a2.07,2.07,0,0,1,.89.15.9.9,0,0,1,.42.55,4.17,4.17,0,0,1,.13,1.22v8.64h-.8l-.56-.72h-.08a2.8,2.8,0,0,1-.82.64,3,3,0,0,1-1.34.24A2.44,2.44,0,0,1,156.87,94.7Zm3.61.22a3.2,3.2,0,0,0,.69-.72V89.08c-.32-.15-.6-.27-.83-.35a2,2,0,0,0-.69-.13,1.6,1.6,0,0,0-1.51.9,4.9,4.9,0,0,0-.49,2.38,5.25,5.25,0,0,0,.46,2.38,1.48,1.48,0,0,0,1.38.9A1.68,1.68,0,0,0,160.48,94.92Z"/><path class="cls-1" d="M169.15,90a2.53,2.53,0,0,0-.22-1.21,1,1,0,0,0-.9-.39h-.32v-.32h1.44a2,2,0,0,1,.89.15.91.91,0,0,1,.43.55,4.62,4.62,0,0,1,.12,1.22v5.6h-1.44Zm0-3.18a1.07,1.07,0,0,1-.26-.72.67.67,0,0,1,.2-.53.72.72,0,0,1,.53-.19.8.8,0,0,1,.63.3,1,1,0,0,1,.27.72.71.71,0,0,1-.2.53.74.74,0,0,1-.54.19A.82.82,0,0,1,169.13,86.86Z"/><path class="cls-1" d="M173.09,90a2.51,2.51,0,0,0-.23-1.21.92.92,0,0,0-.89-.39h-.32v-.32h1.44a2,2,0,0,1,.9.16,1,1,0,0,1,.46.48h.08a2.85,2.85,0,0,1,.87-.57,3.11,3.11,0,0,1,1.21-.23,2.93,2.93,0,0,1,2,.64,2.79,2.79,0,0,1,.76,2.24v4.8h-1.44v-4.8a2.27,2.27,0,0,0-.51-1.64,1.65,1.65,0,0,0-1.25-.52,2.13,2.13,0,0,0-1.6.85v6.11h-1.44Z"/><path class="cls-1" d="M185.06,94.84l1.29-1.23c1.06-1,1.83-1.79,2.32-2.32a7,7,0,0,0,1.16-1.65,4,4,0,0,0,.43-1.84,2.47,2.47,0,0,0-.6-1.78,2,2,0,0,0-1.48-.62,2.35,2.35,0,0,0-1.69.7,3.68,3.68,0,0,0-1,2h-.32a10.54,10.54,0,0,1,.06-1.27,1.63,1.63,0,0,1,.32-.81,3.38,3.38,0,0,1,1.29-.91,4.29,4.29,0,0,1,1.77-.37,3.88,3.88,0,0,1,2.23.66,2.71,2.71,0,0,1,1,2.38,3.9,3.9,0,0,1-.48,1.89,6.94,6.94,0,0,1-1.21,1.64c-.5.5-1.2,1.16-2.11,2L186.18,95h3.6a2.27,2.27,0,0,0,1.48-.42,1.49,1.49,0,0,0,.52-1.26h.32v1c0,.85-.46,1.28-1.36,1.28h-5.68Z"/><path class="cls-1" d="M193.71,90.36q0-5.6,3.84-5.6t3.84,5.6q0,5.6-3.84,5.6T193.71,90.36Zm5.19,4.43a3.13,3.13,0,0,0,.69-1.61,20,20,0,0,0,0-5.64,3.13,3.13,0,0,0-.69-1.61,1.74,1.74,0,0,0-1.35-.53,1.77,1.77,0,0,0-1.35.53,3.3,3.3,0,0,0-.69,1.61,20,20,0,0,0,0,5.64,3.3,3.3,0,0,0,.69,1.61,1.77,1.77,0,0,0,1.35.53A1.74,1.74,0,0,0,198.9,94.79Z"/><path class="cls-1" d="M203.06,90.36q0-5.6,3.84-5.6t3.84,5.6q0,5.6-3.84,5.6T203.06,90.36Zm5.19,4.43a3.3,3.3,0,0,0,.69-1.61,20,20,0,0,0,0-5.64,3.3,3.3,0,0,0-.69-1.61,2,2,0,0,0-2.71,0,3.21,3.21,0,0,0-.68,1.61,20,20,0,0,0,0,5.64,3.21,3.21,0,0,0,.68,1.61,2,2,0,0,0,2.71,0Z"/><path class="cls-1" d="M213.36,95.28a2.27,2.27,0,0,1-1-2,2.37,2.37,0,0,1,.7-1.77,6.15,6.15,0,0,1,1.86-1.19,6.66,6.66,0,0,1-1.6-1.22,2.28,2.28,0,0,1-.56-1.58,2.36,2.36,0,0,1,.91-2.09,4.05,4.05,0,0,1,2.37-.63,4.17,4.17,0,0,1,2.37.61,2.15,2.15,0,0,1,.91,1.95,2.32,2.32,0,0,1-.56,1.54,4.24,4.24,0,0,1-1.44,1.1,12.92,12.92,0,0,1,1.26.85,3.36,3.36,0,0,1,.81.94,2.6,2.6,0,0,1,.33,1.33,2.45,2.45,0,0,1-1,2.18A4.6,4.6,0,0,1,216,96,4.75,4.75,0,0,1,213.36,95.28Zm4.17-.46a1.72,1.72,0,0,0,.63-1.42,2,2,0,0,0-.34-1.14,3.12,3.12,0,0,0-.85-.85,13.86,13.86,0,0,0-1.37-.81,3.87,3.87,0,0,0-1.3,1,2.64,2.64,0,0,0-.46,1.64,1.93,1.93,0,0,0,.62,1.55,2.32,2.32,0,0,0,1.54.53A2.4,2.4,0,0,0,217.53,94.82Zm-.08-6.18a2.48,2.48,0,0,0,.31-1.32A1.66,1.66,0,0,0,216,85.4a1.92,1.92,0,0,0-1.24.42,1.59,1.59,0,0,0-.52,1.34c0,.88.77,1.67,2.32,2.4A3.36,3.36,0,0,0,217.45,88.64Z"/><path class="cls-1" d="M226.34,95.58a2.08,2.08,0,0,1-.91-.71,2.12,2.12,0,0,1-.37-1.31,1.77,1.77,0,0,1,1.12-1.73,7.29,7.29,0,0,1,3-.51h.48a3.74,3.74,0,0,0-.44-2.14,1.43,1.43,0,0,0-1.24-.58,2,2,0,0,0-1.16.3,1.74,1.74,0,0,0-.6,1.06h-.72a4.85,4.85,0,0,1,.06-.86,1.17,1.17,0,0,1,.34-.58,1.87,1.87,0,0,1,.95-.42,7.21,7.21,0,0,1,1.45-.14,2.86,2.86,0,0,1,2,.7,3.55,3.55,0,0,1,.76,2.66v4.32h-.8l-.56-.72h-.08a2.26,2.26,0,0,1-.85.62,3.35,3.35,0,0,1-1.39.26A2.63,2.63,0,0,1,226.34,95.58Zm2.64-.76a2.74,2.74,0,0,0,.64-.7V92h-.48a3.51,3.51,0,0,0-1.88.44,1.33,1.33,0,0,0-.68,1.16,1.41,1.41,0,0,0,.44,1.13,1.56,1.56,0,0,0,1.08.39A1.41,1.41,0,0,0,229,94.82Z"/><path class="cls-1" d="M233.52,90a2.53,2.53,0,0,0-.22-1.21,1,1,0,0,0-.9-.39h-.32v-.32h1.44a1.93,1.93,0,0,1,.9.16,1,1,0,0,1,.46.48H235a3,3,0,0,1,.87-.57A3.11,3.11,0,0,1,237,88a2.93,2.93,0,0,1,2,.64,2.79,2.79,0,0,1,.76,2.24v4.8h-1.44v-4.8a2.31,2.31,0,0,0-.5-1.64,1.68,1.68,0,0,0-1.26-.52,2.14,2.14,0,0,0-1.6.85v6.11h-1.44Z"/><path class="cls-1" d="M242.33,94.7a4.93,4.93,0,0,1-.75-2.82,4.79,4.79,0,0,1,.78-2.82,2.6,2.6,0,0,1,2.26-1.1,3.9,3.9,0,0,1,1.08.13,5,5,0,0,1,.92.35V87a2.53,2.53,0,0,0-.22-1.21,1,1,0,0,0-.9-.39h-.32v-.32h1.44a2,2,0,0,1,.89.15.91.91,0,0,1,.43.55,4.62,4.62,0,0,1,.12,1.22v8.64h-.8l-.56-.72h-.08a2.56,2.56,0,0,1-.82.64,3,3,0,0,1-1.34.24A2.42,2.42,0,0,1,242.33,94.7Zm3.61.22a3.18,3.18,0,0,0,.68-.72V89.08a8,8,0,0,0-.83-.35,1.87,1.87,0,0,0-.69-.13,1.61,1.61,0,0,0-1.51.9,5,5,0,0,0-.49,2.38,5.25,5.25,0,0,0,.47,2.38,1.48,1.48,0,0,0,1.37.9A1.74,1.74,0,0,0,245.94,94.92Z"/><path class="cls-1" d="M255.18,95.29a2.15,2.15,0,0,1-.51-1.57v-5h-1.12v-.64h1.12V86.68l.8-1h.64v2.4H258v.64h-1.92v5c0,1,.38,1.44,1.12,1.44a2.4,2.4,0,0,0,.65-.08,2.36,2.36,0,0,0,.55-.24l.16.32a4.25,4.25,0,0,1-.81.46,3.27,3.27,0,0,1-1.19.18A1.92,1.92,0,0,1,255.18,95.29Z"/><path class="cls-1" d="M260.53,95.58a2,2,0,0,1-1.28-2,1.76,1.76,0,0,1,1.13-1.73,7.2,7.2,0,0,1,2.95-.51h.48a3.85,3.85,0,0,0-.43-2.14,1.46,1.46,0,0,0-1.25-.58,2,2,0,0,0-1.15.3,1.75,1.75,0,0,0-.61,1.06h-.72a4.85,4.85,0,0,1,.06-.86,1.17,1.17,0,0,1,.34-.58,1.87,1.87,0,0,1,.95-.42,7.28,7.28,0,0,1,1.45-.14,2.9,2.9,0,0,1,2.05.7,3.6,3.6,0,0,1,.75,2.66v4.32h-.8l-.56-.72h-.08a2.18,2.18,0,0,1-.85.62,3.35,3.35,0,0,1-1.39.26A2.63,2.63,0,0,1,260.53,95.58Zm2.64-.76a2.57,2.57,0,0,0,.64-.7V92h-.48a3.45,3.45,0,0,0-1.87.44,1.32,1.32,0,0,0-.69,1.16,1.41,1.41,0,0,0,.44,1.13,1.56,1.56,0,0,0,1.08.39A1.41,1.41,0,0,0,263.17,94.82Z"/><path class="cls-1" d="M270.83,94.52,268.91,92v3.68h-1.44V87a2.53,2.53,0,0,0-.22-1.21,1,1,0,0,0-.9-.39H266v-.32h1.44a2,2,0,0,1,.89.15.86.86,0,0,1,.42.55,4.17,4.17,0,0,1,.13,1.22v4.72l2-2.56a3.32,3.32,0,0,1,.88-.78,2.48,2.48,0,0,1,1.2-.26h.48v.4a2,2,0,0,0-.83.18,1.72,1.72,0,0,0-.69.54l-1.76,2.24,2,2.56a4.52,4.52,0,0,0,.87.91,2.08,2.08,0,0,0,.89.39v.3a1.84,1.84,0,0,1-.8.16A2.85,2.85,0,0,1,270.83,94.52Z"/><path class="cls-1" d="M275.74,95.28a3.22,3.22,0,0,1-1.13-1.41,5.25,5.25,0,0,1,0-4,3.22,3.22,0,0,1,1.11-1.42,2.81,2.81,0,0,1,1.7-.52,3,3,0,0,1,2.41.9,3.87,3.87,0,0,1,.79,2.62l0,.64h-4.85a3.83,3.83,0,0,0,.58,2.19,1.8,1.8,0,0,0,1.58.85,2.45,2.45,0,0,0,1.28-.32,3.36,3.36,0,0,0,1-1l.32.24a3.45,3.45,0,0,1-1.23,1.28,3.25,3.25,0,0,1-1.65.4A3.14,3.14,0,0,1,275.74,95.28Zm3.36-3.8a4.51,4.51,0,0,0-.41-2.14,1.37,1.37,0,0,0-1.27-.74,1.21,1.21,0,0,0-.86.38,2.4,2.4,0,0,0-.6,1,4.83,4.83,0,0,0-.22,1.47Z"/><path class="cls-1" d="M282.5,95.16a1.1,1.1,0,0,1-.34-.62,6.66,6.66,0,0,1-.06-1.06h.32a1.92,1.92,0,0,0,.69,1.24,2.44,2.44,0,0,0,1.55.44,2.39,2.39,0,0,0,1.32-.3,1,1,0,0,0,.44-.82,1.08,1.08,0,0,0-.35-.8A3.43,3.43,0,0,0,285,92.6l-1-.4a3.92,3.92,0,0,1-1.44-.9A1.77,1.77,0,0,1,282.1,90a1.81,1.81,0,0,1,.73-1.53,3.09,3.09,0,0,1,1.91-.55,3.4,3.4,0,0,1,2.4.64,1.12,1.12,0,0,1,.33.61,6.44,6.44,0,0,1,.07,1.07h-.32a1.91,1.91,0,0,0-.68-1.24,2.31,2.31,0,0,0-1.48-.44,2,2,0,0,0-1.18.31,1,1,0,0,0-.42.81c0,.56.42,1,1.28,1.36l1,.4a5,5,0,0,1,1.58,1,1.89,1.89,0,0,1-.29,2.82,3.39,3.39,0,0,1-2,.55A3.52,3.52,0,0,1,282.5,95.16Z"/><path class="cls-1" d="M293.84,90a2.53,2.53,0,0,0-.22-1.21,1,1,0,0,0-.9-.39h-.32v-.32h1.44a2.07,2.07,0,0,1,.89.15.9.9,0,0,1,.42.55,4.17,4.17,0,0,1,.13,1.22v5.6h-1.44Zm0-3.18a1.08,1.08,0,0,1-.27-.72.71.71,0,0,1,.2-.53.73.73,0,0,1,.54-.19.82.82,0,0,1,.63.3,1,1,0,0,1,.26.72.67.67,0,0,1-.2.53.72.72,0,0,1-.53.19A.8.8,0,0,1,293.82,86.86Z"/><path class="cls-1" d="M297.78,90a2.51,2.51,0,0,0-.23-1.21.94.94,0,0,0-.89-.39h-.32v-.32h1.44a2,2,0,0,1,.9.16,1,1,0,0,1,.46.48h.08a2.85,2.85,0,0,1,.87-.57A3.07,3.07,0,0,1,301.3,88a2.93,2.93,0,0,1,2,.64,2.82,2.82,0,0,1,.76,2.24v4.8h-1.44v-4.8a2.27,2.27,0,0,0-.51-1.64,1.65,1.65,0,0,0-1.25-.52,2.13,2.13,0,0,0-1.6.85v6.11h-1.44Z"/><path class="cls-1" d="M306.27,95.16a1.15,1.15,0,0,1-.33-.62,5.44,5.44,0,0,1-.07-1.06h.32a2,2,0,0,0,.7,1.24,2.43,2.43,0,0,0,1.54.44,2.34,2.34,0,0,0,1.32-.3,1,1,0,0,0,.44-.82,1.07,1.07,0,0,0-.34-.8,3.5,3.5,0,0,0-1.1-.64l-1-.4a3.92,3.92,0,0,1-1.44-.9,1.77,1.77,0,0,1-.48-1.26,1.82,1.82,0,0,1,.74-1.53,3.06,3.06,0,0,1,1.9-.55,3.4,3.4,0,0,1,2.4.64,1.2,1.2,0,0,1,.34.61,6.72,6.72,0,0,1,.06,1.07H311a1.9,1.9,0,0,0-.67-1.24,2.32,2.32,0,0,0-1.49-.44,2,2,0,0,0-1.17.31,1,1,0,0,0-.43.81c0,.56.43,1,1.28,1.36l1,.4a5,5,0,0,1,1.59,1,1.91,1.91,0,0,1-.29,2.82,3.44,3.44,0,0,1-2,.55A3.54,3.54,0,0,1,306.27,95.16Z"/><path class="cls-1" d="M313.62,90a2.51,2.51,0,0,0-.23-1.21.94.94,0,0,0-.89-.39h-.32v-.32h1.44a2,2,0,0,1,.92.17,1,1,0,0,1,.44.55h.08a2.29,2.29,0,0,1,.81-.62,3.09,3.09,0,0,1,1.35-.26,2.42,2.42,0,0,1,2.12,1.11,4.92,4.92,0,0,1,.76,2.81,4.79,4.79,0,0,1-.78,2.82,2.6,2.6,0,0,1-2.26,1.1,3.9,3.9,0,0,1-1.08-.13,4.69,4.69,0,0,1-.92-.35v3.36h-1.44Zm4.47,4.22a5,5,0,0,0,.49-2.38,5.25,5.25,0,0,0-.47-2.38,1.48,1.48,0,0,0-1.37-.9,1.88,1.88,0,0,0-1.68,1v5.12a8,8,0,0,0,.83.35,1.87,1.87,0,0,0,.69.13A1.61,1.61,0,0,0,318.09,94.26Z"/><path class="cls-1" d="M322.22,90a2.53,2.53,0,0,0-.22-1.21,1,1,0,0,0-.9-.39h-.32v-.32h1.44a2,2,0,0,1,.89.15.91.91,0,0,1,.43.55,4.62,4.62,0,0,1,.12,1.22v5.6h-1.44Zm0-3.18a1.07,1.07,0,0,1-.26-.72.67.67,0,0,1,.2-.53.72.72,0,0,1,.53-.19.8.8,0,0,1,.63.3,1,1,0,0,1,.27.72.71.71,0,0,1-.2.53.74.74,0,0,1-.54.19A.82.82,0,0,1,322.2,86.86Z"/><path class="cls-1" d="M326.05,90a2.51,2.51,0,0,0-.23-1.21.93.93,0,0,0-.89-.39h-.16v-.32h1.28a2,2,0,0,1,.92.17.92.92,0,0,1,.44.55h.08a2.42,2.42,0,0,1,.77-.62,2.47,2.47,0,0,1,1.15-.26,1.62,1.62,0,0,1,1,.24,2.56,2.56,0,0,1,.56.72l-.64.48a1.06,1.06,0,0,0-.52-.36,2.24,2.24,0,0,0-.76-.12,1.74,1.74,0,0,0-.88.22,1.71,1.71,0,0,0-.64.58v5.92h-1.44Z"/><path class="cls-1" d="M333,95.58a2.06,2.06,0,0,1-1.28-2,1.77,1.77,0,0,1,1.13-1.73,7.23,7.23,0,0,1,2.95-.51h.48a3.76,3.76,0,0,0-.43-2.14,1.45,1.45,0,0,0-1.25-.58,2,2,0,0,0-1.15.3,1.75,1.75,0,0,0-.61,1.06h-.72a4,4,0,0,1,.07-.86,1.15,1.15,0,0,1,.33-.58,1.87,1.87,0,0,1,.95-.42,7.36,7.36,0,0,1,1.45-.14,2.87,2.87,0,0,1,2.05.7,3.6,3.6,0,0,1,.75,2.66v4.32h-.8l-.56-.72h-.08a2.11,2.11,0,0,1-.85.62,3.32,3.32,0,0,1-1.39.26A2.63,2.63,0,0,1,333,95.58Zm2.64-.76a2.42,2.42,0,0,0,.64-.7V92h-.48a3.47,3.47,0,0,0-1.87.44,1.32,1.32,0,0,0-.69,1.16,1.45,1.45,0,0,0,.44,1.13,1.59,1.59,0,0,0,1.08.39A1.39,1.39,0,0,0,335.66,94.82Z"/><path class="cls-1" d="M340.78,95.29a2.15,2.15,0,0,1-.51-1.57v-5h-1.12v-.64h1.12V86.68l.8-1h.64v2.4h1.92v.64h-1.92v5c0,1,.37,1.44,1.12,1.44a2.4,2.4,0,0,0,.65-.08,2.56,2.56,0,0,0,.55-.24l.16.32a4.34,4.34,0,0,1-.82.46,3.18,3.18,0,0,1-1.18.18A1.91,1.91,0,0,1,340.78,95.29Z"/><path class="cls-1" d="M345.61,90a2.53,2.53,0,0,0-.22-1.21,1,1,0,0,0-.9-.39h-.32v-.32h1.44a2,2,0,0,1,.89.15.91.91,0,0,1,.43.55,4.62,4.62,0,0,1,.12,1.22v5.6h-1.44Zm0-3.18a1.07,1.07,0,0,1-.26-.72.67.67,0,0,1,.2-.53.72.72,0,0,1,.53-.19.8.8,0,0,1,.63.3,1,1,0,0,1,.27.72.71.71,0,0,1-.2.53.74.74,0,0,1-.54.19A.82.82,0,0,1,345.59,86.86Z"/><path class="cls-1" d="M350.51,95.28a3.38,3.38,0,0,1-1.22-1.42,5,5,0,0,1,0-4,3.41,3.41,0,0,1,6.21,0,4.88,4.88,0,0,1,0,4,3.36,3.36,0,0,1-1.21,1.42,3.39,3.39,0,0,1-1.89.52A3.35,3.35,0,0,1,350.51,95.28Zm2.94-.55a2.87,2.87,0,0,0,.7-1.19,5.64,5.64,0,0,0,0-3.32,2.94,2.94,0,0,0-.7-1.19,1.49,1.49,0,0,0-1.05-.43,1.46,1.46,0,0,0-1,.43,2.83,2.83,0,0,0-.7,1.19,5.64,5.64,0,0,0,0,3.32,2.77,2.77,0,0,0,.7,1.19,1.46,1.46,0,0,0,1,.43A1.49,1.49,0,0,0,353.45,94.73Z"/><path class="cls-1" d="M358,90a2.53,2.53,0,0,0-.22-1.21,1,1,0,0,0-.9-.39h-.32v-.32H358a2,2,0,0,1,.9.16,1,1,0,0,1,.46.48h.08a2.85,2.85,0,0,1,.87-.57,3.11,3.11,0,0,1,1.21-.23,2.93,2.93,0,0,1,2,.64,2.79,2.79,0,0,1,.76,2.24v4.8h-1.44v-4.8a2.31,2.31,0,0,0-.5-1.64,1.68,1.68,0,0,0-1.26-.52,2.13,2.13,0,0,0-1.6.85v6.11H358Z"/><path class="cls-1" d="M370.8,88.76h-1.12v-.64h1.12v-.48c0-1.81.93-2.72,2.8-2.72a2.66,2.66,0,0,1,1.36.24,2.39,2.39,0,0,1,.56.72l-.48.4a1.7,1.7,0,0,0-1.52-.72c-.86,0-1.28.69-1.28,2.08v.48h2.24v.64h-2.24v6.88H370.8Z"/><path class="cls-1" d="M376,90a2.53,2.53,0,0,0-.22-1.21,1,1,0,0,0-.9-.39h-.16v-.32H376a2,2,0,0,1,.92.17.88.88,0,0,1,.44.55h.08a2.44,2.44,0,0,1,1.92-.88,1.58,1.58,0,0,1,1,.24,2.24,2.24,0,0,1,.56.72l-.64.48a1,1,0,0,0-.51-.36,2.26,2.26,0,0,0-.77-.12,1.82,1.82,0,0,0-1.52.8v5.92H376Z"/><path class="cls-1" d="M383.29,95.28a3.29,3.29,0,0,1-1.21-1.42,4.88,4.88,0,0,1,0-4,3.29,3.29,0,0,1,1.21-1.42,3.39,3.39,0,0,1,1.89-.52,3.28,3.28,0,0,1,3.11,1.94,5,5,0,0,1,0,4,3.53,3.53,0,0,1-5,1.42Zm2.94-.55a2.77,2.77,0,0,0,.7-1.19,5.64,5.64,0,0,0,0-3.32,2.83,2.83,0,0,0-.7-1.19,1.46,1.46,0,0,0-1.05-.43,1.49,1.49,0,0,0-1.05.43,2.94,2.94,0,0,0-.7,1.19,5.64,5.64,0,0,0,0,3.32,2.87,2.87,0,0,0,.7,1.19,1.49,1.49,0,0,0,1.05.43A1.46,1.46,0,0,0,386.23,94.73Z"/><path class="cls-1" d="M390.81,90a2.53,2.53,0,0,0-.22-1.21,1,1,0,0,0-.9-.39h-.32v-.32h1.44a2,2,0,0,1,.91.16,1,1,0,0,1,.45.48h.08a3,3,0,0,1,2.08-.8,2.45,2.45,0,0,1,1.16.25,1.74,1.74,0,0,1,.76.87,2.82,2.82,0,0,1,1.07-.82,3.14,3.14,0,0,1,1.33-.3,2.15,2.15,0,0,1,1.64.64,3.27,3.27,0,0,1,.6,2.24v4.8h-1.44v-4.8a3.17,3.17,0,0,0-.32-1.66,1.06,1.06,0,0,0-1-.5,1.73,1.73,0,0,0-.94.33,2.41,2.41,0,0,0-.74.71,4.29,4.29,0,0,1,.08,1.12v4.8h-1.44v-4.8a3.17,3.17,0,0,0-.32-1.66,1.06,1.06,0,0,0-1-.5,2.14,2.14,0,0,0-1.6.85v6.11h-1.44Z"/><path class="cls-1" d="M414.41,95.3a3,3,0,0,1-1.2-1.66l-.4-1h-4.48l-1.28,3h-.72l4.48-10.56h.48l3.52,8.56a4.09,4.09,0,0,0,.76,1.27,1.59,1.59,0,0,0,1,.41v.32a2.49,2.49,0,0,1-.64.08A3.12,3.12,0,0,1,414.41,95.3ZM408.57,92h3.92l-1.92-4.64Z"/><path class="cls-1" d="M417.51,98.25a2.08,2.08,0,0,1-.95-1.89,1.83,1.83,0,0,1,.49-1.28,3,3,0,0,1,1.27-.8,1.05,1.05,0,0,1-.64-1,.82.82,0,0,1,.14-.5,3.37,3.37,0,0,1,.42-.38,2.19,2.19,0,0,1-.86-.8,2.33,2.33,0,0,1-.34-1.28c0-1.6,1-2.4,3-2.4h3v.4l-1,.16v.08a2.22,2.22,0,0,1,.81.71,1.9,1.9,0,0,1,.31,1c0,1.6-1,2.4-3,2.4-1.12,0-1.68.19-1.68.56s.56.56,1.68.56a4.69,4.69,0,0,1,2.53.62,2,2,0,0,1,1,1.86,2.08,2.08,0,0,1-1,1.89,4.91,4.91,0,0,1-2.57.59A4.86,4.86,0,0,1,417.51,98.25Zm4.09-.51a1.67,1.67,0,0,0,.56-1.38c0-1.07-.64-1.68-1.92-1.84l-.88-.08a2.21,2.21,0,0,0-1,.72,1.9,1.9,0,0,0-.35,1.2,1.65,1.65,0,0,0,.56,1.38,2.74,2.74,0,0,0,3,0Zm-.36-6a1.93,1.93,0,0,0,.44-1.4,2,2,0,0,0-.44-1.38,1.72,1.72,0,0,0-2.32,0,2.45,2.45,0,0,0,0,2.8,1.58,1.58,0,0,0,1.16.44A1.59,1.59,0,0,0,421.24,91.76Z"/><path class="cls-1" d="M425.47,88.76h-1.12v-.64h1.12v-.48c0-1.81.93-2.72,2.8-2.72a2.66,2.66,0,0,1,1.36.24,2.39,2.39,0,0,1,.56.72l-.48.4a1.7,1.7,0,0,0-1.52-.72c-.85,0-1.28.69-1.28,2.08v.48h2.24v.64h-2.24v6.88h-1.44Z"/><path class="cls-1" d="M431.31,95.58a2.11,2.11,0,0,1-.9-.71,2.06,2.06,0,0,1-.38-1.31,1.77,1.77,0,0,1,1.13-1.73,7.2,7.2,0,0,1,2.95-.51h.48a3.76,3.76,0,0,0-.43-2.14,1.46,1.46,0,0,0-1.25-.58,2,2,0,0,0-1.15.3,1.75,1.75,0,0,0-.61,1.06h-.72a4.85,4.85,0,0,1,.06-.86,1.25,1.25,0,0,1,.34-.58,1.87,1.87,0,0,1,.95-.42,7.28,7.28,0,0,1,1.45-.14,2.88,2.88,0,0,1,2,.7,3.6,3.6,0,0,1,.75,2.66v4.32h-.8l-.56-.72h-.08a2.18,2.18,0,0,1-.85.62,3.35,3.35,0,0,1-1.39.26A2.63,2.63,0,0,1,431.31,95.58Zm2.64-.76a2.57,2.57,0,0,0,.64-.7V92h-.48a3.47,3.47,0,0,0-1.87.44,1.32,1.32,0,0,0-.69,1.16,1.45,1.45,0,0,0,.44,1.13,1.56,1.56,0,0,0,1.08.39A1.41,1.41,0,0,0,434,94.82Z"/><path class="cls-1" d="M448.36,95.3a6.7,6.7,0,0,1-1.4-1.82l-1.6-2.72h-1.12v4.88H442.8V87a2.51,2.51,0,0,0-.23-1.21.93.93,0,0,0-.89-.39h-.32v-.32h4.16a6.27,6.27,0,0,1,2.76.6A2.3,2.3,0,0,1,449.52,88c0,1.42-.86,2.33-2.56,2.72l1.68,2.8a5.5,5.5,0,0,0,1.06,1.38,1.94,1.94,0,0,0,1.1.46v.32a2.14,2.14,0,0,1-.41.11,3.31,3.31,0,0,1-.55,0A2.32,2.32,0,0,1,448.36,95.3ZM446.52,90a2.42,2.42,0,0,0,1-.75,2,2,0,0,0,.41-1.25,2,2,0,0,0-.41-1.3,2.39,2.39,0,0,0-1-.77,2.71,2.71,0,0,0-1.08-.25,4.72,4.72,0,0,0-1.2.16V90a4.72,4.72,0,0,0,1.2.16A2.87,2.87,0,0,0,446.52,90Z"/><path class="cls-1" d="M452.86,95.28a3.29,3.29,0,0,1-1.21-1.42,4.88,4.88,0,0,1,0-4,3.29,3.29,0,0,1,1.21-1.42,3.35,3.35,0,0,1,1.89-.52,3.39,3.39,0,0,1,1.89.52,3.29,3.29,0,0,1,1.21,1.42,4.88,4.88,0,0,1,0,4,3.29,3.29,0,0,1-1.21,1.42,3.39,3.39,0,0,1-1.89.52A3.35,3.35,0,0,1,452.86,95.28Zm2.94-.55a2.77,2.77,0,0,0,.7-1.19,5.64,5.64,0,0,0,0-3.32,2.83,2.83,0,0,0-.7-1.19,1.49,1.49,0,0,0-1.05-.43,1.48,1.48,0,0,0-1.05.43,2.83,2.83,0,0,0-.7,1.19,5.64,5.64,0,0,0,0,3.32,2.77,2.77,0,0,0,.7,1.19,1.48,1.48,0,0,0,1.05.43A1.49,1.49,0,0,0,455.8,94.73Z"/><path class="cls-1" d="M461,95.29a2.15,2.15,0,0,1-.52-1.57v-5h-1.12v-.64h1.12V86.68l.8-1h.64v2.4h1.93v.64h-1.93v5c0,1,.38,1.44,1.12,1.44a2.18,2.18,0,0,0,1.2-.32l.16.32a4,4,0,0,1-.81.46,3.24,3.24,0,0,1-1.19.18A1.9,1.9,0,0,1,461,95.29Z"/><path class="cls-1" d="M465.79,90a2.51,2.51,0,0,0-.23-1.21.92.92,0,0,0-.89-.39h-.32v-.32h1.44a2.07,2.07,0,0,1,.89.15.9.9,0,0,1,.42.55,4.17,4.17,0,0,1,.13,1.22v5.6h-1.44Zm0-3.18a1.08,1.08,0,0,1-.27-.72.71.71,0,0,1,.2-.53.73.73,0,0,1,.54-.19.82.82,0,0,1,.63.3,1,1,0,0,1,.26.72.67.67,0,0,1-.2.53.72.72,0,0,1-.53.19A.8.8,0,0,1,465.77,86.86Z"/><path class="cls-1" d="M469.52,95.16a1.16,1.16,0,0,1-.34-.62,6.66,6.66,0,0,1-.06-1.06h.32a1.92,1.92,0,0,0,.69,1.24,2.46,2.46,0,0,0,1.55.44,2.39,2.39,0,0,0,1.32-.3,1,1,0,0,0,.44-.82,1.08,1.08,0,0,0-.35-.8A3.43,3.43,0,0,0,472,92.6l-1-.4a3.92,3.92,0,0,1-1.44-.9,1.77,1.77,0,0,1-.48-1.26,1.81,1.81,0,0,1,.73-1.53,3.09,3.09,0,0,1,1.91-.55,3.4,3.4,0,0,1,2.4.64,1.12,1.12,0,0,1,.33.61,6.44,6.44,0,0,1,.07,1.07h-.32a1.91,1.91,0,0,0-.68-1.24,2.29,2.29,0,0,0-1.48-.44,2,2,0,0,0-1.18.31,1,1,0,0,0-.42.81c0,.56.42,1,1.28,1.36l1,.4a5,5,0,0,1,1.58,1,1.89,1.89,0,0,1-.29,2.82,3.39,3.39,0,0,1-2,.55A3.52,3.52,0,0,1,469.52,95.16Z"/><path class="cls-1" d="M2.1,114.78a2.11,2.11,0,0,1-.9-.71,2.06,2.06,0,0,1-.38-1.31A1.77,1.77,0,0,1,2,111a7.2,7.2,0,0,1,3-.51h.48A3.74,3.74,0,0,0,5,108.38a1.46,1.46,0,0,0-1.25-.58,2,2,0,0,0-1.15.3,1.75,1.75,0,0,0-.61,1.06H1.22a4.85,4.85,0,0,1,.06-.86,1.25,1.25,0,0,1,.34-.58,1.87,1.87,0,0,1,.95-.42A7.28,7.28,0,0,1,4,107.16a2.88,2.88,0,0,1,2.05.7,3.6,3.6,0,0,1,.75,2.66v4.32H6l-.56-.72H5.38a2.11,2.11,0,0,1-.85.62,3.35,3.35,0,0,1-1.39.26A2.63,2.63,0,0,1,2.1,114.78ZM4.74,114a2.57,2.57,0,0,0,.64-.7v-2.16H4.9A3.47,3.47,0,0,0,3,111.6a1.32,1.32,0,0,0-.69,1.16,1.45,1.45,0,0,0,.44,1.13,1.56,1.56,0,0,0,1.08.39A1.48,1.48,0,0,0,4.74,114Z"/><path class="cls-1" d="M9.28,109.24A2.53,2.53,0,0,0,9.06,108a1,1,0,0,0-.9-.39H7.84v-.32H9.28a2,2,0,0,1,.91.16,1,1,0,0,1,.45.48h.08a3,3,0,0,1,2.08-.8,2.91,2.91,0,0,1,2,.64,2.79,2.79,0,0,1,.76,2.24v4.8H14.08V110a2.27,2.27,0,0,0-.5-1.64,1.68,1.68,0,0,0-1.26-.52,2.14,2.14,0,0,0-1.6.85v6.11H9.28Z"/><path class="cls-1" d="M18.09,113.9a5,5,0,0,1-.74-2.82,4.86,4.86,0,0,1,.77-2.82,2.62,2.62,0,0,1,2.27-1.1,3.87,3.87,0,0,1,1.07.13,5,5,0,0,1,.93.35V106.2a2.51,2.51,0,0,0-.23-1.21.93.93,0,0,0-.89-.39H21v-.32h1.44a2.07,2.07,0,0,1,.89.15.93.93,0,0,1,.42.55,4.54,4.54,0,0,1,.13,1.22v8.64H23l-.56-.72h-.08a2.72,2.72,0,0,1-.83.64,3,3,0,0,1-1.33.24A2.44,2.44,0,0,1,18.09,113.9Zm3.61.22a3.43,3.43,0,0,0,.69-.72v-5.12c-.32-.15-.6-.27-.83-.35a2,2,0,0,0-.69-.13,1.62,1.62,0,0,0-1.52.9,5,5,0,0,0-.48,2.38,5.25,5.25,0,0,0,.46,2.38,1.48,1.48,0,0,0,1.38.9A1.7,1.7,0,0,0,21.7,114.12Z"/><path class="cls-1" d="M31,114.69a.91.91,0,0,1-.43-.55,4.54,4.54,0,0,1-.13-1.22v-8.64h1.44v8.64a2.51,2.51,0,0,0,.23,1.21.94.94,0,0,0,.89.39h.32v.32H31.84A2,2,0,0,1,31,114.69Z"/><path class="cls-1" d="M37.54,104.92H36.1c-1.33,0-2,.61-2,1.84h-.32v-1.2c0-.85.45-1.28,1.36-1.28h7.44v.64H39v9.92H37.54Z"/><path class="cls-1" d="M45.16,114.44a4.7,4.7,0,0,1-1.73-2,6.14,6.14,0,0,1-.61-2.76,6.43,6.43,0,0,1,.66-2.9,5.43,5.43,0,0,1,1.81-2.09,4.38,4.38,0,0,1,2.49-.77,6.48,6.48,0,0,1,2.25.36,3.37,3.37,0,0,1,1.43.92,1.75,1.75,0,0,1,.34.89,14.76,14.76,0,0,1,.06,1.51h-.32a4.12,4.12,0,0,0-1.12-2.3,3.09,3.09,0,0,0-2.16-.74,3.47,3.47,0,0,0-2.78,1.22,5.85,5.85,0,0,0-1.06,3.9,6.67,6.67,0,0,0,.41,2.35,3.89,3.89,0,0,0,1.27,1.77,3.42,3.42,0,0,0,2.16.68,3.71,3.71,0,0,0,2-.56,5.1,5.1,0,0,0,1.56-1.68l.32.24a4.66,4.66,0,0,1-1.82,2,5.23,5.23,0,0,1-2.58.6A4.79,4.79,0,0,1,45.16,114.44Z"/><path class="cls-1" d="M58.45,106.2a2.53,2.53,0,0,0-.22-1.21,1,1,0,0,0-.9-.39H57v-.32h4.16a7.28,7.28,0,0,1,3,.58,2.19,2.19,0,0,1,1.29,2.22,2.07,2.07,0,0,1-.51,1.36,3.3,3.3,0,0,1-1.57,1,3.57,3.57,0,0,1,2.06.87,2.39,2.39,0,0,1,.58,1.69,2.29,2.29,0,0,1-1.27,2.25,7,7,0,0,1-3.13.63h-3.2Zm3,3a3.05,3.05,0,0,0,1.24-.25,2.23,2.23,0,0,0,1-.73A1.89,1.89,0,0,0,64,107a1.76,1.76,0,0,0-.43-1.21,2.64,2.64,0,0,0-1.1-.72,4.16,4.16,0,0,0-1.35-.23,4.84,4.84,0,0,0-1.2.16v4.16Zm2.25,4.54a1.91,1.91,0,0,0,.79-1.66,1.94,1.94,0,0,0-.77-1.66,3.75,3.75,0,0,0-2.27-.58H59.89v4.26a5.37,5.37,0,0,0,1.52.22A3.74,3.74,0,0,0,63.66,113.7Z"/><path class="cls-1" d="M68.1,109.24a2.66,2.66,0,0,0-.22-1.21,1,1,0,0,0-.9-.39h-.32v-.32H68.1a2.07,2.07,0,0,1,.89.15.9.9,0,0,1,.42.55,4.17,4.17,0,0,1,.13,1.22v5.6H68.1Zm0-3.18a1.08,1.08,0,0,1-.27-.72.71.71,0,0,1,.2-.53.73.73,0,0,1,.54-.19.82.82,0,0,1,.63.3,1.08,1.08,0,0,1,.26.72.69.69,0,0,1-.2.53.72.72,0,0,1-.53.19A.8.8,0,0,1,68.08,106.06Z"/><path class="cls-1" d="M72,109.24a2.51,2.51,0,0,0-.23-1.21.94.94,0,0,0-.89-.39H70.6v-.32H72a2,2,0,0,1,.9.16,1,1,0,0,1,.46.48h.08a2.85,2.85,0,0,1,.87-.57,3.07,3.07,0,0,1,1.21-.23,3,3,0,0,1,2,.64,2.82,2.82,0,0,1,.75,2.24v4.8H76.83V110a2.27,2.27,0,0,0-.5-1.64,1.65,1.65,0,0,0-1.25-.52,2.13,2.13,0,0,0-1.6.85v6.11H72Z"/><path class="cls-1" d="M81.25,114.78a2.06,2.06,0,0,1-1.28-2A1.77,1.77,0,0,1,81.1,111a7.2,7.2,0,0,1,3-.51h.48a3.74,3.74,0,0,0-.43-2.14,1.46,1.46,0,0,0-1.25-.58,2,2,0,0,0-1.15.3,1.75,1.75,0,0,0-.61,1.06h-.72a4.85,4.85,0,0,1,.06-.86,1.25,1.25,0,0,1,.34-.58,1.87,1.87,0,0,1,1-.42,7.36,7.36,0,0,1,1.45-.14,2.88,2.88,0,0,1,2,.7,3.6,3.6,0,0,1,.75,2.66v4.32h-.8l-.56-.72h-.08a2.11,2.11,0,0,1-.85.62,3.32,3.32,0,0,1-1.39.26A2.63,2.63,0,0,1,81.25,114.78Zm2.64-.76a2.42,2.42,0,0,0,.64-.7v-2.16h-.48a3.47,3.47,0,0,0-1.87.44,1.32,1.32,0,0,0-.69,1.16,1.45,1.45,0,0,0,.44,1.13,1.56,1.56,0,0,0,1.08.39A1.46,1.46,0,0,0,83.89,114Z"/><path class="cls-1" d="M88.32,109.24A2.53,2.53,0,0,0,88.1,108a1,1,0,0,0-.9-.39H87v-.32h1.28a2,2,0,0,1,.92.17.88.88,0,0,1,.44.55h.08a2.23,2.23,0,0,1,.78-.62,2.43,2.43,0,0,1,1.14-.26,1.58,1.58,0,0,1,1,.24,2.39,2.39,0,0,1,.56.72l-.64.48a1.08,1.08,0,0,0-.51-.36,2.26,2.26,0,0,0-.77-.12,1.77,1.77,0,0,0-.88.22,1.7,1.7,0,0,0-.64.58v5.92H88.32Z"/><path class="cls-1" d="M95.07,117.56a2.14,2.14,0,0,0,1.29-.36,2.75,2.75,0,0,0,.87-1.32l.32-.88L95,108.76a1.93,1.93,0,0,0-1.76-1.28v-.32h1.36a1.92,1.92,0,0,1,1.92,1.28l1.83,4.43,2-5.55h.8L98,115.88a4,4,0,0,1-1,1.71,2.25,2.25,0,0,1-1.46.45h-.48Z"/><path class="cls-1" d="M102.29,114.81a.86.86,0,0,1-.26-.63.89.89,0,0,1,.87-.86.87.87,0,0,1,.86.86.85.85,0,0,1-.25.63.84.84,0,0,1-.61.25A.82.82,0,0,1,102.29,114.81Z"/><path class="cls-1" d="M112.75,104.92h-1.44c-1.33,0-2,.61-2,1.84H109v-1.2c0-.85.46-1.28,1.36-1.28h7.44v.64h-3.6v9.92h-1.44Z"/><path class="cls-1" d="M119.65,106.2a2.66,2.66,0,0,0-.22-1.21,1,1,0,0,0-.9-.39h-.32v-.32h1.44a2.07,2.07,0,0,1,.89.15.9.9,0,0,1,.42.55,4.17,4.17,0,0,1,.13,1.22V108a2.85,2.85,0,0,1,.87-.57,3.11,3.11,0,0,1,1.21-.23,2.93,2.93,0,0,1,2,.64,2.79,2.79,0,0,1,.76,2.24v4.8h-1.44V110a2.31,2.31,0,0,0-.5-1.64,1.68,1.68,0,0,0-1.26-.52,2.13,2.13,0,0,0-1.6.85v6.11h-1.44Z"/><path class="cls-1" d="M128.35,109.24a2.53,2.53,0,0,0-.22-1.21,1,1,0,0,0-.9-.39h-.32v-.32h1.44a2,2,0,0,1,.89.15.91.91,0,0,1,.43.55,4.62,4.62,0,0,1,.12,1.22v5.6h-1.44Zm0-3.18a1.07,1.07,0,0,1-.26-.72.67.67,0,0,1,.2-.53.72.72,0,0,1,.53-.19.8.8,0,0,1,.63.3,1,1,0,0,1,.27.72.72.72,0,0,1-.2.53.74.74,0,0,1-.54.19A.82.82,0,0,1,128.33,106.06Z"/><path class="cls-1" d="M132.08,114.36a1.15,1.15,0,0,1-.33-.62,5.51,5.51,0,0,1-.07-1.06H132a2,2,0,0,0,.7,1.24,2.43,2.43,0,0,0,1.54.44,2.34,2.34,0,0,0,1.32-.3,1,1,0,0,0,.44-.82,1.07,1.07,0,0,0-.34-.8,3.5,3.5,0,0,0-1.1-.64l-1-.4a3.92,3.92,0,0,1-1.44-.9,1.77,1.77,0,0,1-.48-1.26,1.82,1.82,0,0,1,.74-1.53,3.06,3.06,0,0,1,1.9-.55,3.4,3.4,0,0,1,2.4.64,1.2,1.2,0,0,1,.34.61,6.72,6.72,0,0,1,.06,1.07h-.32a1.9,1.9,0,0,0-.67-1.24,2.32,2.32,0,0,0-1.49-.44,1.91,1.91,0,0,0-1.17.31,1,1,0,0,0-.43.81c0,.55.43,1,1.28,1.36l1,.4a5,5,0,0,1,1.59.95,1.91,1.91,0,0,1-.29,2.82,3.44,3.44,0,0,1-2,.55A3.54,3.54,0,0,1,132.08,114.36Z"/><path class="cls-1" d="M143.49,108h-1.12v-.64h1.12v-.48c0-1.81.93-2.72,2.8-2.72a2.63,2.63,0,0,1,1.36.24,2.39,2.39,0,0,1,.56.72l-.48.4a1.7,1.7,0,0,0-1.52-.72c-.85,0-1.28.69-1.28,2.08v.48h2.24V108h-2.24v6.88h-1.44Z"/><path class="cls-1" d="M149.59,114.48a3.31,3.31,0,0,1-1.22-1.42,4.88,4.88,0,0,1,0-4,3.28,3.28,0,0,1,3.1-1.94,3.28,3.28,0,0,1,3.11,1.94,5,5,0,0,1,0,4,3.28,3.28,0,0,1-3.11,1.94A3.34,3.34,0,0,1,149.59,114.48Zm2.93-.55a2.78,2.78,0,0,0,.71-1.19,5.86,5.86,0,0,0,0-3.32,2.84,2.84,0,0,0-.71-1.19,1.48,1.48,0,0,0-2.09,0,2.84,2.84,0,0,0-.71,1.19,5.64,5.64,0,0,0,0,3.32,2.78,2.78,0,0,0,.71,1.19,1.48,1.48,0,0,0,2.09,0Z"/><path class="cls-1" d="M157.11,109.24a2.51,2.51,0,0,0-.23-1.21.94.94,0,0,0-.89-.39h-.32v-.32h1.44a2,2,0,0,1,.9.16,1,1,0,0,1,.46.48h.08a2.85,2.85,0,0,1,.87-.57,3.07,3.07,0,0,1,1.21-.23,2.93,2.93,0,0,1,2,.64,2.82,2.82,0,0,1,.76,2.24v4.8h-1.44V110a2.27,2.27,0,0,0-.51-1.64,1.65,1.65,0,0,0-1.25-.52,2.13,2.13,0,0,0-1.6.85v6.11h-1.44Z"/><path class="cls-1" d="M166.39,114.49a2.11,2.11,0,0,1-.52-1.57v-5h-1.12v-.64h1.12v-1.44l.8-1h.64v2.4h1.92V108h-1.92v5c0,1,.38,1.44,1.12,1.44a2.18,2.18,0,0,0,1.2-.32l.16.32a4,4,0,0,1-.81.46,3.27,3.27,0,0,1-1.19.18A1.9,1.9,0,0,1,166.39,114.49Z"/><path class="cls-1" d="M175.22,109.24A2.51,2.51,0,0,0,175,108a.93.93,0,0,0-.89-.39h-.32v-.32h1.44a2,2,0,0,1,.88.15.91.91,0,0,1,.43.55,4.54,4.54,0,0,1,.13,1.22v5.6h-1.44Zm0-3.18a1.12,1.12,0,0,1-.26-.72.71.71,0,0,1,.2-.53.73.73,0,0,1,.54-.19.82.82,0,0,1,.63.3,1.08,1.08,0,0,1,.26.72.67.67,0,0,1-.73.72A.83.83,0,0,1,175.19,106.06Z"/><path class="cls-1" d="M179,114.36a1.1,1.1,0,0,1-.34-.62,6.75,6.75,0,0,1-.06-1.06h.32a1.92,1.92,0,0,0,.69,1.24,2.44,2.44,0,0,0,1.55.44,2.39,2.39,0,0,0,1.32-.3,1,1,0,0,0,.44-.82,1.08,1.08,0,0,0-.35-.8,3.43,3.43,0,0,0-1.09-.64l-1-.4a3.92,3.92,0,0,1-1.44-.9,1.77,1.77,0,0,1-.48-1.26,1.81,1.81,0,0,1,.73-1.53,3.09,3.09,0,0,1,1.91-.55,3.4,3.4,0,0,1,2.4.64,1.12,1.12,0,0,1,.33.61,6.44,6.44,0,0,1,.07,1.07h-.32a1.91,1.91,0,0,0-.68-1.24,2.31,2.31,0,0,0-1.48-.44,1.93,1.93,0,0,0-1.18.31,1,1,0,0,0-.42.81c0,.55.42,1,1.28,1.36l1,.4a5,5,0,0,1,1.58.95,1.89,1.89,0,0,1-.29,2.82,3.39,3.39,0,0,1-2,.55A3.52,3.52,0,0,1,179,114.36Z"/><path class="cls-1" d="M190.83,114.36a2.79,2.79,0,0,1-.77-2.24v-2.88a2.53,2.53,0,0,0-.22-1.21,1,1,0,0,0-.9-.39h-.15v-.32h1.27a2,2,0,0,1,.89.15.91.91,0,0,1,.43.55,4.62,4.62,0,0,1,.12,1.22v2.88a2.27,2.27,0,0,0,.51,1.64,1.67,1.67,0,0,0,1.26.52,2.13,2.13,0,0,0,1.59-.85v-6.11h1.45v7.52h-.81l-.56-.64h-.08a2.85,2.85,0,0,1-.87.57,3.06,3.06,0,0,1-1.2.23A2.89,2.89,0,0,1,190.83,114.36Z"/><path class="cls-1" d="M198.85,109.24a2.51,2.51,0,0,0-.23-1.21.92.92,0,0,0-.89-.39h-.32v-.32h1.44a2,2,0,0,1,.9.16,1,1,0,0,1,.46.48h.08a2.85,2.85,0,0,1,.87-.57,3.11,3.11,0,0,1,1.21-.23,2.93,2.93,0,0,1,2,.64,2.82,2.82,0,0,1,.76,2.24v4.8h-1.44V110a2.27,2.27,0,0,0-.51-1.64,1.65,1.65,0,0,0-1.25-.52,2.13,2.13,0,0,0-1.6.85v6.11h-1.44Z"/><path class="cls-1" d="M207.55,109.24a2.53,2.53,0,0,0-.22-1.21,1,1,0,0,0-.9-.39h-.32v-.32h1.44a2,2,0,0,1,.89.15.86.86,0,0,1,.42.55,4.17,4.17,0,0,1,.13,1.22v5.6h-1.44Zm0-3.18a1.08,1.08,0,0,1-.27-.72.71.71,0,0,1,.2-.53.76.76,0,0,1,.54-.19.8.8,0,0,1,.63.3,1,1,0,0,1,.27.72.72.72,0,0,1-.2.53.76.76,0,0,1-.54.19A.81.81,0,0,1,207.53,106.06Z"/><path class="cls-1" d="M211.68,109.16a4.23,4.23,0,0,0-.74-1.26,1.32,1.32,0,0,0-.92-.39v-.32h.23l.31,0a2.9,2.9,0,0,1,1.54.42,3.41,3.41,0,0,1,1.18,1.58l1.44,3.44,2.24-5.28h.8L214.48,115h-.32Z"/><path class="cls-1" d="M220.16,114.48a3.31,3.31,0,0,1-1.14-1.41,5.37,5.37,0,0,1,0-4,3.31,3.31,0,0,1,1.12-1.42,2.81,2.81,0,0,1,1.7-.52,3,3,0,0,1,2.41.9,3.87,3.87,0,0,1,.79,2.62l0,.64h-4.85a3.75,3.75,0,0,0,.58,2.19,1.8,1.8,0,0,0,1.58.85,2.39,2.39,0,0,0,1.27-.32,3.26,3.26,0,0,0,1-1l.32.24a3.45,3.45,0,0,1-1.23,1.28,3.25,3.25,0,0,1-1.65.4A3.12,3.12,0,0,1,220.16,114.48Zm3.36-3.8a4.38,4.38,0,0,0-.42-2.14,1.33,1.33,0,0,0-1.26-.74,1.19,1.19,0,0,0-.86.38,2.4,2.4,0,0,0-.6,1,4.54,4.54,0,0,0-.22,1.47Z"/><path class="cls-1" d="M227,109.24a2.51,2.51,0,0,0-.23-1.21.93.93,0,0,0-.89-.39h-.16v-.32H227a2,2,0,0,1,.92.17.92.92,0,0,1,.44.55h.08a2.29,2.29,0,0,1,.77-.62,2.47,2.47,0,0,1,1.15-.26,1.62,1.62,0,0,1,1,.24,2.39,2.39,0,0,1,.56.72l-.64.48a1.08,1.08,0,0,0-.51-.36,2.3,2.3,0,0,0-.77-.12,1.74,1.74,0,0,0-.88.22,1.63,1.63,0,0,0-.64.58v5.92H227Z"/><path class="cls-1" d="M233.26,114.36a1.15,1.15,0,0,1-.33-.62,6.48,6.48,0,0,1-.07-1.06h.32a2,2,0,0,0,.7,1.24,2.43,2.43,0,0,0,1.54.44,2.34,2.34,0,0,0,1.32-.3,1,1,0,0,0,.44-.82,1.07,1.07,0,0,0-.34-.8,3.38,3.38,0,0,0-1.1-.64l-1-.4a3.92,3.92,0,0,1-1.44-.9,1.77,1.77,0,0,1-.48-1.26,1.82,1.82,0,0,1,.74-1.53,3.08,3.08,0,0,1,1.9-.55,3.37,3.37,0,0,1,2.4.64,1.07,1.07,0,0,1,.34.61,6.72,6.72,0,0,1,.06,1.07H238a1.9,1.9,0,0,0-.67-1.24,2.32,2.32,0,0,0-1.49-.44,1.91,1.91,0,0,0-1.17.31,1,1,0,0,0-.43.81c0,.55.43,1,1.28,1.36l1,.4a4.91,4.91,0,0,1,1.59.95,1.91,1.91,0,0,1-.29,2.82,3.4,3.4,0,0,1-2,.55A3.55,3.55,0,0,1,233.26,114.36Z"/><path class="cls-1" d="M241.12,114.78a2.06,2.06,0,0,1-1.28-2A1.77,1.77,0,0,1,241,111a7.2,7.2,0,0,1,2.95-.51h.48a3.74,3.74,0,0,0-.43-2.14,1.46,1.46,0,0,0-1.25-.58,2,2,0,0,0-1.15.3,1.75,1.75,0,0,0-.61,1.06h-.72a4.85,4.85,0,0,1,.06-.86,1.25,1.25,0,0,1,.34-.58,1.87,1.87,0,0,1,1-.42,7.28,7.28,0,0,1,1.45-.14,2.88,2.88,0,0,1,2.05.7,3.6,3.6,0,0,1,.75,2.66v4.32H245l-.56-.72h-.08a2.11,2.11,0,0,1-.85.62,3.35,3.35,0,0,1-1.39.26A2.63,2.63,0,0,1,241.12,114.78Zm2.64-.76a2.57,2.57,0,0,0,.64-.7v-2.16h-.48a3.47,3.47,0,0,0-1.87.44,1.32,1.32,0,0,0-.69,1.16,1.45,1.45,0,0,0,.44,1.13,1.56,1.56,0,0,0,1.08.39A1.46,1.46,0,0,0,243.76,114Z"/><path class="cls-1" d="M248.13,106.2a2.51,2.51,0,0,0-.23-1.21.93.93,0,0,0-.89-.39h-.32v-.32h1.44a2.07,2.07,0,0,1,.89.15.93.93,0,0,1,.42.55,4.54,4.54,0,0,1,.13,1.22v8.64h-1.44Z"/><path class="cls-1" d="M252.1,114.81a.82.82,0,0,1-.26-.63.79.79,0,0,1,.26-.6.83.83,0,0,1,.6-.26.86.86,0,0,1,.63.26.82.82,0,0,1,.25.6.85.85,0,0,1-.88.88A.82.82,0,0,1,252.1,114.81Zm0-5.87a.81.81,0,0,1-.25-.61.82.82,0,0,1,.25-.61.83.83,0,0,1,.61-.26.85.85,0,0,1,.86.87.84.84,0,0,1-.86.86A.82.82,0,0,1,252.11,108.94Z"/><path class="cls-1" d="M260.62,114.69a.91.91,0,0,1-.43-.55,4.54,4.54,0,0,1-.13-1.22v-8.64h1.44v8.64a2.51,2.51,0,0,0,.23,1.21.94.94,0,0,0,.89.39h.32v.32H261.5A2,2,0,0,1,260.62,114.69Z"/><path class="cls-1" d="M265.09,114.49a2.15,2.15,0,0,1-.51-1.57v-5h-1.12v-.64h1.12v-1.44l.8-1H266v2.4h1.92V108H266v5c0,1,.37,1.44,1.12,1.44a2.32,2.32,0,0,0,.64-.08,2.62,2.62,0,0,0,.56-.24l.16.32a4.34,4.34,0,0,1-.82.46,3.22,3.22,0,0,1-1.18.18A1.91,1.91,0,0,1,265.09,114.49Z"/><path class="cls-1" d="M274.82,114.48a3.25,3.25,0,0,1-1.18-1.41,5.27,5.27,0,0,1,0-4,3.25,3.25,0,0,1,1.18-1.41,4.47,4.47,0,0,1,4.27,0,1.16,1.16,0,0,1,.33.66,9.18,9.18,0,0,1,.07,1.42h-.32a1.94,1.94,0,0,0-2.08-2,1.93,1.93,0,0,0-1.74.91,5.13,5.13,0,0,0,0,4.74,1.93,1.93,0,0,0,1.74.91,2.58,2.58,0,0,0,1.34-.31,3.21,3.21,0,0,0,1-1l.32.24a3.31,3.31,0,0,1-1.25,1.29,3.54,3.54,0,0,1-1.71.39A3.46,3.46,0,0,1,274.82,114.48Z"/><path class="cls-1" d="M282.16,114.78a2.11,2.11,0,0,1-.9-.71,2.06,2.06,0,0,1-.38-1.31A1.77,1.77,0,0,1,282,111a7.2,7.2,0,0,1,2.95-.51h.48a3.74,3.74,0,0,0-.43-2.14,1.46,1.46,0,0,0-1.25-.58,2,2,0,0,0-1.15.3,1.75,1.75,0,0,0-.61,1.06h-.72a4.85,4.85,0,0,1,.06-.86,1.25,1.25,0,0,1,.34-.58,1.87,1.87,0,0,1,.95-.42,7.28,7.28,0,0,1,1.45-.14,2.88,2.88,0,0,1,2.05.7,3.6,3.6,0,0,1,.75,2.66v4.32h-.8l-.56-.72h-.08a2.18,2.18,0,0,1-.85.62,3.35,3.35,0,0,1-1.39.26A2.63,2.63,0,0,1,282.16,114.78Zm2.64-.76a2.57,2.57,0,0,0,.64-.7v-2.16H285a3.47,3.47,0,0,0-1.87.44,1.32,1.32,0,0,0-.69,1.16,1.45,1.45,0,0,0,.44,1.13,1.56,1.56,0,0,0,1.08.39A1.48,1.48,0,0,0,284.8,114Z"/><path class="cls-1" d="M289.34,109.24a2.53,2.53,0,0,0-.22-1.21,1,1,0,0,0-.9-.39h-.32v-.32h1.44a2,2,0,0,1,.91.16,1,1,0,0,1,.45.48h.08a3,3,0,0,1,2.08-.8,2.91,2.91,0,0,1,2,.64,2.79,2.79,0,0,1,.76,2.24v4.8h-1.44V110a2.27,2.27,0,0,0-.5-1.64,1.68,1.68,0,0,0-1.26-.52,2.14,2.14,0,0,0-1.6.85v6.11h-1.44Z"/><path class="cls-1" d="M304.06,114.74a2.18,2.18,0,0,1-.81-.62h-.08l-.56.72h-.8V106.2a2.51,2.51,0,0,0-.23-1.21.94.94,0,0,0-.89-.39h-.32v-.32h1.44a2,2,0,0,1,.88.15.91.91,0,0,1,.43.55,4.54,4.54,0,0,1,.13,1.22v1.44a5.23,5.23,0,0,1,.92-.35,3.9,3.9,0,0,1,1.08-.13,2.6,2.6,0,0,1,2.26,1.1,4.79,4.79,0,0,1,.78,2.82,4.85,4.85,0,0,1-.76,2.81,2.42,2.42,0,0,1-2.12,1.11A3.09,3.09,0,0,1,304.06,114.74Zm2.24-1.28a5.25,5.25,0,0,0,.47-2.38,5,5,0,0,0-.49-2.38,1.61,1.61,0,0,0-1.51-.9,1.87,1.87,0,0,0-.69.13,8,8,0,0,0-.83.35v5.12a2.53,2.53,0,0,0,.68.7,1.79,1.79,0,0,0,1,.26A1.48,1.48,0,0,0,306.3,113.46Z"/><path class="cls-1" d="M311.26,114.48a3.22,3.22,0,0,1-1.13-1.41,5.25,5.25,0,0,1,0-4,3.22,3.22,0,0,1,1.11-1.42,2.81,2.81,0,0,1,1.7-.52,3,3,0,0,1,2.41.9,3.87,3.87,0,0,1,.79,2.62l0,.64h-4.85a3.83,3.83,0,0,0,.58,2.19,1.8,1.8,0,0,0,1.58.85,2.39,2.39,0,0,0,1.27-.32,3.26,3.26,0,0,0,1-1l.32.24a3.45,3.45,0,0,1-1.23,1.28,3.25,3.25,0,0,1-1.65.4A3.14,3.14,0,0,1,311.26,114.48Zm3.36-3.8a4.51,4.51,0,0,0-.41-2.14,1.35,1.35,0,0,0-1.27-.74,1.19,1.19,0,0,0-.86.38,2.4,2.4,0,0,0-.6,1,4.54,4.54,0,0,0-.22,1.47Z"/><path class="cls-1" d="M322.76,114.36a2.79,2.79,0,0,1-.76-2.24v-2.88a2.51,2.51,0,0,0-.23-1.21.92.92,0,0,0-.89-.39h-.16v-.32H322a2.07,2.07,0,0,1,.89.15.9.9,0,0,1,.42.55,4.17,4.17,0,0,1,.13,1.22v2.88a2.31,2.31,0,0,0,.5,1.64,1.68,1.68,0,0,0,1.26.52,2.14,2.14,0,0,0,1.6-.85v-6.11h1.44v7.52h-.8l-.56-.64h-.08a2.92,2.92,0,0,1-2.08.8A2.93,2.93,0,0,1,322.76,114.36Z"/><path class="cls-1" d="M330.57,114.36a1.15,1.15,0,0,1-.33-.62,6.48,6.48,0,0,1-.07-1.06h.32a2,2,0,0,0,.7,1.24,2.43,2.43,0,0,0,1.54.44,2.34,2.34,0,0,0,1.32-.3,1,1,0,0,0,.44-.82,1.07,1.07,0,0,0-.34-.8,3.38,3.38,0,0,0-1.1-.64l-1-.4a3.92,3.92,0,0,1-1.44-.9,1.77,1.77,0,0,1-.48-1.26,1.82,1.82,0,0,1,.74-1.53,3.08,3.08,0,0,1,1.9-.55,3.37,3.37,0,0,1,2.4.64,1.07,1.07,0,0,1,.34.61,6.72,6.72,0,0,1,.06,1.07h-.32a1.86,1.86,0,0,0-.67-1.24,2.32,2.32,0,0,0-1.49-.44,1.91,1.91,0,0,0-1.17.31,1,1,0,0,0-.43.81c0,.55.43,1,1.28,1.36l1,.4a4.91,4.91,0,0,1,1.59.95,1.91,1.91,0,0,1-.29,2.82,3.4,3.4,0,0,1-2,.55A3.55,3.55,0,0,1,330.57,114.36Z"/><path class="cls-1" d="M338.77,114.48a3.31,3.31,0,0,1-1.14-1.41,5.37,5.37,0,0,1,0-4,3.37,3.37,0,0,1,1.11-1.42,2.86,2.86,0,0,1,1.71-.52,3,3,0,0,1,2.4.9,3.87,3.87,0,0,1,.8,2.62l0,.64h-4.84a3.83,3.83,0,0,0,.57,2.19,1.81,1.81,0,0,0,1.59.85,2.42,2.42,0,0,0,1.27-.32,3.26,3.26,0,0,0,1-1l.32.24a3.55,3.55,0,0,1-1.24,1.28,3.19,3.19,0,0,1-1.64.4A3.12,3.12,0,0,1,338.77,114.48Zm3.36-3.8a4.38,4.38,0,0,0-.42-2.14,1.35,1.35,0,0,0-1.26-.74,1.23,1.23,0,0,0-.87.38,2.62,2.62,0,0,0-.6,1,4.83,4.83,0,0,0-.21,1.47Z"/><path class="cls-1" d="M345.83,113.9a4.93,4.93,0,0,1-.74-2.82,4.86,4.86,0,0,1,.77-2.82,2.61,2.61,0,0,1,2.27-1.1,3.87,3.87,0,0,1,1.07.13,5,5,0,0,1,.93.35V106.2a2.51,2.51,0,0,0-.23-1.21.94.94,0,0,0-.89-.39h-.32v-.32h1.44a2,2,0,0,1,.88.15.91.91,0,0,1,.43.55,4.54,4.54,0,0,1,.13,1.22v8.64h-.8l-.56-.72h-.08a2.72,2.72,0,0,1-.83.64A3,3,0,0,1,348,115,2.44,2.44,0,0,1,345.83,113.9Zm3.61.22a3.43,3.43,0,0,0,.69-.72v-5.12a8.11,8.11,0,0,0-.84-.35,1.86,1.86,0,0,0-.68-.13,1.62,1.62,0,0,0-1.52.9,5,5,0,0,0-.48,2.38,5.25,5.25,0,0,0,.46,2.38,1.48,1.48,0,0,0,1.38.9A1.72,1.72,0,0,0,349.44,114.12Z"/><path class="cls-1" d="M358.11,109.24a2.53,2.53,0,0,0-.22-1.21,1,1,0,0,0-.9-.39h-.32v-.32h1.44a2.07,2.07,0,0,1,.89.15.86.86,0,0,1,.42.55,4.17,4.17,0,0,1,.13,1.22v5.6h-1.44Zm0-3.18a1.08,1.08,0,0,1-.27-.72.71.71,0,0,1,.2-.53.74.74,0,0,1,.54-.19.82.82,0,0,1,.63.3,1,1,0,0,1,.26.72.69.69,0,0,1-.2.53.72.72,0,0,1-.53.19A.8.8,0,0,1,358.09,106.06Z"/><path class="cls-1" d="M362.05,109.24a2.51,2.51,0,0,0-.23-1.21.94.94,0,0,0-.89-.39h-.32v-.32h1.44a2,2,0,0,1,.9.16,1,1,0,0,1,.46.48h.08a2.85,2.85,0,0,1,.87-.57,3.07,3.07,0,0,1,1.21-.23,2.93,2.93,0,0,1,2,.64,2.82,2.82,0,0,1,.76,2.24v4.8h-1.44V110a2.27,2.27,0,0,0-.51-1.64,1.65,1.65,0,0,0-1.25-.52,2.13,2.13,0,0,0-1.6.85v6.11h-1.44Z"/><path class="cls-1" d="M374.57,106.2a2.53,2.53,0,0,0-.22-1.21,1,1,0,0,0-.9-.39h-.32v-.32h1.44a2,2,0,0,1,.89.15.91.91,0,0,1,.43.55,4.62,4.62,0,0,1,.12,1.22v8.64h-1.44Z"/><path class="cls-1" d="M379.58,114.48a3.29,3.29,0,0,1-1.21-1.42,4.88,4.88,0,0,1,0-4,3.29,3.29,0,0,1,1.21-1.42,3.69,3.69,0,0,1,3.78,0,3.29,3.29,0,0,1,1.21,1.42,4.88,4.88,0,0,1,0,4,3.29,3.29,0,0,1-1.21,1.42,3.69,3.69,0,0,1-3.78,0Zm2.94-.55a2.77,2.77,0,0,0,.7-1.19,5.64,5.64,0,0,0,0-3.32,2.83,2.83,0,0,0-.7-1.19,1.5,1.5,0,0,0-2.1,0,2.83,2.83,0,0,0-.7,1.19,5.64,5.64,0,0,0,0,3.32,2.77,2.77,0,0,0,.7,1.19,1.5,1.5,0,0,0,2.1,0Z"/><path class="cls-1" d="M387.08,117.45a2.06,2.06,0,0,1-.95-1.89,1.83,1.83,0,0,1,.49-1.28,2.91,2.91,0,0,1,1.27-.8,1.05,1.05,0,0,1-.64-1,.76.76,0,0,1,.14-.5,2.77,2.77,0,0,1,.42-.38,2.12,2.12,0,0,1-.86-.8,2.33,2.33,0,0,1-.34-1.28c0-1.6,1-2.4,3-2.4h3v.4l-1,.16v.08a2.11,2.11,0,0,1,.8.71,1.83,1.83,0,0,1,.32,1c0,1.6-1,2.4-3,2.4-1.12,0-1.68.19-1.68.56s.56.56,1.68.56a4.69,4.69,0,0,1,2.53.62,2,2,0,0,1,1,1.86,2.07,2.07,0,0,1-1,1.89,5.87,5.87,0,0,1-5.13,0Zm4.09-.51a1.67,1.67,0,0,0,.56-1.38c0-1.07-.64-1.68-1.92-1.84l-.88-.08a2.21,2.21,0,0,0-1,.72,1.9,1.9,0,0,0-.35,1.2,1.65,1.65,0,0,0,.56,1.38,2.74,2.74,0,0,0,3,0Zm-.36-6a1.93,1.93,0,0,0,.44-1.4,2,2,0,0,0-.44-1.38,1.72,1.72,0,0,0-2.32,0,2.45,2.45,0,0,0,0,2.8,1.58,1.58,0,0,0,1.16.44A1.59,1.59,0,0,0,390.81,111Z"/><path class="cls-1" d="M395.93,114.48a3.29,3.29,0,0,1-1.21-1.42,4.88,4.88,0,0,1,0-4,3.29,3.29,0,0,1,1.21-1.42,3.39,3.39,0,0,1,1.89-.52,3.28,3.28,0,0,1,3.11,1.94,5,5,0,0,1,0,4,3.53,3.53,0,0,1-5,1.42Zm2.94-.55a2.77,2.77,0,0,0,.7-1.19,5.64,5.64,0,0,0,0-3.32,2.83,2.83,0,0,0-.7-1.19,1.46,1.46,0,0,0-1.05-.43,1.49,1.49,0,0,0-1.05.43,2.83,2.83,0,0,0-.7,1.19,5.64,5.64,0,0,0,0,3.32,2.77,2.77,0,0,0,.7,1.19,1.49,1.49,0,0,0,1.05.43A1.46,1.46,0,0,0,398.87,113.93Z"/><path class="cls-1" d="M403.25,114.36a1.1,1.1,0,0,1-.34-.62,6.75,6.75,0,0,1-.06-1.06h.32a1.92,1.92,0,0,0,.69,1.24,2.44,2.44,0,0,0,1.55.44,2.39,2.39,0,0,0,1.32-.3,1,1,0,0,0,.44-.82,1.08,1.08,0,0,0-.35-.8,3.43,3.43,0,0,0-1.09-.64l-1-.4a3.92,3.92,0,0,1-1.44-.9,1.77,1.77,0,0,1-.48-1.26,1.81,1.81,0,0,1,.73-1.53,3.09,3.09,0,0,1,1.91-.55,3.4,3.4,0,0,1,2.4.64,1.12,1.12,0,0,1,.33.61,6.44,6.44,0,0,1,.07,1.07H408a1.91,1.91,0,0,0-.68-1.24,2.31,2.31,0,0,0-1.48-.44,1.93,1.93,0,0,0-1.18.31,1,1,0,0,0-.42.81c0,.55.42,1,1.28,1.36l1,.4a5,5,0,0,1,1.58.95,1.89,1.89,0,0,1-.29,2.82,3.39,3.39,0,0,1-2,.55A3.52,3.52,0,0,1,403.25,114.36Z"/><path class="cls-1" d="M410.17,117.08a3.22,3.22,0,0,0,1-1,2.21,2.21,0,0,0,.32-1.21l-.48.16a.85.85,0,0,1-.62-.26.84.84,0,0,1-.26-.62.9.9,0,0,1,.28-.69.93.93,0,0,1,.68-.27,1,1,0,0,1,.76.3,1.12,1.12,0,0,1,.28.82,3.19,3.19,0,0,1-1.76,3Z"/><path class="cls-1" d="M418.14,106.2a2.53,2.53,0,0,0-.22-1.21,1,1,0,0,0-.9-.39h-.32v-.32h1.44a2,2,0,0,1,.89.15.86.86,0,0,1,.42.55,4.17,4.17,0,0,1,.13,1.22V108a2.92,2.92,0,0,1,2.08-.8,2.91,2.91,0,0,1,2,.64,2.79,2.79,0,0,1,.76,2.24v4.8h-1.44V110a2.31,2.31,0,0,0-.5-1.64,1.68,1.68,0,0,0-1.26-.52,2.14,2.14,0,0,0-1.6.85v6.11h-1.44Z"/><path class="cls-1" d="M427.69,114.48a3.22,3.22,0,0,1-1.13-1.41,5.25,5.25,0,0,1,0-4,3.22,3.22,0,0,1,1.11-1.42,2.81,2.81,0,0,1,1.7-.52,3,3,0,0,1,2.41.9,3.87,3.87,0,0,1,.79,2.62l0,.64h-4.85a3.83,3.83,0,0,0,.58,2.19,1.8,1.8,0,0,0,1.58.85,2.45,2.45,0,0,0,1.28-.32,3.36,3.36,0,0,0,1-1l.32.24a3.45,3.45,0,0,1-1.23,1.28,3.25,3.25,0,0,1-1.65.4A3.14,3.14,0,0,1,427.69,114.48Zm3.36-3.8a4.39,4.39,0,0,0-.41-2.14,1.35,1.35,0,0,0-1.27-.74,1.21,1.21,0,0,0-.86.38,2.4,2.4,0,0,0-.6,1,4.83,4.83,0,0,0-.22,1.47Z"/><path class="cls-1" d="M435.17,114.78a2.08,2.08,0,0,1-.91-.71,2.12,2.12,0,0,1-.37-1.31A1.77,1.77,0,0,1,435,111a7.29,7.29,0,0,1,3-.51h.48a3.72,3.72,0,0,0-.44-2.14,1.43,1.43,0,0,0-1.24-.58,2,2,0,0,0-1.16.3,1.74,1.74,0,0,0-.6,1.06h-.72a4.85,4.85,0,0,1,.06-.86,1.1,1.1,0,0,1,.34-.58,1.83,1.83,0,0,1,.95-.42,7.21,7.21,0,0,1,1.45-.14,2.86,2.86,0,0,1,2,.7,3.59,3.59,0,0,1,.76,2.66v4.32h-.8l-.56-.72h-.08a2.26,2.26,0,0,1-.85.62,3.38,3.38,0,0,1-1.39.26A2.59,2.59,0,0,1,435.17,114.78Zm2.64-.76a2.74,2.74,0,0,0,.64-.7v-2.16H438a3.51,3.51,0,0,0-1.88.44,1.31,1.31,0,0,0-.68,1.16,1.41,1.41,0,0,0,.44,1.13,1.56,1.56,0,0,0,1.08.39A1.48,1.48,0,0,0,437.81,114Z"/><path class="cls-1" d="M442.45,113.9a5,5,0,0,1-.74-2.82,4.86,4.86,0,0,1,.77-2.82,2.62,2.62,0,0,1,2.27-1.1,3.87,3.87,0,0,1,1.07.13,5,5,0,0,1,.93.35V106.2a2.51,2.51,0,0,0-.23-1.21.92.92,0,0,0-.89-.39h-.32v-.32h1.44a2.07,2.07,0,0,1,.89.15.9.9,0,0,1,.42.55,4.17,4.17,0,0,1,.13,1.22v8.64h-.8l-.56-.72h-.08a2.72,2.72,0,0,1-.83.64,3,3,0,0,1-1.33.24A2.44,2.44,0,0,1,442.45,113.9Zm3.61.22a3.2,3.2,0,0,0,.69-.72v-5.12c-.32-.15-.6-.27-.83-.35a2,2,0,0,0-.69-.13,1.6,1.6,0,0,0-1.51.9,4.9,4.9,0,0,0-.49,2.38,5.25,5.25,0,0,0,.46,2.38,1.48,1.48,0,0,0,1.38.9A1.68,1.68,0,0,0,446.06,114.12Z"/><path class="cls-1" d="M450.56,106.2a2.51,2.51,0,0,0-.23-1.21.94.94,0,0,0-.89-.39h-.32v-.32h1.44a2,2,0,0,1,.88.15.91.91,0,0,1,.43.55,4.54,4.54,0,0,1,.13,1.22v8.64h-1.44Z"/><path class="cls-1" d="M454.6,109.24a2.53,2.53,0,0,0-.22-1.21,1,1,0,0,0-.9-.39h-.32v-.32h1.44a2,2,0,0,1,.89.15.91.91,0,0,1,.43.55,4.62,4.62,0,0,1,.12,1.22v5.6H454.6Zm0-3.18a1.07,1.07,0,0,1-.26-.72.67.67,0,0,1,.2-.53.72.72,0,0,1,.53-.19.8.8,0,0,1,.63.3,1,1,0,0,1,.27.72.72.72,0,0,1-.2.53.74.74,0,0,1-.54.19A.82.82,0,0,1,454.58,106.06Z"/><path class="cls-1" d="M458.54,109.24a2.53,2.53,0,0,0-.22-1.21,1,1,0,0,0-.9-.39h-.32v-.32h1.44a1.93,1.93,0,0,1,.9.16,1,1,0,0,1,.46.48H460a3,3,0,0,1,.87-.57,3.11,3.11,0,0,1,1.21-.23,2.93,2.93,0,0,1,2,.64,2.79,2.79,0,0,1,.76,2.24v4.8h-1.44V110a2.31,2.31,0,0,0-.5-1.64,1.68,1.68,0,0,0-1.26-.52,2.14,2.14,0,0,0-1.6.85v6.11h-1.44Z"/><path class="cls-1" d="M468.09,114.48a3.22,3.22,0,0,1-1.13-1.41,5.25,5.25,0,0,1,0-4,3.22,3.22,0,0,1,1.11-1.42,2.81,2.81,0,0,1,1.7-.52,3,3,0,0,1,2.41.9,3.87,3.87,0,0,1,.79,2.62l0,.64h-4.85a3.75,3.75,0,0,0,.58,2.19,1.8,1.8,0,0,0,1.58.85,2.39,2.39,0,0,0,1.27-.32,3.26,3.26,0,0,0,1-1l.32.24a3.45,3.45,0,0,1-1.23,1.28,3.25,3.25,0,0,1-1.65.4A3.14,3.14,0,0,1,468.09,114.48Zm3.36-3.8a4.51,4.51,0,0,0-.41-2.14,1.35,1.35,0,0,0-1.27-.74,1.19,1.19,0,0,0-.86.38,2.4,2.4,0,0,0-.6,1,4.54,4.54,0,0,0-.22,1.47Z"/><path class="cls-1" d="M474.84,114.36a1.15,1.15,0,0,1-.33-.62,6.48,6.48,0,0,1-.07-1.06h.32a2,2,0,0,0,.7,1.24,2.43,2.43,0,0,0,1.54.44,2.34,2.34,0,0,0,1.32-.3,1,1,0,0,0,.44-.82,1.07,1.07,0,0,0-.34-.8,3.38,3.38,0,0,0-1.1-.64l-1-.4a4,4,0,0,1-1.44-.9,1.77,1.77,0,0,1-.48-1.26,1.82,1.82,0,0,1,.74-1.53,3.08,3.08,0,0,1,1.9-.55,3.37,3.37,0,0,1,2.4.64,1.07,1.07,0,0,1,.34.61,6.72,6.72,0,0,1,.06,1.07h-.32a1.86,1.86,0,0,0-.67-1.24,2.32,2.32,0,0,0-1.49-.44,1.91,1.91,0,0,0-1.17.31,1,1,0,0,0-.43.81c0,.55.43,1,1.28,1.36l1,.4a4.91,4.91,0,0,1,1.59.95,1.91,1.91,0,0,1-.29,2.82,3.4,3.4,0,0,1-2,.55A3.55,3.55,0,0,1,474.84,114.36Z"/><path class="cls-1" d="M481.77,117.08a3.22,3.22,0,0,0,1-1,2.21,2.21,0,0,0,.32-1.21l-.48.16a.85.85,0,0,1-.62-.26.84.84,0,0,1-.26-.62.93.93,0,0,1,.27-.69,1,1,0,0,1,.69-.27,1,1,0,0,1,.76.3,1.12,1.12,0,0,1,.28.82,3.19,3.19,0,0,1-1.76,3Z"/><path class="cls-1" d="M2.1,134a2.11,2.11,0,0,1-.9-.71A2.06,2.06,0,0,1,.82,132,1.77,1.77,0,0,1,2,130.23a7.2,7.2,0,0,1,3-.51h.48A3.74,3.74,0,0,0,5,127.58,1.46,1.46,0,0,0,3.7,127a2,2,0,0,0-1.15.3,1.75,1.75,0,0,0-.61,1.06H1.22a4.85,4.85,0,0,1,.06-.86,1.25,1.25,0,0,1,.34-.58,1.87,1.87,0,0,1,.95-.42A7.28,7.28,0,0,1,4,126.36a2.88,2.88,0,0,1,2.05.7,3.6,3.6,0,0,1,.75,2.66V134H6l-.56-.72H5.38a2.11,2.11,0,0,1-.85.62,3.35,3.35,0,0,1-1.39.26A2.63,2.63,0,0,1,2.1,134Zm2.64-.76a2.57,2.57,0,0,0,.64-.7v-2.16H4.9A3.47,3.47,0,0,0,3,130.8,1.32,1.32,0,0,0,2.34,132a1.45,1.45,0,0,0,.44,1.13,1.56,1.56,0,0,0,1.08.39A1.48,1.48,0,0,0,4.74,133.22Z"/><path class="cls-1" d="M9.28,128.44a2.53,2.53,0,0,0-.22-1.21,1,1,0,0,0-.9-.39H7.84v-.32H9.28a2,2,0,0,1,.91.16,1,1,0,0,1,.45.48h.08a3,3,0,0,1,2.08-.8,2.91,2.91,0,0,1,2,.64,2.79,2.79,0,0,1,.76,2.24V134H14.08v-4.8a2.27,2.27,0,0,0-.5-1.64,1.68,1.68,0,0,0-1.26-.52,2.14,2.14,0,0,0-1.6.85V134H9.28Z"/><path class="cls-1" d="M18.09,133.1a5,5,0,0,1-.74-2.82,4.86,4.86,0,0,1,.77-2.82,2.62,2.62,0,0,1,2.27-1.1,3.87,3.87,0,0,1,1.07.13,5,5,0,0,1,.93.35V125.4a2.51,2.51,0,0,0-.23-1.21.93.93,0,0,0-.89-.39H21v-.32h1.44a2.07,2.07,0,0,1,.89.15.93.93,0,0,1,.42.55,4.54,4.54,0,0,1,.13,1.22V134H23l-.56-.72h-.08a2.72,2.72,0,0,1-.83.64,3,3,0,0,1-1.33.24A2.44,2.44,0,0,1,18.09,133.1Zm3.61.22a3.43,3.43,0,0,0,.69-.72v-5.12c-.32-.15-.6-.27-.83-.35a2,2,0,0,0-.69-.13,1.62,1.62,0,0,0-1.52.9,5,5,0,0,0-.48,2.38,5.25,5.25,0,0,0,.46,2.38,1.48,1.48,0,0,0,1.38.9A1.7,1.7,0,0,0,21.7,133.32Z"/><path class="cls-1" d="M30.44,127.16H29.31v-.64h1.13V126c0-1.81.93-2.72,2.79-2.72a2.68,2.68,0,0,1,1.37.24,2.39,2.39,0,0,1,.55.72l-.48.4a1.69,1.69,0,0,0-1.52-.72c-.85,0-1.27.69-1.27,2.08v.48h2.24v.64H31.88V134H30.44Z"/><path class="cls-1" d="M36.53,133.68a3.29,3.29,0,0,1-1.21-1.42,4.88,4.88,0,0,1,0-4,3.29,3.29,0,0,1,1.21-1.42,3.35,3.35,0,0,1,1.89-.52,3.39,3.39,0,0,1,1.89.52,3.29,3.29,0,0,1,1.21,1.42,4.88,4.88,0,0,1,0,4,3.29,3.29,0,0,1-1.21,1.42,3.39,3.39,0,0,1-1.89.52A3.35,3.35,0,0,1,36.53,133.68Zm2.94-.55a2.77,2.77,0,0,0,.7-1.19,5.64,5.64,0,0,0,0-3.32,2.83,2.83,0,0,0-.7-1.19,1.49,1.49,0,0,0-1-.43,1.48,1.48,0,0,0-1.05.43,2.83,2.83,0,0,0-.7,1.19,5.64,5.64,0,0,0,0,3.32,2.77,2.77,0,0,0,.7,1.19,1.48,1.48,0,0,0,1.05.43A1.49,1.49,0,0,0,39.47,133.13Z"/><path class="cls-1" d="M43.94,128.44a2.66,2.66,0,0,0-.22-1.21,1,1,0,0,0-.9-.39h-.16v-.32h1.28a2,2,0,0,1,.92.17.92.92,0,0,1,.44.55h.08a2.35,2.35,0,0,1,.78-.62,2.4,2.4,0,0,1,1.14-.26,1.58,1.58,0,0,1,1,.24,2.39,2.39,0,0,1,.56.72l-.64.48a1.08,1.08,0,0,0-.51-.36,2.3,2.3,0,0,0-.77-.12,1.77,1.77,0,0,0-.88.22,1.71,1.71,0,0,0-.64.58V134H43.94Z"/><path class="cls-1" d="M55,133.69a2.15,2.15,0,0,1-.51-1.57v-5H53.35v-.64h1.12v-1.44l.8-1h.64v2.4h1.92v.64H55.91v5c0,1,.37,1.44,1.12,1.44a2.46,2.46,0,0,0,.65-.08,2.56,2.56,0,0,0,.55-.24l.16.32a4.34,4.34,0,0,1-.82.46,3.22,3.22,0,0,1-1.18.18A1.91,1.91,0,0,1,55,133.69Z"/><path class="cls-1" d="M60.66,133.68a3.31,3.31,0,0,1-1.14-1.41,5.37,5.37,0,0,1,0-4,3.37,3.37,0,0,1,1.11-1.42,2.86,2.86,0,0,1,1.71-.52,3,3,0,0,1,2.41.9,3.92,3.92,0,0,1,.79,2.62l0,.64H60.66a3.83,3.83,0,0,0,.57,2.19,1.83,1.83,0,0,0,1.59.85,2.42,2.42,0,0,0,1.27-.32,3.26,3.26,0,0,0,1-1l.32.24a3.45,3.45,0,0,1-1.23,1.28,3.25,3.25,0,0,1-1.65.4A3.12,3.12,0,0,1,60.66,133.68Zm3.36-3.8a4.38,4.38,0,0,0-.42-2.14,1.36,1.36,0,0,0-1.26-.74,1.19,1.19,0,0,0-.86.38,2.4,2.4,0,0,0-.6,1,4.54,4.54,0,0,0-.22,1.47Z"/><path class="cls-1" d="M69.14,130.44l-1.39-2.32a2.26,2.26,0,0,0-1.65-1.28v-.32h1.36a1.63,1.63,0,0,1,1,.34,2.94,2.94,0,0,1,.82.94l1,1.68,2.08-3h.8l-2.56,3.6L72,132.44a2.29,2.29,0,0,0,1.73,1.28V134H72.26a1.63,1.63,0,0,1-1-.34,2.94,2.94,0,0,1-.82-.94l-1-1.68-2.08,3h-.8Z"/><path class="cls-1" d="M75.75,133.69a2.15,2.15,0,0,1-.52-1.57v-5H74.11v-.64h1.12v-1.44l.8-1h.64v2.4h1.92v.64H76.67v5c0,1,.38,1.44,1.12,1.44a2.18,2.18,0,0,0,1.2-.32l.16.32a4,4,0,0,1-.81.46,3.24,3.24,0,0,1-1.19.18A1.9,1.9,0,0,1,75.75,133.69Z"/><path class="cls-1" d="M80.34,134a.86.86,0,0,1-.26-.63.89.89,0,0,1,.87-.86.87.87,0,0,1,.86.86.85.85,0,0,1-.86.88A.82.82,0,0,1,80.34,134Z"/></g></g></svg>