<svg xmlns="http://www.w3.org/2000/svg" xmlns:xlink="http://www.w3.org/1999/xlink" viewBox="0 0 576.54 409.59"><defs><style>.cls-1{fill:none;}.cls-2{fill:#fff;stroke:#ff8867;stroke-miterlimit:10;}.cls-3{fill:#3a2033;}.cls-4{fill:#fe5f50;}.cls-5{fill:url(#linear-gradient);}.cls-6{fill:url(#linear-gradient-2);}.cls-7{fill:url(#linear-gradient-3);}.cls-8{fill:url(#linear-gradient-4);}</style><linearGradient id="linear-gradient" x1="97.14" y1="219.34" x2="97.14" y2="329.54" gradientUnits="userSpaceOnUse"><stop offset="0" stop-color="#f27121"/><stop offset="1" stop-color="#4b134f"/></linearGradient><linearGradient id="linear-gradient-2" x1="81.2" y1="218.96" x2="81.2" y2="336.31" xlink:href="#linear-gradient"/><linearGradient id="linear-gradient-3" x1="78.79" y1="218.97" x2="78.79" y2="336.31" xlink:href="#linear-gradient"/><linearGradient id="linear-gradient-4" x1="165.58" y1="228.65" x2="165.58" y2="346" gradientTransform="translate(-7.4 -28.01) rotate(6.97)" xlink:href="#linear-gradient"/></defs><title>svxAsset 4</title><g id="Layer_2" data-name="Layer 2"><g id="Layer_3" data-name="Layer 3"><path class="cls-1" d="M69.9,144.91h0c.39-3.15.92-6.22,1.49-9.4C70.83,138.69,70.3,141.76,69.9,144.91Z"/><path class="cls-1" d="M76.08,130.44v0a11.85,11.85,0,0,1,.48-5.93,5.34,5.34,0,0,1,1.65-2.19,4.84,4.84,0,0,0,1.17-1.36v0a2.24,2.24,0,0,0,.29-2c-.55-1.44-2.89-2.46-5.46-2.41h-.08c-2.57-.05-4.91,1-5.46,2.41a2.24,2.24,0,0,0,.29,2l0,0a4.65,4.65,0,0,0,1.16,1.36,5.43,5.43,0,0,1,1.65,2.19,11.85,11.85,0,0,1,.48,5.93v0c-.1.67-.22,1.33-.33,2h4.48C76.31,131.77,76.19,131.11,76.08,130.44Z"/><path class="cls-1" d="M494.53,135.51c-.57,3.18-1.1,6.25-1.5,9.4h0C493.43,141.76,494,138.69,494.53,135.51Z"/><path class="cls-1" d="M501.59,144.91c-.4-3.15-.93-6.22-1.5-9.4.57,3.18,1.1,6.25,1.49,9.4Z"/><path class="cls-1" d="M77,135.51c.57,3.18,1.1,6.25,1.49,9.4h0C78.06,141.76,77.53,138.69,77,135.51Z"/><path class="cls-1" d="M499.21,130.44v0a11.85,11.85,0,0,1,.48-5.93,5.43,5.43,0,0,1,1.65-2.19,4.68,4.68,0,0,0,1.17-1.36v0a2.21,2.21,0,0,0,.29-2c-.55-1.44-2.89-2.46-5.46-2.41h-.08c-2.56-.05-4.91,1-5.46,2.41a2.24,2.24,0,0,0,.29,2l0,0a4.54,4.54,0,0,0,1.17,1.36,5.51,5.51,0,0,1,1.64,2.19,11.85,11.85,0,0,1,.48,5.93v0c-.11.67-.23,1.33-.34,2h4.48C499.44,131.77,499.32,131.11,499.21,130.44Z"/><path class="cls-1" d="M80.5,118.36a3.7,3.7,0,0,1-.37,3.27,5.79,5.79,0,0,1-1.41,1.67,4.47,4.47,0,0,0-1.36,1.76l0,0a10.41,10.41,0,0,0-.36,5.1c.12.75.25,1.49.38,2.23h6.27a1,1,0,0,1,.86,1.2q-.73,5.64-1.45,11.28H488.45q-.72-5.64-1.45-11.28a1,1,0,0,1,.86-1.2h6.27c.13-.74.26-1.48.38-2.23a10.41,10.41,0,0,0-.36-5.1l0,0a4.47,4.47,0,0,0-1.36-1.76,5.79,5.79,0,0,1-1.41-1.67,3.7,3.7,0,0,1-.37-3.27c.69-1.76,3-3,5.8-3V0H74.7V115.33C77.47,115.4,79.81,116.6,80.5,118.36Z"/><path class="cls-2" d="M505.87,147.21h.64V150H488.22v-2.81h.53l-.3-2.3H83l-.3,2.3h.64V150H65.09v-2.81h.53l-.3-2.3H.5V409.09H576V144.91H506.17Z"/><path class="cls-2" d="M501.85,147.21h0c-.08-.78-.17-1.54-.26-2.3h0C501.68,145.67,501.77,146.43,501.85,147.21Z"/><path class="cls-2" d="M492.77,147.21c.08-.78.17-1.54.27-2.3h0c-.09.76-.18,1.52-.26,2.3Z"/><path class="cls-2" d="M78.45,144.91c.1.76.19,1.52.27,2.3h0c-.08-.78-.17-1.54-.26-2.3Z"/><path class="cls-2" d="M69.67,147c.07-.69.15-1.37.24-2.05h0C69.82,145.59,69.74,146.27,69.67,147Z"/><path class="cls-3" d="M74.7,115.33V0h-1V115.33l.52,0Z"/><path class="cls-4" d="M83.63,132.43H77.36c.16.94.33,1.88.49,2.8.59,3.27,1.13,6.43,1.53,9.68H83q.72-5.64,1.45-11.28A1,1,0,0,0,83.63,132.43Z"/><path class="cls-4" d="M70.5,135.23c.17-.92.34-1.86.5-2.8H64.73a1,1,0,0,0-.86,1.2q.74,5.64,1.45,11.28H69C69.38,141.66,69.92,138.5,70.5,135.23Z"/><path class="cls-4" d="M76.42,132.43H71.94c-.18,1-.36,2.07-.54,3.08-.57,3.18-1.1,6.25-1.49,9.4h8.54c-.39-3.15-.92-6.22-1.49-9.4C76.78,134.5,76.6,133.47,76.42,132.43Z"/><path class="cls-4" d="M65.09,147.21V150H83.38v-2.81h-.64l.3-2.3H79.38c.1.83.2,1.66.29,2.5h-.93a1.23,1.23,0,0,0,0-.2h0c-.08-.78-.17-1.54-.27-2.3H69.91c-.09.68-.17,1.36-.24,2.05l-.06.54,0-.09h-.9c.08-.84.18-1.67.29-2.5H65.32l.3,2.3Z"/><path class="cls-3" d="M69,144.91h.92c.4-3.15.93-6.22,1.5-9.4.18-1,.36-2,.54-3.08.11-.66.23-1.32.33-2v0a11.85,11.85,0,0,0-.48-5.93,5.43,5.43,0,0,0-1.65-2.19A4.65,4.65,0,0,1,69,120.94l0,0a2.24,2.24,0,0,1-.29-2c.55-1.44,2.89-2.46,5.46-2.41h.08c2.57-.05,4.91,1,5.46,2.41a2.24,2.24,0,0,1-.29,2v0a4.84,4.84,0,0,1-1.17,1.36,5.34,5.34,0,0,0-1.65,2.19,11.85,11.85,0,0,0-.48,5.93v0c.11.67.23,1.33.34,2,.18,1,.36,2.07.54,3.08.57,3.18,1.1,6.25,1.5,9.4h.92c-.4-3.25-.94-6.41-1.53-9.68-.16-.92-.33-1.86-.49-2.8-.13-.74-.26-1.48-.38-2.23a10.41,10.41,0,0,1,.36-5.1l0,0a4.47,4.47,0,0,1,1.36-1.76,5.79,5.79,0,0,0,1.41-1.67,3.7,3.7,0,0,0,.37-3.27c-.69-1.76-3-3-5.8-3v.11h-1v-.11c-2.77.07-5.11,1.27-5.8,3a3.7,3.7,0,0,0,.37,3.27,5.79,5.79,0,0,0,1.41,1.67A4.47,4.47,0,0,1,71,125.06v0a10.43,10.43,0,0,1,.37,5.1c-.12.75-.25,1.49-.38,2.23-.16.94-.33,1.88-.5,2.8C69.92,138.5,69.38,141.66,69,144.91Z"/><path class="cls-3" d="M79.38,144.91h-.92c.09.76.18,1.52.26,2.3h.92C79.57,146.43,79.47,145.67,79.38,144.91Z"/><path class="cls-3" d="M69,144.91c-.09.76-.19,1.52-.26,2.3h.92l0-.25c.07-.69.15-1.37.23-2.05Z"/><path class="cls-3" d="M74.7,115.44v-.11l-.52,0-.52,0v.11Z"/><path class="cls-3" d="M79.38,144.91h0c-.4-3.25-.94-6.41-1.53-9.68C78.44,138.5,79,141.66,79.38,144.91Z"/><path class="cls-3" d="M70.5,135.23c-.58,3.27-1.12,6.43-1.52,9.68h0C69.38,141.66,69.92,138.5,70.5,135.23Z"/><path class="cls-3" d="M68.72,147.21c.07-.78.17-1.54.26-2.3h0c-.11.83-.21,1.66-.29,2.5h.9l0,.09.06-.54,0,.25Z"/><path class="cls-3" d="M79.64,147.21h-.92a1.23,1.23,0,0,1,0,.2h.93c-.09-.84-.19-1.67-.29-2.5h0C79.47,145.67,79.57,146.43,79.64,147.21Z"/><path class="cls-3" d="M497.31,115.31l.52,0V0h-1V115.33Z"/><path class="cls-4" d="M502.51,144.91h3.66q.72-5.64,1.45-11.28a1,1,0,0,0-.86-1.2h-6.27c.16.94.33,1.88.49,2.8C501.57,138.5,502.11,141.66,502.51,144.91Z"/><path class="cls-4" d="M493.63,135.23c.17-.92.34-1.86.5-2.8h-6.27a1,1,0,0,0-.86,1.2q.74,5.64,1.45,11.28h3.66C492.51,141.66,493.05,138.5,493.63,135.23Z"/><path class="cls-4" d="M501.58,144.91c-.39-3.15-.92-6.22-1.49-9.4-.18-1-.36-2-.54-3.08h-4.48c-.18,1-.36,2.07-.54,3.08-.57,3.18-1.1,6.25-1.49,9.4Z"/><path class="cls-4" d="M502.8,147.41h-.93a1.23,1.23,0,0,0,0-.2h0c-.08-.78-.17-1.54-.27-2.3H493c-.1.76-.19,1.52-.27,2.3h0l0,.29,0-.09h-.9c.08-.84.18-1.67.29-2.5h-3.66l.3,2.3h-.53V150h18.29v-2.81h-.64l.3-2.3h-3.66C502.62,145.74,502.72,146.57,502.8,147.41Z"/><path class="cls-3" d="M496.79,115.44v-.11c-2.77.07-5.11,1.27-5.8,3a3.7,3.7,0,0,0,.37,3.27,5.79,5.79,0,0,0,1.41,1.67,4.47,4.47,0,0,1,1.36,1.76l0,0a10.41,10.41,0,0,1,.36,5.1c-.12.75-.25,1.49-.38,2.23-.16.94-.33,1.88-.5,2.8-.58,3.27-1.12,6.43-1.52,9.68H493c.4-3.15.93-6.22,1.5-9.4.18-1,.36-2,.54-3.08.11-.66.23-1.32.34-2v0a11.85,11.85,0,0,0-.48-5.93,5.51,5.51,0,0,0-1.64-2.19,4.54,4.54,0,0,1-1.17-1.36l0,0a2.24,2.24,0,0,1-.29-2c.55-1.44,2.9-2.46,5.46-2.41h.08c2.57-.05,4.91,1,5.46,2.41a2.21,2.21,0,0,1-.29,2v0a4.68,4.68,0,0,1-1.17,1.36,5.43,5.43,0,0,0-1.65,2.19,11.85,11.85,0,0,0-.48,5.93v0c.11.67.23,1.33.34,2,.18,1,.36,2.07.54,3.08.57,3.18,1.1,6.25,1.5,9.4h.92c-.4-3.25-.94-6.41-1.53-9.68-.16-.92-.33-1.86-.49-2.8-.13-.74-.26-1.48-.38-2.23a10.31,10.31,0,0,1,.37-5.1v0a4.47,4.47,0,0,1,1.36-1.76,5.64,5.64,0,0,0,1.41-1.67,3.7,3.7,0,0,0,.37-3.27c-.69-1.76-3-3-5.8-3v.11Z"/><path class="cls-3" d="M492.77,147.21c.08-.78.17-1.54.26-2.3h-.92c-.09.76-.19,1.52-.26,2.3Z"/><path class="cls-3" d="M502.77,147.21c-.07-.78-.17-1.54-.26-2.3h-.92c.09.76.18,1.52.26,2.3Z"/><path class="cls-3" d="M496.79,115.33v.11h1v-.11l-.52,0Z"/><path class="cls-3" d="M492.11,144.91c.4-3.25.94-6.41,1.52-9.68-.58,3.27-1.12,6.43-1.52,9.68Z"/><path class="cls-3" d="M501,135.23c.59,3.27,1.13,6.43,1.53,9.68h0C502.11,141.66,501.57,138.5,501,135.23Z"/><path class="cls-3" d="M501.85,147.21a1.23,1.23,0,0,1,0,.2h.93c-.08-.84-.18-1.67-.29-2.5h0c.09.76.19,1.52.26,2.3Z"/><path class="cls-3" d="M491.82,147.41h.9l0,.09,0-.29h-.92c.07-.78.17-1.54.26-2.3h0C492,145.74,491.9,146.57,491.82,147.41Z"/></g><g id="Layer_1-2" data-name="Layer 1"><path d="M342.13,242.05q10.11,0,15.22,6.62t5.1,19.25q0,12.63-5.1,19.24t-15.22,6.62q-10.12,0-15.19-6.62t-5.06-19.24q0-12.63,5.06-19.25T342.13,242.05Zm0,7.61q-6.4,0-9.13,4.67t-2.73,13.59q0,8.91,2.73,13.58t9.13,4.67q6.48,0,9.21-4.67t2.72-13.58q0-8.91-2.72-13.59T342.13,249.66Zm37.54-12a5.61,5.61,0,0,1,3.07.86,3.06,3.06,0,0,1,1.34,2.77v67.47a3.05,3.05,0,0,1-1.34,2.77,5.54,5.54,0,0,1-3.07.87,5.39,5.39,0,0,1-3-.87,3.05,3.05,0,0,1-1.34-2.77V241.27a3.06,3.06,0,0,1,1.34-2.77A5.46,5.46,0,0,1,379.67,237.64Z"/><path d="M483.47,241.19a5.43,5.43,0,0,1,3,.86,3,3,0,0,1,1.35,2.77v9.6h19.89v-9.6a3.08,3.08,0,0,1,1.3-2.77,5.2,5.2,0,0,1,2.94-.86,5.43,5.43,0,0,1,3,.86,3,3,0,0,1,1.34,2.77v28q0,3.72-1.42,5.1t-5.24,1.38h-23.7q-3.81,0-5.23-1.38t-1.43-5.1v-28a3.08,3.08,0,0,1,1.3-2.77A5.2,5.2,0,0,1,483.47,241.19Zm4.33,29.23a1.84,1.84,0,0,0,.38,1.34,2,2,0,0,0,1.43.39h16.26c1.21,0,1.82-.57,1.82-1.73V261.6H487.8Zm25.69,15.92q11.85,0,18.29,4t6.45,12.07q0,8-6.45,12.07t-18.29,4q-11.85,0-18.3-4t-6.44-12.07q0-8,6.44-12.07T513.49,286.34Zm0,7q-8.57,0-12.37,2.46a7.66,7.66,0,0,0,0,13.24q3.79,2.46,12.37,2.46t12.37-2.46a7.67,7.67,0,0,0,0-13.24Q522.05,293.35,513.49,293.35Zm20-55.71a5.41,5.41,0,0,1,3,.86,3.1,3.1,0,0,1,1.29,2.77V257h9.52a2.71,2.71,0,0,1,2.46,1.12,4.66,4.66,0,0,1,.74,2.6,4.74,4.74,0,0,1-.74,2.72,2.76,2.76,0,0,1-2.46,1.08h-9.52V282a3,3,0,0,1-1.29,2.68,5.77,5.77,0,0,1-6.06,0,3,3,0,0,1-1.3-2.68V241.27a3.1,3.1,0,0,1,1.3-2.77A5.38,5.38,0,0,1,533.47,237.64Z"/><path d="M312.07,279.07a4.25,4.25,0,0,1,.73,2.51,4,4,0,0,1-.73,2.47,2.58,2.58,0,0,1-2.21,1H280.71v9.86h-8.48V285H243.08a2.55,2.55,0,0,1-2.2-1,4,4,0,0,1-.74-2.47,4.18,4.18,0,0,1,.74-2.51,2.5,2.5,0,0,1,2.2-1h66.78A2.53,2.53,0,0,1,312.07,279.07Zm-35.6,12.11q12.54,0,19.51,3.29t7,10.56q0,7.17-7,10.51t-19.51,3.33q-12.54,0-19.51-3.33T250,305q0-7.27,7-10.56T276.47,291.18Zm13.67,19c2.82-1.18,4.24-2.9,4.24-5.14s-1.42-4-4.24-5.2S282.76,298,276.47,298s-10.84.6-13.67,1.81-4.24,2.95-4.24,5.2,1.42,4,4.24,5.14,7.38,1.78,13.67,1.78Z"/><path d="M300,260.64H256.79a8.42,8.42,0,0,0,4.53,5.63H300a3.46,3.46,0,0,1,0,6.91H260.15l-.49-.15c-.41-.14-10.21-3.28-10.21-15.84s9.8-15.72,10.21-15.84l.49-.16H300a3.46,3.46,0,0,1,0,6.91H261.31a8.38,8.38,0,0,0-4.52,5.63H300a3.46,3.46,0,0,1,0,6.91Z"/><path d="M233.35,298.58a2.57,2.57,0,0,0-2.29-1.08h-29V281h-8.65V297.5h-29a2.57,2.57,0,0,0-2.29,1.08,4.43,4.43,0,0,0-.74,2.55,4.66,4.66,0,0,0,.74,2.6,2.53,2.53,0,0,0,2.29,1.12h66.61a2.53,2.53,0,0,0,2.29-1.12,4.66,4.66,0,0,0,.74-2.6A4.43,4.43,0,0,0,233.35,298.58Z"/><rect x="193.43" y="277.34" width="8.65" height="3.63"/><path d="M222.88,243.86c-.95-.91-2.69-1.38-5.23-1.38H177.86c-2.54,0-4.27.47-5.2,1.38s-1.38,2.63-1.38,5.11V265.8c0,6.58,6.52,6.49,6.52,6.49h2.41v2.2c0,6.42,6.49,6.49,6.49,6.49h6.73v-3.64h8.65V281h15.57q3.81,0,5.23-1.39c1-.92,1.43-2.62,1.43-5.1V249C224.31,246.49,223.84,244.79,222.88,243.86Zm-7.31,27.95c0,1.15-.6,1.73-1.81,1.73H187v-8h-7V251.65c0-1.15.61-1.73,1.82-1.73h32c1.21,0,1.81.58,1.81,1.73Z"/><path class="cls-5" d="M150.67,270.15c.09,16.13-9.55,18.79-10,19l-.05,0c-20.73,9.17-22.11,16.51-22.11,16.57v15.59l-1.38.83a75.67,75.67,0,0,1-35.53,9.47c-19.45,0-35.89-9-36.58-9.43l-1.46-.81v-71a2.94,2.94,0,0,1,2.83-2.88h.85l58.4,0c9.3,0,9.87-6.86,9.88-8.23a7.52,7.52,0,0,0-2-5.66,10.07,10.07,0,0,0-4.8-2.45,14.2,14.2,0,0,0-2.77-.38H60.22a2.83,2.83,0,1,1,0-5.66h45.62c.28,0,7.11,0,11.58,4.48a13.08,13.08,0,0,1,3.72,9.69,14.71,14.71,0,0,1-4.07,9.69c-2.77,2.78-6.63,4.19-11.48,4.19H49.18V318c4.3,2.1,17.59,8,32.37,8s27.2-5.8,31.24-7.91V305.73c0-1.78,1.37-11,25.44-21.7.5-.24,6.71-1.76,6.77-14v-.17l0-.16c0-.08.83-8.17-3.19-12.61-1.83-2-2.33-2.29-5.78-2.25h-.2c-.93-.05-9.37-.13-11.93,10.47a2.83,2.83,0,1,1-5.5-1.33c3-12.29,12.8-15.06,17.67-14.81h.15c5,0,6.91.93,9.8,4.14C151.44,259.27,150.8,268.68,150.67,270.15Z"/><path class="cls-6" d="M55,237.42h52.42a1.42,1.42,0,0,0,0-2.83H55a1.42,1.42,0,1,0,0,2.83Z"/><path class="cls-7" d="M50.17,243.26h57.24a1.42,1.42,0,0,0,0-2.83H50.17a1.42,1.42,0,1,0,0,2.83Z"/><path class="cls-8" d="M131.19,235.77a16.31,16.31,0,0,1-.62,2.5,31.84,31.84,0,0,1-5.32,9.48,17.84,17.84,0,0,0,3-10.47h0a14.26,14.26,0,0,0-.37-2.52,9.34,9.34,0,0,0-.75-2.11c-6.41-11.49,1.71-18.64,1.71-18.64-3,6.09-.78,9.82-.78,9.82.3.81,1.31,2.64,2,4.36a34.84,34.84,0,0,1,1.28,4.11A12,12,0,0,1,131.19,235.77Z"/><path d="M414.87,259.21c2.75,6.57,2.6,13.2,10.08,17.49,4.06,2.33,10.25,2.51,10.25,2.51.23-1.74-.52-1.9-2.22-2.68-11.44-5.26-14.81-23.69-14.84-23.87a3.39,3.39,0,0,0-3.2-2.79h-.13a3.38,3.38,0,0,0-3.2,2.79c0,.18-3.4,18.61-14.84,23.87-1.7.78-2.45.94-2.22,2.68,0,0,6.19-.18,10.25-2.51C412.28,272.41,412.12,265.78,414.87,259.21Z"/><path d="M408.07,251.7c1,0,2.28-1.61,2.25-2.62,0-1.72-.46-2.71.81-4.61a4.4,4.4,0,0,1,3.67-1.67h0v0h.13v0h0a4.4,4.4,0,0,1,3.67,1.67c1.26,1.9.84,2.89.8,4.61,0,1,1.25,2.62,2.26,2.62h13.24a3.39,3.39,0,0,0,0-6.77H422.66a7.07,7.07,0,0,0-1.27-2.33,8,8,0,0,0-6.45-2.71h-.13a8,8,0,0,0-6.45,2.71,7.07,7.07,0,0,0-1.27,2.33H394.83a3.39,3.39,0,0,0,0,6.77Z"/><path d="M455.19,288.51H410.73a2.62,2.62,0,0,0-2.38,1.12,4.92,4.92,0,0,0,0,5.19,2.62,2.62,0,0,0,2.38,1.12h40.65c1.21,0,1.82.58,1.82,1.73v15.4a3.08,3.08,0,0,0,1.3,2.77,5.69,5.69,0,0,0,6.05,0,3.08,3.08,0,0,0,1.3-2.77V295q0-3.72-1.43-5.1T455.19,288.51Z"/><path d="M464.05,237.08a5,5,0,0,0-2.81-.82,4.83,4.83,0,0,0-2.72.82,2.83,2.83,0,0,0-1.26,2.55v16.78H448V240.06a2.83,2.83,0,0,0-1.25-2.55,5,5,0,0,0-2.81-.82,4.88,4.88,0,0,0-2.73.82,2.85,2.85,0,0,0-1.25,2.55V281a2.85,2.85,0,0,0,1.25,2.55,4.88,4.88,0,0,0,2.73.82,5,5,0,0,0,2.81-.82A2.83,2.83,0,0,0,448,281v-17.3h9.26v17.73a2.81,2.81,0,0,0,1.26,2.55,4.84,4.84,0,0,0,2.72.83,5,5,0,0,0,2.81-.83,2.81,2.81,0,0,0,1.26-2.55V239.63A2.83,2.83,0,0,0,464.05,237.08Z"/></g></g></svg>