<svg xmlns="http://www.w3.org/2000/svg" xmlns:xlink="http://www.w3.org/1999/xlink" viewBox="0 0 163.28 155.96"><defs><style>.cls-1{fill:none;}.cls-2{fill:#fe5f50;}.cls-3,.cls-4{fill:#fff5f3;stroke-miterlimit:10;}.cls-3,.cls-4,.cls-5{stroke-width:0.75px;}.cls-3{stroke:url(#New_Pattern_Swatch_6);}.cls-4{stroke:url(#New_Pattern_Swatch_6-3);}.cls-5{fill:#fff7e0;stroke:#bf4e45;stroke-linecap:round;stroke-linejoin:round;}</style><pattern id="New_Pattern_Swatch_6" data-name="New Pattern Swatch 6" width="88" height="88" patternTransform="translate(117.63 -356.35) rotate(-180) scale(1.12 1.42)" patternUnits="userSpaceOnUse" viewBox="0 0 88 88"><rect class="cls-1" width="88" height="88"/><rect class="cls-2" width="88" height="88"/></pattern><pattern id="New_Pattern_Swatch_6-3" data-name="New Pattern Swatch 6" width="88" height="88" patternTransform="translate(116.46 -358.12) rotate(-180) scale(1.12 1.42)" patternUnits="userSpaceOnUse" viewBox="0 0 88 88"><rect class="cls-1" width="88" height="88"/><rect class="cls-2" width="88" height="88"/></pattern></defs><title>svgAsset 14</title><g id="Layer_2" data-name="Layer 2"><g id="Layer_1-2" data-name="Layer 1"><path class="cls-3" d="M49.49,131.39c27.12,0,49.11-24.84,49.11-55.47s-22-55.48-49.11-55.48S.38,45.28.38,75.92,22.36,131.39,49.49,131.39Zm0-93.24c17.4,0,31.57,16.94,31.57,37.77s-14.17,37.77-31.57,37.77-31.58-17-31.58-37.77S32.08,38.15,49.49,38.15Z"/><path class="cls-4" d="M49.49,142.6a13,13,0,0,0,12.86,13h87.7a13,13,0,0,0,12.86-13V127.26H49.49Z"/><path class="cls-4" d="M162.91,13.36a13,13,0,0,0-12.86-13H62.35a13,13,0,0,0-12.86,13V31.65H162.91Z"/><rect class="cls-5" x="49.49" y="31.65" width="113.42" height="95.61"/></g></g></svg>