<svg xmlns="http://www.w3.org/2000/svg" xmlns:xlink="http://www.w3.org/1999/xlink" viewBox="0 0 186.95 395.95"><defs><style>.cls-1{fill:none;}.cls-2{fill:#fe5f50;}.cls-3{fill:#3d270f;}.cls-4,.cls-6{fill:#fff5f3;stroke-miterlimit:10;}.cls-4,.cls-5,.cls-6{stroke-width:0.75px;}.cls-4{stroke:url(#New_Pattern_Swatch_6);}.cls-5{fill:#fff7e0;stroke:#bf4e45;stroke-linecap:round;stroke-linejoin:round;}.cls-6{stroke:url(#New_Pattern_Swatch_6-3);}</style><pattern id="New_Pattern_Swatch_6" data-name="New Pattern Swatch 6" width="88" height="88" patternTransform="translate(58.68 -65.16) rotate(180) scale(1.12 1.42)" patternUnits="userSpaceOnUse" viewBox="0 0 88 88"><rect class="cls-1" width="88" height="88"/><rect class="cls-2" width="88" height="88"/></pattern><pattern id="New_Pattern_Swatch_6-3" data-name="New Pattern Swatch 6" width="88" height="88" patternTransform="translate(57.51 -66.93) rotate(180) scale(1.12 1.42)" patternUnits="userSpaceOnUse" viewBox="0 0 88 88"><rect class="cls-1" width="88" height="88"/><rect class="cls-2" width="88" height="88"/></pattern></defs><title>aiaiAsset 20</title><g id="Layer_2" data-name="Layer 2"><g id="Layer_1-2" data-name="Layer 1"><path class="cls-3" d="M72.74,276.3s39-31,34-100.5c0,0-12.5-53-1-60.5,0,0,11-7.5,13,8l3,21s1.5,8.5,5-9c0,0,3.75-34.25-6.5-77.5,0,0-1-22,11-14,0,0,8.5,12,7,25.5,0,0,2.5-51,14-63,0,0,11.5-16,12,3,0,0,.5,66.5-5,93.5,0,0,8-24,16-31,0,0,8.5-9.5,9,6,0,0,4,32-14.5,81.5,0,0,12-17.5,16-4.5,0,0,8.5,43.5-19.5,57.5,0,0,11,11.5,9.5,19.5,0,0,2.5,10-15,7,0,0-13.5-8-17,9.5,0,0-15.5,39-44,48.5Z"/><path class="cls-4" d="M49.49,371.38c27.12,0,49.11-24.84,49.11-55.47s-22-55.48-49.11-55.48S.38,285.27.38,315.91,22.36,371.38,49.49,371.38Zm0-93.24c17.4,0,31.57,16.94,31.57,37.77s-14.17,37.77-31.57,37.77-31.58-16.95-31.58-37.77S32.08,278.14,49.49,278.14Z"/><rect class="cls-5" x="49.49" y="271.64" width="113.42" height="95.61"/><path class="cls-6" d="M49.49,382.59a13,13,0,0,0,12.86,13h87.7a13,13,0,0,0,12.86-13V367.25H49.49Z"/><path class="cls-6" d="M162.91,253.35a13,13,0,0,0-12.86-13H62.35a13,13,0,0,0-12.86,13v18.29H162.91Z"/></g></g></svg>