<svg xmlns="http://www.w3.org/2000/svg" xmlns:xlink="http://www.w3.org/1999/xlink" viewBox="0 0 163.28 245.61"><defs><style>.cls-1{fill:none;}.cls-2{fill:#fe5f50;}.cls-3{fill:#3d270f;}.cls-4,.cls-6{fill:#fff5f3;stroke-miterlimit:10;}.cls-4,.cls-5,.cls-6{stroke-width:0.75px;}.cls-4{stroke:url(#New_Pattern_Swatch_6);}.cls-5{fill:#fff7e0;stroke:#bf4e45;stroke-linecap:round;stroke-linejoin:round;}.cls-6{stroke:url(#New_Pattern_Swatch_6-3);}</style><pattern id="New_Pattern_Swatch_6" data-name="New Pattern Swatch 6" width="88" height="88" patternTransform="translate(98.54 -114.48) rotate(180) scale(1.12 1.42)" patternUnits="userSpaceOnUse" viewBox="0 0 88 88"><rect class="cls-1" width="88" height="88"/><rect class="cls-2" width="88" height="88"/></pattern><pattern id="New_Pattern_Swatch_6-3" data-name="New Pattern Swatch 6" width="88" height="88" patternTransform="translate(97.37 -116.25) rotate(180) scale(1.12 1.42)" patternUnits="userSpaceOnUse" viewBox="0 0 88 88"><rect class="cls-1" width="88" height="88"/><rect class="cls-2" width="88" height="88"/></pattern></defs><title>aiaiAsset 19</title><g id="Layer_2" data-name="Layer 2"><g id="Layer_1-2" data-name="Layer 1"><path class="cls-3" d="M154.85,224.37s-18.75-28-6.86-81.81c0,0,14.14-40.22,8.4-47.19,0,0-5.45-6.92-8.62,5l-4.46,16.12s-2,6.5-1.76-7.51A266.68,266.68,0,0,1,155.35,49s3.43-17.09-4.61-12c0,0-6.51,8.56-7.37,19.25,0,0,5.12-40.09,0-50.58,0,0-4.64-13.61-7.39,1.19,0,0-8.87,51.92-9.15,73.55,0,0-1.57-19.53-5.33-25.77,0,0-3.74-8.24-6,3.82,0,0-6.46,24.62-2.06,65.09,0,0-4.74-14.83-8.76-5.06,0,0-10.57,33.18,4,46.82,0,0-7.91,7.92-8.06,14.32,0,0-2.75,7.57,7.84,6.91,0,0,8.91-5,8.7,9.07,0,0,4,32,19.4,42.14Z"/><path class="cls-4" d="M49.49,221c27.12,0,49.11-24.84,49.11-55.47s-22-55.48-49.11-55.48S.38,134.93.38,165.57,22.36,221,49.49,221Zm0-93.24c17.4,0,31.57,16.94,31.57,37.77s-14.17,37.77-31.57,37.77-31.58-17-31.58-37.77S32.08,127.8,49.49,127.8Z"/><rect class="cls-5" x="49.49" y="121.3" width="113.42" height="95.61"/><path class="cls-6" d="M49.49,232.25a13,13,0,0,0,12.86,13h87.7a13,13,0,0,0,12.86-13V216.91H49.49Z"/><path class="cls-6" d="M162.91,103a13,13,0,0,0-12.86-13H62.35a13,13,0,0,0-12.86,13V121.3H162.91Z"/></g></g></svg>