<svg xmlns="http://www.w3.org/2000/svg" viewBox="0 0 161.67 133.24"><defs><style>.cls-1{fill:none;stroke:#fe5f50;stroke-miterlimit:10;}</style></defs><title>svgAsset 71</title><g id="Layer_2" data-name="Layer 2"><g id="Layer_1-2" data-name="Layer 1"><rect class="cls-1" x="29.83" y="-10.28" width="102.02" height="141.1" rx="4.91" ry="4.91" transform="translate(141.1 -20.57) rotate(90)"/><path class="cls-1" d="M86.11,92.52a83.48,83.48,0,0,0-12.64.16V63.21Z"/><path class="cls-1" d="M73.47,63.21V92.68a78.05,78.05,0,0,0-15.85,3V26.46Z"/><polygon class="cls-1" points="104.1 25.14 104.1 94.21 88.25 57.46 88.25 25.14 104.1 25.14"/><path class="cls-1" d="M104.72,95.64l-.62-.16V94.21Z"/><path class="cls-1" d="M104.1,94.21v1.27a91.52,91.52,0,0,0-15.85-2.8c-.72-.06-1.43-.12-2.14-.16L73.47,63.21,57.62,26.46,57,24.92H74.22l14,32.54Z"/><rect class="cls-1" x="0.5" y="0.5" width="160.67" height="119.54" rx="10.28" ry="10.28"/><polygon class="cls-1" points="142.1 132.74 19.57 132.74 25.56 120.04 136.11 120.04 142.1 132.74"/></g></g></svg>