<svg id="Layer_2" data-name="Layer 2" xmlns="http://www.w3.org/2000/svg" xmlns:xlink="http://www.w3.org/1999/xlink" viewBox="0 0 390 256"><defs><style>.cls-1,.cls-5{fill:none;}.cls-2{fill:#ff5e4a;}.cls-3{fill:url(#New_Pattern_Swatch_5);}.cls-4{fill:url(#New_Pattern_Swatch_5-3);}.cls-5{stroke-linecap:round;stroke-miterlimit:10;stroke-width:3px;stroke:url(#New_Pattern_Swatch_5-3);}</style><pattern id="New_Pattern_Swatch_5" data-name="New Pattern Swatch 5" width="88" height="88" patternTransform="translate(31.66 24.17) scale(0.65)" patternUnits="userSpaceOnUse" viewBox="0 0 88 88"><rect class="cls-1" width="88" height="88"/><rect class="cls-2" width="88" height="88"/></pattern><pattern id="New_Pattern_Swatch_5-3" data-name="New Pattern Swatch 5" width="88" height="88" patternTransform="translate(32.34 10.47) scale(0.65)" patternUnits="userSpaceOnUse" viewBox="0 0 88 88"><rect class="cls-1" width="88" height="88"/><rect class="cls-2" width="88" height="88"/></pattern></defs><title>ssvgaArtboard 1</title><path class="cls-3" d="M178.71,130.8c.93,0,1.91.06,2.92.16a1,1,0,0,1,.76.51,1,1,0,0,1,0,.9c-.12.24-2.42,4.55-8.72,8a18.41,18.41,0,0,1,3.73,1,13.11,13.11,0,0,1,4.38-.81v0a9.9,9.9,0,0,1,7.68-3.71,12.14,12.14,0,0,1,6.56,2.11c.59.4,5.33,3.67,7,6.41a25,25,0,0,1,16.62-5.88,26.74,26.74,0,0,1,6.48.73,1,1,0,0,1,.69.72,1,1,0,0,1-.31,1c-2.84,2.45-6.74,9.25-6.78,9.32a17.61,17.61,0,0,1-7.34,6.43c.54,1.62,3.72,6.54,6.67,10.6a1,1,0,0,1-.75,1.55h-.57c-4.95,0-9.44-2.39-12.18-4.23-10.5-.16-12.75-6.5-12.85-6.8a.29.29,0,0,1,0-.09c-2.75-12.1-5.63-13.92-5.66-13.93a.61.61,0,0,1-.24-.18,6.87,6.87,0,0,0-5-2.06,9.31,9.31,0,0,0-1.59.14A13.17,13.17,0,0,1,187,153.43a1,1,0,0,1-.92,1h0a1,1,0,0,1-1-.92,11.34,11.34,0,0,0-5.82-9.24c-.62-.33-1.24-.62-1.85-.87a20.45,20.45,0,0,0-4.7,2.79.92.92,0,0,1-.62.23,1,1,0,0,1-.75-.34,1,1,0,0,1,.12-1.37,19.41,19.41,0,0,1,3.28-2.22,14.19,14.19,0,0,0-3.47-.45,11.3,11.3,0,0,0-1.76.13c-1,.37-2.13.71-3.31,1l-.12.06a11.78,11.78,0,0,0-4.27,3.56C159,151.06,158,155,159,158.59c1.56,5.67,7.5,8.69,8,8.91a13.5,13.5,0,0,0,4.89,1,11.39,11.39,0,0,0,6.18-1.84,7.05,7.05,0,0,1-1.48-5.46c.43-2,2-3.53,4.63-4.67a.9.9,0,0,1,.28-.08s.2,0,.41,0a4.14,4.14,0,0,1,3,1.18,3.81,3.81,0,0,1,.65,3.51.7.7,0,0,1-.08.23,20.3,20.3,0,0,1-4.38,5.4,5.58,5.58,0,0,0,2.74.71c3.69,0,7.11-3.35,7.3-3.54a1,1,0,0,1,.69-.29,1,1,0,0,1,.68.29,1,1,0,0,1,0,1.37c-1.79,1.79-5.2,4.09-8.73,4.09a7.36,7.36,0,0,1-4.32-1.37,13.41,13.41,0,0,1-7.64,2.43,15.49,15.49,0,0,1-5.6-1.11l-.06,0c-.29-.13-7.16-3.42-9-10.15-1.15-4.16-.11-8.65,3.07-13.36a13.87,13.87,0,0,1,4.74-4,11.94,11.94,0,0,1,3.78-7.64c2.43-2.17,5.78-3.27,10-3.27m-11.67,10a12.69,12.69,0,0,1,1.84-.47,24.14,24.14,0,0,0,10.92-7.58l-1.09,0c-3.71,0-6.63.93-8.68,2.76a9.76,9.76,0,0,0-3,5.32m35.67,22.53c-7.89-5.78-3.18-14.24-3.13-14.32a.41.41,0,0,1,.07-.11,25.15,25.15,0,0,1,1.93-2.23c-.93-2-5.1-5.12-6.63-6.16a10.17,10.17,0,0,0-5.51-1.81,7.87,7.87,0,0,0-5.28,2.1,8.71,8.71,0,0,1,3.91,2.23c.91.56,3.8,3.2,6.51,15.09.17.45,1.78,4.21,8.13,5.21m3.49.23a28.55,28.55,0,0,0,2.94-.18h.11a1,1,0,0,1,.1,1.93l-.25,0a20,20,0,0,0,7.25,2.37c-2-2.86-4.88-7.12-5.73-9.44a11.43,11.43,0,0,1-2.1.48,10.44,10.44,0,0,1-1.52.12,4.27,4.27,0,0,1-3.25-1.16,3.53,3.53,0,0,1-.8-3c.57-3.7,3-6.5,6.91-8.12a19,19,0,0,1,5.71-1.31h.05a1,1,0,0,1,0,1.94,17,17,0,0,0-5.11,1.19c-3.31,1.37-5.22,3.59-5.67,6.62,0,0,0,0,0,.06h0a1.6,1.6,0,0,0,.31,1.27A2.51,2.51,0,0,0,207,157a8.72,8.72,0,0,0,1.27-.11c.28,0,5.82-.67,9.81-6.7a59.58,59.58,0,0,1,5.84-8.46,27.12,27.12,0,0,0-4.44-.37,22.35,22.35,0,0,0-18.26,8.74c-.38.7-3.7,7.29,2.83,11.88l.09.08a23.21,23.21,0,0,0,2,1.57m-26.63,1.91a18.52,18.52,0,0,0,4.09-4.94,2,2,0,0,0-.22-1.67,2.25,2.25,0,0,0-1.58-.53h-.1c-1.93.86-3.06,2-3.34,3.23a5.2,5.2,0,0,0,1.15,3.91m-.86-35.19c-4.34,0-7.82,1.14-10.33,3.4a12.39,12.39,0,0,0-3.92,7.7,14.12,14.12,0,0,0-4.68,4.08c-3.27,4.83-4.33,9.47-3.15,13.77,1.91,6.94,9,10.34,9.29,10.48l.1,0a15.92,15.92,0,0,0,5.77,1.14,13.81,13.81,0,0,0,7.64-2.33,7.77,7.77,0,0,0,4.32,1.27c3.58,0,7.13-2.28,9.09-4.24a1.48,1.48,0,0,0-1-2.51,1.48,1.48,0,0,0-1,.43c-.14.14-3.45,3.4-6.95,3.4a5.19,5.19,0,0,1-1.85-.34,20.7,20.7,0,0,0,3.94-5.05,2.06,2.06,0,0,0,.12-.35,4.25,4.25,0,0,0-.77-3.94,4.56,4.56,0,0,0-3.41-1.35l-.46,0a1.62,1.62,0,0,0-.43.12c-2.8,1.21-4.45,2.9-4.92,5a7.39,7.39,0,0,0,1.25,5.41,10.84,10.84,0,0,1-5.46,1.49,13.14,13.14,0,0,1-4.71-.93c-.21-.11-6.14-3.08-7.64-8.58-.94-3.44,0-7.25,2.76-11.35a11.16,11.16,0,0,1,4.07-3.39l.07,0c1.11-.29,2.21-.62,3.26-1a11.21,11.21,0,0,1,1.64-.12,12.56,12.56,0,0,1,2.09.18,17.84,17.84,0,0,0-2.22,1.61,1.47,1.47,0,1,0,1.9,2.24,19.88,19.88,0,0,1,4.37-2.63c.54.23,1.08.49,1.62.77a11,11,0,0,1,5.55,8.83,1.47,1.47,0,0,0,1.48,1.39h.06a1.49,1.49,0,0,0,1.4-1.56A13.57,13.57,0,0,0,181.73,143h.06a6.33,6.33,0,0,1,4.65,1.92,1.21,1.21,0,0,0,.35.25c.17.14,2.86,2.32,5.42,13.61a.74.74,0,0,0,0,.14c.09.28,2.42,6.91,13.16,7.14,2.93,1.95,7.41,4.23,12.34,4.23h.59a1.47,1.47,0,0,0,1.13-2.34A79.4,79.4,0,0,1,213,157.84a18.31,18.31,0,0,0,7.13-6.41c.05-.09,3.94-6.84,6.68-9.22a1.45,1.45,0,0,0,.47-1.43,1.43,1.43,0,0,0-1-1.09,26.91,26.91,0,0,0-6.62-.75,25.69,25.69,0,0,0-16.52,5.63c-2-2.72-6.33-5.72-6.84-6.07a12.69,12.69,0,0,0-6.84-2.2,10.46,10.46,0,0,0-7.93,3.73,13.71,13.71,0,0,0-4.13.78,21.18,21.18,0,0,0-2.32-.71c5.58-3.38,7.67-7.32,7.76-7.5a1.46,1.46,0,0,0-1.15-2.13,28.22,28.22,0,0,0-3-.17Zm-11,9.79a9,9,0,0,1,2.62-4.22c2-1.74,4.77-2.63,8.35-2.63h0a24.2,24.2,0,0,1-10,6.63c-.34.06-.67.13-1,.22Zm17.45.53a7.2,7.2,0,0,1,4.25-1.4,9.79,9.79,0,0,1,5.24,1.73c1.95,1.33,5.26,4,6.29,5.65-.6.64-1.18,1.31-1.72,2,0,0-.07.11-.11.17s-4.3,7.72,1.71,13.65c-4.37-1.27-5.61-4-5.79-4.43-2.65-11.64-5.52-14.6-6.68-15.34a9.05,9.05,0,0,0-3.19-2Zm16.46,9.7a21.86,21.86,0,0,1,17.84-8.51A27.18,27.18,0,0,1,223,142a66,66,0,0,0-5.32,7.85,14,14,0,0,1-9.42,6.45,8.33,8.33,0,0,1-1.22.11,2,2,0,0,1-1.48-.38,1.11,1.11,0,0,1-.18-.84.54.54,0,0,0,0-.08c.43-2.84,2.24-4.93,5.37-6.23a16.64,16.64,0,0,1,4.94-1.15,1.47,1.47,0,0,0,0-2.94h-.07a18.9,18.9,0,0,0-5.88,1.35c-4.12,1.68-6.62,4.62-7.21,8.5a4,4,0,0,0,.92,3.39,4.73,4.73,0,0,0,3.62,1.32,10.22,10.22,0,0,0,1.6-.13,11,11,0,0,0,1.72-.36,55.42,55.42,0,0,0,5,8.17,19.15,19.15,0,0,1-5-1.67,1.14,1.14,0,0,0,.11-.11,1.5,1.5,0,0,0,.31-1.08,1.46,1.46,0,0,0-1.46-1.31h-.16c-.93.1-1.85.16-2.74.17-1.16-.82-1.86-1.44-1.86-1.44l-.15-.12c-6.07-4.27-3.14-10.36-2.69-11.2Zm-22,14.42a4.29,4.29,0,0,1-.75-3.05c.24-1.1,1.24-2.05,3-2.84a1.78,1.78,0,0,1,1.19.36,1.44,1.44,0,0,1,.12,1.16,17.92,17.92,0,0,1-3.52,4.37Z"/><path class="cls-4" d="M148.43,115a1.67,1.67,0,0,0,.46,1.14c.23.17.67.07,1.31-.27l.18.33c-.48.25-1,.53-1.58.85s-1.07.62-1.52.9l-.21-.36a2.72,2.72,0,0,0,.58-.44,1.09,1.09,0,0,0,.28-.47,1.85,1.85,0,0,0,.06-.6c0-.23-.05-.51-.1-.85-.59-4.13-.8-6.23-1.07-10.46l.33-.17c3.2,2.78,4.74,4.22,7.66,7.2a4,4,0,0,0,.63.57,1.94,1.94,0,0,0,.54.27,1.61,1.61,0,0,0,.58,0,3.47,3.47,0,0,0,.66-.16l.15.35-.84.35-1,.41-.95.45-.81.39-.17-.34a5,5,0,0,0,.71-.4.56.56,0,0,0,.26-.39.77.77,0,0,0-.19-.46,6.49,6.49,0,0,0-.57-.66c-.68-.68-1-1-1.73-1.67-1.62.77-2.42,1.17-4,2C148.23,113.54,148.29,114,148.43,115Zm3.3-4.84c-1.65-1.58-2.49-2.36-4.23-3.88.18,2.31.29,3.46.56,5.74C149.52,111.23,150.25,110.86,151.73,110.15Z"/><path class="cls-4" d="M166.2,109.71l-1.82.53c-.69.21-1.41.44-2.13.69s-1.45.53-2.13.8-1.28.51-1.77.72l-.14-.33a3.56,3.56,0,0,0,.71-.36,1,1,0,0,0,.35-.4,1.06,1.06,0,0,0,0-.57,4.49,4.49,0,0,0-.25-.82c-1.06-2.76-1.59-4.15-2.66-6.91a2.83,2.83,0,0,0-.35-.7.8.8,0,0,0-.42-.32,1.16,1.16,0,0,0-.58,0,6.19,6.19,0,0,0-.82.26l-.15-.37c.22-.06.52-.17.93-.33l1.28-.48,1.29-.48,1-.39.13.37a7.79,7.79,0,0,0-.82.36,1,1,0,0,0-.43.38.78.78,0,0,0-.11.51,3.53,3.53,0,0,0,.2.75c1,2.77,1.54,4.16,2.57,6.94a2.65,2.65,0,0,0,.39.74.89.89,0,0,0,.58.3,2.7,2.7,0,0,0,.95-.11q.59-.15,1.5-.45a8,8,0,0,0,1.11-.44,2,2,0,0,0,.69-.53,1.88,1.88,0,0,0,.35-.74,5.25,5.25,0,0,0,.13-1.09l.34-.1C166.15,108.18,166.17,108.69,166.2,109.71Z"/><path class="cls-4" d="M175.9,107.48l-1.85.3c-.72.13-1.45.27-2.19.44s-1.49.34-2.2.52l-1.82.51-.1-.35a3.79,3.79,0,0,0,.74-.27.81.81,0,0,0,.39-.36,1,1,0,0,0,.11-.55,4.36,4.36,0,0,0-.15-.85c-.72-2.87-1.08-4.31-1.81-7.18a3,3,0,0,0-.27-.73.8.8,0,0,0-.38-.37,1.13,1.13,0,0,0-.57-.06c-.23,0-.5.09-.83.16l-.1-.38c.21,0,.53-.11.95-.21l1.31-.33,1.33-.32,1-.26.08.38c-.34.09-.63.17-.84.25a1.11,1.11,0,0,0-.48.33.84.84,0,0,0-.16.49,3.71,3.71,0,0,0,.11.77l1.72,7.2a2.44,2.44,0,0,0,.3.78.85.85,0,0,0,.53.37,2.67,2.67,0,0,0,.95,0q.6-.08,1.53-.27a8.18,8.18,0,0,0,1.15-.3,1.75,1.75,0,0,0,1.18-1.14,5.36,5.36,0,0,0,.25-1.06l.35-.06C176,106,176,106.47,175.9,107.48Z"/><path class="cls-4" d="M184.86,104.47a5.06,5.06,0,0,0,.11.86.76.76,0,0,0,.73.67,5.16,5.16,0,0,0,.81,0v.38l-.9,0-1.2,0-1.2.1-.89.08,0-.38a6,6,0,0,0,.83-.12.81.81,0,0,0,.47-.27,1,1,0,0,0,.19-.5,4.91,4.91,0,0,0,0-.85c-.21-3-.31-4.48-.52-7.47a2.6,2.6,0,0,0-.13-.74.78.78,0,0,0-.3-.4,1.38,1.38,0,0,0-.56-.16,7.08,7.08,0,0,0-.91,0l0-.41q2.14-.15,4.35-.24c1.47-.06,2.92-.1,4.36-.13,0,.92.05,1.37.09,2.29h-.45a5.57,5.57,0,0,0-.21-.87,1,1,0,0,0-.4-.54,1.68,1.68,0,0,0-.77-.29,8.35,8.35,0,0,0-1.33-.06c-1.05,0-1.57.06-2.61.12l.27,4.65c1-.06,1.48-.08,2.47-.11a1.93,1.93,0,0,0,1.12-.27,1.5,1.5,0,0,0,.36-1.11h.48c0,.21,0,.46,0,.76v.94c0,.34,0,.66,0,1s0,.58,0,.8h-.41a1.9,1.9,0,0,0-.36-1.15,1.47,1.47,0,0,0-1.16-.3c-1,0-1.49.05-2.49.1Z"/><path class="cls-4" d="M194.21,101.08l-.17,3.35a5,5,0,0,0,0,.81,1,1,0,0,0,.19.5,1,1,0,0,0,.46.29,3.67,3.67,0,0,0,.8.12l0,.38-.88-.08c-.38,0-.78,0-1.19-.06s-.81,0-1.19,0h-.88V106a4.31,4.31,0,0,0,.76,0,.92.92,0,0,0,.47-.2,1.14,1.14,0,0,0,.27-.5,4.54,4.54,0,0,0,.1-.87c.12-3,.17-4.46.29-7.43a2.74,2.74,0,0,0-.06-.76.86.86,0,0,0-.25-.47,1.23,1.23,0,0,0-.53-.22,7.74,7.74,0,0,0-.84-.09V95l1.13,0,1.41.06,1.44.07,1.18.06a5.29,5.29,0,0,1,2,.47,3.58,3.58,0,0,1,1.18.84,2.6,2.6,0,0,1,.52,1,2.75,2.75,0,0,1,.08.92,2.44,2.44,0,0,1-.34,1,3,3,0,0,1-.66.76,3.82,3.82,0,0,1-.88.55,3.92,3.92,0,0,1-1,.29c.19.35.4.73.64,1.15l.75,1.23.73,1.17.61.92a4.59,4.59,0,0,0,.75.88,1.86,1.86,0,0,0,1,.47l-.06.37c-.37-.07-.74-.14-1.12-.19s-.72-.08-1.06-.1c-.26-.41-.53-.87-.82-1.37l-.88-1.51-.91-1.52c-.29-.49-.57-.94-.82-1.34C195.56,101.15,195.11,101.12,194.21,101.08Zm0-.56a4.53,4.53,0,0,0,.63.08l.67.05a5.36,5.36,0,0,0,1.61-.1,3.16,3.16,0,0,0,1.11-.49,2.11,2.11,0,0,0,.67-.73,2.36,2.36,0,0,0,.27-.88,2.47,2.47,0,0,0-.08-1,1.92,1.92,0,0,0-.51-.85,2.94,2.94,0,0,0-1-.61,5.51,5.51,0,0,0-1.6-.32l-.83,0c-.28,0-.5,0-.67,0Z"/><path class="cls-4" d="M206.81,101.79c1,.2,1.52.3,2.52.53a1.14,1.14,0,0,0,1.64-1l.4.09-.85,3.5-.39-.1a4.83,4.83,0,0,0,.13-.78,1,1,0,0,0-.1-.5.77.77,0,0,0-.35-.34,3.5,3.5,0,0,0-.64-.2c-1-.23-1.48-.33-2.48-.52l-.68,3.51a3,3,0,0,0-.08.78.75.75,0,0,0,.22.5,1.39,1.39,0,0,0,.57.34c.26.09.6.18,1,.28l1.07.24a6.15,6.15,0,0,0,1.11.17,1.73,1.73,0,0,0,.81-.12,1.93,1.93,0,0,0,.66-.46,8.86,8.86,0,0,0,.66-.84l.41.11-.38.54c-.12.18-.24.36-.35.54s-.23.37-.34.56-.2.37-.29.56c-1.34-.38-2.7-.72-4.09-1s-2.73-.53-4-.72l.06-.37a2,2,0,0,0,1.34-.1,1.91,1.91,0,0,0,.53-1.2c.53-3,.8-4.43,1.34-7.39a3.75,3.75,0,0,0,.06-.76.72.72,0,0,0-.22-.48,1.25,1.25,0,0,0-.5-.29,5.54,5.54,0,0,0-.87-.19l.07-.39c1.41.26,2.86.54,4.36.85s2.9.64,4.22,1l-.6,2.33-.36-.09a4.81,4.81,0,0,0,.05-1,1.13,1.13,0,0,0-.28-.68,1.81,1.81,0,0,0-.7-.46,8.07,8.07,0,0,0-1.26-.36c-1-.23-1.53-.34-2.55-.54C207.35,99,207.17,100,206.81,101.79Z"/><path class="cls-4" d="M213.66,107.08l.44.13c0,.31,0,.62,0,.93a2.63,2.63,0,0,0,.17.86,1.87,1.87,0,0,0,.5.73,2.46,2.46,0,0,0,1,.53,3.3,3.3,0,0,0,2.12.07,1.92,1.92,0,0,0,1.28-1.2,2,2,0,0,0,.13-1,2.39,2.39,0,0,0-.29-.89,3.79,3.79,0,0,0-.61-.82c-.25-.27-.51-.55-.79-.81s-.57-.55-.85-.85a6.5,6.5,0,0,1-.73-1,3.28,3.28,0,0,1-.41-1,2.27,2.27,0,0,1,.06-1.15,3.07,3.07,0,0,1,.68-1.25,2.71,2.71,0,0,1,1.09-.68,3.64,3.64,0,0,1,1.38-.18,5.92,5.92,0,0,1,1.55.31l.49.2.47.2.46.24.52.26c-.17.83-.26,1.24-.44,2.07l-.43-.16a2.65,2.65,0,0,0-.13-1.5,2.16,2.16,0,0,0-1.35-1,3,3,0,0,0-2.2,0,1.93,1.93,0,0,0-1.09,1.22,1.78,1.78,0,0,0,0,1,3.11,3.11,0,0,0,.45,1,6.26,6.26,0,0,0,.76.9c.29.29.6.57.9.85a10.76,10.76,0,0,1,.81.85,4.32,4.32,0,0,1,.63.9,2.69,2.69,0,0,1,.29,1,2.25,2.25,0,0,1-.15,1.07,2.78,2.78,0,0,1-.84,1.22,3.37,3.37,0,0,1-1.2.66,4,4,0,0,1-1.39.16,5,5,0,0,1-1.39-.25,6.75,6.75,0,0,1-1.17-.5,6,6,0,0,1-1-.66C213.47,108.55,213.54,108.06,213.66,107.08Z"/><path class="cls-4" d="M232.81,111.13l1.56-2.84a2.68,2.68,0,0,0,.29-.72.82.82,0,0,0,0-.52,1.14,1.14,0,0,0-.4-.43c-.2-.14-.45-.29-.75-.46l.18-.35.94.53,1.23.68,1.21.68.88.48-.21.34a8,8,0,0,0-.79-.39,1.34,1.34,0,0,0-.58-.11.78.78,0,0,0-.47.23,3.26,3.26,0,0,0-.43.62c-1.48,2.6-2.21,3.91-3.69,6.51a4.34,4.34,0,0,0-.35.76.91.91,0,0,0,0,.56.92.92,0,0,0,.31.45,4.29,4.29,0,0,0,.66.46l-.19.33-.76-.47c-.33-.2-.69-.4-1.06-.61l-1.08-.59-.85-.42.18-.33a3.8,3.8,0,0,0,.76.31,1,1,0,0,0,.55,0,1,1,0,0,0,.45-.32,3.62,3.62,0,0,0,.45-.68l1.73-3.15a75.31,75.31,0,0,0-7.33-3.6l-1.44,3.3a7,7,0,0,0-.28.77.93.93,0,0,0,0,.55.91.91,0,0,0,.33.42,4.42,4.42,0,0,0,.72.4l-.15.35-.82-.38c-.34-.16-.71-.32-1.09-.48l-1.13-.48-.84-.32.14-.35a1.82,1.82,0,0,0,1.3.18,2,2,0,0,0,.8-1.09l2.87-6.86a3.06,3.06,0,0,0,.23-.75.93.93,0,0,0-.09-.51,1.12,1.12,0,0,0-.43-.4,7,7,0,0,0-.78-.39l.14-.36c.21.1.51.24.91.41l1.27.53,1.27.55q.62.27,1,.39l-.17.36a6.17,6.17,0,0,0-.82-.3,1.07,1.07,0,0,0-.58,0,.85.85,0,0,0-.44.3,3.11,3.11,0,0,0-.36.67l-1.28,2.94A75.29,75.29,0,0,1,232.81,111.13Z"/><path class="cls-5" d="M143.15,114.5a66.2,66.2,0,0,0-19.47,47"/><path class="cls-5" d="M256.58,161.48a66.23,66.23,0,0,0-19.46-47"/></svg>