<svg id="Layer_14" data-name="Layer 14" xmlns="http://www.w3.org/2000/svg" xmlns:xlink="http://www.w3.org/1999/xlink" viewBox="0 0 390 256"><defs><style>.cls-1,.cls-3{fill:none;}.cls-2{fill:#ff5e4a;}.cls-3{stroke-linecap:round;stroke-linejoin:round;stroke:url(#New_Pattern_Swatch_5);}</style><pattern id="New_Pattern_Swatch_5" data-name="New Pattern Swatch 5" width="88" height="88" patternTransform="translate(5.52 -13.62) scale(0.57)" patternUnits="userSpaceOnUse" viewBox="0 0 88 88"><rect class="cls-1" width="88" height="88"/><rect class="cls-2" width="88" height="88"/></pattern></defs><title>aiaiArtboard 1</title><path class="cls-3" d="M234,128.78A39,39,0,0,1,211.8,164a36.79,36.79,0,0,1-5.05,2c-1.19.24-1.88-.26-2.05-1.55V150.1a9.55,9.55,0,0,0-2.74-6.69h3.51a15,15,0,0,0,14.91-14.91v-3c0-2.88-1.57-5.78-4.15-8.34a17.66,17.66,0,0,0-.34-10.78c-4.06-.68-8.4,2.42-10.6,4.3a32.76,32.76,0,0,0-10.62-1.82,31.34,31.34,0,0,0-9.85,1.63c-7.5-5.66-10.32-4.3-10.32-4.3-2.44,5.87-1.33,9.55-.62,11-2.41,2.56-3.83,5.44-3.83,8.3v3A15,15,0,0,0,185,143.41h3.27a9.58,9.58,0,0,0-2.69,5.73,18.25,18.25,0,0,1-3.49.91c-5.64.77-8.6-5.16-8.6-5.16a7.3,7.3,0,0,0-6.7-3.25c-2.15.38,1.05,2.68,1.05,2.68a7.64,7.64,0,0,1,3.83,5.35c1,4.06,5.83,4.88,5.83,4.88,4.43.58,6.83.13,8-.31v10.17c0,1.39-.49,2-1.6,1.76a38.49,38.49,0,0,1-6.15-2.41,39,39,0,1,1,56.26-35Z"/></svg>