<svg id="Layer_12" data-name="Layer 12" xmlns="http://www.w3.org/2000/svg" xmlns:xlink="http://www.w3.org/1999/xlink" viewBox="0 0 390 256"><defs><style>.cls-1,.cls-3{fill:none;}.cls-2{fill:#fe5f50;}.cls-3{stroke-linecap:round;stroke-linejoin:round;stroke:url(#New_Pattern_Swatch_2);}</style><pattern id="New_Pattern_Swatch_2" data-name="New Pattern Swatch 2" width="88" height="88" patternTransform="matrix(0.58, 0, 0, -0.58, 89.85, 209.14)" patternUnits="userSpaceOnUse" viewBox="0 0 88 88"><rect class="cls-1" width="88" height="88"/><rect class="cls-1" width="88" height="88"/><rect class="cls-2" width="88" height="88"/></pattern></defs><title>coArtboard 1</title><g id="Layer_2" data-name="Layer 2"><g id="레이어_2" data-name="레이어 2"><path class="cls-3" d="M230.53,118.19a23.69,23.69,0,0,1-23.69,23.68h0a23.53,23.53,0,0,1-11.89-3.23l7.83-8.61,1.16-1.26a10.59,10.59,0,0,0,3,.42,11,11,0,1,0-10.47-7.67l-1.24,1.37a23.55,23.55,0,0,0-12-3.26c0-.48,0-1,0-1.44a23.69,23.69,0,1,1,47.37,0Z"/><path class="cls-3" d="M217.82,118.19a11,11,0,0,1-11,11,10.59,10.59,0,0,1-3-.42L202.74,130l-7.83,8.66-1.28,1.42a11,11,0,1,1-10.57-7.77,10.71,10.71,0,0,1,3.13.44l1.11-1.23,7.85-8.66,1.24-1.38a11,11,0,0,1,20.9-6.71A11.12,11.12,0,0,1,217.82,118.19Z"/><path class="cls-3" d="M206.84,143.31a23.69,23.69,0,1,1-23.68-23.68h0a23.55,23.55,0,0,1,12,3.26l-7.85,8.67-1.11,1.22a11,11,0,1,0,7.94,10.53,10.86,10.86,0,0,0-.5-3.25l1.28-1.42a23.53,23.53,0,0,0,11.89,3.23C206.83,142.35,206.84,142.83,206.84,143.31Z"/></g></g></svg>