<svg id="Layer_17" data-name="Layer 17" xmlns="http://www.w3.org/2000/svg" xmlns:xlink="http://www.w3.org/1999/xlink" viewBox="0 0 390 256"><defs><style>.cls-1,.cls-3{fill:none;}.cls-2{fill:#ff5e4a;}.cls-3{stroke-linecap:round;stroke-linejoin:round;stroke:url(#New_Pattern_Swatch_5);}</style><pattern id="New_Pattern_Swatch_5" data-name="New Pattern Swatch 5" width="88" height="88" patternTransform="translate(-97.41 -28.25)" patternUnits="userSpaceOnUse" viewBox="0 0 88 88"><rect class="cls-1" width="88" height="88"/><rect class="cls-2" width="88" height="88"/></pattern></defs><title>aqfgArtboard 1</title><path class="cls-3" d="M247.88,99.68s-10.75,32.25-41,45.5c0,0,25.5-16.5,30.75-36.25,0,0-21.63,42.88-61,40-9.76-.71-21-4-34.5-29.25"/><path class="cls-3" d="M142.13,119.68s11.75,42.25,49.75,36c0,0,40.5-5.75,56-56"/><path class="cls-3" d="M175.13,146.68s10.75-2.25,14.75-11.5c0,0,1.75-10.25-3.5-9.25,0,0-1.75,6.5-15,4.75,0,0,2.75-10.25,11.75-9.5,0,0-2.25-7.25,6.75-13.5,0,0,5.5,10,0,14.75,0,0,14,6,10.25,18.75C200.13,141.18,195.88,148.43,175.13,146.68Z"/></svg>