<svg id="Layer_4" data-name="Layer 4" xmlns="http://www.w3.org/2000/svg" xmlns:xlink="http://www.w3.org/1999/xlink" viewBox="0 0 390 256"><defs><style>.cls-1,.cls-3{fill:none;}.cls-2{fill:#ff5e4a;}.cls-3{stroke-miterlimit:10;stroke:url(#New_Pattern_Swatch_5);}</style><pattern id="New_Pattern_Swatch_5" data-name="New Pattern Swatch 5" width="88" height="88" patternTransform="translate(-147.04 -199.6) scale(1.38)" patternUnits="userSpaceOnUse" viewBox="0 0 88 88"><rect class="cls-1" width="88" height="88"/><rect class="cls-2" width="88" height="88"/></pattern></defs><title>ssArtboard 1</title><path class="cls-3" d="M141.68,107.05c-2.56,5.84-3.05,13.16-1,17.07,2.91,5.76,7.25,7.68,16,7.12,4.48-.22,16.07-3.13,52.35-12.81,25.6-6.9,48.93-13.15,51.84-13.94s5.05-1.28,4.84-1.06c-1.21,1.21-108.67,46.72-113.37,48A45,45,0,0,1,141.4,153c-18.07.14-22.69-16.57-9.82-35.56,2.21-3.27,11.31-14.44,11.74-14.44A22.68,22.68,0,0,1,141.68,107.05Z"/></svg>