<svg id="Layer_5" data-name="Layer 5" xmlns="http://www.w3.org/2000/svg" xmlns:xlink="http://www.w3.org/1999/xlink" viewBox="0 0 390 256"><defs><style>.cls-1,.cls-3{fill:none;}.cls-2{fill:#ff5e4a;}.cls-3{stroke-linecap:round;stroke-linejoin:round;stroke:url(#New_Pattern_Swatch_5);}</style><pattern id="New_Pattern_Swatch_5" data-name="New Pattern Swatch 5" width="88" height="88" patternTransform="translate(-11.89 -25.91) scale(0.24)" patternUnits="userSpaceOnUse" viewBox="0 0 88 88"><rect class="cls-1" width="88" height="88"/><rect class="cls-2" width="88" height="88"/></pattern></defs><title>sszArtboard 1</title><circle class="cls-3" cx="195" cy="127.04" r="9.83"/><path class="cls-3" d="M209.32,110.28l-9.19-3.7,7.34-3c.35,1.1.7,2.23,1,3.38S209.06,109.19,209.32,110.28Z"/><path class="cls-3" d="M233.55,95.54,223.24,99.9c-1-.13-2.7-.59-2.84-1.47a2,2,0,0,0-.47-1,1.74,1.74,0,0,0,0-.6c-.36-1.51-.52-4.51.7-5l.08,0,9.93-4.06Z"/><path class="cls-3" d="M170.11,96.85a2.13,2.13,0,0,0-.05.61,2,2,0,0,0-.46,1c-.13.83-1.74,1.33-2.84,1.47l-10.31-4.36,3-7.71,9.93,4.06.08,0C170.63,92.35,170.47,95.35,170.11,96.85Z"/><path class="cls-3" d="M189.87,106.58l-9.18,3.7c.25-1.09.52-2.18.82-3.28s.67-2.28,1-3.38Z"/><path class="cls-3" d="M210.21,114.78,195,108.65l-15.21,6.13c-3.43,20.35,1.67,40.8,15.21,60.92C208.54,155.58,213.64,135.13,210.21,114.78ZM195,140.71A13.67,13.67,0,1,1,208.67,127,13.68,13.68,0,0,1,195,140.71Z"/><path class="cls-3" d="M206.19,100,195,104.51,183.81,100A78.77,78.77,0,0,1,195,79.92,78.77,78.77,0,0,1,206.19,100Z"/><path class="cls-3" d="M156.18,128.81a2,2,0,0,1-.75.15,1.92,1.92,0,0,1-1.77-1.17l-1.48-3.49-.32-.76-1.55-3.67a1.92,1.92,0,1,1,3.53-1.49l1,2.32,1.5,3.53.88,2.06A1.92,1.92,0,0,1,156.18,128.81Z"/><path class="cls-3" d="M152.18,124.3a2.32,2.32,0,0,1-.21-.38,2.38,2.38,0,0,1-.11-.38Z"/><path class="cls-3" d="M237.8,95.9l-4.32-11.27A1.9,1.9,0,0,0,231,83.54l-11.72,4.78c-3.21,1.18-3.69,4.92-3.38,7.78l-6.12,2.46L206.19,100,195,104.51l-5.13,2.07-9.18,3.7L176.4,112l-21.58,8.69,1.5,3.53,19.35-7.79,4.12-1.66L195,108.65l5.13-2.07,7.34-3,3.57-1.43,5.78-2.33c1,2.85,4.54,3.81,6.62,3.92a2.06,2.06,0,0,0,.85-.15l12.47-5.28A1.92,1.92,0,0,0,237.8,95.9Zm-14.56,4c-1-.13-2.7-.59-2.84-1.47a2,2,0,0,0-.47-1,1.74,1.74,0,0,0,0-.6c-.36-1.51-.52-4.51.7-5l.08,0,9.93-4.06,3,7.71Z"/><path class="cls-3" d="M213.6,112l-4.28-1.73c-.26-1.09-.53-2.18-.83-3.28s-.67-2.28-1-3.38l3.57-1.43c.38,1.17.75,2.38,1.1,3.62C212.71,107.87,213.2,109.93,213.6,112Z"/><path class="cls-3" d="M182.53,103.62c-.35,1.1-.7,2.23-1,3.38s-.57,2.19-.82,3.28L176.4,112c.4-2.08.89-4.14,1.46-6.2.35-1.24.72-2.45,1.1-3.62Z"/><path class="cls-3" d="M209.75,98.56,206.19,100A78.77,78.77,0,0,0,195,79.92,78.77,78.77,0,0,0,183.81,100l-3.56-1.44c5.39-14.18,13-22.54,13.34-22.94a1.91,1.91,0,0,1,2.82,0C196.78,76,204.36,84.38,209.75,98.56Z"/><path class="cls-3" d="M214.1,139c-2.16,13.88-8.06,27.73-17.53,41.16a1.93,1.93,0,0,1-3.14,0C184,166.76,178.06,152.91,175.9,139a78.12,78.12,0,0,1-.23-22.59l4.12-1.66c-3.43,20.35,1.67,40.8,15.21,60.92,13.54-20.12,18.64-40.57,15.21-60.92l4.12,1.66A78.12,78.12,0,0,1,214.1,139Z"/><path class="cls-3" d="M183.81,100l-3.56-1.44-6.12-2.46c.31-2.86-.17-6.6-3.38-7.78L159,83.54a1.9,1.9,0,0,0-2.51,1.09L152.2,95.9a1.92,1.92,0,0,0,1,2.45l12.47,5.28a2.06,2.06,0,0,0,.85.15c2.08-.11,5.62-1.07,6.62-3.92l5.78,2.33,3.57,1.43,7.34,3,5.13-2.07Zm-13.7-3.15a2.13,2.13,0,0,0-.05.61,2,2,0,0,0-.46,1c-.13.83-1.74,1.33-2.84,1.47l-10.31-4.36,3-7.71,9.93,4.06.08,0C170.63,92.35,170.47,95.35,170.11,96.85Z"/><polygon class="cls-3" points="235.18 120.7 233.68 124.23 214.33 116.44 210.21 114.78 195 108.65 200.13 106.58 209.32 110.28 213.6 112.01 235.18 120.7"/><path class="cls-3" d="M238.14,123.54a2.38,2.38,0,0,1-.11.38,2.32,2.32,0,0,1-.21.38Z"/><path class="cls-3" d="M239.69,119.87l-1.55,3.67-.32.76-1.48,3.49a1.92,1.92,0,0,1-1.77,1.17,2,2,0,0,1-.75-.15,1.92,1.92,0,0,1-1-2.52l.88-2.06,1.5-3.53,1-2.32a1.92,1.92,0,1,1,3.53,1.49Z"/><path class="cls-3" d="M195,113.37A13.67,13.67,0,1,0,208.67,127,13.68,13.68,0,0,0,195,113.37Zm0,23.5a9.83,9.83,0,1,1,9.83-9.83A9.84,9.84,0,0,1,195,136.87Z"/></svg>