<svg id="Layer_3" data-name="Layer 3" xmlns="http://www.w3.org/2000/svg" xmlns:xlink="http://www.w3.org/1999/xlink" viewBox="0 0 390 256"><defs><style>.cls-1,.cls-3{fill:none;}.cls-2{fill:#ff5e4a;}.cls-3{stroke-miterlimit:10;stroke:url(#New_Pattern_Swatch_5);}</style><pattern id="New_Pattern_Swatch_5" data-name="New Pattern Swatch 5" width="88" height="88" patternTransform="translate(95.52 -49.73) scale(1.09)" patternUnits="userSpaceOnUse" viewBox="0 0 88 88"><rect class="cls-1" width="88" height="88"/><rect class="cls-2" width="88" height="88"/></pattern></defs><title>ssvgaxArtboard 1</title><rect class="cls-3" x="139.25" y="146.76" width="49.04" height="4.15"/><path class="cls-3" d="M188.29,143.5s-35.39-39.33-49-46.5v49h49Z"/><rect class="cls-3" x="139.25" y="155.99" width="49.04" height="3.01"/><path class="cls-3" d="M250.75,101.63c-7.17,9.94-20.12,15.5-20.12,15.5-17.82,6.94-20.13,13.18-20.13,13.18V146h40.25Z"/><rect class="cls-3" x="210.5" y="146.76" width="40.25" height="4.15"/><rect class="cls-3" x="188.29" y="146.04" width="22.21" height="0.71"/><rect class="cls-3" x="188.29" y="150.9" width="22.21" height="5.09"/><polygon class="cls-3" points="118.69 126.08 121.01 130.79 126.22 131.55 122.45 135.22 123.34 140.41 118.69 137.96 114.03 140.41 114.92 135.22 111.15 131.55 116.36 130.79 118.69 126.08"/><polygon class="cls-3" points="92.21 126.08 94.54 130.79 99.74 131.55 95.98 135.22 96.87 140.41 92.21 137.96 87.56 140.41 88.44 135.22 84.68 131.55 89.88 130.79 92.21 126.08"/><polygon class="cls-3" points="297.79 126.08 300.12 130.79 305.32 131.55 301.56 135.22 302.44 140.41 297.79 137.96 293.13 140.41 294.02 135.22 290.26 131.55 295.46 130.79 297.79 126.08"/><polygon class="cls-3" points="271.31 126.08 273.64 130.79 278.85 131.55 275.08 135.22 275.97 140.41 271.31 137.96 266.66 140.41 267.55 135.22 263.78 131.55 268.99 130.79 271.31 126.08"/></svg>