<svg id="Layer_1" data-name="Layer 1" xmlns="http://www.w3.org/2000/svg" xmlns:xlink="http://www.w3.org/1999/xlink" viewBox="0 0 390 256"><defs><style>.cls-1,.cls-3{fill:none;}.cls-2{fill:#ff5e4a;}.cls-3{stroke-miterlimit:10;stroke:url(#New_Pattern_Swatch_5);}</style><pattern id="New_Pattern_Swatch_5" data-name="New Pattern Swatch 5" width="88" height="88" patternTransform="translate(26.35 39.5) scale(1.02)" patternUnits="userSpaceOnUse" viewBox="0 0 88 88"><rect class="cls-1" width="88" height="88"/><rect class="cls-2" width="88" height="88"/></pattern></defs><title>ssvgArtboard 1</title><path class="cls-1" d="M219.1,132.05a52.89,52.89,0,0,1-12.64,12.73,32.17,32.17,0,0,1-5.24,3.17,32.74,32.74,0,0,1-12.74-7.2c-2.47-2.33-6.46-7.06-6.34-13.19a23.1,23.1,0,0,1,37,4.49Z"/><path class="cls-1" d="M239.77,131.86c-.52,6.54-5.76,12.17-13.3,15.27,0-.63.07-1.27.07-1.93A26.85,26.85,0,0,0,223,131.86a43.19,43.19,0,0,0,7.73-16.25,31.36,31.36,0,0,1,2.72,2.23C236,120.28,240.29,125.34,239.77,131.86Z"/><path class="cls-1" d="M221.94,143a22.72,22.72,0,0,1-.75,5.8,37.9,37.9,0,0,1-8.3.92c-1.18,0-2.36-.06-3.53-.16a38,38,0,0,1-5.77-1c.72-.4,1.45-.81,2.17-1.25A61.63,61.63,0,0,0,220.47,135,22.4,22.4,0,0,1,221.94,143Z"/><path class="cls-1" d="M188.58,151.62a49.9,49.9,0,0,1-9.85.31c-.29,0-.59,0-.89-.05a22.51,22.51,0,0,1-1-14.8C178.52,142.77,182.74,147.89,188.58,151.62Z"/><path class="cls-1" d="M223.81,121.82a33.94,33.94,0,0,1-2.81,7,26.33,26.33,0,0,0-38.59-3.7c1.84-9.25,13.13-16.27,26.64-16.27,1.17,0,2.36.05,3.54.16a38.62,38.62,0,0,1,11.53,2.84A28.23,28.23,0,0,1,223.81,121.82Z"/><path class="cls-1" d="M216.54,157.61A23.09,23.09,0,0,1,180.13,156a53.58,53.58,0,0,0,11.92-2.38,42.28,42.28,0,0,0,15.33,4.21A44.24,44.24,0,0,0,216.54,157.61Z"/><path class="cls-1" d="M223.86,110.18a43.06,43.06,0,0,0-12.24-2.84c-18.48-1.55-34.43,8.47-35.6,22.41a18.23,18.23,0,0,0,0,3.84,26.91,26.91,0,0,0-1.92,17.68,30.94,30.94,0,0,1-16.4-12.13c-6.53-10.76-.5-32.84,16.55-43.19,8-4.85,18.12-6.46,26.21-6.46,8.6,0,17,6.21,20.17,11.49A26.73,26.73,0,0,1,223.86,110.18Z"/><path class="cls-3" d="M221.19,148.8a22.8,22.8,0,0,1-4.65,8.81,44.24,44.24,0,0,1-9.16.18,42.28,42.28,0,0,1-15.33-4.21,61.42,61.42,0,0,0,11.54-5,38,38,0,0,0,5.77,1c1.17.1,2.35.16,3.53.16A37.9,37.9,0,0,0,221.19,148.8Z"/><path class="cls-3" d="M224.12,111.88A38.62,38.62,0,0,0,212.59,109c-1.18-.11-2.37-.16-3.54-.16-13.51,0-24.8,7-26.64,16.27a26.64,26.64,0,0,0-6.34,8.44,18.23,18.23,0,0,1,0-3.84c1.17-13.94,17.12-24,35.6-22.41a43.06,43.06,0,0,1,12.24,2.84C224,110.75,224.05,111.32,224.12,111.88Z"/><path class="cls-3" d="M201.22,148a41.37,41.37,0,0,1-12.64,3.67c-5.84-3.73-10.06-8.85-11.78-14.54a22.73,22.73,0,0,1,5.34-9.52c-.12,6.13,3.87,10.86,6.34,13.19A32.74,32.74,0,0,0,201.22,148Z"/><path class="cls-3" d="M243,135.39c-.78,9.34-8.22,16.93-18.63,20.44a27.07,27.07,0,0,0,2.11-8.7c7.54-3.1,12.78-8.73,13.3-15.27s-3.74-11.58-6.31-14a31.36,31.36,0,0,0-2.72-2.23c.13-.56.24-1.12.33-1.69C239,119.22,243.7,127.05,243,135.39Z"/><path class="cls-3" d="M226.54,145.2c0,.66,0,1.3-.07,1.93a27.07,27.07,0,0,1-2.11,8.7,26.44,26.44,0,0,1-48.61.29,43.16,43.16,0,0,0,4.38-.16,23.09,23.09,0,0,0,36.41,1.65,22.28,22.28,0,0,0,5.4-14.61,22.4,22.4,0,0,0-1.47-8c.9-1,1.75-2.08,2.54-3.15A26.85,26.85,0,0,1,226.54,145.2Z"/><path class="cls-3" d="M228.1,96.48c-9.14-15.07-33.95-16.72-55.43-3.7s-31.49,35.79-22.35,50.86c4.92,8.12,14.4,12.33,25.43,12.48a43.16,43.16,0,0,0,4.38-.16,53.58,53.58,0,0,0,11.92-2.38,61.42,61.42,0,0,0,11.54-5c.72-.4,1.45-.81,2.17-1.25A61.63,61.63,0,0,0,220.47,135c.9-1,1.75-2.08,2.54-3.15a43.19,43.19,0,0,0,7.73-16.25c.13-.56.24-1.12.33-1.69A25.15,25.15,0,0,0,228.1,96.48Zm-4.29,25.34a33.94,33.94,0,0,1-2.81,7,35,35,0,0,1-1.9,3.2,52.89,52.89,0,0,1-12.64,12.73,32.17,32.17,0,0,1-5.24,3.17,41.37,41.37,0,0,1-12.64,3.67,49.9,49.9,0,0,1-9.85.31c-.29,0-.59,0-.89-.05a18.11,18.11,0,0,1-3.69-.61,30.94,30.94,0,0,1-16.4-12.13c-6.53-10.76-.5-32.84,16.55-43.19,8-4.85,18.12-6.46,26.21-6.46,8.6,0,17,6.21,20.17,11.49a26.73,26.73,0,0,1,3.18,9.2c.09.57.19,1.14.26,1.7A28.23,28.23,0,0,1,223.81,121.82Z"/><path class="cls-3" d="M221,128.85a35,35,0,0,1-1.9,3.2,23.1,23.1,0,0,0-37-4.49,22.73,22.73,0,0,0-5.34,9.52,22.51,22.51,0,0,0,1,14.8,18.11,18.11,0,0,1-3.69-.61,26.82,26.82,0,0,1,8.26-26.12,26.33,26.33,0,0,1,38.59,3.7Z"/></svg>