<svg xmlns="http://www.w3.org/2000/svg" xmlns:xlink="http://www.w3.org/1999/xlink" viewBox="0 0 527.59 449.49"><defs><style>.cls-1,.cls-20{fill:none;}.cls-2{fill:#ffe578;}.cls-3{fill:#fec052;}.cls-4{fill:#fe5f50;}.cls-12,.cls-13,.cls-15,.cls-18,.cls-19,.cls-20,.cls-5,.cls-6,.cls-7,.cls-8,.cls-9{stroke-miterlimit:10;}.cls-5,.cls-6,.cls-7,.cls-8,.cls-9{stroke-width:0.75px;}.cls-5{fill:url(#New_Pattern_Swatch_3);}.cls-5,.cls-6{stroke:url(#New_Pattern_Swatch_6);}.cls-6{fill:url(#New_Pattern_Swatch_4);}.cls-7{fill:url(#New_Pattern_Swatch_3-3);stroke:url(#New_Pattern_Swatch_6-7);}.cls-8{fill:url(#New_Pattern_Swatch_4-5);stroke:url(#New_Pattern_Swatch_6-11);}.cls-9{fill:#f4d3ce;stroke:url(#New_Pattern_Swatch_6-13);}.cls-10{fill:#f7f2f5;}.cls-10,.cls-11,.cls-21{stroke:#7f6371;}.cls-10,.cls-11,.cls-14,.cls-21{stroke-linecap:round;stroke-linejoin:round;}.cls-10,.cls-11,.cls-12,.cls-13,.cls-14,.cls-15,.cls-18,.cls-19,.cls-20,.cls-21{stroke-width:0.25px;}.cls-11,.cls-18{fill:#fff;}.cls-12{fill:#fc6050;stroke:#ea3636;}.cls-13{fill:url(#New_Pattern_Swatch_3-7);}.cls-13,.cls-20{stroke:url(#New_Pattern_Swatch_4-7);}.cls-14,.cls-17{fill:#27cba4;}.cls-14{stroke:#189675;}.cls-15{fill:url(#New_Pattern_Swatch_3-9);stroke:url(#New_Pattern_Swatch_4-9);}.cls-16{fill:#189675;}.cls-18{stroke:url(#New_Pattern_Swatch_4-11);}.cls-19{fill:url(#New_Pattern_Swatch_3-11);stroke:url(#New_Pattern_Swatch_4-13);}.cls-21{fill:#d2c7cc;}</style><pattern id="New_Pattern_Swatch_3" data-name="New Pattern Swatch 3" width="88" height="88" patternTransform="translate(-525.79 -537.05) scale(1.78)" patternUnits="userSpaceOnUse" viewBox="0 0 88 88"><rect class="cls-1" width="88" height="88"/><rect class="cls-2" width="88" height="88"/></pattern><pattern id="New_Pattern_Swatch_6" data-name="New Pattern Swatch 6" width="88" height="88" patternTransform="translate(-525.79 -537.05) scale(1.78)" patternUnits="userSpaceOnUse" viewBox="0 0 88 88"><rect class="cls-1" width="88" height="88"/><rect class="cls-4" width="88" height="88"/></pattern><pattern id="New_Pattern_Swatch_4" data-name="New Pattern Swatch 4" width="88" height="88" patternTransform="translate(-525.79 -537.05) scale(1.78)" patternUnits="userSpaceOnUse" viewBox="0 0 88 88"><rect class="cls-1" width="88" height="88"/><rect class="cls-3" width="88" height="88"/></pattern><pattern id="New_Pattern_Swatch_3-3" data-name="New Pattern Swatch 3" width="88" height="88" patternTransform="translate(-526.38 -537.05) scale(1.78)" patternUnits="userSpaceOnUse" viewBox="0 0 88 88"><rect class="cls-1" width="88" height="88"/><rect class="cls-2" width="88" height="88"/></pattern><pattern id="New_Pattern_Swatch_6-7" data-name="New Pattern Swatch 6" width="88" height="88" patternTransform="translate(-526.38 -537.05) scale(1.78)" patternUnits="userSpaceOnUse" viewBox="0 0 88 88"><rect class="cls-1" width="88" height="88"/><rect class="cls-4" width="88" height="88"/></pattern><pattern id="New_Pattern_Swatch_4-5" data-name="New Pattern Swatch 4" width="88" height="88" patternTransform="translate(-525.49 -537.05) scale(1.78)" patternUnits="userSpaceOnUse" viewBox="0 0 88 88"><rect class="cls-1" width="88" height="88"/><rect class="cls-3" width="88" height="88"/></pattern><pattern id="New_Pattern_Swatch_6-11" data-name="New Pattern Swatch 6" width="88" height="88" patternTransform="translate(-525.49 -537.05) scale(1.78)" patternUnits="userSpaceOnUse" viewBox="0 0 88 88"><rect class="cls-1" width="88" height="88"/><rect class="cls-4" width="88" height="88"/></pattern><pattern id="New_Pattern_Swatch_6-13" data-name="New Pattern Swatch 6" width="88" height="88" patternTransform="translate(-525.19 -537.05) scale(1.78)" patternUnits="userSpaceOnUse" viewBox="0 0 88 88"><rect class="cls-1" width="88" height="88"/><rect class="cls-4" width="88" height="88"/></pattern><pattern id="New_Pattern_Swatch_3-7" data-name="New Pattern Swatch 3" width="88" height="88" patternTransform="translate(-152.47 -281.04) scale(0.53)" patternUnits="userSpaceOnUse" viewBox="0 0 88 88"><rect class="cls-1" width="88" height="88"/><rect class="cls-2" width="88" height="88"/></pattern><pattern id="New_Pattern_Swatch_4-7" data-name="New Pattern Swatch 4" width="88" height="88" patternTransform="translate(-114.14 -281.04) scale(0.53)" patternUnits="userSpaceOnUse" viewBox="0 0 88 88"><rect class="cls-1" width="88" height="88"/><rect class="cls-3" width="88" height="88"/></pattern><pattern id="New_Pattern_Swatch_3-9" data-name="New Pattern Swatch 3" width="88" height="88" patternTransform="translate(-87.33 -50.19) scale(0.3 0.21)" patternUnits="userSpaceOnUse" viewBox="0 0 88 88"><rect class="cls-1" width="88" height="88"/><rect class="cls-2" width="88" height="88"/></pattern><pattern id="New_Pattern_Swatch_4-9" data-name="New Pattern Swatch 4" width="88" height="88" patternTransform="translate(-65.4 -50.19) scale(0.3 0.21)" patternUnits="userSpaceOnUse" viewBox="0 0 88 88"><rect class="cls-1" width="88" height="88"/><rect class="cls-3" width="88" height="88"/></pattern><pattern id="New_Pattern_Swatch_4-11" data-name="New Pattern Swatch 4" width="88" height="88" patternTransform="translate(-141.82 -305.53) scale(0.53)" patternUnits="userSpaceOnUse" viewBox="0 0 88 88"><rect class="cls-1" width="88" height="88"/><rect class="cls-3" width="88" height="88"/></pattern><pattern id="New_Pattern_Swatch_3-11" data-name="New Pattern Swatch 3" width="88" height="88" patternTransform="translate(-154.6 -280.01) scale(0.53)" patternUnits="userSpaceOnUse" viewBox="0 0 88 88"><rect class="cls-1" width="88" height="88"/><rect class="cls-2" width="88" height="88"/></pattern><pattern id="New_Pattern_Swatch_4-13" data-name="New Pattern Swatch 4" width="88" height="88" patternTransform="translate(-116.27 -280.01) scale(0.53)" patternUnits="userSpaceOnUse" viewBox="0 0 88 88"><rect class="cls-1" width="88" height="88"/><rect class="cls-3" width="88" height="88"/></pattern></defs><title>aqfgAsset 23</title><g id="Layer_2" data-name="Layer 2"><g id="Layer_1-2" data-name="Layer 1"><path class="cls-5" d="M314.28,414.07v-22h-101v22s2.44,24.77-57.75,28.84H372C311.84,438.84,314.28,414.07,314.28,414.07Z"/><polygon class="cls-6" points="314.28 370.12 263.8 370.12 213.31 370.12 213.31 392.09 314.28 392.09 314.28 370.12"/><path class="cls-6" d="M372,442.91H155.56c-6,.41-12.7.61-20.06.56v5.64H392.09v-5.64C384.73,443.52,378.07,443.32,372,442.91Z"/><path class="cls-7" d="M527.22,3.94A3.58,3.58,0,0,0,523.65.38H3.94A3.57,3.57,0,0,0,.38,3.94v319H527.22Z"/><path class="cls-7" d="M.38,322.89v50.49A3.58,3.58,0,0,0,3.94,377H523.65a3.59,3.59,0,0,0,3.57-3.57V322.89Z"/><circle class="cls-8" cx="263.8" cy="349.03" r="10.69"/><rect class="cls-9" x="30.07" y="27.7" width="467.45" height="295.2"/><rect class="cls-10" x="62.56" y="61.2" width="402.47" height="15.17"/><rect class="cls-10" x="363.16" y="76.38" width="101.87" height="219.6"/><rect class="cls-10" x="62.56" y="76.38" width="34.05" height="219.6"/><rect class="cls-11" x="96.61" y="76.38" width="266.56" height="219.6"/><circle class="cls-12" cx="69.99" cy="69.24" r="3.55"/><circle class="cls-13" cx="80.99" cy="69.24" r="3.55"/><circle class="cls-14" cx="91.99" cy="69.24" r="3.55"/><rect class="cls-15" x="72.71" y="118.75" width="17.06" height="11.84"/><rect class="cls-16" x="76.72" y="237.94" width="13.87" height="13.87"/><rect class="cls-17" x="71.89" y="232.74" width="13.87" height="13.87"/><rect class="cls-18" x="126.42" y="134.37" width="199.12" height="119.26"/><polygon class="cls-12" points="74.35 87.19 88.14 96.18 81.03 97.12 77.48 103.35 74.35 87.19"/><polygon class="cls-19" points="83.42 204.6 87.63 207.57 82.14 215.35 77.94 212.38 83.42 204.6"/><polygon class="cls-19" points="74.86 221.14 78.89 206.72 81.22 211.95 86.95 212.3 74.86 221.14"/><ellipse class="cls-14" cx="81.24" cy="154.07" rx="7.46" ry="7.34"/><polygon class="cls-12" points="81.24 172.28 84.88 179.65 93.01 180.83 87.13 186.56 88.52 194.66 81.24 190.84 73.97 194.66 75.36 186.56 69.48 180.83 77.61 179.65 81.24 172.28"/><rect class="cls-13" x="126.42" y="134.37" width="199.66" height="28.26"/><line class="cls-20" x1="187.93" y1="163.42" x2="187.93" y2="254.46"/><line class="cls-20" x1="187.93" y1="227.3" x2="325.81" y2="227.3"/><rect class="cls-11" x="373.19" y="101.13" width="80.65" height="12.78"/><rect class="cls-11" x="373.19" y="119.5" width="80.65" height="12.78"/><rect class="cls-11" x="373.19" y="171.41" width="80.65" height="12.78"/><rect class="cls-11" x="373.19" y="189.77" width="80.65" height="12.78"/><rect class="cls-11" x="373.19" y="208.14" width="80.65" height="12.78"/><rect class="cls-21" x="363.16" y="76.38" width="101.87" height="13.58"/><rect class="cls-21" x="363.16" y="147.45" width="101.87" height="13.58"/></g></g></svg>