<svg xmlns="http://www.w3.org/2000/svg" xmlns:xlink="http://www.w3.org/1999/xlink" viewBox="0 0 527.59 449.49"><defs><style>.cls-1,.cls-12{fill:none;}.cls-2{fill:#ffe578;}.cls-3{fill:#fec052;}.cls-4{fill:#fe5f50;}.cls-10,.cls-12,.cls-13,.cls-5,.cls-6,.cls-7,.cls-8,.cls-9{stroke-miterlimit:10;}.cls-10,.cls-11,.cls-12,.cls-5,.cls-6,.cls-7,.cls-8,.cls-9{stroke-width:0.75px;}.cls-5{fill:url(#New_Pattern_Swatch_3);}.cls-5,.cls-6{stroke:url(#New_Pattern_Swatch_6);}.cls-6{fill:url(#New_Pattern_Swatch_4);}.cls-7{fill:url(#New_Pattern_Swatch_3-3);stroke:url(#New_Pattern_Swatch_6-7);}.cls-8{fill:url(#New_Pattern_Swatch_4-5);stroke:url(#New_Pattern_Swatch_6-11);}.cls-9{fill:#f4d3ce;stroke:url(#New_Pattern_Swatch_6-13);}.cls-10{fill:url(#New_Pattern_Swatch_3-7);stroke:url(#New_Pattern_Swatch_6-15);}.cls-11,.cls-13{fill:#fff;}.cls-11{stroke-linecap:round;stroke-linejoin:round;stroke:url(#New_Pattern_Swatch_6-17);}.cls-12{stroke:url(#New_Pattern_Swatch_6-23);}.cls-13{stroke:url(#New_Pattern_Swatch_6-55);}</style><pattern id="New_Pattern_Swatch_3" data-name="New Pattern Swatch 3" width="88" height="88" patternTransform="translate(-433.51 -747.39) scale(1.78)" patternUnits="userSpaceOnUse" viewBox="0 0 88 88"><rect class="cls-1" width="88" height="88"/><rect class="cls-2" width="88" height="88"/></pattern><pattern id="New_Pattern_Swatch_6" data-name="New Pattern Swatch 6" width="88" height="88" patternTransform="translate(-433.51 -747.39) scale(1.78)" patternUnits="userSpaceOnUse" viewBox="0 0 88 88"><rect class="cls-1" width="88" height="88"/><rect class="cls-4" width="88" height="88"/></pattern><pattern id="New_Pattern_Swatch_4" data-name="New Pattern Swatch 4" width="88" height="88" patternTransform="translate(-433.51 -747.39) scale(1.78)" patternUnits="userSpaceOnUse" viewBox="0 0 88 88"><rect class="cls-1" width="88" height="88"/><rect class="cls-3" width="88" height="88"/></pattern><pattern id="New_Pattern_Swatch_3-3" data-name="New Pattern Swatch 3" width="88" height="88" patternTransform="translate(-434.1 -747.39) scale(1.78)" patternUnits="userSpaceOnUse" viewBox="0 0 88 88"><rect class="cls-1" width="88" height="88"/><rect class="cls-2" width="88" height="88"/></pattern><pattern id="New_Pattern_Swatch_6-7" data-name="New Pattern Swatch 6" width="88" height="88" patternTransform="translate(-434.1 -747.39) scale(1.78)" patternUnits="userSpaceOnUse" viewBox="0 0 88 88"><rect class="cls-1" width="88" height="88"/><rect class="cls-4" width="88" height="88"/></pattern><pattern id="New_Pattern_Swatch_4-5" data-name="New Pattern Swatch 4" width="88" height="88" patternTransform="translate(-433.21 -747.39) scale(1.78)" patternUnits="userSpaceOnUse" viewBox="0 0 88 88"><rect class="cls-1" width="88" height="88"/><rect class="cls-3" width="88" height="88"/></pattern><pattern id="New_Pattern_Swatch_6-11" data-name="New Pattern Swatch 6" width="88" height="88" patternTransform="translate(-433.21 -747.39) scale(1.78)" patternUnits="userSpaceOnUse" viewBox="0 0 88 88"><rect class="cls-1" width="88" height="88"/><rect class="cls-4" width="88" height="88"/></pattern><pattern id="New_Pattern_Swatch_6-13" data-name="New Pattern Swatch 6" width="88" height="88" patternTransform="translate(-432.91 -747.39) scale(1.78)" patternUnits="userSpaceOnUse" viewBox="0 0 88 88"><rect class="cls-1" width="88" height="88"/><rect class="cls-4" width="88" height="88"/></pattern><pattern id="New_Pattern_Swatch_3-7" data-name="New Pattern Swatch 3" width="88" height="88" patternTransform="translate(-425.62 -744.39) scale(1.78)" patternUnits="userSpaceOnUse" viewBox="0 0 88 88"><rect class="cls-1" width="88" height="88"/><rect class="cls-2" width="88" height="88"/></pattern><pattern id="New_Pattern_Swatch_6-15" data-name="New Pattern Swatch 6" width="88" height="88" patternTransform="translate(-425.62 -744.39) scale(1.78)" patternUnits="userSpaceOnUse" viewBox="0 0 88 88"><rect class="cls-1" width="88" height="88"/><rect class="cls-4" width="88" height="88"/></pattern><pattern id="New_Pattern_Swatch_6-17" data-name="New Pattern Swatch 6" width="88" height="88" patternTransform="translate(253.47 163.37) scale(1.24)" patternUnits="userSpaceOnUse" viewBox="0 0 88 88"><rect class="cls-1" width="88" height="88"/><rect class="cls-4" width="88" height="88"/></pattern><pattern id="New_Pattern_Swatch_6-23" data-name="New Pattern Swatch 6" width="88" height="88" patternTransform="translate(57.6 -14.4) scale(0.45)" patternUnits="userSpaceOnUse" viewBox="0 0 88 88"><rect class="cls-1" width="88" height="88"/><rect class="cls-4" width="88" height="88"/></pattern><pattern id="New_Pattern_Swatch_6-55" data-name="New Pattern Swatch 6" width="88" height="88" patternTransform="translate(290.34 159.36) rotate(-45) scale(0.85)" patternUnits="userSpaceOnUse" viewBox="0 0 88 88"><rect class="cls-1" width="88" height="88"/><rect class="cls-4" width="88" height="88"/></pattern></defs><title>aiaiAsset 18</title><g id="Layer_2" data-name="Layer 2"><g id="Layer_1-2" data-name="Layer 1"><path class="cls-5" d="M314.28,414.07v-22h-101v22s2.44,24.77-57.75,28.84H372C311.84,438.84,314.28,414.07,314.28,414.07Z"/><polygon class="cls-6" points="314.28 370.12 263.8 370.12 213.31 370.12 213.31 392.09 314.28 392.09 314.28 370.12"/><path class="cls-6" d="M372,442.91H155.56c-6,.41-12.7.61-20.06.56v5.64H392.09v-5.64C384.73,443.52,378.07,443.32,372,442.91Z"/><path class="cls-7" d="M527.22,3.94A3.58,3.58,0,0,0,523.65.38H3.94A3.57,3.57,0,0,0,.38,3.94v319H527.22Z"/><path class="cls-7" d="M.38,322.89v50.49A3.58,3.58,0,0,0,3.94,377H523.65a3.59,3.59,0,0,0,3.57-3.57V322.89Z"/><circle class="cls-8" cx="263.8" cy="349.03" r="10.69"/><rect class="cls-9" x="30.07" y="27.7" width="467.45" height="295.2"/><path class="cls-10" d="M334.13,141.43H195.46V126.1a6,6,0,0,0-6-6H154.13a6,6,0,0,0-6,6V260.77a6,6,0,0,0,6,6h180a6,6,0,0,0,6-6V147.43A6,6,0,0,0,334.13,141.43Z"/><polygon class="cls-11" points="320.8 204.77 204.13 204.77 204.13 76.77 293.88 76.77 320.8 103.6 320.8 204.77"/><polygon class="cls-11" points="293.88 103.6 320.8 103.6 293.88 76.77 293.88 103.6"/><path class="cls-10" d="M153.46,267.43h180a6,6,0,0,0,6-6l40.67-93.33a6,6,0,0,0-6-6h-180a6,6,0,0,0-6,6l-40.67,93.33A6,6,0,0,0,153.46,267.43Z"/><path class="cls-12" d="M271,121.35h8.64a18.14,18.14,0,0,0-4-11.42,36.23,36.23,0,0,1-6.19,3.26A20.71,20.71,0,0,1,271,121.35Z"/><path class="cls-12" d="M269.44,113.19a36.23,36.23,0,0,0,6.19-3.26,16.93,16.93,0,0,0-1.32-1.49,18.22,18.22,0,0,0-12.91-5.34A23.69,23.69,0,0,1,269.44,113.19Z"/><path class="cls-12" d="M253.27,113.41a22.94,22.94,0,0,0,8,1.58h.12V103.1A23.69,23.69,0,0,0,253.27,113.41Z"/><path class="cls-12" d="M269.44,113.19a23.69,23.69,0,0,0-8-10.09V115A22.75,22.75,0,0,0,269.44,113.19Z"/><path class="cls-12" d="M251.8,121.35a21.79,21.79,0,0,0,1.55,7.91,22.79,22.79,0,0,1,7.93-1.55h.12v-6.37Z"/><path class="cls-12" d="M261.4,115h-.12a22.94,22.94,0,0,1-8-1.58,20.71,20.71,0,0,0-1.47,7.94h9.6Z"/><path class="cls-12" d="M261.4,127.72a22.82,22.82,0,0,1,8,1.75,21.84,21.84,0,0,0,1.65-8.12H261.4Z"/><path class="cls-12" d="M261.4,115v6.37H271a20.71,20.71,0,0,0-1.57-8.16A22.75,22.75,0,0,1,261.4,115Z"/><path class="cls-12" d="M261.4,103.1a18.18,18.18,0,0,0-12.9,5.34,17.63,17.63,0,0,0-1.61,1.85,37.24,37.24,0,0,0,6.38,3.12A23.69,23.69,0,0,1,261.4,103.1Z"/><path class="cls-12" d="M253.27,113.41a37.24,37.24,0,0,1-6.38-3.12,18.12,18.12,0,0,0-3.74,11.06h8.65A20.71,20.71,0,0,1,253.27,113.41Z"/><path class="cls-12" d="M261.4,139.6a18.19,18.19,0,0,0,12.91-5.35,16.81,16.81,0,0,0,1.32-1.48,36.42,36.42,0,0,0-6.27-3.3A24.22,24.22,0,0,1,261.4,139.6Z"/><path class="cls-12" d="M271,121.35a21.84,21.84,0,0,1-1.65,8.12,36.42,36.42,0,0,1,6.27,3.3,18.14,18.14,0,0,0,4-11.42Z"/><path class="cls-12" d="M269.36,129.47a22.82,22.82,0,0,0-8-1.75V139.6A24.22,24.22,0,0,0,269.36,129.47Z"/><path class="cls-12" d="M261.28,127.71a22.79,22.79,0,0,0-7.93,1.55,24.14,24.14,0,0,0,8,10.34V127.72Z"/><path class="cls-12" d="M251.8,121.35h-8.65a18.12,18.12,0,0,0,3.74,11.06,37.13,37.13,0,0,1,6.46-3.15A21.79,21.79,0,0,1,251.8,121.35Z"/><path class="cls-12" d="M253.35,129.26a37.13,37.13,0,0,0-6.46,3.15,16.57,16.57,0,0,0,1.61,1.84,18.15,18.15,0,0,0,12.9,5.35A24.14,24.14,0,0,1,253.35,129.26Z"/><path class="cls-13" d="M397.65,207.79l-18-7.43L367,195.12l-18-7.42c-3.49-1.44-5.17.23-3.73,3.72l7.43,18,5.24,12.68,7.42,18c1.44,3.49,3.57,3.41,4.73-.18l4.58-14.18a10.83,10.83,0,0,1,1.05-2.25l18.88,18.88a3.77,3.77,0,0,0,5.33-5.34L381,218.15a10.65,10.65,0,0,1,2.25-1.06l14.17-4.58C401.05,211.35,401.14,209.23,397.65,207.79Z"/></g></g></svg>