<svg xmlns="http://www.w3.org/2000/svg" xmlns:xlink="http://www.w3.org/1999/xlink" viewBox="0 0 80.42 150.28"><defs><style>.cls-1{fill:none;}.cls-2{fill:#ff8867;}.cls-3{fill:#fe5f50;}.cls-4,.cls-6{fill:#fff;}.cls-4{stroke-miterlimit:10;stroke-width:0.75px;stroke:url(#New_Pattern_Swatch_6);}.cls-5{fill:url(#New_Pattern_Swatch_5);}.cls-6{stroke-linecap:round;stroke-linejoin:round;stroke:url(#New_Pattern_Swatch_5-5);}</style><pattern id="New_Pattern_Swatch_6" data-name="New Pattern Swatch 6" width="88" height="88" patternTransform="translate(-164.94 -299.37) scale(1.46 1.46)" patternUnits="userSpaceOnUse" viewBox="0 0 88 88"><rect class="cls-1" width="88" height="88"/><rect class="cls-3" width="88" height="88"/></pattern><pattern id="New_Pattern_Swatch_5" data-name="New Pattern Swatch 5" width="88" height="88" patternTransform="translate(-164.94 -299.37) scale(1.46 1.46)" patternUnits="userSpaceOnUse" viewBox="0 0 88 88"><rect class="cls-1" width="88" height="88"/><rect class="cls-2" width="88" height="88"/></pattern><pattern id="New_Pattern_Swatch_5-5" data-name="New Pattern Swatch 5" width="88" height="88" patternTransform="translate(-101.18 -183.06) scale(0.86 0.86)" patternUnits="userSpaceOnUse" viewBox="0 0 88 88"><rect class="cls-1" width="88" height="88"/><rect class="cls-2" width="88" height="88"/></pattern></defs><title>aiaiAsset 16</title><g id="Layer_2" data-name="Layer 2"><g id="Layer_1-2" data-name="Layer 1"><rect class="cls-4" x="0.38" y="0.38" width="79.67" height="149.53" rx="6" ry="6"/><polygon class="cls-5" points="7.01 12.36 7.01 16.43 7.01 124.04 73.4 124.04 73.4 115.4 73.4 12.36 7.01 12.36"/><ellipse class="cls-5" cx="40.21" cy="138.24" rx="7.9" ry="7.89"/><rect class="cls-6" x="16.01" y="54.26" width="50.83" height="35.27"/><polygon class="cls-6" points="41.42 64.7 41.42 64.7 16.01 89.73 66.84 89.73 41.42 64.7"/><polygon class="cls-6" points="41.42 75.34 41.42 75.34 16.01 54.26 66.84 54.26 41.42 75.34"/></g></g></svg>