<svg xmlns="http://www.w3.org/2000/svg" viewBox="0 0 213 213"><defs><style>.cls-1{fill:none;stroke:#fe5f50;stroke-miterlimit:10;}</style></defs><title>svAsset 56</title><g id="Layer_2" data-name="Layer 2"><g id="Layer_1-2" data-name="Layer 1"><circle class="cls-1" cx="106.5" cy="106.5" r="106"/><rect class="cls-1" x="35.9" y="46.89" width="52.87" height="13.3"/><rect class="cls-1" x="35.9" y="60.19" width="52.87" height="67.19"/><rect class="cls-1" x="44.43" y="69.74" width="18.08" height="18.08"/><line class="cls-1" x1="68.98" y1="69.86" x2="81.83" y2="69.86"/><line class="cls-1" x1="68.98" y1="78.78" x2="81.83" y2="78.78"/><line class="cls-1" x1="68.98" y1="87.71" x2="81.83" y2="87.71"/><line class="cls-1" x1="43.86" y1="99.53" x2="59.09" y2="99.53"/><line class="cls-1" x1="43.86" y1="108.45" x2="59.09" y2="108.45"/><line class="cls-1" x1="43.86" y1="117.38" x2="59.09" y2="117.38"/><line class="cls-1" x1="65.91" y1="99.53" x2="81.15" y2="99.53"/><line class="cls-1" x1="65.91" y1="108.45" x2="81.15" y2="108.45"/><line class="cls-1" x1="65.91" y1="117.38" x2="81.15" y2="117.38"/><rect class="cls-1" x="124.24" y="93.62" width="52.87" height="13.3"/><rect class="cls-1" x="124.24" y="106.92" width="52.87" height="67.19"/><rect class="cls-1" x="132.76" y="116.47" width="18.08" height="18.08"/><line class="cls-1" x1="157.32" y1="116.58" x2="170.17" y2="116.58"/><line class="cls-1" x1="157.32" y1="125.51" x2="170.17" y2="125.51"/><line class="cls-1" x1="157.32" y1="134.43" x2="170.17" y2="134.43"/><line class="cls-1" x1="132.19" y1="146.26" x2="147.43" y2="146.26"/><line class="cls-1" x1="132.19" y1="155.18" x2="147.43" y2="155.18"/><line class="cls-1" x1="132.19" y1="164.1" x2="147.43" y2="164.1"/><line class="cls-1" x1="154.25" y1="146.26" x2="169.48" y2="146.26"/><line class="cls-1" x1="154.25" y1="155.18" x2="169.48" y2="155.18"/><line class="cls-1" x1="154.25" y1="164.1" x2="169.48" y2="164.1"/><polyline class="cls-1" points="88.59 82.36 108.89 82.36 108.89 135.74 123.89 135.74"/></g></g></svg>