<svg xmlns="http://www.w3.org/2000/svg" viewBox="0 0 154 205"><defs><style>.cls-1{fill:none;stroke:#fe5f50;stroke-linecap:round;stroke-linejoin:round;}.cls-2{fill:#fe5f50;}</style></defs><title>sszAsset 68</title><g id="Layer_2" data-name="Layer 2"><g id="Layer_1-2" data-name="Layer 1"><polygon class="cls-1" points="102.27 51.5 152.55 51.5 102.27 1.58 102.27 51.5"/><polygon class="cls-1" points="101.05 0.5 0.5 0.5 0.5 204.5 153.5 204.5 153.5 52.58 101.05 0.5"/><path class="cls-1" d="M119.5,115.67s.33-11-13.67-11.67l-.11-.13-6.41,6.88.86.92s0,16.33,10.33,20.66c0,0,11,3.34,17.33-.33C127.83,132,121.17,124.67,119.5,115.67Z"/><path class="cls-1" d="M71.5,65.67S46.5,32,26.17,25.33c0,0,6.66,23,36.66,45.67l32.48,34.75,6.41-6.88Z"/><path class="cls-2" d="M57.92,168.24c6,0,8.46,3.38,8.46,7.92,0,5.4-3.67,7.88-9,7.88H52.13v9.75H49V168.24Zm5.22,7.84c0-3.27-2.12-5-5.54-5H52.13v10.11h5C61.34,181.19,63.14,179,63.14,176.08Z"/><path class="cls-2" d="M69.41,190.05l2-2.41a9.18,9.18,0,0,0,7.06,3.45c3.13,0,5.25-1.44,5.25-3.92,0-2.84-2.3-3.6-5.72-4.9-3.78-1.4-7.63-3-7.63-7.52,0-3.81,3.42-6.77,7.81-6.77a12.88,12.88,0,0,1,8.06,3l-1.9,2.49a10.09,10.09,0,0,0-6.16-2.6c-2.41,0-4.54,1.3-4.57,3.75s2.27,3.35,5.47,4.57C83.37,180.87,87,182,87,186.81S82.9,194,78.44,194A12.2,12.2,0,0,1,69.41,190.05Z"/><path class="cls-2" d="M99.57,168.24c8.1,0,13.29,5.25,13.29,12.81s-5,12.74-13.18,12.74H91.94V168.24Zm10.05,12.81c0-5.83-4-10-10-10H95.07V191H99.5C105.73,191,109.62,186.81,109.62,181.05Z"/></g></g></svg>