<svg xmlns="http://www.w3.org/2000/svg" viewBox="0 0 505.18 181.48"><defs><style>.cls-1{fill:#707070;}</style></defs><title>coAsset 31</title><g id="Layer_2" data-name="Layer 2"><g id="Layer_1-2" data-name="Layer 1"><path class="cls-1" d="M2,8.28V4.47H1.07v-1H2V1.16L3.09,1V3.49H5.34v1H3.09V8.11c0,.83.18,1.22.83,1.22A2.62,2.62,0,0,0,5.08,9l.29,1a2.93,2.93,0,0,1-1.65.42C2.51,10.39,2,9.65,2,8.28Z"/><path class="cls-1" d="M6.64,1.43a.83.83,0,0,1,1.66,0,.83.83,0,0,1-1.66,0ZM8,3.49v6.82H6.9V3.49Z"/><path class="cls-1" d="M10.4,8.28V4.47H9.51v-1h.89V1.16L11.53,1V3.49h2.26v1H11.53V8.11c0,.83.18,1.22.83,1.22A2.62,2.62,0,0,0,13.52,9l.29,1a2.9,2.9,0,0,1-1.65.42C11,10.39,10.4,9.65,10.4,8.28Z"/><path class="cls-1" d="M16.51,0V10.31H15.38V0Z"/><path class="cls-1" d="M24.76,7.24H19.44a2.26,2.26,0,0,0,2.34,2.12,2.46,2.46,0,0,0,2-.91l.8.67a3.29,3.29,0,0,1-2.81,1.27,3.3,3.3,0,0,1-3.45-3.48A3.31,3.31,0,0,1,21.65,3.4a3.13,3.13,0,0,1,3.14,3.38C24.79,7,24.76,7.16,24.76,7.24Zm-5.29-.92h4.19a2,2,0,0,0-2-1.88A2.16,2.16,0,0,0,19.47,6.32Z"/><path class="cls-1" d="M27.29,8.77l-.84,3.37H25.6l.46-3.37Z"/><path class="cls-1" d="M34.13,0V4.68h0A2.91,2.91,0,0,1,36.66,3.4c1.47,0,2.48.87,2.48,2.82v4.09H38V6.54c0-1.54-.69-2.1-1.68-2.1a2.14,2.14,0,0,0-2.2,2.44v3.43H33V0Z"/><path class="cls-1" d="M47.16,7.24H41.84a2.26,2.26,0,0,0,2.34,2.12,2.46,2.46,0,0,0,2-.91l.8.67a3.54,3.54,0,0,1-6.26-2.21A3.31,3.31,0,0,1,44.05,3.4a3.13,3.13,0,0,1,3.14,3.38C47.19,7,47.16,7.16,47.16,7.24Zm-5.29-.92h4.19a2,2,0,0,0-2-1.88A2.16,2.16,0,0,0,41.87,6.32Z"/><path class="cls-1" d="M48.41,7A3.34,3.34,0,0,1,51.72,3.4a2.72,2.72,0,0,1,2.39,1.31l0,0V3.49h1.14v6.82H54.18V9.08h0a2.72,2.72,0,0,1-2.44,1.31A3.25,3.25,0,0,1,48.41,7Zm5.77,0a2.32,2.32,0,1,0-4.63,0,2.32,2.32,0,1,0,4.63,0Z"/><path class="cls-1" d="M56.86,7A3.36,3.36,0,0,1,60.19,3.4a2.8,2.8,0,0,1,2.44,1.31h0V0h1.13V10.31H62.69V9.05h0a2.74,2.74,0,0,1-2.46,1.34A3.27,3.27,0,0,1,56.86,7Zm5.83,0A2.34,2.34,0,1,0,58,7a2.34,2.34,0,1,0,4.67,0Z"/><path class="cls-1" d="M67.11,0V10.31H66V0Z"/><path class="cls-1" d="M69.15,1.43a.83.83,0,0,1,1.66,0,.83.83,0,0,1-1.66,0Zm1.39,2.06v6.82H69.4V3.49Z"/><path class="cls-1" d="M73.89,3.49V4.72h0A2.88,2.88,0,0,1,76.38,3.4c1.47,0,2.45.91,2.45,2.86v4.05H77.7V6.58C77.7,5,77,4.44,76,4.44c-1.28,0-2.12.93-2.12,2.47v3.4H72.75V3.49Z"/><path class="cls-1" d="M86.85,7.24H81.53a2.26,2.26,0,0,0,2.34,2.12,2.46,2.46,0,0,0,2-.91l.8.67a3.54,3.54,0,0,1-6.26-2.21A3.31,3.31,0,0,1,83.74,3.4a3.13,3.13,0,0,1,3.14,3.38C86.88,7,86.85,7.16,86.85,7.24Zm-5.29-.92h4.19a2,2,0,0,0-2-1.88A2.16,2.16,0,0,0,81.56,6.32Z"/><path class="cls-1" d="M87.94,9.43l.57-.87a2.76,2.76,0,0,0,2.09.82c.83,0,1.3-.4,1.3-.92s-.63-.77-1.62-1.13-2-.84-2-2.09A2,2,0,0,1,90.48,3.4a3.6,3.6,0,0,1,2.35.84l-.59.9a2.57,2.57,0,0,0-1.81-.73,1,1,0,0,0-1.05.83c0,.53.55.8,1.29,1.06,1.44.56,2.4.82,2.38,2.15,0,1.06-.81,1.94-2.45,1.94A4,4,0,0,1,87.94,9.43Z"/><path class="cls-1" d="M12.93,42.79l8.64,22.72H18.65l-2-5.54H6.46l-2,5.54H1.54l8.6-22.72Zm-1.38,3.36h-.06L7.36,57.54h8.38Z"/><path class="cls-1" d="M24.54,49.93l4.77,12.28h0l4.77-12.28h2.78L30.56,65.51h-2.5L21.73,49.93Z"/><path class="cls-1" d="M53,58.5H40.8a5.17,5.17,0,0,0,5.34,4.83,5.57,5.57,0,0,0,4.51-2.08l1.83,1.54a7.56,7.56,0,0,1-6.43,2.91,7.56,7.56,0,0,1-7.88-8c0-4.7,3.24-8,7.68-8C50.11,49.74,53,53,53,57.45,53,57.86,53,58.31,53,58.5Zm-12.1-2.11h9.57c-.38-2.56-2-4.29-4.61-4.29A4.93,4.93,0,0,0,40.86,56.39Z"/><path class="cls-1" d="M59.42,49.93v2.84h.07a5.81,5.81,0,0,1,5.05-3,4.5,4.5,0,0,1,.64,0v2.88c-.38,0-.77-.07-1-.07-3,0-4.74,2.27-4.74,5.41v7.52H56.83V49.93Z"/><path class="cls-1" d="M68.48,60.87v-8.7h-2V49.93h2V44.62l2.59-.29v5.6h5.15v2.24H71.07v8.32c0,1.88.42,2.78,1.89,2.78a5.74,5.74,0,0,0,2.65-.8l.68,2.27a6.84,6.84,0,0,1-3.78,1C69.76,65.7,68.48,64,68.48,60.87Z"/><path class="cls-1" d="M78,57.83c0-4.61,3.17-8.09,7.58-8.09a6.16,6.16,0,0,1,5.44,3l.07,0V49.93h2.59V65.51h-2.5V62.69h0a6.22,6.22,0,0,1-5.57,3C81.25,65.7,78,62.57,78,57.83Zm13.18,0c0-3.2-2.14-5.73-5.21-5.73a5.38,5.38,0,0,0-5.35,5.73,5.28,5.28,0,1,0,10.56,0Z"/><path class="cls-1" d="M114.17,42.79c7.2,0,11.81,4.67,11.81,11.39s-4.45,11.33-11.71,11.33h-6.88V42.79Zm8.93,11.39a8.47,8.47,0,0,0-8.89-8.86h-4V63h3.94C119.64,63,123.1,59.3,123.1,54.18Z"/><path class="cls-1" d="M144,58.5H131.87a5.17,5.17,0,0,0,5.34,4.83,5.57,5.57,0,0,0,4.51-2.08l1.83,1.54a8.09,8.09,0,0,1-14.3-5.06c0-4.7,3.23-8,7.67-8,4.26,0,7.17,3.26,7.17,7.71C144.09,57.86,144,58.31,144,58.5Zm-12.1-2.11h9.57c-.38-2.56-2.05-4.29-4.61-4.29A4.93,4.93,0,0,0,131.93,56.39Z"/><path class="cls-1" d="M150.49,49.93v2.81h0a6.16,6.16,0,0,1,5.21-3,4.84,4.84,0,0,1,4.83,3.32h0a6.43,6.43,0,0,1,5.73-3.32c3.46,0,5.38,2.36,5.38,6.81v9h-2.59V57.25c0-3.32-1.19-5.15-3.56-5.15s-4.38,2.18-4.38,5.67v7.74h-2.59V57.25c0-3.32-1.28-5.15-3.62-5.15-2.56,0-4.48,2.18-4.48,5.67v7.74H147.9V49.93Z"/><path class="cls-1" d="M175.23,57.73a8,8,0,1,1,8.06,8A7.76,7.76,0,0,1,175.23,57.73Zm13.44,0a5.4,5.4,0,1,0-5.38,5.6A5.36,5.36,0,0,0,188.67,57.73Z"/><path class="cls-1" d="M212.22,42.79c5.31,0,7.52,3,7.52,7,0,4.8-3.26,7-8,7h-4.67v8.67h-2.79V42.79Zm4.64,7c0-2.91-1.89-4.45-4.93-4.45h-4.86v9h4.41C215.26,54.31,216.86,52.39,216.86,49.77Z"/><path class="cls-1" d="M237.82,42.79v2.53H226.68v7.61h9.12v2.53h-9.12V63h11.81v2.53H223.9V42.79Z"/><path class="cls-1" d="M250.59,54.21c0-6.43,4-11.64,11.29-11.64a11.31,11.31,0,0,1,8.87,4.35l-2.08,1.73a8.5,8.5,0,0,0-6.79-3.43c-5.15,0-8.38,3.78-8.38,9,0,5.44,3.62,8.84,8.41,8.84a8.44,8.44,0,0,0,6.79-3.43l2.08,1.76a11,11,0,0,1-8.87,4.29C255.77,65.67,250.59,61.64,250.59,54.21Z"/><path class="cls-1" d="M274,59.21V49.93h2.59v8.54c0,3.52,1.35,4.86,3.81,4.86s4.64-2.14,4.64-5.85V49.93h2.59V65.51h-2.59V62.82h0a6.06,6.06,0,0,1-5.15,2.88C276.28,65.7,274,63.65,274,59.21Z"/><path class="cls-1" d="M292.7,60.87v-8.7h-2V49.93h2V44.62l2.59-.29v5.6h5.15v2.24h-5.15v8.32c0,1.88.42,2.78,1.89,2.78a5.74,5.74,0,0,0,2.65-.8l.68,2.27a6.84,6.84,0,0,1-3.78,1C294,65.7,292.7,64,292.7,60.87Z"/><path class="cls-1" d="M304.41,60.87v-8.7h-2V49.93h2V44.62l2.59-.29v5.6h5.15v2.24H307v8.32c0,1.88.42,2.78,1.89,2.78a5.82,5.82,0,0,0,2.66-.8l.67,2.27a6.84,6.84,0,0,1-3.78,1C305.69,65.7,304.41,64,304.41,60.87Z"/><path class="cls-1" d="M328.67,58.5H316.51a5.17,5.17,0,0,0,5.34,4.83,5.57,5.57,0,0,0,4.51-2.08l1.83,1.54a8.09,8.09,0,0,1-14.31-5.06c0-4.7,3.23-8,7.68-8,4.26,0,7.17,3.26,7.17,7.71C328.73,57.86,328.67,58.31,328.67,58.5Zm-12.1-2.11h9.57c-.39-2.56-2.05-4.29-4.61-4.29A4.92,4.92,0,0,0,316.57,56.39Z"/><path class="cls-1" d="M331.51,57.83c0-4.61,3.24-8.09,7.62-8.09a6.39,6.39,0,0,1,5.57,3h0V42h2.59V65.51h-2.49V62.63h0a6.3,6.3,0,0,1-5.63,3.07A7.47,7.47,0,0,1,331.51,57.83Zm13.32,0c0-3.2-2.15-5.73-5.28-5.73a5.39,5.39,0,0,0-5.38,5.73,5.33,5.33,0,1,0,10.66,0Z"/><path class="cls-1" d="M368,42.79c7.2,0,11.81,4.67,11.81,11.39s-4.45,11.33-11.71,11.33h-6.88V42.79ZM377,54.18a8.47,8.47,0,0,0-8.89-8.86h-4V63H368C373.5,63,377,59.3,377,54.18Z"/><path class="cls-1" d="M397.88,58.5H385.72a5.17,5.17,0,0,0,5.34,4.83,5.59,5.59,0,0,0,4.52-2.08l1.82,1.54a8.09,8.09,0,0,1-14.3-5.06c0-4.7,3.23-8,7.68-8,4.25,0,7.16,3.26,7.16,7.71C397.94,57.86,397.88,58.31,397.88,58.5Zm-12.09-2.11h9.56c-.38-2.56-2.05-4.29-4.6-4.29A4.92,4.92,0,0,0,385.79,56.39Z"/><path class="cls-1" d="M404.34,49.93v2.81h0a6.16,6.16,0,0,1,5.21-3,4.84,4.84,0,0,1,4.83,3.32h0a6.41,6.41,0,0,1,5.72-3.32c3.46,0,5.38,2.36,5.38,6.81v9H423V57.25c0-3.32-1.19-5.15-3.55-5.15S415,54.28,415,57.77v7.74h-2.59V57.25c0-3.32-1.28-5.15-3.62-5.15-2.56,0-4.48,2.18-4.48,5.67v7.74h-2.59V49.93Z"/><path class="cls-1" d="M429.08,57.73a8.05,8.05,0,1,1,8.06,8A7.76,7.76,0,0,1,429.08,57.73Zm13.44,0a5.39,5.39,0,1,0-5.38,5.6A5.36,5.36,0,0,0,442.52,57.73Z"/><path class="cls-1" d="M15.17,81.19l4.67,22.72H14.53l-.71-4.19H7l-1.63,4.19H0L10.24,81.19Zm-3.36,6.24h-.07l-3.1,8h4.51Z"/><path class="cls-1" d="M21.89,97.35,23,88.26h4.74l-1,8.1c-.28,2.27-.19,3.55.87,3.55s3-1.34,3.68-6.18a17.34,17.34,0,0,0,0-5.47h4.8a20.36,20.36,0,0,1,0,6.43c-1,7.11-5.09,9.51-9.31,9.51S21.41,101.41,21.89,97.35Z"/><path class="cls-1" d="M42.37,98.25a2.28,2.28,0,0,0,2.24,2,3.41,3.41,0,0,0,2.85-1.57L51,100.77a7.79,7.79,0,0,1-6.82,3.43c-3.93,0-6.56-2.5-6.52-6.56C37.7,92.33,41,88,46.27,88c2.53,0,5.38,1.38,5.34,4.32C51.55,96.26,47,97.77,42.37,98.25ZM45.85,92c-1.37,0-2.78,1.22-3.32,3.4C44.86,95.11,47,94.5,47,93,47,92.33,46.59,92,45.85,92Z"/><path class="cls-1" d="M59.58,88.26l-.29,2.15h.07A5.56,5.56,0,0,1,63.84,88l-.67,5.32c-2.31-.84-4.23.89-4.8,4.6l-.71,6h-4.8l1.92-15.65Z"/><path class="cls-1" d="M65,99.21l.84-7.08H64.32l.48-3.87h1.53l.61-4.57,4.9-1-.67,5.53H74.4l-.48,3.87H70.69l-.77,6.44c-.13.89.19,1.31.7,1.31a3.69,3.69,0,0,0,1.57-.51l.77,3.74a8.67,8.67,0,0,1-4.19,1.09C66.33,104.2,64.58,102.82,65,99.21Z"/><path class="cls-1" d="M74.5,97.8c0-5.57,3.29-9.83,7.39-9.83a4.93,4.93,0,0,1,3.68,1.38h.09l.13-1.09h4.83L88.7,103.91H83.87l.29-2.3-.1,0a5.46,5.46,0,0,1-4.48,2.63C76.22,104.2,74.5,101.41,74.5,97.8Zm10.75-4,.06-.45a3.53,3.53,0,0,0-2.59-1.12c-2.11,0-3.39,2.85-3.39,5.19,0,1.5.7,2.49,1.79,2.49C82.78,99.94,84.7,97.77,85.25,93.83Z"/><path class="cls-1" d="M108.19,81.19c6.27,0,9.38,3.65,9.38,9.44,0,7.87-4.61,13.28-12.29,13.28h-7L101,81.19Zm4.06,9.54c0-3.14-1.47-5-4.64-5h-2.14l-1.66,13.56h2C110.05,99.33,112.25,95.49,112.25,90.73Z"/><path class="cls-1" d="M123.9,98.25a2.28,2.28,0,0,0,2.24,2A3.38,3.38,0,0,0,129,98.66l3.58,2.11a7.78,7.78,0,0,1-6.81,3.43c-3.94,0-6.56-2.5-6.53-6.56,0-5.31,3.3-9.67,8.58-9.67,2.52,0,5.37,1.38,5.34,4.32C133.09,96.26,128.51,97.77,123.9,98.25ZM127.39,92c-1.38,0-2.78,1.22-3.33,3.4,2.34-.26,4.45-.87,4.48-2.4C128.57,92.33,128.13,92,127.39,92Z"/><path class="cls-1" d="M141.12,88.26l-.26,1.95.13,0A6.26,6.26,0,0,1,145.76,88a3.1,3.1,0,0,1,3.39,2.37h.16A6.56,6.56,0,0,1,154.56,88c3.1,0,4.22,2,3.65,6.56L157,103.91h-4.77l1.12-8.48c.29-2.18.13-3.17-.86-3.17s-3.14,1.92-3.65,5.89l-.77,5.76h-4.77l1.12-8.48c.29-2.18.23-3.17-.86-3.17s-3.14,1.89-3.59,5.54l-.73,6.11h-4.8l1.92-15.65Z"/><path class="cls-1" d="M160.48,97.48c0-5,3.13-9.51,8.64-9.51,4,0,6.68,2.44,6.68,6.69,0,5.09-2.72,9.54-8.7,9.54C163.13,104.2,160.48,101.77,160.48,97.48ZM170.94,95c0-2.24-1.34-2.72-2.21-2.72-2.11,0-3.39,2.56-3.39,5,0,1.86,1.09,2.69,2.11,2.69C169.57,99.91,170.94,97.54,170.94,95Z"/><path class="cls-1" d="M194.33,81.19c4.55,0,6.4,2.62,6.4,6.27,0,5.38-3.23,9-9,9h-2.15l-.89,7.42h-5l2.79-22.72ZM195.42,88A2.19,2.19,0,0,0,193,85.7h-2.14L190.11,92h1.82C194.08,92,195.42,90.37,195.42,88Z"/><path class="cls-1" d="M218.11,81.19l-.58,4.58h-8.48l-.57,4.64h6.68l-.51,4.41H208l-.57,4.51h9.09l-.58,4.58H201.82l2.79-22.72Z"/><path class="cls-1" d="M6.83,128.54l4.33,11.37H9.7l-1-2.77H3.6l-1,2.77H1.14l4.3-11.37Zm-.68,1.69h0l-2.06,5.69H8.24Z"/><path class="cls-1" d="M12.64,132.11,15,138.26h0l2.39-6.15h1.39l-3.17,7.8H14.4l-3.17-7.8Z"/><path class="cls-1" d="M26.85,136.4H20.77a2.58,2.58,0,0,0,2.67,2.42,2.81,2.81,0,0,0,2.26-1l.91.77A3.79,3.79,0,0,1,23.39,140a4,4,0,0,1-.09-8,3.58,3.58,0,0,1,3.58,3.86C26.88,136.08,26.85,136.31,26.85,136.4Zm-6.05-1.05h4.79a2.3,2.3,0,0,0-2.31-2.15A2.47,2.47,0,0,0,20.8,135.35Z"/><path class="cls-1" d="M30.08,132.11v1.43h0A2.9,2.9,0,0,1,32.64,132H33v1.44l-.51,0a2.41,2.41,0,0,0-2.37,2.71v3.76h-1.3v-7.8Z"/><path class="cls-1" d="M34.61,137.59v-4.36h-1v-1.12h1v-2.65l1.29-.15v2.8h2.58v1.12H35.9v4.17c0,.94.21,1.39,1,1.39a3,3,0,0,0,1.33-.4l.33,1.14a3.46,3.46,0,0,1-1.89.47C35.25,140,34.61,139.16,34.61,137.59Z"/><path class="cls-1" d="M39.34,136.07a3.82,3.82,0,0,1,3.8-4,3.08,3.08,0,0,1,2.72,1.49l0,0v-1.38h1.3v7.8H45.94V138.5h0a3.1,3.1,0,0,1-2.78,1.5A3.72,3.72,0,0,1,39.34,136.07Zm6.6,0a2.65,2.65,0,1,0-5.28,0,2.64,2.64,0,1,0,5.28,0Z"/><path class="cls-1" d="M53.68,129.76a.95.95,0,1,1,.94.93A.93.93,0,0,1,53.68,129.76Zm1.58,2.35v7.8H54v-7.8Z"/><path class="cls-1" d="M57.1,138.9l.66-1a3.15,3.15,0,0,0,2.38.94c1,0,1.49-.46,1.49-1s-.72-.88-1.85-1.3-2.34-1-2.34-2.38A2.3,2.3,0,0,1,60,132a4.05,4.05,0,0,1,2.69,1L62,134a3,3,0,0,0-2.07-.83,1.08,1.08,0,0,0-1.2,1c0,.6.63.91,1.47,1.21,1.65.64,2.74.93,2.73,2.45C63,139,62,140,60.14,140A4.46,4.46,0,0,1,57.1,138.9Z"/><path class="cls-1" d="M68.62,136.07a3.82,3.82,0,0,1,3.8-4,3.08,3.08,0,0,1,2.72,1.49l0,0v-1.38h1.3v7.8H75.22V138.5h0a3.1,3.1,0,0,1-2.78,1.5A3.72,3.72,0,0,1,68.62,136.07Zm6.6,0a2.65,2.65,0,1,0-5.29,0,2.65,2.65,0,1,0,5.29,0Z"/><path class="cls-1" d="M83.42,142.33l.32-1.16a5.16,5.16,0,0,0,2.8.82,2.29,2.29,0,0,0,2.61-2.34V138.4h0a3.15,3.15,0,0,1-2.7,1.36,3.87,3.87,0,0,1,0-7.74,3.35,3.35,0,0,1,2.73,1.34h0v-1.25h1.29v7.22c0,2.24-1.12,3.84-3.84,3.84A6.06,6.06,0,0,1,83.42,142.33Zm5.76-6.49a2.51,2.51,0,0,0-2.59-2.62,2.67,2.67,0,1,0,2.59,2.62Z"/><path class="cls-1" d="M99.65,136.4H93.57a2.58,2.58,0,0,0,2.67,2.42,2.81,2.81,0,0,0,2.26-1l.91.77A4,4,0,1,1,96.1,132a3.58,3.58,0,0,1,3.58,3.86C99.68,136.08,99.65,136.31,99.65,136.4Zm-6.05-1.05h4.78a2.28,2.28,0,0,0-2.3-2.15A2.47,2.47,0,0,0,93.6,135.35Z"/><path class="cls-1" d="M101.09,136a4,4,0,1,1,4,4A3.88,3.88,0,0,1,101.09,136Zm6.72,0a2.7,2.7,0,1,0-2.69,2.8A2.68,2.68,0,0,0,107.81,136Z"/><path class="cls-1" d="M112.37,132.11v1.41h0A3.1,3.1,0,0,1,115,132a2.43,2.43,0,0,1,2.42,1.66h0a3.23,3.23,0,0,1,2.87-1.66c1.73,0,2.69,1.18,2.69,3.41v4.48h-1.3v-4.13c0-1.66-.59-2.58-1.77-2.58s-2.2,1.09-2.2,2.84v3.87h-1.29v-4.13c0-1.66-.64-2.58-1.81-2.58s-2.24,1.09-2.24,2.84v3.87h-1.3v-7.8Z"/><path class="cls-1" d="M132.13,136.4h-6.08a2.58,2.58,0,0,0,2.67,2.42,2.81,2.81,0,0,0,2.26-1l.91.77a4,4,0,1,1-3.31-6.53,3.58,3.58,0,0,1,3.58,3.86C132.16,136.08,132.13,136.31,132.13,136.4Zm-6-1.05h4.78a2.28,2.28,0,0,0-2.3-2.15A2.47,2.47,0,0,0,126.08,135.35Z"/><path class="cls-1" d="M134.24,137.59v-4.36h-1v-1.12h1v-2.65l1.29-.15v2.8h2.58v1.12h-2.58v4.17c0,.94.21,1.39.95,1.39a3,3,0,0,0,1.33-.4l.33,1.14a3.46,3.46,0,0,1-1.89.47C134.88,140,134.24,139.16,134.24,137.59Z"/><path class="cls-1" d="M141.13,132.11v1.43h0A2.89,2.89,0,0,1,143.7,132H144v1.44l-.52,0a2.41,2.41,0,0,0-2.37,2.71v3.76h-1.29v-7.8Z"/><path class="cls-1" d="M145.29,129.76a.95.95,0,1,1,1,.93A.94.94,0,0,1,145.29,129.76Zm1.59,2.35v7.8h-1.3v-7.8Z"/><path class="cls-1" d="M148.91,136a3.8,3.8,0,0,1,3.94-4,4.12,4.12,0,0,1,3.13,1.39l-.88.79a2.85,2.85,0,0,0-2.19-1,2.62,2.62,0,0,0-2.67,2.82,2.59,2.59,0,0,0,2.65,2.8,2.88,2.88,0,0,0,2.23-1l.9.81A4,4,0,0,1,152.8,140,3.76,3.76,0,0,1,148.91,136Z"/><path class="cls-1" d="M161.41,138.9l.65-1a3.16,3.16,0,0,0,2.39.94c.94,0,1.48-.46,1.48-1s-.72-.88-1.85-1.3-2.34-1-2.34-2.38a2.3,2.3,0,0,1,2.56-2.1,4,4,0,0,1,2.69,1l-.67,1a3,3,0,0,0-2.07-.83,1.08,1.08,0,0,0-1.2,1c0,.6.63.91,1.48,1.21,1.64.64,2.73.93,2.72,2.45,0,1.22-.93,2.22-2.8,2.22A4.45,4.45,0,0,1,161.41,138.9Z"/><path class="cls-1" d="M168.38,136.07a3.82,3.82,0,0,1,3.79-4,3.08,3.08,0,0,1,2.73,1.49l0,0v-1.38h1.29v7.8H175V138.5h0a3.11,3.11,0,0,1-2.79,1.5A3.71,3.71,0,0,1,168.38,136.07Zm6.6,0a2.65,2.65,0,1,0-5.29,0,2.65,2.65,0,1,0,5.29,0Z"/><path class="cls-1" d="M179.85,132.11v1.41h0a3.3,3.3,0,0,1,2.83-1.5c1.68,0,2.8,1,2.8,3.26v4.63h-1.29v-4.26c0-1.82-.79-2.45-1.92-2.45-1.48,0-2.44,1.06-2.44,2.82v3.89h-1.29v-7.8Z"/><path class="cls-1" d="M187.08,138.9l.66-1a3.16,3.16,0,0,0,2.39.94c.94,0,1.48-.46,1.48-1s-.72-.88-1.85-1.3-2.34-1-2.34-2.38A2.3,2.3,0,0,1,190,132a4,4,0,0,1,2.69,1l-.67,1a3,3,0,0,0-2.07-.83,1.08,1.08,0,0,0-1.2,1c0,.6.63.91,1.48,1.21,1.64.64,2.73.93,2.72,2.45,0,1.22-.93,2.22-2.8,2.22A4.49,4.49,0,0,1,187.08,138.9Z"/><path class="cls-1" d="M198.43,138.9l.65-1a3.16,3.16,0,0,0,2.39.94c.94,0,1.49-.46,1.49-1s-.72-.88-1.86-1.3-2.34-1-2.34-2.38a2.3,2.3,0,0,1,2.57-2.1,4,4,0,0,1,2.68,1l-.67,1a3,3,0,0,0-2.06-.83,1.08,1.08,0,0,0-1.2,1c0,.6.62.91,1.47,1.21,1.65.64,2.74.93,2.72,2.45,0,1.22-.93,2.22-2.8,2.22A4.45,4.45,0,0,1,198.43,138.9Z"/><path class="cls-1" d="M213,136.4h-6.09a2.6,2.6,0,0,0,2.68,2.42,2.79,2.79,0,0,0,2.25-1l.92.77a4,4,0,1,1-3.32-6.53,3.58,3.58,0,0,1,3.59,3.86C213,136.08,213,136.31,213,136.4Zm-6-1.05h4.78a2.28,2.28,0,0,0-2.3-2.15A2.47,2.47,0,0,0,207,135.35Z"/><path class="cls-1" d="M216.24,132.11v1.43h0A2.9,2.9,0,0,1,218.8,132h.32v1.44l-.51,0a2.41,2.41,0,0,0-2.37,2.71v3.76h-1.3v-7.8Z"/><path class="cls-1" d="M220.4,129.76a.95.95,0,1,1,.94.93A.93.93,0,0,1,220.4,129.76Zm1.58,2.35v7.8h-1.3v-7.8Z"/><path class="cls-1" d="M223.88,133.23v-1.12h1v-1.58c0-1.67.8-2.51,2.19-2.51a3.33,3.33,0,0,1,1.81.51l-.29,1.1a3.06,3.06,0,0,0-1.36-.41c-.64,0-1.05.41-1.05,1.44v1.45h2.2v1.12h-2.2v6.68h-1.3v-6.68Z"/><path class="cls-1" d="M233.55,133.23v-1.12h.94v-1.58c0-1.67.8-2.51,2.19-2.51a3.33,3.33,0,0,1,1.81.51l-.28,1.1a3.09,3.09,0,0,0-1.37-.41c-.63,0-1.05.41-1.05,1.44v1.45H238v1.12h-2.21v6.68h-1.3v-6.68Z"/><path class="cls-1" d="M238.78,136.07a3.81,3.81,0,0,1,3.79-4,3.07,3.07,0,0,1,2.72,1.49l0,0v-1.38h1.29v7.8h-1.25V138.5h0a3.11,3.11,0,0,1-2.79,1.5A3.71,3.71,0,0,1,238.78,136.07Zm6.59,0a2.65,2.65,0,1,0-5.28,0,2.64,2.64,0,1,0,5.28,0Z"/><path class="cls-1" d="M250.25,132.11v1.41h0a3.1,3.1,0,0,1,2.61-1.5,2.41,2.41,0,0,1,2.41,1.66h0a3.22,3.22,0,0,1,2.86-1.66c1.73,0,2.69,1.18,2.69,3.41v4.48h-1.29v-4.13c0-1.66-.59-2.58-1.78-2.58s-2.19,1.09-2.19,2.84v3.87h-1.3v-4.13c0-1.66-.64-2.58-1.81-2.58s-2.24,1.09-2.24,2.84v3.87H249v-7.8Z"/><path class="cls-1" d="M262.92,129.76a.95.95,0,1,1,.95.93A.94.94,0,0,1,262.92,129.76Zm1.59,2.35v7.8h-1.3v-7.8Z"/><path class="cls-1" d="M268.43,128.13v11.78h-1.3V128.13Z"/><path class="cls-1" d="M270,132.11h1.41l2.52,5.93h0l2.35-5.93h1.36l-4.42,11h-1.34l1.39-3.47Z"/><path class="cls-1" d="M284.86,132.11v1.41h0a3.09,3.09,0,0,1,2.61-1.5,2.42,2.42,0,0,1,2.41,1.66h0a3.22,3.22,0,0,1,2.86-1.66c1.73,0,2.69,1.18,2.69,3.41v4.48h-1.29v-4.13c0-1.66-.6-2.58-1.78-2.58s-2.19,1.09-2.19,2.84v3.87h-1.3v-4.13c0-1.66-.64-2.58-1.81-2.58s-2.24,1.09-2.24,2.84v3.87h-1.3v-7.8Z"/><path class="cls-1" d="M297.21,136.07a3.82,3.82,0,0,1,3.79-4,3.08,3.08,0,0,1,2.73,1.49l0,0v-1.38h1.29v7.8h-1.24V138.5h0A3.11,3.11,0,0,1,301,140,3.71,3.71,0,0,1,297.21,136.07Zm6.6,0a2.65,2.65,0,1,0-5.29,0,2.65,2.65,0,1,0,5.29,0Z"/><path class="cls-1" d="M306.87,136.07a3.84,3.84,0,0,1,3.81-4,3.18,3.18,0,0,1,2.79,1.49h0v-5.38h1.29v11.78h-1.25v-1.44h0A3.17,3.17,0,0,1,310.7,140,3.73,3.73,0,0,1,306.87,136.07Zm6.66,0a2.67,2.67,0,1,0-5.33,0,2.67,2.67,0,1,0,5.33,0Z"/><path class="cls-1" d="M324.09,136.4H318a2.59,2.59,0,0,0,2.67,2.42,2.81,2.81,0,0,0,2.26-1l.91.77a4,4,0,1,1-3.31-6.53,3.58,3.58,0,0,1,3.59,3.86C324.13,136.08,324.09,136.31,324.09,136.4Zm-6-1.05h4.79a2.29,2.29,0,0,0-2.31-2.15A2.47,2.47,0,0,0,318,135.35Z"/><path class="cls-1" d="M331.64,138.5h0v1.41h-1.23V128.13h1.29v5.34h0a3.2,3.2,0,0,1,2.77-1.45,3.81,3.81,0,0,1,3.79,4,3.71,3.71,0,0,1-3.79,3.93A3.17,3.17,0,0,1,331.64,138.5Zm5.3-2.43a2.67,2.67,0,1,0-5.33,0,2.67,2.67,0,1,0,5.33,0Z"/><path class="cls-1" d="M338.86,132.11h1.41L342.8,138h0l2.35-5.93h1.36l-4.42,11h-1.34l1.39-3.47Z"/><path class="cls-1" d="M352.65,137.59v-4.36h-1v-1.12h1v-2.65l1.3-.15v2.8h2.57v1.12H354v4.17c0,.94.2,1.39.94,1.39a2.91,2.91,0,0,0,1.33-.4l.34,1.14a3.49,3.49,0,0,1-1.89.47C353.29,140,352.65,139.16,352.65,137.59Z"/><path class="cls-1" d="M359.55,128.13v5.34h0a3.34,3.34,0,0,1,2.88-1.45c1.68,0,2.84,1,2.84,3.22v4.67H364V135.6c0-1.76-.78-2.4-1.92-2.4-1.55,0-2.51,1-2.51,2.79v3.92h-1.3V128.13Z"/><path class="cls-1" d="M374.44,136.4h-6.08a2.59,2.59,0,0,0,2.68,2.42,2.79,2.79,0,0,0,2.25-1l.91.77a4,4,0,1,1-3.31-6.53,3.58,3.58,0,0,1,3.59,3.86C374.48,136.08,374.44,136.31,374.44,136.4Zm-6.05-1.05h4.79a2.28,2.28,0,0,0-2.3-2.15A2.48,2.48,0,0,0,368.39,135.35Z"/><path class="cls-1" d="M380.22,136.07a3.81,3.81,0,0,1,3.79-4,3.08,3.08,0,0,1,2.72,1.49l0,0v-1.38h1.3v7.8h-1.25V138.5h0A3.11,3.11,0,0,1,384,140,3.71,3.71,0,0,1,380.22,136.07Zm6.59,0a2.65,2.65,0,1,0-5.28,0,2.64,2.64,0,1,0,5.28,0Z"/><path class="cls-1" d="M390.94,132.11l2,5.86h0l1.79-5.86h1.12l1.83,5.86h0l2-5.86H401l-2.69,7.8h-1.22l-1.79-5.71h0l-1.8,5.71H392.3l-2.69-7.8Z"/><path class="cls-1" d="M401.59,136.07a3.82,3.82,0,0,1,3.8-4,3.08,3.08,0,0,1,2.72,1.49l0,0v-1.38h1.3v7.8h-1.25V138.5h0a3.1,3.1,0,0,1-2.78,1.5A3.72,3.72,0,0,1,401.59,136.07Zm6.6,0a2.65,2.65,0,1,0-5.28,0,2.64,2.64,0,1,0,5.28,0Z"/><path class="cls-1" d="M413.07,132.11v1.43h0a2.89,2.89,0,0,1,2.53-1.52H416v1.44l-.52,0c-1.48,0-2.36,1.14-2.36,2.71v3.76h-1.3v-7.8Z"/><path class="cls-1" d="M416.66,136.07a3.84,3.84,0,0,1,3.81-4,3.18,3.18,0,0,1,2.79,1.49h0v-5.38h1.29v11.78h-1.25v-1.44h0a3.17,3.17,0,0,1-2.82,1.53A3.73,3.73,0,0,1,416.66,136.07Zm6.66,0a2.67,2.67,0,1,0-5.33,0,2.67,2.67,0,1,0,5.33,0Z"/><path class="cls-1" d="M431.39,134.34v1.28h-4.74v-1.28Z"/><path class="cls-1" d="M434,132.11l2,5.86h0l1.79-5.86h1.12l1.82,5.86h0l2-5.86h1.33l-2.69,7.8h-1.22l-1.79-5.71h0l-1.79,5.71h-1.19l-2.68-7.8Z"/><path class="cls-1" d="M445.51,129.76a.95.95,0,1,1,.95.93A.94.94,0,0,1,445.51,129.76Zm1.59,2.35v7.8h-1.3v-7.8Z"/><path class="cls-1" d="M450.92,132.11v1.41h0a3.28,3.28,0,0,1,2.83-1.5c1.68,0,2.8,1,2.8,3.26v4.63h-1.3v-4.26c0-1.82-.78-2.45-1.92-2.45-1.47,0-2.43,1.06-2.43,2.82v3.89h-1.3v-7.8Z"/><path class="cls-1" d="M460.14,132.11v1.41h0A3.31,3.31,0,0,1,463,132c1.68,0,2.8,1,2.8,3.26v4.63h-1.3v-4.26c0-1.82-.78-2.45-1.92-2.45-1.47,0-2.43,1.06-2.43,2.82v3.89h-1.3v-7.8Z"/><path class="cls-1" d="M467.86,129.76a.95.95,0,1,1,.95.93A.94.94,0,0,1,467.86,129.76Zm1.59,2.35v7.8h-1.3v-7.8Z"/><path class="cls-1" d="M473.27,132.11v1.41h0a3.3,3.3,0,0,1,2.83-1.5c1.68,0,2.8,1,2.8,3.26v4.63h-1.29v-4.26c0-1.82-.79-2.45-1.92-2.45-1.48,0-2.44,1.06-2.44,2.82v3.89H472v-7.8Z"/><path class="cls-1" d="M481.46,142.33l.32-1.16a5.16,5.16,0,0,0,2.8.82,2.29,2.29,0,0,0,2.61-2.34V138.4h0a3.14,3.14,0,0,1-2.7,1.36,3.87,3.87,0,0,1,0-7.74,3.38,3.38,0,0,1,2.74,1.34h0v-1.25h1.29v7.22c0,2.24-1.12,3.84-3.84,3.84A6.06,6.06,0,0,1,481.46,142.33Zm5.77-6.49a2.62,2.62,0,1,0-2.61,2.72A2.56,2.56,0,0,0,487.23,135.84Z"/><path class="cls-1" d="M1.44,155.27a3.84,3.84,0,0,1,3.81-4.05A3.18,3.18,0,0,1,8,152.71h0v-5.38h1.3v11.78H8.1v-1.44h0a3.16,3.16,0,0,1-2.81,1.54A3.74,3.74,0,0,1,1.44,155.27Zm6.66,0a2.67,2.67,0,1,0-5.33,0A2.62,2.62,0,0,0,5.44,158,2.63,2.63,0,0,0,8.1,155.27Z"/><path class="cls-1" d="M18.66,155.6H12.58A2.58,2.58,0,0,0,15.25,158a2.81,2.81,0,0,0,2.26-1l.91.77a3.79,3.79,0,0,1-3.22,1.46,4,4,0,0,1-.09-8,3.58,3.58,0,0,1,3.58,3.86C18.69,155.28,18.66,155.51,18.66,155.6Zm-6.05-1h4.78a2.28,2.28,0,0,0-2.3-2.15A2.47,2.47,0,0,0,12.61,154.55Z"/><path class="cls-1" d="M19.9,158.1l.66-1a3.15,3.15,0,0,0,2.38.94c.95,0,1.49-.46,1.49-1.05s-.72-.88-1.85-1.3-2.34-1-2.34-2.38a2.3,2.3,0,0,1,2.56-2.1,4,4,0,0,1,2.69,1l-.67,1a3,3,0,0,0-2.07-.83,1.08,1.08,0,0,0-1.2.95c0,.6.63.91,1.47,1.21,1.65.64,2.74.93,2.73,2.45,0,1.22-.93,2.23-2.81,2.23A4.49,4.49,0,0,1,19.9,158.1Z"/><path class="cls-1" d="M27.39,149a.95.95,0,1,1,.95.93A.94.94,0,0,1,27.39,149ZM29,151.31v7.8h-1.3v-7.8Z"/><path class="cls-1" d="M31.78,161.53l.32-1.16a5.14,5.14,0,0,0,2.8.82,2.29,2.29,0,0,0,2.61-2.34V157.6h0a3.14,3.14,0,0,1-2.7,1.36,3.87,3.87,0,0,1-.05-7.74,3.36,3.36,0,0,1,2.74,1.34h0v-1.25h1.3v7.22c0,2.24-1.12,3.85-3.84,3.85A6,6,0,0,1,31.78,161.53ZM37.54,155a2.62,2.62,0,1,0-2.61,2.72A2.56,2.56,0,0,0,37.54,155Z"/><path class="cls-1" d="M42.4,151.31v1.41h0a3.28,3.28,0,0,1,2.83-1.5c1.68,0,2.8,1,2.8,3.26v4.63h-1.3v-4.26c0-1.82-.78-2.45-1.92-2.45-1.47,0-2.43,1.06-2.43,2.82v3.89H41.1v-7.8Z"/><path class="cls-1" d="M57.22,155.6H51.14A2.58,2.58,0,0,0,53.81,158a2.82,2.82,0,0,0,2.26-1l.91.77a4,4,0,1,1-3.31-6.53,3.58,3.58,0,0,1,3.58,3.86C57.25,155.28,57.22,155.51,57.22,155.6Zm-6-1H56a2.28,2.28,0,0,0-2.3-2.15A2.47,2.47,0,0,0,51.17,154.55Z"/><path class="cls-1" d="M60.45,151.31v1.43h0A2.9,2.9,0,0,1,63,151.22h.32v1.44l-.51,0a2.41,2.41,0,0,0-2.37,2.71v3.76h-1.3v-7.8Z"/><path class="cls-1" d="M70.74,147.75V154h0l5.15-6.22h1.79l-4.4,5.18,4.52,6.18H76.08L72.38,154,70.74,156v3.15h-1.4V147.75Z"/><path class="cls-1" d="M78.65,155.22a4,4,0,1,1,4,4A3.89,3.89,0,0,1,78.65,155.22Zm6.73,0a2.7,2.7,0,1,0-2.69,2.8A2.68,2.68,0,0,0,85.38,155.22Z"/><path class="cls-1" d="M88,158.1l.66-1a3.12,3.12,0,0,0,2.38.94c1,0,1.49-.46,1.49-1.05s-.72-.88-1.86-1.3-2.33-1-2.33-2.38a2.3,2.3,0,0,1,2.56-2.1,4.05,4.05,0,0,1,2.69,1l-.68,1a3,3,0,0,0-2.06-.83,1.08,1.08,0,0,0-1.2.95c0,.6.62.91,1.47,1.21,1.65.64,2.74.93,2.72,2.45,0,1.22-.93,2.23-2.8,2.23A4.47,4.47,0,0,1,88,158.1Z"/><path class="cls-1" d="M95.81,156.79v-4.36h-1v-1.12h1v-2.65l1.29-.15v2.8h2.58v1.12H97.1v4.17c0,.94.21,1.39,1,1.39a3,3,0,0,0,1.33-.4l.33,1.14a3.45,3.45,0,0,1-1.89.48C96.45,159.21,95.81,158.36,95.81,156.79Z"/><path class="cls-1" d="M100.54,155.27a3.82,3.82,0,0,1,3.8-4.05,3.08,3.08,0,0,1,2.72,1.49l0,0v-1.38h1.3v7.8h-1.25V157.7h0a3.11,3.11,0,0,1-2.78,1.51A3.73,3.73,0,0,1,100.54,155.27Zm6.6,0a2.65,2.65,0,1,0-5.29,0,2.65,2.65,0,1,0,5.29,0Z"/><path class="cls-1" d="M110,158.1l.66-1a3.12,3.12,0,0,0,2.38.94c1,0,1.49-.46,1.49-1.05s-.72-.88-1.86-1.3-2.33-1-2.33-2.38a2.3,2.3,0,0,1,2.56-2.1,4.05,4.05,0,0,1,2.69,1l-.68,1a3,3,0,0,0-2.06-.83,1.08,1.08,0,0,0-1.2.95c0,.6.62.91,1.47,1.21,1.65.64,2.74.93,2.72,2.45,0,1.22-.93,2.23-2.8,2.23A4.47,4.47,0,0,1,110,158.1Z"/><path class="cls-1" d="M126,147.75c2.21,0,3.66.83,3.66,2.76a2.65,2.65,0,0,1-1.8,2.6v0a2.79,2.79,0,0,1,2.36,2.88c0,1.81-1.21,3.09-3.79,3.09h-4.15V147.75Zm2.24,3c0-1.09-.72-1.8-2.39-1.8l-2.17,0v3.63H126C127.15,152.64,128.21,152.16,128.21,150.79Zm.53,5.12c0-1.28-.91-2-2.68-2h-2.41v4h2.62C127.76,157.84,128.74,157.22,128.74,155.91Z"/><path class="cls-1" d="M131.71,155.27a3.81,3.81,0,0,1,3.79-4.05,3.07,3.07,0,0,1,2.72,1.49l0,0v-1.38h1.29v7.8H138.3V157.7h0a3.11,3.11,0,0,1-2.79,1.51A3.72,3.72,0,0,1,131.71,155.27Zm6.59,0a2.65,2.65,0,1,0-5.28,0,2.64,2.64,0,1,0,5.28,0Z"/><path class="cls-1" d="M143.18,151.31v1.43h0a2.9,2.9,0,0,1,2.53-1.52h.32v1.44l-.51,0a2.41,2.41,0,0,0-2.37,2.71v3.76h-1.29v-7.8Z"/><path class="cls-1" d="M147.71,156.79v-4.36h-1v-1.12h1v-2.65l1.3-.15v2.8h2.57v1.12H149v4.17c0,.94.2,1.39.94,1.39a2.87,2.87,0,0,0,1.33-.4l.34,1.14a3.48,3.48,0,0,1-1.89.48C148.35,159.21,147.71,158.36,147.71,156.79Z"/><path class="cls-1" d="M152.62,158.1l.66-1a3.13,3.13,0,0,0,2.38.94c1,0,1.49-.46,1.49-1.05s-.72-.88-1.86-1.3-2.33-1-2.33-2.38a2.3,2.3,0,0,1,2.56-2.1,4.05,4.05,0,0,1,2.69,1l-.67,1a3,3,0,0,0-2.07-.83,1.08,1.08,0,0,0-1.2.95c0,.6.62.91,1.47,1.21,1.65.64,2.74.93,2.72,2.45,0,1.22-.92,2.23-2.8,2.23A4.47,4.47,0,0,1,152.62,158.1Z"/><path class="cls-1" d="M159.81,155.22a4,4,0,1,1,4,4A3.88,3.88,0,0,1,159.81,155.22Zm6.72,0a2.7,2.7,0,1,0-2.69,2.8A2.68,2.68,0,0,0,166.53,155.22Z"/><path class="cls-1" d="M171.09,147.33v8.26l3.83-4.28h1.57l-2.92,3.22,2.95,4.58H175l-2.35-3.67-1.6,1.73v1.94h-1.3V147.33Z"/><path class="cls-1" d="M177.17,155.27a3.81,3.81,0,0,1,3.79-4.05,3.08,3.08,0,0,1,2.72,1.49l0,0v-1.38H185v7.8h-1.25V157.7h0a3.11,3.11,0,0,1-2.78,1.51A3.72,3.72,0,0,1,177.17,155.27Zm6.59,0a2.65,2.65,0,1,0-5.28,0,2.64,2.64,0,1,0,5.28,0Z"/><path class="cls-1" d="M186.65,158.1l.66-1a3.15,3.15,0,0,0,2.38.94c.95,0,1.49-.46,1.49-1.05s-.72-.88-1.85-1.3-2.34-1-2.34-2.38a2.3,2.3,0,0,1,2.56-2.1,4,4,0,0,1,2.69,1l-.67,1a3,3,0,0,0-2.07-.83,1.08,1.08,0,0,0-1.2.95c0,.6.63.91,1.47,1.21,1.65.64,2.74.93,2.73,2.45,0,1.22-.93,2.23-2.81,2.23A4.49,4.49,0,0,1,186.65,158.1Z"/><path class="cls-1" d="M194,158.28a1,1,0,0,1,1-.95.95.95,0,1,1-1,.95Z"/><path class="cls-1" d="M201.63,149v-1.26h8.23V149h-3.44v10.1H205V149Z"/><path class="cls-1" d="M212.94,147.33v5.34h0a3.33,3.33,0,0,1,2.88-1.45c1.68,0,2.83,1,2.83,3.22v4.67h-1.29V154.8c0-1.76-.79-2.4-1.93-2.4-1.55,0-2.51,1-2.51,2.79v3.92h-1.3V147.33Z"/><path class="cls-1" d="M227.84,155.6h-6.08a2.58,2.58,0,0,0,2.67,2.42,2.81,2.81,0,0,0,2.26-1l.91.77a4,4,0,1,1-3.31-6.53,3.58,3.58,0,0,1,3.58,3.86C227.87,155.28,227.84,155.51,227.84,155.6Zm-6.05-1h4.79a2.3,2.3,0,0,0-2.31-2.15A2.47,2.47,0,0,0,221.79,154.55Z"/><path class="cls-1" d="M234.3,156.79v-4.36h-1v-1.12h1v-2.65l1.3-.15v2.8h2.57v1.12H235.6v4.17c0,.94.2,1.39.94,1.39a2.87,2.87,0,0,0,1.33-.4l.34,1.14a3.48,3.48,0,0,1-1.89.48C234.94,159.21,234.3,158.36,234.3,156.79Z"/><path class="cls-1" d="M239,151.31h1.4l2.53,5.93h0l2.35-5.93h1.36l-4.42,11H241l1.39-3.47Z"/><path class="cls-1" d="M249.6,151.31v1.38h0a3.2,3.2,0,0,1,2.77-1.47,3.82,3.82,0,0,1,3.8,4.05,3.73,3.73,0,0,1-3.8,3.94,3.17,3.17,0,0,1-2.77-1.45h0v4.52h-1.3v-11Zm5.26,4a2.67,2.67,0,1,0-5.33,0,2.67,2.67,0,1,0,5.33,0Z"/><path class="cls-1" d="M265,155.6h-6.08a2.59,2.59,0,0,0,2.67,2.42,2.81,2.81,0,0,0,2.26-1l.91.77a4,4,0,1,1-3.31-6.53,3.58,3.58,0,0,1,3.58,3.86C265.05,155.28,265,155.51,265,155.6Zm-6-1h4.79a2.29,2.29,0,0,0-2.31-2.15A2.47,2.47,0,0,0,259,154.55Z"/><path class="cls-1" d="M266.2,152.43v-1.12h.95v-1.58c0-1.67.8-2.51,2.19-2.51a3.33,3.33,0,0,1,1.81.51l-.29,1.1a3.06,3.06,0,0,0-1.36-.41c-.64,0-1.06.41-1.06,1.44v1.45h2.21v1.12h-2.21v6.68h-1.29v-6.68Z"/><path class="cls-1" d="M271.44,155.27a3.81,3.81,0,0,1,3.79-4.05,3.08,3.08,0,0,1,2.72,1.49l0,0v-1.38h1.3v7.8H278V157.7h0a3.11,3.11,0,0,1-2.78,1.51A3.72,3.72,0,0,1,271.44,155.27Zm6.59,0a2.65,2.65,0,1,0-5.28,0,2.64,2.64,0,1,0,5.28,0Z"/><path class="cls-1" d="M281.12,155.22a3.79,3.79,0,0,1,3.93-4,4.14,4.14,0,0,1,3.14,1.39l-.88.79a2.86,2.86,0,0,0-2.19-1,2.63,2.63,0,0,0-2.68,2.82,2.6,2.6,0,0,0,2.66,2.8,2.88,2.88,0,0,0,2.23-1l.89.81a4,4,0,0,1-3.22,1.37A3.76,3.76,0,0,1,281.12,155.22Z"/><path class="cls-1" d="M296.85,155.6h-6.09a2.59,2.59,0,0,0,2.68,2.42,2.79,2.79,0,0,0,2.25-1l.92.77a4,4,0,1,1-3.32-6.53,3.58,3.58,0,0,1,3.59,3.86C296.88,155.28,296.85,155.51,296.85,155.6Zm-6.05-1h4.78a2.28,2.28,0,0,0-2.3-2.15A2.47,2.47,0,0,0,290.8,154.55Z"/><path class="cls-1" d="M304.43,147.33v5.34h0a3.35,3.35,0,0,1,2.89-1.45c1.68,0,2.83,1,2.83,3.22v4.67h-1.3V154.8c0-1.76-.78-2.4-1.92-2.4-1.55,0-2.51,1-2.51,2.79v3.92h-1.3V147.33Z"/><path class="cls-1" d="M311.92,155.27a3.81,3.81,0,0,1,3.79-4.05,3.08,3.08,0,0,1,2.72,1.49l0,0v-1.38h1.3v7.8h-1.25V157.7h0a3.11,3.11,0,0,1-2.78,1.51A3.72,3.72,0,0,1,311.92,155.27Zm6.59,0a2.65,2.65,0,1,0-5.28,0,2.64,2.64,0,1,0,5.28,0Z"/><path class="cls-1" d="M321.4,158.1l.66-1a3.15,3.15,0,0,0,2.38.94c.95,0,1.49-.46,1.49-1.05s-.72-.88-1.85-1.3-2.34-1-2.34-2.38a2.3,2.3,0,0,1,2.56-2.1,4.05,4.05,0,0,1,2.69,1l-.67,1a3,3,0,0,0-2.07-.83,1.08,1.08,0,0,0-1.2.95c0,.6.63.91,1.47,1.21,1.65.64,2.74.93,2.73,2.45,0,1.22-.93,2.23-2.81,2.23A4.47,4.47,0,0,1,321.4,158.1Z"/><path class="cls-1" d="M332.92,155.27a3.82,3.82,0,0,1,3.8-4.05,3.08,3.08,0,0,1,2.72,1.49l0,0v-1.38h1.3v7.8h-1.25V157.7h0a3.11,3.11,0,0,1-2.78,1.51A3.73,3.73,0,0,1,332.92,155.27Zm6.6,0a2.65,2.65,0,1,0-5.29,0,2.65,2.65,0,1,0,5.29,0Z"/><path class="cls-1" d="M346.76,158.1l.66-1a3.13,3.13,0,0,0,2.38.94c.95,0,1.49-.46,1.49-1.05s-.72-.88-1.86-1.3-2.33-1-2.33-2.38a2.3,2.3,0,0,1,2.56-2.1,4.05,4.05,0,0,1,2.69,1l-.67,1a3,3,0,0,0-2.07-.83,1.08,1.08,0,0,0-1.2.95c0,.6.63.91,1.47,1.21,1.65.64,2.74.93,2.72,2.45,0,1.22-.92,2.23-2.8,2.23A4.47,4.47,0,0,1,346.76,158.1Z"/><path class="cls-1" d="M354.25,149a.95.95,0,1,1,.94.93A.94.94,0,0,1,354.25,149Zm1.58,2.35v7.8h-1.29v-7.8Z"/><path class="cls-1" d="M359.66,151.31v1.41h0a3.11,3.11,0,0,1,2.61-1.5,2.43,2.43,0,0,1,2.42,1.66h0a3.22,3.22,0,0,1,2.86-1.66c1.73,0,2.69,1.18,2.69,3.41v4.48H369V155c0-1.66-.59-2.58-1.77-2.58s-2.2,1.09-2.2,2.84v3.87h-1.29V155c0-1.66-.64-2.58-1.81-2.58s-2.24,1.09-2.24,2.84v3.87h-1.3v-7.8Z"/><path class="cls-1" d="M373.82,151.31v1.38h0a3.2,3.2,0,0,1,2.77-1.47,3.82,3.82,0,0,1,3.8,4.05,3.73,3.73,0,0,1-3.8,3.94,3.17,3.17,0,0,1-2.77-1.45h0v4.52h-1.3v-11Zm5.26,4a2.67,2.67,0,1,0-5.33,0,2.67,2.67,0,1,0,5.33,0Z"/><path class="cls-1" d="M383.74,147.33v11.78h-1.3V147.33Z"/><path class="cls-1" d="M393.17,155.6h-6.09a2.59,2.59,0,0,0,2.68,2.42,2.79,2.79,0,0,0,2.25-1l.91.77a4,4,0,1,1-3.31-6.53,3.58,3.58,0,0,1,3.59,3.86C393.2,155.28,393.17,155.51,393.17,155.6Zm-6.06-1h4.79a2.28,2.28,0,0,0-2.3-2.15A2.48,2.48,0,0,0,387.11,154.55Z"/><path class="cls-1" d="M396.06,157.35l-1,3.86h-1l.53-3.86Z"/><path class="cls-1" d="M401.71,151.31h1.4l2.53,5.93h0l2.36-5.93h1.36l-4.42,11h-1.34l1.39-3.47Z"/><path class="cls-1" d="M417.45,155.6h-6.08A2.59,2.59,0,0,0,414,158a2.81,2.81,0,0,0,2.26-1l.91.77a4,4,0,1,1-3.31-6.53,3.58,3.58,0,0,1,3.58,3.86C417.48,155.28,417.45,155.51,417.45,155.6Zm-6.05-1h4.79a2.29,2.29,0,0,0-2.31-2.15A2.47,2.47,0,0,0,411.4,154.55Z"/><path class="cls-1" d="M419.56,156.79v-4.36h-1v-1.12h1v-2.65l1.3-.15v2.8h2.58v1.12h-2.58v4.17c0,.94.21,1.39.94,1.39a2.87,2.87,0,0,0,1.33-.4l.34,1.14a3.45,3.45,0,0,1-1.89.48C420.2,159.21,419.56,158.36,419.56,156.79Z"/><path class="cls-1" d="M429,155.27a3.82,3.82,0,0,1,3.79-4.05,3.08,3.08,0,0,1,2.73,1.49l0,0v-1.38h1.29v7.8H435.6V157.7h0a3.11,3.11,0,0,1-2.79,1.51A3.72,3.72,0,0,1,429,155.27Zm6.6,0a2.65,2.65,0,1,0-5.29,0,2.65,2.65,0,1,0,5.29,0Z"/><path class="cls-1" d="M440.47,151.31v1.38h0a3.18,3.18,0,0,1,2.77-1.47,3.81,3.81,0,0,1,3.79,4.05,3.72,3.72,0,0,1-3.79,3.94,3.17,3.17,0,0,1-2.77-1.45h0v4.52h-1.29v-11Zm5.27,4a2.67,2.67,0,1,0-5.33,0,2.67,2.67,0,1,0,5.33,0Z"/><path class="cls-1" d="M450.3,151.31v1.38h0a3.2,3.2,0,0,1,2.77-1.47,3.82,3.82,0,0,1,3.8,4.05,3.73,3.73,0,0,1-3.8,3.94,3.17,3.17,0,0,1-2.77-1.45h0v4.52H449v-11Zm5.26,4a2.67,2.67,0,1,0-5.33,0,2.67,2.67,0,1,0,5.33,0Z"/><path class="cls-1" d="M465.72,155.6h-6.08a2.59,2.59,0,0,0,2.67,2.42,2.81,2.81,0,0,0,2.26-1l.91.77a4,4,0,1,1-3.31-6.53,3.58,3.58,0,0,1,3.59,3.86C465.76,155.28,465.72,155.51,465.72,155.6Zm-6.05-1h4.79a2.29,2.29,0,0,0-2.31-2.15A2.47,2.47,0,0,0,459.67,154.55Z"/><path class="cls-1" d="M467.14,155.27a3.82,3.82,0,0,1,3.8-4.05,3.08,3.08,0,0,1,2.72,1.49l0,0v-1.38H475v7.8h-1.25V157.7h0a3.11,3.11,0,0,1-2.78,1.51A3.73,3.73,0,0,1,467.14,155.27Zm6.6,0a2.65,2.65,0,1,0-5.28,0,2.64,2.64,0,1,0,5.28,0Z"/><path class="cls-1" d="M478.71,147.33v11.78h-1.29V147.33Z"/><path class="cls-1" d="M481.05,149a.95.95,0,1,1,.94.93A.93.93,0,0,1,481.05,149Zm1.58,2.35v7.8h-1.29v-7.8Z"/><path class="cls-1" d="M486.46,151.31v1.41h0a3.31,3.31,0,0,1,2.84-1.5c1.68,0,2.8,1,2.8,3.26v4.63h-1.3v-4.26c0-1.82-.78-2.45-1.92-2.45-1.47,0-2.43,1.06-2.43,2.82v3.89h-1.3v-7.8Z"/><path class="cls-1" d="M494.65,161.53l.32-1.16a5.14,5.14,0,0,0,2.8.82,2.29,2.29,0,0,0,2.61-2.34V157.6h0a3.17,3.17,0,0,1-2.71,1.36,3.87,3.87,0,0,1-.05-7.74,3.35,3.35,0,0,1,2.74,1.34h0v-1.25h1.3v7.22c0,2.24-1.12,3.85-3.84,3.85A6.06,6.06,0,0,1,494.65,161.53Zm5.76-6.49a2.62,2.62,0,1,0-2.61,2.72A2.56,2.56,0,0,0,500.41,155Z"/><path class="cls-1" d="M505.18,157.35l-1,3.86h-1l.53-3.86Z"/><path class="cls-1" d="M3.25,170.51v1.38h0A3.2,3.2,0,0,1,6,170.42a3.82,3.82,0,0,1,3.8,4.05A3.73,3.73,0,0,1,6,178.41,3.17,3.17,0,0,1,3.26,177h0v4.52H2v-11Zm5.26,4a2.67,2.67,0,1,0-5.33,0,2.63,2.63,0,0,0,2.68,2.75A2.61,2.61,0,0,0,8.51,174.47Z"/><path class="cls-1" d="M18.67,174.8H12.59a2.59,2.59,0,0,0,2.68,2.42,2.79,2.79,0,0,0,2.25-1l.91.77a3.77,3.77,0,0,1-3.21,1.46,4,4,0,0,1-.1-8,3.58,3.58,0,0,1,3.59,3.86C18.71,174.48,18.67,174.71,18.67,174.8Zm-6-1.05h4.78a2.28,2.28,0,0,0-2.3-2.15A2.46,2.46,0,0,0,12.63,173.75Z"/><path class="cls-1" d="M21.9,170.51v1.43h0a2.89,2.89,0,0,1,2.53-1.52h.32v1.45l-.52,0a2.41,2.41,0,0,0-2.37,2.71v3.76H20.61v-7.8Z"/><path class="cls-1" d="M25.57,177.3l.65-1a3.16,3.16,0,0,0,2.39.94c.94,0,1.49-.46,1.49-1.05s-.72-.88-1.86-1.3-2.34-1-2.34-2.38a2.3,2.3,0,0,1,2.56-2.1,4,4,0,0,1,2.69,1l-.67,1a3,3,0,0,0-2.06-.83,1.08,1.08,0,0,0-1.2,1c0,.6.62.91,1.47,1.21,1.65.64,2.74.93,2.72,2.45,0,1.22-.93,2.23-2.8,2.23A4.45,4.45,0,0,1,25.57,177.3Z"/><path class="cls-1" d="M32.75,174.42a4,4,0,1,1,4,4A3.89,3.89,0,0,1,32.75,174.42Zm6.72,0a2.7,2.7,0,1,0-2.68,2.8A2.67,2.67,0,0,0,39.47,174.42Z"/><path class="cls-1" d="M44,170.51v1.41h0a3.3,3.3,0,0,1,2.83-1.5c1.68,0,2.8,1,2.8,3.26v4.63H48.39v-4.26c0-1.82-.79-2.45-1.93-2.45-1.47,0-2.43,1.06-2.43,2.82v3.89H42.74v-7.8Z"/><path class="cls-1" d="M51.44,174.47a3.81,3.81,0,0,1,3.79-4.05A3.08,3.08,0,0,1,58,171.91l0,0v-1.38h1.29v7.8H58V176.9h0a3.11,3.11,0,0,1-2.79,1.51A3.72,3.72,0,0,1,51.44,174.47Zm6.59,0a2.65,2.65,0,1,0-5.28,0,2.64,2.64,0,1,0,5.28,0Z"/><path class="cls-1" d="M63,166.53v11.78h-1.3V166.53Z"/><path class="cls-1" d="M65.34,168.16a.95.95,0,1,1,1,.93A.94.94,0,0,1,65.34,168.16Zm1.59,2.35v7.8h-1.3v-7.8Z"/><path class="cls-1" d="M69.63,176v-4.36h-1v-1.12h1v-2.65l1.3-.15v2.8H73.5v1.12H70.93v4.17c0,.94.21,1.39.94,1.39a2.87,2.87,0,0,0,1.33-.4l.34,1.14a3.48,3.48,0,0,1-1.89.48C70.27,178.41,69.63,177.56,69.63,176Z"/><path class="cls-1" d="M74.37,170.51h1.41l2.52,5.93h0l2.35-5.93h1.36l-4.42,11H76.29L77.68,178Z"/><path class="cls-1" d="M82.73,177.48a1,1,0,0,1,1-.95.95.95,0,0,1,0,1.89A1,1,0,0,1,82.73,177.48Z"/></g></g></svg>