<svg xmlns="http://www.w3.org/2000/svg" viewBox="0 0 213 213"><defs><style>.cls-1{fill:none;stroke:#fe5f50;stroke-miterlimit:10;}</style></defs><title>ccAsset 54</title><g id="Layer_2" data-name="Layer 2"><g id="Layer_1-2" data-name="Layer 1"><line class="cls-1" x1="62" y1="153.33" x2="98.83" y2="153.33"/><rect class="cls-1" x="46.1" y="81.62" width="13.67" height="44.08"/><rect class="cls-1" x="63.67" y="81.9" width="40.18" height="19.25"/><rect class="cls-1" x="63.39" y="105.62" width="39.9" height="19.53"/><path class="cls-1" d="M129.52,81.9V65.72a1.68,1.68,0,0,0-1.68-1.67H32.15a1.68,1.68,0,0,0-1.68,1.67v70h72.82"/><path class="cls-1" d="M30.47,135.75v5.86a1.68,1.68,0,0,0,1.68,1.67h71.14v-7.53Z"/><circle class="cls-1" cx="136.91" cy="151.79" r="2.23"/><rect class="cls-1" x="125.19" y="101.57" width="22.18" height="17.58"/><rect class="cls-1" x="125.19" y="122.08" width="22.18" height="17.58"/><path class="cls-1" d="M146.67,147.47h-34.9V94.18H161v12.41h3.84V92.5A5.87,5.87,0,0,0,159,86.65h-45.2a5.87,5.87,0,0,0-5.86,5.85v58.59a5.87,5.87,0,0,0,5.86,5.86h34.88a8,8,0,0,1-2-5.3Z"/><polyline class="cls-1" points="161.01 106.59 161.01 94.18 111.77 94.18 111.77 147.47 146.67 147.47"/><rect class="cls-1" x="151.42" y="111.34" width="31.11" height="43.66" rx="4" ry="4"/><rect class="cls-1" x="154.35" y="115.66" width="24.97" height="34.04"/><rect class="cls-1" x="160.49" y="121.1" width="12.28" height="10.88"/><rect class="cls-1" x="160.49" y="133.66" width="12.28" height="10.88"/><circle class="cls-1" cx="106.5" cy="106.5" r="106"/></g></g></svg>