<svg xmlns="http://www.w3.org/2000/svg" viewBox="0 0 213 213"><defs><style>.cls-1,.cls-2{fill:none;stroke:#fe5f50;stroke-miterlimit:10;}.cls-2{stroke-dasharray:6.56 6.56;}</style></defs><title>svxAsset 57</title><g id="Layer_2" data-name="Layer 2"><g id="Layer_1-2" data-name="Layer 1"><circle class="cls-1" cx="106.5" cy="106.5" r="106"/><path class="cls-1" d="M156.92,38.16V166.44a1.32,1.32,0,0,1-1.32,1.32h-7.52V46.57a1.34,1.34,0,0,0-1.33-1.33H64.92V38.16a1.33,1.33,0,0,1,1.33-1.32H155.6A1.32,1.32,0,0,1,156.92,38.16Z"/><rect class="cls-1" x="56.08" y="45.24" width="92" height="130.92" rx="1.33" ry="1.33"/><line class="cls-1" x1="70.34" y1="73.77" x2="102.52" y2="55.52"/><line class="cls-1" x1="70.18" y1="64.32" x2="102.52" y2="82.56"/><line class="cls-1" x1="78.8" y1="68.96" x2="78.8" y2="112.25"/><line class="cls-1" x1="70.18" y1="96.83" x2="102.52" y2="114.24"/><line class="cls-1" x1="134.7" y1="73.77" x2="102.52" y2="55.52"/><line class="cls-1" x1="134.86" y1="64.32" x2="102.52" y2="82.56"/><line class="cls-1" x1="126.24" y1="68.96" x2="126.24" y2="112.25"/><line class="cls-1" x1="134.86" y1="96.83" x2="102.52" y2="114.24"/><line class="cls-1" x1="102.52" y1="82.56" x2="102.52" y2="88.56"/><line class="cls-2" x1="102.52" y1="95.12" x2="102.52" y2="104.96"/><line class="cls-1" x1="102.52" y1="108.24" x2="102.52" y2="114.24"/><polyline class="cls-1" points="92.79 176.16 92.79 149.85 102.52 123.97"/><polyline class="cls-1" points="112.25 176.16 112.25 149.85 102.52 123.97"/><line class="cls-1" x1="92.79" y1="149.85" x2="112.25" y2="149.85"/><line class="cls-1" x1="96.88" y1="138.9" x2="107.94" y2="138.9"/></g></g></svg>