<svg xmlns="http://www.w3.org/2000/svg" viewBox="0 0 415.33 553.95"><defs><style>.cls-1{fill:#e6e7e8;}.cls-1,.cls-2,.cls-3,.cls-4,.cls-5{stroke:#1f3864;stroke-miterlimit:10;}.cls-1,.cls-2,.cls-5{stroke-width:0.5px;}.cls-2,.cls-3{fill:#fff;}.cls-4{fill:none;}.cls-5{fill:#a7a9ac;}.cls-6{font-size:11px;}.cls-10,.cls-11,.cls-13,.cls-6,.cls-8{font-family:NanumGothic, NanumGothic;}.cls-7{letter-spacing:-0.04em;}.cls-8{font-size:9.96px;}.cls-9{letter-spacing:0em;}.cls-10{font-size:17px;}.cls-11{font-size:9px;}.cls-12{fill:#fbb040;}.cls-13{font-size:12px;}</style></defs><title>svAsset 2</title><g id="Layer_2" data-name="Layer 2"><g id="Layer_6" data-name="Layer 6"><rect class="cls-1" x="54.17" y="22.79" width="310.21" height="11.49"/><rect class="cls-2" x="54.17" y="34.6" width="310.21" height="137.33"/><rect class="cls-3" x="111.96" y="24.22" width="20.97" height="8.61"/><rect class="cls-3" x="162.83" y="26.1" width="92.5" height="5.75"/><rect class="cls-3" x="268.58" y="26.1" width="34.25" height="5.75"/><text></text><rect class="cls-1" x="54.17" y="171.6" width="310.21" height="112.33"/><rect class="cls-3" x="74.67" y="201.27" width="127.67" height="70.67"/><rect class="cls-3" x="216" y="201.27" width="127.67" height="70.67"/><line class="cls-4" x1="11.83" y1="34.27" x2="415.33" y2="34.27"/><line class="cls-4" x1="11.83" y1="171.6" x2="415.33" y2="171.6"/><rect class="cls-5" x="54.17" y="283.94" width="310.21" height="59.67"/><rect class="cls-3" x="145.33" y="290.6" width="87" height="25"/><rect class="cls-3" x="145.33" y="325.44" width="26.33" height="12.5"/><rect class="cls-3" x="255.33" y="290.6" width="43.5" height="45"/><line class="cls-4" x1="11.83" y1="283.94" x2="415.33" y2="283.94"/><line class="cls-4" x1="11.83" y1="343.6" x2="415.33" y2="343.6"/><rect class="cls-1" x="54.17" y="343.6" width="310.21" height="88.5"/><rect class="cls-3" x="71.54" y="363.6" width="80.83" height="59"/><rect class="cls-3" x="168.99" y="363.6" width="82.56" height="59"/><rect class="cls-3" x="267.29" y="363.6" width="82.56" height="59"/><rect class="cls-5" x="54.14" y="431.77" width="310.21" height="25.5"/><rect class="cls-3" x="149.33" y="439.6" width="30.17" height="11.5"/><rect class="cls-3" x="194.83" y="439.6" width="30.17" height="11.5"/><rect class="cls-3" x="240.33" y="439.6" width="30.17" height="11.5"/><line class="cls-4" x1="11.83" y1="432.1" x2="415.33" y2="432.1"/><rect class="cls-1" x="54.17" y="457.6" width="310.21" height="56"/><rect class="cls-3" x="117.08" y="476.94" width="21.42" height="21.42"/><rect class="cls-3" x="140.33" y="476.94" width="21.42" height="21.42"/><rect class="cls-3" x="163.58" y="476.94" width="21.42" height="21.42"/><rect class="cls-3" x="186.83" y="476.94" width="21.42" height="21.42"/><rect class="cls-3" x="210.08" y="476.94" width="21.42" height="21.42"/><rect class="cls-3" x="233.33" y="476.94" width="21.42" height="21.42"/><rect class="cls-3" x="256.58" y="476.94" width="21.42" height="21.42"/><rect class="cls-3" x="279.83" y="476.94" width="21.42" height="21.42"/><line class="cls-4" x1="11.83" y1="513.6" x2="415.33" y2="513.6"/><rect class="cls-5" x="54.17" y="513.6" width="310.21" height="40.1"/><rect class="cls-3" x="136.5" y="527.85" width="149.83" height="22.25"/><rect class="cls-3" x="171.83" y="516.73" width="76.5" height="5.13"/><rect class="cls-3" x="114" y="516.73" width="22.5" height="5.13"/><line class="cls-4" x1="11.83" y1="457.6" x2="415.33" y2="457.6"/><text class="cls-6" transform="translate(194.83 17.16)">gnb</text><text class="cls-6" transform="translate(111.96 17.16)">logo</text><text class="cls-6" transform="translate(171.67 111.94)">main_img</text><text class="cls-6" transform="translate(82 187.27)">New <tspan class="cls-7" x="26.4" y="0">P</tspan><tspan x="32.31" y="0">apers</tspan></text><text class="cls-6" transform="translate(85.33 232.6)">text / img</text><text class="cls-6" transform="translate(233 224.94)">text / img</text><text class="cls-6" transform="translate(87.33 397.27)">text / img</text><text class="cls-6" transform="translate(188.83 397.27)">text / img</text><text class="cls-6" transform="translate(285 398.6)">text / img</text><text class="cls-6" transform="translate(160 301.27)">text</text><text class="cls-6" transform="translate(151.04 335.6)">btn</text><text class="cls-6" transform="translate(271 310.94)">img </text><text class="cls-6" transform="translate(117.08 472.27)">Instagram</text><text class="cls-6" transform="translate(97 485.6)">img</text><text class="cls-6" transform="translate(195.33 538.98)">address</text><text class="cls-6" transform="translate(281.67 444.27)">icon + link</text><text class="cls-8" transform="translate(374.07 28.53)"><tspan class="cls-9">71p</tspan><tspan x="18.02" y="0">x</tspan></text><text class="cls-8" transform="translate(399.77 68.32)"> </text><text class="cls-8" transform="translate(376.73 129.49)"><tspan class="cls-9">852p</tspan><tspan x="24.02" y="0">x</tspan></text><text class="cls-8" transform="translate(405.77 129.49)"> </text><text class="cls-8" transform="translate(376.73 229.08)"><tspan class="cls-9">620p</tspan><tspan x="24.02" y="0">x</tspan></text><text class="cls-8" transform="translate(405.77 229.08)"> </text><text class="cls-8" transform="translate(376.73 310.94)"><tspan class="cls-9">399p</tspan><tspan x="24.02" y="0">x</tspan></text><text class="cls-8" transform="translate(405.77 293.59)"> </text><text class="cls-8" transform="translate(379.4 384.64)"><tspan class="cls-9">532p</tspan><tspan x="24.02" y="0">x</tspan></text><text class="cls-8" transform="translate(405.77 353.3)"> </text><text class="cls-8" transform="translate(379.4 445.35)"><tspan class="cls-9">275p</tspan><tspan x="24.02" y="0">x</tspan></text><text class="cls-8" transform="translate(405.77 397.78)"> </text><text class="cls-8" transform="translate(376.73 482.41)"><tspan class="cls-9">295p</tspan><tspan x="24.02" y="0">x</tspan></text><text class="cls-8" transform="translate(405.77 429.74)"> </text><text class="cls-8" transform="translate(379.4 538.98)"><tspan class="cls-9">242p</tspan><tspan x="24.02" y="0">x</tspan></text><text class="cls-8" transform="translate(405.77 468.34)"> </text><text class="cls-10" transform="translate(0 13.6)">INDEX</text><text class="cls-11" transform="translate(302.83 487.65)">132 x 132 px</text></g><g id="Layer_5" data-name="Layer 5"><circle class="cls-12" cx="106.19" cy="31.83" r="7.31"/><text class="cls-13" transform="translate(102.42 35.6)">1</text><circle class="cls-12" cx="170.67" cy="31.94" r="7.31"/><text class="cls-13" transform="translate(166.9 35.71)">2</text><circle class="cls-12" cx="232" cy="109.27" r="7.31"/><text class="cls-13" transform="translate(228.23 113.04)">3</text><circle class="cls-12" cx="154.46" cy="234.08" r="7.31"/><text class="cls-13" transform="translate(150.69 237.86)">4</text><circle class="cls-12" cx="191.78" cy="303.33" r="7.31"/><text class="cls-13" transform="translate(188.01 307.1)">5</text><circle class="cls-12" cx="262.46" cy="303.06" r="7.31"/><text class="cls-13" transform="translate(258.69 306.83)">6</text><circle class="cls-12" cx="206.07" cy="377.29" r="7.31"/><text class="cls-13" transform="translate(202.29 381.06)">7</text><circle class="cls-12" cx="207.31" cy="445.29" r="7.31"/><text class="cls-13" transform="translate(203.54 449.06)">8</text><circle class="cls-12" cx="198.6" cy="487.17" r="7.31"/><text class="cls-13" transform="translate(194.83 490.94)">9</text><circle class="cls-12" cx="109.86" cy="519.93" r="7.31"/><text class="cls-13" transform="translate(104.09 523.7) scale(0.76 1)">10</text><circle class="cls-12" cx="182.43" cy="536.52" r="7.31"/><circle class="cls-12" cx="321.76" cy="541.91" r="7.31"/><text class="cls-13" transform="translate(176.24 541.12) scale(0.76 1)">11</text><text class="cls-13" transform="translate(316.4 546.51) scale(0.76 1)">12</text></g></g></svg>