<svg xmlns="http://www.w3.org/2000/svg" viewBox="0 0 414.78 478.49"><defs><style>.cls-1{fill:#e6e7e8;}.cls-1,.cls-2,.cls-3,.cls-4{stroke:#1f3864;stroke-miterlimit:10;}.cls-1,.cls-3{stroke-width:0.5px;}.cls-2{fill:#fff;}.cls-3{fill:#a7a9ac;}.cls-4{fill:none;}.cls-5{font-size:11px;}.cls-5,.cls-6,.cls-7,.cls-9{font-family:NanumGothic, NanumGothic;}.cls-6{font-size:16px;}.cls-7{font-size:9.96px;}.cls-8{letter-spacing:0em;}.cls-9{font-size:12px;}.cls-10{fill:#fbb040;}</style></defs><title>svxAsset 3</title><g id="Layer_2" data-name="Layer 2"><g id="Layer_7" data-name="Layer 7"><rect class="cls-1" x="47.72" y="27.76" width="324.18" height="11.85"/><rect class="cls-2" x="111.73" y="29.87" width="18.4" height="7.58"/><rect class="cls-2" x="161.52" y="29.87" width="96.6" height="7.58"/><rect class="cls-2" x="271.38" y="29.87" width="37.07" height="7.58"/><rect class="cls-3" x="47.72" y="39.61" width="324.18" height="98.49"/><rect class="cls-2" x="113.62" y="70.19" width="192.12" height="67.92"/><rect class="cls-2" x="191.82" y="50.71" width="35.45" height="14.61"/><rect class="cls-2" x="113.62" y="51.52" width="29.49" height="2.98"/><line class="cls-4" x1="20" y1="39.61" x2="397.47" y2="39.61"/><rect class="cls-1" x="47.72" y="138.11" width="324.18" height="106.55"/><rect class="cls-2" x="177.48" y="149.07" width="64.33" height="16.03"/><rect class="cls-2" x="144.2" y="176.26" width="40.39" height="40.39"/><rect class="cls-2" x="189.46" y="176.26" width="40.38" height="40.39"/><rect class="cls-2" x="234.71" y="176.26" width="40.38" height="40.39"/><line class="cls-4" x1="20" y1="138.11" x2="399.5" y2="138.11"/><rect class="cls-3" x="47.72" y="244.65" width="324.18" height="93.56"/><rect class="cls-2" x="113.62" y="244.65" width="192.12" height="54.19"/><rect class="cls-2" x="133.65" y="294.37" width="78.74" height="29.63"/><line class="cls-4" x1="20" y1="244.65" x2="399.5" y2="244.65"/><rect class="cls-1" x="47.72" y="338.21" width="324.18" height="98.63"/><rect class="cls-2" x="113.62" y="338.21" width="192.12" height="53.98"/><rect class="cls-2" x="179.38" y="384.07" width="108.78" height="41.13"/><line class="cls-4" x1="20" y1="338.21" x2="397.47" y2="338.21"/><rect class="cls-3" x="47.72" y="436.84" width="324.18" height="41.4"/><rect class="cls-2" x="111.46" y="439.27" width="22.19" height="6.22"/><rect class="cls-2" x="174.24" y="439.27" width="72.25" height="6.22"/><rect class="cls-2" x="133.65" y="450.64" width="158.29" height="24.62"/><line class="cls-4" x1="20" y1="436.84" x2="397.47" y2="436.84"/><text class="cls-5" transform="translate(202.96 23.43)">gnb</text><text class="cls-5" transform="translate(113.62 23.43)">logo</text><text class="cls-5" transform="translate(179.79 122.54)">main_img</text><text class="cls-5" transform="translate(153.18 199.19)">img</text><text class="cls-5" transform="translate(198.44 199.19)">img</text><text class="cls-5" transform="translate(243.69 199.19)">img</text><text class="cls-5" transform="translate(201.58 272.01)">img</text><text class="cls-5" transform="translate(201.58 368.68)">img</text><text class="cls-6" transform="translate(0 12.8)">SUB</text><text class="cls-7" transform="translate(378.95 33.66)"><tspan class="cls-8">71p</tspan><tspan x="18.02" y="0">x</tspan></text><text class="cls-7" transform="translate(405.99 36.73)"> </text><text class="cls-7" transform="translate(378.95 104.15)"><tspan class="cls-8">582p</tspan><tspan x="24.02" y="0">x</tspan></text><text class="cls-7" transform="translate(411.99 84.55)"> </text><text class="cls-7" transform="translate(382.95 216.65)"><tspan class="cls-8">631p</tspan><tspan x="24.02" y="0">x</tspan></text><text class="cls-7" transform="translate(411.99 183.57)"> </text><text class="cls-7" transform="translate(382.95 294.37)"><tspan class="cls-8">555p</tspan><tspan x="24.02" y="0">x</tspan></text><text class="cls-7" transform="translate(411.99 269.27)"> </text><text class="cls-7" transform="translate(382.95 377.75)"><tspan class="cls-8">587p</tspan><tspan x="24.02" y="0">x</tspan></text><text class="cls-7" transform="translate(411.99 356.75)"> </text><text class="cls-7" transform="translate(382.95 467.41)"><tspan class="cls-8">242p</tspan><tspan x="24.02" y="0">x</tspan></text><text class="cls-7" transform="translate(411.99 415.72)"> </text><text class="cls-6" transform="translate(191.82 161.8)">text</text><text class="cls-6" transform="translate(153.18 312.47)">text</text><text class="cls-6" transform="translate(219.18 409.8)">text</text><text class="cls-9" transform="translate(179.79 467.41)">address</text><text class="cls-9" transform="translate(194.33 85.8)">1141 x 400 px</text><text class="cls-9" transform="translate(280.33 207.8)">240 x 240 px</text><text class="cls-9" transform="translate(123 261.13)">1141 x 502 px</text><text class="cls-9" transform="translate(154.33 352.47)">1141 x 587 px</text></g><g id="Layer_8" data-name="Layer 8"><circle class="cls-10" cx="187.35" cy="58.2" r="7.31"/><text class="cls-9" transform="translate(183.58 61.97)">1</text><circle class="cls-10" cx="170.85" cy="98.2" r="7.31"/><text class="cls-9" transform="translate(167.08 101.97)">2</text><circle class="cls-10" cx="177.85" cy="157.2" r="7.31"/><text class="cls-9" transform="translate(174.08 160.97)">3</text><circle class="cls-10" cx="197.85" cy="187.2" r="7.31"/><text class="cls-9" transform="translate(194.08 190.97)">4</text><circle class="cls-10" cx="200.85" cy="257.2" r="7.31"/><text class="cls-9" transform="translate(197.08 260.97)">5</text><circle class="cls-10" cx="194.35" cy="307.7" r="7.31"/><text class="cls-9" transform="translate(190.58 311.47)">6</text><circle class="cls-10" cx="232.35" cy="365.2" r="7.31"/><text class="cls-9" transform="translate(228.58 368.97)">7</text><circle class="cls-10" cx="254.85" cy="407.2" r="7.31"/><text class="cls-9" transform="translate(251.08 410.97)">8</text></g></g></svg>