<svg xmlns="http://www.w3.org/2000/svg" viewBox="0 0 261.29 233.77"><defs><style>.cls-1{fill:#221f20;}.cls-2{fill:#223e7e;}.cls-3{fill:#b32226;}.cls-4{fill:#221e1f;}</style></defs><title>자산 21</title><g id="레이어_2" data-name="레이어 2"><g id="Layer_1" data-name="Layer 1"><path class="cls-1" d="M12.72,6.81a9.69,9.69,0,0,0-4.2,8.05,7.92,7.92,0,0,0,3.81,7.06c2,1.27,5.35,2.29,9.86,3a44.12,44.12,0,0,1,8.61,1.95,2.53,2.53,0,0,1,1.73,2.4,3.38,3.38,0,0,1-2.1,3.25,10.62,10.62,0,0,1-5,1A8.7,8.7,0,0,1,20.31,32a4.5,4.5,0,0,1-2.1-3.91v-.46H7v.46a11.07,11.07,0,0,0,5.41,9.72c3.21,2,7.47,3.08,12.66,3.08,5.8,0,10.42-1.06,13.73-3.14a10,10,0,0,0,5.11-8.86,8,8,0,0,0-3.6-7.11c-2-1.37-5.38-2.4-10-3.09s-7.36-1.3-8.61-1.89A2.52,2.52,0,0,1,20,14.34a2.8,2.8,0,0,1,1.45-2.59,8,8,0,0,1,4.07-.93,6.47,6.47,0,0,1,4,1.18,3.78,3.78,0,0,1,1.47,3.17v.47H42.48v-.47a9.91,9.91,0,0,0-4.57-8.73c-3-2-7.33-3-12.93-3C19.82,3.44,15.69,4.58,12.72,6.81Z"/><path class="cls-1" d="M58.28,16a8.68,8.68,0,0,1,5.85-2.13,8.4,8.4,0,0,1,6.13,2.3,8.4,8.4,0,0,1,2.38,6.32A7.82,7.82,0,0,1,70,28.76a8.55,8.55,0,0,1-5.78,2,8.79,8.79,0,0,1-6.1-2.27,7.76,7.76,0,0,1-2.53-6.09A8.16,8.16,0,0,1,58.28,16Zm14-10.76V9.11A13.93,13.93,0,0,0,67.9,5.69a12.37,12.37,0,0,0-5.38-1.14,16,16,0,0,0-12.71,6,17.94,17.94,0,0,0-4.54,11.85A17.62,17.62,0,0,0,50.16,35a15.74,15.74,0,0,0,11.92,5.18A15.3,15.3,0,0,0,72.64,36v3.84h9.87V5.23Z"/><path class="cls-1" d="M233,21.15V40H223V5.23h9.56l-.09,4.66a11.63,11.63,0,0,1,10.09-5.34h.9a10.17,10.17,0,0,1,7.5,3q3.36,3.38,3.37,9.47V40h-10.2V21.15a10.79,10.79,0,0,0-1-5.34,4,4,0,0,0-3.7-1.71c-.31,0-1,.07-2,.2a4.74,4.74,0,0,0-2.76,1.42Q233,17.46,233,21.15Z"/><path class="cls-1" d="M112.26,8.76a9,9,0,0,0-7.84-4.29c-2.71,0-5.24,1.25-7.53,3.69V5.29H86.45V39.87h11V19.27c0-5.17,2.44-5.17,3.24-5.17,1.15,0,1.78,1.93,1.78,5.41V39.87h10.83V19.27c0-5.17,2.44-5.17,3.24-5.17,1.41,0,1.71,2.13,1.71,3.93V39.87h11.22V15.79c0-4.21-.72-7.11-2.24-8.85s-3.77-2.47-6.93-2.47C117.3,4.47,114.62,5.92,112.26,8.76Z"/><path class="cls-1" d="M173.45,5.29H162.89S161.07,19.54,160.36,25c-.91-5.49-3.29-19.75-3.29-19.75h-9.74L143.91,25c-.67-5.51-2.41-19.75-2.41-19.75H130.22l7.29,34.58h11.83s2-11.2,2.73-15.65l2.85,15.65h11.83l7.43-34.58Z"/><path class="cls-1" d="M179,14.1a12.76,12.76,0,0,1,9.24-4,13.28,13.28,0,0,1,8.91,3.8c2.6,2.37,10.24,9.83,10.24,9.83A29.86,29.86,0,0,0,207,7.87l12.23,10.65a22.74,22.74,0,0,0-45.09,3.84,21.32,21.32,0,0,0,.2,3.58A16.83,16.83,0,0,1,179,14.1Z"/><path class="cls-1" d="M193.23,38.41a13.55,13.55,0,0,0,9.37-4.27,16.43,16.43,0,0,0,3.8-6.61l-5.88-5.62c0,.09,0,.17,0,.26a11.62,11.62,0,0,1-3.25,8,9.47,9.47,0,0,1-6.79,2.92,8.57,8.57,0,0,1-6.27-2.69,9,9,0,0,1-2-7.52,7,7,0,0,1,3.24-4.84,6.15,6.15,0,0,1,6-.13,4.87,4.87,0,0,1,2.95,4.33,2.77,2.77,0,0,1-.49,1.86,4.13,4.13,0,0,0-8.22-.17,4,4,0,0,0,3.86,4.12h.06a3.8,3.8,0,0,0,.89.1A4.84,4.84,0,0,0,194,26.72a6.62,6.62,0,0,0,.06-9.1,8,8,0,0,0-5.85-2.55,8.11,8.11,0,0,0-5.88,2.53,11.81,11.81,0,0,0-.11,16.18A14.78,14.78,0,0,0,193.23,38.41Z"/><path class="cls-1" d="M212.71,18a39.3,39.3,0,0,1-.21,4.29c-.89,6-2.63,10.7-6.44,15.19a17,17,0,0,1-12.76,5.88,19.36,19.36,0,0,1-11.55-3.55,22.44,22.44,0,0,0,14.62,5.68,22.83,22.83,0,0,0,23.19-21.94C216.62,21,212.71,18,212.71,18Z"/><path class="cls-1" d="M12.72,70.35h-2V55.46H14a11.08,11.08,0,0,1,2.11.15,3.5,3.5,0,0,1,1.27.48,3.86,3.86,0,0,1,1.41,1.55,4.64,4.64,0,0,1,.52,2.18A4.3,4.3,0,0,1,18,63.13a5.11,5.11,0,0,1-3.61,1.23H12.72Zm0-8H14.2a3.66,3.66,0,0,0,2.31-.59A2.25,2.25,0,0,0,17.22,60a2.35,2.35,0,0,0-.72-1.89,3.4,3.4,0,0,0-2.22-.62H12.72Z"/><path class="cls-1" d="M70.43,66l-1.59,4.33H66.7l5.5-14.89h2l5.52,14.89H77.48L75.93,66Zm4.76-2.1-2-5.65-2,5.65Z"/><path class="cls-1" d="M130.16,70.35h-2V55.46h3.29a11.15,11.15,0,0,1,2.11.15,3.57,3.57,0,0,1,1.27.48,3.84,3.84,0,0,1,1.4,1.55,4.65,4.65,0,0,1,.53,2.18,4.27,4.27,0,0,1-1.33,3.31,5.09,5.09,0,0,1-3.6,1.23h-1.63Zm0-8h1.48a3.61,3.61,0,0,0,2.3-.59,2.25,2.25,0,0,0,.72-1.85,2.32,2.32,0,0,0-.73-1.89,3.36,3.36,0,0,0-2.22-.62h-1.55Z"/><path class="cls-1" d="M193.31,70.35H186V55.46h7.35v2H188V61.9h5.29v1.93H188v4.46h5.29Z"/><path class="cls-1" d="M245.49,70.35h-2.06V55.46h4.09a5.56,5.56,0,0,1,3.88,1.24,4.65,4.65,0,0,1,1.33,3.58,4.37,4.37,0,0,1-1.11,3,4.06,4.06,0,0,1-2.88,1.31l4,5.71h-2.56l-4.68-6.91Zm0-7.15h1a5.56,5.56,0,0,0,3.16-.73,2.5,2.5,0,0,0,1-2.21,2.46,2.46,0,0,0-.89-2.12,4.66,4.66,0,0,0-2.81-.68h-1.54Z"/><path class="cls-2" d="M12.72,103.59a9.69,9.69,0,0,0-4.2,8,7.89,7.89,0,0,0,3.81,7c2,1.28,5.35,2.3,9.86,3a44.12,44.12,0,0,1,8.61,2,2.53,2.53,0,0,1,1.73,2.4,3.38,3.38,0,0,1-2.1,3.25,10.74,10.74,0,0,1-5,1,8.7,8.7,0,0,1-5.13-1.51,4.5,4.5,0,0,1-2.1-3.91v-.46H7v.46a11.07,11.07,0,0,0,5.41,9.72c3.21,2,7.47,3.08,12.66,3.08,5.8,0,10.42-1.06,13.73-3.14a10,10,0,0,0,5.11-8.86,8,8,0,0,0-3.6-7.12c-2-1.36-5.38-2.39-10-3.08s-7.36-1.31-8.61-1.89A2.53,2.53,0,0,1,20,111.11a2.79,2.79,0,0,1,1.45-2.58,8,8,0,0,1,4.07-.93,6.4,6.4,0,0,1,4,1.18A3.78,3.78,0,0,1,31.05,112v.47H42.48V112a9.91,9.91,0,0,0-4.57-8.73c-3-2-7.33-3-12.93-3C19.82,100.22,15.69,101.35,12.72,103.59Z"/><path class="cls-2" d="M58.28,112.77a8.68,8.68,0,0,1,5.85-2.13,8,8,0,0,1,8.51,8.61A7.83,7.83,0,0,1,70,125.54a8.55,8.55,0,0,1-5.78,2,8.84,8.84,0,0,1-6.1-2.27,7.76,7.76,0,0,1-2.53-6.09A8.15,8.15,0,0,1,58.28,112.77Zm14-10.76v3.88a13.79,13.79,0,0,0-4.41-3.42,12.37,12.37,0,0,0-5.38-1.14,16,16,0,0,0-12.71,6,17.94,17.94,0,0,0-4.54,11.85,17.62,17.62,0,0,0,4.89,12.56,15.78,15.78,0,0,0,11.92,5.18,15.3,15.3,0,0,0,10.56-4.13v3.84h9.87V102Z"/><path class="cls-2" d="M233,117.93v18.84H223V102h9.56l-.09,4.65a11.64,11.64,0,0,1,10.09-5.33h.9a10.17,10.17,0,0,1,7.5,3q3.36,3.38,3.37,9.47v22.93h-10.2V117.93a10.79,10.79,0,0,0-1-5.34,4,4,0,0,0-3.7-1.71c-.31,0-1,.07-2,.2a4.68,4.68,0,0,0-2.76,1.42Q233,114.24,233,117.93Z"/><path class="cls-2" d="M112.26,105.54a9,9,0,0,0-7.84-4.29c-2.71,0-5.24,1.25-7.53,3.69v-2.87H86.45v34.58h11v-20.6c0-5.17,2.44-5.17,3.24-5.17,1.15,0,1.78,1.92,1.78,5.41v20.36h10.83v-20.6c0-5.17,2.44-5.17,3.24-5.17,1.41,0,1.71,2.13,1.71,3.92v21.85h11.22V112.57c0-4.21-.72-7.11-2.24-8.85s-3.77-2.47-6.93-2.47C117.3,101.25,114.62,102.7,112.26,105.54Z"/><path class="cls-2" d="M173.45,102.07H162.89s-1.82,14.25-2.53,19.75c-.91-5.49-3.29-19.75-3.29-19.75h-9.74l-3.42,19.75c-.67-5.51-2.41-19.75-2.41-19.75H130.22l7.29,34.58h11.83s2-11.2,2.73-15.65l2.85,15.65h11.83l7.43-34.58Z"/><path class="cls-3" d="M179,110.88a12.76,12.76,0,0,1,9.24-4,13.23,13.23,0,0,1,8.91,3.8c2.6,2.37,10.24,9.82,10.24,9.82a29.82,29.82,0,0,0-.39-15.87l12.23,10.65a22.74,22.74,0,0,0-45.09,3.84,21.32,21.32,0,0,0,.2,3.58A16.83,16.83,0,0,1,179,110.88Z"/><path class="cls-2" d="M193.23,135.19a13.55,13.55,0,0,0,9.37-4.27,16.46,16.46,0,0,0,3.8-6.62l-5.88-5.61c0,.08,0,.17,0,.26a11.62,11.62,0,0,1-3.25,8,9.47,9.47,0,0,1-6.79,2.92,8.54,8.54,0,0,1-6.27-2.7,9,9,0,0,1-2-7.51,7,7,0,0,1,3.24-4.84,6.15,6.15,0,0,1,6-.13,4.87,4.87,0,0,1,2.95,4.33,2.77,2.77,0,0,1-.49,1.86,4.13,4.13,0,0,0-8.22-.17,4,4,0,0,0,3.86,4.12h.06a4.41,4.41,0,0,0,.89.1,4.81,4.81,0,0,0,3.45-1.49,6.61,6.61,0,0,0,.06-9.09,8,8,0,0,0-5.85-2.55,8.11,8.11,0,0,0-5.88,2.53,11.81,11.81,0,0,0-.11,16.18A14.81,14.81,0,0,0,193.23,135.19Z"/><path class="cls-2" d="M212.71,114.77a39.3,39.3,0,0,1-.21,4.29c-.89,6-2.63,10.7-6.44,15.19a17,17,0,0,1-12.76,5.88,19.36,19.36,0,0,1-11.55-3.55,22.44,22.44,0,0,0,14.62,5.68,22.83,22.83,0,0,0,23.19-21.94C216.62,117.73,212.71,114.77,212.71,114.77Z"/><path class="cls-4" d="M12.72,167.13h-2V152.24H14a11.08,11.08,0,0,1,2.11.15,3.5,3.5,0,0,1,1.27.48,3.86,3.86,0,0,1,1.41,1.55,4.64,4.64,0,0,1,.52,2.18A4.3,4.3,0,0,1,18,159.91a5.11,5.11,0,0,1-3.61,1.23H12.72Zm0-8H14.2a3.66,3.66,0,0,0,2.31-.59,2.25,2.25,0,0,0,.71-1.86,2.38,2.38,0,0,0-.72-1.89,3.4,3.4,0,0,0-2.22-.61H12.72Z"/><path class="cls-4" d="M70.43,162.8l-1.59,4.33H66.7l5.5-14.89h2l5.52,14.89H77.48l-1.55-4.33Zm4.76-2.1-2-5.66-2,5.66Z"/><path class="cls-4" d="M130.16,167.13h-2V152.24h3.29a11.15,11.15,0,0,1,2.11.15,3.57,3.57,0,0,1,1.27.48,3.84,3.84,0,0,1,1.4,1.55,4.65,4.65,0,0,1,.53,2.18,4.27,4.27,0,0,1-1.33,3.31,5.09,5.09,0,0,1-3.6,1.23h-1.63Zm0-8h1.48a3.61,3.61,0,0,0,2.3-.59,2.26,2.26,0,0,0,.72-1.86,2.35,2.35,0,0,0-.73-1.89,3.36,3.36,0,0,0-2.22-.61h-1.55Z"/><path class="cls-4" d="M193.31,167.13H186V152.24h7.35v2H188v4.46h5.29v1.93H188v4.46h5.29Z"/><path class="cls-4" d="M245.49,167.13h-2.06V152.24h4.09a5.56,5.56,0,0,1,3.88,1.24,4.65,4.65,0,0,1,1.33,3.58,4.35,4.35,0,0,1-1.11,3,4,4,0,0,1-2.88,1.32l4,5.71h-2.56l-4.68-6.91Zm0-7.16h1a5.57,5.57,0,0,0,3.16-.72,2.5,2.5,0,0,0,1-2.21,2.46,2.46,0,0,0-.89-2.12,4.66,4.66,0,0,0-2.81-.68h-1.54Z"/><path class="cls-4" d="M96.89,203.55H93.14s0-6.23,0-7.65S92.26,194,90.87,194H88.1v23.88H59.5V229a4.74,4.74,0,0,0,5.06,4.73H93.18l0-25.3H96.9c.52,0,2-.3,2-2.44A2.25,2.25,0,0,0,96.89,203.55Zm-8.73,25.27H65.73c-.81,0-1.34-.37-1.34-1.25v-4.88H88.16Z"/><path class="cls-4" d="M261.29,233.69s0-36.17,0-37.56a2,2,0,0,0-2.14-2.17h-2.76V222.7c-4.69-1.87-13.12-11.28-13.17-23l9.24,0c1.27-.06,2.05-1.52,2.05-2.58a2.35,2.35,0,0,0-2.06-2.4H228.34a2.5,2.5,0,0,0-2.18,2.53,2.44,2.44,0,0,0,2.21,2.47h9.25c0,12.47-5.44,19.33-11.94,23.63h0c-.76.51-.76,2.39-.24,3.18a2.33,2.33,0,0,0,2.72.94c2.4-1.33,8-4.31,12.65-15.29,4.23,9.61,10.51,14.22,15,15.42a1.71,1.71,0,0,0,.56.14v6Z"/><path class="cls-4" d="M135,194.06h-2.71v17.18h-12a16.23,16.23,0,0,0,6.62-2.31,7.11,7.11,0,0,0,3.75-6.21,7.35,7.35,0,0,0-3.76-6.54c-2.6-1.67-6.33-2.51-11.07-2.51s-8.51.84-11.08,2.51a7.41,7.41,0,0,0-3.71,6.54,7.15,7.15,0,0,0,3.71,6.22,16,16,0,0,0,6.59,2.3h-9.26a2.45,2.45,0,0,0,0,4.81h11.57v6.73h4.92v-6.73h13.75v2.1h-4.06a2.17,2.17,0,0,0-2,2.35,2.38,2.38,0,0,0,2,2.55h4.07v5.63l-23.94,0a1.21,1.21,0,0,1-1.2-1.2v-9h-5s0,8.78,0,10.61a4.91,4.91,0,0,0,4.92,4.54h30.14v-37.6A2,2,0,0,0,135,194.06Zm-28.95,8.62c0-1.27.82-2.28,2.45-3a18.77,18.77,0,0,1,7.35-1.14,18.79,18.79,0,0,1,7.33,1.14c1.66.72,2.5,1.72,2.5,3s-.83,2.12-2.48,2.84a18.43,18.43,0,0,1-7.35,1.2,18.23,18.23,0,0,1-7.35-1.2C106.91,204.8,106.09,203.85,106.09,202.68Z"/><path class="cls-4" d="M178.41,213.64H143.68a1.72,1.72,0,0,0-1.59,1.93,1.79,1.79,0,0,0,1.58,2h34.75v0c.87-.11,1.57-.6,1.57-2A1.72,1.72,0,0,0,178.41,213.64Z"/><path class="cls-4" d="M146.77,211.31h31.07c.77,0,1.4-.71,1.4-1.87s-.63-1.88-1.41-1.9H148.77a.82.82,0,0,1-.87-.86V205l29.93,0c.83,0,1.39-.76,1.39-2s-.72-2-1.58-2H147.9v-2.58h29.82a1.77,1.77,0,0,0,1.46-1.86c0-1-.65-1.94-1.47-2H143v12.87A3.51,3.51,0,0,0,146.77,211.31Z"/><path class="cls-4" d="M142.88,221.71c0,1.31.71,2,1.73,2H174.1v9.88H179V219.82H144.58A1.67,1.67,0,0,0,142.88,221.71Z"/><path class="cls-4" d="M222.28,215.44v0H184.94a2.54,2.54,0,0,0,0,4.86h16.48v13.38h5.05V220.3h15.81v0a2.57,2.57,0,0,0,0-4.84Z"/><path class="cls-4" d="M71.62,204.41s2.57,6.06,11.39,11.33a2.57,2.57,0,0,0,3.35-.93,2.37,2.37,0,0,0-.6-3.12c-6.08-4.54-11.12-9.34-11.69-17.53H69.14c-.7,8.71-5.85,13.59-11.39,17.08a2.78,2.78,0,0,0-.94,3.64,2.2,2.2,0,0,0,3.28.76C68.93,210.16,71.62,204.41,71.62,204.41Z"/><path class="cls-4" d="M186.25,213.55c4.72-1,14.37-5.22,17.44-11.12,3.42,5.75,10.74,9.33,16.55,11a2.38,2.38,0,0,0,2.94-1.52,2.63,2.63,0,0,0-1.14-3.17c-5.34-1.91-13.39-4.59-15.91-14.75H201c-2.15,10-10.73,13.19-16.43,15a2.5,2.5,0,0,0,1.66,4.61Z"/><path class="cls-4" d="M10.45,214c3.52-1.25,11.16-3.57,14.46-9,3.12,5.4,11.57,8.16,14.73,9a2,2,0,0,0,2.57-1.55,2.34,2.34,0,0,0-1-2.88c-.44-.18-12.82-3.38-13.64-10.74,2.41,0,12.05.08,12.05.08a2.33,2.33,0,0,0,1.89-2.35c0-1.08-.85-2.56-1.88-2.56h-29c-1,0-2,1.51-2,2.59a2.25,2.25,0,0,0,1.87,2.3l11.65-.06c-.57,6.55-13.47,10.82-13.47,10.82a2.36,2.36,0,0,0-.88,3A2.2,2.2,0,0,0,10.45,214Z"/><path class="cls-4" d="M40.44,215.91H9.73a2.29,2.29,0,0,0-2.12,2.42,2.21,2.21,0,0,0,2,2.39H22.3v13h4.92v-13l13.46,0c1.06-.06,1.73-1.06,1.73-2.37S41.55,215.91,40.44,215.91Z"/><path class="cls-4" d="M5.35,194a39.72,39.72,0,0,0,0,39.82H7.41a42.1,42.1,0,0,1-2.92-8.37,49,49,0,0,1-1.35-11.54A46,46,0,0,1,7.41,194Z"/><path class="cls-4" d="M42.79,194a46,46,0,0,1,4.27,19.91,49.51,49.51,0,0,1-1.34,11.54,42.11,42.11,0,0,1-2.93,8.37h2.06a39.72,39.72,0,0,0,0-39.82Z"/></g></g></svg>