<svg xmlns="http://www.w3.org/2000/svg" viewBox="0 0 462.85 163.07"><defs><style>.cls-1{fill:#707070;}</style></defs><title>coAsset 35</title><g id="Layer_2" data-name="Layer 2"><g id="Layer_1-2" data-name="Layer 1"><path class="cls-1" d="M0,0H1.3V5.16h0L5.63,0H7.09L3.88,3.91l3.71,6.36H6.13L3.07,4.92,1.3,7v3.25H0Z"/><path class="cls-1" d="M8.25,6.47c0-2.53,1.66-4,3.53-4s3.53,1.47,3.53,4-1.67,4-3.53,4S8.25,9,8.25,6.47Zm5.74,0c0-1.75-.9-2.94-2.21-2.94s-2.2,1.19-2.2,2.94.88,2.91,2.2,2.91S14,8.22,14,6.47Z"/><path class="cls-1" d="M17.3,2.66h1.05l.12,1.39h0a2.61,2.61,0,0,1,2.16-1.58,1.7,1.7,0,0,1,.81.16l-.24,1.12a1.92,1.92,0,0,0-.74-.12c-.63,0-1.42.45-1.92,1.75v4.89H17.3Z"/><path class="cls-1" d="M22,6.47c0-2.46,1.66-4,3.43-4,1.93,0,3,1.4,3,3.57a4.91,4.91,0,0,1-.05.73H23.28A2.53,2.53,0,0,0,25.8,9.43a3.33,3.33,0,0,0,1.91-.6l.46.84a4.54,4.54,0,0,1-2.52.78A3.63,3.63,0,0,1,22,6.47Zm5.33-.61c0-1.55-.7-2.37-1.89-2.37a2.33,2.33,0,0,0-2.18,2.37Z"/><path class="cls-1" d="M29.64,8.29c0-1.65,1.44-2.48,4.68-2.84,0-1-.33-1.92-1.57-1.92a4.26,4.26,0,0,0-2.29.81L30,3.46a5.71,5.71,0,0,1,3-1c1.85,0,2.63,1.24,2.63,3.12v4.68H34.54l-.11-.91h0a4.11,4.11,0,0,1-2.53,1.09A2.06,2.06,0,0,1,29.64,8.29Zm4.68.13V6.29c-2.57.31-3.44.94-3.44,1.92s.59,1.22,1.35,1.22A3.13,3.13,0,0,0,34.32,8.42Z"/><path class="cls-1" d="M38,2.66h1.05l.11,1.09h0a3.67,3.67,0,0,1,2.55-1.28c1.6,0,2.33,1,2.33,3v4.82H42.81V5.62c0-1.43-.43-2-1.44-2a2.9,2.9,0,0,0-2.09,1.16v5.52H38Z"/><path class="cls-1" d="M1.8,42H4.87L13.41,56.8l2.5,4.83h.16c-.16-2.37-.38-5-.38-7.42V42H18.5V65.47h-3L6.92,50.65,4.39,45.82H4.26c.13,2.37.35,4.86.35,7.33V65.47H1.8Z"/><path class="cls-1" d="M23.33,56.8c0-5.8,3.81-9.15,8.07-9.15S39.46,51,39.46,56.8s-3.81,9.08-8.06,9.08S23.33,62.56,23.33,56.8Zm13.12,0c0-4-2-6.72-5.05-6.72s-5,2.72-5,6.72,2,6.65,5,6.65S36.45,60.8,36.45,56.8Z"/><path class="cls-1" d="M43.94,60.09V50.46H41.35V48.25l2.72-.16.35-4.86h2.43v4.86h4.71v2.37H46.85v9.7c0,2.14.68,3.36,2.69,3.36a6.31,6.31,0,0,0,2-.45l.57,2.17a10.9,10.9,0,0,1-3.2.64C45.19,65.88,43.94,63.58,43.94,60.09Z"/><path class="cls-1" d="M53.7,56.8c0-5.8,3.81-9.15,8.07-9.15S69.83,51,69.83,56.8,66,65.88,61.77,65.88,53.7,62.56,53.7,56.8Zm13.12,0c0-4-2-6.72-5-6.72s-5,2.72-5,6.72,2,6.65,5,6.65S66.82,60.8,66.82,56.8Z"/><path class="cls-1" d="M80.13,62.4l1.76-2a9.23,9.23,0,0,0,6.5,2.91c3.07,0,4.93-1.53,4.93-3.84s-1.7-3.17-3.91-4.16L86,53.82c-2.17-.93-4.77-2.59-4.77-6,0-3.61,3.14-6.23,7.39-6.23a9.63,9.63,0,0,1,6.92,2.91L94,46.37a7.58,7.58,0,0,0-5.35-2.21c-2.65,0-4.38,1.34-4.38,3.45,0,2.27,2,3.14,3.87,3.91L91.49,53c2.72,1.18,4.83,2.78,4.83,6.27,0,3.71-3.07,6.65-8,6.65A11.23,11.23,0,0,1,80.13,62.4Z"/><path class="cls-1" d="M99.59,61c0-3.78,3.29-5.67,10.69-6.5,0-2.24-.74-4.38-3.59-4.38a9.53,9.53,0,0,0-5.21,1.85l-1.15-2a13,13,0,0,1,6.84-2.27c4.23,0,6,2.84,6,7.13V65.47h-2.4l-.26-2.08h-.09a9.36,9.36,0,0,1-5.76,2.49C101.76,65.88,99.59,64.09,99.59,61Zm10.69.28V56.38c-5.86.7-7.84,2.14-7.84,4.38,0,2,1.34,2.79,3.07,2.79S108.58,62.75,110.28,61.24Z"/><path class="cls-1" d="M118.72,48.09h2.41l.25,2.5h.1c1.66-1.63,3.45-2.94,5.82-2.94,3.65,0,5.31,2.36,5.31,6.81v11H129.7V54.84c0-3.26-1-4.63-3.3-4.63-1.79,0-3,.89-4.76,2.65V65.47h-2.92Z"/><path class="cls-1" d="M136.32,63.48l1.44-1.92a7.9,7.9,0,0,0,5.16,2c2.3,0,3.42-1.21,3.42-2.72,0-1.76-2.05-2.56-4-3.29-2.43-.9-5.18-2.08-5.18-5,0-2.75,2.21-4.92,6-4.92a9,9,0,0,1,5.41,2l-1.41,1.88a6.55,6.55,0,0,0-4-1.53C141,50,140,51.1,140,52.44c0,1.67,1.89,2.28,3.84,3,2.53,1,5.32,2,5.32,5.28,0,2.82-2.24,5.15-6.34,5.15A10.49,10.49,0,0,1,136.32,63.48Z"/><path class="cls-1" d="M160.68,42h3V53.79h.1L173.54,42h3.33l-7.33,8.93L178,65.47h-3.33l-7-12.22-4,4.79v7.43h-3Z"/><path class="cls-1" d="M194.24,65.47l-5.69-9.95h-4.23v9.95h-3V42h7.36c4.76,0,8.19,1.7,8.19,6.6a6.37,6.37,0,0,1-5.31,6.59l6,10.27Zm-9.92-12.35h3.94c3.68,0,5.7-1.48,5.7-4.51s-2-4.2-5.7-4.2h-3.94Z"/><path class="cls-1" d="M.2,89.74H1.74L6,97.13l1.25,2.42h.08c-.08-1.19-.19-2.5-.19-3.72V89.74h1.4v11.73H7L2.76,94.06,1.5,91.64H1.43c.07,1.18.18,2.43.18,3.67v6.16H.2Z"/><path class="cls-1" d="M11,97.13c0-2.9,1.9-4.58,4-4.58s4,1.68,4,4.58-1.9,4.55-4,4.55S11,100,11,97.13Zm6.56,0c0-2-1-3.36-2.53-3.36s-2.51,1.36-2.51,3.36,1,3.33,2.51,3.33S17.53,99.13,17.53,97.13Z"/><path class="cls-1" d="M21.27,98.78V94H20v-1.1l1.36-.08.18-2.44h1.22v2.44h2.35V94H22.73v4.85c0,1.07.33,1.68,1.34,1.68a3,3,0,0,0,1-.22l.29,1.09a5.42,5.42,0,0,1-1.6.32C21.9,101.68,21.27,100.52,21.27,98.78Z"/><path class="cls-1" d="M26.15,97.13c0-2.9,1.91-4.58,4-4.58s4,1.68,4,4.58-1.91,4.55-4,4.55S26.15,100,26.15,97.13Zm6.56,0c0-2-1-3.36-2.53-3.36s-2.51,1.36-2.51,3.36,1,3.33,2.51,3.33S32.71,99.13,32.71,97.13Z"/><path class="cls-1" d="M39.37,99.93l.88-1a4.61,4.61,0,0,0,3.25,1.46c1.53,0,2.46-.77,2.46-1.92s-.85-1.59-2-2.08l-1.7-.74a3.31,3.31,0,0,1-2.38-3c0-1.81,1.57-3.12,3.7-3.12A4.77,4.77,0,0,1,47.08,91l-.78.94a3.81,3.81,0,0,0-2.67-1.1c-1.33,0-2.2.67-2.2,1.73s1,1.56,1.94,1.95l1.68.72c1.36.59,2.42,1.39,2.42,3.14s-1.54,3.33-4,3.33A5.61,5.61,0,0,1,39.37,99.93Z"/><path class="cls-1" d="M49.09,99.21c0-1.89,1.65-2.83,5.35-3.25,0-1.12-.37-2.19-1.79-2.19A4.75,4.75,0,0,0,50,94.7l-.58-1a6.58,6.58,0,0,1,3.43-1.14c2.11,0,3,1.43,3,3.57v5.35H54.7l-.13-1h0a4.65,4.65,0,0,1-2.88,1.25A2.36,2.36,0,0,1,49.09,99.21Zm5.35.14V96.92c-2.93.35-3.92,1.07-3.92,2.2s.67,1.39,1.54,1.39A3.54,3.54,0,0,0,54.44,99.35Z"/><path class="cls-1" d="M58.66,92.78h1.2L60,94h0A4.19,4.19,0,0,1,63,92.55c1.83,0,2.66,1.19,2.66,3.41v5.51H64.15V96.15c0-1.63-.49-2.32-1.65-2.32a3.31,3.31,0,0,0-2.38,1.33v6.31H58.66Z"/><path class="cls-1" d="M67.46,100.48l.72-1a3.94,3.94,0,0,0,2.58,1c1.15,0,1.71-.61,1.71-1.36s-1-1.28-2-1.65c-1.22-.45-2.6-1-2.6-2.51s1.11-2.47,3-2.47a4.49,4.49,0,0,1,2.7,1l-.7.94a3.26,3.26,0,0,0-2-.76c-1.09,0-1.59.57-1.59,1.24,0,.84,1,1.14,1.92,1.51,1.27.48,2.66,1,2.66,2.64,0,1.41-1.12,2.58-3.17,2.58A5.29,5.29,0,0,1,67.46,100.48Z"/><path class="cls-1" d="M79.64,89.74h1.49v5.89h0l4.9-5.89h1.67L84.07,94.2l4.24,7.27H86.65l-3.51-6.12-2,2.4v3.72H79.64Z"/><path class="cls-1" d="M96.42,101.47l-2.84-5H91.46v5H90V89.74h3.69c2.38,0,4.09.84,4.09,3.29a3.17,3.17,0,0,1-2.65,3.3l3,5.14Zm-5-6.18h2c1.84,0,2.85-.74,2.85-2.26s-1-2.09-2.85-2.09h-2Z"/><path class="cls-1" d="M103.59,88.73h1.46v3.49L105,94a4.09,4.09,0,0,1,2.88-1.46c1.82,0,2.66,1.19,2.66,3.41v5.51h-1.46V96.15c0-1.63-.5-2.32-1.65-2.32a3.31,3.31,0,0,0-2.38,1.33v6.31h-1.46Z"/><path class="cls-1" d="M112.76,99.21c0-1.89,1.65-2.83,5.34-3.25,0-1.12-.36-2.19-1.79-2.19a4.75,4.75,0,0,0-2.61.93l-.57-1a6.54,6.54,0,0,1,3.42-1.14c2.11,0,3,1.43,3,3.57v5.35h-1.2l-.13-1h0a4.62,4.62,0,0,1-2.88,1.25A2.36,2.36,0,0,1,112.76,99.21Zm5.34.14V96.92c-2.93.35-3.92,1.07-3.92,2.2s.67,1.39,1.54,1.39A3.5,3.5,0,0,0,118.1,99.35Z"/><path class="cls-1" d="M121.35,100.48l.72-1a3.94,3.94,0,0,0,2.58,1c1.15,0,1.71-.61,1.71-1.36s-1-1.28-2-1.65c-1.22-.45-2.6-1-2.6-2.51s1.11-2.47,3-2.47a4.5,4.5,0,0,1,2.71,1l-.7.94a3.27,3.27,0,0,0-2-.76c-1.08,0-1.58.57-1.58,1.24,0,.84.94,1.14,1.92,1.51,1.27.48,2.66,1,2.66,2.64,0,1.41-1.12,2.58-3.17,2.58A5.29,5.29,0,0,1,121.35,100.48Z"/><path class="cls-1" d="M134.74,100.57h-.05l-.12.9H133.4V88.73h1.45v3.49l0,1.57a4.37,4.37,0,0,1,2.72-1.24c2.25,0,3.47,1.76,3.47,4.42,0,3-1.78,4.71-3.78,4.71A3.83,3.83,0,0,1,134.74,100.57ZM139.48,97c0-1.92-.64-3.21-2.29-3.21a3.6,3.6,0,0,0-2.34,1.2v4.56a3.36,3.36,0,0,0,2.13.91C138.42,100.46,139.48,99.16,139.48,97Z"/><path class="cls-1" d="M142.63,97.13c0-2.82,1.9-4.58,3.92-4.58,2.21,0,3.46,1.6,3.46,4.08a4.8,4.8,0,0,1-.07.84h-5.85a2.88,2.88,0,0,0,2.88,3,3.74,3.74,0,0,0,2.17-.69l.53,1a5.13,5.13,0,0,1-2.88.9C144.49,101.68,142.63,100,142.63,97.13Zm6.1-.7c0-1.76-.8-2.71-2.16-2.71s-2.32,1-2.5,2.71Z"/><path class="cls-1" d="M151.49,97.13c0-2.82,1.91-4.58,3.93-4.58,2.2,0,3.45,1.6,3.45,4.08a6.21,6.21,0,0,1-.06.84H153a2.88,2.88,0,0,0,2.88,3,3.77,3.77,0,0,0,2.18-.69l.53,1a5.16,5.16,0,0,1-2.88.9C153.35,101.68,151.49,100,151.49,97.13Zm6.1-.7c0-1.76-.8-2.71-2.16-2.71s-2.32,1-2.5,2.71Z"/><path class="cls-1" d="M161,92.78h1.2l.13,1.24h0a4.19,4.19,0,0,1,2.91-1.47c1.83,0,2.66,1.19,2.66,3.41v5.51H166.5V96.15c0-1.63-.49-2.32-1.65-2.32a3.31,3.31,0,0,0-2.38,1.33v6.31H161Z"/><path class="cls-1" d="M173.4,100.48l.72-1a3.92,3.92,0,0,0,2.57,1c1.16,0,1.72-.61,1.72-1.36s-1-1.28-2-1.65c-1.21-.45-2.59-1-2.59-2.51s1.1-2.47,3-2.47a4.52,4.52,0,0,1,2.71,1l-.71.94a3.24,3.24,0,0,0-2-.76c-1.09,0-1.58.57-1.58,1.24,0,.84.94,1.14,1.92,1.51,1.26.48,2.66,1,2.66,2.64,0,1.41-1.12,2.58-3.17,2.58A5.27,5.27,0,0,1,173.4,100.48Z"/><path class="cls-1" d="M181.75,98.28v-5.5h1.46v5.33c0,1.61.48,2.3,1.63,2.3.89,0,1.52-.43,2.35-1.47V92.78h1.46v8.69h-1.22l-.11-1.36h0a3.75,3.75,0,0,1-2.88,1.57C182.56,101.68,181.75,100.49,181.75,98.28Z"/><path class="cls-1" d="M192.92,100.57h0l-.13.9h-1.17V88.73H193v3.49L193,93.79a4.39,4.39,0,0,1,2.72-1.24c2.26,0,3.48,1.76,3.48,4.42,0,3-1.78,4.71-3.78,4.71A3.83,3.83,0,0,1,192.92,100.57ZM197.66,97c0-1.92-.65-3.21-2.29-3.21A3.56,3.56,0,0,0,193,95v4.56a3.34,3.34,0,0,0,2.13.91C196.6,100.46,197.66,99.16,197.66,97Z"/><path class="cls-1" d="M200.48,100.48l.72-1a4,4,0,0,0,2.58,1c1.15,0,1.71-.61,1.71-1.36s-1-1.28-2-1.65c-1.22-.45-2.59-1-2.59-2.51s1.1-2.47,3-2.47a4.47,4.47,0,0,1,2.7,1l-.7.94a3.26,3.26,0,0,0-2-.76c-1.09,0-1.58.57-1.58,1.24,0,.84.94,1.14,1.92,1.51,1.26.48,2.65,1,2.65,2.64,0,1.41-1.12,2.58-3.17,2.58A5.32,5.32,0,0,1,200.48,100.48Z"/><path class="cls-1" d="M208.29,97.13c0-2.82,1.91-4.58,3.92-4.58,2.21,0,3.46,1.6,3.46,4.08a6.21,6.21,0,0,1-.06.84h-5.86a2.88,2.88,0,0,0,2.88,3,3.77,3.77,0,0,0,2.18-.69l.52,1a5.11,5.11,0,0,1-2.88.9C210.15,101.68,208.29,100,208.29,97.13Zm6.1-.7c0-1.76-.8-2.71-2.16-2.71s-2.32,1-2.5,2.71Z"/><path class="cls-1" d="M217.89,98.78V94H216.6v-1.1l1.36-.08.17-2.44h1.22v2.44h2.35V94h-2.35v4.85c0,1.07.34,1.68,1.34,1.68a3.15,3.15,0,0,0,1-.22l.28,1.09a5.42,5.42,0,0,1-1.6.32C218.52,101.68,217.89,100.52,217.89,98.78Z"/><path class="cls-1" d="M223.57,98.78V94h-1.29v-1.1l1.36-.08.17-2.44H225v2.44h2.35V94H225v4.85c0,1.07.34,1.68,1.34,1.68a3.15,3.15,0,0,0,1-.22l.28,1.09a5.42,5.42,0,0,1-1.6.32C224.2,101.68,223.57,100.52,223.57,98.78Z"/><path class="cls-1" d="M228.45,97.13c0-2.82,1.91-4.58,3.92-4.58,2.21,0,3.46,1.6,3.46,4.08a6.21,6.21,0,0,1-.06.84h-5.86a2.88,2.88,0,0,0,2.88,3,3.77,3.77,0,0,0,2.18-.69l.53,1a5.16,5.16,0,0,1-2.89.9C230.31,101.68,228.45,100,228.45,97.13Zm6.1-.7c0-1.76-.8-2.71-2.16-2.71s-2.32,1-2.5,2.71Z"/><path class="cls-1" d="M237.35,97.13c0-2.82,1.78-4.58,3.76-4.58a3.56,3.56,0,0,1,2.45,1l-.08-1.51V88.73h1.46v12.74h-1.19l-.14-1h0a3.83,3.83,0,0,1-2.64,1.24C238.76,101.68,237.35,100,237.35,97.13Zm6.13,2.13V94.7a3,3,0,0,0-2.11-.91c-1.41,0-2.52,1.34-2.52,3.32s.87,3.35,2.4,3.35A3,3,0,0,0,243.48,99.26Z"/><path class="cls-1" d="M251.73,98.78V94h-1.29v-1.1l1.36-.08.17-2.44h1.22v2.44h2.35V94h-2.35v4.85c0,1.07.34,1.68,1.34,1.68a3.15,3.15,0,0,0,1-.22l.28,1.09a5.42,5.42,0,0,1-1.6.32C252.36,101.68,251.73,100.52,251.73,98.78Z"/><path class="cls-1" d="M256.61,97.13c0-2.9,1.91-4.58,4-4.58s4,1.68,4,4.58-1.91,4.55-4,4.55S256.61,100,256.61,97.13Zm6.56,0c0-2-1-3.36-2.52-3.36s-2.52,1.36-2.52,3.36,1,3.33,2.52,3.33S263.17,99.13,263.17,97.13Z"/><path class="cls-1" d="M269.89,97.13a4.23,4.23,0,0,1,4.2-4.58,3.68,3.68,0,0,1,2.54,1l-.75,1a2.53,2.53,0,0,0-1.75-.78c-1.57,0-2.72,1.36-2.72,3.36s1.09,3.33,2.69,3.33a3,3,0,0,0,2-.87l.62,1a4.11,4.11,0,0,1-2.8,1.11C271.67,101.68,269.89,100,269.89,97.13Z"/><path class="cls-1" d="M277.65,97.13c0-2.9,1.91-4.58,4-4.58s4,1.68,4,4.58-1.91,4.55-4,4.55S277.65,100,277.65,97.13Zm6.56,0c0-2-1-3.36-2.52-3.36s-2.52,1.36-2.52,3.36,1,3.33,2.52,3.33S284.21,99.13,284.21,97.13Z"/><path class="cls-1" d="M286.67,92.78h1.53l1.63,4.94c.27.85.54,1.75.81,2.56h.07c.25-.81.54-1.71.8-2.56l1.65-4.94h1.44l-3.09,8.69h-1.7Z"/><path class="cls-1" d="M295.56,97.13c0-2.82,1.9-4.58,3.92-4.58,2.21,0,3.45,1.6,3.45,4.08a6.21,6.21,0,0,1-.06.84H297a2.89,2.89,0,0,0,2.88,3,3.77,3.77,0,0,0,2.18-.69l.53,1a5.16,5.16,0,0,1-2.88.9C297.41,101.68,295.56,100,295.56,97.13Zm6.09-.7c0-1.76-.8-2.71-2.16-2.71A2.67,2.67,0,0,0,297,96.43Z"/><path class="cls-1" d="M305.08,92.78h1.2l.12,1.58h.05a3,3,0,0,1,2.47-1.81,1.93,1.93,0,0,1,.93.19L309.57,94a2.05,2.05,0,0,0-.85-.14c-.72,0-1.61.51-2.19,2v5.59h-1.45Z"/><path class="cls-1" d="M315.12,98.78V94h-1.29v-1.1l1.36-.08.17-2.44h1.22v2.44h2.35V94h-2.35v4.85c0,1.07.34,1.68,1.34,1.68a3.15,3.15,0,0,0,1-.22l.29,1.09a5.55,5.55,0,0,1-1.61.32C315.75,101.68,315.12,100.52,315.12,98.78Z"/><path class="cls-1" d="M320.9,88.73h1.46v3.49L322.31,94a4.07,4.07,0,0,1,2.88-1.46c1.82,0,2.66,1.19,2.66,3.41v5.51h-1.46V96.15c0-1.63-.5-2.32-1.65-2.32-.9,0-1.5.45-2.38,1.33v6.31H320.9Z"/><path class="cls-1" d="M330,97.13c0-2.82,1.9-4.58,3.92-4.58,2.21,0,3.45,1.6,3.45,4.08a6.21,6.21,0,0,1-.06.84h-5.86a2.88,2.88,0,0,0,2.88,3,3.77,3.77,0,0,0,2.18-.69l.53,1a5.16,5.16,0,0,1-2.88.9C331.81,101.68,330,100,330,97.13Zm6.09-.7c0-1.76-.8-2.71-2.16-2.71a2.67,2.67,0,0,0-2.49,2.71Z"/><path class="cls-1" d="M347,89.91a2.52,2.52,0,0,0-1-.22c-.83,0-1.23.59-1.23,1.71v1.38h1.84V94h-1.84v7.51H343.3V94h-1.19v-1.1l1.19-.08v-1.4c0-1.76.8-2.86,2.53-2.86a3.67,3.67,0,0,1,1.45.29Z"/><path class="cls-1" d="M348.15,98.28v-5.5h1.45v5.33c0,1.61.48,2.3,1.64,2.3.89,0,1.52-.43,2.35-1.47V92.78h1.46v8.69h-1.22l-.11-1.36h-.05a3.75,3.75,0,0,1-2.88,1.57C349,101.68,348.15,100.49,348.15,98.28Z"/><path class="cls-1" d="M358,99.74v-11h1.46v11.1c0,.45.19.63.41.63a1.41,1.41,0,0,0,.31,0l.21,1.12a2.33,2.33,0,0,1-.85.13C358.42,101.68,358,101,358,99.74Z"/><path class="cls-1" d="M362.53,99.74v-11H364v11.1c0,.45.19.63.41.63a1.41,1.41,0,0,0,.31,0l.21,1.12a2.33,2.33,0,0,1-.85.13C363,101.68,362.53,101,362.53,99.74Z"/><path class="cls-1" d="M370.67,92.78h1.21l.12,1.58h.05a3,3,0,0,1,2.47-1.81,1.87,1.87,0,0,1,.92.19L375.17,94a2.08,2.08,0,0,0-.85-.14c-.72,0-1.61.51-2.19,2v5.59h-1.46Z"/><path class="cls-1" d="M376.05,97.13c0-2.82,1.91-4.58,3.92-4.58,2.21,0,3.46,1.6,3.46,4.08a6.21,6.21,0,0,1-.06.84h-5.86a2.88,2.88,0,0,0,2.88,3,3.74,3.74,0,0,0,2.17-.69l.53,1a5.13,5.13,0,0,1-2.88.9C377.91,101.68,376.05,100,376.05,97.13Zm6.1-.7c0-1.76-.8-2.71-2.16-2.71s-2.32,1-2.5,2.71Z"/><path class="cls-1" d="M385.57,92.78h1.2l.13,1H387a4.63,4.63,0,0,1,2.77-1.22c2.24,0,3.45,1.76,3.45,4.44,0,3-1.77,4.69-3.77,4.69a3.9,3.9,0,0,1-2.4-1l0,1.52v2.94h-1.46ZM391.65,97c0-1.92-.64-3.21-2.29-3.21A3.6,3.6,0,0,0,387,95v4.56a3.36,3.36,0,0,0,2.13.91C390.6,100.46,391.65,99.16,391.65,97Z"/><path class="cls-1" d="M394.83,97.13c0-2.82,1.91-4.58,3.93-4.58,2.2,0,3.45,1.6,3.45,4.08a6.21,6.21,0,0,1-.06.84h-5.86a2.88,2.88,0,0,0,2.88,3,3.77,3.77,0,0,0,2.18-.69l.53,1a5.16,5.16,0,0,1-2.88.9C396.69,101.68,394.83,100,394.83,97.13Zm6.1-.7c0-1.76-.8-2.71-2.16-2.71s-2.32,1-2.5,2.71Z"/><path class="cls-1" d="M404.35,92.78h1.2l.13,1.58h.05a3,3,0,0,1,2.47-1.81,1.87,1.87,0,0,1,.92.19L408.85,94a2.08,2.08,0,0,0-.85-.14c-.72,0-1.61.51-2.19,2v5.59h-1.46Z"/><path class="cls-1" d="M410.82,98.78V94h-1.3v-1.1l1.36-.08.18-2.44h1.21v2.44h2.36V94h-2.36v4.85c0,1.07.34,1.68,1.35,1.68a3.15,3.15,0,0,0,1-.22l.29,1.09a5.48,5.48,0,0,1-1.6.32C411.44,101.68,410.82,100.52,410.82,98.78Z"/><path class="cls-1" d="M415.7,97.13c0-2.9,1.9-4.58,4-4.58s4,1.68,4,4.58-1.9,4.55-4,4.55S415.7,100,415.7,97.13Zm6.56,0c0-2-1-3.36-2.53-3.36s-2.51,1.36-2.51,3.36,1,3.33,2.51,3.33S422.26,99.13,422.26,97.13Z"/><path class="cls-1" d="M425.78,90a1,1,0,0,1,2,0,1,1,0,0,1-2,0Zm.27,2.74h1.46v8.69h-1.46Z"/><path class="cls-1" d="M430.45,92.78h1.2l.13,1.58h.05a3,3,0,0,1,2.46-1.81,1.91,1.91,0,0,1,.93.19L435,94a2.11,2.11,0,0,0-.85-.14c-.72,0-1.62.51-2.19,2v5.59h-1.46Z"/><path class="cls-1" d="M435.83,97.13c0-2.82,1.9-4.58,3.92-4.58,2.21,0,3.45,1.6,3.45,4.08a6.21,6.21,0,0,1-.06.84h-5.86a2.88,2.88,0,0,0,2.88,3,3.77,3.77,0,0,0,2.18-.69l.53,1a5.16,5.16,0,0,1-2.88.9C437.68,101.68,435.83,100,435.83,97.13Zm6.09-.7c0-1.76-.8-2.71-2.16-2.71a2.67,2.67,0,0,0-2.49,2.71Z"/><path class="cls-1" d="M448.27,97.13c0-2.9,1.91-4.58,4-4.58s4,1.68,4,4.58-1.9,4.55-4,4.55S448.27,100,448.27,97.13Zm6.56,0c0-2-1-3.36-2.52-3.36s-2.52,1.36-2.52,3.36,1,3.33,2.52,3.33S454.83,99.13,454.83,97.13Z"/><path class="cls-1" d="M462.53,89.91a2.52,2.52,0,0,0-1-.22c-.83,0-1.23.59-1.23,1.71v1.38h1.84V94h-1.84v7.51h-1.45V94h-1.19v-1.1l1.19-.08v-1.4c0-1.76.8-2.86,2.52-2.86a3.76,3.76,0,0,1,1.46.29Z"/><path class="cls-1" d="M.07,112h1.2l.13,1.26h.05a3.82,3.82,0,0,1,2.7-1.49,2.29,2.29,0,0,1,2.4,1.67,4.11,4.11,0,0,1,2.87-1.67c1.79,0,2.64,1.19,2.64,3.41v5.51H10.6v-5.32c0-1.63-.51-2.32-1.61-2.32a3.2,3.2,0,0,0-2.2,1.33v6.31H5.34v-5.32c0-1.63-.51-2.32-1.62-2.32a3.19,3.19,0,0,0-2.19,1.33v6.31H.07Z"/><path class="cls-1" d="M14.23,116.33c0-2.9,1.91-4.58,4-4.58s4,1.68,4,4.58-1.91,4.55-4,4.55S14.23,119.21,14.23,116.33Zm6.56,0c0-2-1-3.36-2.53-3.36s-2.51,1.36-2.51,3.36,1,3.33,2.51,3.33S20.79,118.33,20.79,116.33Z"/><path class="cls-1" d="M24,116.33c0-2.82,1.78-4.58,3.76-4.58a3.54,3.54,0,0,1,2.45,1l-.08-1.51v-3.34h1.46v12.74H30.36l-.14-1h0a3.88,3.88,0,0,1-2.65,1.24C25.37,120.88,24,119.23,24,116.33Zm6.13,2.13V113.9A3,3,0,0,0,28,113c-1.41,0-2.52,1.35-2.52,3.33s.87,3.35,2.4,3.35A3,3,0,0,0,30.09,118.46Z"/><path class="cls-1" d="M33.85,116.33c0-2.82,1.9-4.58,3.92-4.58,2.21,0,3.46,1.6,3.46,4.08a6,6,0,0,1-.07.84H35.3a2.89,2.89,0,0,0,2.88,3,3.77,3.77,0,0,0,2.18-.69l.53,1a5.16,5.16,0,0,1-2.88.9C35.7,120.88,33.85,119.2,33.85,116.33Zm6.1-.7c0-1.76-.81-2.71-2.17-2.71a2.67,2.67,0,0,0-2.49,2.71Z"/><path class="cls-1" d="M43.37,112h1.2l.13,1.58h0a3,3,0,0,1,2.47-1.81,1.93,1.93,0,0,1,.93.19l-.28,1.28a2,2,0,0,0-.84-.14c-.72,0-1.62.51-2.2,2v5.59H43.37Z"/><path class="cls-1" d="M49.57,112h1.2l.13,1.24H51a4.19,4.19,0,0,1,2.91-1.47c1.83,0,2.66,1.19,2.66,3.41v5.51H55.06v-5.32c0-1.63-.49-2.32-1.64-2.32A3.31,3.31,0,0,0,51,114.36v6.31H49.57Z"/><path class="cls-1" d="M63.06,108.94h1.49v4.91H70v-4.91H71.5v11.73H70v-5.54H64.55v5.54H63.06Z"/><path class="cls-1" d="M74,118.41c0-1.89,1.65-2.83,5.34-3.25,0-1.12-.36-2.19-1.79-2.19a4.75,4.75,0,0,0-2.61.93l-.57-1a6.54,6.54,0,0,1,3.42-1.14c2.11,0,3,1.43,3,3.57v5.35h-1.2l-.13-1h-.05a4.62,4.62,0,0,1-2.88,1.25A2.36,2.36,0,0,1,74,118.41Zm5.34.14v-2.43c-2.92.35-3.92,1.07-3.92,2.2s.67,1.39,1.54,1.39A3.5,3.5,0,0,0,79.38,118.55Z"/><path class="cls-1" d="M83.61,112h1.2l.13,1.24h0a4.21,4.21,0,0,1,2.92-1.47c1.82,0,2.65,1.19,2.65,3.41v5.51H89.1v-5.32c0-1.63-.5-2.32-1.65-2.32a3.31,3.31,0,0,0-2.39,1.33v6.31H83.61Z"/><path class="cls-1" d="M92.71,122.33a2.47,2.47,0,0,1,1.3-2v-.06a1.56,1.56,0,0,1-.8-1.42,2.12,2.12,0,0,1,1-1.62v-.07a3,3,0,0,1-1.13-2.33,3.09,3.09,0,0,1,3.26-3.11,3.44,3.44,0,0,1,1.22.23h3v1.12H98.78a2.5,2.5,0,0,1,.7,1.79,3,3,0,0,1-3.17,3,3.1,3.1,0,0,1-1.3-.31,1.29,1.29,0,0,0-.56,1c0,.56.36.95,1.52.95h1.7c2,0,3,.64,3,2.06,0,1.62-1.7,3-4.39,3C94.18,124.67,92.71,123.84,92.71,122.33Zm6.58-.45c0-.8-.63-1.07-1.78-1.07H96a5.19,5.19,0,0,1-1.12-.14,1.83,1.83,0,0,0-.9,1.47c0,.93.94,1.54,2.53,1.54S99.29,122.8,99.29,121.88Zm-1.14-7a1.86,1.86,0,1,0-3.7,0,1.86,1.86,0,1,0,3.7,0Z"/><path class="cls-1" d="M102.28,117.48V112h1.45v5.33c0,1.61.48,2.3,1.64,2.3.89,0,1.52-.43,2.35-1.47V112h1.46v8.69H108l-.11-1.36h0a3.75,3.75,0,0,1-2.88,1.57C103.09,120.88,102.28,119.69,102.28,117.48Z"/><path class="cls-1" d="M112.1,118.94v-11h1.46V119c0,.44.19.62.41.62a1.41,1.41,0,0,0,.31,0l.21,1.12a2.33,2.33,0,0,1-.85.13C112.55,120.88,112.1,120.17,112.1,118.94Z"/><path class="cls-1" d="M119.27,119.68l.72-1a3.94,3.94,0,0,0,2.58,1c1.15,0,1.71-.61,1.71-1.36s-1-1.28-2-1.65c-1.21-.45-2.59-1-2.59-2.51s1.11-2.47,3-2.47a4.5,4.5,0,0,1,2.71,1l-.7.94a3.27,3.27,0,0,0-2-.76c-1.08,0-1.58.57-1.58,1.24,0,.84.94,1.14,1.92,1.51,1.27.48,2.66,1,2.66,2.64,0,1.41-1.12,2.58-3.17,2.58A5.29,5.29,0,0,1,119.27,119.68Z"/><path class="cls-1" d="M126.85,124.24l.29-1.17a2.21,2.21,0,0,0,.66.14c1,0,1.61-.8,2-1.87l.19-.66-3.49-8.7H128l1.78,4.83c.25.75.56,1.65.83,2.43h.08c.24-.78.49-1.66.74-2.43L133,112h1.42l-3.28,9.41c-.61,1.71-1.5,3-3.23,3A2.77,2.77,0,0,1,126.85,124.24Z"/><path class="cls-1" d="M136.07,118.94v-11h1.46V119c0,.44.19.62.41.62a1.41,1.41,0,0,0,.31,0l.2,1.12a2.23,2.23,0,0,1-.84.13C136.52,120.88,136.07,120.17,136.07,118.94Z"/><path class="cls-1" d="M140.63,118.94v-11h1.46V119c0,.44.19.62.41.62a1.41,1.41,0,0,0,.31,0l.2,1.12a2.23,2.23,0,0,1-.84.13C141.08,120.88,140.63,120.17,140.63,118.94Z"/><path class="cls-1" d="M144.64,118.41c0-1.89,1.65-2.83,5.35-3.25,0-1.12-.37-2.19-1.79-2.19a4.75,4.75,0,0,0-2.61.93l-.58-1a6.58,6.58,0,0,1,3.43-1.14c2.11,0,3,1.43,3,3.57v5.35h-1.2l-.13-1h-.05a4.65,4.65,0,0,1-2.88,1.25A2.36,2.36,0,0,1,144.64,118.41Zm5.35.14v-2.43c-2.93.35-3.92,1.07-3.92,2.2s.67,1.39,1.54,1.39A3.54,3.54,0,0,0,150,118.55Z"/><path class="cls-1" d="M155.56,119.77h-.05l-.13.9h-1.17V107.93h1.46v3.49l0,1.56a4.43,4.43,0,0,1,2.72-1.23c2.26,0,3.48,1.76,3.48,4.42,0,3-1.78,4.71-3.78,4.71A3.83,3.83,0,0,1,155.56,119.77Zm4.74-3.57c0-1.92-.64-3.22-2.29-3.22a3.57,3.57,0,0,0-2.34,1.21v4.56a3.34,3.34,0,0,0,2.13.91C159.24,119.66,160.3,118.36,160.3,116.2Z"/><path class="cls-1" d="M164.1,118.94v-11h1.46V119c0,.44.19.62.41.62a1.41,1.41,0,0,0,.31,0l.21,1.12a2.33,2.33,0,0,1-.85.13C164.55,120.88,164.1,120.17,164.1,118.94Z"/><path class="cls-1" d="M168,116.33c0-2.82,1.91-4.58,3.93-4.58,2.2,0,3.45,1.6,3.45,4.08a6.21,6.21,0,0,1-.06.84h-5.86a2.88,2.88,0,0,0,2.88,3,3.77,3.77,0,0,0,2.18-.69l.53,1a5.16,5.16,0,0,1-2.88.9C169.86,120.88,168,119.2,168,116.33Zm6.1-.7c0-1.76-.8-2.71-2.16-2.71a2.67,2.67,0,0,0-2.49,2.71Z"/><path class="cls-1" d="M176.55,119.68l.72-1a3.92,3.92,0,0,0,2.58,1c1.15,0,1.71-.61,1.71-1.36s-1-1.28-2-1.65c-1.21-.45-2.59-1-2.59-2.51s1.1-2.47,3-2.47a4.5,4.5,0,0,1,2.71,1l-.71.94a3.22,3.22,0,0,0-2-.76c-1.09,0-1.58.57-1.58,1.24,0,.84.94,1.14,1.92,1.51,1.26.48,2.66,1,2.66,2.64,0,1.41-1.12,2.58-3.17,2.58A5.29,5.29,0,0,1,176.55,119.68Z"/><path class="cls-1" d="M188.6,115.69a15,15,0,0,1,2.35-8.12l.91.42a15.49,15.49,0,0,0,0,15.4l-.91.43A15,15,0,0,1,188.6,115.69Z"/><path class="cls-1" d="M193.94,119.45h2.61V110.7h-2.08v-.93a7.56,7.56,0,0,0,2.43-.83H198v10.51h2.36v1.22h-6.44Z"/><path class="cls-1" d="M202.82,119.45h2.61V110.7h-2.08v-.93a7.56,7.56,0,0,0,2.43-.83h1.12v10.51h2.35v1.22h-6.43Z"/><path class="cls-1" d="M211.14,122.84a2.4,2.4,0,0,0,1.6-2.17h-.18a1,1,0,0,1-1.07-1,1,1,0,0,1,1.11-1c.76,0,1.23.66,1.23,1.73a3.57,3.57,0,0,1-2.34,3.35Z"/><path class="cls-1" d="M216.15,119.45h2.61V110.7h-2.08v-.93a7.56,7.56,0,0,0,2.43-.83h1.12v10.51h2.35v1.22h-6.43Z"/><path class="cls-1" d="M230.09,110.18H224.4v-1.24h7.35v.88c-2.75,3.53-3.26,6.25-3.44,10.85h-1.52C227,116.22,227.8,113.38,230.09,110.18Z"/><path class="cls-1" d="M233.2,119.8c3.68-3.21,5.38-5.55,5.38-7.57a2.06,2.06,0,0,0-2.16-2.32,3.27,3.27,0,0,0-2.43,1.36l-.85-.83a4.49,4.49,0,0,1,3.46-1.73,3.22,3.22,0,0,1,3.41,3.47c0,2.34-1.84,4.73-4.6,7.34.61,0,1.33-.12,1.92-.12h3.25v1.27H233.2Z"/><path class="cls-1" d="M242.07,123.39a15.49,15.49,0,0,0,0-15.4l.89-.42a15.11,15.11,0,0,1,0,16.25Z"/><path class="cls-1" d="M251.3,118.41c0-1.89,1.65-2.83,5.35-3.25,0-1.12-.37-2.19-1.8-2.19a4.75,4.75,0,0,0-2.61.93l-.57-1a6.54,6.54,0,0,1,3.42-1.14c2.12,0,3,1.43,3,3.57v5.35h-1.2l-.13-1h0a4.67,4.67,0,0,1-2.89,1.25A2.36,2.36,0,0,1,251.3,118.41Zm5.35.14v-2.43c-2.93.35-3.93,1.07-3.93,2.2s.68,1.39,1.54,1.39A3.54,3.54,0,0,0,256.65,118.55Z"/><path class="cls-1" d="M260.87,112h1.2l.13,1.24h0a4.21,4.21,0,0,1,2.92-1.47c1.82,0,2.65,1.19,2.65,3.41v5.51h-1.45v-5.32c0-1.63-.5-2.32-1.65-2.32a3.31,3.31,0,0,0-2.39,1.33v6.31h-1.45Z"/><path class="cls-1" d="M270,116.33c0-2.82,1.78-4.58,3.76-4.58a3.54,3.54,0,0,1,2.45,1l-.08-1.51v-3.34h1.46v12.74h-1.19l-.14-1h0a3.86,3.86,0,0,1-2.65,1.24C271.43,120.88,270,119.23,270,116.33Zm6.13,2.13V113.9A3,3,0,0,0,274,113c-1.41,0-2.52,1.35-2.52,3.33s.87,3.35,2.4,3.35A3,3,0,0,0,276.15,118.46Z"/><path class="cls-1" d="M284.15,112h1.2l.13,1.26h0a3.85,3.85,0,0,1,2.71-1.49,2.29,2.29,0,0,1,2.4,1.67,4.11,4.11,0,0,1,2.87-1.67c1.79,0,2.64,1.19,2.64,3.41v5.51h-1.46v-5.32c0-1.63-.51-2.32-1.62-2.32a3.21,3.21,0,0,0-2.19,1.33v6.31h-1.46v-5.32c0-1.63-.51-2.32-1.61-2.32a3.2,3.2,0,0,0-2.2,1.33v6.31h-1.45Z"/><path class="cls-1" d="M298.31,116.33c0-2.9,1.9-4.58,4-4.58s4,1.68,4,4.58-1.9,4.55-4,4.55S298.31,119.21,298.31,116.33Zm6.56,0c0-2-1-3.36-2.53-3.36s-2.51,1.36-2.51,3.36,1,3.33,2.51,3.33S304.87,118.33,304.87,116.33Z"/><path class="cls-1" d="M307.68,119.68l.72-1a4,4,0,0,0,2.58,1c1.15,0,1.71-.61,1.71-1.36s-1-1.28-2-1.65c-1.22-.45-2.59-1-2.59-2.51s1.1-2.47,3-2.47a4.47,4.47,0,0,1,2.7,1l-.7.94a3.26,3.26,0,0,0-2-.76c-1.09,0-1.59.57-1.59,1.24,0,.84,1,1.14,1.92,1.51,1.27.48,2.66,1,2.66,2.64,0,1.41-1.12,2.58-3.17,2.58A5.32,5.32,0,0,1,307.68,119.68Z"/><path class="cls-1" d="M316.05,118v-4.82h-1.3v-1.1l1.37-.08.17-2.44h1.22V112h2.35v1.18h-2.35V118c0,1.07.33,1.68,1.34,1.68a3,3,0,0,0,1-.22l.29,1.09a5.42,5.42,0,0,1-1.6.32C316.68,120.88,316.05,119.72,316.05,118Z"/><path class="cls-1" d="M324.75,116.33c0-2.9,1.91-4.58,4-4.58s4,1.68,4,4.58-1.9,4.55-4,4.55S324.75,119.21,324.75,116.33Zm6.57,0c0-2-1-3.36-2.53-3.36s-2.51,1.36-2.51,3.36,1,3.33,2.51,3.33S331.32,118.33,331.32,116.33Z"/><path class="cls-1" d="M339,109.11a2.52,2.52,0,0,0-1-.22c-.84,0-1.24.59-1.24,1.71V112h1.84v1.18H336.8v7.51h-1.45v-7.51h-1.19v-1.1l1.19-.08v-1.4c0-1.76.8-2.86,2.53-2.86a3.71,3.71,0,0,1,1.45.29Z"/><path class="cls-1" d="M342.91,119.68l.72-1a4,4,0,0,0,2.58,1c1.15,0,1.71-.61,1.71-1.36s-1-1.28-2-1.65c-1.22-.45-2.59-1-2.59-2.51s1.1-2.47,3-2.47a4.47,4.47,0,0,1,2.7,1l-.7.94a3.26,3.26,0,0,0-2-.76c-1.09,0-1.59.57-1.59,1.24,0,.84.95,1.14,1.93,1.51,1.26.48,2.65,1,2.65,2.64,0,1.41-1.12,2.58-3.17,2.58A5.32,5.32,0,0,1,342.91,119.68Z"/><path class="cls-1" d="M350.5,124.24l.29-1.17a2.14,2.14,0,0,0,.65.14c1,0,1.62-.8,2-1.87l.19-.66-3.49-8.7h1.52l1.78,4.83c.26.75.56,1.65.83,2.43h.08c.24-.78.5-1.66.74-2.43l1.55-4.83H358l-3.28,9.41c-.61,1.71-1.51,3-3.24,3A2.71,2.71,0,0,1,350.5,124.24Z"/><path class="cls-1" d="M359.71,112h1.21l.12,1.26h0a3.84,3.84,0,0,1,2.71-1.49,2.29,2.29,0,0,1,2.4,1.67,4.09,4.09,0,0,1,2.86-1.67c1.8,0,2.64,1.19,2.64,3.41v5.51h-1.45v-5.32c0-1.63-.52-2.32-1.62-2.32a3.19,3.19,0,0,0-2.19,1.33v6.31H365v-5.32c0-1.63-.51-2.32-1.62-2.32a3.21,3.21,0,0,0-2.19,1.33v6.31h-1.46Z"/><path class="cls-1" d="M375.88,119.77h-.05l-.13.9h-1.17V107.93H376v3.49l-.05,1.56a4.41,4.41,0,0,1,2.72-1.23c2.26,0,3.47,1.76,3.47,4.42,0,3-1.77,4.71-3.77,4.71A3.81,3.81,0,0,1,375.88,119.77Zm4.73-3.57c0-1.92-.64-3.22-2.29-3.22a3.58,3.58,0,0,0-2.33,1.21v4.56a3.32,3.32,0,0,0,2.13.91C379.56,119.66,380.61,118.36,380.61,116.2Z"/><path class="cls-1" d="M383.76,116.33c0-2.9,1.91-4.58,4-4.58s4,1.68,4,4.58-1.91,4.55-4,4.55S383.76,119.21,383.76,116.33Zm6.56,0c0-2-1-3.36-2.52-3.36s-2.52,1.36-2.52,3.36,1,3.33,2.52,3.33S390.32,118.33,390.32,116.33Z"/><path class="cls-1" d="M394.11,118.94v-11h1.46V119c0,.44.19.62.42.62a1.33,1.33,0,0,0,.3,0l.21,1.12a2.29,2.29,0,0,1-.85.13C394.56,120.88,394.11,120.17,394.11,118.94Z"/><path class="cls-1" d="M397.7,119.68l.72-1a3.92,3.92,0,0,0,2.58,1c1.15,0,1.71-.61,1.71-1.36s-1-1.28-2-1.65c-1.21-.45-2.59-1-2.59-2.51s1.1-2.47,3-2.47a4.5,4.5,0,0,1,2.71,1l-.71.94a3.22,3.22,0,0,0-2-.76c-1.09,0-1.58.57-1.58,1.24,0,.84.94,1.14,1.92,1.51,1.26.48,2.66,1,2.66,2.64,0,1.41-1.12,2.58-3.17,2.58A5.27,5.27,0,0,1,397.7,119.68Z"/><path class="cls-1" d="M409.47,109.24a1,1,0,0,1,2,0,1,1,0,0,1-2,0Zm.28,2.74h1.45v8.69h-1.45Z"/><path class="cls-1" d="M414.15,112h1.2l.12,1.24h0a4.19,4.19,0,0,1,2.92-1.47c1.82,0,2.65,1.19,2.65,3.41v5.51h-1.45v-5.32c0-1.63-.5-2.32-1.65-2.32a3.31,3.31,0,0,0-2.39,1.33v6.31h-1.45Z"/><path class="cls-1" d="M427.63,108.94h1.49v5.89h.05l4.9-5.89h1.66l-3.66,4.46,4.24,7.27h-1.67l-3.5-6.12-2,2.4v3.72h-1.49Z"/><path class="cls-1" d="M437,119.13l.88-1a4.63,4.63,0,0,0,3.25,1.46c1.54,0,2.47-.77,2.47-1.92s-.85-1.59-2-2.08l-1.69-.74a3.32,3.32,0,0,1-2.39-3c0-1.81,1.57-3.12,3.7-3.12a4.82,4.82,0,0,1,3.46,1.46l-.79.94a3.8,3.8,0,0,0-2.67-1.1c-1.33,0-2.19.67-2.19,1.73s1,1.56,1.93,2l1.68.72c1.36.59,2.42,1.39,2.42,3.14s-1.54,3.33-4,3.33A5.64,5.64,0,0,1,437,119.13Z"/><path class="cls-1" d="M453,114.6l-3.2-5.66h1.63l1.6,3c.31.54.55,1,.93,1.71h.07c.32-.67.54-1.17.83-1.71l1.57-3H458l-3.2,5.74,3.42,6h-1.63l-1.73-3.17c-.3-.58-.62-1.19-1-1.89h-.07c-.34.7-.64,1.31-.94,1.89l-1.7,3.17h-1.55Z"/><path class="cls-1" d="M0,138.65H2.62V129.9H.54V129A7.55,7.55,0,0,0,3,128.13H4.09v10.52H6.44v1.22H0Z"/><path class="cls-1" d="M8.26,134c0-4.08,1.43-6.05,3.67-6.05s3.65,2,3.65,6.05-1.43,6.12-3.65,6.12S8.26,138,8.26,134Zm5.89,0c0-3.42-.89-4.87-2.22-4.87S9.69,130.54,9.69,134s.89,4.95,2.24,4.95S14.15,137.42,14.15,134Z"/><path class="cls-1" d="M17.14,134c0-4.08,1.43-6.05,3.67-6.05s3.65,2,3.65,6.05-1.43,6.12-3.65,6.12S17.14,138,17.14,134ZM23,134c0-3.42-.89-4.87-2.22-4.87s-2.24,1.45-2.24,4.87.89,4.95,2.24,4.95S23,137.42,23,134Z"/><path class="cls-1" d="M26.65,138.65h2.61V129.9H27.18V129a7.55,7.55,0,0,0,2.43-.84h1.12v10.52h2.35v1.22H26.65Z"/><path class="cls-1" d="M35.29,139a1.06,1.06,0,1,1,2.11,0,1.06,1.06,0,1,1-2.11,0Z"/><path class="cls-1" d="M43.75,128.13h1.49v11.74H43.75Z"/><path class="cls-1" d="M48.57,137.18v-4.82h-1.3v-1.1l1.36-.08.18-2.44H50v2.44h2.36v1.18H50v4.85c0,1.07.34,1.68,1.35,1.68a3.15,3.15,0,0,0,1-.22l.29,1.08a5.19,5.19,0,0,1-1.6.33C49.19,140.08,48.57,138.92,48.57,137.18Z"/><path class="cls-1" d="M57.38,137.61c0-1.89,1.65-2.83,5.35-3.25,0-1.12-.37-2.19-1.79-2.19a4.75,4.75,0,0,0-2.61.93l-.58-1A6.55,6.55,0,0,1,61.18,131c2.11,0,3,1.43,3,3.57v5.35H63l-.13-1h0a4.7,4.7,0,0,1-2.88,1.25A2.36,2.36,0,0,1,57.38,137.61Zm5.35.14v-2.43c-2.93.35-3.92,1.07-3.92,2.19s.67,1.4,1.53,1.4A3.54,3.54,0,0,0,62.73,137.75Z"/><path class="cls-1" d="M67,138.14v-11h1.46v11.1c0,.45.19.63.41.63a1.41,1.41,0,0,0,.31,0l.21,1.12a2.33,2.33,0,0,1-.85.13C67.4,140.08,67,139.37,67,138.14Z"/><path class="cls-1" d="M70.53,138.88l.72-1a4,4,0,0,0,2.58,1c1.15,0,1.71-.61,1.71-1.36s-1-1.28-2-1.65c-1.22-.45-2.59-1-2.59-2.51s1.1-2.47,3-2.47a4.52,4.52,0,0,1,2.71,1l-.71.94a3.27,3.27,0,0,0-2-.77c-1.09,0-1.58.58-1.58,1.25,0,.83.94,1.14,1.92,1.51,1.26.48,2.65,1,2.65,2.64,0,1.41-1.12,2.58-3.17,2.58A5.32,5.32,0,0,1,70.53,138.88Z"/><path class="cls-1" d="M78.34,135.53c0-2.9,1.91-4.58,4-4.58s4,1.68,4,4.58-1.91,4.55-4,4.55S78.34,138.41,78.34,135.53Zm6.56,0c0-2-1-3.36-2.52-3.36s-2.52,1.36-2.52,3.36,1,3.33,2.52,3.33S84.9,137.53,84.9,135.53Z"/><path class="cls-1" d="M92.28,127.13h1.46v3.49l0,1.79A4.07,4.07,0,0,1,96.57,131c1.82,0,2.66,1.19,2.66,3.41v5.51H97.77v-5.32c0-1.63-.5-2.32-1.65-2.32-.9,0-1.5.45-2.38,1.33v6.31H92.28Z"/><path class="cls-1" d="M101.45,137.61c0-1.89,1.64-2.83,5.34-3.25,0-1.12-.37-2.19-1.79-2.19a4.75,4.75,0,0,0-2.61.93l-.58-1a6.58,6.58,0,0,1,3.43-1.14c2.11,0,3,1.43,3,3.57v5.35h-1.2l-.13-1h0a4.7,4.7,0,0,1-2.88,1.25A2.35,2.35,0,0,1,101.45,137.61Zm5.34.14v-2.43c-2.93.35-3.92,1.07-3.92,2.19s.67,1.4,1.54,1.4A3.52,3.52,0,0,0,106.79,137.75Z"/><path class="cls-1" d="M110,138.88l.72-1a3.92,3.92,0,0,0,2.57,1c1.16,0,1.72-.61,1.72-1.36s-1-1.28-2-1.65c-1.21-.45-2.59-1-2.59-2.51s1.1-2.47,3-2.47a4.5,4.5,0,0,1,2.71,1l-.71.94a3.23,3.23,0,0,0-2-.77c-1.09,0-1.58.58-1.58,1.25,0,.83.94,1.14,1.92,1.51,1.26.48,2.66,1,2.66,2.64,0,1.41-1.12,2.58-3.17,2.58A5.27,5.27,0,0,1,110,138.88Z"/><path class="cls-1" d="M122.34,137.18v-4.82h-1.29v-1.1l1.36-.08.17-2.44h1.22v2.44h2.35v1.18H123.8v4.85c0,1.07.33,1.68,1.34,1.68a3.15,3.15,0,0,0,1-.22l.28,1.08a5.13,5.13,0,0,1-1.6.33C123,140.08,122.34,138.92,122.34,137.18Z"/><path class="cls-1" d="M128.12,127.13h1.45v3.49l0,1.79a4.07,4.07,0,0,1,2.88-1.46c1.82,0,2.65,1.19,2.65,3.41v5.51h-1.45v-5.32c0-1.63-.5-2.32-1.65-2.32-.9,0-1.5.45-2.39,1.33v6.31h-1.45Z"/><path class="cls-1" d="M137.17,135.53c0-2.82,1.91-4.58,3.92-4.58,2.21,0,3.46,1.6,3.46,4.08a6.21,6.21,0,0,1-.06.84h-5.86a2.88,2.88,0,0,0,2.88,3,3.77,3.77,0,0,0,2.18-.69l.53,1a5.24,5.24,0,0,1-2.89.9C139,140.08,137.17,138.39,137.17,135.53Zm6.1-.7c0-1.77-.8-2.71-2.16-2.71s-2.32,1-2.5,2.71Z"/><path class="cls-1" d="M154.18,128.31a2.52,2.52,0,0,0-1-.22c-.84,0-1.24.59-1.24,1.71v1.38h1.85v1.18H152v7.51h-1.45v-7.51h-1.19v-1.1l1.19-.08v-1.4c0-1.76.8-2.86,2.53-2.86a3.67,3.67,0,0,1,1.45.29Z"/><path class="cls-1" d="M155.37,136.68v-5.5h1.45v5.33c0,1.61.48,2.3,1.64,2.3.89,0,1.52-.43,2.35-1.47v-6.16h1.45v8.69h-1.21l-.11-1.36h-.05a3.75,3.75,0,0,1-2.88,1.57C156.18,140.08,155.37,138.89,155.37,136.68Z"/><path class="cls-1" d="M165.19,138.14v-11h1.46v11.1c0,.45.19.63.41.63a1.41,1.41,0,0,0,.31,0l.2,1.12a2.23,2.23,0,0,1-.84.13C165.64,140.08,165.19,139.37,165.19,138.14Z"/><path class="cls-1" d="M169.75,138.14v-11h1.46v11.1c0,.45.19.63.41.63a1.41,1.41,0,0,0,.31,0l.2,1.12a2.23,2.23,0,0,1-.84.13C170.2,140.08,169.75,139.37,169.75,138.14Z"/><path class="cls-1" d="M176.92,138.88l.72-1a3.92,3.92,0,0,0,2.57,1c1.16,0,1.72-.61,1.72-1.36s-1-1.28-2-1.65c-1.22-.45-2.59-1-2.59-2.51s1.1-2.47,3-2.47a4.52,4.52,0,0,1,2.71,1l-.71.94a3.25,3.25,0,0,0-2-.77c-1.09,0-1.58.58-1.58,1.25,0,.83.94,1.14,1.92,1.51,1.26.48,2.65,1,2.65,2.64,0,1.41-1.12,2.58-3.16,2.58A5.27,5.27,0,0,1,176.92,138.88Z"/><path class="cls-1" d="M185.27,136.68v-5.5h1.46v5.33c0,1.61.48,2.3,1.63,2.3.89,0,1.52-.43,2.35-1.47v-6.16h1.46v8.69H191l-.11-1.36h-.05a3.75,3.75,0,0,1-2.88,1.57C186.08,140.08,185.27,138.89,185.27,136.68Z"/><path class="cls-1" d="M195.09,131.18h1.2l.13,1h.05a4.63,4.63,0,0,1,2.77-1.22c2.24,0,3.46,1.76,3.46,4.44,0,3-1.78,4.69-3.78,4.69a3.9,3.9,0,0,1-2.4-1l0,1.52v2.94h-1.46Zm6.09,4.22c0-1.92-.64-3.22-2.29-3.22a3.64,3.64,0,0,0-2.34,1.2V138a3.36,3.36,0,0,0,2.13.91C200.12,138.86,201.18,137.56,201.18,135.4Z"/><path class="cls-1" d="M205,131.18h1.2l.13,1h0a4.63,4.63,0,0,1,2.77-1.22c2.24,0,3.46,1.76,3.46,4.44,0,3-1.78,4.69-3.78,4.69a3.9,3.9,0,0,1-2.4-1l0,1.52v2.94H205Zm6.09,4.22c0-1.92-.64-3.22-2.29-3.22a3.64,3.64,0,0,0-2.34,1.2V138a3.36,3.36,0,0,0,2.13.91C210,138.86,211.1,137.56,211.1,135.4Z"/><path class="cls-1" d="M214.28,135.53c0-2.9,1.9-4.58,4-4.58s4,1.68,4,4.58-1.9,4.55-4,4.55S214.28,138.41,214.28,135.53Zm6.56,0c0-2-1-3.36-2.53-3.36s-2.51,1.36-2.51,3.36,1,3.33,2.51,3.33S220.84,137.53,220.84,135.53Z"/><path class="cls-1" d="M224.63,131.18h1.2l.13,1.58h0a3,3,0,0,1,2.47-1.81,1.91,1.91,0,0,1,.93.19l-.27,1.28a2.11,2.11,0,0,0-.85-.14c-.72,0-1.62.51-2.2,2v5.59h-1.45Z"/><path class="cls-1" d="M231.09,137.18v-4.82H229.8v-1.1l1.36-.08.17-2.44h1.22v2.44h2.35v1.18h-2.35v4.85c0,1.07.33,1.68,1.34,1.68a3.15,3.15,0,0,0,1-.22l.28,1.08a5.13,5.13,0,0,1-1.6.33C231.72,140.08,231.09,138.92,231.09,137.18Z"/><path class="cls-1" d="M244.36,128.31a2.52,2.52,0,0,0-1-.22c-.83,0-1.23.59-1.23,1.71v1.38H244v1.18h-1.84v7.51h-1.46v-7.51h-1.18v-1.1l1.18-.08v-1.4c0-1.76.8-2.86,2.53-2.86a3.76,3.76,0,0,1,1.46.29Z"/><path class="cls-1" d="M244.82,135.53c0-2.9,1.9-4.58,4-4.58s4,1.68,4,4.58-1.91,4.55-4,4.55S244.82,138.41,244.82,135.53Zm6.56,0c0-2-1-3.36-2.53-3.36s-2.51,1.36-2.51,3.36,1,3.33,2.51,3.33S251.38,137.53,251.38,135.53Z"/><path class="cls-1" d="M255.17,131.18h1.2l.13,1.58h.05A3,3,0,0,1,259,131a1.88,1.88,0,0,1,.93.19l-.27,1.28a2.11,2.11,0,0,0-.85-.14c-.72,0-1.61.51-2.19,2v5.59h-1.46Z"/><path class="cls-1" d="M264.42,134c0-3.76,2.06-6.05,5-6.05s5,2.29,5,6.05-2.06,6.12-5,6.12S264.42,137.72,264.42,134Zm8.5,0c0-2.94-1.39-4.75-3.49-4.75s-3.49,1.81-3.49,4.75,1.38,4.82,3.49,4.82S272.92,136.89,272.92,134Z"/><path class="cls-1" d="M276.84,138.14v-11h1.45v11.1c0,.45.19.63.42.63a1.33,1.33,0,0,0,.3,0l.21,1.12a2.29,2.29,0,0,1-.85.13C277.28,140.08,276.84,139.37,276.84,138.14Z"/><path class="cls-1" d="M280.77,135.53c0-2.82,1.78-4.58,3.76-4.58a3.54,3.54,0,0,1,2.45,1l-.08-1.51v-3.34h1.46v12.74h-1.19l-.14-1h0a3.9,3.9,0,0,1-2.64,1.24C282.18,140.08,280.77,138.43,280.77,135.53Zm6.13,2.13V133.1a3,3,0,0,0-2.11-.92c-1.41,0-2.51,1.35-2.51,3.33s.86,3.35,2.4,3.35A3,3,0,0,0,286.9,137.66Z"/><path class="cls-1" d="M295,128.13h1.49v4.92H302v-4.92h1.47v11.74H302v-5.54h-5.47v5.54H295Z"/><path class="cls-1" d="M306,137.61c0-1.89,1.65-2.83,5.35-3.25,0-1.12-.37-2.19-1.79-2.19a4.75,4.75,0,0,0-2.61.93l-.58-1A6.55,6.55,0,0,1,309.8,131c2.11,0,3,1.43,3,3.57v5.35h-1.2l-.13-1h-.05a4.7,4.7,0,0,1-2.88,1.25A2.36,2.36,0,0,1,306,137.61Zm5.35.14v-2.43c-2.93.35-3.92,1.07-3.92,2.19s.67,1.4,1.53,1.4A3.54,3.54,0,0,0,311.35,137.75Z"/><path class="cls-1" d="M315.57,131.18h1.2l.13,1.24H317a4.19,4.19,0,0,1,2.91-1.47c1.83,0,2.66,1.19,2.66,3.41v5.51h-1.46v-5.32c0-1.63-.49-2.32-1.65-2.32a3.31,3.31,0,0,0-2.38,1.33v6.31h-1.46Z"/><path class="cls-1" d="M324.67,141.53a2.47,2.47,0,0,1,1.3-2v-.06a1.58,1.58,0,0,1-.8-1.43,2.11,2.11,0,0,1,1-1.61v-.07a3,3,0,0,1-1.14-2.33,3.1,3.1,0,0,1,3.27-3.11,3.34,3.34,0,0,1,1.21.23h3v1.12h-1.78a2.47,2.47,0,0,1,.71,1.79,3,3,0,0,1-3.17,3,3,3,0,0,1-1.3-.3,1.29,1.29,0,0,0-.56,1c0,.56.35.94,1.52.94h1.7c2,0,3,.64,3,2.07,0,1.62-1.7,3-4.38,3C326.15,143.87,324.67,143,324.67,141.53Zm6.58-.45c0-.8-.62-1.07-1.77-1.07H328a5.27,5.27,0,0,1-1.12-.14,1.84,1.84,0,0,0-.89,1.47c0,.93.94,1.54,2.52,1.54S331.25,142,331.25,141.08Zm-1.13-7a1.86,1.86,0,1,0-3.7,0,1.86,1.86,0,1,0,3.7,0Z"/><path class="cls-1" d="M334.24,136.68v-5.5h1.46v5.33c0,1.61.48,2.3,1.63,2.3.9,0,1.52-.43,2.35-1.47v-6.16h1.46v8.69h-1.22l-.11-1.36h-.05a3.73,3.73,0,0,1-2.88,1.57C335.06,140.08,334.24,138.89,334.24,136.68Z"/><path class="cls-1" d="M344.07,138.14v-11h1.45v11.1c0,.45.19.63.42.63a1.33,1.33,0,0,0,.3,0l.21,1.12a2.29,2.29,0,0,1-.85.13C344.51,140.08,344.07,139.37,344.07,138.14Z"/><path class="cls-1" d="M351.17,131.18h1.49l1.3,5c.17.83.35,1.62.51,2.43h.08c.19-.81.37-1.61.59-2.43l1.34-5h1.43l1.36,5c.21.83.4,1.62.61,2.43h.06c.19-.81.35-1.6.55-2.43l1.28-5h1.37l-2.33,8.69H359l-1.26-4.69c-.22-.82-.38-1.62-.59-2.5h-.08c-.19.88-.37,1.7-.59,2.53l-1.22,4.66h-1.71Z"/><path class="cls-1" d="M364.77,128.44a1,1,0,0,1,2,0,1,1,0,0,1-2,0Zm.27,2.74h1.46v8.69H365Z"/><path class="cls-1" d="M369.7,137.18v-4.82h-1.3v-1.1l1.36-.08.18-2.44h1.22v2.44h2.35v1.18h-2.35v4.85c0,1.07.33,1.68,1.34,1.68a3.15,3.15,0,0,0,1-.22l.29,1.08a5.19,5.19,0,0,1-1.6.33C370.32,140.08,369.7,138.92,369.7,137.18Z"/><path class="cls-1" d="M375.47,127.13h1.46v3.49l-.05,1.79a4.09,4.09,0,0,1,2.88-1.46c1.83,0,2.66,1.19,2.66,3.41v5.51H381v-5.32c0-1.63-.49-2.32-1.64-2.32a3.31,3.31,0,0,0-2.39,1.33v6.31h-1.46Z"/><path class="cls-1" d="M388.85,135v-6.89h1.49v6.94c0,2.83,1.2,3.71,2.72,3.71s2.8-.88,2.8-3.71v-6.94h1.43V135c0,3.77-1.83,5.06-4.23,5.06S388.85,138.79,388.85,135Z"/><path class="cls-1" d="M400.31,131.18h1.2l.12,1.24h.05A4.19,4.19,0,0,1,404.6,131c1.82,0,2.65,1.19,2.65,3.41v5.51H405.8v-5.32c0-1.63-.5-2.32-1.65-2.32a3.31,3.31,0,0,0-2.39,1.33v6.31h-1.45Z"/><path class="cls-1" d="M409.81,128.44a1,1,0,0,1,2,0,1,1,0,0,1-2,0Zm.27,2.74h1.46v8.69h-1.46Z"/><path class="cls-1" d="M413.83,135.53A4.23,4.23,0,0,1,418,131a3.67,3.67,0,0,1,2.54,1l-.75,1a2.53,2.53,0,0,0-1.74-.78c-1.57,0-2.72,1.36-2.72,3.36s1.08,3.33,2.69,3.33a3,3,0,0,0,2-.87l.63,1a4.17,4.17,0,0,1-2.8,1.11C415.6,140.08,413.83,138.41,413.83,135.53Z"/><path class="cls-1" d="M421.59,135.53c0-2.9,1.9-4.58,4-4.58s4,1.68,4,4.58-1.9,4.55-4,4.55S421.59,138.41,421.59,135.53Zm6.56,0c0-2-1-3.36-2.53-3.36s-2.51,1.36-2.51,3.36,1,3.33,2.51,3.33S428.15,137.53,428.15,135.53Z"/><path class="cls-1" d="M431.31,135.53c0-2.82,1.78-4.58,3.77-4.58a3.51,3.51,0,0,1,2.44,1l-.08-1.51v-3.34h1.46v12.74h-1.18l-.15-1h0a3.9,3.9,0,0,1-2.64,1.24C432.72,140.08,431.31,138.43,431.31,135.53Zm6.13,2.13V133.1a3,3,0,0,0-2.11-.92c-1.41,0-2.51,1.35-2.51,3.33s.86,3.35,2.4,3.35A3,3,0,0,0,437.44,137.66Z"/><path class="cls-1" d="M441.2,135.53c0-2.82,1.91-4.58,3.92-4.58,2.21,0,3.46,1.6,3.46,4.08a6.21,6.21,0,0,1-.06.84h-5.86a2.88,2.88,0,0,0,2.88,3,3.77,3.77,0,0,0,2.18-.69l.52,1a5.18,5.18,0,0,1-2.88.9C443.06,140.08,441.2,138.39,441.2,135.53Zm6.1-.7c0-1.77-.8-2.71-2.16-2.71s-2.32,1-2.5,2.71Z"/><path class="cls-1" d="M.2,147.33H1.69v4.92H7.16v-4.92H8.63v11.74H7.16v-5.54H1.69v5.54H.2Z"/><path class="cls-1" d="M11.17,156.81c0-1.89,1.65-2.83,5.35-3.25,0-1.12-.37-2.19-1.79-2.19a4.75,4.75,0,0,0-2.61.93l-.58-1A6.58,6.58,0,0,1,15,150.15c2.11,0,3,1.43,3,3.57v5.35h-1.2l-.13-1h0a4.7,4.7,0,0,1-2.88,1.25A2.36,2.36,0,0,1,11.17,156.81Zm5.35.14v-2.43c-2.93.35-3.92,1.07-3.92,2.19s.67,1.4,1.54,1.4A3.54,3.54,0,0,0,16.52,157Z"/><path class="cls-1" d="M20.74,150.38h1.2l.13,1.24h.05A4.19,4.19,0,0,1,25,150.15c1.83,0,2.66,1.19,2.66,3.41v5.51H26.23v-5.32c0-1.63-.49-2.32-1.65-2.32a3.31,3.31,0,0,0-2.38,1.33v6.31H20.74Z"/><path class="cls-1" d="M29.85,160.73a2.48,2.48,0,0,1,1.29-2v-.06a1.58,1.58,0,0,1-.8-1.43,2.11,2.11,0,0,1,1-1.61v-.07a3,3,0,0,1-1.14-2.33,3.1,3.1,0,0,1,3.27-3.11,3.44,3.44,0,0,1,1.22.23h3v1.12H35.91a2.47,2.47,0,0,1,.71,1.79,3,3,0,0,1-3.17,3,3.09,3.09,0,0,1-1.3-.3,1.29,1.29,0,0,0-.56,1c0,.56.35.95,1.52.95h1.7c2,0,3,.63,3,2.06,0,1.62-1.69,3-4.38,3C31.32,163.07,29.85,162.24,29.85,160.73Zm6.58-.45c0-.8-.63-1.07-1.78-1.07H33.14a5.27,5.27,0,0,1-1.12-.14,1.84,1.84,0,0,0-.89,1.47c0,.93.94,1.54,2.53,1.54S36.43,161.2,36.43,160.28Zm-1.14-7a1.86,1.86,0,1,0-3.7,0,1.86,1.86,0,1,0,3.7,0Z"/><path class="cls-1" d="M39.42,155.88v-5.5h1.45v5.33c0,1.61.48,2.3,1.63,2.3.9,0,1.52-.43,2.36-1.47v-6.16h1.45v8.69H45.1L45,157.71h-.05a3.75,3.75,0,0,1-2.88,1.57C40.23,159.28,39.42,158.09,39.42,155.88Z"/><path class="cls-1" d="M49.24,157.34v-11H50.7v11.1c0,.45.19.63.41.63a1.41,1.41,0,0,0,.31,0l.2,1.12a2.23,2.23,0,0,1-.84.13C49.69,159.28,49.24,158.57,49.24,157.34Z"/><path class="cls-1" d="M56.84,153.21c0-3.79,2.22-6.1,5.2-6.1a4.31,4.31,0,0,1,3.22,1.46l-.8,1a3.19,3.19,0,0,0-2.4-1.12c-2.23,0-3.7,1.82-3.7,4.75S59.77,158,62,158a3.58,3.58,0,0,0,2.72-1.31l.82.92a4.52,4.52,0,0,1-3.6,1.69C59,159.28,56.84,157,56.84,153.21Z"/><path class="cls-1" d="M66.93,154.73c0-2.9,1.91-4.58,4-4.58s4,1.68,4,4.58-1.9,4.55-4,4.55S66.93,157.61,66.93,154.73Zm6.57,0c0-2-1-3.36-2.53-3.36s-2.51,1.36-2.51,3.36,1,3.33,2.51,3.33S73.5,156.73,73.5,154.73Z"/><path class="cls-1" d="M77.29,150.38h1.2l.13,1.24h0a4.21,4.21,0,0,1,2.92-1.47c1.82,0,2.65,1.19,2.65,3.41v5.51H82.78v-5.32c0-1.63-.5-2.32-1.65-2.32a3.31,3.31,0,0,0-2.39,1.33v6.31H77.29Z"/><path class="cls-1" d="M84.89,162.73l.28-1.12a2.54,2.54,0,0,0,.82.16c.88,0,1.09-.65,1.09-1.71v-9.68h1.46v9.68c0,1.78-.66,2.9-2.37,2.9A3.76,3.76,0,0,1,84.89,162.73Zm1.92-15.09a1,1,0,0,1,2,0,1,1,0,0,1-2,0Z"/><path class="cls-1" d="M90.81,154.73c0-2.9,1.9-4.58,4-4.58s4,1.68,4,4.58-1.9,4.55-4,4.55S90.81,157.61,90.81,154.73Zm6.56,0c0-2-1-3.36-2.53-3.36s-2.51,1.36-2.51,3.36,1,3.33,2.51,3.33S97.37,156.73,97.37,154.73Z"/><path class="cls-1" d="M100.89,147.64a1,1,0,0,1,2,0,1,1,0,0,1-2,0Zm.27,2.74h1.45v8.69h-1.45Z"/><path class="cls-1" d="M105.56,150.38h1.2l.13,1.24h0a4.21,4.21,0,0,1,2.92-1.47c1.82,0,2.65,1.19,2.65,3.41v5.51h-1.45v-5.32c0-1.63-.5-2.32-1.65-2.32a3.31,3.31,0,0,0-2.39,1.33v6.31h-1.45Z"/><path class="cls-1" d="M115.06,147.64a1,1,0,0,1,2,0,1,1,0,0,1-2,0Zm.27,2.74h1.46v8.69h-1.46Z"/><path class="cls-1" d="M119.73,150.38h1.2l.13,1.24h0a4.19,4.19,0,0,1,2.91-1.47c1.83,0,2.66,1.19,2.66,3.41v5.51h-1.46v-5.32c0-1.63-.49-2.32-1.64-2.32a3.31,3.31,0,0,0-2.39,1.33v6.31h-1.46Z"/><path class="cls-1" d="M128.84,160.73a2.48,2.48,0,0,1,1.29-2v-.06a1.58,1.58,0,0,1-.8-1.43,2.11,2.11,0,0,1,1-1.61v-.07a3,3,0,0,1-1.14-2.33,3.1,3.1,0,0,1,3.27-3.11,3.44,3.44,0,0,1,1.22.23h3v1.12H134.9a2.47,2.47,0,0,1,.71,1.79,3,3,0,0,1-3.17,3,3.09,3.09,0,0,1-1.3-.3,1.29,1.29,0,0,0-.56,1c0,.56.35.95,1.52.95h1.7c2,0,3,.63,3,2.06,0,1.62-1.69,3-4.38,3C130.31,163.07,128.84,162.24,128.84,160.73Zm6.58-.45c0-.8-.63-1.07-1.78-1.07h-1.51a5.27,5.27,0,0,1-1.12-.14,1.84,1.84,0,0,0-.89,1.47c0,.93.94,1.54,2.53,1.54S135.42,161.2,135.42,160.28Zm-1.14-7a1.86,1.86,0,1,0-3.7,0,1.86,1.86,0,1,0,3.7,0Z"/><path class="cls-1" d="M141.19,157.42l1.06-.75a2.21,2.21,0,0,0,2,1.31c1.26,0,1.89-.72,1.89-2.5v-8.15h1.47v8.3c0,2-.93,3.65-3.22,3.65A3.47,3.47,0,0,1,141.19,157.42Z"/><path class="cls-1" d="M150.13,156.81c0-1.89,1.65-2.83,5.35-3.25,0-1.12-.37-2.19-1.79-2.19a4.75,4.75,0,0,0-2.61.93l-.58-1a6.55,6.55,0,0,1,3.43-1.14c2.11,0,3,1.43,3,3.57v5.35h-1.2l-.13-1h-.05a4.7,4.7,0,0,1-2.88,1.25A2.36,2.36,0,0,1,150.13,156.81Zm5.35.14v-2.43c-2.93.35-3.92,1.07-3.92,2.19s.67,1.4,1.53,1.4A3.54,3.54,0,0,0,155.48,157Z"/><path class="cls-1" d="M159.7,150.38h1.2l.13,1.26h.05a3.82,3.82,0,0,1,2.7-1.49,2.29,2.29,0,0,1,2.4,1.67,4.11,4.11,0,0,1,2.87-1.67c1.79,0,2.64,1.19,2.64,3.41v5.51h-1.46v-5.32c0-1.63-.51-2.32-1.61-2.32a3.2,3.2,0,0,0-2.2,1.33v6.31H165v-5.32c0-1.63-.51-2.32-1.62-2.32a3.19,3.19,0,0,0-2.19,1.33v6.31H159.7Z"/><path class="cls-1" d="M173.86,154.73c0-2.9,1.91-4.58,4-4.58s4,1.68,4,4.58-1.91,4.55-4,4.55S173.86,157.61,173.86,154.73Zm6.56,0c0-2-1-3.36-2.53-3.36s-2.51,1.36-2.51,3.36,1,3.33,2.51,3.33S180.42,156.73,180.42,154.73Z"/><path class="cls-1" d="M183.24,158.08l.72-1a3.92,3.92,0,0,0,2.57,1c1.16,0,1.72-.61,1.72-1.36s-1-1.28-2-1.65c-1.22-.45-2.59-1-2.59-2.51s1.1-2.47,3-2.47a4.52,4.52,0,0,1,2.71,1l-.71.94a3.25,3.25,0,0,0-2-.77c-1.09,0-1.58.58-1.58,1.25,0,.83.94,1.14,1.92,1.51,1.26.48,2.66,1,2.66,2.64,0,1.41-1.12,2.58-3.17,2.58A5.27,5.27,0,0,1,183.24,158.08Z"/><path class="cls-1" d="M194.74,156.81c0-1.89,1.65-2.83,5.35-3.25,0-1.12-.37-2.19-1.8-2.19a4.78,4.78,0,0,0-2.61.93l-.57-1a6.54,6.54,0,0,1,3.42-1.14c2.12,0,3,1.43,3,3.57v5.35h-1.2l-.13-1h0a4.73,4.73,0,0,1-2.88,1.25A2.36,2.36,0,0,1,194.74,156.81Zm5.35.14v-2.43c-2.93.35-3.92,1.07-3.92,2.19s.67,1.4,1.53,1.4A3.54,3.54,0,0,0,200.09,157Z"/><path class="cls-1" d="M204.31,150.38h1.2l.13,1.24h.05a4.17,4.17,0,0,1,2.91-1.47c1.82,0,2.66,1.19,2.66,3.41v5.51H209.8v-5.32c0-1.63-.5-2.32-1.65-2.32-.9,0-1.5.45-2.38,1.33v6.31h-1.46Z"/><path class="cls-1" d="M213.46,154.73c0-2.82,1.78-4.58,3.76-4.58a3.54,3.54,0,0,1,2.45,1l-.08-1.51v-3.34h1.46v12.74h-1.19l-.14-1h0a3.9,3.9,0,0,1-2.65,1.24C214.87,159.28,213.46,157.63,213.46,154.73Zm6.13,2.13V152.3a3,3,0,0,0-2.11-.92c-1.41,0-2.52,1.35-2.52,3.33s.87,3.35,2.41,3.35A3,3,0,0,0,219.59,156.86Z"/><path class="cls-1" d="M227,153.16c0-3.76,2.07-6,5-6s5,2.29,5,6-2.06,6.12-5,6.12S227,156.92,227,153.16Zm8.5,0c0-2.94-1.39-4.75-3.49-4.75s-3.49,1.81-3.49,4.75,1.38,4.82,3.49,4.82S235.54,156.09,235.54,153.16Z"/><path class="cls-1" d="M239.46,150.38h1.2l.13,1h.05a4.63,4.63,0,0,1,2.77-1.22c2.24,0,3.45,1.76,3.45,4.44,0,3-1.77,4.69-3.77,4.69a4,4,0,0,1-2.41-1l0,1.52v2.94h-1.46Zm6.08,4.22c0-1.92-.64-3.22-2.29-3.22a3.62,3.62,0,0,0-2.33,1.2v4.57a3.36,3.36,0,0,0,2.13.91C244.49,158.06,245.54,156.76,245.54,154.6Z"/><path class="cls-1" d="M248.72,154.73c0-2.82,1.91-4.58,3.93-4.58,2.2,0,3.45,1.6,3.45,4.08a6.21,6.21,0,0,1-.06.84h-5.86a2.88,2.88,0,0,0,2.88,3,3.77,3.77,0,0,0,2.18-.69l.53,1a5.16,5.16,0,0,1-2.88.9C250.58,159.28,248.72,157.59,248.72,154.73Zm6.1-.7c0-1.77-.8-2.71-2.16-2.71s-2.32,1-2.5,2.71Z"/><path class="cls-1" d="M258.24,150.38h1.2l.13,1.24h.05a4.19,4.19,0,0,1,2.91-1.47c1.83,0,2.66,1.19,2.66,3.41v5.51h-1.46v-5.32c0-1.63-.49-2.32-1.65-2.32a3.31,3.31,0,0,0-2.38,1.33v6.31h-1.46Z"/><path class="cls-1" d="M268.28,156.38v-4.82H267v-1.1l1.36-.08.18-2.44h1.21v2.44h2.35v1.18h-2.35v4.85c0,1.07.34,1.68,1.35,1.68a3.15,3.15,0,0,0,1-.22l.29,1.09a5.48,5.48,0,0,1-1.6.32C268.9,159.28,268.28,158.12,268.28,156.38Z"/><path class="cls-1" d="M273.17,162.64l.29-1.17a2.21,2.21,0,0,0,.66.14c1,0,1.61-.8,2-1.87l.2-.66-3.49-8.7h1.52l1.77,4.83c.26.75.56,1.65.84,2.43H277c.24-.78.49-1.66.73-2.43l1.56-4.83h1.42l-3.28,9.41c-.61,1.71-1.51,3-3.23,3A2.73,2.73,0,0,1,273.17,162.64Z"/><path class="cls-1" d="M282.39,150.38h1.2l.13,1h0a4.68,4.68,0,0,1,2.77-1.22c2.24,0,3.46,1.76,3.46,4.44,0,3-1.78,4.69-3.78,4.69a4,4,0,0,1-2.4-1l0,1.52v2.94h-1.45Zm6.08,4.22c0-1.92-.64-3.22-2.29-3.22a3.67,3.67,0,0,0-2.34,1.2v4.57a3.4,3.4,0,0,0,2.13.91C287.41,158.06,288.47,156.76,288.47,154.6Z"/><path class="cls-1" d="M291.65,154.73c0-2.82,1.91-4.58,3.92-4.58,2.21,0,3.46,1.6,3.46,4.08a6.21,6.21,0,0,1-.06.84h-5.86a2.88,2.88,0,0,0,2.88,3,3.77,3.77,0,0,0,2.18-.69l.52,1a5.11,5.11,0,0,1-2.88.9C293.51,159.28,291.65,157.59,291.65,154.73Zm6.1-.7c0-1.77-.8-2.71-2.16-2.71s-2.32,1-2.5,2.71Z"/><path class="cls-1" d="M308.66,147.51a2.52,2.52,0,0,0-1-.22c-.83,0-1.23.59-1.23,1.71v1.38h1.84v1.18h-1.84v7.51H305v-7.51h-1.19v-1.1l1.19-.08V149c0-1.76.8-2.86,2.52-2.86a3.76,3.76,0,0,1,1.46.29Z"/><path class="cls-1" d="M309.12,154.73c0-2.82,1.91-4.58,3.92-4.58,2.21,0,3.46,1.6,3.46,4.08a6.21,6.21,0,0,1-.06.84h-5.86a2.88,2.88,0,0,0,2.88,3,3.77,3.77,0,0,0,2.18-.69l.53,1a5.16,5.16,0,0,1-2.88.9C311,159.28,309.12,157.59,309.12,154.73Zm6.1-.7c0-1.77-.8-2.71-2.16-2.71s-2.32,1-2.5,2.71Z"/><path class="cls-1" d="M317.84,156.81c0-1.89,1.65-2.83,5.35-3.25,0-1.12-.37-2.19-1.79-2.19a4.75,4.75,0,0,0-2.61.93l-.58-1a6.55,6.55,0,0,1,3.43-1.14c2.11,0,3,1.43,3,3.57v5.35h-1.2l-.13-1h-.05a4.7,4.7,0,0,1-2.88,1.25A2.36,2.36,0,0,1,317.84,156.81Zm5.35.14v-2.43c-2.93.35-3.92,1.07-3.92,2.19s.67,1.4,1.53,1.4A3.54,3.54,0,0,0,323.19,157Z"/><path class="cls-1" d="M327.43,156.38v-4.82h-1.3v-1.1l1.36-.08.18-2.44h1.21v2.44h2.36v1.18h-2.36v4.85c0,1.07.34,1.68,1.35,1.68a3.15,3.15,0,0,0,1-.22l.29,1.09a5.48,5.48,0,0,1-1.6.32C328.05,159.28,327.43,158.12,327.43,156.38Z"/><path class="cls-1" d="M333.09,155.88v-5.5h1.46v5.33c0,1.61.48,2.3,1.63,2.3.9,0,1.52-.43,2.35-1.47v-6.16H340v8.69h-1.22l-.11-1.36h-.05a3.73,3.73,0,0,1-2.88,1.57C333.91,159.28,333.09,158.09,333.09,155.88Z"/><path class="cls-1" d="M342.92,150.38h1.2l.12,1.58h.05a3,3,0,0,1,2.47-1.81,1.93,1.93,0,0,1,.93.19l-.28,1.28a2.05,2.05,0,0,0-.85-.14c-.72,0-1.61.51-2.19,2v5.59h-1.45Z"/><path class="cls-1" d="M348.29,154.73c0-2.82,1.91-4.58,3.92-4.58,2.21,0,3.46,1.6,3.46,4.08a6.21,6.21,0,0,1-.06.84h-5.86a2.88,2.88,0,0,0,2.88,3,3.77,3.77,0,0,0,2.18-.69l.52,1a5.11,5.11,0,0,1-2.88.9C350.15,159.28,348.29,157.59,348.29,154.73Zm6.1-.7c0-1.77-.8-2.71-2.16-2.71s-2.32,1-2.5,2.71Z"/><path class="cls-1" d="M356.83,158.08l.72-1a4,4,0,0,0,2.58,1c1.15,0,1.71-.61,1.71-1.36s-1-1.28-2-1.65c-1.22-.45-2.59-1-2.59-2.51s1.1-2.47,3-2.47a4.47,4.47,0,0,1,2.7,1l-.7.94a3.27,3.27,0,0,0-2-.77c-1.09,0-1.59.58-1.59,1.25,0,.83.95,1.14,1.93,1.51,1.26.48,2.65,1,2.65,2.64,0,1.41-1.12,2.58-3.17,2.58A5.32,5.32,0,0,1,356.83,158.08Z"/><path class="cls-1" d="M365,158.17a1.06,1.06,0,1,1,2.11,0,1.06,1.06,0,1,1-2.11,0Z"/></g></g></svg>