<svg xmlns="http://www.w3.org/2000/svg" viewBox="0 0 475.64 161.57"><defs><style>.cls-1{fill:#707070;}</style></defs><title>coAsset 36</title><g id="Layer_2" data-name="Layer 2"><g id="Layer_1-2" data-name="Layer 1"><path class="cls-1" d="M8.46,9.49v.9H1.53V.59H8.25v.89H2.57V5H7.64v.88H2.57V9.49Z"/><path class="cls-1" d="M16.64,3.77a3.14,3.14,0,0,1,.82,2.35v4.27h-1V6.22a2.44,2.44,0,0,0-.57-1.75,2.14,2.14,0,0,0-1.64-.61,2.5,2.5,0,0,0-1.88.71,2.63,2.63,0,0,0-.7,1.95v3.87h-1V3h1V4.38a2.77,2.77,0,0,1,1.13-1A3.54,3.54,0,0,1,14.44,3,3,3,0,0,1,16.64,3.77Z"/><path class="cls-1" d="M27,3V9.49a3.72,3.72,0,0,1-.92,2.78,3.79,3.79,0,0,1-2.76.9,6.2,6.2,0,0,1-1.94-.3A4,4,0,0,1,19.9,12l.5-.76a3.86,3.86,0,0,0,1.3.75,5,5,0,0,0,1.6.26,2.86,2.86,0,0,0,2.06-.65,2.73,2.73,0,0,0,.66-2V8.68a3,3,0,0,1-1.21,1.06,3.68,3.68,0,0,1-1.66.37,3.89,3.89,0,0,1-1.89-.46,3.45,3.45,0,0,1-1.33-1.27,3.63,3.63,0,0,1-.48-1.86,3.53,3.53,0,0,1,.48-1.84,3.29,3.29,0,0,1,1.33-1.26A3.94,3.94,0,0,1,23.15,3a3.62,3.62,0,0,1,1.69.38,3,3,0,0,1,1.22,1.09V3ZM24.69,8.88a2.5,2.5,0,0,0,1-1,2.7,2.7,0,0,0,.36-1.4,2.69,2.69,0,0,0-.36-1.39,2.48,2.48,0,0,0-1-1,3,3,0,0,0-1.44-.34,3.09,3.09,0,0,0-1.44.33,2.45,2.45,0,0,0-1,1,2.73,2.73,0,0,0-.36,1.4,2.7,2.7,0,0,0,.36,1.4,2.47,2.47,0,0,0,1,1,3.14,3.14,0,0,0,2.88,0Z"/><path class="cls-1" d="M29.8,0h1V10.39h-1Z"/><path class="cls-1" d="M33.55,1.2a.67.67,0,0,1-.21-.5.67.67,0,0,1,.21-.49A.7.7,0,0,1,34.07,0a.73.73,0,0,1,.51.2.67.67,0,0,1,.21.49.69.69,0,0,1-.21.51.74.74,0,0,1-1,0Zm0,1.82h1v7.37h-1Z"/><path class="cls-1" d="M37.59,10.2a3.64,3.64,0,0,1-1.28-.65l.44-.79a3.58,3.58,0,0,0,1.17.6,4.68,4.68,0,0,0,1.45.23,2.77,2.77,0,0,0,1.49-.32,1,1,0,0,0,.49-.88.8.8,0,0,0-.27-.64,1.71,1.71,0,0,0-.67-.35,8.49,8.49,0,0,0-1.08-.23,10.89,10.89,0,0,1-1.44-.35A2,2,0,0,1,37,6.23a1.64,1.64,0,0,1-.39-1.16,1.82,1.82,0,0,1,.77-1.51A3.43,3.43,0,0,1,39.49,3a5.33,5.33,0,0,1,1.42.19,3.92,3.92,0,0,1,1.18.49l-.43.8a3.72,3.72,0,0,0-2.17-.63,2.47,2.47,0,0,0-1.44.34,1,1,0,0,0-.48.88.87.87,0,0,0,.27.67,1.66,1.66,0,0,0,.68.37c.27.08.64.16,1.12.25a12.6,12.6,0,0,1,1.41.33,2.13,2.13,0,0,1,.91.58,1.54,1.54,0,0,1,.38,1.12,1.79,1.79,0,0,1-.8,1.53,3.85,3.85,0,0,1-2.24.57A5.71,5.71,0,0,1,37.59,10.2Z"/><path class="cls-1" d="M50.13,3.77A3.14,3.14,0,0,1,51,6.12v4.27H50V6.22a2.4,2.4,0,0,0-.58-1.75,2.12,2.12,0,0,0-1.63-.61,2.53,2.53,0,0,0-1.89.71,2.67,2.67,0,0,0-.69,1.95v3.87h-1V0h1V4.31a2.63,2.63,0,0,1,1.12-1A3.57,3.57,0,0,1,47.93,3,3,3,0,0,1,50.13,3.77Z"/><path class="cls-1" d="M26.85,43.19v22.4H24.58V47.67l-8.8,15.07H14.66l-8.8-15V65.59H3.58V43.19h2L15.26,59.8,24.9,43.19Z"/><path class="cls-1" d="M36.16,64.64a8,8,0,0,1-3.07-3,9.26,9.26,0,0,1,0-8.83,7.87,7.87,0,0,1,3.07-3,9.37,9.37,0,0,1,8.77,0,7.75,7.75,0,0,1,3,3,9.34,9.34,0,0,1,0,8.83,7.84,7.84,0,0,1-3,3,9.22,9.22,0,0,1-8.77,0Zm7.6-1.72A5.71,5.71,0,0,0,46,60.6a7.73,7.73,0,0,0,0-6.85,5.65,5.65,0,0,0-2.22-2.32,6.71,6.71,0,0,0-6.43,0,5.76,5.76,0,0,0-2.24,2.32,7.56,7.56,0,0,0,0,6.85,5.82,5.82,0,0,0,2.24,2.32,6.79,6.79,0,0,0,6.43,0Z"/><path class="cls-1" d="M67.34,50.47a7.18,7.18,0,0,1,1.87,5.36v9.76H66.94V56.05a5.6,5.6,0,0,0-1.31-4,4.9,4.9,0,0,0-3.74-1.37,5.75,5.75,0,0,0-4.31,1.61A6.14,6.14,0,0,0,56,56.76v8.83H53.73V48.76H55.9v3.1a6.31,6.31,0,0,1,2.58-2.38,8.18,8.18,0,0,1,3.82-.85A6.85,6.85,0,0,1,67.34,50.47Z"/><path class="cls-1" d="M84.25,64.56a4.11,4.11,0,0,1-1.58.88,6.2,6.2,0,0,1-2,.31,5,5,0,0,1-3.65-1.28,4.9,4.9,0,0,1-1.28-3.62V50.68h-3V48.76h3V45.08h2.28v3.68h5.12v1.92H78.05v10A3.17,3.17,0,0,0,78.8,63,2.82,2.82,0,0,0,81,63.8a4.18,4.18,0,0,0,1.36-.23,3.44,3.44,0,0,0,1.14-.64Z"/><path class="cls-1" d="M89,65.16a8.47,8.47,0,0,1-2.92-1.49l1-1.79a8.84,8.84,0,0,0,2.66,1.36,10.53,10.53,0,0,0,3.32.52A6.34,6.34,0,0,0,96.46,63a2.28,2.28,0,0,0,1.11-2A1.83,1.83,0,0,0,97,59.56a4,4,0,0,0-1.54-.8A22.17,22.17,0,0,0,93,58.23a28.49,28.49,0,0,1-3.3-.79,4.73,4.73,0,0,1-2.12-1.36,3.75,3.75,0,0,1-.88-2.65A4.15,4.15,0,0,1,88.42,50a7.92,7.92,0,0,1,4.89-1.34,12.66,12.66,0,0,1,3.27.43,9,9,0,0,1,2.68,1.14l-1,1.82a8.5,8.5,0,0,0-5-1.44,5.78,5.78,0,0,0-3.28.77,2.33,2.33,0,0,0-1.1,2,2,2,0,0,0,.62,1.54,3.88,3.88,0,0,0,1.55.85,25.44,25.44,0,0,0,2.56.56,26.88,26.88,0,0,1,3.23.77A4.6,4.6,0,0,1,99,58.39,3.59,3.59,0,0,1,99.84,61,4.05,4.05,0,0,1,98,64.45a8.72,8.72,0,0,1-5.11,1.3A13.1,13.1,0,0,1,89,65.16Z"/><path class="cls-1" d="M118.69,57.88H104.61a6,6,0,0,0,2,4.24,6.73,6.73,0,0,0,4.61,1.61,7.29,7.29,0,0,0,2.88-.56,6.24,6.24,0,0,0,2.27-1.65L117.66,63a7.11,7.11,0,0,1-2.8,2,9.44,9.44,0,0,1-3.69.71,9.35,9.35,0,0,1-4.6-1.11,8,8,0,0,1-3.12-3,8.8,8.8,0,0,1-1.12-4.42,9,9,0,0,1,1.08-4.41,7.68,7.68,0,0,1,2.94-3,8.18,8.18,0,0,1,4.21-1.09,8.08,8.08,0,0,1,4.19,1.09,7.62,7.62,0,0,1,2.91,3,9,9,0,0,1,1.06,4.43Zm-12.21-5.75a6.07,6.07,0,0,0-1.87,4h11.93a6.12,6.12,0,0,0-1.87-4,6.18,6.18,0,0,0-8.19,0Z"/><path class="cls-1" d="M127.92,49.49a8.15,8.15,0,0,1,3.92-.86v2.21l-.55,0a5.39,5.39,0,0,0-4.16,1.64,6.49,6.49,0,0,0-1.5,4.57v8.58h-2.27V48.76h2.17v3.29A5.55,5.55,0,0,1,127.92,49.49Z"/><path class="cls-1" d="M140.49,49.49a8.2,8.2,0,0,1,3.92-.86v2.21l-.54,0a5.37,5.37,0,0,0-4.16,1.64,6.49,6.49,0,0,0-1.5,4.57v8.58h-2.28V48.76h2.18v3.29A5.53,5.53,0,0,1,140.49,49.49Z"/><path class="cls-1" d="M159.42,50.28a6.37,6.37,0,0,1,1.76,4.88V65.59H159V63A5.24,5.24,0,0,1,156.75,65a7.9,7.9,0,0,1-3.54.74,6.92,6.92,0,0,1-4.48-1.35,4.62,4.62,0,0,1-.11-7c1-.88,2.68-1.32,4.95-1.32h5.34v-1a4.32,4.32,0,0,0-1.22-3.31,5,5,0,0,0-3.55-1.14,9,9,0,0,0-3.07.53,7.78,7.78,0,0,0-2.53,1.46l-1-1.7a9,9,0,0,1,3.07-1.68,12.06,12.06,0,0,1,3.78-.59A7.11,7.11,0,0,1,159.42,50.28Zm-2.56,12.8a5.28,5.28,0,0,0,2-2.55V57.78h-5.28q-4.32,0-4.32,3a2.75,2.75,0,0,0,1.12,2.32,5.14,5.14,0,0,0,3.14.85A6,6,0,0,0,156.86,63.08Z"/><path class="cls-1" d="M176.22,64.56a4.19,4.19,0,0,1-1.58.88,6.2,6.2,0,0,1-2,.31,4.46,4.46,0,0,1-4.93-4.9V50.68h-3V48.76h3V45.08H170v3.68h5.12v1.92H170v10a3.13,3.13,0,0,0,.76,2.29,2.82,2.82,0,0,0,2.16.79,4.22,4.22,0,0,0,1.36-.23,3.39,3.39,0,0,0,1.13-.64Z"/><path class="cls-1" d="M3.94,91.21H0v-1H9.06v1H5.12v10.18H3.94Z"/><path class="cls-1" d="M17.51,93.83a3.6,3.6,0,0,1,.94,2.68v4.88H17.31V96.62a2.83,2.83,0,0,0-.65-2,2.48,2.48,0,0,0-1.88-.69,2.88,2.88,0,0,0-2.15.81A3,3,0,0,0,11.84,97v4.42H10.7V89.52h1.14v4.92a3.05,3.05,0,0,1,1.28-1.13,4.15,4.15,0,0,1,1.87-.4A3.4,3.4,0,0,1,17.51,93.83Z"/><path class="cls-1" d="M28.9,97.53h-7a3,3,0,0,0,1,2.12,3.36,3.36,0,0,0,2.31.81,3.59,3.59,0,0,0,1.44-.28,3.25,3.25,0,0,0,1.13-.82l.64.73a3.63,3.63,0,0,1-1.4,1,5.05,5.05,0,0,1-4.14-.2,4,4,0,0,1-1.56-1.53,4.4,4.4,0,0,1-.56-2.21A4.49,4.49,0,0,1,21.26,95a3.77,3.77,0,0,1,1.47-1.52,4.35,4.35,0,0,1,4.2,0A3.83,3.83,0,0,1,28.38,95a4.5,4.5,0,0,1,.53,2.22Zm-6.11-2.87a3,3,0,0,0-.93,2h6a3,3,0,0,0-.93-2,2.89,2.89,0,0,0-2.06-.78A2.86,2.86,0,0,0,22.79,94.66Z"/><path class="cls-1" d="M36.67,100.92a4.11,4.11,0,0,1-1.54-1.53,4.72,4.72,0,0,1,0-4.42,4,4,0,0,1,1.54-1.52,4.71,4.71,0,0,1,4.38,0A3.86,3.86,0,0,1,42.58,95a4.72,4.72,0,0,1,0,4.42,4,4,0,0,1-1.53,1.53,4.64,4.64,0,0,1-4.38,0Zm3.8-.87a2.76,2.76,0,0,0,1.11-1.16,3.86,3.86,0,0,0,0-3.42,2.76,2.76,0,0,0-1.11-1.16,3.19,3.19,0,0,0-1.61-.41,3.24,3.24,0,0,0-1.61.41,3,3,0,0,0-1.12,1.16,3.86,3.86,0,0,0,0,3.42,3,3,0,0,0,1.12,1.16,3.24,3.24,0,0,0,1.61.41A3.19,3.19,0,0,0,40.47,100.05Z"/><path class="cls-1" d="M45.46,89.52h1.13v11.87H45.46Z"/><path class="cls-1" d="M57.44,89.52v11.87H56.35V99.72A3.44,3.44,0,0,1,55,101a4,4,0,0,1-1.9.45,4.19,4.19,0,0,1-2.14-.55,3.85,3.85,0,0,1-1.5-1.52,4.76,4.76,0,0,1,0-4.44A3.85,3.85,0,0,1,51,93.44a4.38,4.38,0,0,1,2.14-.53,4,4,0,0,1,1.85.42,3.49,3.49,0,0,1,1.35,1.24v-5Zm-2.65,10.53a2.85,2.85,0,0,0,1.12-1.16,3.77,3.77,0,0,0,0-3.42,2.85,2.85,0,0,0-1.12-1.16,3.14,3.14,0,0,0-1.59-.41,3.21,3.21,0,0,0-1.61.41,2.91,2.91,0,0,0-1.12,1.16,3.77,3.77,0,0,0,0,3.42,2.91,2.91,0,0,0,1.12,1.16,3.21,3.21,0,0,0,1.61.41A3.14,3.14,0,0,0,54.79,100.05Z"/><path class="cls-1" d="M71.28,93.44A3.85,3.85,0,0,1,72.78,95a4.4,4.4,0,0,1,.55,2.22,4.45,4.45,0,0,1-.55,2.24,3.86,3.86,0,0,1-1.49,1.51,4.33,4.33,0,0,1-2.16.54,3.87,3.87,0,0,1-1.84-.43,3.51,3.51,0,0,1-1.36-1.24v4.69H64.8V93h1.09v1.67a3.39,3.39,0,0,1,1.35-1.28,3.94,3.94,0,0,1,1.89-.45A4.42,4.42,0,0,1,71.28,93.44Zm-.62,6.61a2.91,2.91,0,0,0,1.12-1.16,3.54,3.54,0,0,0,.41-1.71,3.48,3.48,0,0,0-.41-1.7,2.91,2.91,0,0,0-1.12-1.16,3.17,3.17,0,0,0-1.61-.42,3.08,3.08,0,0,0-1.6.42,2.85,2.85,0,0,0-1.12,1.16,3.37,3.37,0,0,0-.41,1.7,3.43,3.43,0,0,0,.41,1.71,2.85,2.85,0,0,0,1.12,1.16,3.17,3.17,0,0,0,1.6.41A3.27,3.27,0,0,0,70.66,100.05Z"/><path class="cls-1" d="M76.89,100.92a4,4,0,0,1-1.53-1.53,4.64,4.64,0,0,1,0-4.42,3.92,3.92,0,0,1,1.53-1.52,4.73,4.73,0,0,1,4.39,0A3.92,3.92,0,0,1,82.81,95a4.72,4.72,0,0,1,0,4.42,4,4,0,0,1-1.53,1.53,4.66,4.66,0,0,1-4.39,0Zm3.8-.87a2.85,2.85,0,0,0,1.12-1.16,3.86,3.86,0,0,0,0-3.42,2.85,2.85,0,0,0-1.12-1.16,3.35,3.35,0,0,0-3.21,0,2.85,2.85,0,0,0-1.12,1.16,3.77,3.77,0,0,0,0,3.42,2.85,2.85,0,0,0,1.12,1.16,3.35,3.35,0,0,0,3.21,0Z"/><path class="cls-1" d="M86,101.17a4.23,4.23,0,0,1-1.46-.74l.51-.9a4.26,4.26,0,0,0,1.33.68,5.16,5.16,0,0,0,1.66.27,3.2,3.2,0,0,0,1.71-.36,1.14,1.14,0,0,0,.55-1,.93.93,0,0,0-.3-.73,2.16,2.16,0,0,0-.77-.4A10.17,10.17,0,0,0,88,97.71a14.67,14.67,0,0,1-1.65-.39,2.52,2.52,0,0,1-1.07-.68,1.92,1.92,0,0,1-.44-1.33,2.1,2.1,0,0,1,.88-1.73,4,4,0,0,1,2.45-.67,6.45,6.45,0,0,1,1.63.21,4.72,4.72,0,0,1,1.35.57l-.5.91a4.24,4.24,0,0,0-2.48-.72,2.86,2.86,0,0,0-1.64.39,1.16,1.16,0,0,0-.55,1,1,1,0,0,0,.31.76,1.85,1.85,0,0,0,.78.43c.31.09.73.18,1.28.28a14.51,14.51,0,0,1,1.61.38,2.32,2.32,0,0,1,1,.66,1.79,1.79,0,0,1,.44,1.28,2,2,0,0,1-.92,1.75,4.43,4.43,0,0,1-2.56.65A6.42,6.42,0,0,1,86,101.17Z"/><path class="cls-1" d="M97.93,100.88a2.23,2.23,0,0,1-.79.44,3.19,3.19,0,0,1-1,.15,2.51,2.51,0,0,1-1.83-.64A2.48,2.48,0,0,1,93.69,99V93.93h-1.5V93h1.5V91.13h1.14V93h2.56v1H94.83v5a1.58,1.58,0,0,0,.38,1.14,1.43,1.43,0,0,0,1.08.39,2.25,2.25,0,0,0,.68-.11,1.64,1.64,0,0,0,.56-.32Z"/><path class="cls-1" d="M107,97.53h-7a3,3,0,0,0,1,2.12,3.35,3.35,0,0,0,2.3.81,3.52,3.52,0,0,0,1.44-.28,3.2,3.2,0,0,0,1.14-.82l.64.73a3.63,3.63,0,0,1-1.4,1,4.84,4.84,0,0,1-1.85.35,4.73,4.73,0,0,1-2.29-.55,4,4,0,0,1-1.56-1.53,4.3,4.3,0,0,1-.56-2.21A4.49,4.49,0,0,1,99.38,95a3.91,3.91,0,0,1,1.47-1.52,4.17,4.17,0,0,1,2.11-.54,4,4,0,0,1,2.09.54A3.86,3.86,0,0,1,106.51,95a4.61,4.61,0,0,1,.53,2.22Zm-6.1-2.87a3.07,3.07,0,0,0-.94,2h6a3,3,0,0,0-.94-2,3.07,3.07,0,0,0-4.09,0Z"/><path class="cls-1" d="M111.64,93.34a4,4,0,0,1,2-.43V94h-.27a2.69,2.69,0,0,0-2.08.81,3.28,3.28,0,0,0-.76,2.29v4.29h-1.13V93h1.09v1.65A2.69,2.69,0,0,1,111.64,93.34Z"/><path class="cls-1" d="M116,101.17a4.2,4.2,0,0,1-1.47-.74l.51-.9a4.26,4.26,0,0,0,1.33.68,5.22,5.22,0,0,0,1.67.27,3.19,3.19,0,0,0,1.7-.36,1.14,1.14,0,0,0,.55-1,.93.93,0,0,0-.3-.73,2.16,2.16,0,0,0-.77-.4,10.17,10.17,0,0,0-1.23-.26,15.83,15.83,0,0,1-1.65-.39,2.43,2.43,0,0,1-1.06-.68,1.88,1.88,0,0,1-.44-1.33,2.07,2.07,0,0,1,.88-1.73,3.91,3.91,0,0,1,2.44-.67,6.59,6.59,0,0,1,1.64.21,4.78,4.78,0,0,1,1.34.57l-.5.91a4.24,4.24,0,0,0-2.48-.72,2.86,2.86,0,0,0-1.64.39,1.18,1.18,0,0,0-.55,1,1,1,0,0,0,.31.76,1.85,1.85,0,0,0,.78.43c.31.09.74.18,1.28.28a15.35,15.35,0,0,1,1.62.38,2.44,2.44,0,0,1,1,.66,1.83,1.83,0,0,1,.43,1.28,2,2,0,0,1-.92,1.75,4.41,4.41,0,0,1-2.55.65A6.33,6.33,0,0,1,116,101.17Z"/><path class="cls-1" d="M133.2,93.73a3.21,3.21,0,0,1,.88,2.44v5.22H133v-1.31a2.68,2.68,0,0,1-1.13,1,4,4,0,0,1-1.77.37,3.54,3.54,0,0,1-2.24-.67A2.19,2.19,0,0,1,127,99a2.16,2.16,0,0,1,.78-1.73,3.77,3.77,0,0,1,2.47-.65h2.67v-.52a2.14,2.14,0,0,0-.61-1.65,2.48,2.48,0,0,0-1.77-.57,4.65,4.65,0,0,0-1.54.26,3.9,3.9,0,0,0-1.26.73l-.51-.85a4.51,4.51,0,0,1,1.53-.84,6.23,6.23,0,0,1,1.89-.29A3.57,3.57,0,0,1,133.2,93.73Zm-1.28,6.4a2.59,2.59,0,0,0,1-1.27V97.48H130.3c-1.44,0-2.16.51-2.16,1.51a1.38,1.38,0,0,0,.56,1.16,2.59,2.59,0,0,0,1.57.42A3,3,0,0,0,131.92,100.13Z"/><path class="cls-1" d="M144,93.83a3.56,3.56,0,0,1,.94,2.68v4.88h-1.14V96.62a2.79,2.79,0,0,0-.65-2,2.46,2.46,0,0,0-1.87-.69,2.89,2.89,0,0,0-2.16.81A3.08,3.08,0,0,0,138.3,97v4.42h-1.13V93h1.08v1.55a3.16,3.16,0,0,1,1.29-1.19,4.16,4.16,0,0,1,1.91-.42A3.4,3.4,0,0,1,144,93.83Z"/><path class="cls-1" d="M155.71,89.52v11.87h-1.09V99.72a3.44,3.44,0,0,1-1.35,1.3,4,4,0,0,1-1.9.45,4.19,4.19,0,0,1-2.14-.55,3.85,3.85,0,0,1-1.5-1.52,4.76,4.76,0,0,1,0-4.44,3.85,3.85,0,0,1,1.5-1.52,4.38,4.38,0,0,1,2.14-.53,4,4,0,0,1,1.85.42,3.49,3.49,0,0,1,1.35,1.24v-5Zm-2.65,10.53a2.85,2.85,0,0,0,1.12-1.16,3.77,3.77,0,0,0,0-3.42,2.85,2.85,0,0,0-1.12-1.16,3.14,3.14,0,0,0-1.59-.41,3.21,3.21,0,0,0-1.61.41,2.91,2.91,0,0,0-1.12,1.16,3.77,3.77,0,0,0,0,3.42,2.91,2.91,0,0,0,1.12,1.16,3.21,3.21,0,0,0,1.61.41A3.14,3.14,0,0,0,153.06,100.05Z"/><path class="cls-1" d="M163.37,101.17a4.2,4.2,0,0,1-1.47-.74l.51-.9a4.26,4.26,0,0,0,1.33.68,5.17,5.17,0,0,0,1.67.27,3.19,3.19,0,0,0,1.7-.36,1.14,1.14,0,0,0,.55-1,.93.93,0,0,0-.3-.73,2.16,2.16,0,0,0-.77-.4,10.17,10.17,0,0,0-1.23-.26,15.23,15.23,0,0,1-1.65-.39,2.43,2.43,0,0,1-1.06-.68,1.88,1.88,0,0,1-.44-1.33,2.09,2.09,0,0,1,.87-1.73,4,4,0,0,1,2.45-.67,6.59,6.59,0,0,1,1.64.21,4.78,4.78,0,0,1,1.34.57l-.5.91a4.24,4.24,0,0,0-2.48-.72,2.86,2.86,0,0,0-1.64.39,1.18,1.18,0,0,0-.55,1,1,1,0,0,0,.31.76,1.85,1.85,0,0,0,.78.43c.31.09.74.18,1.28.28a15.35,15.35,0,0,1,1.62.38,2.44,2.44,0,0,1,1,.66,1.83,1.83,0,0,1,.43,1.28,2,2,0,0,1-.92,1.75,4.41,4.41,0,0,1-2.55.65A6.33,6.33,0,0,1,163.37,101.17Z"/><path class="cls-1" d="M170.88,90.89a.78.78,0,0,1-.24-.57.76.76,0,0,1,.24-.56.86.86,0,0,1,1.18,0,.74.74,0,0,1,.24.55.82.82,0,0,1-.83.83A.79.79,0,0,1,170.88,90.89Zm0,2.08H172v8.42h-1.14Z"/><path class="cls-1" d="M183,93v7.39a3.7,3.7,0,0,1-4.21,4.21,7,7,0,0,1-2.21-.34,4.68,4.68,0,0,1-1.71-1l.58-.87a4.29,4.29,0,0,0,1.48.85,5.57,5.57,0,0,0,1.83.3,3.2,3.2,0,0,0,2.35-.74,3.15,3.15,0,0,0,.75-2.31V99.44a3.43,3.43,0,0,1-1.38,1.21,4.24,4.24,0,0,1-1.9.42,4.55,4.55,0,0,1-2.15-.52,3.88,3.88,0,0,1-1.52-1.46,4.34,4.34,0,0,1,0-4.23,3.8,3.8,0,0,1,1.51-1.44,4.53,4.53,0,0,1,2.16-.51,4.25,4.25,0,0,1,1.94.43,3.49,3.49,0,0,1,1.39,1.25V93Zm-2.66,6.7a2.84,2.84,0,0,0,1.15-1.1,3.15,3.15,0,0,0,.41-1.6,3.08,3.08,0,0,0-.41-1.59,2.85,2.85,0,0,0-1.14-1.09,3.44,3.44,0,0,0-1.65-.39,3.58,3.58,0,0,0-1.65.38,2.82,2.82,0,0,0-1.13,1.09,3.33,3.33,0,0,0,0,3.2,2.85,2.85,0,0,0,1.13,1.1,3.66,3.66,0,0,0,3.29,0Z"/><path class="cls-1" d="M193,93.83a3.6,3.6,0,0,1,.94,2.68v4.88h-1.14V96.62a2.83,2.83,0,0,0-.65-2,2.48,2.48,0,0,0-1.88-.69,2.88,2.88,0,0,0-2.15.81,3,3,0,0,0-.79,2.23v4.42h-1.14V93h1.09v1.55a3.16,3.16,0,0,1,1.29-1.19,4.16,4.16,0,0,1,1.91-.42A3.4,3.4,0,0,1,193,93.83Z"/><path class="cls-1" d="M197.3,101.17a4.23,4.23,0,0,1-1.46-.74l.51-.9a4.05,4.05,0,0,0,1.33.68,5.11,5.11,0,0,0,1.66.27,3.14,3.14,0,0,0,1.7-.36,1.15,1.15,0,0,0,.56-1,.9.9,0,0,0-.31-.73,2.08,2.08,0,0,0-.77-.4,9.76,9.76,0,0,0-1.23-.26,15.83,15.83,0,0,1-1.65-.39,2.48,2.48,0,0,1-1.06-.68,1.92,1.92,0,0,1-.44-1.33,2.07,2.07,0,0,1,.88-1.73,3.94,3.94,0,0,1,2.45-.67,6.51,6.51,0,0,1,1.63.21,5,5,0,0,1,1.35.57l-.5.91a4.24,4.24,0,0,0-2.48-.72,2.84,2.84,0,0,0-1.64.39,1.16,1.16,0,0,0-.55,1,1,1,0,0,0,.31.76,1.85,1.85,0,0,0,.78.43c.3.09.73.18,1.27.28a14.23,14.23,0,0,1,1.62.38,2.38,2.38,0,0,1,1,.66,1.79,1.79,0,0,1,.43,1.28,2,2,0,0,1-.92,1.75,4.37,4.37,0,0,1-2.55.65A6.38,6.38,0,0,1,197.3,101.17Z"/><path class="cls-1" d="M209,90.89a.78.78,0,0,1-.24-.57.76.76,0,0,1,.24-.56.81.81,0,0,1,.6-.24.8.8,0,0,1,.59.23.74.74,0,0,1,.24.55.84.84,0,0,1-1.43.59ZM209,93h1.14v8.42H209Z"/><path class="cls-1" d="M220.13,93.83a3.56,3.56,0,0,1,.94,2.68v4.88h-1.14V96.62a2.83,2.83,0,0,0-.65-2,2.48,2.48,0,0,0-1.88-.69,2.88,2.88,0,0,0-2.15.81,3,3,0,0,0-.79,2.23v4.42h-1.14V93h1.09v1.55a3.16,3.16,0,0,1,1.29-1.19,4.16,4.16,0,0,1,1.91-.42A3.4,3.4,0,0,1,220.13,93.83Z"/><path class="cls-1" d="M232.78,100.88a2.32,2.32,0,0,1-.79.44,3.25,3.25,0,0,1-1,.15,2.49,2.49,0,0,1-1.82-.64,2.44,2.44,0,0,1-.64-1.81V93.93H227V93h1.5V91.13h1.14V93h2.56v1h-2.56v5a1.58,1.58,0,0,0,.37,1.14,1.43,1.43,0,0,0,1.08.39,2.2,2.2,0,0,0,.68-.11,1.59,1.59,0,0,0,.57-.32Z"/><path class="cls-1" d="M241.65,93.83a3.56,3.56,0,0,1,.94,2.68v4.88h-1.14V96.62a2.83,2.83,0,0,0-.65-2,2.48,2.48,0,0,0-1.88-.69,2.88,2.88,0,0,0-2.15.81A3,3,0,0,0,236,97v4.42h-1.14V89.52H236v4.92a3.05,3.05,0,0,1,1.28-1.13,4.15,4.15,0,0,1,1.87-.4A3.4,3.4,0,0,1,241.65,93.83Z"/><path class="cls-1" d="M253,97.53h-7a3,3,0,0,0,1,2.12,3.36,3.36,0,0,0,2.31.81,3.59,3.59,0,0,0,1.44-.28,3.16,3.16,0,0,0,1.13-.82l.64.73a3.63,3.63,0,0,1-1.4,1,5.05,5.05,0,0,1-4.14-.2,4,4,0,0,1-1.56-1.53,4.4,4.4,0,0,1-.56-2.21A4.49,4.49,0,0,1,245.4,95a3.77,3.77,0,0,1,1.47-1.52,4.35,4.35,0,0,1,4.2,0A3.83,3.83,0,0,1,252.52,95a4.5,4.5,0,0,1,.53,2.22Zm-6.11-2.87a3,3,0,0,0-.93,2h6a3,3,0,0,0-.93-2,2.89,2.89,0,0,0-2.06-.78A2.86,2.86,0,0,0,246.93,94.66Z"/><path class="cls-1" d="M264,100.88a2.37,2.37,0,0,1-.8.44,3.19,3.19,0,0,1-1,.15,2.47,2.47,0,0,1-1.82-.64,2.44,2.44,0,0,1-.64-1.81V93.93h-1.51V93h1.51V91.13h1.13V93h2.56v1h-2.56v5a1.58,1.58,0,0,0,.38,1.14,1.43,1.43,0,0,0,1.08.39,2.25,2.25,0,0,0,.68-.11,1.59,1.59,0,0,0,.57-.32Z"/><path class="cls-1" d="M268.34,93.34a4,4,0,0,1,2-.43V94H270a2.69,2.69,0,0,0-2.08.81,3.27,3.27,0,0,0-.75,2.29v4.29h-1.14V93h1.09v1.65A2.69,2.69,0,0,1,268.34,93.34Z"/><path class="cls-1" d="M277.8,93.73a3.17,3.17,0,0,1,.88,2.44v5.22H277.6v-1.31a2.74,2.74,0,0,1-1.13,1,4.05,4.05,0,0,1-1.77.37,3.5,3.5,0,0,1-2.24-.67,2.33,2.33,0,0,1-.06-3.51,3.81,3.81,0,0,1,2.48-.65h2.67v-.52a2.14,2.14,0,0,0-.61-1.65,2.52,2.52,0,0,0-1.78-.57,4.64,4.64,0,0,0-1.53.26,4.06,4.06,0,0,0-1.27.73l-.51-.85a4.66,4.66,0,0,1,1.54-.84,6.18,6.18,0,0,1,1.89-.29A3.52,3.52,0,0,1,277.8,93.73Zm-1.28,6.4a2.67,2.67,0,0,0,1-1.27V97.48h-2.64c-1.44,0-2.16.51-2.16,1.51a1.36,1.36,0,0,0,.56,1.16,2.55,2.55,0,0,0,1.57.42A3,3,0,0,0,276.52,100.13Z"/><path class="cls-1" d="M289.48,89.52v11.87H288.4V99.72A3.53,3.53,0,0,1,287,101a3.94,3.94,0,0,1-1.89.45,4.22,4.22,0,0,1-2.15-.55,3.85,3.85,0,0,1-1.5-1.52,4.83,4.83,0,0,1,0-4.44,3.85,3.85,0,0,1,1.5-1.52,4.42,4.42,0,0,1,2.15-.53,4,4,0,0,1,1.85.42,3.56,3.56,0,0,1,1.35,1.24v-5Zm-2.64,10.53A3,3,0,0,0,288,98.89a3.86,3.86,0,0,0,0-3.42,3,3,0,0,0-1.12-1.16,3.33,3.33,0,0,0-3.2,0,2.85,2.85,0,0,0-1.12,1.16,3.77,3.77,0,0,0,0,3.42,2.85,2.85,0,0,0,1.12,1.16,3.33,3.33,0,0,0,3.2,0Z"/><path class="cls-1" d="M292.64,90.89a.78.78,0,0,1-.24-.57.76.76,0,0,1,.24-.56.78.78,0,0,1,.59-.24.8.8,0,0,1,.59.23.74.74,0,0,1,.24.55.82.82,0,0,1-.83.83A.78.78,0,0,1,292.64,90.89Zm0,2.08h1.14v8.42h-1.14Z"/><path class="cls-1" d="M301.39,100.88a2.37,2.37,0,0,1-.8.44,3.19,3.19,0,0,1-1,.15,2.47,2.47,0,0,1-1.82-.64,2.44,2.44,0,0,1-.64-1.81V93.93h-1.51V93h1.51V91.13h1.13V93h2.56v1h-2.56v5a1.58,1.58,0,0,0,.38,1.14,1.43,1.43,0,0,0,1.08.39,2.25,2.25,0,0,0,.68-.11,1.59,1.59,0,0,0,.57-.32Z"/><path class="cls-1" d="M303.44,90.89a.78.78,0,0,1-.24-.57.76.76,0,0,1,.24-.56.78.78,0,0,1,.59-.24.8.8,0,0,1,.59.23.74.74,0,0,1,.24.55.82.82,0,0,1-.83.83A.78.78,0,0,1,303.44,90.89Zm0,2.08h1.14v8.42h-1.14Z"/><path class="cls-1" d="M309,100.92a4,4,0,0,1-1.53-1.53,4.64,4.64,0,0,1,0-4.42A3.92,3.92,0,0,1,309,93.45a4.73,4.73,0,0,1,4.39,0A3.92,3.92,0,0,1,314.92,95a4.72,4.72,0,0,1,0,4.42,4,4,0,0,1-1.53,1.53,4.66,4.66,0,0,1-4.39,0Zm3.8-.87a2.85,2.85,0,0,0,1.12-1.16,3.94,3.94,0,0,0,0-3.42,2.85,2.85,0,0,0-1.12-1.16,3.35,3.35,0,0,0-3.21,0,2.85,2.85,0,0,0-1.12,1.16,3.77,3.77,0,0,0,0,3.42,2.85,2.85,0,0,0,1.12,1.16,3.35,3.35,0,0,0,3.21,0Z"/><path class="cls-1" d="M324.59,93.83a3.56,3.56,0,0,1,.94,2.68v4.88H324.4V96.62a2.79,2.79,0,0,0-.66-2,2.46,2.46,0,0,0-1.87-.69,2.89,2.89,0,0,0-2.16.81,3.08,3.08,0,0,0-.79,2.23v4.42h-1.13V93h1.09v1.55a3.07,3.07,0,0,1,1.28-1.19,4.18,4.18,0,0,1,1.92-.42A3.39,3.39,0,0,1,324.59,93.83Z"/><path class="cls-1" d="M334.09,93.73a3.17,3.17,0,0,1,.88,2.44v5.22h-1.09v-1.31a2.62,2.62,0,0,1-1.13,1,4,4,0,0,1-1.76.37,3.5,3.5,0,0,1-2.24-.67,2.33,2.33,0,0,1-.06-3.51,3.78,3.78,0,0,1,2.47-.65h2.67v-.52a2.17,2.17,0,0,0-.6-1.65,2.52,2.52,0,0,0-1.78-.57,4.64,4.64,0,0,0-1.53.26,3.85,3.85,0,0,0-1.27.73l-.51-.85a4.71,4.71,0,0,1,1.53-.84,6.23,6.23,0,0,1,1.89-.29A3.57,3.57,0,0,1,334.09,93.73Zm-1.28,6.4a2.59,2.59,0,0,0,1-1.27V97.48H331.2c-1.45,0-2.16.51-2.16,1.51a1.37,1.37,0,0,0,.55,1.16,2.59,2.59,0,0,0,1.57.42A3,3,0,0,0,332.81,100.13Z"/><path class="cls-1" d="M338.06,89.52h1.13v11.87h-1.13Z"/><path class="cls-1" d="M358.43,90.19v11.2h-1.14v-9l-4.4,7.53h-.56l-4.4-7.48v8.91h-1.14V90.19h1l4.86,8.3,4.82-8.3Z"/><path class="cls-1" d="M363.08,100.92a4,4,0,0,1-1.53-1.53,4.64,4.64,0,0,1,0-4.42,3.92,3.92,0,0,1,1.53-1.52,4.73,4.73,0,0,1,4.39,0A3.83,3.83,0,0,1,369,95a4.64,4.64,0,0,1,0,4.42,3.92,3.92,0,0,1-1.52,1.53,4.66,4.66,0,0,1-4.39,0Zm3.8-.87A2.76,2.76,0,0,0,368,98.89a3.86,3.86,0,0,0,0-3.42,2.76,2.76,0,0,0-1.11-1.16,3.35,3.35,0,0,0-3.21,0,2.85,2.85,0,0,0-1.12,1.16,3.77,3.77,0,0,0,0,3.42,2.85,2.85,0,0,0,1.12,1.16,3.35,3.35,0,0,0,3.21,0Z"/><path class="cls-1" d="M378.67,93.83a3.56,3.56,0,0,1,.94,2.68v4.88h-1.14V96.62a2.79,2.79,0,0,0-.65-2,2.46,2.46,0,0,0-1.87-.69,2.89,2.89,0,0,0-2.16.81A3.08,3.08,0,0,0,373,97v4.42h-1.13V93H373v1.55a3.16,3.16,0,0,1,1.29-1.19,4.16,4.16,0,0,1,1.91-.42A3.4,3.4,0,0,1,378.67,93.83Z"/><path class="cls-1" d="M387.13,100.88a2.32,2.32,0,0,1-.79.44,3.25,3.25,0,0,1-1,.15,2.49,2.49,0,0,1-1.82-.64,2.44,2.44,0,0,1-.64-1.81V93.93h-1.5V93h1.5V91.13H384V93h2.56v1H384v5a1.58,1.58,0,0,0,.37,1.14,1.43,1.43,0,0,0,1.08.39,2.2,2.2,0,0,0,.68-.11,1.59,1.59,0,0,0,.57-.32Z"/><path class="cls-1" d="M389.49,101.17a4.23,4.23,0,0,1-1.46-.74l.51-.9a4.05,4.05,0,0,0,1.33.68,5.11,5.11,0,0,0,1.66.27,3.14,3.14,0,0,0,1.7-.36,1.15,1.15,0,0,0,.56-1,.94.94,0,0,0-.31-.73,2.08,2.08,0,0,0-.77-.4,9.76,9.76,0,0,0-1.23-.26,15.83,15.83,0,0,1-1.65-.39,2.48,2.48,0,0,1-1.06-.68,1.92,1.92,0,0,1-.44-1.33,2.07,2.07,0,0,1,.88-1.73,3.94,3.94,0,0,1,2.45-.67,6.51,6.51,0,0,1,1.63.21,4.78,4.78,0,0,1,1.34.57l-.49.91a4.24,4.24,0,0,0-2.48-.72,2.84,2.84,0,0,0-1.64.39,1.16,1.16,0,0,0-.55,1,1,1,0,0,0,.31.76,1.88,1.88,0,0,0,.77.43c.31.09.74.18,1.28.28a14.77,14.77,0,0,1,1.62.38,2.38,2.38,0,0,1,1,.66,1.79,1.79,0,0,1,.43,1.28,2,2,0,0,1-.92,1.75,4.37,4.37,0,0,1-2.55.65A6.38,6.38,0,0,1,389.49,101.17Z"/><path class="cls-1" d="M404.35,97.53h-7a3,3,0,0,0,1,2.12,3.36,3.36,0,0,0,2.31.81,3.59,3.59,0,0,0,1.44-.28,3.16,3.16,0,0,0,1.13-.82l.64.73a3.63,3.63,0,0,1-1.4,1,5.05,5.05,0,0,1-4.14-.2,4,4,0,0,1-1.56-1.53,4.4,4.4,0,0,1-.56-2.21,4.49,4.49,0,0,1,.54-2.21,3.77,3.77,0,0,1,1.47-1.52,4.35,4.35,0,0,1,4.2,0A3.83,3.83,0,0,1,403.83,95a4.5,4.5,0,0,1,.53,2.22Zm-6.11-2.87a3,3,0,0,0-.93,2h6a3,3,0,0,0-.93-2,2.89,2.89,0,0,0-2.06-.78A2.86,2.86,0,0,0,398.24,94.66Z"/><path class="cls-1" d="M409,93.34a4,4,0,0,1,2-.43V94h-.27a2.69,2.69,0,0,0-2.08.81,3.27,3.27,0,0,0-.75,2.29v4.29h-1.14V93h1.09v1.65A2.74,2.74,0,0,1,409,93.34Z"/><path class="cls-1" d="M415.25,93.34a4,4,0,0,1,2-.43V94h-.27a2.69,2.69,0,0,0-2.08.81,3.27,3.27,0,0,0-.75,2.29v4.29H413V93h1.09v1.65A2.69,2.69,0,0,1,415.25,93.34Z"/><path class="cls-1" d="M424.71,93.73a3.17,3.17,0,0,1,.88,2.44v5.22h-1.08v-1.31a2.74,2.74,0,0,1-1.13,1,4.05,4.05,0,0,1-1.77.37,3.5,3.5,0,0,1-2.24-.67,2.33,2.33,0,0,1-.06-3.51,3.81,3.81,0,0,1,2.48-.65h2.67v-.52a2.14,2.14,0,0,0-.61-1.65,2.52,2.52,0,0,0-1.78-.57,4.64,4.64,0,0,0-1.53.26,4.06,4.06,0,0,0-1.27.73l-.51-.85a4.66,4.66,0,0,1,1.54-.84,6.18,6.18,0,0,1,1.89-.29A3.52,3.52,0,0,1,424.71,93.73Zm-1.28,6.4a2.67,2.67,0,0,0,1-1.27V97.48h-2.64c-1.44,0-2.16.51-2.16,1.51a1.36,1.36,0,0,0,.56,1.16,2.55,2.55,0,0,0,1.57.42A3,3,0,0,0,423.43,100.13Z"/><path class="cls-1" d="M433.11,100.88a2.23,2.23,0,0,1-.79.44,3.19,3.19,0,0,1-1,.15,2.51,2.51,0,0,1-1.83-.64,2.48,2.48,0,0,1-.64-1.81V93.93h-1.5V93h1.5V91.13H430V93h2.56v1H430v5a1.54,1.54,0,0,0,.38,1.14,1.43,1.43,0,0,0,1.08.39,2.25,2.25,0,0,0,.68-.11,1.64,1.64,0,0,0,.56-.32Z"/><path class="cls-1" d="M8.33,112.83a3.59,3.59,0,0,1,.93,2.68v4.88H8.13v-4.77a2.79,2.79,0,0,0-.66-2,2.46,2.46,0,0,0-1.87-.69,2.86,2.86,0,0,0-2.15.81A3,3,0,0,0,2.66,116v4.42H1.52V112H2.61v1.55a3.16,3.16,0,0,1,1.29-1.19,4.11,4.11,0,0,1,1.91-.42A3.43,3.43,0,0,1,8.33,112.83Z"/><path class="cls-1" d="M19.71,116.53h-7a3,3,0,0,0,1,2.12,3.33,3.33,0,0,0,2.3.81,3.56,3.56,0,0,0,1.44-.28,3.2,3.2,0,0,0,1.14-.82l.64.73a3.63,3.63,0,0,1-1.4,1,4.84,4.84,0,0,1-1.85.35,4.73,4.73,0,0,1-2.29-.55,4.05,4.05,0,0,1-1.57-1.53,4.39,4.39,0,0,1-.55-2.21,4.49,4.49,0,0,1,.53-2.21,3.91,3.91,0,0,1,1.47-1.52,4.17,4.17,0,0,1,2.11-.54,4.07,4.07,0,0,1,2.09.54A3.86,3.86,0,0,1,19.2,114a4.61,4.61,0,0,1,.53,2.22Zm-6.1-2.87a3.07,3.07,0,0,0-.94,2h6a3.07,3.07,0,0,0-.94-2,2.86,2.86,0,0,0-2-.78A2.86,2.86,0,0,0,13.61,113.66Z"/><path class="cls-1" d="M22,109.89a.78.78,0,0,1-.24-.57.76.76,0,0,1,.24-.56.81.81,0,0,1,.59-.24.78.78,0,0,1,.59.23.71.71,0,0,1,.25.55.78.78,0,0,1-.25.59.79.79,0,0,1-.59.24A.81.81,0,0,1,22,109.89Zm0,2.08h1.13v8.42H22.05Z"/><path class="cls-1" d="M34.14,112v7.39a4.33,4.33,0,0,1-1,3.18,4.34,4.34,0,0,1-3.16,1,7.06,7.06,0,0,1-2.22-.34,4.55,4.55,0,0,1-1.7-1l.57-.87a4.38,4.38,0,0,0,1.48.85,5.57,5.57,0,0,0,1.83.3,3.24,3.24,0,0,0,2.36-.74,3.15,3.15,0,0,0,.75-2.31v-1.07a3.46,3.46,0,0,1-1.39,1.21,4.23,4.23,0,0,1-1.89.42,4.53,4.53,0,0,1-2.15-.52,3.75,3.75,0,0,1-1.52-1.46,4.27,4.27,0,0,1,0-4.23,3.74,3.74,0,0,1,1.51-1.44,4.53,4.53,0,0,1,2.16-.51,4.21,4.21,0,0,1,1.93.43,3.51,3.51,0,0,1,1.4,1.25V112Zm-2.65,6.7a2.81,2.81,0,0,0,1.14-1.1A3.15,3.15,0,0,0,33,116a3.08,3.08,0,0,0-.41-1.59,2.89,2.89,0,0,0-1.13-1.09,3.73,3.73,0,0,0-3.3,0,2.85,2.85,0,0,0-1.14,1.09,3.4,3.4,0,0,0,0,3.2,2.87,2.87,0,0,0,1.14,1.1,3.4,3.4,0,0,0,1.64.39A3.46,3.46,0,0,0,31.49,118.67Z"/><path class="cls-1" d="M44.13,112.83a3.56,3.56,0,0,1,.94,2.68v4.88H43.94v-4.77a2.79,2.79,0,0,0-.66-2,2.46,2.46,0,0,0-1.87-.69,2.89,2.89,0,0,0-2.16.81,3.08,3.08,0,0,0-.79,2.23v4.42H37.33V108.52h1.13v4.92a3.05,3.05,0,0,1,1.28-1.13,4.19,4.19,0,0,1,1.88-.4A3.39,3.39,0,0,1,44.13,112.83Z"/><path class="cls-1" d="M54.64,112.44a3.85,3.85,0,0,1,1.5,1.52,4.76,4.76,0,0,1,0,4.44,3.85,3.85,0,0,1-1.5,1.52,4.22,4.22,0,0,1-2.15.55A3.94,3.94,0,0,1,50.6,120a3.44,3.44,0,0,1-1.35-1.3v1.67H48.16V108.52h1.13v5a3.59,3.59,0,0,1,1.36-1.24,4,4,0,0,1,1.84-.42A4.42,4.42,0,0,1,54.64,112.44ZM54,119.05a2.87,2.87,0,0,0,1.13-1.16,3.77,3.77,0,0,0,0-3.42A2.87,2.87,0,0,0,54,113.31a3.33,3.33,0,0,0-3.2,0,2.85,2.85,0,0,0-1.12,1.16,3.77,3.77,0,0,0,0,3.42,2.85,2.85,0,0,0,1.12,1.16,3.33,3.33,0,0,0,3.2,0Z"/><path class="cls-1" d="M60.25,119.92a4,4,0,0,1-1.53-1.53,4.64,4.64,0,0,1,0-4.42,3.92,3.92,0,0,1,1.53-1.52,4.51,4.51,0,0,1,2.2-.54,4.44,4.44,0,0,1,2.19.54A3.92,3.92,0,0,1,66.17,114a4.72,4.72,0,0,1,0,4.42,4,4,0,0,1-1.53,1.53,4.45,4.45,0,0,1-2.19.55A4.52,4.52,0,0,1,60.25,119.92Zm3.8-.87a2.85,2.85,0,0,0,1.12-1.16,3.86,3.86,0,0,0,0-3.42,2.85,2.85,0,0,0-1.12-1.16,3.35,3.35,0,0,0-3.21,0,2.85,2.85,0,0,0-1.12,1.16,3.77,3.77,0,0,0,0,3.42,2.85,2.85,0,0,0,1.12,1.16,3.35,3.35,0,0,0,3.21,0Z"/><path class="cls-1" d="M71.32,112.34a4,4,0,0,1,2-.43V113H73a2.69,2.69,0,0,0-2.08.81,3.28,3.28,0,0,0-.76,2.29v4.29H69V112h1.09v1.65A2.69,2.69,0,0,1,71.32,112.34Z"/><path class="cls-1" d="M82.13,112.83a3.56,3.56,0,0,1,.94,2.68v4.88H81.93v-4.77a2.79,2.79,0,0,0-.65-2,2.46,2.46,0,0,0-1.87-.69,2.89,2.89,0,0,0-2.16.81,3.08,3.08,0,0,0-.79,2.23v4.42H75.33V108.52h1.13v4.92a3.05,3.05,0,0,1,1.28-1.13,4.18,4.18,0,0,1,1.87-.4A3.4,3.4,0,0,1,82.13,112.83Z"/><path class="cls-1" d="M87.44,119.92a4.11,4.11,0,0,1-1.54-1.53,4.64,4.64,0,0,1,0-4.42,4,4,0,0,1,1.54-1.52,4.71,4.71,0,0,1,4.38,0A3.92,3.92,0,0,1,93.35,114a4.72,4.72,0,0,1,0,4.42,4,4,0,0,1-1.53,1.53,4.64,4.64,0,0,1-4.38,0Zm3.8-.87a2.89,2.89,0,0,0,1.11-1.16,3.86,3.86,0,0,0,0-3.42,2.89,2.89,0,0,0-1.11-1.16,3.37,3.37,0,0,0-3.22,0,2.91,2.91,0,0,0-1.12,1.16,3.77,3.77,0,0,0,0,3.42A2.91,2.91,0,0,0,88,119.05a3.37,3.37,0,0,0,3.22,0Z"/><path class="cls-1" d="M97.47,119.92a4.11,4.11,0,0,1-1.54-1.53,4.72,4.72,0,0,1,0-4.42,4,4,0,0,1,1.54-1.52,4.71,4.71,0,0,1,4.38,0,3.92,3.92,0,0,1,1.53,1.52,4.72,4.72,0,0,1,0,4.42,4,4,0,0,1-1.53,1.53,4.64,4.64,0,0,1-4.38,0Zm3.8-.87a2.76,2.76,0,0,0,1.11-1.16,3.86,3.86,0,0,0,0-3.42,2.76,2.76,0,0,0-1.11-1.16,3.19,3.19,0,0,0-1.61-.41,3.24,3.24,0,0,0-1.61.41,3,3,0,0,0-1.12,1.16,3.86,3.86,0,0,0,0,3.42,3,3,0,0,0,1.12,1.16,3.24,3.24,0,0,0,1.61.41A3.19,3.19,0,0,0,101.27,119.05Z"/><path class="cls-1" d="M113.93,108.52v11.87h-1.08v-1.67a3.53,3.53,0,0,1-1.36,1.3,3.94,3.94,0,0,1-1.89.45,4.22,4.22,0,0,1-2.15-.55,3.85,3.85,0,0,1-1.5-1.52,4.83,4.83,0,0,1,0-4.44,3.85,3.85,0,0,1,1.5-1.52,4.42,4.42,0,0,1,2.15-.53,4,4,0,0,1,1.85.42,3.49,3.49,0,0,1,1.35,1.24v-5Zm-2.64,10.53a3,3,0,0,0,1.12-1.16,3.86,3.86,0,0,0,0-3.42,3,3,0,0,0-1.12-1.16,3.33,3.33,0,0,0-3.2,0,2.85,2.85,0,0,0-1.12,1.16,3.77,3.77,0,0,0,0,3.42,2.85,2.85,0,0,0,1.12,1.16,3.33,3.33,0,0,0,3.2,0Z"/><path class="cls-1" d="M122.54,119.92a4,4,0,0,1-1.53-1.53,4.64,4.64,0,0,1,0-4.42,3.92,3.92,0,0,1,1.53-1.52,4.73,4.73,0,0,1,4.39,0,3.83,3.83,0,0,1,1.52,1.52,4.64,4.64,0,0,1,0,4.42,3.92,3.92,0,0,1-1.52,1.53,4.66,4.66,0,0,1-4.39,0Zm3.8-.87a2.76,2.76,0,0,0,1.11-1.16,3.86,3.86,0,0,0,0-3.42,2.76,2.76,0,0,0-1.11-1.16,3.35,3.35,0,0,0-3.21,0,2.85,2.85,0,0,0-1.12,1.16,3.77,3.77,0,0,0,0,3.42,2.85,2.85,0,0,0,1.12,1.16,3.35,3.35,0,0,0,3.21,0Z"/><path class="cls-1" d="M133,109.8a1.66,1.66,0,0,0-.38,1.18v1h2.59v1h-2.56v7.46h-1.13v-7.46H130v-1h1.51v-1a2.48,2.48,0,0,1,.66-1.82,2.53,2.53,0,0,1,1.88-.67,3.22,3.22,0,0,1,.93.13,2.05,2.05,0,0,1,.75.39l-.38.85a1.86,1.86,0,0,0-1.25-.41A1.44,1.44,0,0,0,133,109.8Z"/><path class="cls-1" d="M149.94,115.56a2.77,2.77,0,0,1,.6,1.84,2.57,2.57,0,0,1-1.06,2.21,5.3,5.3,0,0,1-3.15.78h-5.15v-11.2H146a4.89,4.89,0,0,1,2.91.75,2.47,2.47,0,0,1,1,2.13,2.6,2.6,0,0,1-.46,1.57,2.65,2.65,0,0,1-1.25,1A3,3,0,0,1,149.94,115.56Zm-7.57-5.4v4.07h3.56a3.66,3.66,0,0,0,2.1-.52,1.92,1.92,0,0,0,0-3,3.66,3.66,0,0,0-2.1-.52Zm6.22,8.74a1.79,1.79,0,0,0,.77-1.6c0-1.4-1-2.1-3-2.1h-3.95v4.21h3.95A4.12,4.12,0,0,0,148.59,118.9Z"/><path class="cls-1" d="M160.59,112v8.42H159.5v-1.54a3.13,3.13,0,0,1-1.23,1.19,4.06,4.06,0,0,1-4.39-.49,3.57,3.57,0,0,1-.95-2.7V112h1.13v4.77a2.81,2.81,0,0,0,.66,2,2.49,2.49,0,0,0,1.87.68,2.8,2.8,0,0,0,2.1-.8,3.14,3.14,0,0,0,.76-2.25V112Z"/><path class="cls-1" d="M171.1,116.53h-7a3,3,0,0,0,1,2.12,3.35,3.35,0,0,0,2.3.81,3.52,3.52,0,0,0,1.44-.28,3.2,3.2,0,0,0,1.14-.82l.64.73a3.63,3.63,0,0,1-1.4,1,4.84,4.84,0,0,1-1.85.35,4.73,4.73,0,0,1-2.29-.55,4,4,0,0,1-1.56-1.53,4.3,4.3,0,0,1-.56-2.21,4.49,4.49,0,0,1,.53-2.21,3.91,3.91,0,0,1,1.47-1.52,4.17,4.17,0,0,1,2.11-.54,4.07,4.07,0,0,1,2.09.54,3.86,3.86,0,0,1,1.46,1.51,4.61,4.61,0,0,1,.53,2.22Zm-6.1-2.87a3.07,3.07,0,0,0-.94,2h6a3,3,0,0,0-.94-2,3.07,3.07,0,0,0-4.09,0Z"/><path class="cls-1" d="M180.25,112.83a3.59,3.59,0,0,1,.93,2.68v4.88h-1.13v-4.77a2.79,2.79,0,0,0-.66-2,2.46,2.46,0,0,0-1.87-.69,2.85,2.85,0,0,0-2.15.81,3,3,0,0,0-.8,2.23v4.42h-1.13V112h1.09v1.55a3.07,3.07,0,0,1,1.28-1.19,4.18,4.18,0,0,1,1.92-.42A3.43,3.43,0,0,1,180.25,112.83Z"/><path class="cls-1" d="M185.55,119.92a4.11,4.11,0,0,1-1.54-1.53,4.64,4.64,0,0,1,0-4.42,4,4,0,0,1,1.54-1.52,4.71,4.71,0,0,1,4.38,0,3.92,3.92,0,0,1,1.53,1.52,4.72,4.72,0,0,1,0,4.42,4,4,0,0,1-1.53,1.53,4.64,4.64,0,0,1-4.38,0Zm3.8-.87a2.89,2.89,0,0,0,1.11-1.16,3.86,3.86,0,0,0,0-3.42,2.89,2.89,0,0,0-1.11-1.16,3.37,3.37,0,0,0-3.22,0,3,3,0,0,0-1.12,1.16,3.77,3.77,0,0,0,0,3.42,3,3,0,0,0,1.12,1.16,3.37,3.37,0,0,0,3.22,0Z"/><path class="cls-1" d="M194.63,120.17a4.14,4.14,0,0,1-1.46-.74l.51-.9a4.1,4.1,0,0,0,1.32.68,5.22,5.22,0,0,0,1.67.27,3.16,3.16,0,0,0,1.7-.36,1.14,1.14,0,0,0,.55-1,.93.93,0,0,0-.3-.73,2.08,2.08,0,0,0-.77-.4,10.17,10.17,0,0,0-1.23-.26,15.83,15.83,0,0,1-1.65-.39,2.48,2.48,0,0,1-1.06-.68,1.92,1.92,0,0,1-.44-1.33,2.07,2.07,0,0,1,.88-1.73,3.94,3.94,0,0,1,2.45-.67,6.57,6.57,0,0,1,1.63.21,4.78,4.78,0,0,1,1.34.57l-.49.91a4.26,4.26,0,0,0-2.48-.72,2.84,2.84,0,0,0-1.64.39,1.16,1.16,0,0,0-.55,1,1,1,0,0,0,.31.76,1.82,1.82,0,0,0,.77.43c.31.09.74.18,1.28.28a14.77,14.77,0,0,1,1.62.38,2.44,2.44,0,0,1,1,.66,1.79,1.79,0,0,1,.43,1.28,2,2,0,0,1-.92,1.75,4.37,4.37,0,0,1-2.55.65A6.38,6.38,0,0,1,194.63,120.17Z"/><path class="cls-1" d="M213.61,117.4h-6.24l-1.34,3H204.8l5.12-11.2h1.16l5.13,11.2H215Zm-.43-1-2.69-6-2.69,6Z"/><path class="cls-1" d="M217.8,109.89a.78.78,0,0,1-.24-.57.76.76,0,0,1,.24-.56.81.81,0,0,1,.6-.24.8.8,0,0,1,.59.23.74.74,0,0,1,.24.55.84.84,0,0,1-1.43.59Zm0,2.08H219v8.42h-1.14Z"/><path class="cls-1" d="M224.41,112.34a4,4,0,0,1,2-.43V113h-.28a2.7,2.7,0,0,0-2.08.81,3.27,3.27,0,0,0-.75,2.29v4.29h-1.13V112h1.08v1.65A2.76,2.76,0,0,1,224.41,112.34Z"/><path class="cls-1" d="M235.66,116.53h-7a3,3,0,0,0,1,2.12,3.33,3.33,0,0,0,2.3.81,3.52,3.52,0,0,0,1.44-.28,3.2,3.2,0,0,0,1.14-.82l.64.73a3.63,3.63,0,0,1-1.4,1,4.84,4.84,0,0,1-1.85.35,4.73,4.73,0,0,1-2.29-.55,4.05,4.05,0,0,1-1.57-1.53,4.39,4.39,0,0,1-.55-2.21A4.49,4.49,0,0,1,228,114a3.91,3.91,0,0,1,1.47-1.52,4.17,4.17,0,0,1,2.11-.54,4.07,4.07,0,0,1,2.09.54,3.86,3.86,0,0,1,1.46,1.51,4.61,4.61,0,0,1,.53,2.22Zm-6.1-2.87a3.07,3.07,0,0,0-.94,2h6a3.07,3.07,0,0,0-.94-2,3.07,3.07,0,0,0-4.09,0Z"/><path class="cls-1" d="M238.29,120.17a4.23,4.23,0,0,1-1.46-.74l.51-.9a4.05,4.05,0,0,0,1.33.68,5.16,5.16,0,0,0,1.66.27,3.2,3.2,0,0,0,1.71-.36,1.16,1.16,0,0,0,.55-1,.9.9,0,0,0-.31-.73,2,2,0,0,0-.76-.4,10,10,0,0,0-1.24-.26,15,15,0,0,1-1.64-.39,2.52,2.52,0,0,1-1.07-.68,1.92,1.92,0,0,1-.44-1.33,2.1,2.1,0,0,1,.88-1.73,4,4,0,0,1,2.45-.67,6.51,6.51,0,0,1,1.63.21,4.85,4.85,0,0,1,1.35.57l-.5.91a4.24,4.24,0,0,0-2.48-.72,2.84,2.84,0,0,0-1.64.39,1.16,1.16,0,0,0-.55,1,1,1,0,0,0,.31.76,1.85,1.85,0,0,0,.78.43c.31.09.73.18,1.28.28a14.51,14.51,0,0,1,1.61.38,2.38,2.38,0,0,1,1,.66,1.79,1.79,0,0,1,.43,1.28,2,2,0,0,1-.92,1.75,4.37,4.37,0,0,1-2.55.65A6.42,6.42,0,0,1,238.29,120.17Z"/><path class="cls-1" d="M250,109.89a.78.78,0,0,1-.24-.57.76.76,0,0,1,.24-.56.86.86,0,0,1,1.18,0,.74.74,0,0,1,.24.55.82.82,0,0,1-.83.83A.79.79,0,0,1,250,109.89Zm0,2.08h1.14v8.42H250Z"/><path class="cls-1" d="M261.12,112.83a3.56,3.56,0,0,1,.94,2.68v4.88h-1.14v-4.77a2.79,2.79,0,0,0-.65-2,2.46,2.46,0,0,0-1.87-.69,2.89,2.89,0,0,0-2.16.81,3.08,3.08,0,0,0-.79,2.23v4.42h-1.13V112h1.08v1.55a3.16,3.16,0,0,1,1.29-1.19,4.16,4.16,0,0,1,1.91-.42A3.4,3.4,0,0,1,261.12,112.83Z"/><path class="cls-1" d="M265.44,120.17a4.23,4.23,0,0,1-1.46-.74l.51-.9a4.16,4.16,0,0,0,1.33.68,5.16,5.16,0,0,0,1.66.27,3.2,3.2,0,0,0,1.71-.36,1.14,1.14,0,0,0,.55-1,.93.93,0,0,0-.3-.73,2.16,2.16,0,0,0-.77-.4,10.17,10.17,0,0,0-1.23-.26,14.67,14.67,0,0,1-1.65-.39,2.52,2.52,0,0,1-1.07-.68,1.92,1.92,0,0,1-.44-1.33,2.1,2.1,0,0,1,.88-1.73,4,4,0,0,1,2.45-.67,6.45,6.45,0,0,1,1.63.21,4.72,4.72,0,0,1,1.35.57l-.5.91a4.24,4.24,0,0,0-2.48-.72,2.86,2.86,0,0,0-1.64.39,1.16,1.16,0,0,0-.55,1,1,1,0,0,0,.31.76,1.85,1.85,0,0,0,.78.43c.31.09.73.18,1.28.28a14.51,14.51,0,0,1,1.61.38,2.32,2.32,0,0,1,1,.66,1.79,1.79,0,0,1,.44,1.28,2,2,0,0,1-.92,1.75,4.43,4.43,0,0,1-2.56.65A6.42,6.42,0,0,1,265.44,120.17Z"/><path class="cls-1" d="M279.45,112.44A3.94,3.94,0,0,1,281,114a4.5,4.5,0,0,1,.54,2.22,4.56,4.56,0,0,1-.54,2.24,4,4,0,0,1-1.5,1.51,4.26,4.26,0,0,1-2.15.54,3.91,3.91,0,0,1-1.85-.43,3.41,3.41,0,0,1-1.35-1.24v4.69H273V112h1.09v1.67a3.39,3.39,0,0,1,1.35-1.28,4,4,0,0,1,1.9-.45A4.38,4.38,0,0,1,279.45,112.44Zm-.62,6.61a2.93,2.93,0,0,0,1.13-1.16,3.54,3.54,0,0,0,.4-1.71,3.47,3.47,0,0,0-.4-1.7,2.93,2.93,0,0,0-1.13-1.16,3.28,3.28,0,0,0-3.21,0,2.91,2.91,0,0,0-1.12,1.16,3.48,3.48,0,0,0-.41,1.7,3.54,3.54,0,0,0,.41,1.71,2.91,2.91,0,0,0,1.12,1.16,3.35,3.35,0,0,0,3.21,0Z"/><path class="cls-1" d="M283.8,109.89a.78.78,0,0,1-.24-.57.76.76,0,0,1,.24-.56.81.81,0,0,1,.6-.24.8.8,0,0,1,.59.23.74.74,0,0,1,.24.55.84.84,0,0,1-1.43.59Zm0,2.08H285v8.42h-1.14Z"/><path class="cls-1" d="M290.4,112.34a4,4,0,0,1,2-.43V113h-.27a2.7,2.7,0,0,0-2.08.81,3.27,3.27,0,0,0-.75,2.29v4.29h-1.14V112h1.09v1.65A2.79,2.79,0,0,1,290.4,112.34Z"/><path class="cls-1" d="M301.66,116.53h-7a3,3,0,0,0,1,2.12,3.33,3.33,0,0,0,2.3.81,3.59,3.59,0,0,0,1.44-.28,3.2,3.2,0,0,0,1.14-.82l.64.73a3.7,3.7,0,0,1-1.4,1,5.08,5.08,0,0,1-4.15-.2,4.09,4.09,0,0,1-1.56-1.53,4.4,4.4,0,0,1-.56-2.21A4.49,4.49,0,0,1,294,114a3.91,3.91,0,0,1,1.47-1.52,4.17,4.17,0,0,1,2.11-.54,4.07,4.07,0,0,1,2.09.54,3.86,3.86,0,0,1,1.46,1.51,4.61,4.61,0,0,1,.53,2.22Zm-6.1-2.87a3,3,0,0,0-.94,2h6a3.07,3.07,0,0,0-.94-2,3.07,3.07,0,0,0-4.09,0Z"/><path class="cls-1" d="M311.68,108.52v11.87h-1.09v-1.67a3.44,3.44,0,0,1-1.35,1.3,4,4,0,0,1-1.9.45,4.19,4.19,0,0,1-2.14-.55,3.87,3.87,0,0,1-1.51-1.52,4.83,4.83,0,0,1,0-4.44,3.87,3.87,0,0,1,1.51-1.52,4.38,4.38,0,0,1,2.14-.53,4,4,0,0,1,1.85.42,3.49,3.49,0,0,1,1.35,1.24v-5ZM309,119.05a2.91,2.91,0,0,0,1.12-1.16,3.77,3.77,0,0,0,0-3.42,2.91,2.91,0,0,0-1.12-1.16,3.33,3.33,0,0,0-3.2,0,2.85,2.85,0,0,0-1.12,1.16,3.77,3.77,0,0,0,0,3.42,2.85,2.85,0,0,0,1.12,1.16,3.33,3.33,0,0,0,3.2,0Z"/><path class="cls-1" d="M318.7,120.07a3.46,3.46,0,0,1-1.33-1.19l.71-.8a2.79,2.79,0,0,0,2.41,1.38c1.39,0,2.08-.82,2.08-2.46v-6.79h-4.09v-1h5.26V117a3.84,3.84,0,0,1-.82,2.65,3.18,3.18,0,0,1-2.44.88A3.92,3.92,0,0,1,318.7,120.07Z"/><path class="cls-1" d="M334.64,112v8.42h-1.09v-1.54a3.13,3.13,0,0,1-1.23,1.19,3.66,3.66,0,0,1-1.8.43,3.26,3.26,0,0,1-3.55-3.62V112h1.14v4.77a2.85,2.85,0,0,0,.65,2,2.52,2.52,0,0,0,1.88.68,2.77,2.77,0,0,0,2.09-.8,3.15,3.15,0,0,0,.77-2.25V112Z"/><path class="cls-1" d="M337.82,108.52H339v11.87h-1.14Z"/><path class="cls-1" d="M342.11,109.89a.78.78,0,0,1-.24-.57.76.76,0,0,1,.24-.56.86.86,0,0,1,1.18,0,.74.74,0,0,1,.24.55.82.82,0,0,1-.83.83A.79.79,0,0,1,342.11,109.89Zm0,2.08h1.14v8.42h-1.14Z"/><path class="cls-1" d="M353.76,116.53h-7a3,3,0,0,0,1,2.12,3.36,3.36,0,0,0,2.31.81,3.59,3.59,0,0,0,1.44-.28,3.16,3.16,0,0,0,1.13-.82l.64.73a3.63,3.63,0,0,1-1.4,1,5.05,5.05,0,0,1-4.14-.2,4,4,0,0,1-1.56-1.53,4.4,4.4,0,0,1-.56-2.21,4.49,4.49,0,0,1,.54-2.21,3.77,3.77,0,0,1,1.47-1.52,4.35,4.35,0,0,1,4.2,0,3.83,3.83,0,0,1,1.45,1.51,4.5,4.5,0,0,1,.53,2.22Zm-6.11-2.87a3,3,0,0,0-.93,2h6a3,3,0,0,0-.93-2,2.89,2.89,0,0,0-2.06-.78A2.86,2.86,0,0,0,347.65,113.66Z"/><path class="cls-1" d="M360.52,119.88a2.32,2.32,0,0,1-.79.44,3.19,3.19,0,0,1-1,.15,2.51,2.51,0,0,1-1.83-.64,2.48,2.48,0,0,1-.64-1.81v-5.09h-1.5v-1h1.5v-1.84h1.14V112H360v1h-2.56v5a1.58,1.58,0,0,0,.37,1.14,1.45,1.45,0,0,0,1.09.39,2.14,2.14,0,0,0,.67-.11,1.59,1.59,0,0,0,.57-.32Z"/><path class="cls-1" d="M368.06,112.73a3.17,3.17,0,0,1,.88,2.44v5.22h-1.09v-1.31a2.68,2.68,0,0,1-1.13,1,4,4,0,0,1-1.76.37,3.55,3.55,0,0,1-2.25-.67,2.19,2.19,0,0,1-.83-1.78,2.16,2.16,0,0,1,.78-1.73,3.78,3.78,0,0,1,2.47-.65h2.67v-.52a2.17,2.17,0,0,0-.6-1.65,2.52,2.52,0,0,0-1.78-.57,4.7,4.7,0,0,0-1.54.26,3.9,3.9,0,0,0-1.26.73l-.51-.85a4.61,4.61,0,0,1,1.53-.84,6.23,6.23,0,0,1,1.89-.29A3.57,3.57,0,0,1,368.06,112.73Zm-1.28,6.4a2.59,2.59,0,0,0,1-1.27v-1.38h-2.64c-1.44,0-2.16.51-2.16,1.51a1.38,1.38,0,0,0,.56,1.16,2.59,2.59,0,0,0,1.57.42A3,3,0,0,0,366.78,119.13Z"/><path class="cls-1" d="M377.58,119.24a5,5,0,0,1-1.22-3.64v-6.41h1.19v6.37a4.17,4.17,0,0,0,.88,2.91,3.26,3.26,0,0,0,2.54,1,3.3,3.3,0,0,0,2.56-1,4.17,4.17,0,0,0,.88-2.91v-6.37h1.15v6.41a5,5,0,0,1-1.21,3.64,5.24,5.24,0,0,1-6.77,0Z"/><path class="cls-1" d="M388.89,108.52H390v11.87h-1.14Z"/><path class="cls-1" d="M398.67,112.73a3.21,3.21,0,0,1,.88,2.44v5.22h-1.09v-1.31a2.68,2.68,0,0,1-1.13,1,4,4,0,0,1-1.77.37,3.52,3.52,0,0,1-2.24-.67,2.19,2.19,0,0,1-.83-1.78,2.16,2.16,0,0,1,.78-1.73,3.77,3.77,0,0,1,2.47-.65h2.67v-.52a2.14,2.14,0,0,0-.61-1.65,2.49,2.49,0,0,0-1.77-.57,4.65,4.65,0,0,0-1.54.26,3.9,3.9,0,0,0-1.26.73l-.52-.85a4.66,4.66,0,0,1,1.54-.84,6.23,6.23,0,0,1,1.89-.29A3.57,3.57,0,0,1,398.67,112.73Zm-1.28,6.4a2.65,2.65,0,0,0,1-1.27v-1.38h-2.64c-1.44,0-2.16.51-2.16,1.51a1.38,1.38,0,0,0,.56,1.16,2.57,2.57,0,0,0,1.57.42A3,3,0,0,0,397.39,119.13Z"/><path class="cls-1" d="M409.44,112.83a3.56,3.56,0,0,1,.94,2.68v4.88h-1.14v-4.77a2.83,2.83,0,0,0-.65-2,2.47,2.47,0,0,0-1.88-.69,2.88,2.88,0,0,0-2.15.81,3.08,3.08,0,0,0-.79,2.23v4.42h-1.14V112h1.09v1.55a3.16,3.16,0,0,1,1.29-1.19,4.16,4.16,0,0,1,1.91-.42A3.4,3.4,0,0,1,409.44,112.83Z"/><path class="cls-1" d="M414.75,119.92a4,4,0,0,1-1.54-1.53,4.64,4.64,0,0,1,0-4.42,4,4,0,0,1,1.54-1.52,4.71,4.71,0,0,1,4.38,0,3.92,3.92,0,0,1,1.53,1.52,4.72,4.72,0,0,1,0,4.42,4,4,0,0,1-1.53,1.53,4.64,4.64,0,0,1-4.38,0Zm3.8-.87a2.89,2.89,0,0,0,1.11-1.16,3.86,3.86,0,0,0,0-3.42,2.89,2.89,0,0,0-1.11-1.16,3.37,3.37,0,0,0-3.22,0,2.91,2.91,0,0,0-1.12,1.16,3.77,3.77,0,0,0,0,3.42,2.91,2.91,0,0,0,1.12,1.16,3.37,3.37,0,0,0,3.22,0Z"/><path class="cls-1" d="M430.36,112l-3.74,8.42h-1.17L421.72,112h1.19l3.15,7.17,3.18-7.17Z"/><path class="cls-1" d="M432.16,120.17a4.23,4.23,0,0,1-1.46-.74l.51-.9a4.05,4.05,0,0,0,1.33.68,5.16,5.16,0,0,0,1.66.27,3.2,3.2,0,0,0,1.71-.36,1.16,1.16,0,0,0,.55-1,.9.9,0,0,0-.31-.73,2,2,0,0,0-.76-.4,10,10,0,0,0-1.24-.26,15,15,0,0,1-1.64-.39,2.52,2.52,0,0,1-1.07-.68,1.92,1.92,0,0,1-.44-1.33,2.1,2.1,0,0,1,.88-1.73,4,4,0,0,1,2.45-.67,6.51,6.51,0,0,1,1.63.21,4.85,4.85,0,0,1,1.35.57l-.5.91a4.24,4.24,0,0,0-2.48-.72,2.84,2.84,0,0,0-1.64.39,1.16,1.16,0,0,0-.55,1,1,1,0,0,0,.31.76,1.85,1.85,0,0,0,.78.43c.31.09.73.18,1.28.28a14.51,14.51,0,0,1,1.61.38,2.38,2.38,0,0,1,1,.66,1.79,1.79,0,0,1,.43,1.28,2,2,0,0,1-.92,1.75,4.37,4.37,0,0,1-2.55.65A6.42,6.42,0,0,1,432.16,120.17Z"/><path class="cls-1" d="M442.81,116.16l-2,1.83v2.4h-1.14V108.52h1.14v8l5-4.59h1.41l-3.6,3.44,3.93,5H446.2Z"/><path class="cls-1" d="M456,112l-4.21,9.43a4.06,4.06,0,0,1-1.19,1.68,2.61,2.61,0,0,1-1.61.49,3.25,3.25,0,0,1-1.14-.19,2.49,2.49,0,0,1-.91-.58l.53-.84a2.11,2.11,0,0,0,1.53.64,1.57,1.57,0,0,0,1-.32,3.08,3.08,0,0,0,.76-1.09l.37-.82-3.76-8.4h1.18l3.17,7.15,3.17-7.15Z"/><path class="cls-1" d="M466.17,119.88a2.32,2.32,0,0,1-.79.44,3.25,3.25,0,0,1-1,.15,2.49,2.49,0,0,1-1.82-.64,2.44,2.44,0,0,1-.64-1.81v-5.09h-1.5v-1h1.5v-1.84h1.14V112h2.56v1h-2.56v5a1.58,1.58,0,0,0,.37,1.14,1.43,1.43,0,0,0,1.08.39,2.2,2.2,0,0,0,.68-.11,1.59,1.59,0,0,0,.57-.32Z"/><path class="cls-1" d="M469.18,119.92a4,4,0,0,1-1.54-1.53,4.64,4.64,0,0,1,0-4.42,4,4,0,0,1,1.54-1.52,4.71,4.71,0,0,1,4.38,0,3.92,3.92,0,0,1,1.53,1.52,4.72,4.72,0,0,1,0,4.42,4,4,0,0,1-1.53,1.53,4.64,4.64,0,0,1-4.38,0Zm3.8-.87a2.89,2.89,0,0,0,1.11-1.16,3.86,3.86,0,0,0,0-3.42,2.89,2.89,0,0,0-1.11-1.16,3.37,3.37,0,0,0-3.22,0,2.91,2.91,0,0,0-1.12,1.16,3.77,3.77,0,0,0,0,3.42,2.91,2.91,0,0,0,1.12,1.16,3.37,3.37,0,0,0,3.22,0Z"/><path class="cls-1" d="M8.27,127.52v11.87h-1v-1.67A3.24,3.24,0,0,1,6.08,139a3.31,3.31,0,0,1-1.71.45,3.5,3.5,0,0,1-1.93-.55,3.7,3.7,0,0,1-1.35-1.52,5.27,5.27,0,0,1,0-4.44,3.7,3.7,0,0,1,1.35-1.52,3.66,3.66,0,0,1,1.93-.53,3.28,3.28,0,0,1,1.66.42,3.3,3.3,0,0,1,1.22,1.24v-5ZM5.89,138.05a2.8,2.8,0,0,0,1-1.16,4.14,4.14,0,0,0,0-3.42,2.8,2.8,0,0,0-1-1.16,2.62,2.62,0,0,0-1.43-.41,2.67,2.67,0,0,0-1.45.41,2.8,2.8,0,0,0-1,1.16,4.14,4.14,0,0,0,0,3.42,2.8,2.8,0,0,0,1,1.16,2.67,2.67,0,0,0,1.45.41A2.62,2.62,0,0,0,5.89,138.05Z"/><path class="cls-1" d="M17.72,135.53H11.38a3.14,3.14,0,0,0,.91,2.12,2.84,2.84,0,0,0,2.07.81,2.86,2.86,0,0,0,2.32-1.1l.58.73a3.4,3.4,0,0,1-1.26,1,4,4,0,0,1-1.67.35,3.94,3.94,0,0,1-2.06-.55,3.86,3.86,0,0,1-1.41-1.53,4.83,4.83,0,0,1-.5-2.21,5,5,0,0,1,.48-2.21,3.8,3.8,0,0,1,1.33-1.52,3.58,3.58,0,0,1,3.78,0A3.79,3.79,0,0,1,17.26,133a5,5,0,0,1,.47,2.22Zm-5.49-2.87a3.19,3.19,0,0,0-.85,2h5.37a3.13,3.13,0,0,0-.84-2,2.44,2.44,0,0,0-1.85-.78A2.41,2.41,0,0,0,12.23,132.66Z"/><path class="cls-1" d="M20.09,139.17a3.75,3.75,0,0,1-1.32-.74l.46-.9a3.66,3.66,0,0,0,1.2.68,4.22,4.22,0,0,0,1.49.27,2.63,2.63,0,0,0,1.54-.36,1.19,1.19,0,0,0,.5-1,1,1,0,0,0-.28-.73A1.8,1.8,0,0,0,23,136a8.43,8.43,0,0,0-1.11-.26,12.61,12.61,0,0,1-1.48-.39,2.17,2.17,0,0,1-1-.68,2.07,2.07,0,0,1-.4-1.33,2.16,2.16,0,0,1,.8-1.73,3.27,3.27,0,0,1,2.2-.67,5.33,5.33,0,0,1,1.47.21,4.13,4.13,0,0,1,1.21.57l-.45.91a3.55,3.55,0,0,0-2.23-.72,2.38,2.38,0,0,0-1.48.39,1.2,1.2,0,0,0-.49,1,1,1,0,0,0,.28.76,1.62,1.62,0,0,0,.7.43,10.83,10.83,0,0,0,1.15.28,12.16,12.16,0,0,1,1.45.38,2.13,2.13,0,0,1,.94.66,1.92,1.92,0,0,1,.39,1.28,2.12,2.12,0,0,1-.83,1.75,3.66,3.66,0,0,1-2.3.65A5.21,5.21,0,0,1,20.09,139.17Z"/><path class="cls-1" d="M26.85,128.89a.85.85,0,0,1-.22-.57.82.82,0,0,1,.22-.56.68.68,0,0,1,.53-.24.67.67,0,0,1,.53.23.75.75,0,0,1,.22.55.83.83,0,0,1-.22.59.71.71,0,0,1-1.06,0Zm0,2.08h1v8.42h-1Z"/><path class="cls-1" d="M37.75,131v7.39a4.6,4.6,0,0,1-.94,3.18,3.67,3.67,0,0,1-2.85,1,5.74,5.74,0,0,1-2-.34,4.15,4.15,0,0,1-1.54-.95l.52-.87a3.84,3.84,0,0,0,1.34.85,4.54,4.54,0,0,0,1.64.3,2.72,2.72,0,0,0,2.12-.74,3.37,3.37,0,0,0,.68-2.31v-1.07a3.22,3.22,0,0,1-1.25,1.21,3.48,3.48,0,0,1-1.7.42,3.78,3.78,0,0,1-1.94-.52,3.64,3.64,0,0,1-1.37-1.46,4.72,4.72,0,0,1,0-4.23,3.63,3.63,0,0,1,1.36-1.44,3.78,3.78,0,0,1,2-.51,3.51,3.51,0,0,1,1.74.43,3.26,3.26,0,0,1,1.25,1.25V131Zm-2.39,6.7a2.73,2.73,0,0,0,1-1.1,3.46,3.46,0,0,0,.37-1.6,3.39,3.39,0,0,0-.37-1.59,2.82,2.82,0,0,0-1-1.09,2.88,2.88,0,0,0-1.49-.39,2.94,2.94,0,0,0-1.48.38,2.62,2.62,0,0,0-1,1.09,3.64,3.64,0,0,0,0,3.2,2.65,2.65,0,0,0,1,1.1,3,3,0,0,0,3,0Z"/><path class="cls-1" d="M46.74,131.83a3.83,3.83,0,0,1,.84,2.68v4.88h-1v-4.77a3,3,0,0,0-.59-2,2.08,2.08,0,0,0-1.68-.69,2.46,2.46,0,0,0-1.94.81,3.28,3.28,0,0,0-.71,2.23v4.42h-1V131h1v1.55a3,3,0,0,1,1.16-1.19,3.45,3.45,0,0,1,1.72-.42A2.9,2.9,0,0,1,46.74,131.83Z"/><path class="cls-1" d="M58.13,138.88a2.08,2.08,0,0,1-.72.44,2.62,2.62,0,0,1-.88.15,2.11,2.11,0,0,1-1.64-.64,2.59,2.59,0,0,1-.58-1.81v-5.09H53v-1h1.35v-1.84h1V131h2.31v1H55.33v5a1.67,1.67,0,0,0,.34,1.14,1.22,1.22,0,0,0,1,.39,1.78,1.78,0,0,0,.61-.11,1.46,1.46,0,0,0,.52-.32Z"/><path class="cls-1" d="M66.11,131.83a3.83,3.83,0,0,1,.84,2.68v4.88h-1v-4.77a3,3,0,0,0-.59-2,2.1,2.1,0,0,0-1.69-.69,2.43,2.43,0,0,0-1.93.81A3.23,3.23,0,0,0,61,135v4.42H60V127.52h1v4.92a2.87,2.87,0,0,1,1.16-1.13,3.42,3.42,0,0,1,1.68-.4A2.9,2.9,0,0,1,66.11,131.83Z"/><path class="cls-1" d="M69.72,128.89a.8.8,0,0,1-.22-.57.78.78,0,0,1,.22-.56.68.68,0,0,1,.53-.24.67.67,0,0,1,.53.23.75.75,0,0,1,.22.55.83.83,0,0,1-.22.59.71.71,0,0,1-1.06,0Zm0,2.08h1v8.42h-1Z"/><path class="cls-1" d="M73.87,139.17a3.75,3.75,0,0,1-1.32-.74l.46-.9a3.66,3.66,0,0,0,1.2.68,4.24,4.24,0,0,0,1.5.27,2.62,2.62,0,0,0,1.53-.36,1.19,1.19,0,0,0,.5-1,1,1,0,0,0-.28-.73,1.8,1.8,0,0,0-.69-.4,8.43,8.43,0,0,0-1.11-.26,12.61,12.61,0,0,1-1.48-.39,2.29,2.29,0,0,1-1-.68,2.07,2.07,0,0,1-.39-1.33,2.15,2.15,0,0,1,.79-1.73,3.29,3.29,0,0,1,2.2-.67,5.33,5.33,0,0,1,1.47.21,4.13,4.13,0,0,1,1.21.57l-.45.91a3.53,3.53,0,0,0-2.23-.72,2.34,2.34,0,0,0-1.47.39,1.19,1.19,0,0,0-.5,1,1,1,0,0,0,.28.76,1.62,1.62,0,0,0,.7.43,11.49,11.49,0,0,0,1.15.28,12.16,12.16,0,0,1,1.45.38,2.13,2.13,0,0,1,.94.66,1.92,1.92,0,0,1,.39,1.28,2.12,2.12,0,0,1-.83,1.75,3.66,3.66,0,0,1-2.3.65A5.21,5.21,0,0,1,73.87,139.17Z"/><path class="cls-1" d="M88.41,138.88a2,2,0,0,1-.72.44,2.58,2.58,0,0,1-.88.15,2.11,2.11,0,0,1-1.64-.64,2.59,2.59,0,0,1-.58-1.81v-5.09H83.24v-1h1.35v-1.84h1V131h2.31v1H85.61v5A1.72,1.72,0,0,0,86,138.1a1.22,1.22,0,0,0,1,.39,1.84,1.84,0,0,0,.62-.11,1.52,1.52,0,0,0,.51-.32Z"/><path class="cls-1" d="M96.49,131,92.7,140.4a4.06,4.06,0,0,1-1.07,1.68,2.19,2.19,0,0,1-1.45.49,2.61,2.61,0,0,1-1-.19,2.27,2.27,0,0,1-.83-.58l.48-.84a1.82,1.82,0,0,0,1.38.64,1.33,1.33,0,0,0,.89-.32,3.05,3.05,0,0,0,.68-1.09l.33-.82L88.71,131h1.07l2.85,7.15L95.48,131Z"/><path class="cls-1" d="M103.76,131.44a3.7,3.7,0,0,1,1.35,1.52,4.83,4.83,0,0,1,.49,2.22,4.89,4.89,0,0,1-.49,2.24,3.6,3.6,0,0,1-1.35,1.51,3.53,3.53,0,0,1-1.93.54A3.24,3.24,0,0,1,99,137.8v4.69h-1V131h1v1.67a3.19,3.19,0,0,1,1.21-1.28,3.28,3.28,0,0,1,1.71-.45A3.66,3.66,0,0,1,103.76,131.44Zm-.56,6.61a2.73,2.73,0,0,0,1-1.16,3.77,3.77,0,0,0,.37-1.71,3.7,3.7,0,0,0-.37-1.7,2.73,2.73,0,0,0-1-1.16,2.63,2.63,0,0,0-1.44-.42,2.59,2.59,0,0,0-1.45.42,2.8,2.8,0,0,0-1,1.16,3.83,3.83,0,0,0-.37,1.7,3.91,3.91,0,0,0,.37,1.71,2.8,2.8,0,0,0,1,1.16,2.67,2.67,0,0,0,1.45.41A2.71,2.71,0,0,0,103.2,138.05Z"/><path class="cls-1" d="M114.28,135.53H108a3.14,3.14,0,0,0,.91,2.12,2.8,2.8,0,0,0,2.07.81,2.86,2.86,0,0,0,2.32-1.1l.57.73a3.24,3.24,0,0,1-1.26,1,4.14,4.14,0,0,1-3.73-.2,3.84,3.84,0,0,1-1.4-1.53,4.7,4.7,0,0,1-.5-2.21,5,5,0,0,1,.48-2.21,3.71,3.71,0,0,1,1.32-1.52,3.45,3.45,0,0,1,1.9-.54,3.36,3.36,0,0,1,1.88.54,3.65,3.65,0,0,1,1.31,1.51,5,5,0,0,1,.48,2.22Zm-5.49-2.87a3.24,3.24,0,0,0-.84,2h5.37a3.24,3.24,0,0,0-.84-2,2.57,2.57,0,0,0-3.69,0Z"/><path class="cls-1" d="M117.89,128.8a1.8,1.8,0,0,0-.34,1.18v1h2.34v1h-2.31v7.46h-1v-7.46h-1.35v-1h1.35v-1a2.63,2.63,0,0,1,.6-1.82,2.14,2.14,0,0,1,1.69-.67,2.53,2.53,0,0,1,.83.13,1.81,1.81,0,0,1,.68.39l-.34.85a1.59,1.59,0,0,0-1.13-.41A1.23,1.23,0,0,0,117.89,128.8Z"/><path class="cls-1" d="M126.05,131.73a3.38,3.38,0,0,1,.79,2.44v5.22h-1v-1.31a2.54,2.54,0,0,1-1,1,3.35,3.35,0,0,1-1.6.37,2.94,2.94,0,0,1-2-.67,2.49,2.49,0,0,1,0-3.51,3.15,3.15,0,0,1,2.22-.65h2.41v-.52a2.27,2.27,0,0,0-.55-1.65,2.11,2.11,0,0,0-1.6-.57,3.8,3.8,0,0,0-1.38.26,3.54,3.54,0,0,0-1.14.73l-.46-.85a4.19,4.19,0,0,1,1.38-.84,5.1,5.1,0,0,1,1.7-.29A3,3,0,0,1,126.05,131.73Zm-1.15,6.4a2.6,2.6,0,0,0,.92-1.27v-1.38h-2.38c-1.29,0-1.94.51-1.94,1.51a1.45,1.45,0,0,0,.5,1.16,2.16,2.16,0,0,0,1.41.42A2.55,2.55,0,0,0,124.9,138.13Z"/><path class="cls-1" d="M130.78,138.92a3.72,3.72,0,0,1-1.39-1.52,4.78,4.78,0,0,1-.51-2.22,4.71,4.71,0,0,1,.51-2.21,3.72,3.72,0,0,1,1.39-1.52,3.78,3.78,0,0,1,2-.54,3.62,3.62,0,0,1,1.75.42,3,3,0,0,1,1.21,1.24l-.76.58a2.52,2.52,0,0,0-1-.94,2.55,2.55,0,0,0-1.25-.31,2.77,2.77,0,0,0-1.48.41,2.69,2.69,0,0,0-1,1.16,4.16,4.16,0,0,0,0,3.43,2.66,2.66,0,0,0,1,1.15,2.77,2.77,0,0,0,1.48.41,2.65,2.65,0,0,0,1.25-.3,2.56,2.56,0,0,0,1-.93l.76.57a2.92,2.92,0,0,1-1.22,1.24,3.51,3.51,0,0,1-1.74.43A3.7,3.7,0,0,1,130.78,138.92Z"/><path class="cls-1" d="M144.22,135.53h-6.33a3.13,3.13,0,0,0,.9,2.12,2.84,2.84,0,0,0,2.08.81,2.9,2.9,0,0,0,2.32-1.1l.57.73a3.4,3.4,0,0,1-1.26,1,4.14,4.14,0,0,1-3.73-.2,3.77,3.77,0,0,1-1.4-1.53,4.71,4.71,0,0,1-.51-2.21,4.82,4.82,0,0,1,.49-2.21,3.71,3.71,0,0,1,1.32-1.52,3.58,3.58,0,0,1,3.78,0,3.72,3.72,0,0,1,1.31,1.51,5,5,0,0,1,.48,2.22Zm-5.49-2.87a3.13,3.13,0,0,0-.84,2h5.37a3.24,3.24,0,0,0-.84-2,2.48,2.48,0,0,0-1.86-.78A2.41,2.41,0,0,0,138.73,132.66Z"/><path class="cls-1" d="M155,131.73a3.38,3.38,0,0,1,.79,2.44v5.22h-1v-1.31a2.48,2.48,0,0,1-1,1,3.33,3.33,0,0,1-1.59.37,3,3,0,0,1-2-.67,2.49,2.49,0,0,1-.05-3.51,3.18,3.18,0,0,1,2.23-.65h2.4v-.52a2.27,2.27,0,0,0-.55-1.65,2.09,2.09,0,0,0-1.59-.57,3.85,3.85,0,0,0-1.39.26,3.39,3.39,0,0,0-1.13.73l-.47-.85a4.14,4.14,0,0,1,1.39-.84,5,5,0,0,1,1.7-.29A3,3,0,0,1,155,131.73Zm-1.15,6.4a2.6,2.6,0,0,0,.92-1.27v-1.38h-2.37c-1.3,0-1.95.51-1.95,1.51a1.45,1.45,0,0,0,.5,1.16,2.17,2.17,0,0,0,1.42.42A2.51,2.51,0,0,0,153.87,138.13Z"/><path class="cls-1" d="M164.72,131.83a3.83,3.83,0,0,1,.84,2.68v4.88h-1v-4.77a3,3,0,0,0-.59-2,2.1,2.1,0,0,0-1.69-.69,2.43,2.43,0,0,0-1.93.81,3.23,3.23,0,0,0-.71,2.23v4.42h-1V131h1v1.55a3,3,0,0,1,1.16-1.19,3.45,3.45,0,0,1,1.72-.42A2.9,2.9,0,0,1,164.72,131.83Z"/><path class="cls-1" d="M175.28,127.52v11.87h-1v-1.67a3.24,3.24,0,0,1-1.21,1.3,3.31,3.31,0,0,1-1.71.45,3.5,3.5,0,0,1-1.93-.55,3.63,3.63,0,0,1-1.35-1.52,5.27,5.27,0,0,1,0-4.44,3.55,3.55,0,0,1,3.28-2.05,3.2,3.2,0,0,1,2.88,1.66v-5Zm-2.38,10.53a2.8,2.8,0,0,0,1-1.16,4.24,4.24,0,0,0,0-3.42,2.8,2.8,0,0,0-1-1.16,2.73,2.73,0,0,0-2.88,0,2.8,2.8,0,0,0-1,1.16,4.14,4.14,0,0,0,0,3.42,2.8,2.8,0,0,0,1,1.16,2.73,2.73,0,0,0,2.88,0Z"/><path class="cls-1" d="M184,131.34a3.3,3.3,0,0,1,1.76-.43V132h-.24a2.33,2.33,0,0,0-1.88.81,3.51,3.51,0,0,0-.67,2.29v4.29h-1V131h1v1.65A2.64,2.64,0,0,1,184,131.34Z"/><path class="cls-1" d="M194.09,135.53h-6.34a3.14,3.14,0,0,0,.91,2.12,2.84,2.84,0,0,0,2.07.81,2.86,2.86,0,0,0,2.32-1.1l.58.73a3.4,3.4,0,0,1-1.26,1,4,4,0,0,1-1.67.35,3.94,3.94,0,0,1-2.06-.55,3.86,3.86,0,0,1-1.41-1.53,4.83,4.83,0,0,1-.5-2.21,5,5,0,0,1,.48-2.21,3.73,3.73,0,0,1,1.33-1.52,3.58,3.58,0,0,1,3.78,0,3.79,3.79,0,0,1,1.31,1.51,5.1,5.1,0,0,1,.47,2.22Zm-5.5-2.87a3.24,3.24,0,0,0-.84,2h5.37a3.13,3.13,0,0,0-.84-2,2.57,2.57,0,0,0-3.69,0Z"/><path class="cls-1" d="M196.46,139.17a3.75,3.75,0,0,1-1.32-.74l.46-.9a3.61,3.61,0,0,0,1.19.68,4.28,4.28,0,0,0,1.5.27,2.65,2.65,0,0,0,1.54-.36,1.18,1.18,0,0,0,.49-1,1,1,0,0,0-.27-.73,1.8,1.8,0,0,0-.69-.4,8.43,8.43,0,0,0-1.11-.26,12.1,12.1,0,0,1-1.48-.39,2.17,2.17,0,0,1-1-.68,2,2,0,0,1-.4-1.33,2.16,2.16,0,0,1,.8-1.73,3.27,3.27,0,0,1,2.2-.67,5.33,5.33,0,0,1,1.47.21,4.13,4.13,0,0,1,1.21.57l-.45.91a3.55,3.55,0,0,0-2.23-.72,2.36,2.36,0,0,0-1.48.39,1.21,1.21,0,0,0-.5,1,1,1,0,0,0,.29.76,1.59,1.59,0,0,0,.69.43,11.81,11.81,0,0,0,1.16.28,12.16,12.16,0,0,1,1.45.38,2.13,2.13,0,0,1,.94.66,1.92,1.92,0,0,1,.39,1.28,2.12,2.12,0,0,1-.83,1.75,3.68,3.68,0,0,1-2.3.65A5.21,5.21,0,0,1,196.46,139.17Z"/><path class="cls-1" d="M204.36,138.92A3.79,3.79,0,0,1,203,137.4a4.9,4.9,0,0,1-.5-2.22A4.83,4.83,0,0,1,203,133a3.7,3.7,0,0,1,3.4-2.06,3.59,3.59,0,0,1,1.75.42,3.1,3.1,0,0,1,1.22,1.24l-.77.58a2.45,2.45,0,0,0-.95-.94,2.55,2.55,0,0,0-1.25-.31,2.77,2.77,0,0,0-1.48.41,2.82,2.82,0,0,0-1,1.16,4.16,4.16,0,0,0,0,3.43,2.71,2.71,0,0,0,2.5,1.56,2.65,2.65,0,0,0,1.25-.3,2.49,2.49,0,0,0,.95-.93l.77.57a3,3,0,0,1-1.23,1.24,3.51,3.51,0,0,1-1.74.43A3.7,3.7,0,0,1,204.36,138.92Z"/><path class="cls-1" d="M218.16,131v8.42h-1v-1.54a3,3,0,0,1-1.11,1.19,3,3,0,0,1-1.62.43,3,3,0,0,1-2.34-.92,3.84,3.84,0,0,1-.85-2.7V131h1v4.77a3,3,0,0,0,.59,2,2.11,2.11,0,0,0,1.68.68,2.38,2.38,0,0,0,1.89-.8,3.36,3.36,0,0,0,.69-2.25V131Z"/><path class="cls-1" d="M227.63,135.53h-6.34a3.14,3.14,0,0,0,.91,2.12,2.8,2.8,0,0,0,2.07.81,2.86,2.86,0,0,0,2.32-1.1l.57.73a3.24,3.24,0,0,1-1.26,1,3.86,3.86,0,0,1-5.13-1.73,4.7,4.7,0,0,1-.5-2.21,5,5,0,0,1,.48-2.21,3.71,3.71,0,0,1,1.32-1.52,3.48,3.48,0,0,1,1.9-.54,3.36,3.36,0,0,1,1.88.54,3.65,3.65,0,0,1,1.31,1.51,5,5,0,0,1,.48,2.22Zm-5.5-2.87a3.24,3.24,0,0,0-.84,2h5.37a3.24,3.24,0,0,0-.84-2,2.57,2.57,0,0,0-3.69,0Z"/><path class="cls-1" d="M237.49,138.88a2,2,0,0,1-.71.44,2.68,2.68,0,0,1-.89.15,2.11,2.11,0,0,1-1.64-.64,2.59,2.59,0,0,1-.58-1.81v-5.09h-1.35v-1h1.35v-1.84h1V131H237v1h-2.3v5a1.72,1.72,0,0,0,.33,1.14,1.23,1.23,0,0,0,1,.39,1.83,1.83,0,0,0,.61-.11,1.52,1.52,0,0,0,.51-.32Z"/><path class="cls-1" d="M245.47,131.83a3.78,3.78,0,0,1,.85,2.68v4.88h-1v-4.77a3,3,0,0,0-.59-2,2.08,2.08,0,0,0-1.68-.69,2.46,2.46,0,0,0-1.94.81,3.28,3.28,0,0,0-.71,2.23v4.42h-1V127.52h1v4.92a2.84,2.84,0,0,1,1.15-1.13,3.43,3.43,0,0,1,1.69-.4A2.88,2.88,0,0,1,245.47,131.83Z"/><path class="cls-1" d="M255.72,135.53h-6.34a3.14,3.14,0,0,0,.91,2.12,2.84,2.84,0,0,0,2.07.81,2.86,2.86,0,0,0,2.32-1.1l.58.73a3.4,3.4,0,0,1-1.26,1,4,4,0,0,1-1.67.35,3.94,3.94,0,0,1-2.06-.55,3.86,3.86,0,0,1-1.41-1.53,4.83,4.83,0,0,1-.5-2.21,5,5,0,0,1,.48-2.21,3.8,3.8,0,0,1,1.33-1.52,3.58,3.58,0,0,1,3.78,0,3.79,3.79,0,0,1,1.31,1.51,5,5,0,0,1,.47,2.22Zm-5.49-2.87a3.19,3.19,0,0,0-.85,2h5.37a3.13,3.13,0,0,0-.84-2,2.44,2.44,0,0,0-1.85-.78A2.41,2.41,0,0,0,250.23,132.66Z"/><path class="cls-1" d="M267.43,131.44a3.77,3.77,0,0,1,1.35,1.52,5.27,5.27,0,0,1,0,4.44,3.77,3.77,0,0,1-1.35,1.52,3.5,3.5,0,0,1-1.93.55,3.26,3.26,0,0,1-1.71-.45,3.34,3.34,0,0,1-1.22-1.3v1.67h-1V127.52h1v5a3.28,3.28,0,0,1,1.21-1.24,3.34,3.34,0,0,1,1.67-.42A3.66,3.66,0,0,1,267.43,131.44Zm-.57,6.61a2.75,2.75,0,0,0,1-1.16,4.14,4.14,0,0,0,0-3.42,2.75,2.75,0,0,0-1-1.16,2.73,2.73,0,0,0-2.88,0,2.73,2.73,0,0,0-1,1.16,4.14,4.14,0,0,0,0,3.42,2.73,2.73,0,0,0,1,1.16,2.73,2.73,0,0,0,2.88,0Z"/><path class="cls-1" d="M278,135.53h-6.33a3.13,3.13,0,0,0,.9,2.12,2.84,2.84,0,0,0,2.08.81,2.9,2.9,0,0,0,2.32-1.1l.57.73a3.24,3.24,0,0,1-1.26,1,4.14,4.14,0,0,1-3.73-.2,3.77,3.77,0,0,1-1.4-1.53,4.71,4.71,0,0,1-.51-2.21,4.82,4.82,0,0,1,.49-2.21,3.71,3.71,0,0,1,1.32-1.52,3.58,3.58,0,0,1,3.78,0,3.72,3.72,0,0,1,1.31,1.51,5,5,0,0,1,.48,2.22Zm-5.49-2.87a3.13,3.13,0,0,0-.84,2H277a3.24,3.24,0,0,0-.84-2,2.48,2.48,0,0,0-1.86-.78A2.43,2.43,0,0,0,272.46,132.66Z"/><path class="cls-1" d="M284.76,131.73a3.38,3.38,0,0,1,.79,2.44v5.22h-1v-1.31a2.57,2.57,0,0,1-1,1,3.33,3.33,0,0,1-1.59.37,3,3,0,0,1-2-.67,2.49,2.49,0,0,1-.05-3.51,3.18,3.18,0,0,1,2.23-.65h2.4v-.52a2.31,2.31,0,0,0-.54-1.65,2.13,2.13,0,0,0-1.6-.57,3.89,3.89,0,0,0-1.39.26,3.39,3.39,0,0,0-1.13.73l-.46-.85a4,4,0,0,1,1.38-.84,5.06,5.06,0,0,1,1.7-.29A3,3,0,0,1,284.76,131.73Zm-1.15,6.4a2.6,2.6,0,0,0,.92-1.27v-1.38h-2.37c-1.3,0-2,.51-2,1.51a1.43,1.43,0,0,0,.51,1.16,2.12,2.12,0,0,0,1.41.42A2.51,2.51,0,0,0,283.61,138.13Z"/><path class="cls-1" d="M295.16,131v8.42h-1v-1.54a3,3,0,0,1-1.11,1.19,3,3,0,0,1-1.61.43,3,3,0,0,1-2.34-.92,3.84,3.84,0,0,1-.86-2.7V131h1v4.77a3,3,0,0,0,.6,2,2.11,2.11,0,0,0,1.68.68,2.38,2.38,0,0,0,1.89-.8,3.36,3.36,0,0,0,.69-2.25V131Z"/><path class="cls-1" d="M302,138.88a2,2,0,0,1-.71.44,2.62,2.62,0,0,1-.88.15,2.15,2.15,0,0,1-1.65-.64,2.64,2.64,0,0,1-.57-1.81v-5.09h-1.36v-1h1.36v-1.84h1V131h2.3v1h-2.3v5a1.67,1.67,0,0,0,.34,1.14,1.21,1.21,0,0,0,1,.39,1.78,1.78,0,0,0,.61-.11,1.34,1.34,0,0,0,.51-.32Z"/><path class="cls-1" d="M310.09,131l-3.79,9.43a4.05,4.05,0,0,1-1.06,1.68,2.21,2.21,0,0,1-1.45.49,2.7,2.7,0,0,1-1-.19,2.24,2.24,0,0,1-.82-.58l.48-.84a1.8,1.8,0,0,0,1.38.64,1.31,1.31,0,0,0,.88-.32,2.92,2.92,0,0,0,.69-1.09l.33-.82-3.38-8.4h1.06l2.85,7.15,2.85-7.15Z"/><path class="cls-1" d="M316.43,138.92a3.88,3.88,0,0,1-1.39-1.53,5.13,5.13,0,0,1,0-4.42,3.79,3.79,0,0,1,1.39-1.52,3.74,3.74,0,0,1,5.32,1.52,5.13,5.13,0,0,1,0,4.42,3.79,3.79,0,0,1-1.38,1.53,3.8,3.8,0,0,1-3.94,0Zm3.42-.87a2.78,2.78,0,0,0,1-1.16,4.24,4.24,0,0,0,0-3.42,2.78,2.78,0,0,0-1-1.16,2.77,2.77,0,0,0-2.9,0,2.78,2.78,0,0,0-1,1.16,4.14,4.14,0,0,0,0,3.42,2.78,2.78,0,0,0,1,1.16,2.77,2.77,0,0,0,2.9,0Z"/><path class="cls-1" d="M325.84,128.8a1.75,1.75,0,0,0-.34,1.18v1h2.33v1h-2.3v7.46h-1v-7.46h-1.36v-1h1.36v-1a2.67,2.67,0,0,1,.59-1.82,2.16,2.16,0,0,1,1.7-.67,2.62,2.62,0,0,1,.83.13,1.81,1.81,0,0,1,.68.39l-.35.85a1.55,1.55,0,0,0-1.12-.41A1.22,1.22,0,0,0,325.84,128.8Z"/><path class="cls-1" d="M339.81,131v8.42h-1v-1.54a2.88,2.88,0,0,1-1.1,1.19,3.37,3.37,0,0,1-4-.49,3.84,3.84,0,0,1-.85-2.7V131h1v4.77a3,3,0,0,0,.59,2,2.11,2.11,0,0,0,1.68.68,2.38,2.38,0,0,0,1.89-.8,3.36,3.36,0,0,0,.69-2.25V131Z"/><path class="cls-1" d="M344.73,131.34a3.33,3.33,0,0,1,1.76-.43V132h-.24a2.3,2.3,0,0,0-1.87.81,3.51,3.51,0,0,0-.68,2.29v4.29h-1V131h1v1.65A2.62,2.62,0,0,1,344.73,131.34Z"/><path class="cls-1" d="M354.17,131.44a3.63,3.63,0,0,1,1.35,1.52,5.27,5.27,0,0,1,0,4.44,3.63,3.63,0,0,1-1.35,1.52,3.5,3.5,0,0,1-1.93.55,3.31,3.31,0,0,1-1.71-.45,3.24,3.24,0,0,1-1.21-1.3v1.67h-1V127.52h1v5a3.2,3.2,0,0,1,2.88-1.66A3.66,3.66,0,0,1,354.17,131.44Zm-.56,6.61a2.73,2.73,0,0,0,1-1.16,4.14,4.14,0,0,0,0-3.42,2.73,2.73,0,0,0-1-1.16,2.75,2.75,0,0,0-2.89,0,2.8,2.8,0,0,0-1,1.16,4.24,4.24,0,0,0,0,3.42,2.8,2.8,0,0,0,1,1.16,2.75,2.75,0,0,0,2.89,0Z"/><path class="cls-1" d="M363,131.73a3.38,3.38,0,0,1,.79,2.44v5.22h-1v-1.31a2.48,2.48,0,0,1-1,1,3.33,3.33,0,0,1-1.59.37,3,3,0,0,1-2-.67,2.49,2.49,0,0,1-.05-3.51,3.18,3.18,0,0,1,2.23-.65h2.4v-.52a2.31,2.31,0,0,0-.54-1.65,2.13,2.13,0,0,0-1.6-.57,3.89,3.89,0,0,0-1.39.26,3.39,3.39,0,0,0-1.13.73l-.46-.85a4,4,0,0,1,1.38-.84,5,5,0,0,1,1.7-.29A3,3,0,0,1,363,131.73Zm-1.15,6.4a2.6,2.6,0,0,0,.92-1.27v-1.38h-2.37c-1.3,0-1.95.51-1.95,1.51a1.43,1.43,0,0,0,.51,1.16,2.12,2.12,0,0,0,1.41.42A2.51,2.51,0,0,0,361.83,138.13Z"/><path class="cls-1" d="M372.68,131.83a3.83,3.83,0,0,1,.84,2.68v4.88h-1v-4.77a3,3,0,0,0-.59-2,2.08,2.08,0,0,0-1.68-.69,2.44,2.44,0,0,0-1.94.81,3.23,3.23,0,0,0-.71,2.23v4.42h-1V131h1v1.55a3,3,0,0,1,1.16-1.19,3.45,3.45,0,0,1,1.72-.42A2.9,2.9,0,0,1,372.68,131.83Z"/><path class="cls-1" d="M384.06,138.88a2,2,0,0,1-.71.44,2.62,2.62,0,0,1-.88.15,2.13,2.13,0,0,1-1.65-.64,2.64,2.64,0,0,1-.57-1.81v-5.09h-1.36v-1h1.36v-1.84h1V131h2.3v1h-2.3v5a1.67,1.67,0,0,0,.34,1.14,1.21,1.21,0,0,0,1,.39,1.78,1.78,0,0,0,.61-.11,1.34,1.34,0,0,0,.51-.32Z"/><path class="cls-1" d="M392.14,131l-3.79,9.43a4.05,4.05,0,0,1-1.06,1.68,2.22,2.22,0,0,1-1.46.49,2.68,2.68,0,0,1-1-.19,2.24,2.24,0,0,1-.82-.58l.48-.84a1.8,1.8,0,0,0,1.38.64,1.31,1.31,0,0,0,.88-.32,2.92,2.92,0,0,0,.69-1.09l.33-.82-3.38-8.4h1.06l2.85,7.15,2.85-7.15Z"/><path class="cls-1" d="M399.41,131.44a3.72,3.72,0,0,1,1.36,1.52,5,5,0,0,1,.49,2.22,5,5,0,0,1-.49,2.24,3.74,3.74,0,0,1-1.35,1.51,3.56,3.56,0,0,1-1.94.54,3.24,3.24,0,0,1-1.66-.43,3.3,3.3,0,0,1-1.22-1.24v4.69h-1V131h1v1.67a3.21,3.21,0,0,1,1.22-1.28,3.25,3.25,0,0,1,1.7-.45A3.63,3.63,0,0,1,399.41,131.44Zm-.56,6.61a2.82,2.82,0,0,0,1-1.16,3.9,3.9,0,0,0,.36-1.71,3.83,3.83,0,0,0-.36-1.7,2.82,2.82,0,0,0-1-1.16,2.7,2.7,0,0,0-2.89,0,2.78,2.78,0,0,0-1,1.16,3.7,3.7,0,0,0-.37,1.7,3.77,3.77,0,0,0,.37,1.71,2.78,2.78,0,0,0,1,1.16,2.75,2.75,0,0,0,2.89,0Z"/><path class="cls-1" d="M404.47,138.92a3.79,3.79,0,0,1-1.38-1.53,5,5,0,0,1,0-4.42,3.74,3.74,0,0,1,6.7,0,5.13,5.13,0,0,1,0,4.42,3.79,3.79,0,0,1-1.38,1.53,3.8,3.8,0,0,1-3.94,0Zm3.42-.87a2.71,2.71,0,0,0,1-1.16,4.24,4.24,0,0,0,0-3.42,2.71,2.71,0,0,0-1-1.16,2.77,2.77,0,0,0-2.9,0,2.78,2.78,0,0,0-1,1.16,4.14,4.14,0,0,0,0,3.42,2.78,2.78,0,0,0,1,1.16,2.77,2.77,0,0,0,2.9,0Z"/><path class="cls-1" d="M419.39,131v7.39a4.6,4.6,0,0,1-.95,3.18,3.65,3.65,0,0,1-2.84,1,5.7,5.7,0,0,1-2-.34,4.07,4.07,0,0,1-1.54-.95l.52-.87a3.8,3.8,0,0,0,1.33.85,4.64,4.64,0,0,0,1.65.3,2.72,2.72,0,0,0,2.12-.74,3.37,3.37,0,0,0,.67-2.31v-1.07a3.2,3.2,0,0,1-1.24,1.21,3.52,3.52,0,0,1-1.71.42,3.74,3.74,0,0,1-1.93-.52,3.58,3.58,0,0,1-1.37-1.46,4.72,4.72,0,0,1,0-4.23,3.57,3.57,0,0,1,1.36-1.44,3.72,3.72,0,0,1,1.94-.51,3.45,3.45,0,0,1,1.74.43,3.29,3.29,0,0,1,1.26,1.25V131Zm-2.39,6.7a2.73,2.73,0,0,0,1-1.1,3.46,3.46,0,0,0,.36-1.6,3.39,3.39,0,0,0-.36-1.59,2.77,2.77,0,0,0-1-1.09,2.83,2.83,0,0,0-1.49-.39,2.9,2.9,0,0,0-1.47.38,2.71,2.71,0,0,0-1,1.09,3.74,3.74,0,0,0,0,3.2,2.73,2.73,0,0,0,1,1.1,2.81,2.81,0,0,0,1.47.39A2.91,2.91,0,0,0,417,137.67Z"/><path class="cls-1" d="M424.3,131.34a3.36,3.36,0,0,1,1.77-.43V132h-.25a2.31,2.31,0,0,0-1.87.81,3.51,3.51,0,0,0-.68,2.29v4.29h-1V131h1v1.65A2.67,2.67,0,0,1,424.3,131.34Z"/><path class="cls-1" d="M432.82,131.73a3.38,3.38,0,0,1,.79,2.44v5.22h-1v-1.31a2.48,2.48,0,0,1-1,1,3.33,3.33,0,0,1-1.59.37,3,3,0,0,1-2-.67,2.49,2.49,0,0,1-.05-3.51,3.18,3.18,0,0,1,2.23-.65h2.4v-.52a2.27,2.27,0,0,0-.55-1.65,2.09,2.09,0,0,0-1.59-.57,3.85,3.85,0,0,0-1.39.26,3.39,3.39,0,0,0-1.13.73l-.47-.85a4.14,4.14,0,0,1,1.39-.84,5,5,0,0,1,1.7-.29A3,3,0,0,1,432.82,131.73Zm-1.15,6.4a2.6,2.6,0,0,0,.92-1.27v-1.38h-2.37c-1.3,0-2,.51-2,1.51a1.43,1.43,0,0,0,.51,1.16,2.12,2.12,0,0,0,1.41.42A2.51,2.51,0,0,0,431.67,138.13Z"/><path class="cls-1" d="M442.23,131.44a3.77,3.77,0,0,1,1.35,1.52,4.83,4.83,0,0,1,.49,2.22,4.89,4.89,0,0,1-.49,2.24,3.74,3.74,0,0,1-1.35,1.51,3.53,3.53,0,0,1-1.93.54,3.25,3.25,0,0,1-1.67-.43,3.21,3.21,0,0,1-1.21-1.24v4.69h-1V131h1v1.67a3.21,3.21,0,0,1,1.22-1.28,3.26,3.26,0,0,1,1.71-.45A3.66,3.66,0,0,1,442.23,131.44Zm-.57,6.61a2.75,2.75,0,0,0,1-1.16,3.91,3.91,0,0,0,.37-1.71,3.83,3.83,0,0,0-.37-1.7,2.75,2.75,0,0,0-1-1.16,2.68,2.68,0,0,0-2.88,0,2.73,2.73,0,0,0-1,1.16,3.7,3.7,0,0,0-.37,1.7,3.77,3.77,0,0,0,.37,1.71,2.73,2.73,0,0,0,1,1.16,2.73,2.73,0,0,0,2.88,0Z"/><path class="cls-1" d="M452.28,131.83a3.83,3.83,0,0,1,.85,2.68v4.88h-1v-4.77a3,3,0,0,0-.59-2,2.08,2.08,0,0,0-1.68-.69,2.46,2.46,0,0,0-1.94.81,3.28,3.28,0,0,0-.71,2.23v4.42h-1V127.52h1v4.92a2.84,2.84,0,0,1,1.15-1.13,3.43,3.43,0,0,1,1.69-.4A2.88,2.88,0,0,1,452.28,131.83Z"/><path class="cls-1" d="M462.13,131l-3.79,9.43a4.06,4.06,0,0,1-1.07,1.68,2.21,2.21,0,0,1-1.45.49,2.61,2.61,0,0,1-1-.19,2.27,2.27,0,0,1-.83-.58l.48-.84a1.8,1.8,0,0,0,1.38.64,1.33,1.33,0,0,0,.89-.32,3.05,3.05,0,0,0,.68-1.09l.33-.82-3.38-8.4h1.07l2.85,7.15,2.85-7.15Z"/><path class="cls-1" d="M6,157.88a2.32,2.32,0,0,1-.79.44,3.24,3.24,0,0,1-1,.15,2.51,2.51,0,0,1-1.83-.64A2.44,2.44,0,0,1,1.71,156v-5.09H.21v-1h1.5v-1.84H2.85V150H5.41v1H2.85v5a1.58,1.58,0,0,0,.37,1.14,1.43,1.43,0,0,0,1.08.39,2.2,2.2,0,0,0,.68-.11,1.59,1.59,0,0,0,.57-.32Z"/><path class="cls-1" d="M14.82,150.83a3.56,3.56,0,0,1,.94,2.68v4.88H14.62v-4.77a2.79,2.79,0,0,0-.65-2,2.46,2.46,0,0,0-1.87-.69,2.89,2.89,0,0,0-2.16.81A3.08,3.08,0,0,0,9.15,154v4.42H8V146.52H9.15v4.92a3.05,3.05,0,0,1,1.28-1.13,4.18,4.18,0,0,1,1.87-.4A3.4,3.4,0,0,1,14.82,150.83Z"/><path class="cls-1" d="M24.32,150.73a3.17,3.17,0,0,1,.88,2.44v5.22H24.11v-1.31a2.62,2.62,0,0,1-1.13,1,4,4,0,0,1-1.76.37A3.5,3.5,0,0,1,19,157.8a2.31,2.31,0,0,1-.06-3.51,3.78,3.78,0,0,1,2.47-.65h2.67v-.52a2.17,2.17,0,0,0-.6-1.65,2.52,2.52,0,0,0-1.78-.57,4.7,4.7,0,0,0-1.54.26,3.9,3.9,0,0,0-1.26.73l-.51-.85a4.61,4.61,0,0,1,1.53-.84,6.23,6.23,0,0,1,1.89-.29A3.57,3.57,0,0,1,24.32,150.73ZM23,157.13a2.59,2.59,0,0,0,1-1.27v-1.38H21.42c-1.44,0-2.16.51-2.16,1.51a1.38,1.38,0,0,0,.56,1.16,2.59,2.59,0,0,0,1.57.42A3,3,0,0,0,23,157.13Z"/><path class="cls-1" d="M32.72,157.88a2.32,2.32,0,0,1-.79.44,3.3,3.3,0,0,1-1,.15,2.49,2.49,0,0,1-1.82-.64,2.44,2.44,0,0,1-.64-1.81v-5.09H27v-1h1.5v-1.84h1.14V150h2.55v1H29.62v5A1.58,1.58,0,0,0,30,157.1a1.43,1.43,0,0,0,1.08.39,2.2,2.2,0,0,0,.68-.11,1.59,1.59,0,0,0,.57-.32Z"/><path class="cls-1" d="M46.3,154.53h-7a3,3,0,0,0,1,2.12,3.35,3.35,0,0,0,2.3.81,3.52,3.52,0,0,0,1.44-.28,3.2,3.2,0,0,0,1.14-.82l.64.73a3.63,3.63,0,0,1-1.4,1,4.84,4.84,0,0,1-1.85.35,4.73,4.73,0,0,1-2.29-.55,4,4,0,0,1-1.56-1.53,4.3,4.3,0,0,1-.56-2.21,4.49,4.49,0,0,1,.53-2.21,3.91,3.91,0,0,1,1.47-1.52,4.17,4.17,0,0,1,2.11-.54,4,4,0,0,1,2.09.54A3.86,3.86,0,0,1,45.79,152a4.61,4.61,0,0,1,.53,2.22Zm-6.1-2.87a3.07,3.07,0,0,0-.94,2h6a3,3,0,0,0-.94-2,3.07,3.07,0,0,0-4.09,0Z"/><path class="cls-1" d="M61.62,150.82a3.63,3.63,0,0,1,.91,2.69v4.88H61.39v-4.77a2.87,2.87,0,0,0-.63-2,2.31,2.31,0,0,0-1.79-.69,2.67,2.67,0,0,0-2.06.81,3.15,3.15,0,0,0-.75,2.23v4.42H55v-4.77a2.87,2.87,0,0,0-.63-2,2.31,2.31,0,0,0-1.8-.69,2.67,2.67,0,0,0-2.05.81,3.11,3.11,0,0,0-.77,2.23v4.42H48.64V150h1.09v1.54A3.09,3.09,0,0,1,51,150.32a4.05,4.05,0,0,1,1.84-.41,3.61,3.61,0,0,1,1.84.45,2.78,2.78,0,0,1,1.16,1.32,3.27,3.27,0,0,1,1.33-1.3,4.18,4.18,0,0,1,2-.47A3.33,3.33,0,0,1,61.62,150.82Z"/><path class="cls-1" d="M73,154.53h-7a3,3,0,0,0,1,2.12,3.36,3.36,0,0,0,2.31.81,3.59,3.59,0,0,0,1.44-.28,3.25,3.25,0,0,0,1.13-.82l.64.73a3.63,3.63,0,0,1-1.4,1,4.8,4.8,0,0,1-1.85.35,4.73,4.73,0,0,1-2.29-.55,4,4,0,0,1-1.56-1.53,4.4,4.4,0,0,1-.56-2.21,4.6,4.6,0,0,1,.53-2.21,3.86,3.86,0,0,1,1.48-1.52,4.35,4.35,0,0,1,4.2,0A3.83,3.83,0,0,1,72.46,152a4.61,4.61,0,0,1,.53,2.22Zm-6.1-2.87a3.07,3.07,0,0,0-.94,2h6a3,3,0,0,0-.93-2,2.89,2.89,0,0,0-2.06-.78A2.86,2.86,0,0,0,66.87,151.66Z"/><path class="cls-1" d="M77.59,150.34a4,4,0,0,1,2-.43V151h-.27a2.69,2.69,0,0,0-2.08.81,3.27,3.27,0,0,0-.75,2.29v4.29H75.31V150H76.4v1.65A2.74,2.74,0,0,1,77.59,150.34Z"/><path class="cls-1" d="M89.31,150v7.39a3.7,3.7,0,0,1-4.21,4.21,7,7,0,0,1-2.21-.34,4.68,4.68,0,0,1-1.71-.95l.58-.87a4.29,4.29,0,0,0,1.48.85,5.57,5.57,0,0,0,1.83.3,3.2,3.2,0,0,0,2.35-.74,3.15,3.15,0,0,0,.75-2.31v-1.07a3.43,3.43,0,0,1-1.38,1.21,4.24,4.24,0,0,1-1.9.42,4.58,4.58,0,0,1-2.15-.52,3.88,3.88,0,0,1-1.52-1.46,4.34,4.34,0,0,1,0-4.23,3.8,3.8,0,0,1,1.51-1.44,4.56,4.56,0,0,1,2.16-.51,4.25,4.25,0,0,1,1.94.43,3.42,3.42,0,0,1,1.39,1.25V150Zm-2.66,6.7a2.77,2.77,0,0,0,1.15-1.1,3.15,3.15,0,0,0,.41-1.6,3.08,3.08,0,0,0-.41-1.59,2.85,2.85,0,0,0-1.14-1.09A3.41,3.41,0,0,0,85,150.9a3.51,3.51,0,0,0-1.64.38,2.79,2.79,0,0,0-1.14,1.09,3.33,3.33,0,0,0,0,3.2,2.81,2.81,0,0,0,1.14,1.1,3.4,3.4,0,0,0,1.64.39A3.45,3.45,0,0,0,86.65,156.67Z"/><path class="cls-1" d="M99.82,154.53h-7a3,3,0,0,0,1,2.12,3.35,3.35,0,0,0,2.3.81,3.52,3.52,0,0,0,1.44-.28,3.2,3.2,0,0,0,1.14-.82l.64.73a3.63,3.63,0,0,1-1.4,1,4.84,4.84,0,0,1-1.85.35,4.73,4.73,0,0,1-2.29-.55,4,4,0,0,1-1.56-1.53,4.3,4.3,0,0,1-.56-2.21,4.49,4.49,0,0,1,.53-2.21,3.91,3.91,0,0,1,1.47-1.52,4.17,4.17,0,0,1,2.11-.54,4,4,0,0,1,2.09.54A3.86,3.86,0,0,1,99.31,152a4.61,4.61,0,0,1,.53,2.22Zm-6.1-2.87a3.07,3.07,0,0,0-.94,2h6a3,3,0,0,0-.94-2,3.07,3.07,0,0,0-4.09,0Z"/><path class="cls-1" d="M109.84,146.52v11.87h-1.09v-1.67a3.44,3.44,0,0,1-1.35,1.3,4,4,0,0,1-1.9.45,4.19,4.19,0,0,1-2.14-.55,3.94,3.94,0,0,1-1.51-1.52,4.83,4.83,0,0,1,0-4.44,3.94,3.94,0,0,1,1.51-1.52,4.38,4.38,0,0,1,2.14-.53,4,4,0,0,1,1.85.42,3.49,3.49,0,0,1,1.35,1.24v-5Zm-2.65,10.53a2.85,2.85,0,0,0,1.12-1.16,3.77,3.77,0,0,0,0-3.42,2.85,2.85,0,0,0-1.12-1.16,3.33,3.33,0,0,0-3.2,0,2.91,2.91,0,0,0-1.12,1.16,3.77,3.77,0,0,0,0,3.42,2.91,2.91,0,0,0,1.12,1.16,3.33,3.33,0,0,0,3.2,0Z"/><path class="cls-1" d="M117.18,147.89a.78.78,0,0,1-.24-.57.76.76,0,0,1,.24-.56.87.87,0,0,1,1.19,0,.74.74,0,0,1,.24.55.84.84,0,0,1-1.43.59Zm0,2.08h1.13v8.42H117.2Z"/><path class="cls-1" d="M128.31,150.83a3.6,3.6,0,0,1,.94,2.68v4.88h-1.14v-4.77a2.79,2.79,0,0,0-.66-2,2.45,2.45,0,0,0-1.87-.69,2.86,2.86,0,0,0-2.15.81,3,3,0,0,0-.79,2.23v4.42H121.5V150h1.09v1.55a3.16,3.16,0,0,1,1.29-1.19,4.14,4.14,0,0,1,1.91-.42A3.4,3.4,0,0,1,128.31,150.83Z"/><path class="cls-1" d="M141,157.88a2.42,2.42,0,0,1-.79.44,3.3,3.3,0,0,1-1,.15,2.47,2.47,0,0,1-1.82-.64,2.44,2.44,0,0,1-.64-1.81v-5.09h-1.51v-1h1.51v-1.84h1.13V150h2.56v1h-2.56v5a1.58,1.58,0,0,0,.38,1.14,1.43,1.43,0,0,0,1.08.39,2.25,2.25,0,0,0,.68-.11,1.59,1.59,0,0,0,.57-.32Z"/><path class="cls-1" d="M149.83,150.83a3.6,3.6,0,0,1,.94,2.68v4.88h-1.14v-4.77a2.79,2.79,0,0,0-.66-2,2.45,2.45,0,0,0-1.87-.69,2.86,2.86,0,0,0-2.15.81,3,3,0,0,0-.79,2.23v4.42H143V146.52h1.14v4.92a3,3,0,0,1,1.28-1.13,4.15,4.15,0,0,1,1.87-.4A3.4,3.4,0,0,1,149.83,150.83Z"/><path class="cls-1" d="M161.21,154.53h-7a3,3,0,0,0,1,2.12,3.35,3.35,0,0,0,2.3.81,3.52,3.52,0,0,0,1.44-.28,3.2,3.2,0,0,0,1.14-.82l.64.73a3.63,3.63,0,0,1-1.4,1,4.8,4.8,0,0,1-1.85.35,4.73,4.73,0,0,1-2.29-.55,4,4,0,0,1-1.56-1.53,4.3,4.3,0,0,1-.56-2.21,4.49,4.49,0,0,1,.53-2.21,3.91,3.91,0,0,1,1.47-1.52,4.17,4.17,0,0,1,2.11-.54,4.1,4.1,0,0,1,2.1.54A3.9,3.9,0,0,1,160.7,152a4.61,4.61,0,0,1,.53,2.22Zm-6.1-2.87a3.07,3.07,0,0,0-.94,2h6a3.06,3.06,0,0,0-.93-2,2.89,2.89,0,0,0-2.06-.78A2.86,2.86,0,0,0,155.11,151.66Z"/><path class="cls-1" d="M169.41,147.8A1.65,1.65,0,0,0,169,149v1h2.59v1h-2.56v7.46h-1.14v-7.46h-1.5v-1h1.5v-1a2.45,2.45,0,0,1,.67-1.82,2.51,2.51,0,0,1,1.88-.67,3.1,3.1,0,0,1,.92.13,2.18,2.18,0,0,1,.76.39l-.39.85a1.85,1.85,0,0,0-1.25-.41A1.44,1.44,0,0,0,169.41,147.8Zm5,.09a.78.78,0,0,1-.24-.57.76.76,0,0,1,.24-.56.81.81,0,0,1,.59-.24.8.8,0,0,1,.59.23.74.74,0,0,1,.24.55.83.83,0,0,1-1.42.59Zm0,2.08h1.14v8.42h-1.14Z"/><path class="cls-1" d="M181,150.34a4,4,0,0,1,2-.43V151h-.27a2.69,2.69,0,0,0-2.08.81,3.23,3.23,0,0,0-.76,2.29v4.29h-1.13V150h1.09v1.65A2.69,2.69,0,0,1,181,150.34Z"/><path class="cls-1" d="M185.4,158.17a4.2,4.2,0,0,1-1.47-.74l.51-.9a4.26,4.26,0,0,0,1.33.68,5.22,5.22,0,0,0,1.67.27,3.16,3.16,0,0,0,1.7-.36,1.14,1.14,0,0,0,.55-1,.93.93,0,0,0-.3-.73,2.08,2.08,0,0,0-.77-.4,10.17,10.17,0,0,0-1.23-.26,15.83,15.83,0,0,1-1.65-.39,2.43,2.43,0,0,1-1.06-.68,1.88,1.88,0,0,1-.44-1.33,2.07,2.07,0,0,1,.88-1.73,3.91,3.91,0,0,1,2.44-.67,6.59,6.59,0,0,1,1.64.21,4.78,4.78,0,0,1,1.34.57l-.5.91a4.24,4.24,0,0,0-2.48-.72,2.86,2.86,0,0,0-1.64.39,1.18,1.18,0,0,0-.55,1,1,1,0,0,0,.31.76,1.85,1.85,0,0,0,.78.43c.31.09.74.18,1.28.28a15.35,15.35,0,0,1,1.62.38,2.44,2.44,0,0,1,1,.66,1.83,1.83,0,0,1,.43,1.28,2,2,0,0,1-.92,1.75,4.41,4.41,0,0,1-2.55.65A6.33,6.33,0,0,1,185.4,158.17Z"/><path class="cls-1" d="M197.36,157.88a2.37,2.37,0,0,1-.8.44,3.19,3.19,0,0,1-1,.15,2.47,2.47,0,0,1-1.82-.64,2.44,2.44,0,0,1-.64-1.81v-5.09h-1.51v-1h1.51v-1.84h1.13V150h2.56v1h-2.56v5a1.58,1.58,0,0,0,.38,1.14,1.43,1.43,0,0,0,1.08.39,2.25,2.25,0,0,0,.68-.11,1.59,1.59,0,0,0,.57-.32Z"/><path class="cls-1" d="M210.42,150.83a3.6,3.6,0,0,1,.94,2.68v4.88h-1.14v-4.77a2.79,2.79,0,0,0-.66-2,2.45,2.45,0,0,0-1.87-.69,2.88,2.88,0,0,0-2.15.81,3,3,0,0,0-.79,2.23v4.42h-1.14V146.52h1.14v4.92a3,3,0,0,1,1.28-1.13,4.15,4.15,0,0,1,1.87-.4A3.4,3.4,0,0,1,210.42,150.83Z"/><path class="cls-1" d="M219.92,150.73a3.2,3.2,0,0,1,.87,2.44v5.22h-1.08v-1.31a2.68,2.68,0,0,1-1.13,1,4.05,4.05,0,0,1-1.77.37,3.52,3.52,0,0,1-2.24-.67,2.19,2.19,0,0,1-.83-1.78,2.16,2.16,0,0,1,.78-1.73,3.77,3.77,0,0,1,2.47-.65h2.67v-.52a2.14,2.14,0,0,0-.61-1.65,2.49,2.49,0,0,0-1.77-.57,4.65,4.65,0,0,0-1.54.26,3.9,3.9,0,0,0-1.26.73L214,151a4.66,4.66,0,0,1,1.54-.84,6.23,6.23,0,0,1,1.89-.29A3.57,3.57,0,0,1,219.92,150.73Zm-1.28,6.4a2.65,2.65,0,0,0,1-1.27v-1.38H217c-1.44,0-2.16.51-2.16,1.51a1.38,1.38,0,0,0,.56,1.16,2.57,2.57,0,0,0,1.57.42A3,3,0,0,0,218.64,157.13Z"/><path class="cls-1" d="M223.88,146.52H225v11.87h-1.14Z"/><path class="cls-1" d="M229.86,147.8a1.66,1.66,0,0,0-.38,1.18v1h2.6v1h-2.56v7.46h-1.14v-7.46h-1.5v-1h1.5v-1a2.48,2.48,0,0,1,.66-1.82,2.53,2.53,0,0,1,1.88-.67,3.22,3.22,0,0,1,.93.13,2.05,2.05,0,0,1,.75.39l-.38.85a1.86,1.86,0,0,0-1.25-.41A1.44,1.44,0,0,0,229.86,147.8Z"/><path class="cls-1" d="M239.05,157.92a4,4,0,0,1-1.53-1.53,4.64,4.64,0,0,1,0-4.42,3.92,3.92,0,0,1,1.53-1.52,4.73,4.73,0,0,1,4.39,0A3.83,3.83,0,0,1,245,152a4.64,4.64,0,0,1,0,4.42,3.92,3.92,0,0,1-1.52,1.53,4.66,4.66,0,0,1-4.39,0Zm3.8-.87a2.76,2.76,0,0,0,1.11-1.16,3.86,3.86,0,0,0,0-3.42,2.76,2.76,0,0,0-1.11-1.16,3.35,3.35,0,0,0-3.21,0,2.85,2.85,0,0,0-1.12,1.16,3.77,3.77,0,0,0,0,3.42,2.85,2.85,0,0,0,1.12,1.16,3.35,3.35,0,0,0,3.21,0Z"/><path class="cls-1" d="M249.51,147.8a1.66,1.66,0,0,0-.38,1.18v1h2.59v1h-2.56v7.46H248v-7.46h-1.51v-1H248v-1a2.48,2.48,0,0,1,.66-1.82,2.51,2.51,0,0,1,1.88-.67,3.22,3.22,0,0,1,.93.13,2.05,2.05,0,0,1,.75.39l-.38.85a1.86,1.86,0,0,0-1.25-.41A1.44,1.44,0,0,0,249.51,147.8Z"/><path class="cls-1" d="M261.88,157.88a2.23,2.23,0,0,1-.79.44,3.19,3.19,0,0,1-1,.15,2.51,2.51,0,0,1-1.83-.64,2.48,2.48,0,0,1-.64-1.81v-5.09h-1.5v-1h1.5v-1.84h1.14V150h2.56v1h-2.56v5a1.54,1.54,0,0,0,.38,1.14,1.43,1.43,0,0,0,1.08.39,2.25,2.25,0,0,0,.68-.11,1.64,1.64,0,0,0,.56-.32Z"/><path class="cls-1" d="M270.75,150.83a3.56,3.56,0,0,1,.94,2.68v4.88h-1.13v-4.77a2.79,2.79,0,0,0-.66-2,2.46,2.46,0,0,0-1.87-.69,2.85,2.85,0,0,0-2.15.81,3,3,0,0,0-.8,2.23v4.42H264V146.52h1.13v4.92a3.05,3.05,0,0,1,1.28-1.13,4.19,4.19,0,0,1,1.88-.4A3.39,3.39,0,0,1,270.75,150.83Z"/><path class="cls-1" d="M282.14,154.53h-7a3,3,0,0,0,1,2.12,3.31,3.31,0,0,0,2.3.81,3.59,3.59,0,0,0,1.44-.28,3.2,3.2,0,0,0,1.14-.82l.64.73a3.7,3.7,0,0,1-1.4,1,4.84,4.84,0,0,1-1.85.35,4.77,4.77,0,0,1-2.3-.55,4.09,4.09,0,0,1-1.56-1.53,4.4,4.4,0,0,1-.56-2.21,4.49,4.49,0,0,1,.54-2.21,3.91,3.91,0,0,1,1.47-1.52,4.35,4.35,0,0,1,4.2,0,3.93,3.93,0,0,1,1.46,1.51,4.61,4.61,0,0,1,.52,2.22ZM276,151.66a3.06,3.06,0,0,0-.93,2h6a3.07,3.07,0,0,0-.94-2,3.08,3.08,0,0,0-4.1,0Z"/><path class="cls-1" d="M293.1,157.88a2.42,2.42,0,0,1-.79.44,3.3,3.3,0,0,1-1,.15,2.47,2.47,0,0,1-1.82-.64,2.44,2.44,0,0,1-.64-1.81v-5.09h-1.51v-1h1.51v-1.84H290V150h2.56v1H290v5a1.58,1.58,0,0,0,.38,1.14,1.43,1.43,0,0,0,1.08.39,2.25,2.25,0,0,0,.68-.11,1.59,1.59,0,0,0,.57-.32Z"/><path class="cls-1" d="M307.35,150l-3.18,8.42H303.1l-2.66-6.9-2.65,6.9h-1.08L293.55,150h1.08l2.64,7.15L300,150h1l2.69,7.15,2.67-7.15Z"/><path class="cls-1" d="M316.15,154.53h-7a3,3,0,0,0,1,2.12,3.36,3.36,0,0,0,2.31.81,3.59,3.59,0,0,0,1.44-.28,3.25,3.25,0,0,0,1.13-.82l.64.73a3.63,3.63,0,0,1-1.4,1,4.8,4.8,0,0,1-1.85.35,4.73,4.73,0,0,1-2.29-.55,4,4,0,0,1-1.56-1.53,4.4,4.4,0,0,1-.56-2.21,4.6,4.6,0,0,1,.53-2.21,3.86,3.86,0,0,1,1.48-1.52,4.35,4.35,0,0,1,4.2,0,3.9,3.9,0,0,1,1.45,1.51,4.61,4.61,0,0,1,.53,2.22Zm-6.1-2.87a3.07,3.07,0,0,0-.94,2h6a3,3,0,0,0-.93-2,2.89,2.89,0,0,0-2.06-.78A2.86,2.86,0,0,0,310.05,151.66Z"/><path class="cls-1" d="M325.3,150.83a3.59,3.59,0,0,1,.93,2.68v4.88H325.1v-4.77a2.79,2.79,0,0,0-.66-2,2.46,2.46,0,0,0-1.87-.69,2.86,2.86,0,0,0-2.15.81,3,3,0,0,0-.79,2.23v4.42h-1.14V150h1.09v1.55a3.16,3.16,0,0,1,1.29-1.19,4.14,4.14,0,0,1,1.91-.42A3.43,3.43,0,0,1,325.3,150.83Z"/><path class="cls-1" d="M333.75,157.88a2.23,2.23,0,0,1-.79.44,3.19,3.19,0,0,1-1,.15,2.51,2.51,0,0,1-1.83-.64,2.48,2.48,0,0,1-.64-1.81v-5.09H328v-1h1.5v-1.84h1.14V150h2.56v1h-2.56v5a1.58,1.58,0,0,0,.38,1.14,1.43,1.43,0,0,0,1.08.39,2.25,2.25,0,0,0,.68-.11,1.64,1.64,0,0,0,.56-.32Z"/><path class="cls-1" d="M335.8,147.89a.78.78,0,0,1-.24-.57.76.76,0,0,1,.24-.56.87.87,0,0,1,1.19,0,.74.74,0,0,1,.24.55.84.84,0,0,1-1.43.59Zm0,2.08H337v8.42h-1.13Z"/><path class="cls-1" d="M347.45,154.53h-7a3,3,0,0,0,1,2.12,3.33,3.33,0,0,0,2.3.81,3.59,3.59,0,0,0,1.44-.28,3.2,3.2,0,0,0,1.14-.82l.64.73a3.7,3.7,0,0,1-1.4,1,5.08,5.08,0,0,1-4.15-.2,4.09,4.09,0,0,1-1.56-1.53,4.4,4.4,0,0,1-.56-2.21,4.49,4.49,0,0,1,.54-2.21,3.91,3.91,0,0,1,1.47-1.52,4.17,4.17,0,0,1,2.11-.54,4.07,4.07,0,0,1,2.09.54,3.86,3.86,0,0,1,1.46,1.51,4.61,4.61,0,0,1,.53,2.22Zm-6.1-2.87a3,3,0,0,0-.94,2h6a3.07,3.07,0,0,0-.94-2,3.07,3.07,0,0,0-4.09,0Z"/><path class="cls-1" d="M354.22,157.88a2.37,2.37,0,0,1-.8.44,3.19,3.19,0,0,1-1,.15,2.47,2.47,0,0,1-1.82-.64A2.44,2.44,0,0,1,350,156v-5.09h-1.51v-1H350v-1.84h1.13V150h2.56v1h-2.56v5a1.58,1.58,0,0,0,.38,1.14,1.43,1.43,0,0,0,1.08.39,2.25,2.25,0,0,0,.68-.11,1.59,1.59,0,0,0,.57-.32Z"/><path class="cls-1" d="M363.09,150.83a3.6,3.6,0,0,1,.94,2.68v4.88h-1.14v-4.77a2.79,2.79,0,0,0-.66-2,2.45,2.45,0,0,0-1.87-.69,2.86,2.86,0,0,0-2.15.81,3,3,0,0,0-.79,2.23v4.42h-1.14V146.52h1.14v4.92a3,3,0,0,1,1.28-1.13,4.15,4.15,0,0,1,1.87-.4A3.42,3.42,0,0,1,363.09,150.83Z"/><path class="cls-1" d="M372.56,157.92A3.88,3.88,0,0,1,371,156.4a4.36,4.36,0,0,1-.56-2.22A4.3,4.3,0,0,1,371,152a3.88,3.88,0,0,1,1.54-1.52,4.57,4.57,0,0,1,2.23-.54,4.37,4.37,0,0,1,1.95.42,3.23,3.23,0,0,1,1.35,1.24l-.85.58a2.65,2.65,0,0,0-1.06-.94,3.08,3.08,0,0,0-1.39-.31,3.33,3.33,0,0,0-1.64.41,2.87,2.87,0,0,0-1.13,1.16,3.79,3.79,0,0,0,0,3.43,2.84,2.84,0,0,0,1.13,1.15,3.33,3.33,0,0,0,1.64.41,3.21,3.21,0,0,0,1.39-.3,2.71,2.71,0,0,0,1.06-.93l.85.57a3.19,3.19,0,0,1-1.36,1.24,4.25,4.25,0,0,1-1.94.43A4.47,4.47,0,0,1,372.56,157.92Z"/><path class="cls-1" d="M387.5,154.53h-7a3,3,0,0,0,1,2.12,3.36,3.36,0,0,0,2.31.81,3.59,3.59,0,0,0,1.44-.28,3.08,3.08,0,0,0,1.13-.82l.65.73a3.74,3.74,0,0,1-1.41,1,5.05,5.05,0,0,1-4.14-.2,4,4,0,0,1-1.56-1.53,4.4,4.4,0,0,1-.56-2.21,4.49,4.49,0,0,1,.54-2.21,3.84,3.84,0,0,1,1.47-1.52,4.35,4.35,0,0,1,4.2,0A3.93,3.93,0,0,1,387,152a4.61,4.61,0,0,1,.52,2.22Zm-6.11-2.87a3,3,0,0,0-.93,2h6a3,3,0,0,0-.93-2,2.89,2.89,0,0,0-2.06-.78A2.86,2.86,0,0,0,381.39,151.66Z"/><path class="cls-1" d="M396.64,150.83a3.6,3.6,0,0,1,.94,2.68v4.88h-1.14v-4.77a2.83,2.83,0,0,0-.65-2,2.48,2.48,0,0,0-1.88-.69,2.88,2.88,0,0,0-2.15.81A3,3,0,0,0,391,154v4.42h-1.14V150h1.09v1.55a3.16,3.16,0,0,1,1.29-1.19,4.16,4.16,0,0,1,1.91-.42A3.4,3.4,0,0,1,396.64,150.83Z"/><path class="cls-1" d="M405.1,157.88a2.37,2.37,0,0,1-.8.44,3.19,3.19,0,0,1-1,.15,2.47,2.47,0,0,1-1.82-.64,2.44,2.44,0,0,1-.64-1.81v-5.09h-1.51v-1h1.51v-1.84H402V150h2.56v1H402v5a1.58,1.58,0,0,0,.38,1.14,1.43,1.43,0,0,0,1.08.39,2.25,2.25,0,0,0,.68-.11,1.59,1.59,0,0,0,.57-.32Z"/><path class="cls-1" d="M414.74,150v8.42h-1.08v-1.54a3.09,3.09,0,0,1-1.24,1.19,3.45,3.45,0,0,1-5.34-3.19V150h1.14v4.77a2.81,2.81,0,0,0,.65,2,2.49,2.49,0,0,0,1.87.68,2.78,2.78,0,0,0,2.1-.8,3.15,3.15,0,0,0,.77-2.25V150Z"/><path class="cls-1" d="M420.21,150.34a4,4,0,0,1,2-.43V151h-.27a2.69,2.69,0,0,0-2.08.81,3.28,3.28,0,0,0-.76,2.29v4.29h-1.13V150H419v1.65A2.69,2.69,0,0,1,420.21,150.34Z"/><path class="cls-1" d="M431.66,150l-4.21,9.43a4.06,4.06,0,0,1-1.19,1.68,2.61,2.61,0,0,1-1.61.49,3.25,3.25,0,0,1-1.14-.19,2.49,2.49,0,0,1-.91-.58l.53-.84a2.11,2.11,0,0,0,1.53.64,1.57,1.57,0,0,0,1-.32,3.08,3.08,0,0,0,.76-1.09l.37-.82L423,150h1.18l3.17,7.15,3.17-7.15Z"/><path class="cls-1" d="M432.22,158.21a.88.88,0,0,1-.24-.62.85.85,0,0,1,1.45-.62.84.84,0,0,1,.26.62.85.85,0,0,1-.26.62.83.83,0,0,1-1.21,0Z"/></g></g></svg>