<svg xmlns="http://www.w3.org/2000/svg" viewBox="0 0 213 213"><defs><style>.cls-1{fill:none;stroke:#fe5f50;stroke-miterlimit:10;}</style></defs><title>ccAsset 55</title><g id="Layer_2" data-name="Layer 2"><g id="Layer_1-2" data-name="Layer 1"><path class="cls-1" d="M30.29,64.61v95.7a7.88,7.88,0,0,0,7.85,7.86H174.86a7.88,7.88,0,0,0,7.85-7.86V64.61Z"/><path class="cls-1" d="M182.71,52.69a7.88,7.88,0,0,0-7.85-7.86H38.14a7.88,7.88,0,0,0-7.85,7.86V64.61H182.71Z"/><circle class="cls-1" cx="43.67" cy="55.6" r="3.2"/><circle class="cls-1" cx="54.43" cy="55.6" r="3.2"/><circle class="cls-1" cx="65.2" cy="55.6" r="3.2"/><rect class="cls-1" x="72.18" y="52.69" width="51.19" height="6.4" rx="2.85" ry="2.85"/><rect class="cls-1" x="40.18" y="76.54" width="132.93" height="22.98" rx="9" ry="9"/><rect class="cls-1" x="41.34" y="110.28" width="59.34" height="47.7" rx="9" ry="9"/><line class="cls-1" x1="44.16" y1="113.25" x2="98.41" y2="154.75"/><line class="cls-1" x1="97.91" y1="113" x2="43.14" y2="154.73"/><rect class="cls-1" x="112.03" y="110.28" width="59.34" height="47.7" rx="9" ry="9"/><line class="cls-1" x1="115.04" y1="112.87" x2="169.04" y2="154.62"/><line class="cls-1" x1="168.66" y1="113.25" x2="114.04" y2="154.87"/><circle class="cls-1" cx="106.5" cy="106.5" r="106"/></g></g></svg>