<svg xmlns="http://www.w3.org/2000/svg" viewBox="0 0 163.67 162.84"><defs><style>.cls-1{fill:none;stroke:#fe5f50;stroke-miterlimit:10;}</style></defs><title>svgAsset 74</title><g id="Layer_2" data-name="Layer 2"><g id="Layer_1-2" data-name="Layer 1"><path class="cls-1" d="M85.17,70.11V77a18.72,18.72,0,0,0,18.66,18.67h0A18.72,18.72,0,0,0,122.5,77V70.09C115.77,66.27,109.83,62,109.83,62,104.58,70.54,92.69,70.88,85.17,70.11Z"/><path class="cls-1" d="M103.83,42.67h0A18.72,18.72,0,0,0,85.17,61.33v8.78c7.52.77,19.41.43,24.66-8.11,0,0,5.94,4.27,12.67,8.09V61.33A18.72,18.72,0,0,0,103.83,42.67Z"/><rect class="cls-1" x="0.83" y="148.67" width="162.34" height="13.67" rx="4" ry="4"/><path class="cls-1" d="M55,144.29a7.84,7.84,0,0,1-1.34,4.38H18.08a7.87,7.87,0,0,1,6.54-12.25h22.5A7.9,7.9,0,0,1,55,144.29Z"/><rect class="cls-1" x="120.5" y="108.67" width="42.67" height="40"/><path class="cls-1" d="M139,148.92l-74.17-.58-.66-23.17h4a3,3,0,0,0,3-3V103.29a21.59,21.59,0,0,1,2.38-.62l21.33-6L102.17,120l10-24,17.33,4.67s7.75,1.38,8.67,6.67l0,1.33H120.5v40H139Z"/><path class="cls-1" d="M48.13,71.92h20a3,3,0,0,1,3,3v47.25a3,3,0,0,1-3,3H44.88v-20.5a9,9,0,0,0-18,0v20.5H3.62a3,3,0,0,1-3-3V74.92a3,3,0,0,1,3-3H23.75"/><path class="cls-1" d="M44.88,104.67v28a8.88,8.88,0,0,1-.84,3.75H27.71a8.87,8.87,0,0,1-.83-3.75v-28a9,9,0,0,1,18,0Z"/><line class="cls-1" x1="120.5" y1="122.92" x2="163.5" y2="122.92"/><line class="cls-1" x1="121.25" y1="136.17" x2="162" y2="136.17"/><circle class="cls-1" cx="35.88" cy="72.17" r="1.75"/><circle class="cls-1" cx="27.5" cy="27.5" r="27"/><polyline class="cls-1" points="27.67 12 27.67 27.5 33.17 33.17"/></g></g></svg>